<?xml version="1.0" encoding="utf-8"?>
<svg xmlns="http://www.w3.org/2000/svg" xmlns:xlink="http://www.w3.org/1999/xlink" width="800" height="400" viewBox="0 0 3200 1600">
<defs>
  <clipPath id="clip5400">
    <rect x="0" y="0" width="3200" height="1600"/>
  </clipPath>
</defs>
<polygon clip-path="url(#clip5400)" points="
0,1600 3200,1600 3200,0 0,0 
  " fill="#ffffff" fill-rule="evenodd" fill-opacity="1"/>
<defs>
  <clipPath id="clip5401">
    <rect x="640" y="0" width="2241" height="1600"/>
  </clipPath>
</defs>
<polygon clip-path="url(#clip5400)" points="
710.09,1275.5 2853.54,1275.5 2853.54,188.976 710.09,188.976 
  " fill="#ffffff" fill-rule="evenodd" fill-opacity="1"/>
<defs>
  <clipPath id="clip5402">
    <rect x="710" y="188" width="2144" height="1088"/>
  </clipPath>
</defs>
<polyline clip-path="url(#clip5402)" style="stroke:#000000; stroke-width:2; stroke-opacity:0.1; fill:none" points="
  767.942,1275.5 767.942,188.976 
  "/>
<polyline clip-path="url(#clip5402)" style="stroke:#000000; stroke-width:2; stroke-opacity:0.1; fill:none" points="
  1105.43,1275.5 1105.43,188.976 
  "/>
<polyline clip-path="url(#clip5402)" style="stroke:#000000; stroke-width:2; stroke-opacity:0.1; fill:none" points="
  1442.92,1275.5 1442.92,188.976 
  "/>
<polyline clip-path="url(#clip5402)" style="stroke:#000000; stroke-width:2; stroke-opacity:0.1; fill:none" points="
  1780.41,1275.5 1780.41,188.976 
  "/>
<polyline clip-path="url(#clip5402)" style="stroke:#000000; stroke-width:2; stroke-opacity:0.1; fill:none" points="
  2117.9,1275.5 2117.9,188.976 
  "/>
<polyline clip-path="url(#clip5402)" style="stroke:#000000; stroke-width:2; stroke-opacity:0.1; fill:none" points="
  2455.39,1275.5 2455.39,188.976 
  "/>
<polyline clip-path="url(#clip5402)" style="stroke:#000000; stroke-width:2; stroke-opacity:0.1; fill:none" points="
  2792.88,1275.5 2792.88,188.976 
  "/>
<polyline clip-path="url(#clip5402)" style="stroke:#000000; stroke-width:2; stroke-opacity:0.1; fill:none" points="
  710.09,1201.77 2853.54,1201.77 
  "/>
<polyline clip-path="url(#clip5402)" style="stroke:#000000; stroke-width:2; stroke-opacity:0.1; fill:none" points="
  710.09,882.033 2853.54,882.033 
  "/>
<polyline clip-path="url(#clip5402)" style="stroke:#000000; stroke-width:2; stroke-opacity:0.1; fill:none" points="
  710.09,562.297 2853.54,562.297 
  "/>
<polyline clip-path="url(#clip5402)" style="stroke:#000000; stroke-width:2; stroke-opacity:0.1; fill:none" points="
  710.09,242.561 2853.54,242.561 
  "/>
<polyline clip-path="url(#clip5400)" style="stroke:#000000; stroke-width:4; stroke-opacity:1; fill:none" points="
  710.09,1275.5 2853.54,1275.5 
  "/>
<polyline clip-path="url(#clip5400)" style="stroke:#000000; stroke-width:4; stroke-opacity:1; fill:none" points="
  710.09,1275.5 710.09,188.976 
  "/>
<polyline clip-path="url(#clip5400)" style="stroke:#000000; stroke-width:4; stroke-opacity:1; fill:none" points="
  767.942,1275.5 767.942,1259.21 
  "/>
<polyline clip-path="url(#clip5400)" style="stroke:#000000; stroke-width:4; stroke-opacity:1; fill:none" points="
  1105.43,1275.5 1105.43,1259.21 
  "/>
<polyline clip-path="url(#clip5400)" style="stroke:#000000; stroke-width:4; stroke-opacity:1; fill:none" points="
  1442.92,1275.5 1442.92,1259.21 
  "/>
<polyline clip-path="url(#clip5400)" style="stroke:#000000; stroke-width:4; stroke-opacity:1; fill:none" points="
  1780.41,1275.5 1780.41,1259.21 
  "/>
<polyline clip-path="url(#clip5400)" style="stroke:#000000; stroke-width:4; stroke-opacity:1; fill:none" points="
  2117.9,1275.5 2117.9,1259.21 
  "/>
<polyline clip-path="url(#clip5400)" style="stroke:#000000; stroke-width:4; stroke-opacity:1; fill:none" points="
  2455.39,1275.5 2455.39,1259.21 
  "/>
<polyline clip-path="url(#clip5400)" style="stroke:#000000; stroke-width:4; stroke-opacity:1; fill:none" points="
  2792.88,1275.5 2792.88,1259.21 
  "/>
<polyline clip-path="url(#clip5400)" style="stroke:#000000; stroke-width:4; stroke-opacity:1; fill:none" points="
  710.09,1201.77 742.242,1201.77 
  "/>
<polyline clip-path="url(#clip5400)" style="stroke:#000000; stroke-width:4; stroke-opacity:1; fill:none" points="
  710.09,882.033 742.242,882.033 
  "/>
<polyline clip-path="url(#clip5400)" style="stroke:#000000; stroke-width:4; stroke-opacity:1; fill:none" points="
  710.09,562.297 742.242,562.297 
  "/>
<polyline clip-path="url(#clip5400)" style="stroke:#000000; stroke-width:4; stroke-opacity:1; fill:none" points="
  710.09,242.561 742.242,242.561 
  "/>
<g clip-path="url(#clip5400)">
<text style="fill:#000000; fill-opacity:1; font-family:Arial,Helvetica Neue,Helvetica,sans-serif; font-size:71px; text-anchor:middle;" transform="rotate(0, 767.942, 1353.9)" x="767.942" y="1353.9">0</text>
</g>
<g clip-path="url(#clip5400)">
<text style="fill:#000000; fill-opacity:1; font-family:Arial,Helvetica Neue,Helvetica,sans-serif; font-size:71px; text-anchor:middle;" transform="rotate(0, 1105.43, 1353.9)" x="1105.43" y="1353.9">4</text>
</g>
<g clip-path="url(#clip5400)">
<text style="fill:#000000; fill-opacity:1; font-family:Arial,Helvetica Neue,Helvetica,sans-serif; font-size:71px; text-anchor:middle;" transform="rotate(0, 1442.92, 1353.9)" x="1442.92" y="1353.9">8</text>
</g>
<g clip-path="url(#clip5400)">
<text style="fill:#000000; fill-opacity:1; font-family:Arial,Helvetica Neue,Helvetica,sans-serif; font-size:71px; text-anchor:middle;" transform="rotate(0, 1780.41, 1353.9)" x="1780.41" y="1353.9">12</text>
</g>
<g clip-path="url(#clip5400)">
<text style="fill:#000000; fill-opacity:1; font-family:Arial,Helvetica Neue,Helvetica,sans-serif; font-size:71px; text-anchor:middle;" transform="rotate(0, 2117.9, 1353.9)" x="2117.9" y="1353.9">16</text>
</g>
<g clip-path="url(#clip5400)">
<text style="fill:#000000; fill-opacity:1; font-family:Arial,Helvetica Neue,Helvetica,sans-serif; font-size:71px; text-anchor:middle;" transform="rotate(0, 2455.39, 1353.9)" x="2455.39" y="1353.9">20</text>
</g>
<g clip-path="url(#clip5400)">
<text style="fill:#000000; fill-opacity:1; font-family:Arial,Helvetica Neue,Helvetica,sans-serif; font-size:71px; text-anchor:middle;" transform="rotate(0, 2792.88, 1353.9)" x="2792.88" y="1353.9">24</text>
</g>
<g clip-path="url(#clip5400)">
<text style="fill:#000000; fill-opacity:1; font-family:Arial,Helvetica Neue,Helvetica,sans-serif; font-size:71px; text-anchor:start;" transform="rotate(0, 514.619, 1237.36)" x="514.619" y="1237.36">10</text>
</g>
<g clip-path="url(#clip5400)">
<text style="fill:#000000; fill-opacity:1; font-family:Arial,Helvetica Neue,Helvetica,sans-serif; font-size:58px; text-anchor:start;" transform="rotate(0, 594.906, 1196.25)" x="594.906" y="1196.25">-</text>
</g>
<g clip-path="url(#clip5400)">
<text style="fill:#000000; fill-opacity:1; font-family:Arial,Helvetica Neue,Helvetica,sans-serif; font-size:58px; text-anchor:start;" transform="rotate(0, 629.166, 1196.25)" x="629.166" y="1196.25">5 </text>
</g>
<g clip-path="url(#clip5400)">
<text style="fill:#000000; fill-opacity:1; font-family:Arial,Helvetica Neue,Helvetica,sans-serif; font-size:71px; text-anchor:start;" transform="rotate(0, 548.879, 917.625)" x="548.879" y="917.625">10</text>
</g>
<g clip-path="url(#clip5400)">
<text style="fill:#000000; fill-opacity:1; font-family:Arial,Helvetica Neue,Helvetica,sans-serif; font-size:58px; text-anchor:start;" transform="rotate(0, 629.166, 876.509)" x="629.166" y="876.509">0 </text>
</g>
<g clip-path="url(#clip5400)">
<text style="fill:#000000; fill-opacity:1; font-family:Arial,Helvetica Neue,Helvetica,sans-serif; font-size:71px; text-anchor:start;" transform="rotate(0, 548.879, 597.888)" x="548.879" y="597.888">10</text>
</g>
<g clip-path="url(#clip5400)">
<text style="fill:#000000; fill-opacity:1; font-family:Arial,Helvetica Neue,Helvetica,sans-serif; font-size:58px; text-anchor:start;" transform="rotate(0, 629.166, 556.773)" x="629.166" y="556.773">5 </text>
</g>
<g clip-path="url(#clip5400)">
<text style="fill:#000000; fill-opacity:1; font-family:Arial,Helvetica Neue,Helvetica,sans-serif; font-size:71px; text-anchor:start;" transform="rotate(0, 516.262, 278.152)" x="516.262" y="278.152">10</text>
</g>
<g clip-path="url(#clip5400)">
<text style="fill:#000000; fill-opacity:1; font-family:Arial,Helvetica Neue,Helvetica,sans-serif; font-size:58px; text-anchor:start;" transform="rotate(0, 596.549, 237.037)" x="596.549" y="237.037">10 </text>
</g>
<g clip-path="url(#clip5400)">
<text style="fill:#000000; fill-opacity:1; font-family:Arial,Helvetica Neue,Helvetica,sans-serif; font-size:95px; text-anchor:middle;" transform="rotate(0, 1781.82, 1469.75)" x="1781.82" y="1469.75">Time (hours)</text>
</g>
<g clip-path="url(#clip5400)">
<text style="fill:#000000; fill-opacity:1; font-family:Arial,Helvetica Neue,Helvetica,sans-serif; font-size:95px; text-anchor:middle;" transform="rotate(-90, 325.073, 732.24)" x="325.073" y="732.24">Probability Full Dock</text>
</g>
<g clip-path="url(#clip5400)">
<text style="fill:#000000; fill-opacity:1; font-family:Arial,Helvetica Neue,Helvetica,sans-serif; font-size:95px; text-anchor:middle;" transform="rotate(-90, 428.753, 732.24)" x="428.753" y="732.24"> Relative Error: |(PSA-NS)/NS|</text>
</g>
<polyline clip-path="url(#clip5402)" style="stroke:#009af9; stroke-width:4; stroke-opacity:1; fill:none" points="
  770.754,948.934 772.16,931.177 773.567,921.343 774.973,914.731 776.379,909.868 777.785,906.101 779.191,903.08 780.598,900.598 782.004,898.521 783.41,896.758 
  784.816,895.245 786.223,893.935 787.629,892.79 789.035,891.784 790.441,890.894 791.847,890.103 793.254,889.398 794.66,888.766 796.066,888.197 797.472,887.684 
  798.878,887.22 800.285,886.799 801.691,886.416 803.097,886.067 804.503,885.748 805.909,885.456 807.316,885.188 808.722,884.941 810.128,884.715 811.534,884.506 
  812.94,884.313 814.347,884.135 815.753,883.969 817.159,883.816 818.565,883.674 819.971,883.543 821.378,883.42 822.784,883.306 824.19,883.2 825.596,883.102 
  827.003,883.01 828.409,882.925 829.815,882.845 831.221,882.772 832.627,882.703 834.034,882.64 835.44,882.581 836.846,882.527 838.252,882.477 839.658,882.43 
  841.065,882.388 842.471,882.349 843.877,882.313 845.283,882.28 846.689,882.251 848.096,882.224 849.502,882.199 850.908,882.177 852.314,882.158 853.72,882.14 
  855.127,882.186 856.533,882.251 857.939,882.343 859.345,882.472 860.751,882.654 862.158,882.913 863.564,883.278 864.97,883.797 866.376,884.54 867.782,885.61 
  869.189,887.175 870.595,889.515 872.001,893.14 873.407,899.13 874.814,910.453 876.22,943.874 877.626,921.467 879.032,890.863 880.438,872.63 881.845,858.403 
  883.251,846.1 884.657,834.88 886.063,824.322 887.469,814.186 888.876,804.327 890.282,794.648 891.688,785.086 893.094,775.594 894.5,766.14 895.907,756.699 
  897.313,747.252 898.719,737.785 900.125,728.284 901.531,718.739 902.938,709.141 904.344,699.481 905.75,689.749 907.156,679.937 908.562,670.038 909.969,660.04 
  911.375,649.935 912.781,639.712 914.187,629.36 915.594,618.867 917,608.219 918.406,597.401 919.812,586.398 921.218,575.192 922.625,563.764 924.031,552.094 
  925.437,540.159 926.843,527.935 928.249,515.397 929.656,502.517 931.062,489.266 932.468,475.613 933.874,461.525 935.28,446.967 936.687,431.902 938.093,416.29 
  939.499,418.991 940.905,421.624 942.311,424.196 943.718,426.711 945.124,429.166 946.53,431.56 947.936,433.889 949.342,436.149 950.749,438.338 952.155,440.452 
  953.561,442.488 954.967,444.443 956.374,446.314 957.78,448.098 959.186,449.793 960.592,451.397 961.998,452.907 963.405,454.322 964.811,455.64 966.217,456.858 
  967.623,457.975 969.029,458.99 970.436,459.9 971.842,460.705 973.248,461.403 974.654,461.992 976.06,462.472 977.467,462.84 978.873,463.095 980.279,463.237 
  981.685,463.263 983.091,463.172 984.498,462.963 985.904,462.635 987.31,462.185 988.716,461.613 990.122,460.916 991.529,460.094 992.935,459.145 994.341,458.066 
  995.747,456.857 997.154,455.516 998.56,454.04 999.966,452.428 1001.37,450.677 1002.78,448.786 1004.18,446.753 1005.59,444.575 1007,442.249 1008.4,439.775 
  1009.81,437.148 1011.22,434.366 1012.62,431.428 1014.03,428.329 1015.43,425.068 1016.84,421.64 1018.25,418.044 1019.65,414.275 1021.06,410.331 1022.47,406.208 
  1023.87,390.678 1025.28,375.917 1026.68,361.892 1028.09,348.58 1029.5,335.958 1030.9,324.007 1032.31,312.713 1033.71,302.062 1035.12,292.046 1036.53,282.657 
  1037.93,273.892 1039.34,265.751 1040.75,258.237 1042.15,251.356 1043.56,245.118 1044.96,239.535 1046.37,234.621 1047.78,230.39 1049.18,226.855 1050.59,224.025 
  1052,221.905 1053.4,220.491 1054.81,219.772 1056.21,219.727 1057.62,220.327 1059.03,221.534 1060.43,223.307 1061.84,225.598 1063.25,228.362 1064.65,231.551 
  1066.06,235.122 1067.46,239.032 1068.87,243.244 1070.28,247.724 1071.68,252.44 1073.09,257.366 1074.49,262.479 1075.9,267.756 1077.31,273.181 1078.71,278.736 
  1080.12,284.408 1081.53,290.183 1082.93,296.051 1084.34,302.002 1085.74,308.027 1087.15,314.117 1088.56,320.267 1089.96,326.468 1091.37,332.715 1092.78,339.003 
  1094.18,345.327 1095.59,351.681 1096.99,358.063 1098.4,364.467 1099.81,370.89 1101.21,377.329 1102.62,383.781 1104.03,390.241 1105.43,396.708 1106.84,403.178 
  1108.24,404.256 1109.65,408.89 1111.06,415.878 1112.46,424.632 1113.87,434.814 1115.27,446.2 1116.68,458.626 1118.09,471.961 1119.49,486.088 1120.9,500.901 
  1122.31,516.299 1123.71,532.182 1125.12,548.452 1126.52,565.013 1127.93,581.77 1129.34,598.627 1130.74,615.494 1132.15,632.282 1133.56,648.905 1134.96,665.285 
  1136.37,681.346 1137.77,697.022 1139.18,712.252 1140.59,726.987 1141.99,741.183 1143.4,754.81 1144.81,767.847 1146.21,780.286 1147.62,792.131 1149.02,803.398 
  1150.43,814.117 1151.84,824.327 1153.24,834.079 1154.65,843.429 1156.05,852.444 1157.46,861.192 1158.87,869.746 1160.27,878.18 1161.68,886.571 1163.09,894.993 
  1164.49,903.523 1165.9,912.233 1167.3,921.195 1168.71,930.475 1170.12,940.135 1171.52,950.226 1172.93,960.788 1174.34,971.841 1175.74,983.378 1177.15,995.353 
  1178.55,1007.66 1179.96,1020.12 1181.37,1032.43 1182.77,1044.15 1184.18,1054.76 1185.59,1063.77 1186.99,1070.91 1188.4,1076.24 1189.8,1080.1 1191.21,1082.91 
  1192.62,1036.73 1194.02,1036.6 1195.43,1039.62 1196.83,1043.22 1198.24,1046.85 1199.65,1050.36 1201.05,1053.73 1202.46,1056.95 1203.87,1060.05 1205.27,1063.03 
  1206.68,1065.91 1208.08,1068.68 1209.49,1071.36 1210.9,1073.95 1212.3,1076.46 1213.71,1078.89 1215.12,1081.25 1216.52,1083.55 1217.93,1085.78 1219.33,1087.95 
  1220.74,1090.07 1222.15,1092.13 1223.55,1094.14 1224.96,1096.11 1226.37,1098.02 1227.77,1099.9 1229.18,1101.73 1230.58,1103.52 1231.99,1105.27 1233.4,1106.99 
  1234.8,1108.67 1236.21,1110.32 1237.61,1111.93 1239.02,1113.52 1240.43,1115.07 1241.83,1116.6 1243.24,1118.1 1244.65,1119.57 1246.05,1121.01 1247.46,1122.44 
  1248.86,1123.83 1250.27,1125.21 1251.68,1126.56 1253.08,1127.89 1254.49,1129.19 1255.9,1130.48 1257.3,1131.75 1258.71,1133 1260.11,1134.23 1261.52,1135.44 
  1262.93,1136.64 1264.33,1137.82 1265.74,1138.98 1267.15,1140.12 1268.55,1141.25 1269.96,1142.37 1271.36,1143.47 1272.77,1144.55 1274.18,1145.63 1275.58,1146.68 
  1276.99,1152.88 1278.39,1155.69 1279.8,1158.4 1281.21,1161.02 1282.61,1163.56 1284.02,1166.03 1285.43,1168.42 1286.83,1170.75 1288.24,1173.02 1289.64,1175.22 
  1291.05,1177.37 1292.46,1179.46 1293.86,1181.5 1295.27,1183.5 1296.68,1185.44 1298.08,1187.34 1299.49,1189.2 1300.89,1191.02 1302.3,1192.8 1303.71,1194.54 
  1305.11,1196.25 1306.52,1197.92 1307.93,1199.56 1309.33,1201.16 1310.74,1202.74 1312.14,1204.29 1313.55,1205.81 1314.96,1207.3 1316.36,1208.76 1317.77,1210.2 
  1319.17,1211.62 1320.58,1213.01 1321.99,1214.38 1323.39,1215.73 1324.8,1217.05 1326.21,1218.36 1327.61,1219.64 1329.02,1220.91 1330.42,1222.15 1331.83,1223.38 
  1333.24,1224.59 1334.64,1225.78 1336.05,1226.96 1337.46,1228.12 1338.86,1229.26 1340.27,1230.39 1341.67,1231.5 1343.08,1232.6 1344.49,1233.68 1345.89,1234.75 
  1347.3,1235.81 1348.71,1236.85 1350.11,1237.88 1351.52,1238.9 1352.92,1239.9 1354.33,1240.89 1355.74,1241.88 1357.14,1242.85 1358.55,1243.8 1359.95,1244.75 
  1361.36,1183.65 1362.77,1184.34 1364.17,1185.03 1365.58,1185.71 1366.99,1186.39 1368.39,1187.06 1369.8,1187.72 1371.2,1188.38 1372.61,1189.04 1374.02,1189.69 
  1375.42,1190.33 1376.83,1190.97 1378.24,1191.61 1379.64,1192.24 1381.05,1192.87 1382.45,1193.49 1383.86,1194.1 1385.27,1194.72 1386.67,1195.32 1388.08,1195.93 
  1389.49,1196.52 1390.89,1197.12 1392.3,1197.71 1393.7,1198.3 1395.11,1198.88 1396.52,1199.46 1397.92,1200.03 1399.33,1200.6 1400.73,1201.17 1402.14,1201.73 
  1403.55,1202.29 1404.95,1202.84 1406.36,1203.39 1407.77,1203.94 1409.17,1204.48 1410.58,1205.02 1411.98,1205.56 1413.39,1206.09 1414.8,1206.63 1416.2,1207.15 
  1417.61,1207.68 1419.02,1208.2 1420.42,1208.71 1421.83,1209.23 1423.23,1209.74 1424.64,1210.24 1426.05,1210.75 1427.45,1211.25 1428.86,1211.75 1430.27,1212.24 
  1431.67,1212.74 1433.08,1213.23 1434.48,1213.71 1435.89,1214.2 1437.3,1214.68 1438.7,1215.16 1440.11,1215.63 1441.51,1216.11 1442.92,1216.58 1444.33,1217.04 
  1445.73,1175.31 1447.14,1174.3 1448.55,1173.28 1449.95,1172.25 1451.36,1171.2 1452.76,1170.14 1454.17,1169.07 1455.58,1167.98 1456.98,1166.88 1458.39,1165.76 
  1459.8,1164.63 1461.2,1163.48 1462.61,1162.32 1464.01,1161.14 1465.42,1159.94 1466.83,1158.73 1468.23,1157.49 1469.64,1156.24 1471.05,1154.97 1472.45,1153.68 
  1473.86,1152.37 1475.26,1151.04 1476.67,1149.69 1478.08,1148.32 1479.48,1146.92 1480.89,1145.5 1482.29,1144.05 1483.7,1142.58 1485.11,1141.08 1486.51,1139.56 
  1487.92,1138 1489.33,1136.42 1490.73,1134.81 1492.14,1133.16 1493.54,1131.48 1494.95,1129.77 1496.36,1128.02 1497.76,1126.24 1499.17,1124.41 1500.58,1122.55 
  1501.98,1120.64 1503.39,1118.69 1504.79,1116.69 1506.2,1114.64 1507.61,1112.54 1509.01,1110.39 1510.42,1108.18 1511.83,1105.91 1513.23,1103.57 1514.64,1101.17 
  1516.04,1098.71 1517.45,1096.16 1518.86,1093.54 1520.26,1090.83 1521.67,1088.03 1523.07,1085.14 1524.48,1082.14 1525.89,1079.04 1527.29,1075.81 1528.7,1072.46 
  1530.11,1148.91 1531.51,1148.87 1532.92,1148.19 1534.32,1147.51 1535.73,1146.81 1537.14,1146.12 1538.54,1145.41 1539.95,1144.7 1541.36,1143.99 1542.76,1143.26 
  1544.17,1142.54 1545.57,1141.8 1546.98,1141.06 1548.39,1140.31 1549.79,1139.56 1551.2,1138.8 1552.61,1138.03 1554.01,1137.25 1555.42,1136.47 1556.82,1135.68 
  1558.23,1134.88 1559.64,1134.07 1561.04,1133.26 1562.45,1132.44 1563.85,1131.61 1565.26,1130.77 1566.67,1129.93 1568.07,1129.07 1569.48,1128.21 1570.89,1127.34 
  1572.29,1126.45 1573.7,1125.56 1575.1,1124.66 1576.51,1123.75 1577.92,1122.83 1579.32,1121.9 1580.73,1120.96 1582.14,1120.01 1583.54,1119.04 1584.95,1118.07 
  1586.35,1117.08 1587.76,1116.09 1589.17,1115.08 1590.57,1114.05 1591.98,1113.02 1593.39,1111.97 1594.79,1110.91 1596.2,1109.84 1597.6,1108.75 1599.01,1107.65 
  1600.42,1106.53 1601.82,1105.4 1603.23,1104.25 1604.63,1103.09 1606.04,1101.91 1607.45,1100.72 1608.85,1099.5 1610.26,1098.27 1611.67,1097.02 1613.07,1095.76 
  1614.48,1112.17 1615.88,1112.59 1617.29,1112.29 1618.7,1111.93 1620.1,1111.57 1621.51,1111.21 1622.92,1110.84 1624.32,1110.47 1625.73,1110.11 1627.13,1109.74 
  1628.54,1109.36 1629.95,1108.99 1631.35,1108.62 1632.76,1108.24 1634.17,1107.86 1635.57,1107.48 1636.98,1107.1 1638.38,1106.72 1639.79,1106.33 1641.2,1105.94 
  1642.6,1105.55 1644.01,1105.16 1645.41,1104.77 1646.82,1104.38 1648.23,1103.98 1649.63,1103.58 1651.04,1103.18 1652.45,1102.78 1653.85,1102.38 1655.26,1101.97 
  1656.66,1101.56 1658.07,1101.15 1659.48,1100.74 1660.88,1100.33 1662.29,1099.91 1663.7,1099.49 1665.1,1099.07 1666.51,1098.65 1667.91,1098.23 1669.32,1097.8 
  1670.73,1097.37 1672.13,1096.94 1673.54,1096.51 1674.95,1096.07 1676.35,1095.63 1677.76,1095.19 1679.16,1094.75 1680.57,1094.31 1681.98,1093.86 1683.38,1093.41 
  1684.79,1092.96 1686.19,1092.51 1687.6,1092.05 1689.01,1091.59 1690.41,1091.13 1691.82,1090.67 1693.23,1090.2 1694.63,1089.73 1696.04,1089.26 1697.44,1088.78 
  1698.85,1055.5 1700.26,1052.94 1701.66,1051.73 1703.07,1050.72 1704.48,1049.73 1705.88,1048.73 1707.29,1047.73 1708.69,1046.71 1710.1,1045.69 1711.51,1044.65 
  1712.91,1043.59 1714.32,1042.53 1715.73,1041.45 1717.13,1040.36 1718.54,1039.25 1719.94,1038.14 1721.35,1037 1722.76,1035.85 1724.16,1034.69 1725.57,1033.51 
  1726.97,1032.32 1728.38,1031.11 1729.79,1029.88 1731.19,1028.64 1732.6,1027.37 1734.01,1026.09 1735.41,1024.8 1736.82,1023.48 1738.22,1022.14 1739.63,1020.79 
  1741.04,1019.41 1742.44,1018.01 1743.85,1016.6 1745.26,1015.15 1746.66,1013.69 1748.07,1012.21 1749.47,1010.7 1750.88,1009.16 1752.29,1007.6 1753.69,1006.02 
  1755.1,1004.4 1756.51,1002.76 1757.91,1001.1 1759.32,999.401 1760.72,997.676 1762.13,995.92 1763.54,994.133 1764.94,992.313 1766.35,990.461 1767.75,988.575 
  1769.16,986.654 1770.57,984.697 1771.97,982.703 1773.38,980.672 1774.79,978.602 1776.19,976.492 1777.6,974.341 1779,972.148 1780.41,969.913 1781.82,967.633 
  1783.22,969.636 1784.63,970.067 1786.04,969.792 1787.44,969.095 1788.85,968.125 1790.25,966.968 1791.66,965.676 1793.07,964.285 1794.47,962.816 1795.88,961.286 
  1797.29,959.706 1798.69,958.082 1800.1,956.421 1801.5,954.725 1802.91,952.998 1804.32,951.243 1805.72,949.46 1807.13,947.651 1808.53,945.817 1809.94,943.96 
  1811.35,942.08 1812.75,940.179 1814.16,938.258 1815.57,936.318 1816.97,934.362 1818.38,932.39 1819.78,930.405 1821.19,928.41 1822.6,926.408 1824,924.401 
  1825.41,922.393 1826.82,920.389 1828.22,918.393 1829.63,916.411 1831.03,914.447 1832.44,912.507 1833.85,910.598 1835.25,908.725 1836.66,906.896 1838.07,905.117 
  1839.47,903.394 1840.88,901.733 1842.28,900.139 1843.69,898.619 1845.1,897.176 1846.5,895.813 1847.91,894.532 1849.31,893.336 1850.72,892.225 1852.13,891.198 
  1853.53,890.253 1854.94,889.388 1856.35,888.601 1857.75,887.886 1859.16,887.241 1860.56,886.661 1861.97,886.14 1863.38,885.675 1864.78,885.261 1866.19,884.893 
  1867.6,885.189 1869,885.484 1870.41,885.786 1871.81,886.098 1873.22,886.422 1874.63,886.759 1876.03,887.109 1877.44,887.475 1878.85,887.856 1880.25,888.254 
  1881.66,888.67 1883.06,889.104 1884.47,889.558 1885.88,890.033 1887.28,890.529 1888.69,891.048 1890.09,891.59 1891.5,892.158 1892.91,892.752 1894.31,893.373 
  1895.72,894.024 1897.13,894.705 1898.53,895.419 1899.94,896.166 1901.34,896.949 1902.75,897.771 1904.16,898.633 1905.56,899.537 1906.97,900.487 1908.38,901.486 
  1909.78,902.536 1911.19,903.641 1912.59,904.806 1914,906.035 1915.41,907.333 1916.81,908.707 1918.22,910.163 1919.63,911.71 1921.03,913.356 1922.44,915.113 
  1923.84,916.995 1925.25,919.016 1926.66,921.198 1928.06,923.565 1929.47,926.148 1930.87,928.987 1932.28,932.138 1933.69,935.674 1935.09,939.7 1936.5,944.374 
  1937.91,949.945 1939.31,956.85 1940.72,965.948 1942.12,979.37 1943.53,1005.79 1944.94,1021.52 1946.34,985.014 1947.75,969.951 1949.16,960.373 1950.56,953.373 
  1951.97,991.292 1953.37,945.283 1954.78,930.295 1956.19,921.504 1957.59,915.448 1959,910.93 1960.41,907.393 1961.81,904.535 1963.22,902.171 1964.62,900.183 
  1966.03,898.488 1967.44,897.028 1968.84,895.758 1970.25,894.647 1971.65,893.668 1973.06,892.801 1974.47,892.031 1975.87,891.342 1977.28,890.726 1978.69,890.172 
  1980.09,889.673 1981.5,889.222 1982.9,888.814 1984.31,888.444 1985.72,888.109 1987.12,887.804 1988.53,887.526 1989.94,887.273 1991.34,887.042 1992.75,886.832 
  1994.15,886.64 1995.56,886.465 1996.97,886.306 1998.37,886.161 1999.78,886.029 2001.19,885.909 2002.59,885.8 2004,885.702 2005.4,885.613 2006.81,885.534 
  2008.22,885.464 2009.62,885.401 2011.03,885.347 2012.43,885.299 2013.84,885.259 2015.25,885.226 2016.65,885.199 2018.06,885.179 2019.47,885.165 2020.87,885.157 
  2022.28,885.155 2023.68,885.16 2025.09,885.17 2026.5,885.186 2027.9,885.208 2029.31,885.237 2030.72,885.271 2032.12,885.312 2033.53,885.36 2034.93,885.414 
  2036.34,885.385 2037.75,885.373 2039.15,885.377 2040.56,885.397 2041.97,885.43 2043.37,885.478 2044.78,885.541 2046.18,885.618 2047.59,885.71 2049,885.817 
  2050.4,885.941 2051.81,886.082 2053.21,886.241 2054.62,886.418 2056.03,886.616 2057.43,886.834 2058.84,887.075 2060.25,887.339 2061.65,887.627 2063.06,887.94 
  2064.46,888.28 2065.87,888.647 2067.28,889.041 2068.68,889.464 2070.09,889.914 2071.5,890.393 2072.9,890.898 2074.31,891.429 2075.71,891.986 2077.12,892.564 
  2078.53,893.164 2079.93,893.781 2081.34,894.414 2082.75,895.06 2084.15,895.714 2085.56,896.375 2086.96,897.04 2088.37,897.705 2089.78,898.368 2091.18,899.028 
  2092.59,899.681 2093.99,900.327 2095.4,900.964 2096.81,901.591 2098.21,902.208 2099.62,902.815 2101.03,903.412 2102.43,903.998 2103.84,904.574 2105.24,905.14 
  2106.65,905.697 2108.06,906.245 2109.46,906.785 2110.87,907.318 2112.28,907.843 2113.68,908.362 2115.09,908.875 2116.49,909.381 2117.9,909.883 2119.31,910.38 
  2120.71,892.126 2122.12,886.933 2123.53,884.796 2124.93,883.782 2126.34,883.26 2127.74,882.983 2129.15,882.84 2130.56,882.783 2131.96,882.79 2133.37,882.857 
  2134.77,882.991 2136.18,883.208 2137.59,883.531 2138.99,883.979 2140.4,884.563 2141.81,885.267 2143.21,886.057 2144.62,886.888 2146.02,887.73 2147.43,888.567 
  2148.84,889.397 2150.24,890.222 2151.65,891.044 2153.06,891.866 2154.46,892.688 2155.87,893.51 2157.27,894.33 2158.68,895.173 2160.09,896.074 2161.49,896.534 
  2162.9,897.592 2164.31,898.385 2165.71,899.212 2167.12,900.048 2168.52,900.875 2169.93,901.667 2171.34,902.441 2172.74,903.266 2174.15,904.328 2175.55,904.621 
  2176.96,905.587 2178.37,906.374 2179.77,907.145 2181.18,907.91 2182.59,908.669 2183.99,909.423 2185.4,910.172 2186.8,910.915 2188.21,911.654 2189.62,912.387 
  2191.02,913.113 2192.43,913.837 2193.84,914.554 2195.24,915.265 2196.65,915.971 2198.05,916.672 2199.46,917.368 2200.87,918.059 2202.27,918.744 2203.68,919.425 
  2205.09,926.115 2206.49,929.506 2207.9,930.175 2209.3,930.442 2210.71,930.696 2212.12,930.948 2213.52,931.199 2214.93,931.448 2216.33,931.696 2217.74,931.943 
  2219.15,932.19 2220.55,932.435 2221.96,932.681 2223.37,932.924 2224.77,933.158 2226.18,933.374 2227.58,933.649 2228.99,933.771 2230.4,933.571 2231.8,933.527 
  2233.21,933.028 2234.62,934.459 2236.02,943.972 2237.43,939.592 2238.83,930.895 2240.24,919.703 2241.65,910.209 2243.05,878.501 2244.46,886.559 2245.87,882.858 
  2247.27,882.663 2248.68,881.724 2250.08,882.099 2251.49,882.117 2252.9,882.703 2254.3,884.09 2255.71,889.582 2257.11,887.433 2258.52,973.339 2259.93,888.09 
  2261.33,888.375 2262.74,937.435 2264.15,838.954 2265.55,900.776 2266.96,883.764 2268.36,863.368 2269.77,876.844 2271.18,948.985 2272.58,898.481 2273.99,873.675 
  2275.4,882.834 2276.8,878.021 2278.21,883.476 2279.61,883.627 2281.02,882.61 2282.43,881.242 2283.83,881.999 2285.24,881.887 2286.65,882.085 2288.05,882.414 
  2289.46,939.27 2290.86,931.448 2292.27,930.873 2293.68,930.385 2295.08,929.892 2296.49,929.395 2297.89,928.894 2299.3,928.39 2300.71,927.881 2302.11,927.368 
  2303.52,926.848 2304.93,926.328 2306.33,925.801 2307.74,925.268 2309.14,924.737 2310.55,924.188 2311.96,923.647 2313.36,923.106 2314.77,922.529 2316.18,922.019 
  2317.58,921.393 2318.99,920.792 2320.39,920.241 2321.8,919.625 2323.21,919.061 2324.61,918.498 2326.02,917.881 2327.43,917.321 2328.83,916.654 2330.24,916.061 
  2331.64,915.426 2333.05,914.777 2334.46,914.165 2335.86,913.484 2337.27,912.851 2338.67,912.176 2340.08,911.495 2341.49,910.866 2342.89,910.106 2344.3,909.573 
  2345.71,908.537 2347.11,908.014 2348.52,907.375 2349.92,906.547 2351.33,905.81 2352.74,905.068 2354.14,904.328 2355.55,903.55 2356.96,902.765 2358.36,901.974 
  2359.77,901.166 2361.17,900.348 2362.58,899.519 2363.99,898.676 2365.39,897.821 2366.8,896.95 2368.21,896.067 2369.61,895.169 2371.02,894.257 2372.42,893.328 
  2373.83,912.407 2375.24,930.382 2376.64,940.482 2378.05,942.47 2379.45,942.234 2380.86,941.722 2382.27,941.184 2383.67,940.642 2385.08,940.096 2386.49,939.547 
  2387.89,938.992 2389.3,938.434 2390.7,937.873 2392.11,937.306 2393.52,936.734 2394.92,936.16 2396.33,935.581 2397.74,934.995 2399.14,934.406 2400.55,933.816 
  2401.95,933.215 2403.36,932.608 2404.77,932.005 2406.17,931.395 2407.58,930.765 2408.99,930.143 2410.39,929.524 2411.8,928.884 2413.2,928.24 2414.61,927.599 
  2416.02,926.947 2417.42,926.285 2418.83,925.623 2420.23,924.955 2421.64,924.275 2423.05,923.592 2424.45,922.906 2425.86,922.207 2427.27,921.502 2428.67,920.796 
  2430.08,920.078 2431.48,919.347 2432.89,918.62 2434.3,917.885 2435.7,917.13 2437.11,916.375 2438.52,915.616 2439.92,914.834 2441.33,914.048 2442.73,913.264 
  2444.14,912.464 2445.55,911.655 2446.95,910.835 2448.36,910.006 2449.77,909.166 2451.17,908.316 2452.58,907.455 2453.98,906.583 2455.39,905.699 2456.8,904.804 
  2458.2,923.859 2459.61,954.276 2461.01,987.92 2462.42,952.351 2463.83,943.476 2465.23,940.164 2466.64,938.782 2468.05,938.078 2469.45,937.593 2470.86,937.174 
  2472.26,936.771 2473.67,936.37 2475.08,935.971 2476.48,935.569 2477.89,935.165 2479.3,934.761 2480.7,934.355 2482.11,933.946 2483.51,933.537 2484.92,933.126 
  2486.33,932.712 2487.73,932.298 2489.14,931.881 2490.55,931.463 2491.95,931.043 2493.36,930.621 2494.76,930.198 2496.17,929.773 2497.58,929.346 2498.98,928.918 
  2500.39,928.485 2501.79,928.055 2503.2,927.621 2504.61,927.183 2506.01,926.748 2507.42,926.298 2508.83,925.867 2510.23,925.418 2511.64,924.98 2513.04,924.532 
  2514.45,924.061 2515.86,923.672 2517.26,923.182 2518.67,922.725 2520.08,922.272 2521.48,921.814 2522.89,921.355 2524.29,920.893 2525.7,920.431 2527.11,919.966 
  2528.51,919.5 2529.92,919.031 2531.33,918.562 2532.73,918.09 2534.14,917.616 2535.54,917.142 2536.95,916.663 2538.36,916.187 2539.76,915.709 2541.17,915.224 
  2542.57,930.959 2543.98,970.399 2545.39,951.689 2546.79,928.227 2548.2,917.768 2549.61,912.083 2551.01,908.813 2552.42,906.786 2553.82,905.351 2555.23,904.169 
  2556.64,903.084 2558.04,902.025 2559.45,900.967 2560.86,899.897 2562.26,898.812 2563.67,897.711 2565.07,896.591 2566.48,895.452 2567.89,894.293 2569.29,893.113 
  2570.7,891.912 2572.11,890.688 2573.51,889.441 2574.92,888.17 2576.32,886.873 2577.73,885.549 2579.14,884.197 2580.54,882.817 2581.95,881.406 2583.35,879.962 
  2584.76,878.485 2586.17,876.973 2587.57,875.423 2588.98,873.834 2590.39,872.203 2591.79,870.529 2593.2,868.809 2594.6,867.04 2596.01,865.218 2597.42,863.342 
  2598.82,861.408 2600.23,859.411 2601.64,857.348 2603.04,855.214 2604.45,853.005 2605.85,850.715 2607.26,848.338 2608.67,845.869 2610.07,843.3 2611.48,840.624 
  2612.89,837.832 2614.29,834.915 2615.7,831.864 2617.1,828.667 2618.51,825.311 2619.92,821.784 2621.32,818.07 2622.73,814.153 2624.13,810.014 2625.54,805.634 
  2626.95,815.523 2628.35,825.103 2629.76,834.51 2631.17,843.856 2632.57,853.273 2633.98,862.946 2635.38,873.15 2636.79,884.342 2638.2,897.398 2639.6,914.433 
  2641.01,943.874 2642.42,964.793 2643.82,930.332 2645.23,917.898 2646.63,910.841 2648.04,906.208 2649.45,902.927 2650.85,900.488 2652.26,898.612 2653.67,897.13 
  2655.07,895.934 2656.48,894.95 2657.88,894.128 2659.29,893.431 2660.7,892.83 2662.1,892.305 2663.51,891.841 2664.91,891.426 2666.32,891.05 2667.73,890.705 
  2669.13,890.386 2670.54,890.087 2671.95,889.806 2673.35,889.539 2674.76,889.284 2676.16,889.039 2677.57,888.803 2678.98,888.573 2680.38,888.35 2681.79,888.133 
  2683.2,887.92 2684.6,887.712 2686.01,887.508 2687.41,887.308 2688.82,887.112 2690.23,886.919 2691.63,886.73 2693.04,886.544 2694.45,886.361 2695.85,886.182 
  2697.26,886.007 2698.66,885.834 2700.07,885.666 2701.48,885.5 2702.88,885.339 2704.29,885.18 2705.69,885.026 2707.1,884.875 2708.51,884.728 2709.91,884.585 
  2711.32,885.323 2712.73,886.252 2714.13,887.429 2715.54,888.927 2716.94,890.845 2718.35,893.331 2719.76,896.608 2721.16,901.053 2722.57,907.371 2723.98,917.17 
  2725.38,935.808 2726.79,1000.68 2728.19,927.583 2729.6,907.676 2731.01,895.095 2732.41,885.656 2733.82,877.997 2735.23,871.499 2736.63,865.831 2738.04,860.789 
  2739.44,856.241 2740.85,852.091 2742.26,848.269 2743.66,844.716 2745.07,841.385 2746.47,838.235 2747.88,835.232 2749.29,832.344 2750.69,829.543 2752.1,826.803 
  2753.51,824.103 2754.91,821.423 2756.32,818.744 2757.72,816.051 2759.13,813.329 2760.54,810.565 2761.94,807.746 2763.35,804.861 2764.76,801.901 2766.16,798.853 
  2767.57,795.71 2768.97,792.461 2770.38,789.097 2771.79,785.608 2773.19,781.984 2774.6,778.216 2776.01,774.293 2777.41,770.204 2778.82,765.939 2780.22,761.485 
  2781.63,756.83 2783.04,751.96 2784.44,746.861 2785.85,741.519 2787.25,735.916 2788.66,730.036 2790.07,723.861 2791.47,717.369 2792.88,710.541 
  "/>
</svg>
