<?xml version="1.0" encoding="utf-8"?>
<svg xmlns="http://www.w3.org/2000/svg" xmlns:xlink="http://www.w3.org/1999/xlink" width="800" height="400" viewBox="0 0 3200 1600">
<defs>
  <clipPath id="clip7000">
    <rect x="0" y="0" width="3200" height="1600"/>
  </clipPath>
</defs>
<polygon clip-path="url(#clip7000)" points="
0,1600 3200,1600 3200,0 0,0 
  " fill="#ffffff" fill-rule="evenodd" fill-opacity="1"/>
<defs>
  <clipPath id="clip7001">
    <rect x="640" y="0" width="2241" height="1600"/>
  </clipPath>
</defs>
<polygon clip-path="url(#clip7000)" points="
538.82,1275.5 2853.54,1275.5 2853.54,188.976 538.82,188.976 
  " fill="#ffffff" fill-rule="evenodd" fill-opacity="1"/>
<defs>
  <clipPath id="clip7002">
    <rect x="538" y="188" width="2316" height="1088"/>
  </clipPath>
</defs>
<polyline clip-path="url(#clip7002)" style="stroke:#000000; stroke-width:2; stroke-opacity:0.1; fill:none" points="
  602.813,1275.5 602.813,188.976 
  "/>
<polyline clip-path="url(#clip7002)" style="stroke:#000000; stroke-width:2; stroke-opacity:0.1; fill:none" points="
  967.017,1275.5 967.017,188.976 
  "/>
<polyline clip-path="url(#clip7002)" style="stroke:#000000; stroke-width:2; stroke-opacity:0.1; fill:none" points="
  1331.22,1275.5 1331.22,188.976 
  "/>
<polyline clip-path="url(#clip7002)" style="stroke:#000000; stroke-width:2; stroke-opacity:0.1; fill:none" points="
  1695.42,1275.5 1695.42,188.976 
  "/>
<polyline clip-path="url(#clip7002)" style="stroke:#000000; stroke-width:2; stroke-opacity:0.1; fill:none" points="
  2059.63,1275.5 2059.63,188.976 
  "/>
<polyline clip-path="url(#clip7002)" style="stroke:#000000; stroke-width:2; stroke-opacity:0.1; fill:none" points="
  2423.83,1275.5 2423.83,188.976 
  "/>
<polyline clip-path="url(#clip7002)" style="stroke:#000000; stroke-width:2; stroke-opacity:0.1; fill:none" points="
  2788.03,1275.5 2788.03,188.976 
  "/>
<polyline clip-path="url(#clip7002)" style="stroke:#000000; stroke-width:2; stroke-opacity:0.1; fill:none" points="
  538.82,1243.48 2853.54,1243.48 
  "/>
<polyline clip-path="url(#clip7002)" style="stroke:#000000; stroke-width:2; stroke-opacity:0.1; fill:none" points="
  538.82,1055.52 2853.54,1055.52 
  "/>
<polyline clip-path="url(#clip7002)" style="stroke:#000000; stroke-width:2; stroke-opacity:0.1; fill:none" points="
  538.82,867.551 2853.54,867.551 
  "/>
<polyline clip-path="url(#clip7002)" style="stroke:#000000; stroke-width:2; stroke-opacity:0.1; fill:none" points="
  538.82,679.585 2853.54,679.585 
  "/>
<polyline clip-path="url(#clip7002)" style="stroke:#000000; stroke-width:2; stroke-opacity:0.1; fill:none" points="
  538.82,491.619 2853.54,491.619 
  "/>
<polyline clip-path="url(#clip7002)" style="stroke:#000000; stroke-width:2; stroke-opacity:0.1; fill:none" points="
  538.82,303.654 2853.54,303.654 
  "/>
<polyline clip-path="url(#clip7000)" style="stroke:#000000; stroke-width:4; stroke-opacity:1; fill:none" points="
  538.82,1275.5 2853.54,1275.5 
  "/>
<polyline clip-path="url(#clip7000)" style="stroke:#000000; stroke-width:4; stroke-opacity:1; fill:none" points="
  538.82,1275.5 538.82,188.976 
  "/>
<polyline clip-path="url(#clip7000)" style="stroke:#000000; stroke-width:4; stroke-opacity:1; fill:none" points="
  602.813,1275.5 602.813,1259.21 
  "/>
<polyline clip-path="url(#clip7000)" style="stroke:#000000; stroke-width:4; stroke-opacity:1; fill:none" points="
  967.017,1275.5 967.017,1259.21 
  "/>
<polyline clip-path="url(#clip7000)" style="stroke:#000000; stroke-width:4; stroke-opacity:1; fill:none" points="
  1331.22,1275.5 1331.22,1259.21 
  "/>
<polyline clip-path="url(#clip7000)" style="stroke:#000000; stroke-width:4; stroke-opacity:1; fill:none" points="
  1695.42,1275.5 1695.42,1259.21 
  "/>
<polyline clip-path="url(#clip7000)" style="stroke:#000000; stroke-width:4; stroke-opacity:1; fill:none" points="
  2059.63,1275.5 2059.63,1259.21 
  "/>
<polyline clip-path="url(#clip7000)" style="stroke:#000000; stroke-width:4; stroke-opacity:1; fill:none" points="
  2423.83,1275.5 2423.83,1259.21 
  "/>
<polyline clip-path="url(#clip7000)" style="stroke:#000000; stroke-width:4; stroke-opacity:1; fill:none" points="
  2788.03,1275.5 2788.03,1259.21 
  "/>
<polyline clip-path="url(#clip7000)" style="stroke:#000000; stroke-width:4; stroke-opacity:1; fill:none" points="
  538.82,1243.48 573.541,1243.48 
  "/>
<polyline clip-path="url(#clip7000)" style="stroke:#000000; stroke-width:4; stroke-opacity:1; fill:none" points="
  538.82,1055.52 573.541,1055.52 
  "/>
<polyline clip-path="url(#clip7000)" style="stroke:#000000; stroke-width:4; stroke-opacity:1; fill:none" points="
  538.82,867.551 573.541,867.551 
  "/>
<polyline clip-path="url(#clip7000)" style="stroke:#000000; stroke-width:4; stroke-opacity:1; fill:none" points="
  538.82,679.585 573.541,679.585 
  "/>
<polyline clip-path="url(#clip7000)" style="stroke:#000000; stroke-width:4; stroke-opacity:1; fill:none" points="
  538.82,491.619 573.541,491.619 
  "/>
<polyline clip-path="url(#clip7000)" style="stroke:#000000; stroke-width:4; stroke-opacity:1; fill:none" points="
  538.82,303.654 573.541,303.654 
  "/>
<g clip-path="url(#clip7000)">
<text style="fill:#000000; fill-opacity:1; font-family:Arial,Helvetica Neue,Helvetica,sans-serif; font-size:71px; text-anchor:middle;" transform="rotate(0, 602.813, 1353.9)" x="602.813" y="1353.9">0</text>
</g>
<g clip-path="url(#clip7000)">
<text style="fill:#000000; fill-opacity:1; font-family:Arial,Helvetica Neue,Helvetica,sans-serif; font-size:71px; text-anchor:middle;" transform="rotate(0, 967.017, 1353.9)" x="967.017" y="1353.9">4</text>
</g>
<g clip-path="url(#clip7000)">
<text style="fill:#000000; fill-opacity:1; font-family:Arial,Helvetica Neue,Helvetica,sans-serif; font-size:71px; text-anchor:middle;" transform="rotate(0, 1331.22, 1353.9)" x="1331.22" y="1353.9">8</text>
</g>
<g clip-path="url(#clip7000)">
<text style="fill:#000000; fill-opacity:1; font-family:Arial,Helvetica Neue,Helvetica,sans-serif; font-size:71px; text-anchor:middle;" transform="rotate(0, 1695.42, 1353.9)" x="1695.42" y="1353.9">12</text>
</g>
<g clip-path="url(#clip7000)">
<text style="fill:#000000; fill-opacity:1; font-family:Arial,Helvetica Neue,Helvetica,sans-serif; font-size:71px; text-anchor:middle;" transform="rotate(0, 2059.63, 1353.9)" x="2059.63" y="1353.9">16</text>
</g>
<g clip-path="url(#clip7000)">
<text style="fill:#000000; fill-opacity:1; font-family:Arial,Helvetica Neue,Helvetica,sans-serif; font-size:71px; text-anchor:middle;" transform="rotate(0, 2423.83, 1353.9)" x="2423.83" y="1353.9">20</text>
</g>
<g clip-path="url(#clip7000)">
<text style="fill:#000000; fill-opacity:1; font-family:Arial,Helvetica Neue,Helvetica,sans-serif; font-size:71px; text-anchor:middle;" transform="rotate(0, 2788.03, 1353.9)" x="2788.03" y="1353.9">24</text>
</g>
<g clip-path="url(#clip7000)">
<text style="fill:#000000; fill-opacity:1; font-family:Arial,Helvetica Neue,Helvetica,sans-serif; font-size:71px; text-anchor:end;" transform="rotate(0, 506.82, 1269.48)" x="506.82" y="1269.48">-0.20</text>
</g>
<g clip-path="url(#clip7000)">
<text style="fill:#000000; fill-opacity:1; font-family:Arial,Helvetica Neue,Helvetica,sans-serif; font-size:71px; text-anchor:end;" transform="rotate(0, 506.82, 1081.52)" x="506.82" y="1081.52">-0.15</text>
</g>
<g clip-path="url(#clip7000)">
<text style="fill:#000000; fill-opacity:1; font-family:Arial,Helvetica Neue,Helvetica,sans-serif; font-size:71px; text-anchor:end;" transform="rotate(0, 506.82, 893.551)" x="506.82" y="893.551">-0.10</text>
</g>
<g clip-path="url(#clip7000)">
<text style="fill:#000000; fill-opacity:1; font-family:Arial,Helvetica Neue,Helvetica,sans-serif; font-size:71px; text-anchor:end;" transform="rotate(0, 506.82, 705.585)" x="506.82" y="705.585">-0.05</text>
</g>
<g clip-path="url(#clip7000)">
<text style="fill:#000000; fill-opacity:1; font-family:Arial,Helvetica Neue,Helvetica,sans-serif; font-size:71px; text-anchor:end;" transform="rotate(0, 506.82, 517.619)" x="506.82" y="517.619">0.00</text>
</g>
<g clip-path="url(#clip7000)">
<text style="fill:#000000; fill-opacity:1; font-family:Arial,Helvetica Neue,Helvetica,sans-serif; font-size:71px; text-anchor:end;" transform="rotate(0, 506.82, 329.654)" x="506.82" y="329.654">0.05</text>
</g>
<g clip-path="url(#clip7000)">
<text style="fill:#000000; fill-opacity:1; font-family:Arial,Helvetica Neue,Helvetica,sans-serif; font-size:95px; text-anchor:middle;" transform="rotate(0, 1696.18, 1469.75)" x="1696.18" y="1469.75">Time (hours)</text>
</g>
<g clip-path="url(#clip7000)">
<text style="fill:#000000; fill-opacity:1; font-family:Arial,Helvetica Neue,Helvetica,sans-serif; font-size:95px; text-anchor:middle;" transform="rotate(-90, 167.592, 732.24)" x="167.592" y="732.24">Probability Empty Dock </text>
</g>
<g clip-path="url(#clip7000)">
<text style="fill:#000000; fill-opacity:1; font-family:Arial,Helvetica Neue,Helvetica,sans-serif; font-size:95px; text-anchor:middle;" transform="rotate(-90, 271.272, 732.24)" x="271.272" y="732.24"> Absolute Error: PSA-NS</text>
</g>
<polyline clip-path="url(#clip7002)" style="stroke:#009af9; stroke-width:4; stroke-opacity:1; fill:none" points="
  604.331,491.619 605.848,489.4 607.366,488.273 608.883,487.593 610.401,487.142 611.918,486.822 613.436,486.581 614.953,486.39 616.471,486.231 617.989,486.092 
  619.506,485.967 621.024,485.85 622.541,485.738 624.059,485.629 625.576,485.522 627.094,485.416 628.611,485.309 630.129,485.201 631.646,485.092 633.164,484.981 
  634.681,484.869 636.199,484.754 637.716,484.637 639.234,484.517 640.751,484.395 642.269,484.271 643.786,484.143 645.304,484.013 646.821,483.879 648.339,483.742 
  649.856,483.603 651.374,483.459 652.891,483.313 654.409,483.162 655.926,483.009 657.444,482.851 658.961,482.689 660.479,482.524 661.996,482.354 663.514,482.18 
  665.031,482.001 666.549,481.818 668.066,481.63 669.584,481.438 671.101,481.24 672.619,481.037 674.136,480.829 675.654,480.615 677.172,480.395 678.689,480.169 
  680.207,479.938 681.724,479.699 683.242,479.455 684.759,479.203 686.277,478.944 687.794,478.678 689.312,478.404 690.829,478.123 692.347,477.833 693.864,477.535 
  695.382,477.227 696.899,487.076 698.417,492.567 699.934,496.02 701.452,498.372 702.969,500.078 704.487,501.387 706.004,502.445 707.522,503.343 709.039,504.138 
  710.557,504.871 712.074,505.568 713.592,506.247 715.109,506.923 716.627,507.606 718.144,508.302 719.662,509.02 721.179,509.764 722.697,510.538 724.214,511.347 
  725.732,512.196 727.249,513.087 728.767,514.024 730.284,515.013 731.802,516.055 733.32,517.157 734.837,518.322 736.355,519.555 737.872,520.861 739.39,522.246 
  740.907,523.716 742.425,525.278 743.942,526.937 745.46,528.703 746.977,530.583 748.495,532.586 750.012,534.723 751.53,537.003 753.047,539.44 754.565,542.046 
  756.082,544.834 757.6,547.822 759.117,551.026 760.635,554.464 762.152,558.158 763.67,562.131 765.187,566.409 766.705,571.018 768.222,575.991 769.74,581.362 
  771.257,587.17 772.775,593.457 774.292,600.27 775.81,607.663 777.327,615.695 778.845,624.432 780.362,633.95 781.88,644.33 783.397,655.668 784.915,668.069 
  786.432,681.654 787.95,664.38 789.467,651.076 790.985,640.494 792.503,631.896 794.02,624.812 795.538,618.922 797.055,614.001 798.573,609.881 800.09,606.437 
  801.608,603.57 803.125,601.203 804.643,599.274 806.16,597.733 807.678,596.538 809.195,595.654 810.713,595.055 812.23,594.715 813.748,594.614 815.265,594.737 
  816.783,595.068 818.3,595.597 819.818,596.312 821.335,597.206 822.853,598.273 824.37,599.506 825.888,600.901 827.405,602.454 828.923,604.164 830.44,606.029 
  831.958,608.047 833.475,610.219 834.993,612.545 836.51,615.026 838.028,617.664 839.545,620.46 841.063,623.419 842.58,626.542 844.098,629.833 845.615,633.298 
  847.133,636.941 848.651,640.766 850.168,644.781 851.686,648.991 853.203,653.404 854.721,658.026 856.238,662.866 857.756,667.933 859.273,673.237 860.791,678.786 
  862.308,684.591 863.826,690.665 865.343,697.02 866.861,703.668 868.378,710.623 869.896,717.9 871.413,725.516 872.931,733.486 874.448,741.829 875.966,750.564 
  877.483,759.711 879.001,796.981 880.518,831.611 882.036,864.039 883.553,894.602 885.071,923.564 886.588,951.137 888.106,977.494 889.623,1002.77 891.141,1027.09 
  892.658,1050.52 894.176,1073.12 895.693,1094.92 897.211,1115.9 898.728,1136 900.246,1155.13 901.763,1173.12 903.281,1189.75 904.798,1204.74 906.316,1217.8 
  907.834,1228.61 909.351,1236.85 910.869,1242.28 912.386,1244.75 913.904,1244.23 915.421,1240.78 916.939,1234.62 918.456,1226.01 919.974,1215.29 921.491,1202.82 
  923.009,1188.94 924.526,1173.97 926.044,1158.21 927.561,1141.9 929.079,1125.23 930.596,1108.36 932.114,1091.43 933.631,1074.53 935.149,1057.74 936.666,1041.12 
  938.184,1024.71 939.701,1008.55 941.219,992.657 942.736,977.051 944.254,961.744 945.771,946.747 947.289,932.065 948.806,917.702 950.324,903.66 951.841,889.941 
  953.359,876.544 954.876,863.468 956.394,850.711 957.911,838.272 959.429,826.148 960.946,814.336 962.464,802.832 963.982,791.634 965.499,780.737 967.017,770.138 
  968.534,759.833 970.052,745.425 971.569,724.737 973.087,700.534 974.604,674.907 976.122,649.395 977.639,625.083 979.157,602.685 980.674,582.618 982.192,565.066 
  983.709,550.04 985.227,537.427 986.744,527.034 988.262,518.618 989.779,511.917 991.297,506.668 992.814,502.622 994.332,499.553 995.849,497.26 997.367,495.574 
  998.884,494.353 1000.4,493.482 1001.92,492.871 1003.44,492.448 1004.95,492.16 1006.47,491.967 1007.99,491.84 1009.51,491.757 1011.02,491.704 1012.54,491.671 
  1014.06,491.65 1015.58,491.637 1017.09,491.63 1018.61,491.625 1020.13,491.623 1021.65,491.621 1023.16,491.62 1024.68,491.62 1026.2,491.62 1027.72,491.619 
  1029.23,491.619 1030.75,491.619 1032.27,491.619 1033.79,491.619 1035.3,491.619 1036.82,491.619 1038.34,491.619 1039.86,491.619 1041.37,491.619 1042.89,491.619 
  1044.41,491.619 1045.93,491.619 1047.44,491.619 1048.96,491.619 1050.48,491.619 1052,491.619 1053.51,491.619 1055.03,491.619 1056.55,491.619 1058.07,491.619 
  1059.58,491.619 1061.1,491.619 1062.62,491.619 1064.14,491.619 1065.65,491.619 1067.17,491.619 1068.69,491.619 1070.21,491.619 1071.72,491.619 1073.24,491.619 
  1074.76,491.619 1076.28,491.619 1077.79,491.619 1079.31,491.619 1080.83,491.619 1082.35,491.619 1083.87,491.619 1085.38,491.619 1086.9,491.619 1088.42,491.619 
  1089.94,491.619 1091.45,491.619 1092.97,491.619 1094.49,491.619 1096.01,491.619 1097.52,491.619 1099.04,491.619 1100.56,491.619 1102.08,491.619 1103.59,491.619 
  1105.11,491.619 1106.63,491.619 1108.15,491.619 1109.66,491.619 1111.18,491.619 1112.7,491.619 1114.22,491.619 1115.73,491.619 1117.25,491.619 1118.77,491.619 
  1120.29,491.619 1121.8,491.619 1123.32,491.619 1124.84,491.619 1126.36,491.619 1127.87,491.619 1129.39,491.619 1130.91,491.619 1132.43,491.619 1133.94,491.619 
  1135.46,491.619 1136.98,491.619 1138.5,491.619 1140.01,491.619 1141.53,491.619 1143.05,491.619 1144.57,491.619 1146.08,491.619 1147.6,491.619 1149.12,491.619 
  1150.64,491.619 1152.15,491.619 1153.67,491.619 1155.19,491.619 1156.71,491.619 1158.22,491.619 1159.74,491.619 1161.26,491.619 1162.78,491.619 1164.29,491.619 
  1165.81,491.619 1167.33,491.619 1168.85,491.619 1170.36,491.619 1171.88,491.619 1173.4,491.619 1174.92,491.619 1176.43,491.619 1177.95,491.619 1179.47,491.619 
  1180.99,491.619 1182.5,491.619 1184.02,491.619 1185.54,491.619 1187.06,491.619 1188.57,491.619 1190.09,491.619 1191.61,491.619 1193.13,491.619 1194.64,491.619 
  1196.16,491.619 1197.68,491.619 1199.2,491.619 1200.71,491.619 1202.23,491.619 1203.75,491.619 1205.27,491.619 1206.78,491.619 1208.3,491.619 1209.82,491.619 
  1211.34,491.619 1212.85,491.619 1214.37,491.619 1215.89,491.619 1217.41,491.619 1218.92,491.619 1220.44,491.619 1221.96,491.619 1223.48,491.619 1224.99,491.619 
  1226.51,491.619 1228.03,491.619 1229.55,491.619 1231.06,491.619 1232.58,491.619 1234.1,491.619 1235.62,491.619 1237.13,491.619 1238.65,491.619 1240.17,491.619 
  1241.69,491.619 1243.2,491.619 1244.72,491.619 1246.24,491.619 1247.76,491.619 1249.27,491.619 1250.79,491.619 1252.31,491.619 1253.83,491.619 1255.34,491.619 
  1256.86,491.619 1258.38,491.619 1259.9,491.619 1261.41,491.619 1262.93,491.619 1264.45,491.619 1265.97,491.619 1267.48,491.619 1269,491.619 1270.52,491.619 
  1272.04,491.619 1273.55,491.619 1275.07,491.619 1276.59,491.619 1278.11,491.619 1279.62,491.619 1281.14,491.619 1282.66,491.619 1284.18,491.619 1285.69,491.619 
  1287.21,491.619 1288.73,491.619 1290.25,491.619 1291.76,491.619 1293.28,491.619 1294.8,491.619 1296.32,491.619 1297.83,491.619 1299.35,491.619 1300.87,491.619 
  1302.39,491.619 1303.9,491.619 1305.42,491.619 1306.94,491.619 1308.46,491.619 1309.97,491.619 1311.49,491.619 1313.01,491.619 1314.53,491.619 1316.04,491.619 
  1317.56,491.619 1319.08,491.619 1320.6,491.619 1322.11,491.619 1323.63,491.619 1325.15,491.619 1326.67,491.619 1328.18,491.619 1329.7,491.619 1331.22,491.619 
  1332.74,491.619 1334.25,491.619 1335.77,491.619 1337.29,491.619 1338.81,491.619 1340.32,491.619 1341.84,491.619 1343.36,491.619 1344.88,491.619 1346.39,491.619 
  1347.91,491.619 1349.43,491.619 1350.95,491.619 1352.46,491.619 1353.98,491.619 1355.5,491.619 1357.02,491.619 1358.53,491.619 1360.05,491.619 1361.57,491.619 
  1363.09,491.619 1364.6,491.619 1366.12,491.619 1367.64,491.619 1369.16,491.619 1370.68,491.619 1372.19,491.619 1373.71,491.619 1375.23,491.619 1376.75,491.619 
  1378.26,491.619 1379.78,491.619 1381.3,491.619 1382.82,491.619 1384.33,491.619 1385.85,491.619 1387.37,491.619 1388.89,491.619 1390.4,491.619 1391.92,491.619 
  1393.44,491.619 1394.96,491.619 1396.47,491.619 1397.99,491.619 1399.51,491.619 1401.03,491.619 1402.54,491.619 1404.06,491.619 1405.58,491.619 1407.1,491.619 
  1408.61,491.619 1410.13,491.619 1411.65,491.619 1413.17,491.619 1414.68,491.619 1416.2,491.619 1417.72,491.619 1419.24,491.619 1420.75,491.619 1422.27,491.619 
  1423.79,491.619 1425.31,491.619 1426.82,491.619 1428.34,491.619 1429.86,491.619 1431.38,491.619 1432.89,491.619 1434.41,491.619 1435.93,491.619 1437.45,491.619 
  1438.96,491.619 1440.48,491.619 1442,491.619 1443.52,491.619 1445.03,491.619 1446.55,491.619 1448.07,491.619 1449.59,491.619 1451.1,491.619 1452.62,491.619 
  1454.14,491.619 1455.66,491.619 1457.17,491.619 1458.69,491.619 1460.21,491.619 1461.73,491.619 1463.24,491.619 1464.76,491.619 1466.28,491.619 1467.8,491.619 
  1469.31,491.619 1470.83,491.619 1472.35,491.619 1473.87,491.619 1475.38,491.619 1476.9,491.619 1478.42,491.619 1479.94,491.619 1481.45,491.619 1482.97,491.619 
  1484.49,491.619 1486.01,491.619 1487.52,491.619 1489.04,491.619 1490.56,491.619 1492.08,491.619 1493.59,491.619 1495.11,491.619 1496.63,491.619 1498.15,491.619 
  1499.66,491.619 1501.18,491.619 1502.7,491.619 1504.22,491.619 1505.73,491.619 1507.25,491.619 1508.77,491.619 1510.29,491.619 1511.8,491.619 1513.32,491.619 
  1514.84,491.619 1516.36,491.619 1517.87,491.619 1519.39,491.619 1520.91,491.619 1522.43,491.619 1523.94,491.619 1525.46,491.619 1526.98,491.619 1528.5,491.619 
  1530.01,491.619 1531.53,491.619 1533.05,491.619 1534.57,491.619 1536.08,491.619 1537.6,491.619 1539.12,491.619 1540.64,491.619 1542.15,491.619 1543.67,491.619 
  1545.19,491.619 1546.71,491.619 1548.22,491.619 1549.74,491.619 1551.26,491.619 1552.78,491.619 1554.29,491.619 1555.81,491.619 1557.33,491.619 1558.85,491.619 
  1560.36,491.619 1561.88,491.619 1563.4,491.619 1564.92,491.619 1566.43,491.619 1567.95,491.619 1569.47,491.619 1570.99,491.619 1572.5,491.619 1574.02,491.619 
  1575.54,491.619 1577.06,491.619 1578.57,491.619 1580.09,491.619 1581.61,491.619 1583.13,491.619 1584.64,491.619 1586.16,491.619 1587.68,491.619 1589.2,491.619 
  1590.71,491.619 1592.23,491.619 1593.75,491.619 1595.27,491.619 1596.78,491.619 1598.3,491.619 1599.82,491.619 1601.34,491.619 1602.85,491.619 1604.37,491.619 
  1605.89,491.619 1607.41,491.619 1608.92,491.619 1610.44,491.619 1611.96,491.619 1613.48,491.619 1614.99,491.619 1616.51,491.619 1618.03,491.619 1619.55,491.619 
  1621.06,491.619 1622.58,491.619 1624.1,491.619 1625.62,491.619 1627.13,491.619 1628.65,491.619 1630.17,491.619 1631.69,491.619 1633.2,491.619 1634.72,491.619 
  1636.24,491.619 1637.76,491.619 1639.27,491.619 1640.79,491.619 1642.31,491.619 1643.83,491.619 1645.34,491.619 1646.86,491.619 1648.38,491.619 1649.9,491.619 
  1651.41,491.619 1652.93,491.619 1654.45,491.619 1655.97,491.619 1657.48,491.619 1659,491.619 1660.52,491.619 1662.04,491.619 1663.56,491.619 1665.07,491.619 
  1666.59,491.619 1668.11,491.619 1669.63,491.619 1671.14,491.619 1672.66,491.619 1674.18,491.619 1675.7,491.619 1677.21,491.619 1678.73,491.619 1680.25,491.619 
  1681.77,491.619 1683.28,491.619 1684.8,491.619 1686.32,491.619 1687.84,491.619 1689.35,491.619 1690.87,491.619 1692.39,491.619 1693.91,491.618 1695.42,491.618 
  1696.94,491.617 1698.46,491.616 1699.98,491.615 1701.49,491.614 1703.01,491.612 1704.53,491.61 1706.05,491.607 1707.56,491.603 1709.08,491.599 1710.6,491.593 
  1712.12,491.585 1713.63,491.575 1715.15,491.562 1716.67,491.545 1718.19,491.524 1719.7,491.497 1721.22,491.463 1722.74,491.419 1724.26,491.363 1725.77,491.291 
  1727.29,491.201 1728.81,491.087 1730.33,490.943 1731.84,490.763 1733.36,490.536 1734.88,490.252 1736.4,489.898 1737.91,489.458 1739.43,488.913 1740.95,488.24 
  1742.47,487.414 1743.98,486.402 1745.5,485.17 1747.02,483.676 1748.54,481.875 1750.05,479.717 1751.57,477.145 1753.09,474.1 1754.61,470.521 1756.12,466.343 
  1757.64,461.504 1759.16,455.944 1760.68,449.609 1762.19,442.452 1763.71,434.439 1765.23,425.547 1766.75,415.772 1768.26,405.124 1769.78,393.633 1771.3,381.344 
  1772.82,368.323 1774.33,354.647 1775.85,340.41 1777.37,325.713 1778.89,310.668 1780.4,295.392 1781.92,280.004 1783.44,264.624 1784.96,249.374 1786.47,234.37 
  1787.99,219.727 1789.51,227.491 1791.03,235.326 1792.54,243.29 1794.06,251.367 1795.58,259.53 1797.1,267.748 1798.61,275.986 1800.13,284.213 1801.65,292.395 
  1803.17,300.505 1804.68,308.513 1806.2,316.398 1807.72,324.138 1809.24,331.715 1810.75,339.115 1812.27,346.327 1813.79,353.34 1815.31,360.149 1816.82,366.748 
  1818.34,373.137 1819.86,379.312 1821.38,385.275 1822.89,391.028 1824.41,396.573 1825.93,401.913 1827.45,407.053 1828.96,411.997 1830.48,416.751 1832,421.319 
  1833.52,425.708 1835.03,429.922 1836.55,433.969 1838.07,437.853 1839.59,441.581 1841.1,445.158 1842.62,448.59 1844.14,451.882 1845.66,455.041 1847.17,458.071 
  1848.69,460.977 1850.21,463.765 1851.73,466.44 1853.24,469.006 1854.76,471.467 1856.28,473.828 1857.8,476.094 1859.31,478.268 1860.83,480.354 1862.35,482.356 
  1863.87,484.277 1865.38,486.121 1866.9,487.891 1868.42,489.59 1869.94,491.221 1871.45,492.787 1872.97,494.29 1874.49,495.734 1876.01,497.12 1877.52,498.451 
  1879.04,499.73 1880.56,490.101 1882.08,481.377 1883.59,473.18 1885.11,465.388 1886.63,457.941 1888.15,450.806 1889.66,443.965 1891.18,437.408 1892.7,431.132 
  1894.22,425.134 1895.73,419.418 1897.25,413.986 1898.77,408.84 1900.29,403.987 1901.8,399.428 1903.32,395.169 1904.84,391.213 1906.36,387.563 1907.87,384.221 
  1909.39,381.189 1910.91,378.468 1912.43,376.058 1913.94,373.958 1915.46,372.165 1916.98,370.678 1918.5,369.493 1920.01,368.604 1921.53,368.007 1923.05,367.694 
  1924.57,367.658 1926.08,367.891 1927.6,368.384 1929.12,369.125 1930.64,370.105 1932.15,371.312 1933.67,372.733 1935.19,374.355 1936.71,376.166 1938.22,378.151 
  1939.74,380.296 1941.26,382.587 1942.78,385.01 1944.29,387.549 1945.81,390.19 1947.33,392.918 1948.85,395.719 1950.37,398.579 1951.88,401.484 1953.4,404.42 
  1954.92,407.375 1956.44,410.337 1957.95,413.293 1959.47,416.233 1960.99,419.146 1962.51,422.023 1964.02,424.855 1965.54,427.634 1967.06,430.352 1968.58,433.004 
  1970.09,435.584 1971.61,436.569 1973.13,438.102 1974.65,439.908 1976.16,441.878 1977.68,443.949 1979.2,446.072 1980.72,448.215 1982.23,450.349 1983.75,452.454 
  1985.27,454.512 1986.79,456.511 1988.3,458.439 1989.82,460.29 1991.34,462.056 1992.86,463.736 1994.37,465.327 1995.89,466.828 1997.41,468.24 1998.93,469.564 
  2000.44,470.803 2001.96,471.959 2003.48,473.037 2005,474.04 2006.51,474.972 2008.03,475.838 2009.55,476.641 2011.07,477.386 2012.58,478.078 2014.1,478.719 
  2015.62,479.315 2017.14,479.868 2018.65,480.383 2020.17,480.862 2021.69,481.309 2023.21,481.727 2024.72,482.117 2026.24,482.482 2027.76,482.825 2029.28,483.148 
  2030.79,483.451 2032.31,483.737 2033.83,484.008 2035.35,484.264 2036.86,484.507 2038.38,484.737 2039.9,484.956 2041.42,485.164 2042.93,485.363 2044.45,485.552 
  2045.97,485.733 2047.49,485.906 2049,486.072 2050.52,486.231 2052.04,486.383 2053.56,486.529 2055.07,486.669 2056.59,486.803 2058.11,486.933 2059.63,487.058 
  2061.14,487.178 2062.66,461.572 2064.18,454.643 2065.7,454.271 2067.21,456.795 2068.73,460.44 2070.25,464.284 2071.77,467.87 2073.28,471.014 2074.8,473.679 
  2076.32,475.905 2077.84,477.758 2079.35,479.306 2080.87,480.61 2082.39,481.72 2083.91,482.674 2085.42,483.5 2086.94,484.221 2088.46,484.855 2089.98,485.415 
  2091.49,485.913 2093.01,486.356 2094.53,486.754 2096.05,487.111 2097.56,487.433 2099.08,487.724 2100.6,487.989 2102.12,488.229 2103.63,488.448 2105.15,488.648 
  2106.67,488.832 2108.19,489 2109.7,489.155 2111.22,489.298 2112.74,489.429 2114.26,489.551 2115.77,489.664 2117.29,489.769 2118.81,489.866 2120.33,489.956 
  2121.84,490.041 2123.36,490.119 2124.88,490.193 2126.4,490.261 2127.91,490.326 2129.43,490.386 2130.95,490.442 2132.47,490.496 2133.98,490.546 2135.5,490.592 
  2137.02,490.637 2138.54,490.678 2140.05,490.718 2141.57,490.755 2143.09,490.79 2144.61,490.824 2146.12,490.855 2147.64,490.885 2149.16,490.913 2150.68,490.94 
  2152.19,490.966 2153.71,491.186 2155.23,491.193 2156.75,491.2 2158.26,491.207 2159.78,491.214 2161.3,491.221 2162.82,491.227 2164.33,491.233 2165.85,491.24 
  2167.37,491.246 2168.89,491.252 2170.4,491.258 2171.92,491.263 2173.44,491.269 2174.96,491.274 2176.47,491.28 2177.99,491.285 2179.51,491.29 2181.03,491.295 
  2182.54,491.3 2184.06,491.305 2185.58,491.31 2187.1,491.314 2188.61,491.319 2190.13,491.323 2191.65,491.328 2193.17,491.332 2194.68,491.336 2196.2,491.34 
  2197.72,491.344 2199.24,491.348 2200.75,491.352 2202.27,491.356 2203.79,491.36 2205.31,491.364 2206.82,491.367 2208.34,491.371 2209.86,491.374 2211.38,491.378 
  2212.89,491.381 2214.41,491.384 2215.93,491.387 2217.45,491.391 2218.96,491.394 2220.48,491.397 2222,491.4 2223.52,491.403 2225.03,491.405 2226.55,491.408 
  2228.07,491.411 2229.59,491.414 2231.1,491.416 2232.62,491.419 2234.14,491.422 2235.66,491.424 2237.18,491.427 2238.69,491.429 2240.21,491.432 2241.73,491.434 
  2243.25,491.436 2244.76,491.864 2246.28,491.87 2247.8,491.876 2249.32,491.882 2250.83,491.888 2252.35,491.894 2253.87,491.901 2255.39,491.908 2256.9,491.915 
  2258.42,491.922 2259.94,491.93 2261.46,491.938 2262.97,491.946 2264.49,491.954 2266.01,491.963 2267.53,491.972 2269.04,491.981 2270.56,491.991 2272.08,492.001 
  2273.6,492.011 2275.11,492.022 2276.63,492.033 2278.15,492.044 2279.67,492.056 2281.18,492.069 2282.7,492.082 2284.22,492.095 2285.74,492.109 2287.25,492.123 
  2288.77,492.138 2290.29,492.154 2291.81,492.17 2293.32,492.187 2294.84,492.205 2296.36,492.223 2297.88,492.242 2299.39,492.262 2300.91,492.283 2302.43,492.305 
  2303.95,492.327 2305.46,492.351 2306.98,492.376 2308.5,492.402 2310.02,492.429 2311.53,492.457 2313.05,492.487 2314.57,492.518 2316.09,492.551 2317.6,492.585 
  2319.12,492.621 2320.64,492.659 2322.16,492.699 2323.67,492.741 2325.19,492.785 2326.71,492.831 2328.23,492.88 2329.74,492.931 2331.26,492.986 2332.78,493.043 
  2334.3,493.104 2335.81,491.917 2337.33,491.914 2338.85,491.92 2340.37,491.927 2341.88,491.933 2343.4,491.94 2344.92,491.947 2346.44,491.954 2347.95,491.962 
  2349.47,491.97 2350.99,491.977 2352.51,491.986 2354.02,491.994 2355.54,492.003 2357.06,492.011 2358.58,492.021 2360.09,492.03 2361.61,492.04 2363.13,492.05 
  2364.65,492.06 2366.16,492.071 2367.68,492.082 2369.2,492.094 2370.72,492.105 2372.23,492.118 2373.75,492.13 2375.27,492.143 2376.79,492.157 2378.3,492.171 
  2379.82,492.185 2381.34,492.2 2382.86,492.216 2384.37,492.232 2385.89,492.249 2387.41,492.266 2388.93,492.284 2390.44,492.302 2391.96,492.322 2393.48,492.342 
  2395,492.363 2396.51,492.384 2398.03,492.407 2399.55,492.43 2401.07,492.454 2402.58,492.479 2404.1,492.506 2405.62,492.533 2407.14,492.562 2408.65,492.591 
  2410.17,492.622 2411.69,492.654 2413.21,492.688 2414.72,492.723 2416.24,492.76 2417.76,492.798 2419.28,492.838 2420.79,492.88 2422.31,492.924 2423.83,492.97 
  2425.35,493.018 2426.86,491.267 2428.38,491.151 2429.9,491.132 2431.42,491.124 2432.93,491.117 2434.45,491.11 2435.97,491.104 2437.49,491.097 2439,491.09 
  2440.52,491.084 2442.04,491.076 2443.56,491.069 2445.07,491.062 2446.59,491.055 2448.11,491.047 2449.63,491.039 2451.14,491.032 2452.66,491.024 2454.18,491.016 
  2455.7,491.007 2457.21,490.999 2458.73,490.99 2460.25,490.982 2461.77,490.973 2463.28,490.964 2464.8,490.955 2466.32,490.945 2467.84,490.936 2469.35,490.926 
  2470.87,490.916 2472.39,490.906 2473.91,490.895 2475.42,490.885 2476.94,490.874 2478.46,490.863 2479.98,490.852 2481.49,490.841 2483.01,490.829 2484.53,490.817 
  2486.05,490.805 2487.56,490.793 2489.08,490.78 2490.6,490.767 2492.12,490.754 2493.63,490.741 2495.15,490.727 2496.67,490.713 2498.19,490.699 2499.7,490.685 
  2501.22,490.67 2502.74,490.655 2504.26,490.639 2505.77,490.623 2507.29,490.607 2508.81,490.591 2510.33,490.574 2511.84,490.557 2513.36,490.539 2514.88,490.521 
  2516.4,490.502 2517.91,492.356 2519.43,492.542 2520.95,492.599 2522.47,492.637 2523.98,492.674 2525.5,492.711 2527.02,492.751 2528.54,492.792 2530.06,492.835 
  2531.57,492.88 2533.09,492.927 2534.61,492.977 2536.13,493.029 2537.64,493.084 2539.16,493.142 2540.68,493.203 2542.2,493.268 2543.71,493.335 2545.23,493.407 
  2546.75,493.483 2548.27,493.563 2549.78,493.647 2551.3,493.736 2552.82,493.831 2554.34,493.932 2555.85,494.038 2557.37,494.151 2558.89,494.272 2560.41,494.4 
  2561.92,494.536 2563.44,494.681 2564.96,494.836 2566.48,495.002 2567.99,495.179 2569.51,495.369 2571.03,495.572 2572.55,495.789 2574.06,496.023 2575.58,496.275 
  2577.1,496.546 2578.62,496.838 2580.13,497.153 2581.65,497.493 2583.17,497.862 2584.69,498.262 2586.2,498.696 2587.72,499.169 2589.24,499.683 2590.76,500.244 
  2592.27,500.858 2593.79,501.53 2595.31,502.267 2596.83,503.077 2598.34,503.97 2599.86,504.955 2601.38,506.045 2602.9,507.253 2604.41,508.595 2605.93,510.09 
  2607.45,511.76 2608.97,499.099 2610.48,493.843 2612,491.048 2613.52,489.417 2615.04,488.408 2616.55,487.757 2618.07,487.32 2619.59,487.015 2621.11,486.795 
  2622.62,486.628 2624.14,486.497 2625.66,486.389 2627.18,486.295 2628.69,486.212 2630.21,486.136 2631.73,486.063 2633.25,485.994 2634.76,485.926 2636.28,485.858 
  2637.8,485.791 2639.32,485.724 2640.83,485.656 2642.35,485.588 2643.87,485.519 2645.39,485.449 2646.9,485.378 2648.42,485.306 2649.94,485.234 2651.46,485.16 
  2652.97,485.084 2654.49,485.008 2656.01,484.931 2657.53,484.852 2659.04,484.772 2660.56,484.691 2662.08,484.608 2663.6,484.524 2665.11,484.438 2666.63,484.352 
  2668.15,484.263 2669.67,484.173 2671.18,484.082 2672.7,483.989 2674.22,483.895 2675.74,483.799 2677.25,483.701 2678.77,483.601 2680.29,483.5 2681.81,483.397 
  2683.32,483.292 2684.84,483.185 2686.36,483.077 2687.88,482.966 2689.39,482.853 2690.91,482.739 2692.43,482.622 2693.95,482.503 2695.46,482.382 2696.98,482.258 
  2698.5,482.133 2700.02,489.191 2701.53,492.24 2703.05,493.903 2704.57,494.918 2706.09,495.592 2707.6,496.078 2709.12,496.455 2710.64,496.771 2712.16,497.05 
  2713.67,497.311 2715.19,497.563 2716.71,497.813 2718.23,498.067 2719.74,498.326 2721.26,498.595 2722.78,498.874 2724.3,499.165 2725.81,499.47 2727.33,499.79 
  2728.85,500.127 2730.37,500.481 2731.88,500.854 2733.4,501.248 2734.92,501.664 2736.44,502.103 2737.95,502.568 2739.47,503.059 2740.99,503.58 2742.51,504.131 
  2744.02,504.717 2745.54,505.338 2747.06,505.998 2748.58,506.7 2750.09,507.447 2751.61,508.243 2753.13,509.091 2754.65,509.995 2756.16,510.962 2757.68,511.995 
  2759.2,513.1 2760.72,514.283 2762.23,515.552 2763.75,516.914 2765.27,518.376 2766.79,519.949 2768.3,521.643 2769.82,523.468 2771.34,525.437 2772.86,527.565 
  2774.37,529.866 2775.89,532.358 2777.41,535.06 2778.93,537.993 2780.44,541.183 2781.96,544.655 2783.48,548.44 2785,552.573 2786.51,557.092 2788.03,562.041 
  
  "/>
</svg>
