<?xml version="1.0" encoding="utf-8"?>
<svg xmlns="http://www.w3.org/2000/svg" xmlns:xlink="http://www.w3.org/1999/xlink" width="800" height="400" viewBox="0 0 3200 1600">
<defs>
  <clipPath id="clip5000">
    <rect x="0" y="0" width="3200" height="1600"/>
  </clipPath>
</defs>
<polygon clip-path="url(#clip5000)" points="
0,1600 3200,1600 3200,0 0,0 
  " fill="#ffffff" fill-rule="evenodd" fill-opacity="1"/>
<defs>
  <clipPath id="clip5001">
    <rect x="640" y="0" width="2241" height="1600"/>
  </clipPath>
</defs>
<polygon clip-path="url(#clip5000)" points="
610.911,1171.48 2853.54,1171.48 2853.54,188.976 610.911,188.976 
  " fill="#ffffff" fill-rule="evenodd" fill-opacity="1"/>
<defs>
  <clipPath id="clip5002">
    <rect x="610" y="188" width="2244" height="984"/>
  </clipPath>
</defs>
<polyline clip-path="url(#clip5002)" style="stroke:#000000; stroke-width:2; stroke-opacity:0.1; fill:none" points="
  672.911,1171.48 672.911,188.976 
  "/>
<polyline clip-path="url(#clip5002)" style="stroke:#000000; stroke-width:2; stroke-opacity:0.1; fill:none" points="
  1025.77,1171.48 1025.77,188.976 
  "/>
<polyline clip-path="url(#clip5002)" style="stroke:#000000; stroke-width:2; stroke-opacity:0.1; fill:none" points="
  1378.63,1171.48 1378.63,188.976 
  "/>
<polyline clip-path="url(#clip5002)" style="stroke:#000000; stroke-width:2; stroke-opacity:0.1; fill:none" points="
  1731.49,1171.48 1731.49,188.976 
  "/>
<polyline clip-path="url(#clip5002)" style="stroke:#000000; stroke-width:2; stroke-opacity:0.1; fill:none" points="
  2084.35,1171.48 2084.35,188.976 
  "/>
<polyline clip-path="url(#clip5002)" style="stroke:#000000; stroke-width:2; stroke-opacity:0.1; fill:none" points="
  2437.21,1171.48 2437.21,188.976 
  "/>
<polyline clip-path="url(#clip5002)" style="stroke:#000000; stroke-width:2; stroke-opacity:0.1; fill:none" points="
  2790.07,1171.48 2790.07,188.976 
  "/>
<polyline clip-path="url(#clip5002)" style="stroke:#000000; stroke-width:2; stroke-opacity:0.1; fill:none" points="
  610.911,1143.67 2853.54,1143.67 
  "/>
<polyline clip-path="url(#clip5002)" style="stroke:#000000; stroke-width:2; stroke-opacity:0.1; fill:none" points="
  610.911,944.203 2853.54,944.203 
  "/>
<polyline clip-path="url(#clip5002)" style="stroke:#000000; stroke-width:2; stroke-opacity:0.1; fill:none" points="
  610.911,744.735 2853.54,744.735 
  "/>
<polyline clip-path="url(#clip5002)" style="stroke:#000000; stroke-width:2; stroke-opacity:0.1; fill:none" points="
  610.911,545.266 2853.54,545.266 
  "/>
<polyline clip-path="url(#clip5002)" style="stroke:#000000; stroke-width:2; stroke-opacity:0.1; fill:none" points="
  610.911,345.797 2853.54,345.797 
  "/>
<polyline clip-path="url(#clip5000)" style="stroke:#000000; stroke-width:4; stroke-opacity:1; fill:none" points="
  610.911,1171.48 2853.54,1171.48 
  "/>
<polyline clip-path="url(#clip5000)" style="stroke:#000000; stroke-width:4; stroke-opacity:1; fill:none" points="
  610.911,1171.48 610.911,188.976 
  "/>
<polyline clip-path="url(#clip5000)" style="stroke:#000000; stroke-width:4; stroke-opacity:1; fill:none" points="
  672.911,1171.48 672.911,1156.74 
  "/>
<polyline clip-path="url(#clip5000)" style="stroke:#000000; stroke-width:4; stroke-opacity:1; fill:none" points="
  1025.77,1171.48 1025.77,1156.74 
  "/>
<polyline clip-path="url(#clip5000)" style="stroke:#000000; stroke-width:4; stroke-opacity:1; fill:none" points="
  1378.63,1171.48 1378.63,1156.74 
  "/>
<polyline clip-path="url(#clip5000)" style="stroke:#000000; stroke-width:4; stroke-opacity:1; fill:none" points="
  1731.49,1171.48 1731.49,1156.74 
  "/>
<polyline clip-path="url(#clip5000)" style="stroke:#000000; stroke-width:4; stroke-opacity:1; fill:none" points="
  2084.35,1171.48 2084.35,1156.74 
  "/>
<polyline clip-path="url(#clip5000)" style="stroke:#000000; stroke-width:4; stroke-opacity:1; fill:none" points="
  2437.21,1171.48 2437.21,1156.74 
  "/>
<polyline clip-path="url(#clip5000)" style="stroke:#000000; stroke-width:4; stroke-opacity:1; fill:none" points="
  2790.07,1171.48 2790.07,1156.74 
  "/>
<polyline clip-path="url(#clip5000)" style="stroke:#000000; stroke-width:4; stroke-opacity:1; fill:none" points="
  610.911,1143.67 644.55,1143.67 
  "/>
<polyline clip-path="url(#clip5000)" style="stroke:#000000; stroke-width:4; stroke-opacity:1; fill:none" points="
  610.911,944.203 644.55,944.203 
  "/>
<polyline clip-path="url(#clip5000)" style="stroke:#000000; stroke-width:4; stroke-opacity:1; fill:none" points="
  610.911,744.735 644.55,744.735 
  "/>
<polyline clip-path="url(#clip5000)" style="stroke:#000000; stroke-width:4; stroke-opacity:1; fill:none" points="
  610.911,545.266 644.55,545.266 
  "/>
<polyline clip-path="url(#clip5000)" style="stroke:#000000; stroke-width:4; stroke-opacity:1; fill:none" points="
  610.911,345.797 644.55,345.797 
  "/>
<g clip-path="url(#clip5000)">
<text style="fill:#000000; fill-opacity:1; font-family:Arial,Helvetica Neue,Helvetica,sans-serif; font-size:71px; text-anchor:middle;" transform="rotate(0, 672.911, 1249.88)" x="672.911" y="1249.88">0</text>
</g>
<g clip-path="url(#clip5000)">
<text style="fill:#000000; fill-opacity:1; font-family:Arial,Helvetica Neue,Helvetica,sans-serif; font-size:71px; text-anchor:middle;" transform="rotate(0, 1025.77, 1249.88)" x="1025.77" y="1249.88">4</text>
</g>
<g clip-path="url(#clip5000)">
<text style="fill:#000000; fill-opacity:1; font-family:Arial,Helvetica Neue,Helvetica,sans-serif; font-size:71px; text-anchor:middle;" transform="rotate(0, 1378.63, 1249.88)" x="1378.63" y="1249.88">8</text>
</g>
<g clip-path="url(#clip5000)">
<text style="fill:#000000; fill-opacity:1; font-family:Arial,Helvetica Neue,Helvetica,sans-serif; font-size:71px; text-anchor:middle;" transform="rotate(0, 1731.49, 1249.88)" x="1731.49" y="1249.88">12</text>
</g>
<g clip-path="url(#clip5000)">
<text style="fill:#000000; fill-opacity:1; font-family:Arial,Helvetica Neue,Helvetica,sans-serif; font-size:71px; text-anchor:middle;" transform="rotate(0, 2084.35, 1249.88)" x="2084.35" y="1249.88">16</text>
</g>
<g clip-path="url(#clip5000)">
<text style="fill:#000000; fill-opacity:1; font-family:Arial,Helvetica Neue,Helvetica,sans-serif; font-size:71px; text-anchor:middle;" transform="rotate(0, 2437.21, 1249.88)" x="2437.21" y="1249.88">20</text>
</g>
<g clip-path="url(#clip5000)">
<text style="fill:#000000; fill-opacity:1; font-family:Arial,Helvetica Neue,Helvetica,sans-serif; font-size:71px; text-anchor:middle;" transform="rotate(0, 2790.07, 1249.88)" x="2790.07" y="1249.88">24</text>
</g>
<g clip-path="url(#clip5000)">
<text style="fill:#000000; fill-opacity:1; font-family:Arial,Helvetica Neue,Helvetica,sans-serif; font-size:71px; text-anchor:end;" transform="rotate(0, 578.911, 1169.67)" x="578.911" y="1169.67">0.0</text>
</g>
<g clip-path="url(#clip5000)">
<text style="fill:#000000; fill-opacity:1; font-family:Arial,Helvetica Neue,Helvetica,sans-serif; font-size:71px; text-anchor:end;" transform="rotate(0, 578.911, 970.203)" x="578.911" y="970.203">0.2</text>
</g>
<g clip-path="url(#clip5000)">
<text style="fill:#000000; fill-opacity:1; font-family:Arial,Helvetica Neue,Helvetica,sans-serif; font-size:71px; text-anchor:end;" transform="rotate(0, 578.911, 770.735)" x="578.911" y="770.735">0.4</text>
</g>
<g clip-path="url(#clip5000)">
<text style="fill:#000000; fill-opacity:1; font-family:Arial,Helvetica Neue,Helvetica,sans-serif; font-size:71px; text-anchor:end;" transform="rotate(0, 578.911, 571.266)" x="578.911" y="571.266">0.6</text>
</g>
<g clip-path="url(#clip5000)">
<text style="fill:#000000; fill-opacity:1; font-family:Arial,Helvetica Neue,Helvetica,sans-serif; font-size:71px; text-anchor:end;" transform="rotate(0, 578.911, 371.797)" x="578.911" y="371.797">0.8</text>
</g>
<g clip-path="url(#clip5000)">
<text style="fill:#000000; fill-opacity:1; font-family:Arial,Helvetica Neue,Helvetica,sans-serif; font-size:95px; text-anchor:middle;" transform="rotate(0, 1732.23, 1365.73)" x="1732.23" y="1365.73">Time (hours)</text>
</g>
<g clip-path="url(#clip5000)">
<text style="fill:#000000; fill-opacity:1; font-family:Arial,Helvetica Neue,Helvetica,sans-serif; font-size:95px; text-anchor:middle;" transform="rotate(-90, 428.753, 680.227)" x="428.753" y="680.227">Probability Full Dock</text>
</g>
<polyline clip-path="url(#clip5002)" style="stroke:#009af9; stroke-width:4; stroke-opacity:1; fill:none" points="
  674.382,1143.67 675.852,1143.67 677.322,1143.67 678.792,1143.67 680.263,1143.67 681.733,1143.67 683.203,1143.67 684.673,1143.67 686.144,1143.67 687.614,1143.67 
  689.084,1143.67 690.554,1143.67 692.025,1143.67 693.495,1143.67 694.965,1143.67 696.435,1143.67 697.906,1143.67 699.376,1143.67 700.846,1143.67 702.316,1143.67 
  703.787,1143.67 705.257,1143.67 706.727,1143.67 708.197,1143.67 709.668,1143.67 711.138,1143.67 712.608,1143.67 714.078,1143.67 715.549,1143.67 717.019,1143.67 
  718.489,1143.67 719.959,1143.67 721.43,1143.67 722.9,1143.67 724.37,1143.67 725.84,1143.67 727.311,1143.67 728.781,1143.67 730.251,1143.67 731.721,1143.67 
  733.192,1143.67 734.662,1143.67 736.132,1143.67 737.602,1143.67 739.073,1143.67 740.543,1143.67 742.013,1143.67 743.483,1143.67 744.954,1143.67 746.424,1143.67 
  747.894,1143.67 749.364,1143.67 750.835,1143.67 752.305,1143.67 753.775,1143.67 755.245,1143.67 756.716,1143.67 758.186,1143.67 759.656,1143.67 761.126,1143.67 
  762.597,1143.67 764.067,1143.67 765.537,1143.67 767.007,1143.67 768.478,1143.67 769.948,1143.67 771.418,1143.67 772.889,1143.67 774.359,1143.67 775.829,1143.67 
  777.299,1143.67 778.77,1143.67 780.24,1143.67 781.71,1143.67 783.18,1143.67 784.651,1143.67 786.121,1143.67 787.591,1143.67 789.061,1143.67 790.532,1143.67 
  792.002,1143.67 793.472,1143.67 794.942,1143.67 796.413,1143.67 797.883,1143.67 799.353,1143.67 800.823,1143.67 802.294,1143.67 803.764,1143.67 805.234,1143.67 
  806.704,1143.67 808.175,1143.67 809.645,1143.67 811.115,1143.67 812.585,1143.67 814.056,1143.67 815.526,1143.67 816.996,1143.67 818.466,1143.67 819.937,1143.67 
  821.407,1143.67 822.877,1143.67 824.347,1143.67 825.818,1143.67 827.288,1143.67 828.758,1143.67 830.228,1143.67 831.699,1143.67 833.169,1143.67 834.639,1143.67 
  836.109,1143.67 837.58,1143.67 839.05,1143.67 840.52,1143.67 841.99,1143.67 843.461,1143.67 844.931,1143.67 846.401,1143.67 847.871,1143.67 849.342,1143.67 
  850.812,1143.67 852.282,1143.67 853.752,1143.67 855.223,1143.67 856.693,1143.67 858.163,1143.67 859.633,1143.67 861.104,1143.67 862.574,1143.67 864.044,1143.67 
  865.514,1143.67 866.985,1143.67 868.455,1143.67 869.925,1143.67 871.395,1143.67 872.866,1143.67 874.336,1143.67 875.806,1143.67 877.276,1143.67 878.747,1143.67 
  880.217,1143.67 881.687,1143.67 883.157,1143.67 884.628,1143.67 886.098,1143.67 887.568,1143.67 889.038,1143.67 890.509,1143.67 891.979,1143.67 893.449,1143.67 
  894.919,1143.67 896.39,1143.67 897.86,1143.67 899.33,1143.67 900.8,1143.67 902.271,1143.67 903.741,1143.67 905.211,1143.67 906.681,1143.67 908.152,1143.67 
  909.622,1143.67 911.092,1143.67 912.562,1143.67 914.033,1143.67 915.503,1143.67 916.973,1143.67 918.443,1143.67 919.914,1143.67 921.384,1143.67 922.854,1143.67 
  924.324,1143.67 925.795,1143.67 927.265,1143.67 928.735,1143.67 930.205,1143.67 931.676,1143.67 933.146,1143.67 934.616,1143.67 936.086,1143.67 937.557,1143.67 
  939.027,1143.67 940.497,1143.67 941.967,1143.67 943.438,1143.67 944.908,1143.67 946.378,1143.66 947.848,1143.66 949.319,1143.65 950.789,1143.63 952.259,1143.59 
  953.729,1143.54 955.2,1143.46 956.67,1143.32 958.14,1143.11 959.61,1142.8 961.081,1142.33 962.551,1141.65 964.021,1140.7 965.491,1139.4 966.962,1137.65 
  968.432,1135.38 969.902,1132.52 971.372,1129 972.843,1124.8 974.313,1119.93 975.783,1114.41 977.253,1108.33 978.724,1101.75 980.194,1094.78 981.664,1087.5 
  983.134,1080.02 984.605,1072.4 986.075,1064.73 987.545,1057.05 989.015,1049.41 990.486,1041.85 991.956,1034.39 993.426,1027.05 994.896,1019.84 996.367,1012.77 
  997.837,1005.84 999.307,999.05 1000.78,992.407 1002.25,985.907 1003.72,979.549 1005.19,973.328 1006.66,967.243 1008.13,961.29 1009.6,955.465 1011.07,949.765 
  1012.54,944.186 1014.01,938.725 1015.48,933.379 1016.95,928.143 1018.42,923.015 1019.89,917.991 1021.36,913.069 1022.83,908.245 1024.3,903.516 1025.77,898.88 
  1027.24,894.335 1028.71,827.231 1030.18,773.547 1031.65,729.623 1033.12,693.02 1034.59,662.049 1036.06,635.502 1037.53,612.494 1039,592.363 1040.47,574.599 
  1041.94,558.81 1043.41,544.683 1044.88,531.968 1046.36,520.464 1047.83,510.006 1049.3,500.458 1050.77,491.705 1052.24,483.652 1053.71,476.219 1055.18,469.336 
  1056.65,462.945 1058.12,456.995 1059.59,451.442 1061.06,446.246 1062.53,441.376 1064,436.801 1065.47,432.494 1066.94,428.434 1068.41,424.6 1069.88,420.972 
  1071.35,417.536 1072.82,414.276 1074.29,411.179 1075.76,408.232 1077.23,405.427 1078.7,402.751 1080.17,400.198 1081.64,397.758 1083.11,395.423 1084.58,393.189 
  1086.05,391.047 1087.52,388.993 1088.99,387.021 1090.46,385.126 1091.93,383.304 1093.4,381.551 1094.87,379.863 1096.34,378.236 1097.81,376.667 1099.28,375.154 
  1100.75,373.692 1102.22,372.28 1103.69,370.915 1105.17,369.595 1106.64,368.318 1108.11,367.081 1109.58,365.883 1111.05,364.721 1112.52,363.595 1113.99,362.502 
  1115.46,361.442 1116.93,353.998 1118.4,347.122 1119.87,340.752 1121.34,334.834 1122.81,329.321 1124.28,324.174 1125.75,319.356 1127.22,314.838 1128.69,310.593 
  1130.16,306.595 1131.63,302.825 1133.1,299.263 1134.57,295.893 1136.04,292.699 1137.51,289.668 1138.98,286.788 1140.45,284.048 1141.92,281.438 1143.39,278.949 
  1144.86,276.572 1146.33,274.3 1147.8,272.127 1149.27,270.046 1150.74,268.052 1152.21,266.138 1153.68,264.301 1155.15,262.535 1156.62,260.837 1158.09,259.203 
  1159.56,257.629 1161.03,256.113 1162.5,254.65 1163.98,253.238 1165.45,251.875 1166.92,250.558 1168.39,249.285 1169.86,248.054 1171.33,246.862 1172.8,245.707 
  1174.27,244.589 1175.74,243.505 1177.21,242.454 1178.68,241.434 1180.15,240.444 1181.62,239.482 1183.09,238.548 1184.56,237.64 1186.03,236.758 1187.5,235.899 
  1188.97,235.064 1190.44,234.251 1191.91,233.459 1193.38,232.688 1194.85,231.936 1196.32,231.204 1197.79,230.489 1199.26,229.792 1200.73,229.113 1202.2,228.449 
  1203.67,227.802 1205.14,227.257 1206.61,226.747 1208.08,226.269 1209.55,225.82 1211.02,225.397 1212.49,224.999 1213.96,224.623 1215.43,224.267 1216.9,223.929 
  1218.37,223.61 1219.84,223.306 1221.31,223.017 1222.79,222.741 1224.26,222.479 1225.73,222.228 1227.2,221.989 1228.67,221.76 1230.14,221.541 1231.61,221.331 
  1233.08,221.129 1234.55,220.936 1236.02,220.75 1237.49,220.571 1238.96,220.399 1240.43,220.234 1241.9,220.074 1243.37,219.92 1244.84,219.772 1246.31,219.629 
  1247.78,219.49 1249.25,219.356 1250.72,219.227 1252.19,219.101 1253.66,218.98 1255.13,218.863 1256.6,218.749 1258.07,218.638 1259.54,218.531 1261.01,218.427 
  1262.48,218.326 1263.95,218.228 1265.42,218.133 1266.89,218.04 1268.36,217.95 1269.83,217.862 1271.3,217.777 1272.77,217.694 1274.24,217.613 1275.71,217.534 
  1277.18,217.457 1278.65,217.382 1280.13,217.309 1281.6,217.237 1283.07,217.168 1284.54,217.1 1286.01,217.034 1287.48,216.969 1288.95,216.905 1290.42,216.844 
  1291.89,216.783 1293.36,217.332 1294.83,217.871 1296.3,218.401 1297.77,218.921 1299.24,219.433 1300.71,219.936 1302.18,220.43 1303.65,220.916 1305.12,221.394 
  1306.59,221.864 1308.06,222.326 1309.53,222.78 1311,223.228 1312.47,223.668 1313.94,224.101 1315.41,224.527 1316.88,224.947 1318.35,225.36 1319.82,225.767 
  1321.29,226.168 1322.76,226.562 1324.23,226.951 1325.7,227.333 1327.17,227.711 1328.64,228.082 1330.11,228.448 1331.58,228.809 1333.05,229.165 1334.52,229.515 
  1335.99,229.861 1337.46,230.201 1338.94,230.537 1340.41,230.868 1341.88,231.195 1343.35,231.517 1344.82,231.835 1346.29,232.148 1347.76,232.458 1349.23,232.763 
  1350.7,233.064 1352.17,233.361 1353.64,233.654 1355.11,233.944 1356.58,234.229 1358.05,234.511 1359.52,234.79 1360.99,235.065 1362.46,235.336 1363.93,235.604 
  1365.4,235.869 1366.87,236.13 1368.34,236.388 1369.81,236.643 1371.28,236.895 1372.75,237.144 1374.22,237.39 1375.69,237.633 1377.16,237.873 1378.63,238.111 
  1380.1,238.345 1381.57,239.368 1383.04,240.414 1384.51,241.483 1385.98,242.576 1387.45,243.694 1388.92,244.838 1390.39,246.008 1391.86,247.206 1393.33,248.433 
  1394.8,249.689 1396.27,250.976 1397.75,252.295 1399.22,253.647 1400.69,255.034 1402.16,256.456 1403.63,257.915 1405.1,259.413 1406.57,260.95 1408.04,262.53 
  1409.51,264.153 1410.98,265.821 1412.45,267.536 1413.92,269.301 1415.39,271.117 1416.86,272.986 1418.33,274.912 1419.8,276.896 1421.27,278.941 1422.74,281.051 
  1424.21,283.227 1425.68,285.475 1427.15,287.796 1428.62,290.195 1430.09,292.676 1431.56,295.243 1433.03,297.9 1434.5,300.652 1435.97,303.506 1437.44,306.465 
  1438.91,309.536 1440.38,312.727 1441.85,316.043 1443.32,319.492 1444.79,323.083 1446.26,326.825 1447.73,330.726 1449.2,334.799 1450.67,339.053 1452.14,343.502 
  1453.61,348.159 1455.08,353.039 1456.56,358.159 1458.03,363.537 1459.5,369.192 1460.97,375.147 1462.44,381.427 1463.91,388.057 1465.38,395.07 1466.85,402.498 
  1468.32,410.381 1469.79,410.871 1471.26,411.369 1472.73,411.874 1474.2,412.387 1475.67,412.908 1477.14,413.436 1478.61,413.973 1480.08,414.519 1481.55,415.073 
  1483.02,415.635 1484.49,416.207 1485.96,416.788 1487.43,417.379 1488.9,417.979 1490.37,418.589 1491.84,419.209 1493.31,419.84 1494.78,420.482 1496.25,421.134 
  1497.72,421.798 1499.19,422.473 1500.66,423.16 1502.13,423.86 1503.6,424.571 1505.07,425.296 1506.54,426.034 1508.01,426.785 1509.48,427.551 1510.95,428.331 
  1512.42,429.125 1513.89,429.935 1515.37,430.76 1516.84,431.601 1518.31,432.459 1519.78,433.334 1521.25,434.226 1522.72,435.137 1524.19,436.066 1525.66,437.014 
  1527.13,437.982 1528.6,438.97 1530.07,439.98 1531.54,441.011 1533.01,442.065 1534.48,443.142 1535.95,444.243 1537.42,445.369 1538.89,446.52 1540.36,447.698 
  1541.83,448.903 1543.3,450.137 1544.77,451.4 1546.24,452.694 1547.71,454.02 1549.18,455.378 1550.65,456.77 1552.12,458.198 1553.59,459.662 1555.06,461.164 
  1556.53,462.706 1558,463.53 1559.47,464.359 1560.94,465.193 1562.41,466.032 1563.88,466.876 1565.35,467.725 1566.82,468.58 1568.29,469.441 1569.76,470.306 
  1571.23,471.177 1572.7,472.054 1574.18,472.937 1575.65,473.825 1577.12,474.718 1578.59,475.618 1580.06,476.523 1581.53,477.434 1583,478.351 1584.47,479.274 
  1585.94,480.203 1587.41,481.138 1588.88,482.08 1590.35,483.027 1591.82,483.981 1593.29,484.941 1594.76,485.908 1596.23,486.881 1597.7,487.86 1599.17,488.847 
  1600.64,489.839 1602.11,490.839 1603.58,491.845 1605.05,492.859 1606.52,493.879 1607.99,494.906 1609.46,495.941 1610.93,496.982 1612.4,498.031 1613.87,499.087 
  1615.34,500.151 1616.81,501.222 1618.28,502.3 1619.75,503.386 1621.22,504.48 1622.69,505.582 1624.16,506.691 1625.63,507.809 1627.1,508.935 1628.57,510.068 
  1630.04,511.21 1631.51,512.36 1632.99,513.519 1634.46,514.686 1635.93,515.862 1637.4,517.047 1638.87,518.24 1640.34,519.442 1641.81,520.653 1643.28,521.873 
  1644.75,523.103 1646.22,527.406 1647.69,531.748 1649.16,536.129 1650.63,540.551 1652.1,545.014 1653.57,549.518 1655.04,554.064 1656.51,558.652 1657.98,563.284 
  1659.45,567.959 1660.92,572.679 1662.39,577.443 1663.86,582.253 1665.33,587.11 1666.8,592.013 1668.27,596.964 1669.74,601.964 1671.21,607.012 1672.68,612.11 
  1674.15,617.259 1675.62,622.458 1677.09,627.71 1678.56,633.015 1680.03,638.373 1681.5,643.786 1682.97,649.254 1684.44,654.778 1685.91,660.359 1687.38,665.998 
  1688.85,671.696 1690.32,677.453 1691.8,683.271 1693.27,689.151 1694.74,695.093 1696.21,701.098 1697.68,707.169 1699.15,713.305 1700.62,719.508 1702.09,725.778 
  1703.56,732.118 1705.03,738.527 1706.5,745.008 1707.97,751.561 1709.44,758.188 1710.91,764.89 1712.38,771.668 1713.85,778.523 1715.32,785.458 1716.79,792.472 
  1718.26,799.569 1719.73,806.748 1721.2,814.011 1722.67,821.361 1724.14,828.798 1725.61,836.325 1727.08,843.942 1728.55,851.651 1730.02,859.455 1731.49,867.354 
  1732.96,875.351 1734.43,880.487 1735.9,885.647 1737.37,890.83 1738.84,896.038 1740.31,901.269 1741.78,906.524 1743.25,911.804 1744.72,917.108 1746.19,922.436 
  1747.66,927.789 1749.14,933.166 1750.61,938.568 1752.08,943.995 1753.55,949.446 1755.02,954.922 1756.49,960.421 1757.96,965.945 1759.43,971.492 1760.9,977.062 
  1762.37,982.654 1763.84,988.266 1765.31,993.899 1766.78,999.549 1768.25,1005.22 1769.72,1010.9 1771.19,1016.58 1772.66,1022.28 1774.13,1027.98 1775.6,1033.67 
  1777.07,1039.35 1778.54,1045.01 1780.01,1050.63 1781.48,1056.22 1782.95,1061.75 1784.42,1067.22 1785.89,1072.59 1787.36,1077.87 1788.83,1083.02 1790.3,1088.03 
  1791.77,1092.88 1793.24,1097.54 1794.71,1102 1796.18,1106.23 1797.65,1110.23 1799.12,1113.97 1800.59,1117.45 1802.06,1120.66 1803.53,1123.59 1805,1126.25 
  1806.47,1128.65 1807.95,1130.79 1809.42,1132.68 1810.89,1134.35 1812.36,1135.8 1813.83,1137.06 1815.3,1138.14 1816.77,1139.07 1818.24,1139.85 1819.71,1140.52 
  1821.18,1141.07 1822.65,1141.02 1824.12,1140.96 1825.59,1140.9 1827.06,1140.84 1828.53,1140.78 1830,1140.72 1831.47,1140.65 1832.94,1140.59 1834.41,1140.52 
  1835.88,1140.45 1837.35,1140.38 1838.82,1140.31 1840.29,1140.24 1841.76,1140.16 1843.23,1140.09 1844.7,1140.01 1846.17,1139.93 1847.64,1139.85 1849.11,1139.77 
  1850.58,1139.69 1852.05,1139.6 1853.52,1139.52 1854.99,1139.43 1856.46,1139.34 1857.93,1139.24 1859.4,1139.15 1860.87,1139.05 1862.34,1138.96 1863.81,1138.86 
  1865.28,1138.75 1866.76,1138.65 1868.23,1138.54 1869.7,1138.44 1871.17,1138.33 1872.64,1138.21 1874.11,1138.1 1875.58,1137.98 1877.05,1137.86 1878.52,1137.74 
  1879.99,1137.62 1881.46,1137.49 1882.93,1137.37 1884.4,1137.24 1885.87,1137.1 1887.34,1136.97 1888.81,1136.83 1890.28,1136.69 1891.75,1136.54 1893.22,1136.4 
  1894.69,1136.25 1896.16,1136.1 1897.63,1135.94 1899.1,1135.79 1900.57,1135.63 1902.04,1135.46 1903.51,1135.3 1904.98,1135.13 1906.45,1134.96 1907.92,1134.78 
  1909.39,1134.6 1910.86,1135.43 1912.33,1136.19 1913.8,1136.88 1915.27,1137.52 1916.74,1138.1 1918.21,1138.63 1919.68,1139.11 1921.15,1139.56 1922.62,1139.96 
  1924.09,1140.32 1925.57,1140.65 1927.04,1140.95 1928.51,1141.22 1929.98,1141.46 1931.45,1141.69 1932.92,1141.89 1934.39,1142.07 1935.86,1142.23 1937.33,1142.37 
  1938.8,1142.51 1940.27,1142.62 1941.74,1142.73 1943.21,1142.83 1944.68,1142.91 1946.15,1142.99 1947.62,1143.06 1949.09,1143.12 1950.56,1143.18 1952.03,1143.23 
  1953.5,1143.27 1954.97,1143.31 1956.44,1143.35 1957.91,1143.38 1959.38,1143.41 1960.85,1143.44 1962.32,1143.46 1963.79,1143.48 1965.26,1143.5 1966.73,1143.52 
  1968.2,1143.54 1969.67,1143.55 1971.14,1143.56 1972.61,1143.57 1974.08,1143.58 1975.55,1143.59 1977.02,1143.6 1978.49,1143.61 1979.96,1143.61 1981.43,1143.62 
  1982.9,1143.62 1984.38,1143.63 1985.85,1143.63 1987.32,1143.64 1988.79,1143.64 1990.26,1143.64 1991.73,1143.65 1993.2,1143.65 1994.67,1143.65 1996.14,1143.65 
  1997.61,1143.65 1999.08,1143.66 2000.55,1143.66 2002.02,1143.66 2003.49,1143.66 2004.96,1143.66 2006.43,1143.66 2007.9,1143.66 2009.37,1143.67 2010.84,1143.67 
  2012.31,1143.67 2013.78,1143.67 2015.25,1143.67 2016.72,1143.67 2018.19,1143.67 2019.66,1143.67 2021.13,1143.67 2022.6,1143.67 2024.07,1143.67 2025.54,1143.67 
  2027.01,1143.67 2028.48,1143.67 2029.95,1143.67 2031.42,1143.67 2032.89,1143.67 2034.36,1143.67 2035.83,1143.67 2037.3,1143.67 2038.77,1143.67 2040.24,1143.67 
  2041.71,1143.67 2043.19,1143.67 2044.66,1143.67 2046.13,1143.67 2047.6,1143.67 2049.07,1143.67 2050.54,1143.67 2052.01,1143.67 2053.48,1143.67 2054.95,1143.67 
  2056.42,1143.67 2057.89,1143.67 2059.36,1143.67 2060.83,1143.67 2062.3,1143.67 2063.77,1143.67 2065.24,1143.67 2066.71,1143.67 2068.18,1143.67 2069.65,1143.67 
  2071.12,1143.67 2072.59,1143.67 2074.06,1143.67 2075.53,1143.67 2077,1143.67 2078.47,1143.67 2079.94,1143.67 2081.41,1143.67 2082.88,1143.67 2084.35,1143.67 
  2085.82,1143.67 2087.29,1143.67 2088.76,1143.67 2090.23,1143.67 2091.7,1143.67 2093.17,1143.67 2094.64,1143.67 2096.11,1143.67 2097.58,1143.67 2099.05,1143.67 
  2100.52,1143.67 2102,1143.67 2103.47,1143.67 2104.94,1143.67 2106.41,1143.67 2107.88,1143.67 2109.35,1143.67 2110.82,1143.67 2112.29,1143.67 2113.76,1143.67 
  2115.23,1143.67 2116.7,1143.67 2118.17,1143.67 2119.64,1143.67 2121.11,1143.67 2122.58,1143.67 2124.05,1143.67 2125.52,1143.67 2126.99,1143.67 2128.46,1143.67 
  2129.93,1143.67 2131.4,1143.67 2132.87,1143.67 2134.34,1143.67 2135.81,1143.67 2137.28,1143.67 2138.75,1143.67 2140.22,1143.67 2141.69,1143.67 2143.16,1143.67 
  2144.63,1143.67 2146.1,1143.67 2147.57,1143.67 2149.04,1143.67 2150.51,1143.67 2151.98,1143.67 2153.45,1143.67 2154.92,1143.67 2156.39,1143.67 2157.86,1143.67 
  2159.33,1143.67 2160.81,1143.67 2162.28,1143.67 2163.75,1143.67 2165.22,1143.67 2166.69,1143.67 2168.16,1143.67 2169.63,1143.67 2171.1,1143.67 2172.57,1143.67 
  2174.04,1143.67 2175.51,1143.67 2176.98,1143.67 2178.45,1143.67 2179.92,1143.67 2181.39,1143.67 2182.86,1143.67 2184.33,1143.67 2185.8,1143.67 2187.27,1143.67 
  2188.74,1143.67 2190.21,1143.67 2191.68,1143.67 2193.15,1143.67 2194.62,1143.67 2196.09,1143.67 2197.56,1143.67 2199.03,1143.67 2200.5,1143.67 2201.97,1143.67 
  2203.44,1143.67 2204.91,1143.67 2206.38,1143.67 2207.85,1143.67 2209.32,1143.67 2210.79,1143.67 2212.26,1143.67 2213.73,1143.67 2215.2,1143.67 2216.67,1143.67 
  2218.15,1143.67 2219.62,1143.67 2221.09,1143.67 2222.56,1143.67 2224.03,1143.67 2225.5,1143.67 2226.97,1143.67 2228.44,1143.67 2229.91,1143.67 2231.38,1143.67 
  2232.85,1143.67 2234.32,1143.67 2235.79,1143.67 2237.26,1143.67 2238.73,1143.67 2240.2,1143.67 2241.67,1143.67 2243.14,1143.67 2244.61,1143.67 2246.08,1143.67 
  2247.55,1143.67 2249.02,1143.67 2250.49,1143.67 2251.96,1143.67 2253.43,1143.67 2254.9,1143.67 2256.37,1143.67 2257.84,1143.67 2259.31,1143.67 2260.78,1143.67 
  2262.25,1143.67 2263.72,1143.67 2265.19,1143.67 2266.66,1143.67 2268.13,1143.67 2269.6,1143.67 2271.07,1143.67 2272.54,1143.67 2274.01,1143.67 2275.48,1143.67 
  2276.96,1143.67 2278.43,1143.67 2279.9,1143.67 2281.37,1143.67 2282.84,1143.67 2284.31,1143.67 2285.78,1143.67 2287.25,1143.67 2288.72,1143.67 2290.19,1143.67 
  2291.66,1143.67 2293.13,1143.67 2294.6,1143.67 2296.07,1143.67 2297.54,1143.67 2299.01,1143.67 2300.48,1143.67 2301.95,1143.67 2303.42,1143.67 2304.89,1143.67 
  2306.36,1143.67 2307.83,1143.67 2309.3,1143.67 2310.77,1143.67 2312.24,1143.67 2313.71,1143.67 2315.18,1143.67 2316.65,1143.67 2318.12,1143.67 2319.59,1143.67 
  2321.06,1143.67 2322.53,1143.67 2324,1143.67 2325.47,1143.67 2326.94,1143.67 2328.41,1143.67 2329.88,1143.67 2331.35,1143.67 2332.82,1143.67 2334.29,1143.67 
  2335.77,1143.67 2337.24,1143.67 2338.71,1143.67 2340.18,1143.67 2341.65,1143.67 2343.12,1143.67 2344.59,1143.67 2346.06,1143.67 2347.53,1143.67 2349,1143.67 
  2350.47,1143.67 2351.94,1143.67 2353.41,1143.67 2354.88,1143.67 2356.35,1143.67 2357.82,1143.67 2359.29,1143.67 2360.76,1143.67 2362.23,1143.67 2363.7,1143.67 
  2365.17,1143.67 2366.64,1143.67 2368.11,1143.67 2369.58,1143.67 2371.05,1143.67 2372.52,1143.67 2373.99,1143.67 2375.46,1143.67 2376.93,1143.67 2378.4,1143.67 
  2379.87,1143.67 2381.34,1143.67 2382.81,1143.67 2384.28,1143.67 2385.75,1143.67 2387.22,1143.67 2388.69,1143.67 2390.16,1143.67 2391.63,1143.67 2393.1,1143.67 
  2394.58,1143.67 2396.05,1143.67 2397.52,1143.67 2398.99,1143.67 2400.46,1143.67 2401.93,1143.67 2403.4,1143.67 2404.87,1143.67 2406.34,1143.67 2407.81,1143.67 
  2409.28,1143.67 2410.75,1143.67 2412.22,1143.67 2413.69,1143.67 2415.16,1143.67 2416.63,1143.67 2418.1,1143.67 2419.57,1143.67 2421.04,1143.67 2422.51,1143.67 
  2423.98,1143.67 2425.45,1143.67 2426.92,1143.67 2428.39,1143.67 2429.86,1143.67 2431.33,1143.67 2432.8,1143.67 2434.27,1143.67 2435.74,1143.67 2437.21,1143.67 
  2438.68,1143.67 2440.15,1143.67 2441.62,1143.67 2443.09,1143.67 2444.56,1143.67 2446.03,1143.67 2447.5,1143.67 2448.97,1143.67 2450.44,1143.67 2451.91,1143.67 
  2453.39,1143.67 2454.86,1143.67 2456.33,1143.67 2457.8,1143.67 2459.27,1143.67 2460.74,1143.67 2462.21,1143.67 2463.68,1143.67 2465.15,1143.67 2466.62,1143.67 
  2468.09,1143.67 2469.56,1143.67 2471.03,1143.67 2472.5,1143.67 2473.97,1143.67 2475.44,1143.67 2476.91,1143.67 2478.38,1143.67 2479.85,1143.67 2481.32,1143.67 
  2482.79,1143.67 2484.26,1143.67 2485.73,1143.67 2487.2,1143.67 2488.67,1143.67 2490.14,1143.67 2491.61,1143.67 2493.08,1143.67 2494.55,1143.67 2496.02,1143.67 
  2497.49,1143.67 2498.96,1143.67 2500.43,1143.67 2501.9,1143.67 2503.37,1143.67 2504.84,1143.67 2506.31,1143.67 2507.78,1143.67 2509.25,1143.67 2510.72,1143.67 
  2512.2,1143.67 2513.67,1143.67 2515.14,1143.67 2516.61,1143.67 2518.08,1143.67 2519.55,1143.67 2521.02,1143.67 2522.49,1143.67 2523.96,1143.67 2525.43,1143.67 
  2526.9,1143.67 2528.37,1143.67 2529.84,1143.67 2531.31,1143.67 2532.78,1143.67 2534.25,1143.67 2535.72,1143.67 2537.19,1143.67 2538.66,1143.67 2540.13,1143.67 
  2541.6,1143.67 2543.07,1143.67 2544.54,1143.67 2546.01,1143.67 2547.48,1143.67 2548.95,1143.67 2550.42,1143.67 2551.89,1143.67 2553.36,1143.67 2554.83,1143.67 
  2556.3,1143.67 2557.77,1143.67 2559.24,1143.67 2560.71,1143.67 2562.18,1143.67 2563.65,1143.67 2565.12,1143.67 2566.59,1143.67 2568.06,1143.67 2569.53,1143.67 
  2571.01,1143.67 2572.48,1143.67 2573.95,1143.67 2575.42,1143.67 2576.89,1143.67 2578.36,1143.67 2579.83,1143.67 2581.3,1143.67 2582.77,1143.67 2584.24,1143.67 
  2585.71,1143.67 2587.18,1143.67 2588.65,1143.67 2590.12,1143.67 2591.59,1143.67 2593.06,1143.67 2594.53,1143.67 2596,1143.67 2597.47,1143.67 2598.94,1143.67 
  2600.41,1143.67 2601.88,1143.67 2603.35,1143.67 2604.82,1143.67 2606.29,1143.67 2607.76,1143.67 2609.23,1143.67 2610.7,1143.67 2612.17,1143.67 2613.64,1143.67 
  2615.11,1143.67 2616.58,1143.67 2618.05,1143.67 2619.52,1143.67 2620.99,1143.67 2622.46,1143.67 2623.93,1143.67 2625.4,1143.67 2626.87,1143.67 2628.34,1143.67 
  2629.82,1143.67 2631.29,1143.67 2632.76,1143.67 2634.23,1143.67 2635.7,1143.67 2637.17,1143.67 2638.64,1143.67 2640.11,1143.67 2641.58,1143.67 2643.05,1143.67 
  2644.52,1143.67 2645.99,1143.67 2647.46,1143.67 2648.93,1143.67 2650.4,1143.67 2651.87,1143.67 2653.34,1143.67 2654.81,1143.67 2656.28,1143.67 2657.75,1143.67 
  2659.22,1143.67 2660.69,1143.67 2662.16,1143.67 2663.63,1143.67 2665.1,1143.67 2666.57,1143.67 2668.04,1143.67 2669.51,1143.67 2670.98,1143.67 2672.45,1143.67 
  2673.92,1143.67 2675.39,1143.67 2676.86,1143.67 2678.33,1143.67 2679.8,1143.67 2681.27,1143.67 2682.74,1143.67 2684.21,1143.67 2685.68,1143.67 2687.16,1143.67 
  2688.63,1143.67 2690.1,1143.67 2691.57,1143.67 2693.04,1143.67 2694.51,1143.67 2695.98,1143.67 2697.45,1143.67 2698.92,1143.67 2700.39,1143.67 2701.86,1143.67 
  2703.33,1143.67 2704.8,1143.67 2706.27,1143.67 2707.74,1143.67 2709.21,1143.67 2710.68,1143.67 2712.15,1143.67 2713.62,1143.67 2715.09,1143.67 2716.56,1143.67 
  2718.03,1143.67 2719.5,1143.67 2720.97,1143.67 2722.44,1143.67 2723.91,1143.67 2725.38,1143.67 2726.85,1143.67 2728.32,1143.67 2729.79,1143.67 2731.26,1143.67 
  2732.73,1143.67 2734.2,1143.67 2735.67,1143.67 2737.14,1143.67 2738.61,1143.67 2740.08,1143.67 2741.55,1143.67 2743.02,1143.67 2744.49,1143.67 2745.97,1143.67 
  2747.44,1143.67 2748.91,1143.67 2750.38,1143.67 2751.85,1143.67 2753.32,1143.67 2754.79,1143.67 2756.26,1143.67 2757.73,1143.67 2759.2,1143.67 2760.67,1143.67 
  2762.14,1143.67 2763.61,1143.67 2765.08,1143.67 2766.55,1143.67 2768.02,1143.67 2769.49,1143.67 2770.96,1143.67 2772.43,1143.67 2773.9,1143.67 2775.37,1143.67 
  2776.84,1143.67 2778.31,1143.67 2779.78,1143.67 2781.25,1143.67 2782.72,1143.67 2784.19,1143.67 2785.66,1143.67 2787.13,1143.67 2788.6,1143.67 2790.07,1143.67 
  
  "/>
<polyline clip-path="url(#clip5002)" style="stroke:#e26f46; stroke-width:4; stroke-opacity:1; fill:none" points="
  674.382,1143.67 675.852,1143.67 677.322,1143.67 678.792,1143.67 680.263,1143.67 681.733,1143.67 683.203,1143.67 684.673,1143.67 686.144,1143.67 687.614,1143.67 
  689.084,1143.67 690.554,1143.67 692.025,1143.67 693.495,1143.67 694.965,1143.67 696.435,1143.67 697.906,1143.67 699.376,1143.67 700.846,1143.67 702.316,1143.67 
  703.787,1143.67 705.257,1143.67 706.727,1143.67 708.197,1143.67 709.668,1143.67 711.138,1143.67 712.608,1143.67 714.078,1143.67 715.549,1143.67 717.019,1143.67 
  718.489,1143.67 719.959,1143.67 721.43,1143.67 722.9,1143.67 724.37,1143.67 725.84,1143.67 727.311,1143.67 728.781,1143.67 730.251,1143.67 731.721,1143.67 
  733.192,1143.67 734.662,1143.67 736.132,1143.67 737.602,1143.67 739.073,1143.67 740.543,1143.67 742.013,1143.67 743.483,1143.67 744.954,1143.67 746.424,1143.67 
  747.894,1143.67 749.364,1143.67 750.835,1143.67 752.305,1143.67 753.775,1143.67 755.245,1143.67 756.716,1143.67 758.186,1143.67 759.656,1143.67 761.126,1143.67 
  762.597,1143.67 764.067,1143.67 765.537,1143.67 767.007,1143.67 768.478,1143.67 769.948,1143.67 771.418,1143.67 772.889,1143.67 774.359,1143.67 775.829,1143.67 
  777.299,1143.67 778.77,1143.67 780.24,1143.67 781.71,1143.67 783.18,1143.67 784.651,1143.67 786.121,1143.67 787.591,1143.67 789.061,1143.67 790.532,1143.67 
  792.002,1143.67 793.472,1143.67 794.942,1143.67 796.413,1143.67 797.883,1143.67 799.353,1143.67 800.823,1143.67 802.294,1143.67 803.764,1143.67 805.234,1143.67 
  806.704,1143.67 808.175,1143.67 809.645,1143.67 811.115,1143.67 812.585,1143.67 814.056,1143.67 815.526,1143.67 816.996,1143.67 818.466,1143.67 819.937,1143.67 
  821.407,1143.67 822.877,1143.67 824.347,1143.67 825.818,1143.67 827.288,1143.67 828.758,1143.67 830.228,1143.67 831.699,1143.67 833.169,1143.67 834.639,1143.67 
  836.109,1143.67 837.58,1143.67 839.05,1143.67 840.52,1143.67 841.99,1143.67 843.461,1143.67 844.931,1143.67 846.401,1143.67 847.871,1143.67 849.342,1143.67 
  850.812,1143.67 852.282,1143.67 853.752,1143.67 855.223,1143.67 856.693,1143.67 858.163,1143.67 859.633,1143.67 861.104,1143.67 862.574,1143.67 864.044,1143.67 
  865.514,1143.67 866.985,1143.67 868.455,1143.67 869.925,1143.67 871.395,1143.67 872.866,1143.67 874.336,1143.67 875.806,1143.67 877.276,1143.67 878.747,1143.67 
  880.217,1143.67 881.687,1143.67 883.157,1143.67 884.628,1143.67 886.098,1143.67 887.568,1143.67 889.038,1143.67 890.509,1143.67 891.979,1143.67 893.449,1143.67 
  894.919,1143.67 896.39,1143.67 897.86,1143.67 899.33,1143.67 900.8,1143.67 902.271,1143.67 903.741,1143.67 905.211,1143.67 906.681,1143.67 908.152,1143.67 
  909.622,1143.67 911.092,1143.67 912.562,1143.67 914.033,1143.67 915.503,1143.67 916.973,1143.67 918.443,1143.67 919.914,1143.67 921.384,1143.67 922.854,1143.67 
  924.324,1143.67 925.795,1143.67 927.265,1143.67 928.735,1143.67 930.205,1143.67 931.676,1143.67 933.146,1143.67 934.616,1143.67 936.086,1143.67 937.557,1143.67 
  939.027,1143.67 940.497,1143.67 941.967,1143.67 943.438,1143.67 944.908,1143.67 946.378,1143.67 947.848,1143.67 949.319,1143.67 950.789,1143.67 952.259,1143.67 
  953.729,1143.67 955.2,1143.67 956.67,1143.67 958.14,1143.67 959.61,1143.67 961.081,1143.67 962.551,1143.67 964.021,1143.67 965.491,1143.67 966.962,1143.67 
  968.432,1143.67 969.902,1143.67 971.372,1143.67 972.843,1143.67 974.313,1143.67 975.783,1143.67 977.253,1143.67 978.724,1143.67 980.194,1143.67 981.664,1143.67 
  983.134,1143.67 984.605,1143.67 986.075,1143.67 987.545,1143.67 989.015,1143.67 990.486,1143.67 991.956,1143.67 993.426,1143.67 994.896,1143.67 996.367,1143.67 
  997.837,1143.67 999.307,1143.67 1000.78,1143.67 1002.25,1143.67 1003.72,1143.67 1005.19,1143.67 1006.66,1143.67 1008.13,1143.67 1009.6,1143.67 1011.07,1143.67 
  1012.54,1143.67 1014.01,1143.67 1015.48,1143.67 1016.95,1143.67 1018.42,1143.67 1019.89,1143.67 1021.36,1143.67 1022.83,1143.67 1024.3,1143.67 1025.77,1143.67 
  1027.24,1143.67 1028.71,1143.67 1030.18,1143.67 1031.65,1143.67 1033.12,1143.67 1034.59,1143.67 1036.06,1143.67 1037.53,1143.67 1039,1143.67 1040.47,1143.67 
  1041.94,1143.67 1043.41,1143.67 1044.88,1143.67 1046.36,1143.67 1047.83,1143.66 1049.3,1143.66 1050.77,1143.65 1052.24,1143.63 1053.71,1143.59 1055.18,1143.52 
  1056.65,1143.39 1058.12,1143.17 1059.59,1142.79 1061.06,1142.13 1062.53,1141.04 1064,1139.27 1065.47,1136.46 1066.94,1132.14 1068.41,1125.7 1069.88,1116.36 
  1071.35,1103.26 1072.82,1085.49 1074.29,1062.17 1075.76,1032.62 1077.23,996.465 1078.7,953.796 1080.17,905.223 1081.64,851.902 1083.11,795.46 1084.58,737.845 
  1086.05,681.115 1087.52,627.216 1088.99,577.777 1090.46,533.966 1091.93,496.425 1093.4,465.283 1094.87,440.234 1096.34,420.658 1097.81,405.749 1099.28,394.638 
  1100.75,386.489 1102.22,380.559 1103.69,376.232 1105.17,373.023 1106.64,370.573 1108.11,368.623 1109.58,367 1111.05,365.587 1112.52,364.311 1113.99,363.126 
  1115.46,362.006 1116.93,356.995 1118.4,350.159 1119.87,343.499 1121.34,337.265 1122.81,331.47 1124.28,326.08 1125.75,321.056 1127.22,316.36 1128.69,311.961 
  1130.16,307.83 1131.63,303.944 1133.1,300.28 1134.57,296.82 1136.04,293.547 1137.51,290.446 1138.98,287.503 1140.45,284.707 1141.92,282.046 1143.39,279.512 
  1144.86,277.094 1146.33,274.785 1147.8,272.579 1149.27,270.467 1150.74,268.445 1152.21,266.506 1153.68,264.645 1155.15,262.858 1156.62,261.141 1158.09,259.489 
  1159.56,257.898 1161.03,256.366 1162.5,254.889 1163.98,253.465 1165.45,252.089 1166.92,250.761 1168.39,249.477 1169.86,248.236 1171.33,247.035 1172.8,245.872 
  1174.27,244.745 1175.74,243.654 1177.21,242.596 1178.68,241.569 1180.15,240.573 1181.62,239.606 1183.09,238.666 1184.56,237.753 1186.03,236.866 1187.5,236.003 
  1188.97,235.163 1190.44,234.346 1191.91,233.55 1193.38,232.775 1194.85,232.02 1196.32,231.284 1197.79,230.567 1199.26,229.867 1200.73,229.184 1202.2,228.518 
  1203.67,227.868 1205.14,227.31 1206.61,226.795 1208.08,226.312 1209.55,225.86 1211.02,225.434 1212.49,225.032 1213.96,224.653 1215.43,224.295 1216.9,223.955 
  1218.37,223.633 1219.84,223.328 1221.31,223.037 1222.79,222.761 1224.26,222.497 1225.73,222.245 1227.2,222.005 1228.67,221.775 1230.14,221.554 1231.61,221.344 
  1233.08,221.141 1234.55,220.947 1236.02,220.761 1237.49,220.581 1238.96,220.409 1240.43,220.243 1241.9,220.083 1243.37,219.928 1244.84,219.779 1246.31,219.636 
  1247.78,219.497 1249.25,219.363 1250.72,219.233 1252.19,219.107 1253.66,218.986 1255.13,218.868 1256.6,218.754 1258.07,218.643 1259.54,218.536 1261.01,218.432 
  1262.48,218.33 1263.95,218.232 1265.42,218.137 1266.89,218.044 1268.36,217.953 1269.83,217.866 1271.3,217.78 1272.77,217.697 1274.24,217.616 1275.71,217.537 
  1277.18,217.46 1278.65,217.385 1280.13,217.311 1281.6,217.24 1283.07,217.17 1284.54,217.102 1286.01,217.036 1287.48,216.971 1288.95,216.908 1290.42,216.846 
  1291.89,216.785 1293.36,217.314 1294.83,217.854 1296.3,218.384 1297.77,218.905 1299.24,219.417 1300.71,219.92 1302.18,220.415 1303.65,220.901 1305.12,221.379 
  1306.59,221.849 1308.06,222.312 1309.53,222.767 1311,223.215 1312.47,223.655 1313.94,224.088 1315.41,224.515 1316.88,224.935 1318.35,225.348 1319.82,225.756 
  1321.29,226.156 1322.76,226.551 1324.23,226.94 1325.7,227.323 1327.17,227.7 1328.64,228.072 1330.11,228.438 1331.58,228.799 1333.05,229.155 1334.52,229.506 
  1335.99,229.851 1337.46,230.192 1338.94,230.528 1340.41,230.86 1341.88,231.186 1343.35,231.509 1344.82,231.827 1346.29,232.14 1347.76,232.45 1349.23,232.755 
  1350.7,233.056 1352.17,233.354 1353.64,233.647 1355.11,233.936 1356.58,234.222 1358.05,234.504 1359.52,234.783 1360.99,235.058 1362.46,235.33 1363.93,235.598 
  1365.4,235.862 1366.87,236.124 1368.34,236.382 1369.81,236.638 1371.28,236.89 1372.75,237.139 1374.22,237.385 1375.69,237.628 1377.16,237.868 1378.63,238.105 
  1380.1,238.34 1381.57,239.345 1383.04,240.39 1384.51,241.458 1385.98,242.55 1387.45,243.667 1388.92,244.81 1390.39,245.979 1391.86,247.176 1393.33,248.402 
  1394.8,249.657 1396.27,250.942 1397.75,252.26 1399.22,253.611 1400.69,254.995 1402.16,256.416 1403.63,257.873 1405.1,259.369 1406.57,260.905 1408.04,262.482 
  1409.51,264.103 1410.98,265.769 1412.45,267.482 1413.92,269.244 1415.39,271.057 1416.86,272.923 1418.33,274.846 1419.8,276.826 1421.27,278.868 1422.74,280.974 
  1424.21,283.147 1425.68,285.389 1427.15,287.706 1428.62,290.1 1430.09,292.575 1431.56,295.136 1433.03,297.787 1434.5,300.532 1435.97,303.378 1437.44,306.329 
  1438.91,309.392 1440.38,312.573 1441.85,315.878 1443.32,319.316 1444.79,322.894 1446.26,326.622 1447.73,330.508 1449.2,334.563 1450.67,338.799 1452.14,343.227 
  1453.61,347.861 1455.08,352.716 1456.56,357.807 1458.03,363.152 1459.5,368.771 1460.97,374.685 1462.44,380.918 1463.91,387.496 1465.38,394.448 1466.85,401.806 
  1468.32,409.608 1469.79,410.822 1471.26,411.32 1472.73,411.824 1474.2,412.335 1475.67,412.855 1477.14,413.382 1478.61,413.918 1480.08,414.462 1481.55,415.014 
  1483.02,415.576 1484.49,416.146 1485.96,416.725 1487.43,417.314 1488.9,417.913 1490.37,418.521 1491.84,419.139 1493.31,419.768 1494.78,420.408 1496.25,421.058 
  1497.72,421.72 1499.19,422.393 1500.66,423.078 1502.13,423.775 1503.6,424.484 1505.07,425.206 1506.54,425.941 1508.01,426.69 1509.48,427.453 1510.95,428.229 
  1512.42,429.021 1513.89,429.827 1515.37,430.649 1516.84,431.487 1518.31,432.341 1519.78,433.212 1521.25,434.1 1522.72,435.007 1524.19,435.931 1525.66,436.875 
  1527.13,437.838 1528.6,438.822 1530.07,439.826 1531.54,440.852 1533.01,441.9 1534.48,442.971 1535.95,444.065 1537.42,445.185 1538.89,446.329 1540.36,447.5 
  1541.83,448.697 1543.3,449.923 1544.77,451.178 1546.24,452.463 1547.71,453.779 1549.18,455.127 1550.65,456.509 1552.12,457.925 1553.59,459.378 1555.06,460.868 
  1556.53,462.396 1558,463.359 1559.47,464.19 1560.94,465.022 1562.41,465.859 1563.88,466.702 1565.35,467.549 1566.82,468.402 1568.29,469.26 1569.76,470.124 
  1571.23,470.993 1572.7,471.867 1574.18,472.747 1575.65,473.633 1577.12,474.524 1578.59,475.421 1580.06,476.324 1581.53,477.233 1583,478.147 1584.47,479.067 
  1585.94,479.994 1587.41,480.926 1588.88,481.865 1590.35,482.81 1591.82,483.761 1593.29,484.718 1594.76,485.682 1596.23,486.652 1597.7,487.629 1599.17,488.612 
  1600.64,489.602 1602.11,490.598 1603.58,491.601 1605.05,492.611 1606.52,493.628 1607.99,494.652 1609.46,495.683 1610.93,496.721 1612.4,497.766 1613.87,498.819 
  1615.34,499.879 1616.81,500.946 1618.28,502.021 1619.75,503.103 1621.22,504.193 1622.69,505.29 1624.16,506.396 1625.63,507.509 1627.1,508.63 1628.57,509.76 
  1630.04,510.897 1631.51,512.043 1632.99,513.197 1634.46,514.359 1635.93,515.53 1637.4,516.71 1638.87,517.898 1640.34,519.095 1641.81,520.301 1643.28,521.516 
  1644.75,522.74 1646.22,526.209 1647.69,530.444 1649.16,534.778 1650.63,539.159 1652.1,543.582 1653.57,548.045 1655.04,552.548 1656.51,557.092 1657.98,561.678 
  1659.45,566.305 1660.92,570.975 1662.39,575.687 1663.86,580.443 1665.33,585.243 1666.8,590.088 1668.27,594.977 1669.74,599.912 1671.21,604.894 1672.68,609.922 
  1674.15,614.997 1675.62,620.121 1677.09,625.292 1678.56,630.513 1680.03,635.784 1681.5,641.105 1682.97,646.476 1684.44,651.899 1685.91,657.374 1687.38,662.901 
  1688.85,668.482 1690.32,674.116 1691.8,679.804 1693.27,685.547 1694.74,691.346 1696.21,697.2 1697.68,703.11 1699.15,709.077 1700.62,715.102 1702.09,721.184 
  1703.56,727.324 1705.03,733.523 1706.5,739.781 1707.97,746.097 1709.44,752.473 1710.91,758.909 1712.38,765.404 1713.85,771.959 1715.32,778.573 1716.79,785.248 
  1718.26,791.981 1719.73,798.774 1721.2,805.626 1722.67,812.536 1724.14,819.503 1725.61,826.527 1727.08,833.606 1728.55,840.741 1730.02,847.928 1731.49,855.167 
  1732.96,862.455 1734.43,868.757 1735.9,874.332 1737.37,879.628 1738.84,884.774 1740.31,889.833 1741.78,894.837 1743.25,899.805 1744.72,904.748 1746.19,909.674 
  1747.66,914.587 1749.14,919.49 1750.61,924.385 1752.08,929.273 1753.55,934.154 1755.02,939.027 1756.49,943.892 1757.96,948.748 1759.43,953.593 1760.9,958.428 
  1762.37,963.25 1763.84,968.057 1765.31,972.848 1766.78,977.621 1768.25,982.374 1769.72,987.105 1771.19,991.812 1772.66,996.492 1774.13,1001.14 1775.6,1005.76 
  1777.07,1010.35 1778.54,1014.9 1780.01,1019.41 1781.48,1023.87 1782.95,1028.29 1784.42,1032.66 1785.89,1036.98 1787.36,1041.25 1788.83,1045.46 1790.3,1049.6 
  1791.77,1053.68 1793.24,1057.7 1794.71,1061.64 1796.18,1065.5 1797.65,1069.29 1799.12,1073 1800.59,1076.63 1802.06,1080.16 1803.53,1083.61 1805,1086.96 
  1806.47,1090.22 1807.95,1093.38 1809.42,1096.44 1810.89,1099.4 1812.36,1102.25 1813.83,1105 1815.3,1107.64 1816.77,1110.17 1818.24,1112.59 1819.71,1114.91 
  1821.18,1117.11 1822.65,1118.95 1824.12,1120.45 1825.59,1121.74 1827.06,1122.87 1828.53,1123.88 1830,1124.78 1831.47,1125.59 1832.94,1126.33 1834.41,1127 
  1835.88,1127.62 1837.35,1128.19 1838.82,1128.72 1840.29,1129.2 1841.76,1129.66 1843.23,1130.08 1844.7,1130.47 1846.17,1130.83 1847.64,1131.17 1849.11,1131.49 
  1850.58,1131.79 1852.05,1132.07 1853.52,1132.33 1854.99,1132.57 1856.46,1132.8 1857.93,1133.02 1859.4,1133.22 1860.87,1133.41 1862.34,1133.59 1863.81,1133.75 
  1865.28,1133.91 1866.76,1134.05 1868.23,1134.19 1869.7,1134.32 1871.17,1134.43 1872.64,1134.54 1874.11,1134.65 1875.58,1134.74 1877.05,1134.83 1878.52,1134.91 
  1879.99,1134.98 1881.46,1135.04 1882.93,1135.1 1884.4,1135.16 1885.87,1135.2 1887.34,1135.25 1888.81,1135.28 1890.28,1135.31 1891.75,1135.34 1893.22,1135.36 
  1894.69,1135.37 1896.16,1135.38 1897.63,1135.38 1899.1,1135.38 1900.57,1135.38 1902.04,1135.37 1903.51,1135.35 1904.98,1135.33 1906.45,1135.31 1907.92,1135.28 
  1909.39,1135.25 1910.86,1135.26 1912.33,1135.33 1913.8,1135.43 1915.27,1135.56 1916.74,1135.71 1918.21,1135.88 1919.68,1136.06 1921.15,1136.26 1922.62,1136.47 
  1924.09,1136.69 1925.57,1136.91 1927.04,1137.15 1928.51,1137.38 1929.98,1137.63 1931.45,1137.87 1932.92,1138.11 1934.39,1138.36 1935.86,1138.6 1937.33,1138.84 
  1938.8,1139.08 1940.27,1139.31 1941.74,1139.54 1943.21,1139.77 1944.68,1139.99 1946.15,1140.2 1947.62,1140.41 1949.09,1140.61 1950.56,1140.8 1952.03,1140.98 
  1953.5,1141.16 1954.97,1141.33 1956.44,1141.49 1957.91,1141.65 1959.38,1141.79 1960.85,1141.93 1962.32,1142.06 1963.79,1142.19 1965.26,1142.3 1966.73,1142.41 
  1968.2,1142.52 1969.67,1142.61 1971.14,1142.7 1972.61,1142.79 1974.08,1142.86 1975.55,1142.94 1977.02,1143 1978.49,1143.06 1979.96,1143.12 1981.43,1143.17 
  1982.9,1143.22 1984.38,1143.27 1985.85,1143.31 1987.32,1143.34 1988.79,1143.38 1990.26,1143.41 1991.73,1143.44 1993.2,1143.46 1994.67,1143.48 1996.14,1143.5 
  1997.61,1143.52 1999.08,1143.54 2000.55,1143.55 2002.02,1143.57 2003.49,1143.58 2004.96,1143.59 2006.43,1143.6 2007.9,1143.61 2009.37,1143.62 2010.84,1143.63 
  2012.31,1143.63 2013.78,1143.64 2015.25,1143.64 2016.72,1143.65 2018.19,1143.65 2019.66,1143.65 2021.13,1143.66 2022.6,1143.66 2024.07,1143.66 2025.54,1143.66 
  2027.01,1143.66 2028.48,1143.66 2029.95,1143.67 2031.42,1143.67 2032.89,1143.67 2034.36,1143.67 2035.83,1143.67 2037.3,1143.67 2038.77,1143.67 2040.24,1143.67 
  2041.71,1143.67 2043.19,1143.67 2044.66,1143.67 2046.13,1143.67 2047.6,1143.67 2049.07,1143.67 2050.54,1143.67 2052.01,1143.67 2053.48,1143.67 2054.95,1143.67 
  2056.42,1143.67 2057.89,1143.67 2059.36,1143.67 2060.83,1143.67 2062.3,1143.67 2063.77,1143.67 2065.24,1143.67 2066.71,1143.67 2068.18,1143.67 2069.65,1143.67 
  2071.12,1143.67 2072.59,1143.67 2074.06,1143.67 2075.53,1143.67 2077,1143.67 2078.47,1143.67 2079.94,1143.67 2081.41,1143.67 2082.88,1143.67 2084.35,1143.67 
  2085.82,1143.67 2087.29,1143.67 2088.76,1143.67 2090.23,1143.67 2091.7,1143.67 2093.17,1143.67 2094.64,1143.67 2096.11,1143.67 2097.58,1143.67 2099.05,1143.67 
  2100.52,1143.67 2102,1143.67 2103.47,1143.67 2104.94,1143.67 2106.41,1143.67 2107.88,1143.67 2109.35,1143.67 2110.82,1143.67 2112.29,1143.67 2113.76,1143.67 
  2115.23,1143.67 2116.7,1143.67 2118.17,1143.67 2119.64,1143.67 2121.11,1143.67 2122.58,1143.67 2124.05,1143.67 2125.52,1143.67 2126.99,1143.67 2128.46,1143.67 
  2129.93,1143.67 2131.4,1143.67 2132.87,1143.67 2134.34,1143.67 2135.81,1143.67 2137.28,1143.67 2138.75,1143.67 2140.22,1143.67 2141.69,1143.67 2143.16,1143.67 
  2144.63,1143.67 2146.1,1143.67 2147.57,1143.67 2149.04,1143.67 2150.51,1143.67 2151.98,1143.67 2153.45,1143.67 2154.92,1143.67 2156.39,1143.67 2157.86,1143.67 
  2159.33,1143.67 2160.81,1143.67 2162.28,1143.67 2163.75,1143.67 2165.22,1143.67 2166.69,1143.67 2168.16,1143.67 2169.63,1143.67 2171.1,1143.67 2172.57,1143.67 
  2174.04,1143.67 2175.51,1143.67 2176.98,1143.67 2178.45,1143.67 2179.92,1143.67 2181.39,1143.67 2182.86,1143.67 2184.33,1143.67 2185.8,1143.67 2187.27,1143.67 
  2188.74,1143.67 2190.21,1143.67 2191.68,1143.67 2193.15,1143.67 2194.62,1143.67 2196.09,1143.67 2197.56,1143.67 2199.03,1143.67 2200.5,1143.67 2201.97,1143.67 
  2203.44,1143.67 2204.91,1143.67 2206.38,1143.67 2207.85,1143.67 2209.32,1143.67 2210.79,1143.67 2212.26,1143.67 2213.73,1143.67 2215.2,1143.67 2216.67,1143.67 
  2218.15,1143.67 2219.62,1143.67 2221.09,1143.67 2222.56,1143.67 2224.03,1143.67 2225.5,1143.67 2226.97,1143.67 2228.44,1143.67 2229.91,1143.67 2231.38,1143.67 
  2232.85,1143.67 2234.32,1143.67 2235.79,1143.67 2237.26,1143.67 2238.73,1143.67 2240.2,1143.67 2241.67,1143.67 2243.14,1143.67 2244.61,1143.67 2246.08,1143.67 
  2247.55,1143.67 2249.02,1143.67 2250.49,1143.67 2251.96,1143.67 2253.43,1143.67 2254.9,1143.67 2256.37,1143.67 2257.84,1143.67 2259.31,1143.67 2260.78,1143.67 
  2262.25,1143.67 2263.72,1143.67 2265.19,1143.67 2266.66,1143.67 2268.13,1143.67 2269.6,1143.67 2271.07,1143.67 2272.54,1143.67 2274.01,1143.67 2275.48,1143.67 
  2276.96,1143.67 2278.43,1143.67 2279.9,1143.67 2281.37,1143.67 2282.84,1143.67 2284.31,1143.67 2285.78,1143.67 2287.25,1143.67 2288.72,1143.67 2290.19,1143.67 
  2291.66,1143.67 2293.13,1143.67 2294.6,1143.67 2296.07,1143.67 2297.54,1143.67 2299.01,1143.67 2300.48,1143.67 2301.95,1143.67 2303.42,1143.67 2304.89,1143.67 
  2306.36,1143.67 2307.83,1143.67 2309.3,1143.67 2310.77,1143.67 2312.24,1143.67 2313.71,1143.67 2315.18,1143.67 2316.65,1143.67 2318.12,1143.67 2319.59,1143.67 
  2321.06,1143.67 2322.53,1143.67 2324,1143.67 2325.47,1143.67 2326.94,1143.67 2328.41,1143.67 2329.88,1143.67 2331.35,1143.67 2332.82,1143.67 2334.29,1143.67 
  2335.77,1143.67 2337.24,1143.67 2338.71,1143.67 2340.18,1143.67 2341.65,1143.67 2343.12,1143.67 2344.59,1143.67 2346.06,1143.67 2347.53,1143.67 2349,1143.67 
  2350.47,1143.67 2351.94,1143.67 2353.41,1143.67 2354.88,1143.67 2356.35,1143.67 2357.82,1143.67 2359.29,1143.67 2360.76,1143.67 2362.23,1143.67 2363.7,1143.67 
  2365.17,1143.67 2366.64,1143.67 2368.11,1143.67 2369.58,1143.67 2371.05,1143.67 2372.52,1143.67 2373.99,1143.67 2375.46,1143.67 2376.93,1143.67 2378.4,1143.67 
  2379.87,1143.67 2381.34,1143.67 2382.81,1143.67 2384.28,1143.67 2385.75,1143.67 2387.22,1143.67 2388.69,1143.67 2390.16,1143.67 2391.63,1143.67 2393.1,1143.67 
  2394.58,1143.67 2396.05,1143.67 2397.52,1143.67 2398.99,1143.67 2400.46,1143.67 2401.93,1143.67 2403.4,1143.67 2404.87,1143.67 2406.34,1143.67 2407.81,1143.67 
  2409.28,1143.67 2410.75,1143.67 2412.22,1143.67 2413.69,1143.67 2415.16,1143.67 2416.63,1143.67 2418.1,1143.67 2419.57,1143.67 2421.04,1143.67 2422.51,1143.67 
  2423.98,1143.67 2425.45,1143.67 2426.92,1143.67 2428.39,1143.67 2429.86,1143.67 2431.33,1143.67 2432.8,1143.67 2434.27,1143.67 2435.74,1143.67 2437.21,1143.67 
  2438.68,1143.67 2440.15,1143.67 2441.62,1143.67 2443.09,1143.67 2444.56,1143.67 2446.03,1143.67 2447.5,1143.67 2448.97,1143.67 2450.44,1143.67 2451.91,1143.67 
  2453.39,1143.67 2454.86,1143.67 2456.33,1143.67 2457.8,1143.67 2459.27,1143.67 2460.74,1143.67 2462.21,1143.67 2463.68,1143.67 2465.15,1143.67 2466.62,1143.67 
  2468.09,1143.67 2469.56,1143.67 2471.03,1143.67 2472.5,1143.67 2473.97,1143.67 2475.44,1143.67 2476.91,1143.67 2478.38,1143.67 2479.85,1143.67 2481.32,1143.67 
  2482.79,1143.67 2484.26,1143.67 2485.73,1143.67 2487.2,1143.67 2488.67,1143.67 2490.14,1143.67 2491.61,1143.67 2493.08,1143.67 2494.55,1143.67 2496.02,1143.67 
  2497.49,1143.67 2498.96,1143.67 2500.43,1143.67 2501.9,1143.67 2503.37,1143.67 2504.84,1143.67 2506.31,1143.67 2507.78,1143.67 2509.25,1143.67 2510.72,1143.67 
  2512.2,1143.67 2513.67,1143.67 2515.14,1143.67 2516.61,1143.67 2518.08,1143.67 2519.55,1143.67 2521.02,1143.67 2522.49,1143.67 2523.96,1143.67 2525.43,1143.67 
  2526.9,1143.67 2528.37,1143.67 2529.84,1143.67 2531.31,1143.67 2532.78,1143.67 2534.25,1143.67 2535.72,1143.67 2537.19,1143.67 2538.66,1143.67 2540.13,1143.67 
  2541.6,1143.67 2543.07,1143.67 2544.54,1143.67 2546.01,1143.67 2547.48,1143.67 2548.95,1143.67 2550.42,1143.67 2551.89,1143.67 2553.36,1143.67 2554.83,1143.67 
  2556.3,1143.67 2557.77,1143.67 2559.24,1143.67 2560.71,1143.67 2562.18,1143.67 2563.65,1143.67 2565.12,1143.67 2566.59,1143.67 2568.06,1143.67 2569.53,1143.67 
  2571.01,1143.67 2572.48,1143.67 2573.95,1143.67 2575.42,1143.67 2576.89,1143.67 2578.36,1143.67 2579.83,1143.67 2581.3,1143.67 2582.77,1143.67 2584.24,1143.67 
  2585.71,1143.67 2587.18,1143.67 2588.65,1143.67 2590.12,1143.67 2591.59,1143.67 2593.06,1143.67 2594.53,1143.67 2596,1143.67 2597.47,1143.67 2598.94,1143.67 
  2600.41,1143.67 2601.88,1143.67 2603.35,1143.67 2604.82,1143.67 2606.29,1143.67 2607.76,1143.67 2609.23,1143.67 2610.7,1143.67 2612.17,1143.67 2613.64,1143.67 
  2615.11,1143.67 2616.58,1143.67 2618.05,1143.67 2619.52,1143.67 2620.99,1143.67 2622.46,1143.67 2623.93,1143.67 2625.4,1143.67 2626.87,1143.67 2628.34,1143.67 
  2629.82,1143.67 2631.29,1143.67 2632.76,1143.67 2634.23,1143.67 2635.7,1143.67 2637.17,1143.67 2638.64,1143.67 2640.11,1143.67 2641.58,1143.67 2643.05,1143.67 
  2644.52,1143.67 2645.99,1143.67 2647.46,1143.67 2648.93,1143.67 2650.4,1143.67 2651.87,1143.67 2653.34,1143.67 2654.81,1143.67 2656.28,1143.67 2657.75,1143.67 
  2659.22,1143.67 2660.69,1143.67 2662.16,1143.67 2663.63,1143.67 2665.1,1143.67 2666.57,1143.67 2668.04,1143.67 2669.51,1143.67 2670.98,1143.67 2672.45,1143.67 
  2673.92,1143.67 2675.39,1143.67 2676.86,1143.67 2678.33,1143.67 2679.8,1143.67 2681.27,1143.67 2682.74,1143.67 2684.21,1143.67 2685.68,1143.67 2687.16,1143.67 
  2688.63,1143.67 2690.1,1143.67 2691.57,1143.67 2693.04,1143.67 2694.51,1143.67 2695.98,1143.67 2697.45,1143.67 2698.92,1143.67 2700.39,1143.67 2701.86,1143.67 
  2703.33,1143.67 2704.8,1143.67 2706.27,1143.67 2707.74,1143.67 2709.21,1143.67 2710.68,1143.67 2712.15,1143.67 2713.62,1143.67 2715.09,1143.67 2716.56,1143.67 
  2718.03,1143.67 2719.5,1143.67 2720.97,1143.67 2722.44,1143.67 2723.91,1143.67 2725.38,1143.67 2726.85,1143.67 2728.32,1143.67 2729.79,1143.67 2731.26,1143.67 
  2732.73,1143.67 2734.2,1143.67 2735.67,1143.67 2737.14,1143.67 2738.61,1143.67 2740.08,1143.67 2741.55,1143.67 2743.02,1143.67 2744.49,1143.67 2745.97,1143.67 
  2747.44,1143.67 2748.91,1143.67 2750.38,1143.67 2751.85,1143.67 2753.32,1143.67 2754.79,1143.67 2756.26,1143.67 2757.73,1143.67 2759.2,1143.67 2760.67,1143.67 
  2762.14,1143.67 2763.61,1143.67 2765.08,1143.67 2766.55,1143.67 2768.02,1143.67 2769.49,1143.67 2770.96,1143.67 2772.43,1143.67 2773.9,1143.67 2775.37,1143.67 
  2776.84,1143.67 2778.31,1143.67 2779.78,1143.67 2781.25,1143.67 2782.72,1143.67 2784.19,1143.67 2785.66,1143.67 2787.13,1143.67 2788.6,1143.67 2790.07,1143.67 
  
  "/>
<polygon clip-path="url(#clip5000)" points="
706.911,501.936 1123.23,501.936 1123.23,320.496 706.911,320.496 
  " fill="#ffffff" fill-rule="evenodd" fill-opacity="1"/>
<polyline clip-path="url(#clip5000)" style="stroke:#000000; stroke-width:4; stroke-opacity:1; fill:none" points="
  706.911,501.936 1123.23,501.936 1123.23,320.496 706.911,320.496 706.911,501.936 
  "/>
<polyline clip-path="url(#clip5000)" style="stroke:#009af9; stroke-width:4; stroke-opacity:1; fill:none" points="
  738.911,380.976 930.911,380.976 
  "/>
<g clip-path="url(#clip5000)">
<text style="fill:#000000; fill-opacity:1; font-family:Arial,Helvetica Neue,Helvetica,sans-serif; font-size:48px; text-anchor:start;" transform="rotate(0, 962.911, 398.476)" x="962.911" y="398.476">PSA</text>
</g>
<polyline clip-path="url(#clip5000)" style="stroke:#e26f46; stroke-width:4; stroke-opacity:1; fill:none" points="
  738.911,441.456 930.911,441.456 
  "/>
<g clip-path="url(#clip5000)">
<text style="fill:#000000; fill-opacity:1; font-family:Arial,Helvetica Neue,Helvetica,sans-serif; font-size:48px; text-anchor:start;" transform="rotate(0, 962.911, 458.956)" x="962.911" y="458.956">NS</text>
</g>
</svg>
