<?xml version="1.0" encoding="utf-8"?>
<svg xmlns="http://www.w3.org/2000/svg" xmlns:xlink="http://www.w3.org/1999/xlink" width="800" height="400" viewBox="0 0 3200 1600">
<defs>
  <clipPath id="clip5800">
    <rect x="0" y="0" width="3200" height="1600"/>
  </clipPath>
</defs>
<polygon clip-path="url(#clip5800)" points="
0,1600 3200,1600 3200,0 0,0 
  " fill="#ffffff" fill-rule="evenodd" fill-opacity="1"/>
<defs>
  <clipPath id="clip5801">
    <rect x="640" y="0" width="2241" height="1600"/>
  </clipPath>
</defs>
<polygon clip-path="url(#clip5800)" points="
613.992,1275.5 2853.54,1275.5 2853.54,188.976 613.992,188.976 
  " fill="#ffffff" fill-rule="evenodd" fill-opacity="1"/>
<defs>
  <clipPath id="clip5802">
    <rect x="613" y="188" width="2241" height="1088"/>
  </clipPath>
</defs>
<polyline clip-path="url(#clip5802)" style="stroke:#000000; stroke-width:2; stroke-opacity:0.1; fill:none" points="
  675.907,1275.5 675.907,188.976 
  "/>
<polyline clip-path="url(#clip5802)" style="stroke:#000000; stroke-width:2; stroke-opacity:0.1; fill:none" points="
  1028.28,1275.5 1028.28,188.976 
  "/>
<polyline clip-path="url(#clip5802)" style="stroke:#000000; stroke-width:2; stroke-opacity:0.1; fill:none" points="
  1380.66,1275.5 1380.66,188.976 
  "/>
<polyline clip-path="url(#clip5802)" style="stroke:#000000; stroke-width:2; stroke-opacity:0.1; fill:none" points="
  1733.03,1275.5 1733.03,188.976 
  "/>
<polyline clip-path="url(#clip5802)" style="stroke:#000000; stroke-width:2; stroke-opacity:0.1; fill:none" points="
  2085.41,1275.5 2085.41,188.976 
  "/>
<polyline clip-path="url(#clip5802)" style="stroke:#000000; stroke-width:2; stroke-opacity:0.1; fill:none" points="
  2437.78,1275.5 2437.78,188.976 
  "/>
<polyline clip-path="url(#clip5802)" style="stroke:#000000; stroke-width:2; stroke-opacity:0.1; fill:none" points="
  2790.16,1275.5 2790.16,188.976 
  "/>
<polyline clip-path="url(#clip5802)" style="stroke:#000000; stroke-width:2; stroke-opacity:0.1; fill:none" points="
  613.992,1188.38 2853.54,1188.38 
  "/>
<polyline clip-path="url(#clip5802)" style="stroke:#000000; stroke-width:2; stroke-opacity:0.1; fill:none" points="
  613.992,913.913 2853.54,913.913 
  "/>
<polyline clip-path="url(#clip5802)" style="stroke:#000000; stroke-width:2; stroke-opacity:0.1; fill:none" points="
  613.992,639.445 2853.54,639.445 
  "/>
<polyline clip-path="url(#clip5802)" style="stroke:#000000; stroke-width:2; stroke-opacity:0.1; fill:none" points="
  613.992,364.977 2853.54,364.977 
  "/>
<polyline clip-path="url(#clip5800)" style="stroke:#000000; stroke-width:4; stroke-opacity:1; fill:none" points="
  613.992,1275.5 2853.54,1275.5 
  "/>
<polyline clip-path="url(#clip5800)" style="stroke:#000000; stroke-width:4; stroke-opacity:1; fill:none" points="
  613.992,1275.5 613.992,188.976 
  "/>
<polyline clip-path="url(#clip5800)" style="stroke:#000000; stroke-width:4; stroke-opacity:1; fill:none" points="
  675.907,1275.5 675.907,1259.21 
  "/>
<polyline clip-path="url(#clip5800)" style="stroke:#000000; stroke-width:4; stroke-opacity:1; fill:none" points="
  1028.28,1275.5 1028.28,1259.21 
  "/>
<polyline clip-path="url(#clip5800)" style="stroke:#000000; stroke-width:4; stroke-opacity:1; fill:none" points="
  1380.66,1275.5 1380.66,1259.21 
  "/>
<polyline clip-path="url(#clip5800)" style="stroke:#000000; stroke-width:4; stroke-opacity:1; fill:none" points="
  1733.03,1275.5 1733.03,1259.21 
  "/>
<polyline clip-path="url(#clip5800)" style="stroke:#000000; stroke-width:4; stroke-opacity:1; fill:none" points="
  2085.41,1275.5 2085.41,1259.21 
  "/>
<polyline clip-path="url(#clip5800)" style="stroke:#000000; stroke-width:4; stroke-opacity:1; fill:none" points="
  2437.78,1275.5 2437.78,1259.21 
  "/>
<polyline clip-path="url(#clip5800)" style="stroke:#000000; stroke-width:4; stroke-opacity:1; fill:none" points="
  2790.16,1275.5 2790.16,1259.21 
  "/>
<polyline clip-path="url(#clip5800)" style="stroke:#000000; stroke-width:4; stroke-opacity:1; fill:none" points="
  613.992,1188.38 647.585,1188.38 
  "/>
<polyline clip-path="url(#clip5800)" style="stroke:#000000; stroke-width:4; stroke-opacity:1; fill:none" points="
  613.992,913.913 647.585,913.913 
  "/>
<polyline clip-path="url(#clip5800)" style="stroke:#000000; stroke-width:4; stroke-opacity:1; fill:none" points="
  613.992,639.445 647.585,639.445 
  "/>
<polyline clip-path="url(#clip5800)" style="stroke:#000000; stroke-width:4; stroke-opacity:1; fill:none" points="
  613.992,364.977 647.585,364.977 
  "/>
<g clip-path="url(#clip5800)">
<text style="fill:#000000; fill-opacity:1; font-family:Arial,Helvetica Neue,Helvetica,sans-serif; font-size:71px; text-anchor:middle;" transform="rotate(0, 675.907, 1353.9)" x="675.907" y="1353.9">0</text>
</g>
<g clip-path="url(#clip5800)">
<text style="fill:#000000; fill-opacity:1; font-family:Arial,Helvetica Neue,Helvetica,sans-serif; font-size:71px; text-anchor:middle;" transform="rotate(0, 1028.28, 1353.9)" x="1028.28" y="1353.9">4</text>
</g>
<g clip-path="url(#clip5800)">
<text style="fill:#000000; fill-opacity:1; font-family:Arial,Helvetica Neue,Helvetica,sans-serif; font-size:71px; text-anchor:middle;" transform="rotate(0, 1380.66, 1353.9)" x="1380.66" y="1353.9">8</text>
</g>
<g clip-path="url(#clip5800)">
<text style="fill:#000000; fill-opacity:1; font-family:Arial,Helvetica Neue,Helvetica,sans-serif; font-size:71px; text-anchor:middle;" transform="rotate(0, 1733.03, 1353.9)" x="1733.03" y="1353.9">12</text>
</g>
<g clip-path="url(#clip5800)">
<text style="fill:#000000; fill-opacity:1; font-family:Arial,Helvetica Neue,Helvetica,sans-serif; font-size:71px; text-anchor:middle;" transform="rotate(0, 2085.41, 1353.9)" x="2085.41" y="1353.9">16</text>
</g>
<g clip-path="url(#clip5800)">
<text style="fill:#000000; fill-opacity:1; font-family:Arial,Helvetica Neue,Helvetica,sans-serif; font-size:71px; text-anchor:middle;" transform="rotate(0, 2437.78, 1353.9)" x="2437.78" y="1353.9">20</text>
</g>
<g clip-path="url(#clip5800)">
<text style="fill:#000000; fill-opacity:1; font-family:Arial,Helvetica Neue,Helvetica,sans-serif; font-size:71px; text-anchor:middle;" transform="rotate(0, 2790.16, 1353.9)" x="2790.16" y="1353.9">24</text>
</g>
<g clip-path="url(#clip5800)">
<text style="fill:#000000; fill-opacity:1; font-family:Arial,Helvetica Neue,Helvetica,sans-serif; font-size:71px; text-anchor:end;" transform="rotate(0, 581.992, 1214.38)" x="581.992" y="1214.38">0.0</text>
</g>
<g clip-path="url(#clip5800)">
<text style="fill:#000000; fill-opacity:1; font-family:Arial,Helvetica Neue,Helvetica,sans-serif; font-size:71px; text-anchor:end;" transform="rotate(0, 581.992, 939.913)" x="581.992" y="939.913">0.2</text>
</g>
<g clip-path="url(#clip5800)">
<text style="fill:#000000; fill-opacity:1; font-family:Arial,Helvetica Neue,Helvetica,sans-serif; font-size:71px; text-anchor:end;" transform="rotate(0, 581.992, 665.445)" x="581.992" y="665.445">0.4</text>
</g>
<g clip-path="url(#clip5800)">
<text style="fill:#000000; fill-opacity:1; font-family:Arial,Helvetica Neue,Helvetica,sans-serif; font-size:71px; text-anchor:end;" transform="rotate(0, 581.992, 390.977)" x="581.992" y="390.977">0.6</text>
</g>
<g clip-path="url(#clip5800)">
<text style="fill:#000000; fill-opacity:1; font-family:Arial,Helvetica Neue,Helvetica,sans-serif; font-size:95px; text-anchor:middle;" transform="rotate(0, 1733.77, 1469.75)" x="1733.77" y="1469.75">Time (hours)</text>
</g>
<g clip-path="url(#clip5800)">
<text style="fill:#000000; fill-opacity:1; font-family:Arial,Helvetica Neue,Helvetica,sans-serif; font-size:95px; text-anchor:middle;" transform="rotate(-90, 325.073, 732.24)" x="325.073" y="732.24">Probability Full Dock</text>
</g>
<g clip-path="url(#clip5800)">
<text style="fill:#000000; fill-opacity:1; font-family:Arial,Helvetica Neue,Helvetica,sans-serif; font-size:95px; text-anchor:middle;" transform="rotate(-90, 428.753, 732.24)" x="428.753" y="732.24"> Absolute Error: (PSA-NS)</text>
</g>
<polyline clip-path="url(#clip5802)" style="stroke:#009af9; stroke-width:4; stroke-opacity:1; fill:none" points="
  677.375,1188.38 678.843,1188.38 680.312,1188.38 681.78,1188.38 683.248,1188.38 684.716,1188.38 686.184,1188.38 687.653,1188.38 689.121,1188.38 690.589,1188.38 
  692.057,1188.38 693.526,1188.38 694.994,1188.38 696.462,1188.38 697.93,1188.38 699.399,1188.38 700.867,1188.38 702.335,1188.38 703.803,1188.38 705.271,1188.38 
  706.74,1188.38 708.208,1188.38 709.676,1188.38 711.144,1188.38 712.613,1188.38 714.081,1188.38 715.549,1188.38 717.017,1188.38 718.486,1188.38 719.954,1188.38 
  721.422,1188.38 722.89,1188.38 724.358,1188.38 725.827,1188.38 727.295,1188.38 728.763,1188.38 730.231,1188.38 731.7,1188.38 733.168,1188.38 734.636,1188.38 
  736.104,1188.38 737.573,1188.38 739.041,1188.38 740.509,1188.38 741.977,1188.38 743.445,1188.38 744.914,1188.38 746.382,1188.38 747.85,1188.38 749.318,1188.38 
  750.787,1188.38 752.255,1188.38 753.723,1188.38 755.191,1188.38 756.66,1188.38 758.128,1188.38 759.596,1188.38 761.064,1188.38 762.532,1188.38 764.001,1188.38 
  765.469,1188.38 766.937,1188.38 768.405,1188.38 769.874,1188.38 771.342,1188.38 772.81,1188.38 774.278,1188.38 775.747,1188.38 777.215,1188.38 778.683,1188.38 
  780.151,1188.38 781.619,1188.38 783.088,1188.38 784.556,1188.38 786.024,1188.38 787.492,1188.38 788.961,1188.38 790.429,1188.38 791.897,1188.38 793.365,1188.38 
  794.834,1188.38 796.302,1188.38 797.77,1188.38 799.238,1188.38 800.706,1188.38 802.175,1188.38 803.643,1188.38 805.111,1188.38 806.579,1188.38 808.048,1188.38 
  809.516,1188.38 810.984,1188.38 812.452,1188.38 813.921,1188.38 815.389,1188.38 816.857,1188.38 818.325,1188.38 819.793,1188.38 821.262,1188.38 822.73,1188.38 
  824.198,1188.38 825.666,1188.38 827.135,1188.38 828.603,1188.38 830.071,1188.38 831.539,1188.38 833.008,1188.38 834.476,1188.38 835.944,1188.38 837.412,1188.38 
  838.881,1188.38 840.349,1188.38 841.817,1188.38 843.285,1188.38 844.753,1188.38 846.222,1188.38 847.69,1188.38 849.158,1188.38 850.626,1188.38 852.095,1188.38 
  853.563,1188.38 855.031,1188.38 856.499,1188.38 857.968,1188.38 859.436,1188.38 860.904,1188.38 862.372,1188.38 863.84,1188.38 865.309,1188.38 866.777,1188.38 
  868.245,1188.38 869.713,1188.38 871.182,1188.38 872.65,1188.38 874.118,1188.38 875.586,1188.38 877.055,1188.38 878.523,1188.38 879.991,1188.38 881.459,1188.38 
  882.927,1188.38 884.396,1188.38 885.864,1188.38 887.332,1188.38 888.8,1188.38 890.269,1188.38 891.737,1188.38 893.205,1188.38 894.673,1188.38 896.142,1188.38 
  897.61,1188.38 899.078,1188.38 900.546,1188.38 902.014,1188.38 903.483,1188.38 904.951,1188.38 906.419,1188.38 907.887,1188.38 909.356,1188.38 910.824,1188.38 
  912.292,1188.38 913.76,1188.38 915.229,1188.38 916.697,1188.38 918.165,1188.38 919.633,1188.38 921.101,1188.38 922.57,1188.38 924.038,1188.38 925.506,1188.38 
  926.974,1188.38 928.443,1188.38 929.911,1188.38 931.379,1188.38 932.847,1188.38 934.316,1188.38 935.784,1188.38 937.252,1188.38 938.72,1188.38 940.188,1188.38 
  941.657,1188.38 943.125,1188.38 944.593,1188.38 946.061,1188.38 947.53,1188.38 948.998,1188.37 950.466,1188.36 951.934,1188.35 953.403,1188.32 954.871,1188.27 
  956.339,1188.2 957.807,1188.08 959.275,1187.9 960.744,1187.61 962.212,1187.18 963.68,1186.53 965.148,1185.61 966.617,1184.3 968.085,1182.5 969.553,1180.1 
  971.021,1176.97 972.49,1173.03 973.958,1168.19 975.426,1162.41 976.894,1155.71 978.362,1148.12 979.831,1139.75 981.299,1130.7 982.767,1121.1 984.235,1111.09 
  985.704,1100.79 987.172,1090.31 988.64,1079.75 990.108,1069.19 991.577,1058.68 993.045,1048.28 994.513,1038.02 995.981,1027.91 997.449,1017.99 998.918,1008.26 
  1000.39,998.721 1001.85,989.382 1003.32,980.241 1004.79,971.298 1006.26,962.548 1007.73,953.989 1009.2,945.616 1010.66,937.424 1012.13,929.409 1013.6,921.566 
  1015.07,913.89 1016.54,906.375 1018,899.018 1019.47,891.814 1020.94,884.758 1022.41,877.845 1023.88,871.072 1025.35,864.434 1026.81,857.928 1028.28,851.549 
  1029.75,845.294 1031.22,752.96 1032.69,679.09 1034.16,618.652 1035.62,568.287 1037.09,525.67 1038.56,489.141 1040.03,457.483 1041.5,429.782 1042.96,405.34 
  1044.43,383.614 1045.9,364.176 1047.37,346.682 1048.84,330.855 1050.31,316.469 1051.77,303.339 1053.24,291.31 1054.71,280.258 1056.18,270.083 1057.65,260.708 
  1059.12,252.086 1060.58,244.203 1062.05,237.092 1063.52,230.846 1064.99,225.646 1066.46,221.791 1067.92,219.727 1069.39,220.08 1070.86,223.674 1072.33,231.529 
  1073.8,244.822 1075.27,264.794 1076.73,292.621 1078.2,329.231 1079.67,375.115 1081.14,430.146 1082.61,493.468 1084.08,563.48 1085.54,637.933 1087.01,714.136 
  1088.48,789.249 1089.95,860.587 1091.42,925.901 1092.88,983.577 1094.35,1032.73 1095.82,1073.17 1097.29,1105.31 1098.76,1130.01 1100.23,1148.37 1101.69,1161.57 
  1103.16,1170.77 1104.63,1176.99 1106.1,1181.07 1107.57,1183.66 1109.04,1185.28 1110.5,1186.26 1111.97,1186.84 1113.44,1187.19 1114.91,1187.4 1116.38,1187.52 
  1117.84,1187.6 1119.31,1184.26 1120.78,1184.2 1122.25,1184.6 1123.72,1185.04 1125.19,1185.42 1126.65,1185.76 1128.12,1186.04 1129.59,1186.29 1131.06,1186.5 
  1132.53,1186.68 1133.99,1186.84 1135.46,1186.98 1136.93,1187.11 1138.4,1187.21 1139.87,1187.31 1141.34,1187.4 1142.8,1187.48 1144.27,1187.54 1145.74,1187.61 
  1147.21,1187.66 1148.68,1187.71 1150.15,1187.76 1151.61,1187.8 1153.08,1187.84 1154.55,1187.88 1156.02,1187.91 1157.49,1187.94 1158.95,1187.96 1160.42,1187.99 
  1161.89,1188.01 1163.36,1188.03 1164.83,1188.05 1166.3,1188.07 1167.76,1188.09 1169.23,1188.1 1170.7,1188.12 1172.17,1188.13 1173.64,1188.14 1175.11,1188.16 
  1176.57,1188.17 1178.04,1188.18 1179.51,1188.19 1180.98,1188.2 1182.45,1188.2 1183.91,1188.21 1185.38,1188.22 1186.85,1188.23 1188.32,1188.23 1189.79,1188.24 
  1191.26,1188.25 1192.72,1188.25 1194.19,1188.26 1195.66,1188.26 1197.13,1188.27 1198.6,1188.27 1200.07,1188.27 1201.53,1188.28 1203,1188.28 1204.47,1188.29 
  1205.94,1188.29 1207.41,1188.31 1208.87,1188.31 1210.34,1188.32 1211.81,1188.33 1213.28,1188.33 1214.75,1188.34 1216.22,1188.34 1217.68,1188.34 1219.15,1188.35 
  1220.62,1188.35 1222.09,1188.35 1223.56,1188.35 1225.03,1188.35 1226.49,1188.36 1227.96,1188.36 1229.43,1188.36 1230.9,1188.36 1232.37,1188.36 1233.83,1188.36 
  1235.3,1188.36 1236.77,1188.37 1238.24,1188.37 1239.71,1188.37 1241.18,1188.37 1242.64,1188.37 1244.11,1188.37 1245.58,1188.37 1247.05,1188.37 1248.52,1188.37 
  1249.99,1188.37 1251.45,1188.37 1252.92,1188.37 1254.39,1188.37 1255.86,1188.37 1257.33,1188.37 1258.79,1188.37 1260.26,1188.37 1261.73,1188.37 1263.2,1188.38 
  1264.67,1188.38 1266.14,1188.38 1267.6,1188.38 1269.07,1188.38 1270.54,1188.38 1272.01,1188.38 1273.48,1188.38 1274.95,1188.38 1276.41,1188.38 1277.88,1188.38 
  1279.35,1188.38 1280.82,1188.38 1282.29,1188.38 1283.75,1188.38 1285.22,1188.38 1286.69,1188.38 1288.16,1188.38 1289.63,1188.38 1291.1,1188.38 1292.56,1188.38 
  1294.03,1188.38 1295.5,1188.41 1296.97,1188.41 1298.44,1188.4 1299.91,1188.4 1301.37,1188.4 1302.84,1188.4 1304.31,1188.4 1305.78,1188.4 1307.25,1188.4 
  1308.71,1188.4 1310.18,1188.4 1311.65,1188.4 1313.12,1188.4 1314.59,1188.4 1316.06,1188.4 1317.52,1188.4 1318.99,1188.4 1320.46,1188.4 1321.93,1188.4 
  1323.4,1188.4 1324.87,1188.4 1326.33,1188.4 1327.8,1188.4 1329.27,1188.4 1330.74,1188.4 1332.21,1188.39 1333.67,1188.39 1335.14,1188.39 1336.61,1188.39 
  1338.08,1188.39 1339.55,1188.39 1341.02,1188.39 1342.48,1188.39 1343.95,1188.39 1345.42,1188.39 1346.89,1188.39 1348.36,1188.39 1349.82,1188.39 1351.29,1188.39 
  1352.76,1188.39 1354.23,1188.39 1355.7,1188.39 1357.17,1188.39 1358.63,1188.39 1360.1,1188.39 1361.57,1188.39 1363.04,1188.39 1364.51,1188.39 1365.98,1188.39 
  1367.44,1188.39 1368.91,1188.39 1370.38,1188.39 1371.85,1188.39 1373.32,1188.39 1374.78,1188.39 1376.25,1188.39 1377.72,1188.39 1379.19,1188.39 1380.66,1188.39 
  1382.13,1188.39 1383.59,1188.41 1385.06,1188.41 1386.53,1188.42 1388,1188.42 1389.47,1188.42 1390.94,1188.42 1392.4,1188.42 1393.87,1188.42 1395.34,1188.42 
  1396.81,1188.43 1398.28,1188.43 1399.74,1188.43 1401.21,1188.43 1402.68,1188.43 1404.15,1188.44 1405.62,1188.44 1407.09,1188.44 1408.55,1188.44 1410.02,1188.45 
  1411.49,1188.45 1412.96,1188.45 1414.43,1188.46 1415.9,1188.46 1417.36,1188.46 1418.83,1188.47 1420.3,1188.47 1421.77,1188.48 1423.24,1188.48 1424.7,1188.49 
  1426.17,1188.49 1427.64,1188.5 1429.11,1188.51 1430.58,1188.51 1432.05,1188.52 1433.51,1188.53 1434.98,1188.54 1436.45,1188.55 1437.92,1188.56 1439.39,1188.57 
  1440.86,1188.58 1442.32,1188.59 1443.79,1188.61 1445.26,1188.62 1446.73,1188.64 1448.2,1188.66 1449.66,1188.68 1451.13,1188.71 1452.6,1188.73 1454.07,1188.76 
  1455.54,1188.79 1457.01,1188.83 1458.47,1188.87 1459.94,1188.91 1461.41,1188.96 1462.88,1189.02 1464.35,1189.08 1465.82,1189.15 1467.28,1189.24 1468.75,1189.33 
  1470.22,1189.44 1471.69,1188.45 1473.16,1188.45 1474.62,1188.45 1476.09,1188.45 1477.56,1188.45 1479.03,1188.46 1480.5,1188.46 1481.97,1188.46 1483.43,1188.46 
  1484.9,1188.46 1486.37,1188.47 1487.84,1188.47 1489.31,1188.47 1490.78,1188.47 1492.24,1188.48 1493.71,1188.48 1495.18,1188.48 1496.65,1188.48 1498.12,1188.49 
  1499.58,1188.49 1501.05,1188.49 1502.52,1188.49 1503.99,1188.5 1505.46,1188.5 1506.93,1188.5 1508.39,1188.51 1509.86,1188.51 1511.33,1188.52 1512.8,1188.52 
  1514.27,1188.52 1515.74,1188.53 1517.2,1188.53 1518.67,1188.54 1520.14,1188.54 1521.61,1188.55 1523.08,1188.55 1524.54,1188.56 1526.01,1188.57 1527.48,1188.57 
  1528.95,1188.58 1530.42,1188.59 1531.89,1188.59 1533.35,1188.6 1534.82,1188.61 1536.29,1188.62 1537.76,1188.63 1539.23,1188.63 1540.7,1188.64 1542.16,1188.65 
  1543.63,1188.66 1545.1,1188.68 1546.57,1188.69 1548.04,1188.7 1549.5,1188.71 1550.97,1188.73 1552.44,1188.74 1553.91,1188.76 1555.38,1188.77 1556.85,1188.79 
  1558.31,1188.81 1559.78,1188.62 1561.25,1188.61 1562.72,1188.62 1564.19,1188.62 1565.65,1188.62 1567.12,1188.62 1568.59,1188.63 1570.06,1188.63 1571.53,1188.63 
  1573,1188.64 1574.46,1188.64 1575.93,1188.64 1577.4,1188.65 1578.87,1188.65 1580.34,1188.65 1581.81,1188.66 1583.27,1188.66 1584.74,1188.66 1586.21,1188.67 
  1587.68,1188.67 1589.15,1188.67 1590.61,1188.68 1592.08,1188.68 1593.55,1188.68 1595.02,1188.69 1596.49,1188.69 1597.96,1188.7 1599.42,1188.7 1600.89,1188.7 
  1602.36,1188.71 1603.83,1188.71 1605.3,1188.72 1606.77,1188.72 1608.23,1188.73 1609.7,1188.73 1611.17,1188.74 1612.64,1188.74 1614.11,1188.75 1615.57,1188.75 
  1617.04,1188.76 1618.51,1188.76 1619.98,1188.77 1621.45,1188.77 1622.92,1188.78 1624.38,1188.78 1625.85,1188.79 1627.32,1188.79 1628.79,1188.8 1630.26,1188.81 
  1631.73,1188.81 1633.19,1188.82 1634.66,1188.82 1636.13,1188.83 1637.6,1188.84 1639.07,1188.84 1640.53,1188.85 1642,1188.86 1643.47,1188.87 1644.94,1188.87 
  1646.41,1188.88 1647.88,1190.03 1649.34,1190.17 1650.81,1190.24 1652.28,1190.3 1653.75,1190.35 1655.22,1190.41 1656.69,1190.47 1658.15,1190.53 1659.62,1190.59 
  1661.09,1190.66 1662.56,1190.73 1664.03,1190.8 1665.49,1190.87 1666.96,1190.95 1668.43,1191.03 1669.9,1191.12 1671.37,1191.2 1672.84,1191.3 1674.3,1191.39 
  1675.77,1191.49 1677.24,1191.6 1678.71,1191.71 1680.18,1191.82 1681.65,1191.94 1683.11,1192.07 1684.58,1192.2 1686.05,1192.34 1687.52,1192.49 1688.99,1192.64 
  1690.45,1192.8 1691.92,1192.97 1693.39,1193.15 1694.86,1193.34 1696.33,1193.54 1697.8,1193.75 1699.26,1193.97 1700.73,1194.2 1702.2,1194.44 1703.67,1194.7 
  1705.14,1194.98 1706.61,1195.27 1708.07,1195.57 1709.54,1195.9 1711.01,1196.24 1712.48,1196.61 1713.95,1197 1715.41,1197.41 1716.88,1197.85 1718.35,1198.32 
  1719.82,1198.82 1721.29,1199.35 1722.76,1199.92 1724.22,1200.53 1725.69,1201.17 1727.16,1201.86 1728.63,1202.6 1730.1,1203.39 1731.57,1204.24 1733.03,1205.15 
  1734.5,1206.13 1735.97,1204.52 1737.44,1203.95 1738.91,1203.8 1740.37,1203.88 1741.84,1204.12 1743.31,1204.46 1744.78,1204.89 1746.25,1205.39 1747.72,1205.94 
  1749.18,1206.55 1750.65,1207.2 1752.12,1207.9 1753.59,1208.64 1755.06,1209.42 1756.53,1210.25 1757.99,1211.13 1759.46,1212.04 1760.93,1213.01 1762.4,1214.02 
  1763.87,1215.08 1765.33,1216.19 1766.8,1217.35 1768.27,1218.55 1769.74,1219.81 1771.21,1221.12 1772.68,1222.47 1774.14,1223.87 1775.61,1225.3 1777.08,1226.78 
  1778.55,1228.28 1780.02,1229.81 1781.48,1231.35 1782.95,1232.89 1784.42,1234.42 1785.89,1235.93 1787.36,1237.38 1788.83,1238.77 1790.29,1240.07 1791.76,1241.26 
  1793.23,1242.31 1794.7,1243.2 1796.17,1243.92 1797.64,1244.42 1799.1,1244.71 1800.57,1244.75 1802.04,1244.55 1803.51,1244.1 1804.98,1243.39 1806.44,1242.44 
  1807.91,1241.26 1809.38,1239.85 1810.85,1238.25 1812.32,1236.47 1813.79,1234.54 1815.25,1232.49 1816.72,1230.35 1818.19,1228.14 1819.66,1225.89 1821.13,1223.62 
  1822.6,1221.36 1824.06,1218.75 1825.53,1216.6 1827,1214.74 1828.47,1213.11 1829.94,1211.64 1831.4,1210.31 1832.87,1209.11 1834.34,1208 1835.81,1206.98 
  1837.28,1206.03 1838.75,1205.15 1840.21,1204.33 1841.68,1203.56 1843.15,1202.84 1844.62,1202.16 1846.09,1201.52 1847.56,1200.91 1849.02,1200.33 1850.49,1199.78 
  1851.96,1199.25 1853.43,1198.75 1854.9,1198.27 1856.36,1197.81 1857.83,1197.37 1859.3,1196.95 1860.77,1196.54 1862.24,1196.15 1863.71,1195.77 1865.17,1195.4 
  1866.64,1195.05 1868.11,1194.71 1869.58,1194.37 1871.05,1194.05 1872.52,1193.74 1873.98,1193.43 1875.45,1193.13 1876.92,1192.84 1878.39,1192.56 1879.86,1192.29 
  1881.32,1192.02 1882.79,1191.75 1884.26,1191.49 1885.73,1191.24 1887.2,1190.99 1888.67,1190.75 1890.13,1190.51 1891.6,1190.28 1893.07,1190.04 1894.54,1189.82 
  1896.01,1189.59 1897.48,1189.37 1898.94,1189.15 1900.41,1188.94 1901.88,1188.72 1903.35,1188.51 1904.82,1188.31 1906.28,1188.1 1907.75,1187.9 1909.22,1187.69 
  1910.69,1187.49 1912.16,1188.61 1913.63,1189.56 1915.09,1190.38 1916.56,1191.08 1918.03,1191.67 1919.5,1192.17 1920.97,1192.58 1922.44,1192.92 1923.9,1193.18 
  1925.37,1193.38 1926.84,1193.52 1928.31,1193.61 1929.78,1193.66 1931.24,1193.66 1932.71,1193.63 1934.18,1193.57 1935.65,1193.48 1937.12,1193.37 1938.59,1193.24 
  1940.05,1193.09 1941.52,1192.94 1942.99,1192.77 1944.46,1192.59 1945.93,1192.41 1947.4,1192.22 1948.86,1192.03 1950.33,1191.84 1951.8,1191.65 1953.27,1191.47 
  1954.74,1191.29 1956.2,1191.11 1957.67,1190.94 1959.14,1190.77 1960.61,1190.61 1962.08,1190.45 1963.55,1190.31 1965.01,1190.16 1966.48,1190.03 1967.95,1189.9 
  1969.42,1189.78 1970.89,1189.67 1972.35,1189.56 1973.82,1189.46 1975.29,1189.37 1976.76,1189.28 1978.23,1189.2 1979.7,1189.13 1981.16,1189.06 1982.63,1188.99 
  1984.1,1188.93 1985.57,1188.88 1987.04,1188.83 1988.51,1188.79 1989.97,1188.74 1991.44,1188.71 1992.91,1188.67 1994.38,1188.64 1995.85,1188.61 1997.31,1188.59 
  1998.78,1188.56 2000.25,1188.54 2001.72,1188.52 2003.19,1188.51 2004.66,1188.49 2006.12,1188.48 2007.59,1188.47 2009.06,1188.46 2010.53,1188.45 2012,1188.44 
  2013.47,1188.43 2014.93,1188.42 2016.4,1188.42 2017.87,1188.41 2019.34,1188.41 2020.81,1188.4 2022.27,1188.4 2023.74,1188.4 2025.21,1188.4 2026.68,1188.39 
  2028.15,1188.39 2029.62,1188.39 2031.08,1188.39 2032.55,1188.39 2034.02,1188.39 2035.49,1188.39 2036.96,1188.39 2038.43,1188.38 2039.89,1188.38 2041.36,1188.38 
  2042.83,1188.38 2044.3,1188.38 2045.77,1188.38 2047.23,1188.38 2048.7,1188.38 2050.17,1188.38 2051.64,1188.38 2053.11,1188.38 2054.58,1188.38 2056.04,1188.38 
  2057.51,1188.38 2058.98,1188.38 2060.45,1188.38 2061.92,1188.38 2063.39,1188.38 2064.85,1188.38 2066.32,1188.38 2067.79,1188.38 2069.26,1188.38 2070.73,1188.38 
  2072.19,1188.38 2073.66,1188.38 2075.13,1188.38 2076.6,1188.38 2078.07,1188.38 2079.54,1188.38 2081,1188.38 2082.47,1188.38 2083.94,1188.38 2085.41,1188.38 
  2086.88,1188.38 2088.35,1188.38 2089.81,1188.38 2091.28,1188.38 2092.75,1188.38 2094.22,1188.38 2095.69,1188.38 2097.15,1188.38 2098.62,1188.38 2100.09,1188.38 
  2101.56,1188.38 2103.03,1188.38 2104.5,1188.38 2105.96,1188.38 2107.43,1188.38 2108.9,1188.38 2110.37,1188.38 2111.84,1188.38 2113.31,1188.38 2114.77,1188.38 
  2116.24,1188.38 2117.71,1188.38 2119.18,1188.38 2120.65,1188.38 2122.11,1188.38 2123.58,1188.38 2125.05,1188.38 2126.52,1188.38 2127.99,1188.38 2129.46,1188.38 
  2130.92,1188.38 2132.39,1188.38 2133.86,1188.38 2135.33,1188.38 2136.8,1188.38 2138.27,1188.38 2139.73,1188.38 2141.2,1188.38 2142.67,1188.38 2144.14,1188.38 
  2145.61,1188.38 2147.07,1188.38 2148.54,1188.38 2150.01,1188.38 2151.48,1188.38 2152.95,1188.38 2154.42,1188.38 2155.88,1188.38 2157.35,1188.38 2158.82,1188.38 
  2160.29,1188.38 2161.76,1188.38 2163.23,1188.38 2164.69,1188.38 2166.16,1188.38 2167.63,1188.38 2169.1,1188.38 2170.57,1188.38 2172.03,1188.38 2173.5,1188.38 
  2174.97,1188.38 2176.44,1188.38 2177.91,1188.38 2179.38,1188.38 2180.84,1188.38 2182.31,1188.38 2183.78,1188.38 2185.25,1188.38 2186.72,1188.38 2188.18,1188.38 
  2189.65,1188.38 2191.12,1188.38 2192.59,1188.38 2194.06,1188.38 2195.53,1188.38 2196.99,1188.38 2198.46,1188.38 2199.93,1188.38 2201.4,1188.38 2202.87,1188.38 
  2204.34,1188.38 2205.8,1188.38 2207.27,1188.38 2208.74,1188.38 2210.21,1188.38 2211.68,1188.38 2213.14,1188.38 2214.61,1188.38 2216.08,1188.38 2217.55,1188.38 
  2219.02,1188.38 2220.49,1188.38 2221.95,1188.38 2223.42,1188.38 2224.89,1188.38 2226.36,1188.38 2227.83,1188.38 2229.3,1188.38 2230.76,1188.38 2232.23,1188.38 
  2233.7,1188.38 2235.17,1188.38 2236.64,1188.38 2238.1,1188.38 2239.57,1188.38 2241.04,1188.38 2242.51,1188.38 2243.98,1188.38 2245.45,1188.38 2246.91,1188.38 
  2248.38,1188.38 2249.85,1188.38 2251.32,1188.38 2252.79,1188.38 2254.26,1188.38 2255.72,1188.38 2257.19,1188.38 2258.66,1188.38 2260.13,1188.38 2261.6,1188.38 
  2263.06,1188.38 2264.53,1188.38 2266,1188.38 2267.47,1188.38 2268.94,1188.38 2270.41,1188.38 2271.87,1188.38 2273.34,1188.38 2274.81,1188.38 2276.28,1188.38 
  2277.75,1188.38 2279.22,1188.38 2280.68,1188.38 2282.15,1188.38 2283.62,1188.38 2285.09,1188.38 2286.56,1188.38 2288.02,1188.38 2289.49,1188.38 2290.96,1188.38 
  2292.43,1188.38 2293.9,1188.38 2295.37,1188.38 2296.83,1188.38 2298.3,1188.38 2299.77,1188.38 2301.24,1188.38 2302.71,1188.38 2304.18,1188.38 2305.64,1188.38 
  2307.11,1188.38 2308.58,1188.38 2310.05,1188.38 2311.52,1188.38 2312.98,1188.38 2314.45,1188.38 2315.92,1188.38 2317.39,1188.38 2318.86,1188.38 2320.33,1188.38 
  2321.79,1188.38 2323.26,1188.38 2324.73,1188.38 2326.2,1188.38 2327.67,1188.38 2329.14,1188.38 2330.6,1188.38 2332.07,1188.38 2333.54,1188.38 2335.01,1188.38 
  2336.48,1188.38 2337.94,1188.38 2339.41,1188.38 2340.88,1188.38 2342.35,1188.38 2343.82,1188.38 2345.29,1188.38 2346.75,1188.38 2348.22,1188.38 2349.69,1188.38 
  2351.16,1188.38 2352.63,1188.38 2354.1,1188.38 2355.56,1188.38 2357.03,1188.38 2358.5,1188.38 2359.97,1188.38 2361.44,1188.38 2362.9,1188.38 2364.37,1188.38 
  2365.84,1188.38 2367.31,1188.38 2368.78,1188.38 2370.25,1188.38 2371.71,1188.38 2373.18,1188.38 2374.65,1188.38 2376.12,1188.38 2377.59,1188.38 2379.06,1188.38 
  2380.52,1188.38 2381.99,1188.38 2383.46,1188.38 2384.93,1188.38 2386.4,1188.38 2387.86,1188.38 2389.33,1188.38 2390.8,1188.38 2392.27,1188.38 2393.74,1188.38 
  2395.21,1188.38 2396.67,1188.38 2398.14,1188.38 2399.61,1188.38 2401.08,1188.38 2402.55,1188.38 2404.01,1188.38 2405.48,1188.38 2406.95,1188.38 2408.42,1188.38 
  2409.89,1188.38 2411.36,1188.38 2412.82,1188.38 2414.29,1188.38 2415.76,1188.38 2417.23,1188.38 2418.7,1188.38 2420.17,1188.38 2421.63,1188.38 2423.1,1188.38 
  2424.57,1188.38 2426.04,1188.38 2427.51,1188.38 2428.97,1188.38 2430.44,1188.38 2431.91,1188.38 2433.38,1188.38 2434.85,1188.38 2436.32,1188.38 2437.78,1188.38 
  2439.25,1188.38 2440.72,1188.38 2442.19,1188.38 2443.66,1188.38 2445.13,1188.38 2446.59,1188.38 2448.06,1188.38 2449.53,1188.38 2451,1188.38 2452.47,1188.38 
  2453.93,1188.38 2455.4,1188.38 2456.87,1188.38 2458.34,1188.38 2459.81,1188.38 2461.28,1188.38 2462.74,1188.38 2464.21,1188.38 2465.68,1188.38 2467.15,1188.38 
  2468.62,1188.38 2470.09,1188.38 2471.55,1188.38 2473.02,1188.38 2474.49,1188.38 2475.96,1188.38 2477.43,1188.38 2478.89,1188.38 2480.36,1188.38 2481.83,1188.38 
  2483.3,1188.38 2484.77,1188.38 2486.24,1188.38 2487.7,1188.38 2489.17,1188.38 2490.64,1188.38 2492.11,1188.38 2493.58,1188.38 2495.05,1188.38 2496.51,1188.38 
  2497.98,1188.38 2499.45,1188.38 2500.92,1188.38 2502.39,1188.38 2503.85,1188.38 2505.32,1188.38 2506.79,1188.38 2508.26,1188.38 2509.73,1188.38 2511.2,1188.38 
  2512.66,1188.38 2514.13,1188.38 2515.6,1188.38 2517.07,1188.38 2518.54,1188.38 2520.01,1188.38 2521.47,1188.38 2522.94,1188.38 2524.41,1188.38 2525.88,1188.38 
  2527.35,1188.38 2528.81,1188.38 2530.28,1188.38 2531.75,1188.38 2533.22,1188.38 2534.69,1188.38 2536.16,1188.38 2537.62,1188.38 2539.09,1188.38 2540.56,1188.38 
  2542.03,1188.38 2543.5,1188.38 2544.97,1188.38 2546.43,1188.38 2547.9,1188.38 2549.37,1188.38 2550.84,1188.38 2552.31,1188.38 2553.77,1188.38 2555.24,1188.38 
  2556.71,1188.38 2558.18,1188.38 2559.65,1188.38 2561.12,1188.38 2562.58,1188.38 2564.05,1188.38 2565.52,1188.38 2566.99,1188.38 2568.46,1188.38 2569.93,1188.38 
  2571.39,1188.38 2572.86,1188.38 2574.33,1188.38 2575.8,1188.38 2577.27,1188.38 2578.73,1188.38 2580.2,1188.38 2581.67,1188.38 2583.14,1188.38 2584.61,1188.38 
  2586.08,1188.38 2587.54,1188.38 2589.01,1188.38 2590.48,1188.38 2591.95,1188.38 2593.42,1188.38 2594.89,1188.38 2596.35,1188.38 2597.82,1188.38 2599.29,1188.38 
  2600.76,1188.38 2602.23,1188.38 2603.69,1188.38 2605.16,1188.38 2606.63,1188.38 2608.1,1188.38 2609.57,1188.38 2611.04,1188.38 2612.5,1188.38 2613.97,1188.38 
  2615.44,1188.38 2616.91,1188.38 2618.38,1188.38 2619.84,1188.38 2621.31,1188.38 2622.78,1188.38 2624.25,1188.38 2625.72,1188.38 2627.19,1188.38 2628.65,1188.38 
  2630.12,1188.38 2631.59,1188.38 2633.06,1188.38 2634.53,1188.38 2636,1188.38 2637.46,1188.38 2638.93,1188.38 2640.4,1188.38 2641.87,1188.38 2643.34,1188.38 
  2644.8,1188.38 2646.27,1188.38 2647.74,1188.38 2649.21,1188.38 2650.68,1188.38 2652.15,1188.38 2653.61,1188.38 2655.08,1188.38 2656.55,1188.38 2658.02,1188.38 
  2659.49,1188.38 2660.96,1188.38 2662.42,1188.38 2663.89,1188.38 2665.36,1188.38 2666.83,1188.38 2668.3,1188.38 2669.76,1188.38 2671.23,1188.38 2672.7,1188.38 
  2674.17,1188.38 2675.64,1188.38 2677.11,1188.38 2678.57,1188.38 2680.04,1188.38 2681.51,1188.38 2682.98,1188.38 2684.45,1188.38 2685.92,1188.38 2687.38,1188.38 
  2688.85,1188.38 2690.32,1188.38 2691.79,1188.38 2693.26,1188.38 2694.72,1188.38 2696.19,1188.38 2697.66,1188.38 2699.13,1188.38 2700.6,1188.38 2702.07,1188.38 
  2703.53,1188.38 2705,1188.38 2706.47,1188.38 2707.94,1188.38 2709.41,1188.38 2710.88,1188.38 2712.34,1188.38 2713.81,1188.38 2715.28,1188.38 2716.75,1188.38 
  2718.22,1188.38 2719.68,1188.38 2721.15,1188.38 2722.62,1188.38 2724.09,1188.38 2725.56,1188.38 2727.03,1188.38 2728.49,1188.38 2729.96,1188.38 2731.43,1188.38 
  2732.9,1188.38 2734.37,1188.38 2735.84,1188.38 2737.3,1188.38 2738.77,1188.38 2740.24,1188.38 2741.71,1188.38 2743.18,1188.38 2744.64,1188.38 2746.11,1188.38 
  2747.58,1188.38 2749.05,1188.38 2750.52,1188.38 2751.99,1188.38 2753.45,1188.38 2754.92,1188.38 2756.39,1188.38 2757.86,1188.38 2759.33,1188.38 2760.8,1188.38 
  2762.26,1188.38 2763.73,1188.38 2765.2,1188.38 2766.67,1188.38 2768.14,1188.38 2769.6,1188.38 2771.07,1188.38 2772.54,1188.38 2774.01,1188.38 2775.48,1188.38 
  2776.95,1188.38 2778.41,1188.38 2779.88,1188.38 2781.35,1188.38 2782.82,1188.38 2784.29,1188.38 2785.76,1188.38 2787.22,1188.38 2788.69,1188.38 2790.16,1188.38 
  
  "/>
</svg>
