<?xml version="1.0" encoding="utf-8"?>
<svg xmlns="http://www.w3.org/2000/svg" xmlns:xlink="http://www.w3.org/1999/xlink" width="800" height="400" viewBox="0 0 3200 1600">
<defs>
  <clipPath id="clip8500">
    <rect x="0" y="0" width="3200" height="1600"/>
  </clipPath>
</defs>
<polygon clip-path="url(#clip8500)" points="
0,1600 3200,1600 3200,0 0,0 
  " fill="#ffffff" fill-rule="evenodd" fill-opacity="1"/>
<defs>
  <clipPath id="clip8501">
    <rect x="640" y="0" width="2241" height="1600"/>
  </clipPath>
</defs>
<polygon clip-path="url(#clip8500)" points="
456.511,1275.5 2853.54,1275.5 2853.54,188.976 456.511,188.976 
  " fill="#ffffff" fill-rule="evenodd" fill-opacity="1"/>
<defs>
  <clipPath id="clip8502">
    <rect x="456" y="188" width="2398" height="1088"/>
  </clipPath>
</defs>
<polyline clip-path="url(#clip8502)" style="stroke:#000000; stroke-width:2; stroke-opacity:0.1; fill:none" points="
  522.78,1275.5 522.78,188.976 
  "/>
<polyline clip-path="url(#clip8502)" style="stroke:#000000; stroke-width:2; stroke-opacity:0.1; fill:none" points="
  899.934,1275.5 899.934,188.976 
  "/>
<polyline clip-path="url(#clip8502)" style="stroke:#000000; stroke-width:2; stroke-opacity:0.1; fill:none" points="
  1277.09,1275.5 1277.09,188.976 
  "/>
<polyline clip-path="url(#clip8502)" style="stroke:#000000; stroke-width:2; stroke-opacity:0.1; fill:none" points="
  1654.24,1275.5 1654.24,188.976 
  "/>
<polyline clip-path="url(#clip8502)" style="stroke:#000000; stroke-width:2; stroke-opacity:0.1; fill:none" points="
  2031.4,1275.5 2031.4,188.976 
  "/>
<polyline clip-path="url(#clip8502)" style="stroke:#000000; stroke-width:2; stroke-opacity:0.1; fill:none" points="
  2408.55,1275.5 2408.55,188.976 
  "/>
<polyline clip-path="url(#clip8502)" style="stroke:#000000; stroke-width:2; stroke-opacity:0.1; fill:none" points="
  2785.7,1275.5 2785.7,188.976 
  "/>
<polyline clip-path="url(#clip8502)" style="stroke:#000000; stroke-width:2; stroke-opacity:0.1; fill:none" points="
  456.511,1188.92 2853.54,1188.92 
  "/>
<polyline clip-path="url(#clip8502)" style="stroke:#000000; stroke-width:2; stroke-opacity:0.1; fill:none" points="
  456.511,913.249 2853.54,913.249 
  "/>
<polyline clip-path="url(#clip8502)" style="stroke:#000000; stroke-width:2; stroke-opacity:0.1; fill:none" points="
  456.511,637.583 2853.54,637.583 
  "/>
<polyline clip-path="url(#clip8502)" style="stroke:#000000; stroke-width:2; stroke-opacity:0.1; fill:none" points="
  456.511,361.916 2853.54,361.916 
  "/>
<polyline clip-path="url(#clip8500)" style="stroke:#000000; stroke-width:4; stroke-opacity:1; fill:none" points="
  456.511,1275.5 2853.54,1275.5 
  "/>
<polyline clip-path="url(#clip8500)" style="stroke:#000000; stroke-width:4; stroke-opacity:1; fill:none" points="
  456.511,1275.5 456.511,188.976 
  "/>
<polyline clip-path="url(#clip8500)" style="stroke:#000000; stroke-width:4; stroke-opacity:1; fill:none" points="
  522.78,1275.5 522.78,1259.21 
  "/>
<polyline clip-path="url(#clip8500)" style="stroke:#000000; stroke-width:4; stroke-opacity:1; fill:none" points="
  899.934,1275.5 899.934,1259.21 
  "/>
<polyline clip-path="url(#clip8500)" style="stroke:#000000; stroke-width:4; stroke-opacity:1; fill:none" points="
  1277.09,1275.5 1277.09,1259.21 
  "/>
<polyline clip-path="url(#clip8500)" style="stroke:#000000; stroke-width:4; stroke-opacity:1; fill:none" points="
  1654.24,1275.5 1654.24,1259.21 
  "/>
<polyline clip-path="url(#clip8500)" style="stroke:#000000; stroke-width:4; stroke-opacity:1; fill:none" points="
  2031.4,1275.5 2031.4,1259.21 
  "/>
<polyline clip-path="url(#clip8500)" style="stroke:#000000; stroke-width:4; stroke-opacity:1; fill:none" points="
  2408.55,1275.5 2408.55,1259.21 
  "/>
<polyline clip-path="url(#clip8500)" style="stroke:#000000; stroke-width:4; stroke-opacity:1; fill:none" points="
  2785.7,1275.5 2785.7,1259.21 
  "/>
<polyline clip-path="url(#clip8500)" style="stroke:#000000; stroke-width:4; stroke-opacity:1; fill:none" points="
  456.511,1188.92 492.467,1188.92 
  "/>
<polyline clip-path="url(#clip8500)" style="stroke:#000000; stroke-width:4; stroke-opacity:1; fill:none" points="
  456.511,913.249 492.467,913.249 
  "/>
<polyline clip-path="url(#clip8500)" style="stroke:#000000; stroke-width:4; stroke-opacity:1; fill:none" points="
  456.511,637.583 492.467,637.583 
  "/>
<polyline clip-path="url(#clip8500)" style="stroke:#000000; stroke-width:4; stroke-opacity:1; fill:none" points="
  456.511,361.916 492.467,361.916 
  "/>
<g clip-path="url(#clip8500)">
<text style="fill:#000000; fill-opacity:1; font-family:Arial,Helvetica Neue,Helvetica,sans-serif; font-size:71px; text-anchor:middle;" transform="rotate(0, 522.78, 1353.9)" x="522.78" y="1353.9">0</text>
</g>
<g clip-path="url(#clip8500)">
<text style="fill:#000000; fill-opacity:1; font-family:Arial,Helvetica Neue,Helvetica,sans-serif; font-size:71px; text-anchor:middle;" transform="rotate(0, 899.934, 1353.9)" x="899.934" y="1353.9">4</text>
</g>
<g clip-path="url(#clip8500)">
<text style="fill:#000000; fill-opacity:1; font-family:Arial,Helvetica Neue,Helvetica,sans-serif; font-size:71px; text-anchor:middle;" transform="rotate(0, 1277.09, 1353.9)" x="1277.09" y="1353.9">8</text>
</g>
<g clip-path="url(#clip8500)">
<text style="fill:#000000; fill-opacity:1; font-family:Arial,Helvetica Neue,Helvetica,sans-serif; font-size:71px; text-anchor:middle;" transform="rotate(0, 1654.24, 1353.9)" x="1654.24" y="1353.9">12</text>
</g>
<g clip-path="url(#clip8500)">
<text style="fill:#000000; fill-opacity:1; font-family:Arial,Helvetica Neue,Helvetica,sans-serif; font-size:71px; text-anchor:middle;" transform="rotate(0, 2031.4, 1353.9)" x="2031.4" y="1353.9">16</text>
</g>
<g clip-path="url(#clip8500)">
<text style="fill:#000000; fill-opacity:1; font-family:Arial,Helvetica Neue,Helvetica,sans-serif; font-size:71px; text-anchor:middle;" transform="rotate(0, 2408.55, 1353.9)" x="2408.55" y="1353.9">20</text>
</g>
<g clip-path="url(#clip8500)">
<text style="fill:#000000; fill-opacity:1; font-family:Arial,Helvetica Neue,Helvetica,sans-serif; font-size:71px; text-anchor:middle;" transform="rotate(0, 2785.7, 1353.9)" x="2785.7" y="1353.9">24</text>
</g>
<g clip-path="url(#clip8500)">
<text style="fill:#000000; fill-opacity:1; font-family:Arial,Helvetica Neue,Helvetica,sans-serif; font-size:71px; text-anchor:end;" transform="rotate(0, 424.511, 1214.92)" x="424.511" y="1214.92">0.0</text>
</g>
<g clip-path="url(#clip8500)">
<text style="fill:#000000; fill-opacity:1; font-family:Arial,Helvetica Neue,Helvetica,sans-serif; font-size:71px; text-anchor:end;" transform="rotate(0, 424.511, 939.249)" x="424.511" y="939.249">0.2</text>
</g>
<g clip-path="url(#clip8500)">
<text style="fill:#000000; fill-opacity:1; font-family:Arial,Helvetica Neue,Helvetica,sans-serif; font-size:71px; text-anchor:end;" transform="rotate(0, 424.511, 663.583)" x="424.511" y="663.583">0.4</text>
</g>
<g clip-path="url(#clip8500)">
<text style="fill:#000000; fill-opacity:1; font-family:Arial,Helvetica Neue,Helvetica,sans-serif; font-size:71px; text-anchor:end;" transform="rotate(0, 424.511, 387.916)" x="424.511" y="387.916">0.6</text>
</g>
<g clip-path="url(#clip8500)">
<text style="fill:#000000; fill-opacity:1; font-family:Arial,Helvetica Neue,Helvetica,sans-serif; font-size:95px; text-anchor:middle;" transform="rotate(0, 1655.03, 1469.75)" x="1655.03" y="1469.75">Time (hours)</text>
</g>
<g clip-path="url(#clip8500)">
<text style="fill:#000000; fill-opacity:1; font-family:Arial,Helvetica Neue,Helvetica,sans-serif; font-size:95px; text-anchor:middle;" transform="rotate(-90, 167.592, 732.24)" x="167.592" y="732.24">Probability Full Dock</text>
</g>
<g clip-path="url(#clip8500)">
<text style="fill:#000000; fill-opacity:1; font-family:Arial,Helvetica Neue,Helvetica,sans-serif; font-size:95px; text-anchor:middle;" transform="rotate(-90, 271.272, 732.24)" x="271.272" y="732.24"> Absolute Error: (PSA-NS)</text>
</g>
<polyline clip-path="url(#clip8502)" style="stroke:#009af9; stroke-width:4; stroke-opacity:1; fill:none" points="
  524.352,1188.92 525.923,1188.92 527.495,1188.92 529.066,1188.92 530.638,1188.92 532.209,1188.92 533.781,1188.92 535.352,1188.92 536.924,1188.92 538.495,1188.92 
  540.066,1188.92 541.638,1188.92 543.209,1188.92 544.781,1188.92 546.352,1188.92 547.924,1188.92 549.495,1188.92 551.067,1188.92 552.638,1188.92 554.21,1188.92 
  555.781,1188.92 557.353,1188.92 558.924,1188.92 560.496,1188.92 562.067,1188.92 563.639,1188.92 565.21,1188.92 566.782,1188.92 568.353,1188.92 569.924,1188.92 
  571.496,1188.92 573.067,1188.92 574.639,1188.92 576.21,1188.92 577.782,1188.92 579.353,1188.92 580.925,1188.92 582.496,1188.92 584.068,1188.92 585.639,1188.92 
  587.211,1188.92 588.782,1188.92 590.354,1188.92 591.925,1188.92 593.497,1188.92 595.068,1188.92 596.64,1188.92 598.211,1188.92 599.782,1188.92 601.354,1188.92 
  602.925,1188.92 604.497,1188.92 606.068,1188.92 607.64,1188.92 609.211,1188.92 610.783,1188.92 612.354,1188.92 613.926,1188.92 615.497,1188.92 617.069,1188.92 
  618.64,1188.92 620.212,1188.92 621.783,1188.92 623.355,1188.92 624.926,1188.92 626.498,1188.92 628.069,1188.92 629.641,1188.92 631.212,1188.92 632.783,1188.92 
  634.355,1188.92 635.926,1188.92 637.498,1188.92 639.069,1188.92 640.641,1188.92 642.212,1188.92 643.784,1188.92 645.355,1188.92 646.927,1188.92 648.498,1188.92 
  650.07,1188.92 651.641,1188.92 653.213,1188.92 654.784,1188.92 656.356,1188.92 657.927,1188.92 659.499,1188.92 661.07,1188.92 662.641,1188.92 664.213,1188.92 
  665.784,1188.92 667.356,1188.92 668.927,1188.92 670.499,1188.92 672.07,1188.92 673.642,1188.92 675.213,1188.92 676.785,1188.92 678.356,1188.92 679.928,1188.92 
  681.499,1188.92 683.071,1188.92 684.642,1188.92 686.214,1188.92 687.785,1188.92 689.357,1188.92 690.928,1188.92 692.499,1188.92 694.071,1188.92 695.642,1188.92 
  697.214,1188.92 698.785,1188.92 700.357,1188.92 701.928,1188.92 703.5,1188.92 705.071,1188.92 706.643,1188.92 708.214,1188.92 709.786,1188.92 711.357,1188.92 
  712.929,1188.92 714.5,1188.92 716.072,1188.92 717.643,1188.92 719.215,1188.92 720.786,1188.92 722.357,1188.92 723.929,1188.92 725.5,1188.92 727.072,1188.92 
  728.643,1188.92 730.215,1188.92 731.786,1188.92 733.358,1188.92 734.929,1188.92 736.501,1188.92 738.072,1188.92 739.644,1188.92 741.215,1188.92 742.787,1188.92 
  744.358,1188.92 745.93,1188.92 747.501,1188.92 749.073,1188.92 750.644,1188.92 752.215,1188.92 753.787,1188.92 755.358,1188.92 756.93,1188.92 758.501,1188.92 
  760.073,1188.92 761.644,1188.92 763.216,1188.92 764.787,1188.92 766.359,1188.92 767.93,1188.92 769.502,1188.92 771.073,1188.92 772.645,1188.92 774.216,1188.92 
  775.788,1188.92 777.359,1188.92 778.931,1188.92 780.502,1188.92 782.073,1188.92 783.645,1188.92 785.216,1188.92 786.788,1188.92 788.359,1188.92 789.931,1188.92 
  791.502,1188.92 793.074,1188.92 794.645,1188.92 796.217,1188.92 797.788,1188.92 799.36,1188.92 800.931,1188.92 802.503,1188.92 804.074,1188.92 805.646,1188.92 
  807.217,1188.91 808.789,1188.91 810.36,1188.91 811.931,1188.91 813.503,1188.91 815.074,1188.9 816.646,1188.89 818.217,1188.87 819.789,1188.84 821.36,1188.79 
  822.932,1188.7 824.503,1188.57 826.075,1188.35 827.646,1188.03 829.218,1187.55 830.789,1186.85 832.361,1185.85 833.932,1184.46 835.504,1182.56 837.075,1180.06 
  838.647,1176.84 840.218,1172.8 841.789,1167.88 843.361,1162.04 844.932,1155.3 846.504,1147.7 848.075,1139.33 849.647,1130.29 851.218,1120.72 852.79,1110.74 
  854.361,1100.47 855.933,1090.02 857.504,1079.48 859.076,1068.93 860.647,1058.43 862.219,1048.02 863.79,1037.75 865.362,1027.63 866.933,1017.69 868.505,1007.93 
  870.076,998.367 871.647,989 873.219,979.829 874.79,970.854 876.362,962.073 877.933,953.481 879.505,945.076 881.076,936.851 882.648,928.804 884.219,920.928 
  885.791,913.22 887.362,905.674 888.934,898.286 890.505,891.051 892.077,883.964 893.648,877.022 895.22,870.219 896.791,863.553 898.363,857.018 899.934,850.612 
  901.505,844.33 903.077,751.593 904.648,677.401 906.22,616.699 907.791,566.114 909.363,523.311 910.934,486.623 912.506,454.827 914.077,427.005 915.649,402.457 
  917.22,380.636 918.792,361.113 920.363,343.544 921.935,327.65 923.506,313.204 925.078,300.022 926.649,287.951 928.221,276.868 929.792,266.678 931.364,257.315 
  932.935,248.744 934.506,240.974 936.078,234.071 937.649,228.176 939.221,223.538 940.792,220.538 942.364,219.727 943.935,221.845 945.507,227.828 947.078,238.787 
  948.65,255.934 950.221,280.474 951.793,313.442 953.364,355.511 954.936,406.815 956.507,466.802 958.079,534.177 959.65,606.951 961.222,682.606 962.793,758.348 
  964.364,831.415 965.936,899.362 967.507,960.307 969.079,1013.05 970.65,1057.13 972.222,1092.72 973.793,1120.48 975.365,1141.44 976.936,1156.74 978.508,1167.57 
  980.079,1174.99 981.651,1179.93 983.222,1183.13 984.794,1185.14 986.365,1186.37 987.937,1187.11 989.508,1187.56 991.08,1187.82 992.651,1187.98 994.222,1188.08 
  995.794,1188.15 997.365,1184.78 998.937,1184.72 1000.51,1185.12 1002.08,1185.56 1003.65,1185.95 1005.22,1186.28 1006.79,1186.57 1008.37,1186.81 1009.94,1187.02 
  1011.51,1187.21 1013.08,1187.37 1014.65,1187.51 1016.22,1187.63 1017.79,1187.74 1019.37,1187.84 1020.94,1187.93 1022.51,1188.01 1024.08,1188.07 1025.65,1188.14 
  1027.22,1188.19 1028.79,1188.25 1030.37,1188.29 1031.94,1188.33 1033.51,1188.37 1035.08,1188.41 1036.65,1188.44 1038.22,1188.47 1039.8,1188.5 1041.37,1188.52 
  1042.94,1188.54 1044.51,1188.57 1046.08,1188.58 1047.65,1188.6 1049.22,1188.62 1050.8,1188.64 1052.37,1188.65 1053.94,1188.66 1055.51,1188.68 1057.08,1188.69 
  1058.65,1188.7 1060.22,1188.71 1061.8,1188.72 1063.37,1188.73 1064.94,1188.74 1066.51,1188.75 1068.08,1188.75 1069.65,1188.76 1071.22,1188.77 1072.8,1188.77 
  1074.37,1188.78 1075.94,1188.78 1077.51,1188.79 1079.08,1188.79 1080.65,1188.8 1082.23,1188.8 1083.8,1188.81 1085.37,1188.81 1086.94,1188.82 1088.51,1188.82 
  1090.08,1188.82 1091.65,1188.84 1093.23,1188.85 1094.8,1188.86 1096.37,1188.86 1097.94,1188.87 1099.51,1188.87 1101.08,1188.87 1102.65,1188.88 1104.23,1188.88 
  1105.8,1188.88 1107.37,1188.88 1108.94,1188.89 1110.51,1188.89 1112.08,1188.89 1113.65,1188.89 1115.23,1188.89 1116.8,1188.9 1118.37,1188.9 1119.94,1188.9 
  1121.51,1188.9 1123.08,1188.9 1124.65,1188.9 1126.23,1188.9 1127.8,1188.9 1129.37,1188.9 1130.94,1188.9 1132.51,1188.9 1134.08,1188.91 1135.66,1188.91 
  1137.23,1188.91 1138.8,1188.91 1140.37,1188.91 1141.94,1188.91 1143.51,1188.91 1145.08,1188.91 1146.66,1188.91 1148.23,1188.91 1149.8,1188.91 1151.37,1188.91 
  1152.94,1188.91 1154.51,1188.91 1156.08,1188.91 1157.66,1188.91 1159.23,1188.91 1160.8,1188.91 1162.37,1188.91 1163.94,1188.91 1165.51,1188.91 1167.08,1188.91 
  1168.66,1188.91 1170.23,1188.91 1171.8,1188.91 1173.37,1188.91 1174.94,1188.91 1176.51,1188.91 1178.08,1188.91 1179.66,1188.91 1181.23,1188.91 1182.8,1188.91 
  1184.37,1188.91 1185.94,1188.94 1187.51,1188.94 1189.09,1188.94 1190.66,1188.94 1192.23,1188.94 1193.8,1188.94 1195.37,1188.94 1196.94,1188.94 1198.51,1188.94 
  1200.09,1188.94 1201.66,1188.93 1203.23,1188.93 1204.8,1188.93 1206.37,1188.93 1207.94,1188.93 1209.51,1188.93 1211.09,1188.93 1212.66,1188.93 1214.23,1188.93 
  1215.8,1188.93 1217.37,1188.93 1218.94,1188.93 1220.51,1188.93 1222.09,1188.93 1223.66,1188.93 1225.23,1188.93 1226.8,1188.93 1228.37,1188.93 1229.94,1188.93 
  1231.52,1188.93 1233.09,1188.93 1234.66,1188.93 1236.23,1188.93 1237.8,1188.93 1239.37,1188.93 1240.94,1188.93 1242.52,1188.93 1244.09,1188.93 1245.66,1188.93 
  1247.23,1188.93 1248.8,1188.93 1250.37,1188.93 1251.94,1188.93 1253.52,1188.93 1255.09,1188.92 1256.66,1188.92 1258.23,1188.92 1259.8,1188.92 1261.37,1188.92 
  1262.94,1188.92 1264.52,1188.92 1266.09,1188.92 1267.66,1188.92 1269.23,1188.92 1270.8,1188.92 1272.37,1188.92 1273.94,1188.92 1275.52,1188.92 1277.09,1188.92 
  1278.66,1188.92 1280.23,1188.95 1281.8,1188.95 1283.37,1188.95 1284.95,1188.95 1286.52,1188.95 1288.09,1188.95 1289.66,1188.96 1291.23,1188.96 1292.8,1188.96 
  1294.37,1188.96 1295.95,1188.96 1297.52,1188.96 1299.09,1188.97 1300.66,1188.97 1302.23,1188.97 1303.8,1188.97 1305.37,1188.98 1306.95,1188.98 1308.52,1188.98 
  1310.09,1188.98 1311.66,1188.99 1313.23,1188.99 1314.8,1188.99 1316.37,1189 1317.95,1189 1319.52,1189.01 1321.09,1189.01 1322.66,1189.02 1324.23,1189.02 
  1325.8,1189.03 1327.37,1189.03 1328.95,1189.04 1330.52,1189.05 1332.09,1189.05 1333.66,1189.06 1335.23,1189.07 1336.8,1189.08 1338.38,1189.09 1339.95,1189.1 
  1341.52,1189.12 1343.09,1189.13 1344.66,1189.14 1346.23,1189.16 1347.8,1189.18 1349.38,1189.2 1350.95,1189.22 1352.52,1189.24 1354.09,1189.27 1355.66,1189.3 
  1357.23,1189.33 1358.8,1189.36 1360.38,1189.4 1361.95,1189.45 1363.52,1189.5 1365.09,1189.55 1366.66,1189.62 1368.23,1189.69 1369.8,1189.78 1371.38,1189.87 
  1372.95,1189.98 1374.52,1188.98 1376.09,1188.98 1377.66,1188.99 1379.23,1188.99 1380.81,1188.99 1382.38,1188.99 1383.95,1188.99 1385.52,1188.99 1387.09,1189 
  1388.66,1189 1390.23,1189 1391.81,1189 1393.38,1189 1394.95,1189.01 1396.52,1189.01 1398.09,1189.01 1399.66,1189.01 1401.23,1189.02 1402.81,1189.02 
  1404.38,1189.02 1405.95,1189.03 1407.52,1189.03 1409.09,1189.03 1410.66,1189.04 1412.23,1189.04 1413.81,1189.04 1415.38,1189.05 1416.95,1189.05 1418.52,1189.06 
  1420.09,1189.06 1421.66,1189.06 1423.23,1189.07 1424.81,1189.07 1426.38,1189.08 1427.95,1189.08 1429.52,1189.09 1431.09,1189.1 1432.66,1189.1 1434.24,1189.11 
  1435.81,1189.11 1437.38,1189.12 1438.95,1189.13 1440.52,1189.14 1442.09,1189.14 1443.66,1189.15 1445.24,1189.16 1446.81,1189.17 1448.38,1189.18 1449.95,1189.19 
  1451.52,1189.2 1453.09,1189.21 1454.66,1189.22 1456.24,1189.24 1457.81,1189.25 1459.38,1189.26 1460.95,1189.28 1462.52,1189.29 1464.09,1189.31 1465.66,1189.33 
  1467.24,1189.34 1468.81,1189.15 1470.38,1189.15 1471.95,1189.15 1473.52,1189.15 1475.09,1189.16 1476.66,1189.16 1478.24,1189.16 1479.81,1189.16 1481.38,1189.17 
  1482.95,1189.17 1484.52,1189.17 1486.09,1189.18 1487.67,1189.18 1489.24,1189.18 1490.81,1189.19 1492.38,1189.19 1493.95,1189.19 1495.52,1189.2 1497.09,1189.2 
  1498.67,1189.2 1500.24,1189.21 1501.81,1189.21 1503.38,1189.22 1504.95,1189.22 1506.52,1189.22 1508.09,1189.23 1509.67,1189.23 1511.24,1189.24 1512.81,1189.24 
  1514.38,1189.24 1515.95,1189.25 1517.52,1189.25 1519.09,1189.26 1520.67,1189.26 1522.24,1189.27 1523.81,1189.27 1525.38,1189.28 1526.95,1189.28 1528.52,1189.29 
  1530.1,1189.29 1531.67,1189.3 1533.24,1189.3 1534.81,1189.31 1536.38,1189.31 1537.95,1189.32 1539.52,1189.32 1541.1,1189.33 1542.67,1189.34 1544.24,1189.34 
  1545.81,1189.35 1547.38,1189.35 1548.95,1189.36 1550.52,1189.37 1552.1,1189.37 1553.67,1189.38 1555.24,1189.39 1556.81,1189.4 1558.38,1189.4 1559.95,1189.41 
  1561.52,1189.42 1563.1,1190.57 1564.67,1190.72 1566.24,1190.78 1567.81,1190.84 1569.38,1190.89 1570.95,1190.95 1572.52,1191.01 1574.1,1191.07 1575.67,1191.13 
  1577.24,1191.2 1578.81,1191.27 1580.38,1191.34 1581.95,1191.42 1583.53,1191.5 1585.1,1191.58 1586.67,1191.66 1588.24,1191.75 1589.81,1191.84 1591.38,1191.94 
  1592.95,1192.04 1594.53,1192.15 1596.1,1192.26 1597.67,1192.37 1599.24,1192.49 1600.81,1192.62 1602.38,1192.75 1603.95,1192.89 1605.53,1193.04 1607.1,1193.2 
  1608.67,1193.36 1610.24,1193.53 1611.81,1193.71 1613.38,1193.9 1614.95,1194.09 1616.53,1194.3 1618.1,1194.52 1619.67,1194.76 1621.24,1195 1622.81,1195.26 
  1624.38,1195.54 1625.95,1195.83 1627.53,1196.14 1629.1,1196.47 1630.67,1196.81 1632.24,1197.18 1633.81,1197.57 1635.38,1197.99 1636.96,1198.43 1638.53,1198.9 
  1640.1,1199.4 1641.67,1199.93 1643.24,1200.5 1644.81,1201.11 1646.38,1201.76 1647.96,1202.46 1649.53,1203.2 1651.1,1203.99 1652.67,1204.85 1654.24,1205.76 
  1655.81,1206.74 1657.38,1205.13 1658.96,1204.55 1660.53,1204.4 1662.1,1204.48 1663.67,1204.72 1665.24,1205.07 1666.81,1205.5 1668.38,1206 1669.96,1206.55 
  1671.53,1207.16 1673.1,1207.81 1674.67,1208.51 1676.24,1209.26 1677.81,1210.04 1679.39,1210.87 1680.96,1211.75 1682.53,1212.67 1684.1,1213.63 1685.67,1214.65 
  1687.24,1215.71 1688.81,1216.81 1690.39,1217.97 1691.96,1219.17 1693.53,1220.42 1695.1,1221.72 1696.67,1223.07 1698.24,1224.45 1699.81,1225.88 1701.39,1227.33 
  1702.96,1228.82 1704.53,1230.33 1706.1,1231.84 1707.67,1233.35 1709.24,1234.85 1710.81,1236.31 1712.39,1237.73 1713.96,1239.07 1715.53,1240.33 1717.1,1241.47 
  1718.67,1242.48 1720.24,1243.33 1721.81,1244 1723.39,1244.47 1724.96,1244.73 1726.53,1244.75 1728.1,1244.54 1729.67,1244.08 1731.24,1243.37 1732.82,1242.43 
  1734.39,1241.26 1735.96,1239.88 1737.53,1238.31 1739.1,1236.56 1740.67,1234.67 1742.24,1232.66 1743.82,1230.56 1745.39,1228.39 1746.96,1226.18 1748.53,1223.94 
  1750.1,1221.71 1751.67,1219.08 1753.24,1216.92 1754.82,1215.06 1756.39,1213.41 1757.96,1211.93 1759.53,1210.59 1761.1,1209.38 1762.67,1208.26 1764.24,1207.23 
  1765.82,1206.28 1767.39,1205.39 1768.96,1204.56 1770.53,1203.78 1772.1,1203.05 1773.67,1202.37 1775.25,1201.72 1776.82,1201.1 1778.39,1200.52 1779.96,1199.96 
  1781.53,1199.43 1783.1,1198.93 1784.67,1198.44 1786.25,1197.98 1787.82,1197.53 1789.39,1197.11 1790.96,1196.7 1792.53,1196.3 1794.1,1195.92 1795.67,1195.55 
  1797.25,1195.19 1798.82,1194.85 1800.39,1194.51 1801.96,1194.19 1803.53,1193.88 1805.1,1193.57 1806.67,1193.27 1808.25,1192.98 1809.82,1192.7 1811.39,1192.42 
  1812.96,1192.15 1814.53,1191.89 1816.1,1191.63 1817.67,1191.38 1819.25,1191.14 1820.82,1190.89 1822.39,1190.66 1823.96,1190.42 1825.53,1190.2 1827.1,1189.97 
  1828.68,1189.75 1830.25,1189.53 1831.82,1189.32 1833.39,1189.11 1834.96,1188.9 1836.53,1188.69 1838.1,1188.49 1839.68,1188.29 1841.25,1188.09 1842.82,1187.89 
  1844.39,1187.69 1845.96,1188.85 1847.53,1189.83 1849.1,1190.69 1850.68,1191.42 1852.25,1192.05 1853.82,1192.58 1855.39,1193.02 1856.96,1193.38 1858.53,1193.67 
  1860.1,1193.89 1861.68,1194.05 1863.25,1194.16 1864.82,1194.22 1866.39,1194.24 1867.96,1194.22 1869.53,1194.16 1871.1,1194.08 1872.68,1193.98 1874.25,1193.86 
  1875.82,1193.71 1877.39,1193.56 1878.96,1193.39 1880.53,1193.21 1882.11,1193.03 1883.68,1192.84 1885.25,1192.66 1886.82,1192.47 1888.39,1192.28 1889.96,1192.09 
  1891.53,1191.9 1893.11,1191.72 1894.68,1191.55 1896.25,1191.38 1897.82,1191.21 1899.39,1191.06 1900.96,1190.9 1902.53,1190.76 1904.11,1190.62 1905.68,1190.49 
  1907.25,1190.37 1908.82,1190.25 1910.39,1190.14 1911.96,1190.04 1913.53,1189.94 1915.11,1189.85 1916.68,1189.77 1918.25,1189.69 1919.82,1189.62 1921.39,1189.56 
  1922.96,1189.49 1924.54,1189.44 1926.11,1189.39 1927.68,1189.34 1929.25,1189.3 1930.82,1189.26 1932.39,1189.22 1933.96,1189.19 1935.54,1189.16 1937.11,1189.13 
  1938.68,1189.11 1940.25,1189.09 1941.82,1189.07 1943.39,1189.05 1944.96,1189.03 1946.54,1189.02 1948.11,1189.01 1949.68,1189 1951.25,1188.99 1952.82,1188.98 
  1954.39,1188.97 1955.96,1188.96 1957.54,1188.95 1959.11,1188.95 1960.68,1188.94 1962.25,1188.94 1963.82,1188.94 1965.39,1188.93 1966.96,1188.93 1968.54,1188.93 
  1970.11,1188.93 1971.68,1188.93 1973.25,1188.92 1974.82,1188.92 1976.39,1188.92 1977.97,1188.92 1979.54,1188.92 1981.11,1188.92 1982.68,1188.92 1984.25,1188.92 
  1985.82,1188.92 1987.39,1188.92 1988.97,1188.92 1990.54,1188.92 1992.11,1188.92 1993.68,1188.92 1995.25,1188.92 1996.82,1188.92 1998.39,1188.92 1999.97,1188.92 
  2001.54,1188.92 2003.11,1188.92 2004.68,1188.92 2006.25,1188.92 2007.82,1188.92 2009.39,1188.92 2010.97,1188.92 2012.54,1188.92 2014.11,1188.92 2015.68,1188.92 
  2017.25,1188.92 2018.82,1188.92 2020.39,1188.92 2021.97,1188.92 2023.54,1188.92 2025.11,1188.92 2026.68,1188.92 2028.25,1188.92 2029.82,1188.92 2031.4,1188.92 
  2032.97,1188.92 2034.54,1188.92 2036.11,1188.92 2037.68,1188.92 2039.25,1188.92 2040.82,1188.92 2042.4,1188.92 2043.97,1188.92 2045.54,1188.92 2047.11,1188.92 
  2048.68,1188.92 2050.25,1188.92 2051.82,1188.92 2053.4,1188.92 2054.97,1188.92 2056.54,1188.92 2058.11,1188.92 2059.68,1188.92 2061.25,1188.92 2062.82,1188.92 
  2064.4,1188.92 2065.97,1188.92 2067.54,1188.92 2069.11,1188.92 2070.68,1188.92 2072.25,1188.92 2073.83,1188.92 2075.4,1188.92 2076.97,1188.92 2078.54,1188.92 
  2080.11,1188.92 2081.68,1188.92 2083.25,1188.92 2084.83,1188.92 2086.4,1188.92 2087.97,1188.92 2089.54,1188.92 2091.11,1188.92 2092.68,1188.92 2094.25,1188.92 
  2095.83,1188.92 2097.4,1188.92 2098.97,1188.92 2100.54,1188.92 2102.11,1188.92 2103.68,1188.92 2105.25,1188.92 2106.83,1188.92 2108.4,1188.92 2109.97,1188.92 
  2111.54,1188.92 2113.11,1188.92 2114.68,1188.92 2116.25,1188.92 2117.83,1188.92 2119.4,1188.92 2120.97,1188.92 2122.54,1188.92 2124.11,1188.92 2125.68,1188.92 
  2127.26,1188.92 2128.83,1188.92 2130.4,1188.92 2131.97,1188.92 2133.54,1188.92 2135.11,1188.92 2136.68,1188.92 2138.26,1188.92 2139.83,1188.92 2141.4,1188.92 
  2142.97,1188.92 2144.54,1188.92 2146.11,1188.92 2147.68,1188.92 2149.26,1188.92 2150.83,1188.92 2152.4,1188.92 2153.97,1188.92 2155.54,1188.92 2157.11,1188.92 
  2158.68,1188.92 2160.26,1188.92 2161.83,1188.92 2163.4,1188.92 2164.97,1188.92 2166.54,1188.92 2168.11,1188.92 2169.68,1188.92 2171.26,1188.92 2172.83,1188.92 
  2174.4,1188.92 2175.97,1188.92 2177.54,1188.92 2179.11,1188.92 2180.69,1188.92 2182.26,1188.92 2183.83,1188.92 2185.4,1188.92 2186.97,1188.92 2188.54,1188.92 
  2190.11,1188.92 2191.69,1188.92 2193.26,1188.92 2194.83,1188.92 2196.4,1188.92 2197.97,1188.92 2199.54,1188.92 2201.11,1188.92 2202.69,1188.92 2204.26,1188.92 
  2205.83,1188.92 2207.4,1188.92 2208.97,1188.92 2210.54,1188.92 2212.11,1188.92 2213.69,1188.92 2215.26,1188.92 2216.83,1188.92 2218.4,1188.92 2219.97,1188.92 
  2221.54,1188.92 2223.12,1188.92 2224.69,1188.92 2226.26,1188.92 2227.83,1188.92 2229.4,1188.92 2230.97,1188.92 2232.54,1188.92 2234.12,1188.92 2235.69,1188.92 
  2237.26,1188.92 2238.83,1188.92 2240.4,1188.92 2241.97,1188.92 2243.54,1188.92 2245.12,1188.92 2246.69,1188.92 2248.26,1188.92 2249.83,1188.92 2251.4,1188.92 
  2252.97,1188.92 2254.54,1188.92 2256.12,1188.92 2257.69,1188.92 2259.26,1188.92 2260.83,1188.92 2262.4,1188.92 2263.97,1188.92 2265.54,1188.92 2267.12,1188.92 
  2268.69,1188.92 2270.26,1188.92 2271.83,1188.92 2273.4,1188.92 2274.97,1188.92 2276.55,1188.92 2278.12,1188.92 2279.69,1188.92 2281.26,1188.92 2282.83,1188.92 
  2284.4,1188.92 2285.97,1188.92 2287.55,1188.92 2289.12,1188.92 2290.69,1188.92 2292.26,1188.92 2293.83,1188.92 2295.4,1188.92 2296.97,1188.92 2298.55,1188.92 
  2300.12,1188.92 2301.69,1188.92 2303.26,1188.92 2304.83,1188.92 2306.4,1188.92 2307.97,1188.92 2309.55,1188.92 2311.12,1188.92 2312.69,1188.92 2314.26,1188.92 
  2315.83,1188.92 2317.4,1188.92 2318.98,1188.92 2320.55,1188.92 2322.12,1188.92 2323.69,1188.92 2325.26,1188.92 2326.83,1188.92 2328.4,1188.92 2329.98,1188.92 
  2331.55,1188.92 2333.12,1188.92 2334.69,1188.92 2336.26,1188.92 2337.83,1188.92 2339.4,1188.92 2340.98,1188.92 2342.55,1188.92 2344.12,1188.92 2345.69,1188.92 
  2347.26,1188.92 2348.83,1188.92 2350.4,1188.92 2351.98,1188.92 2353.55,1188.92 2355.12,1188.92 2356.69,1188.92 2358.26,1188.92 2359.83,1188.92 2361.4,1188.92 
  2362.98,1188.92 2364.55,1188.92 2366.12,1188.92 2367.69,1188.92 2369.26,1188.92 2370.83,1188.92 2372.41,1188.92 2373.98,1188.92 2375.55,1188.92 2377.12,1188.92 
  2378.69,1188.92 2380.26,1188.92 2381.83,1188.92 2383.41,1188.92 2384.98,1188.92 2386.55,1188.92 2388.12,1188.92 2389.69,1188.92 2391.26,1188.92 2392.83,1188.92 
  2394.41,1188.92 2395.98,1188.92 2397.55,1188.92 2399.12,1188.92 2400.69,1188.92 2402.26,1188.92 2403.83,1188.92 2405.41,1188.92 2406.98,1188.92 2408.55,1188.92 
  2410.12,1188.92 2411.69,1188.92 2413.26,1188.92 2414.83,1188.92 2416.41,1188.92 2417.98,1188.92 2419.55,1188.92 2421.12,1188.92 2422.69,1188.92 2424.26,1188.92 
  2425.84,1188.92 2427.41,1188.92 2428.98,1188.92 2430.55,1188.92 2432.12,1188.92 2433.69,1188.92 2435.26,1188.92 2436.84,1188.92 2438.41,1188.92 2439.98,1188.92 
  2441.55,1188.92 2443.12,1188.92 2444.69,1188.92 2446.26,1188.92 2447.84,1188.92 2449.41,1188.92 2450.98,1188.92 2452.55,1188.92 2454.12,1188.92 2455.69,1188.92 
  2457.26,1188.92 2458.84,1188.92 2460.41,1188.92 2461.98,1188.92 2463.55,1188.92 2465.12,1188.92 2466.69,1188.92 2468.27,1188.92 2469.84,1188.92 2471.41,1188.92 
  2472.98,1188.92 2474.55,1188.92 2476.12,1188.92 2477.69,1188.92 2479.27,1188.92 2480.84,1188.92 2482.41,1188.92 2483.98,1188.92 2485.55,1188.92 2487.12,1188.92 
  2488.69,1188.92 2490.27,1188.92 2491.84,1188.92 2493.41,1188.92 2494.98,1188.92 2496.55,1188.92 2498.12,1188.92 2499.69,1188.92 2501.27,1188.92 2502.84,1188.92 
  2504.41,1188.92 2505.98,1188.92 2507.55,1188.92 2509.12,1188.92 2510.69,1188.92 2512.27,1188.92 2513.84,1188.92 2515.41,1188.92 2516.98,1188.92 2518.55,1188.92 
  2520.12,1188.92 2521.7,1188.92 2523.27,1188.92 2524.84,1188.92 2526.41,1188.92 2527.98,1188.92 2529.55,1188.92 2531.12,1188.92 2532.7,1188.92 2534.27,1188.92 
  2535.84,1188.92 2537.41,1188.92 2538.98,1188.92 2540.55,1188.92 2542.12,1188.92 2543.7,1188.92 2545.27,1188.92 2546.84,1188.92 2548.41,1188.92 2549.98,1188.92 
  2551.55,1188.92 2553.12,1188.92 2554.7,1188.92 2556.27,1188.92 2557.84,1188.92 2559.41,1188.92 2560.98,1188.92 2562.55,1188.92 2564.12,1188.92 2565.7,1188.92 
  2567.27,1188.92 2568.84,1188.92 2570.41,1188.92 2571.98,1188.92 2573.55,1188.92 2575.13,1188.92 2576.7,1188.92 2578.27,1188.92 2579.84,1188.92 2581.41,1188.92 
  2582.98,1188.92 2584.55,1188.92 2586.13,1188.92 2587.7,1188.92 2589.27,1188.92 2590.84,1188.92 2592.41,1188.92 2593.98,1188.92 2595.55,1188.92 2597.13,1188.92 
  2598.7,1188.92 2600.27,1188.92 2601.84,1188.92 2603.41,1188.92 2604.98,1188.92 2606.55,1188.92 2608.13,1188.92 2609.7,1188.92 2611.27,1188.92 2612.84,1188.92 
  2614.41,1188.92 2615.98,1188.92 2617.56,1188.92 2619.13,1188.92 2620.7,1188.92 2622.27,1188.92 2623.84,1188.92 2625.41,1188.92 2626.98,1188.92 2628.56,1188.92 
  2630.13,1188.92 2631.7,1188.92 2633.27,1188.92 2634.84,1188.92 2636.41,1188.92 2637.98,1188.92 2639.56,1188.92 2641.13,1188.92 2642.7,1188.92 2644.27,1188.92 
  2645.84,1188.92 2647.41,1188.92 2648.98,1188.92 2650.56,1188.92 2652.13,1188.92 2653.7,1188.92 2655.27,1188.92 2656.84,1188.92 2658.41,1188.92 2659.98,1188.92 
  2661.56,1188.92 2663.13,1188.92 2664.7,1188.92 2666.27,1188.92 2667.84,1188.92 2669.41,1188.92 2670.99,1188.92 2672.56,1188.92 2674.13,1188.92 2675.7,1188.92 
  2677.27,1188.92 2678.84,1188.92 2680.41,1188.92 2681.99,1188.92 2683.56,1188.92 2685.13,1188.92 2686.7,1188.92 2688.27,1188.92 2689.84,1188.92 2691.41,1188.92 
  2692.99,1188.92 2694.56,1188.92 2696.13,1188.92 2697.7,1188.92 2699.27,1188.92 2700.84,1188.92 2702.41,1188.92 2703.99,1188.92 2705.56,1188.92 2707.13,1188.92 
  2708.7,1188.92 2710.27,1188.92 2711.84,1188.92 2713.41,1188.92 2714.99,1188.92 2716.56,1188.92 2718.13,1188.92 2719.7,1188.92 2721.27,1188.92 2722.84,1188.92 
  2724.42,1188.92 2725.99,1188.92 2727.56,1188.92 2729.13,1188.92 2730.7,1188.92 2732.27,1188.92 2733.84,1188.92 2735.42,1188.92 2736.99,1188.92 2738.56,1188.92 
  2740.13,1188.92 2741.7,1188.92 2743.27,1188.92 2744.84,1188.92 2746.42,1188.92 2747.99,1188.92 2749.56,1188.92 2751.13,1188.92 2752.7,1188.92 2754.27,1188.92 
  2755.84,1188.92 2757.42,1188.92 2758.99,1188.92 2760.56,1188.92 2762.13,1188.92 2763.7,1188.92 2765.27,1188.92 2766.85,1188.92 2768.42,1188.92 2769.99,1188.92 
  2771.56,1188.92 2773.13,1188.92 2774.7,1188.92 2776.27,1188.92 2777.85,1188.92 2779.42,1188.92 2780.99,1188.92 2782.56,1188.92 2784.13,1188.92 2785.7,1188.92 
  
  "/>
</svg>
