<?xml version="1.0" encoding="utf-8"?>
<svg xmlns="http://www.w3.org/2000/svg" xmlns:xlink="http://www.w3.org/1999/xlink" width="800" height="400" viewBox="0 0 3200 1600">
<defs>
  <clipPath id="clip7400">
    <rect x="0" y="0" width="3200" height="1600"/>
  </clipPath>
</defs>
<polygon clip-path="url(#clip7400)" points="
0,1600 3200,1600 3200,0 0,0 
  " fill="#ffffff" fill-rule="evenodd" fill-opacity="1"/>
<defs>
  <clipPath id="clip7401">
    <rect x="640" y="0" width="2241" height="1600"/>
  </clipPath>
</defs>
<polygon clip-path="url(#clip7400)" points="
600.755,1275.5 2853.54,1275.5 2853.54,188.976 600.755,188.976 
  " fill="#ffffff" fill-rule="evenodd" fill-opacity="1"/>
<defs>
  <clipPath id="clip7402">
    <rect x="600" y="188" width="2254" height="1088"/>
  </clipPath>
</defs>
<polyline clip-path="url(#clip7402)" style="stroke:#000000; stroke-width:2; stroke-opacity:0.1; fill:none" points="
  663.036,1275.5 663.036,188.976 
  "/>
<polyline clip-path="url(#clip7402)" style="stroke:#000000; stroke-width:2; stroke-opacity:0.1; fill:none" points="
  1017.49,1275.5 1017.49,188.976 
  "/>
<polyline clip-path="url(#clip7402)" style="stroke:#000000; stroke-width:2; stroke-opacity:0.1; fill:none" points="
  1371.95,1275.5 1371.95,188.976 
  "/>
<polyline clip-path="url(#clip7402)" style="stroke:#000000; stroke-width:2; stroke-opacity:0.1; fill:none" points="
  1726.41,1275.5 1726.41,188.976 
  "/>
<polyline clip-path="url(#clip7402)" style="stroke:#000000; stroke-width:2; stroke-opacity:0.1; fill:none" points="
  2080.87,1275.5 2080.87,188.976 
  "/>
<polyline clip-path="url(#clip7402)" style="stroke:#000000; stroke-width:2; stroke-opacity:0.1; fill:none" points="
  2435.33,1275.5 2435.33,188.976 
  "/>
<polyline clip-path="url(#clip7402)" style="stroke:#000000; stroke-width:2; stroke-opacity:0.1; fill:none" points="
  2789.79,1275.5 2789.79,188.976 
  "/>
<polyline clip-path="url(#clip7402)" style="stroke:#000000; stroke-width:2; stroke-opacity:0.1; fill:none" points="
  600.755,1244.75 2853.54,1244.75 
  "/>
<polyline clip-path="url(#clip7402)" style="stroke:#000000; stroke-width:2; stroke-opacity:0.1; fill:none" points="
  600.755,988.441 2853.54,988.441 
  "/>
<polyline clip-path="url(#clip7402)" style="stroke:#000000; stroke-width:2; stroke-opacity:0.1; fill:none" points="
  600.755,732.129 2853.54,732.129 
  "/>
<polyline clip-path="url(#clip7402)" style="stroke:#000000; stroke-width:2; stroke-opacity:0.1; fill:none" points="
  600.755,475.818 2853.54,475.818 
  "/>
<polyline clip-path="url(#clip7402)" style="stroke:#000000; stroke-width:2; stroke-opacity:0.1; fill:none" points="
  600.755,219.506 2853.54,219.506 
  "/>
<polyline clip-path="url(#clip7400)" style="stroke:#000000; stroke-width:4; stroke-opacity:1; fill:none" points="
  600.755,1275.5 2853.54,1275.5 
  "/>
<polyline clip-path="url(#clip7400)" style="stroke:#000000; stroke-width:4; stroke-opacity:1; fill:none" points="
  600.755,1275.5 600.755,188.976 
  "/>
<polyline clip-path="url(#clip7400)" style="stroke:#000000; stroke-width:4; stroke-opacity:1; fill:none" points="
  663.036,1275.5 663.036,1259.21 
  "/>
<polyline clip-path="url(#clip7400)" style="stroke:#000000; stroke-width:4; stroke-opacity:1; fill:none" points="
  1017.49,1275.5 1017.49,1259.21 
  "/>
<polyline clip-path="url(#clip7400)" style="stroke:#000000; stroke-width:4; stroke-opacity:1; fill:none" points="
  1371.95,1275.5 1371.95,1259.21 
  "/>
<polyline clip-path="url(#clip7400)" style="stroke:#000000; stroke-width:4; stroke-opacity:1; fill:none" points="
  1726.41,1275.5 1726.41,1259.21 
  "/>
<polyline clip-path="url(#clip7400)" style="stroke:#000000; stroke-width:4; stroke-opacity:1; fill:none" points="
  2080.87,1275.5 2080.87,1259.21 
  "/>
<polyline clip-path="url(#clip7400)" style="stroke:#000000; stroke-width:4; stroke-opacity:1; fill:none" points="
  2435.33,1275.5 2435.33,1259.21 
  "/>
<polyline clip-path="url(#clip7400)" style="stroke:#000000; stroke-width:4; stroke-opacity:1; fill:none" points="
  2789.79,1275.5 2789.79,1259.21 
  "/>
<polyline clip-path="url(#clip7400)" style="stroke:#000000; stroke-width:4; stroke-opacity:1; fill:none" points="
  600.755,1244.75 634.547,1244.75 
  "/>
<polyline clip-path="url(#clip7400)" style="stroke:#000000; stroke-width:4; stroke-opacity:1; fill:none" points="
  600.755,988.441 634.547,988.441 
  "/>
<polyline clip-path="url(#clip7400)" style="stroke:#000000; stroke-width:4; stroke-opacity:1; fill:none" points="
  600.755,732.129 634.547,732.129 
  "/>
<polyline clip-path="url(#clip7400)" style="stroke:#000000; stroke-width:4; stroke-opacity:1; fill:none" points="
  600.755,475.818 634.547,475.818 
  "/>
<polyline clip-path="url(#clip7400)" style="stroke:#000000; stroke-width:4; stroke-opacity:1; fill:none" points="
  600.755,219.506 634.547,219.506 
  "/>
<g clip-path="url(#clip7400)">
<text style="fill:#000000; fill-opacity:1; font-family:Arial,Helvetica Neue,Helvetica,sans-serif; font-size:71px; text-anchor:middle;" transform="rotate(0, 663.036, 1353.9)" x="663.036" y="1353.9">0</text>
</g>
<g clip-path="url(#clip7400)">
<text style="fill:#000000; fill-opacity:1; font-family:Arial,Helvetica Neue,Helvetica,sans-serif; font-size:71px; text-anchor:middle;" transform="rotate(0, 1017.49, 1353.9)" x="1017.49" y="1353.9">4</text>
</g>
<g clip-path="url(#clip7400)">
<text style="fill:#000000; fill-opacity:1; font-family:Arial,Helvetica Neue,Helvetica,sans-serif; font-size:71px; text-anchor:middle;" transform="rotate(0, 1371.95, 1353.9)" x="1371.95" y="1353.9">8</text>
</g>
<g clip-path="url(#clip7400)">
<text style="fill:#000000; fill-opacity:1; font-family:Arial,Helvetica Neue,Helvetica,sans-serif; font-size:71px; text-anchor:middle;" transform="rotate(0, 1726.41, 1353.9)" x="1726.41" y="1353.9">12</text>
</g>
<g clip-path="url(#clip7400)">
<text style="fill:#000000; fill-opacity:1; font-family:Arial,Helvetica Neue,Helvetica,sans-serif; font-size:71px; text-anchor:middle;" transform="rotate(0, 2080.87, 1353.9)" x="2080.87" y="1353.9">16</text>
</g>
<g clip-path="url(#clip7400)">
<text style="fill:#000000; fill-opacity:1; font-family:Arial,Helvetica Neue,Helvetica,sans-serif; font-size:71px; text-anchor:middle;" transform="rotate(0, 2435.33, 1353.9)" x="2435.33" y="1353.9">20</text>
</g>
<g clip-path="url(#clip7400)">
<text style="fill:#000000; fill-opacity:1; font-family:Arial,Helvetica Neue,Helvetica,sans-serif; font-size:71px; text-anchor:middle;" transform="rotate(0, 2789.79, 1353.9)" x="2789.79" y="1353.9">24</text>
</g>
<g clip-path="url(#clip7400)">
<text style="fill:#000000; fill-opacity:1; font-family:Arial,Helvetica Neue,Helvetica,sans-serif; font-size:71px; text-anchor:end;" transform="rotate(0, 568.755, 1270.75)" x="568.755" y="1270.75">0.00</text>
</g>
<g clip-path="url(#clip7400)">
<text style="fill:#000000; fill-opacity:1; font-family:Arial,Helvetica Neue,Helvetica,sans-serif; font-size:71px; text-anchor:end;" transform="rotate(0, 568.755, 1014.44)" x="568.755" y="1014.44">0.25</text>
</g>
<g clip-path="url(#clip7400)">
<text style="fill:#000000; fill-opacity:1; font-family:Arial,Helvetica Neue,Helvetica,sans-serif; font-size:71px; text-anchor:end;" transform="rotate(0, 568.755, 758.129)" x="568.755" y="758.129">0.50</text>
</g>
<g clip-path="url(#clip7400)">
<text style="fill:#000000; fill-opacity:1; font-family:Arial,Helvetica Neue,Helvetica,sans-serif; font-size:71px; text-anchor:end;" transform="rotate(0, 568.755, 501.818)" x="568.755" y="501.818">0.75</text>
</g>
<g clip-path="url(#clip7400)">
<text style="fill:#000000; fill-opacity:1; font-family:Arial,Helvetica Neue,Helvetica,sans-serif; font-size:71px; text-anchor:end;" transform="rotate(0, 568.755, 245.506)" x="568.755" y="245.506">1.00</text>
</g>
<g clip-path="url(#clip7400)">
<text style="fill:#000000; fill-opacity:1; font-family:Arial,Helvetica Neue,Helvetica,sans-serif; font-size:95px; text-anchor:middle;" transform="rotate(0, 1727.15, 1469.75)" x="1727.15" y="1469.75">Time (hours)</text>
</g>
<g clip-path="url(#clip7400)">
<text style="fill:#000000; fill-opacity:1; font-family:Arial,Helvetica Neue,Helvetica,sans-serif; font-size:95px; text-anchor:middle;" transform="rotate(-90, 378.453, 732.24)" x="378.453" y="732.24">TV Error</text>
</g>
<polyline clip-path="url(#clip7402)" style="stroke:#009af9; stroke-width:4; stroke-opacity:1; fill:none" points="
  664.513,1244.75 665.99,1244.15 667.467,1243.84 668.944,1243.65 670.421,1243.53 671.897,1243.44 673.374,1243.38 674.851,1243.33 676.328,1243.28 677.805,1243.24 
  679.282,1243.21 680.759,1243.18 682.236,1243.15 683.713,1243.12 685.19,1243.09 686.667,1243.06 688.143,1243.03 689.62,1243 691.097,1242.97 692.574,1242.94 
  694.051,1242.91 695.528,1242.88 697.005,1242.85 698.482,1242.82 699.959,1242.78 701.436,1242.75 702.913,1242.71 704.389,1242.68 705.866,1242.64 707.343,1242.6 
  708.82,1242.57 710.297,1242.53 711.774,1242.49 713.251,1242.45 714.728,1242.4 716.205,1242.36 717.682,1242.32 719.159,1242.27 720.635,1242.23 722.112,1242.18 
  723.589,1242.13 725.066,1242.08 726.543,1242.03 728.02,1241.98 729.497,1241.92 730.974,1241.87 732.451,1241.81 733.928,1241.75 735.405,1241.69 736.881,1241.63 
  738.358,1241.57 739.835,1241.5 741.312,1241.43 742.789,1241.37 744.266,1241.3 745.743,1241.22 747.22,1241.15 748.697,1241.07 750.174,1240.99 751.651,1240.91 
  753.127,1240.83 754.604,1243.42 756.081,1244.23 757.558,1243.52 759.035,1242.91 760.512,1242.45 761.989,1242.09 763.466,1241.8 764.943,1241.56 766.42,1241.34 
  767.897,1241.14 769.373,1240.95 770.85,1240.76 772.327,1240.58 773.804,1240.39 775.281,1240.2 776.758,1240.01 778.235,1239.8 779.712,1239.59 781.189,1239.37 
  782.666,1239.14 784.143,1238.9 785.619,1238.64 787.096,1238.37 788.573,1238.09 790.05,1237.79 791.527,1237.47 793.004,1237.13 794.481,1236.78 795.958,1236.4 
  797.435,1236 798.912,1235.57 800.389,1235.12 801.865,1234.64 803.342,1234.13 804.819,1233.58 806.296,1233 807.773,1232.38 809.25,1231.71 810.727,1231 
  812.204,1230.24 813.681,1229.42 815.158,1228.42 816.635,1227.33 818.111,1226.15 819.588,1224.86 821.065,1223.46 822.542,1221.94 824.019,1220.28 825.496,1218.47 
  826.973,1216.49 828.45,1214.32 829.927,1211.95 831.404,1209.35 832.881,1206.48 834.357,1203.33 835.834,1199.85 837.311,1196.01 838.788,1191.76 840.265,1187.05 
  841.742,1181.81 843.219,1185.98 844.696,1189.54 846.173,1192.55 847.65,1195.1 849.127,1197.27 850.603,1199.1 852.08,1200.66 853.557,1201.97 855.034,1203.08 
  856.511,1204 857.988,1204.76 859.465,1205.37 860.942,1205.85 862.419,1206.21 863.896,1206.46 865.373,1206.61 866.849,1206.66 868.326,1206.63 869.803,1206.52 
  871.28,1206.33 872.757,1206.07 874.234,1205.73 875.711,1205.32 877.188,1204.85 878.665,1204.31 880.142,1203.71 881.619,1203.04 883.095,1202.31 884.572,1201.51 
  886.049,1200.65 887.526,1199.62 889.003,1198.51 890.48,1197.33 891.957,1196.08 893.434,1194.74 894.911,1193.33 896.388,1191.82 897.865,1190.23 899.341,1188.55 
  900.818,1186.77 902.295,1184.89 903.772,1182.91 905.249,1180.81 906.726,1178.6 908.203,1176.27 909.68,1173.81 911.157,1171.22 912.634,1168.48 914.111,1165.59 
  915.587,1162.55 917.064,1159.33 918.541,1155.94 920.018,1152.36 921.495,1148.58 922.972,1144.58 924.449,1140.36 925.926,1135.9 927.403,1131.18 928.88,1126.18 
  930.357,1120.9 931.833,1103.1 933.31,1085.13 934.787,1067 936.264,1048.71 937.741,1030.25 939.218,1009.55 940.695,987.802 942.172,965.394 943.649,942.331 
  945.126,918.63 946.603,894.321 948.079,869.455 949.556,840.784 951.033,810.203 952.51,778.913 953.987,747.176 955.464,714.184 956.941,677.169 958.418,640.618 
  959.895,605.199 961.372,566.955 962.849,530.331 964.325,496.334 965.802,461.611 967.279,431.007 968.756,402.208 970.233,376.471 971.71,354.089 973.187,333.825 
  974.664,317.277 976.141,302.051 977.618,289.989 979.095,279.179 980.571,270.464 982.048,263.061 983.525,256.794 985.002,251.823 986.479,247.282 987.956,243.799 
  989.433,240.666 990.91,238.088 992.387,236.052 993.864,234.092 995.341,232.599 996.817,231.289 998.294,230.105 999.771,229.218 1001.25,228.353 1002.73,227.611 
  1004.2,227.068 1005.68,226.492 1007.16,226.008 1008.63,225.665 1010.11,225.291 1011.59,224.96 1013.06,224.735 1014.54,224.515 1016.02,224.277 1017.49,224.122 
  1018.97,224.031 1020.45,221.102 1021.92,220.271 1023.4,219.976 1024.88,219.841 1026.36,219.77 1027.83,219.736 1029.31,219.727 1030.79,219.732 1032.26,219.741 
  1033.74,219.783 1035.22,219.812 1036.69,219.896 1038.17,219.966 1039.65,220.123 1041.12,220.277 1042.6,220.559 1044.08,220.917 1045.56,221.427 1047.03,222.304 
  1048.51,223.226 1049.99,224.799 1051.46,227.15 1052.94,229.914 1054.42,234.291 1055.89,240.946 1057.37,248.385 1058.85,259.187 1060.32,274.538 1061.8,295.59 
  1063.28,318.989 1064.76,349.151 1066.23,387.467 1067.71,434.395 1069.19,489.827 1070.66,552.974 1072.14,618.162 1073.62,686.264 1075.09,757.312 1076.57,828.756 
  1078.05,898.02 1079.52,962.785 1081,1021.21 1082.48,1072.08 1083.96,1114.86 1085.43,1149.61 1086.91,1176.89 1088.39,1197.61 1089.86,1212.83 1091.34,1223.67 
  1092.82,1231.13 1094.29,1236.13 1095.77,1239.29 1097.25,1241.23 1098.72,1242.43 1100.2,1243.17 1101.68,1243.6 1103.15,1243.86 1104.63,1244.02 1106.11,1244.11 
  1107.59,1244.17 1109.06,1241.67 1110.54,1241.63 1112.02,1241.93 1113.49,1242.25 1114.97,1242.54 1116.45,1242.79 1117.92,1243.01 1119.4,1243.19 1120.88,1243.35 
  1122.35,1243.48 1123.83,1243.6 1125.31,1243.71 1126.79,1243.8 1128.26,1243.88 1129.74,1243.95 1131.22,1244.02 1132.69,1244.08 1134.17,1244.13 1135.65,1244.17 
  1137.12,1244.22 1138.6,1244.25 1140.08,1244.29 1141.55,1244.32 1143.03,1244.35 1144.51,1244.37 1145.99,1244.4 1147.46,1244.42 1148.94,1244.44 1150.42,1244.46 
  1151.89,1244.48 1153.37,1244.49 1154.85,1244.51 1156.32,1244.52 1157.8,1244.53 1159.28,1244.54 1160.75,1244.55 1162.23,1244.57 1163.71,1244.57 1165.19,1244.58 
  1166.66,1244.59 1168.14,1244.6 1169.62,1244.61 1171.09,1244.61 1172.57,1244.62 1174.05,1244.63 1175.52,1244.63 1177,1244.64 1178.48,1244.64 1179.95,1244.65 
  1181.43,1244.65 1182.91,1244.65 1184.38,1244.66 1185.86,1244.66 1187.34,1244.67 1188.82,1244.67 1190.29,1244.67 1191.77,1244.68 1193.25,1244.68 1194.72,1244.68 
  1196.2,1244.68 1197.68,1244.7 1199.15,1244.7 1200.63,1244.71 1202.11,1244.71 1203.58,1244.71 1205.06,1244.72 1206.54,1244.72 1208.02,1244.72 1209.49,1244.73 
  1210.97,1244.73 1212.45,1244.73 1213.92,1244.73 1215.4,1244.73 1216.88,1244.73 1218.35,1244.74 1219.83,1244.74 1221.31,1244.74 1222.78,1244.74 1224.26,1244.74 
  1225.74,1244.74 1227.22,1244.74 1228.69,1244.74 1230.17,1244.74 1231.65,1244.74 1233.12,1244.74 1234.6,1244.74 1236.08,1244.74 1237.55,1244.74 1239.03,1244.74 
  1240.51,1244.75 1241.98,1244.75 1243.46,1244.75 1244.94,1244.75 1246.42,1244.75 1247.89,1244.75 1249.37,1244.75 1250.85,1244.75 1252.32,1244.75 1253.8,1244.75 
  1255.28,1244.75 1256.75,1244.75 1258.23,1244.75 1259.71,1244.75 1261.18,1244.75 1262.66,1244.75 1264.14,1244.75 1265.61,1244.75 1267.09,1244.75 1268.57,1244.75 
  1270.05,1244.75 1271.52,1244.75 1273,1244.75 1274.48,1244.75 1275.95,1244.75 1277.43,1244.75 1278.91,1244.75 1280.38,1244.75 1281.86,1244.75 1283.34,1244.75 
  1284.81,1244.75 1286.29,1244.73 1287.77,1244.73 1289.25,1244.73 1290.72,1244.74 1292.2,1244.74 1293.68,1244.74 1295.15,1244.74 1296.63,1244.74 1298.11,1244.74 
  1299.58,1244.74 1301.06,1244.74 1302.54,1244.74 1304.01,1244.74 1305.49,1244.74 1306.97,1244.74 1308.45,1244.74 1309.92,1244.74 1311.4,1244.74 1312.88,1244.74 
  1314.35,1244.74 1315.83,1244.74 1317.31,1244.74 1318.78,1244.74 1320.26,1244.74 1321.74,1244.74 1323.21,1244.74 1324.69,1244.74 1326.17,1244.74 1327.65,1244.74 
  1329.12,1244.74 1330.6,1244.74 1332.08,1244.74 1333.55,1244.74 1335.03,1244.74 1336.51,1244.74 1337.98,1244.74 1339.46,1244.74 1340.94,1244.74 1342.41,1244.74 
  1343.89,1244.74 1345.37,1244.74 1346.84,1244.74 1348.32,1244.75 1349.8,1244.75 1351.28,1244.75 1352.75,1244.75 1354.23,1244.75 1355.71,1244.75 1357.18,1244.75 
  1358.66,1244.75 1360.14,1244.75 1361.61,1244.75 1363.09,1244.75 1364.57,1244.75 1366.04,1244.75 1367.52,1244.75 1369,1244.75 1370.48,1244.75 1371.95,1244.75 
  1373.43,1244.75 1374.91,1244.73 1376.38,1244.73 1377.86,1244.73 1379.34,1244.73 1380.81,1244.72 1382.29,1244.72 1383.77,1244.72 1385.24,1244.72 1386.72,1244.72 
  1388.2,1244.72 1389.68,1244.72 1391.15,1244.72 1392.63,1244.71 1394.11,1244.71 1395.58,1244.71 1397.06,1244.71 1398.54,1244.71 1400.01,1244.71 1401.49,1244.7 
  1402.97,1244.7 1404.44,1244.7 1405.92,1244.7 1407.4,1244.69 1408.88,1244.69 1410.35,1244.69 1411.83,1244.68 1413.31,1244.68 1414.78,1244.68 1416.26,1244.67 
  1417.74,1244.67 1419.21,1244.66 1420.69,1244.66 1422.17,1244.65 1423.64,1244.65 1425.12,1244.64 1426.6,1244.64 1428.07,1244.63 1429.55,1244.62 1431.03,1244.61 
  1432.51,1244.6 1433.98,1244.59 1435.46,1244.58 1436.94,1244.57 1438.41,1244.56 1439.89,1244.54 1441.37,1244.53 1442.84,1244.51 1444.32,1244.49 1445.8,1244.47 
  1447.27,1244.45 1448.75,1244.42 1450.23,1244.39 1451.71,1244.36 1453.18,1244.32 1454.66,1244.28 1456.14,1244.23 1457.61,1244.18 1459.09,1244.11 1460.57,1244.04 
  1462.04,1243.96 1463.52,1244.7 1465,1244.7 1466.47,1244.7 1467.95,1244.7 1469.43,1244.7 1470.91,1244.7 1472.38,1244.7 1473.86,1244.69 1475.34,1244.69 
  1476.81,1244.69 1478.29,1244.69 1479.77,1244.69 1481.24,1244.69 1482.72,1244.68 1484.2,1244.68 1485.67,1244.68 1487.15,1244.68 1488.63,1244.68 1490.11,1244.67 
  1491.58,1244.67 1493.06,1244.67 1494.54,1244.67 1496.01,1244.67 1497.49,1244.66 1498.97,1244.66 1500.44,1244.66 1501.92,1244.65 1503.4,1244.65 1504.87,1244.65 
  1506.35,1244.65 1507.83,1244.64 1509.3,1244.64 1510.78,1244.63 1512.26,1244.63 1513.74,1244.63 1515.21,1244.62 1516.69,1244.62 1518.17,1244.61 1519.64,1244.61 
  1521.12,1244.6 1522.6,1244.6 1524.07,1244.59 1525.55,1244.59 1527.03,1244.58 1528.5,1244.58 1529.98,1244.57 1531.46,1244.56 1532.94,1244.56 1534.41,1244.55 
  1535.89,1244.54 1537.37,1244.53 1538.84,1244.52 1540.32,1244.51 1541.8,1244.5 1543.27,1244.49 1544.75,1244.48 1546.23,1244.47 1547.7,1244.46 1549.18,1244.45 
  1550.66,1244.43 1552.14,1244.58 1553.61,1244.58 1555.09,1244.58 1556.57,1244.58 1558.04,1244.57 1559.52,1244.57 1561,1244.57 1562.47,1244.57 1563.95,1244.56 
  1565.43,1244.56 1566.9,1244.56 1568.38,1244.56 1569.86,1244.56 1571.34,1244.55 1572.81,1244.55 1574.29,1244.55 1575.77,1244.55 1577.24,1244.54 1578.72,1244.54 
  1580.2,1244.54 1581.67,1244.53 1583.15,1244.53 1584.63,1244.53 1586.1,1244.53 1587.58,1244.52 1589.06,1244.52 1590.53,1244.52 1592.01,1244.51 1593.49,1244.51 
  1594.97,1244.51 1596.44,1244.5 1597.92,1244.5 1599.4,1244.5 1600.87,1244.49 1602.35,1244.49 1603.83,1244.49 1605.3,1244.48 1606.78,1244.48 1608.26,1244.48 
  1609.73,1244.47 1611.21,1244.47 1612.69,1244.46 1614.17,1244.46 1615.64,1244.46 1617.12,1244.45 1618.6,1244.45 1620.07,1244.44 1621.55,1244.44 1623.03,1244.43 
  1624.5,1244.43 1625.98,1244.43 1627.46,1244.42 1628.93,1244.42 1630.41,1244.41 1631.89,1244.41 1633.37,1244.4 1634.84,1244.4 1636.32,1244.39 1637.8,1244.38 
  1639.27,1244.38 1640.75,1243.52 1642.23,1243.41 1643.7,1243.34 1645.18,1243.29 1646.66,1243.23 1648.13,1243.17 1649.61,1243.11 1651.09,1243.04 1652.57,1242.98 
  1654.04,1242.91 1655.52,1242.83 1657,1242.76 1658.47,1242.68 1659.95,1242.59 1661.43,1242.5 1662.9,1242.41 1664.38,1242.31 1665.86,1242.21 1667.33,1242.1 
  1668.81,1241.99 1670.29,1241.87 1671.76,1241.75 1673.24,1241.62 1674.72,1241.48 1676.2,1241.33 1677.67,1241.18 1679.15,1241.02 1680.63,1240.84 1682.1,1240.66 
  1683.58,1240.47 1685.06,1240.27 1686.53,1240.06 1688.01,1239.83 1689.49,1239.59 1690.96,1239.34 1692.44,1239.07 1693.92,1238.79 1695.4,1238.46 1696.87,1238.08 
  1698.35,1237.67 1699.83,1237.23 1701.3,1236.76 1702.78,1236.26 1704.26,1235.72 1705.73,1235.14 1707.21,1234.52 1708.69,1233.85 1710.16,1233.14 1711.64,1232.36 
  1713.12,1231.53 1714.6,1230.63 1716.07,1229.66 1717.55,1228.61 1719.03,1227.39 1720.5,1226 1721.98,1224.49 1723.46,1222.84 1724.93,1221.04 1726.41,1219.07 
  1727.89,1216.93 1729.36,1218.55 1730.84,1219.07 1732.32,1218.83 1733.8,1218.2 1735.27,1217.28 1736.75,1216.15 1738.23,1214.82 1739.7,1213.33 1741.18,1211.68 
  1742.66,1209.88 1744.13,1207.94 1745.61,1205.75 1747.09,1203.28 1748.56,1200.62 1750.04,1197.78 1751.52,1194.73 1752.99,1191.47 1754.47,1187.99 1755.95,1184 
  1757.43,1179.68 1758.9,1175.07 1760.38,1170.13 1761.86,1164.86 1763.33,1158.88 1764.81,1152.42 1766.29,1145.52 1767.76,1138.17 1769.24,1129.91 1770.72,1121.01 
  1772.19,1111.58 1773.67,1101.28 1775.15,1090.04 1776.63,1078.21 1778.1,1065.3 1779.58,1051.51 1781.06,1037.06 1782.53,1021.3 1784.01,1005.1 1785.49,987.639 
  1786.96,969.797 1788.44,950.909 1789.92,931.858 1791.39,911.908 1792.87,892.14 1794.35,871.817 1795.83,851.857 1797.3,832.112 1798.78,812.691 1800.26,794.305 
  1801.73,776.244 1803.21,759.479 1804.69,743.944 1806.16,729.381 1807.64,716.614 1809.12,704.949 1810.59,694.973 1812.07,686.725 1813.55,679.713 1815.03,674.874 
  1816.5,670.905 1817.98,691.159 1819.46,711.355 1820.93,730.916 1822.41,750.248 1823.89,769.34 1825.36,788.126 1826.84,806.548 1828.32,824.564 1829.79,842.139 
  1831.27,859.247 1832.75,875.82 1834.22,891.839 1835.7,907.389 1837.18,922.465 1838.66,937.065 1840.13,951.192 1841.61,964.85 1843.09,978.045 1844.56,990.788 
  1846.04,1003.09 1847.52,1014.95 1848.99,1026.4 1850.47,1037.43 1851.95,1048.07 1853.42,1058.33 1854.9,1068.22 1856.38,1077.73 1857.86,1086.87 1859.33,1095.68 
  1860.81,1104.18 1862.29,1112.37 1863.76,1120.27 1865.24,1127.89 1866.72,1135.24 1868.19,1142.33 1869.67,1149.18 1871.15,1155.78 1872.62,1162.16 1874.1,1168.32 
  1875.58,1174.28 1877.06,1180.03 1878.53,1185.58 1880.01,1190.92 1881.49,1196.08 1882.96,1201.08 1884.44,1205.93 1885.92,1210.62 1887.39,1215.17 1888.87,1219.54 
  1890.35,1223.78 1891.82,1227.89 1893.3,1231.84 1894.78,1235.64 1896.26,1239.26 1897.73,1241.54 1899.21,1241.19 1900.69,1238.22 1902.16,1235.08 1903.64,1231.94 
  1905.12,1228.84 1906.59,1242.78 1908.07,1226.19 1909.55,1210.4 1911.02,1195.62 1912.5,1181.83 1913.98,1168.98 1915.45,1157.08 1916.93,1146.13 1918.41,1136.09 
  1919.89,1126.97 1921.36,1118.72 1922.84,1111.33 1924.32,1104.69 1925.79,1098.76 1927.27,1093.6 1928.75,1089.18 1930.22,1085.47 1931.7,1082.44 1933.18,1080.01 
  1934.65,1078.05 1936.13,1076.67 1937.61,1075.87 1939.09,1075.59 1940.56,1075.83 1942.04,1076.55 1943.52,1077.48 1944.99,1078.83 1946.47,1080.59 1947.95,1082.71 
  1949.42,1085.17 1950.9,1087.95 1952.38,1090.93 1953.85,1094.02 1955.33,1097.35 1956.81,1100.9 1958.29,1104.64 1959.76,1108.55 1961.24,1112.6 1962.72,1116.75 
  1964.19,1120.8 1965.67,1124.94 1967.15,1129.15 1968.62,1133.39 1970.1,1137.67 1971.58,1141.94 1973.05,1146.21 1974.53,1150.45 1976.01,1154.5 1977.49,1158.49 
  1978.96,1162.43 1980.44,1166.29 1981.92,1170.08 1983.39,1173.78 1984.87,1177.38 1986.35,1180.88 1987.82,1184.27 1989.3,1187.46 1990.78,1190.51 1992.25,1193.44 
  1993.73,1196.26 1995.21,1198.07 1996.68,1200.07 1998.16,1202.19 1999.64,1204.37 2001.12,1206.56 2002.59,1208.69 2004.07,1210.76 2005.55,1212.79 2007.02,1214.75 
  2008.5,1216.65 2009.98,1218.46 2011.45,1220.19 2012.93,1221.82 2014.41,1223.37 2015.88,1224.82 2017.36,1226.18 2018.84,1227.45 2020.32,1228.61 2021.79,1229.66 
  2023.27,1230.64 2024.75,1231.55 2026.22,1232.39 2027.7,1233.17 2029.18,1233.88 2030.65,1234.55 2032.13,1235.15 2033.61,1235.71 2035.08,1236.23 2036.56,1236.71 
  2038.04,1237.15 2039.52,1237.55 2040.99,1237.93 2042.47,1238.27 2043.95,1238.59 2045.42,1238.89 2046.9,1239.15 2048.38,1239.4 2049.85,1239.63 2051.33,1239.84 
  2052.81,1240.05 2054.28,1240.23 2055.76,1240.41 2057.24,1240.58 2058.72,1240.74 2060.19,1240.89 2061.67,1241.03 2063.15,1241.16 2064.62,1241.29 2066.1,1241.41 
  2067.58,1241.52 2069.05,1241.63 2070.53,1241.74 2072.01,1241.84 2073.48,1241.93 2074.96,1242.02 2076.44,1242.11 2077.91,1242.19 2079.39,1242.27 2080.87,1242.35 
  2082.35,1242.42 2083.82,1230.5 2085.3,1227.24 2086.78,1227.35 2088.25,1228.88 2089.73,1230.9 2091.21,1232.95 2092.68,1234.79 2094.16,1236.37 2095.64,1237.67 
  2097.11,1238.74 2098.59,1239.58 2100.07,1240.22 2101.55,1240.75 2103.02,1241.2 2104.5,1241.58 2105.98,1241.91 2107.45,1242.2 2108.93,1242.44 2110.41,1242.66 
  2111.88,1242.85 2113.36,1243.01 2114.84,1243.16 2116.31,1243.29 2117.79,1243.41 2119.27,1243.52 2120.75,1243.61 2122.22,1243.7 2123.7,1243.78 2125.18,1243.85 
  2126.65,1243.91 2128.13,1243.97 2129.61,1244.02 2131.08,1244.07 2132.56,1244.11 2134.04,1244.16 2135.51,1244.19 2136.99,1244.23 2138.47,1244.26 2139.95,1244.29 
  2141.42,1244.31 2142.9,1244.34 2144.38,1244.36 2145.85,1244.38 2147.33,1244.4 2148.81,1244.42 2150.28,1244.43 2151.76,1244.45 2153.24,1244.46 2154.71,1244.47 
  2156.19,1244.48 2157.67,1244.5 2159.14,1244.51 2160.62,1244.52 2162.1,1244.53 2163.58,1244.54 2165.05,1244.54 2166.53,1244.55 2168.01,1244.56 2169.48,1244.57 
  2170.96,1244.57 2172.44,1244.63 2173.91,1244.64 2175.39,1244.64 2176.87,1244.64 2178.34,1244.64 2179.82,1244.64 2181.3,1244.65 2182.78,1244.65 2184.25,1244.65 
  2185.73,1244.65 2187.21,1244.65 2188.68,1244.65 2190.16,1244.66 2191.64,1244.66 2193.11,1244.66 2194.59,1244.66 2196.07,1244.66 2197.54,1244.66 2199.02,1244.66 
  2200.5,1244.67 2201.98,1244.67 2203.45,1244.67 2204.93,1244.67 2206.41,1244.67 2207.88,1244.67 2209.36,1244.67 2210.84,1244.67 2212.31,1244.68 2213.79,1244.68 
  2215.27,1244.68 2216.74,1244.68 2218.22,1244.68 2219.7,1244.68 2221.18,1244.68 2222.65,1244.68 2224.13,1244.68 2225.61,1244.68 2227.08,1244.69 2228.56,1244.69 
  2230.04,1244.69 2231.51,1244.69 2232.99,1244.69 2234.47,1244.69 2235.94,1244.69 2237.42,1244.69 2238.9,1244.69 2240.37,1244.69 2241.85,1244.69 2243.33,1244.69 
  2244.81,1244.7 2246.28,1244.7 2247.76,1244.7 2249.24,1244.7 2250.71,1244.7 2252.19,1244.7 2253.67,1244.7 2255.14,1244.7 2256.62,1244.7 2258.1,1244.7 
  2259.57,1244.7 2261.05,1244.69 2262.53,1244.68 2264.01,1244.68 2265.48,1244.68 2266.96,1244.68 2268.44,1244.68 2269.91,1244.68 2271.39,1244.67 2272.87,1244.67 
  2274.34,1244.67 2275.82,1244.67 2277.3,1244.67 2278.77,1244.66 2280.25,1244.66 2281.73,1244.66 2283.21,1244.66 2284.68,1244.65 2286.16,1244.65 2287.64,1244.65 
  2289.11,1244.65 2290.59,1244.64 2292.07,1244.64 2293.54,1244.64 2295.02,1244.63 2296.5,1244.63 2297.97,1244.63 2299.45,1244.62 2300.93,1244.62 2302.41,1244.61 
  2303.88,1244.61 2305.36,1244.61 2306.84,1244.6 2308.31,1244.6 2309.79,1244.59 2311.27,1244.59 2312.74,1244.58 2314.22,1244.58 2315.7,1244.57 2317.17,1244.57 
  2318.65,1244.56 2320.13,1244.55 2321.6,1244.55 2323.08,1244.54 2324.56,1244.53 2326.04,1244.52 2327.51,1244.52 2328.99,1244.51 2330.47,1244.5 2331.94,1244.49 
  2333.42,1244.48 2334.9,1244.47 2336.37,1244.46 2337.85,1244.45 2339.33,1244.43 2340.8,1244.42 2342.28,1244.41 2343.76,1244.39 2345.24,1244.38 2346.71,1244.36 
  2348.19,1244.35 2349.67,1244.67 2351.14,1244.67 2352.62,1244.67 2354.1,1244.67 2355.57,1244.67 2357.05,1244.66 2358.53,1244.66 2360,1244.66 2361.48,1244.66 
  2362.96,1244.66 2364.44,1244.65 2365.91,1244.65 2367.39,1244.65 2368.87,1244.65 2370.34,1244.64 2371.82,1244.64 2373.3,1244.64 2374.77,1244.63 2376.25,1244.63 
  2377.73,1244.63 2379.2,1244.62 2380.68,1244.62 2382.16,1244.62 2383.64,1244.61 2385.11,1244.61 2386.59,1244.61 2388.07,1244.6 2389.54,1244.6 2391.02,1244.59 
  2392.5,1244.59 2393.97,1244.58 2395.45,1244.58 2396.93,1244.58 2398.4,1244.57 2399.88,1244.56 2401.36,1244.56 2402.83,1244.55 2404.31,1244.55 2405.79,1244.54 
  2407.27,1244.53 2408.74,1244.53 2410.22,1244.52 2411.7,1244.51 2413.17,1244.5 2414.65,1244.5 2416.13,1244.49 2417.6,1244.48 2419.08,1244.47 2420.56,1244.46 
  2422.03,1244.45 2423.51,1244.44 2424.99,1244.43 2426.47,1244.42 2427.94,1244.41 2429.42,1244.39 2430.9,1244.38 2432.37,1244.37 2433.85,1244.35 2435.33,1244.34 
  2436.8,1244.32 2438.28,1244.65 2439.76,1244.61 2441.23,1244.6 2442.71,1244.6 2444.19,1244.6 2445.67,1244.6 2447.14,1244.59 2448.62,1244.59 2450.1,1244.59 
  2451.57,1244.59 2453.05,1244.59 2454.53,1244.58 2456,1244.58 2457.48,1244.58 2458.96,1244.58 2460.43,1244.58 2461.91,1244.57 2463.39,1244.57 2464.87,1244.57 
  2466.34,1244.57 2467.82,1244.56 2469.3,1244.56 2470.77,1244.56 2472.25,1244.56 2473.73,1244.56 2475.2,1244.55 2476.68,1244.55 2478.16,1244.55 2479.63,1244.54 
  2481.11,1244.54 2482.59,1244.54 2484.06,1244.54 2485.54,1244.53 2487.02,1244.53 2488.5,1244.53 2489.97,1244.53 2491.45,1244.52 2492.93,1244.52 2494.4,1244.52 
  2495.88,1244.51 2497.36,1244.51 2498.83,1244.51 2500.31,1244.5 2501.79,1244.5 2503.26,1244.5 2504.74,1244.49 2506.22,1244.49 2507.7,1244.49 2509.17,1244.48 
  2510.65,1244.48 2512.13,1244.47 2513.6,1244.47 2515.08,1244.47 2516.56,1244.46 2518.03,1244.46 2519.51,1244.45 2520.99,1244.45 2522.46,1244.45 2523.94,1244.44 
  2525.42,1244.44 2526.9,1244.55 2528.37,1244.49 2529.85,1244.47 2531.33,1244.46 2532.8,1244.45 2534.28,1244.44 2535.76,1244.43 2537.23,1244.42 2538.71,1244.4 
  2540.19,1244.39 2541.66,1244.37 2543.14,1244.36 2544.62,1244.34 2546.1,1244.33 2547.57,1244.31 2549.05,1244.29 2550.53,1244.27 2552,1244.25 2553.48,1244.23 
  2554.96,1244.2 2556.43,1244.18 2557.91,1244.15 2559.39,1244.12 2560.86,1244.09 2562.34,1244.06 2563.82,1244.03 2565.29,1243.99 2566.77,1243.95 2568.25,1243.91 
  2569.73,1243.87 2571.2,1243.82 2572.68,1243.77 2574.16,1243.72 2575.63,1243.66 2577.11,1243.59 2578.59,1243.53 2580.06,1243.46 2581.54,1243.38 2583.02,1243.29 
  2584.49,1243.2 2585.97,1243.1 2587.45,1243 2588.93,1242.88 2590.4,1242.75 2591.88,1242.62 2593.36,1242.46 2594.83,1242.3 2596.31,1242.12 2597.79,1241.92 
  2599.26,1241.7 2600.74,1241.46 2602.22,1241.2 2603.69,1240.91 2605.17,1240.58 2606.65,1240.22 2608.13,1239.82 2609.6,1239.37 2611.08,1238.87 2612.56,1238.31 
  2614.03,1237.67 2615.51,1241.79 2616.99,1243.65 2618.46,1244.34 2619.94,1244.01 2621.42,1243.67 2622.89,1243.43 2624.37,1243.26 2625.85,1243.15 2627.33,1243.07 
  2628.8,1243.01 2630.28,1242.97 2631.76,1242.93 2633.23,1242.9 2634.71,1242.87 2636.19,1242.85 2637.66,1242.83 2639.14,1242.81 2640.62,1242.79 2642.09,1242.77 
  2643.57,1242.75 2645.05,1242.73 2646.52,1242.71 2648,1242.69 2649.48,1242.67 2650.96,1242.65 2652.43,1242.64 2653.91,1242.62 2655.39,1242.6 2656.86,1242.58 
  2658.34,1242.56 2659.82,1242.54 2661.29,1242.52 2662.77,1242.5 2664.25,1242.48 2665.72,1242.45 2667.2,1242.43 2668.68,1242.41 2670.16,1242.39 2671.63,1242.37 
  2673.11,1242.35 2674.59,1242.32 2676.06,1242.3 2677.54,1242.28 2679.02,1242.26 2680.49,1242.23 2681.97,1242.21 2683.45,1242.19 2684.92,1242.16 2686.4,1242.14 
  2687.88,1242.11 2689.36,1242.09 2690.83,1242.06 2692.31,1242.04 2693.79,1242.01 2695.26,1241.99 2696.74,1241.96 2698.22,1241.94 2699.69,1241.91 2701.17,1241.88 
  2702.65,1241.86 2704.12,1243.84 2705.6,1244.43 2707.08,1244.11 2708.56,1243.8 2710.03,1243.58 2711.51,1243.41 2712.99,1243.29 2714.46,1243.18 2715.94,1243.09 
  2717.42,1243 2718.89,1242.92 2720.37,1242.84 2721.85,1242.75 2723.32,1242.67 2724.8,1242.58 2726.28,1242.48 2727.75,1242.39 2729.23,1242.28 2730.71,1242.18 
  2732.19,1242.06 2733.66,1241.95 2735.14,1241.82 2736.62,1241.69 2738.09,1241.54 2739.57,1241.4 2741.05,1241.24 2742.52,1241.07 2744,1240.89 2745.48,1240.7 
  2746.95,1240.5 2748.43,1240.28 2749.91,1240.05 2751.39,1239.8 2752.86,1239.54 2754.34,1239.26 2755.82,1238.96 2757.29,1238.64 2758.77,1238.29 2760.25,1237.92 
  2761.72,1237.52 2763.2,1237.09 2764.68,1236.63 2766.15,1236.13 2767.63,1235.6 2769.11,1235.01 2770.59,1234.39 2772.06,1233.71 2773.54,1232.97 2775.02,1232.16 
  2776.49,1231.29 2777.97,1230.34 2779.45,1229.3 2780.92,1228.17 2782.4,1226.93 2783.88,1225.57 2785.35,1224.08 2786.83,1222.44 2788.31,1220.64 2789.79,1218.64 
  
  "/>
</svg>
