<?xml version="1.0" encoding="utf-8"?>
<svg xmlns="http://www.w3.org/2000/svg" xmlns:xlink="http://www.w3.org/1999/xlink" width="800" height="500" viewBox="0 0 3200 2000">
<defs>
  <clipPath id="clip8700">
    <rect x="0" y="0" width="3200" height="2000"/>
  </clipPath>
</defs>
<polygon clip-path="url(#clip8700)" points="
0,2000 3200,2000 3200,0 0,0 
  " fill="#ffffff" fill-rule="evenodd" fill-opacity="1"/>
<defs>
  <clipPath id="clip8701">
    <rect x="640" y="0" width="2241" height="2000"/>
  </clipPath>
</defs>
<polygon clip-path="url(#clip8700)" points="
234.092,1826.6 3048.5,1826.6 3048.5,117.802 234.092,117.802 
  " fill="#ffffff" fill-rule="evenodd" fill-opacity="1"/>
<defs>
  <clipPath id="clip8702">
    <rect x="234" y="117" width="2815" height="1710"/>
  </clipPath>
</defs>
<polyline clip-path="url(#clip8702)" style="stroke:#000000; stroke-width:2; stroke-opacity:0.1; fill:none" points="
  311.9,1826.6 311.9,117.802 
  "/>
<polyline clip-path="url(#clip8702)" style="stroke:#000000; stroke-width:2; stroke-opacity:0.1; fill:none" points="
  865.432,1826.6 865.432,117.802 
  "/>
<polyline clip-path="url(#clip8702)" style="stroke:#000000; stroke-width:2; stroke-opacity:0.1; fill:none" points="
  1418.96,1826.6 1418.96,117.802 
  "/>
<polyline clip-path="url(#clip8702)" style="stroke:#000000; stroke-width:2; stroke-opacity:0.1; fill:none" points="
  1972.49,1826.6 1972.49,117.802 
  "/>
<polyline clip-path="url(#clip8702)" style="stroke:#000000; stroke-width:2; stroke-opacity:0.1; fill:none" points="
  2526.03,1826.6 2526.03,117.802 
  "/>
<polyline clip-path="url(#clip8702)" style="stroke:#000000; stroke-width:2; stroke-opacity:0.1; fill:none" points="
  234.092,1547.94 3048.5,1547.94 
  "/>
<polyline clip-path="url(#clip8702)" style="stroke:#000000; stroke-width:2; stroke-opacity:0.1; fill:none" points="
  234.092,1202.49 3048.5,1202.49 
  "/>
<polyline clip-path="url(#clip8702)" style="stroke:#000000; stroke-width:2; stroke-opacity:0.1; fill:none" points="
  234.092,857.051 3048.5,857.051 
  "/>
<polyline clip-path="url(#clip8702)" style="stroke:#000000; stroke-width:2; stroke-opacity:0.1; fill:none" points="
  234.092,511.608 3048.5,511.608 
  "/>
<polyline clip-path="url(#clip8702)" style="stroke:#000000; stroke-width:2; stroke-opacity:0.1; fill:none" points="
  234.092,166.164 3048.5,166.164 
  "/>
<polyline clip-path="url(#clip8700)" style="stroke:#000000; stroke-width:4; stroke-opacity:1; fill:none" points="
  234.092,1826.6 3048.5,1826.6 
  "/>
<polyline clip-path="url(#clip8700)" style="stroke:#000000; stroke-width:4; stroke-opacity:1; fill:none" points="
  234.092,1826.6 234.092,117.802 
  "/>
<polyline clip-path="url(#clip8700)" style="stroke:#000000; stroke-width:4; stroke-opacity:1; fill:none" points="
  311.9,1826.6 311.9,1800.96 
  "/>
<polyline clip-path="url(#clip8700)" style="stroke:#000000; stroke-width:4; stroke-opacity:1; fill:none" points="
  865.432,1826.6 865.432,1800.96 
  "/>
<polyline clip-path="url(#clip8700)" style="stroke:#000000; stroke-width:4; stroke-opacity:1; fill:none" points="
  1418.96,1826.6 1418.96,1800.96 
  "/>
<polyline clip-path="url(#clip8700)" style="stroke:#000000; stroke-width:4; stroke-opacity:1; fill:none" points="
  1972.49,1826.6 1972.49,1800.96 
  "/>
<polyline clip-path="url(#clip8700)" style="stroke:#000000; stroke-width:4; stroke-opacity:1; fill:none" points="
  2526.03,1826.6 2526.03,1800.96 
  "/>
<polyline clip-path="url(#clip8700)" style="stroke:#000000; stroke-width:4; stroke-opacity:1; fill:none" points="
  234.092,1547.94 276.308,1547.94 
  "/>
<polyline clip-path="url(#clip8700)" style="stroke:#000000; stroke-width:4; stroke-opacity:1; fill:none" points="
  234.092,1202.49 276.308,1202.49 
  "/>
<polyline clip-path="url(#clip8700)" style="stroke:#000000; stroke-width:4; stroke-opacity:1; fill:none" points="
  234.092,857.051 276.308,857.051 
  "/>
<polyline clip-path="url(#clip8700)" style="stroke:#000000; stroke-width:4; stroke-opacity:1; fill:none" points="
  234.092,511.608 276.308,511.608 
  "/>
<polyline clip-path="url(#clip8700)" style="stroke:#000000; stroke-width:4; stroke-opacity:1; fill:none" points="
  234.092,166.164 276.308,166.164 
  "/>
<g clip-path="url(#clip8700)">
<text style="fill:#000000; fill-opacity:1; font-family:Arial,Helvetica Neue,Helvetica,sans-serif; font-size:48px; text-anchor:middle;" transform="rotate(0, 311.9, 1884.6)" x="311.9" y="1884.6">0</text>
</g>
<g clip-path="url(#clip8700)">
<text style="fill:#000000; fill-opacity:1; font-family:Arial,Helvetica Neue,Helvetica,sans-serif; font-size:48px; text-anchor:middle;" transform="rotate(0, 865.432, 1884.6)" x="865.432" y="1884.6">300</text>
</g>
<g clip-path="url(#clip8700)">
<text style="fill:#000000; fill-opacity:1; font-family:Arial,Helvetica Neue,Helvetica,sans-serif; font-size:48px; text-anchor:middle;" transform="rotate(0, 1418.96, 1884.6)" x="1418.96" y="1884.6">600</text>
</g>
<g clip-path="url(#clip8700)">
<text style="fill:#000000; fill-opacity:1; font-family:Arial,Helvetica Neue,Helvetica,sans-serif; font-size:48px; text-anchor:middle;" transform="rotate(0, 1972.49, 1884.6)" x="1972.49" y="1884.6">900</text>
</g>
<g clip-path="url(#clip8700)">
<text style="fill:#000000; fill-opacity:1; font-family:Arial,Helvetica Neue,Helvetica,sans-serif; font-size:48px; text-anchor:middle;" transform="rotate(0, 2526.03, 1884.6)" x="2526.03" y="1884.6">1200</text>
</g>
<g clip-path="url(#clip8700)">
<text style="fill:#000000; fill-opacity:1; font-family:Arial,Helvetica Neue,Helvetica,sans-serif; font-size:48px; text-anchor:end;" transform="rotate(0, 202.092, 1565.44)" x="202.092" y="1565.44">20</text>
</g>
<g clip-path="url(#clip8700)">
<text style="fill:#000000; fill-opacity:1; font-family:Arial,Helvetica Neue,Helvetica,sans-serif; font-size:48px; text-anchor:end;" transform="rotate(0, 202.092, 1219.99)" x="202.092" y="1219.99">40</text>
</g>
<g clip-path="url(#clip8700)">
<text style="fill:#000000; fill-opacity:1; font-family:Arial,Helvetica Neue,Helvetica,sans-serif; font-size:48px; text-anchor:end;" transform="rotate(0, 202.092, 874.551)" x="202.092" y="874.551">60</text>
</g>
<g clip-path="url(#clip8700)">
<text style="fill:#000000; fill-opacity:1; font-family:Arial,Helvetica Neue,Helvetica,sans-serif; font-size:48px; text-anchor:end;" transform="rotate(0, 202.092, 529.108)" x="202.092" y="529.108">80</text>
</g>
<g clip-path="url(#clip8700)">
<text style="fill:#000000; fill-opacity:1; font-family:Arial,Helvetica Neue,Helvetica,sans-serif; font-size:48px; text-anchor:end;" transform="rotate(0, 202.092, 183.664)" x="202.092" y="183.664">100</text>
</g>
<g clip-path="url(#clip8700)">
<text style="fill:#000000; fill-opacity:1; font-family:Arial,Helvetica Neue,Helvetica,sans-serif; font-size:82px; text-anchor:start;" transform="rotate(0, 731.698, 74.9952)" x="731.698" y="74.9952">Figure 1: Arrival rate </text>
</g>
<g clip-path="url(#clip8700)">
<text style="fill:#000000; fill-opacity:1; font-family:Symbol; font-size:90px; text-anchor:start;" transform="rotate(0, 1518.11, 74.9952)" x="1518.11" y="74.9952">λ</text>
</g>
<g clip-path="url(#clip8700)">
<text style="fill:#000000; fill-opacity:1; font-family:Arial,Helvetica Neue,Helvetica,sans-serif; font-size:82px; text-anchor:start;" transform="rotate(0, 1567.89, 74.9952)" x="1567.89" y="74.9952"> (t) for US Bank Callcenter</text>
</g>
<g clip-path="url(#clip8700)">
<text style="fill:#000000; fill-opacity:1; font-family:Arial,Helvetica Neue,Helvetica,sans-serif; font-size:66px; text-anchor:middle;" transform="rotate(0, 1641.3, 1968.46)" x="1641.3" y="1968.46">Time (min)</text>
</g>
<g clip-path="url(#clip8700)">
<text style="fill:#000000; fill-opacity:1; font-family:Arial,Helvetica Neue,Helvetica,sans-serif; font-size:66px; text-anchor:start;" transform="rotate(-90, 79.826, 1160.92)" x="79.826" y="1160.92">Arrival rate </text>
</g>
<g clip-path="url(#clip8700)">
<text style="fill:#000000; fill-opacity:1; font-family:Symbol; font-size:72px; text-anchor:start;" transform="rotate(-90, 79.826, 822.59)" x="79.826" y="822.59">λ</text>
</g>
<polyline clip-path="url(#clip8702)" style="stroke:#009af9; stroke-width:4; stroke-opacity:1; fill:none" points="
  313.745,1749.54 315.59,1749.64 317.436,1749.74 319.281,1749.83 321.126,1749.93 322.971,1750.02 324.816,1750.12 326.661,1750.21 328.506,1750.31 330.351,1750.41 
  332.196,1750.5 334.041,1750.6 335.887,1750.69 337.732,1750.79 339.577,1750.89 341.422,1750.98 343.267,1751.08 345.112,1751.17 346.957,1751.27 348.802,1751.37 
  350.647,1751.46 352.493,1751.56 354.338,1751.65 356.183,1751.75 358.028,1751.85 359.873,1751.94 361.718,1752.04 363.563,1752.13 365.408,1752.23 367.253,1752.33 
  369.098,1752.42 370.944,1752.52 372.789,1752.61 374.634,1752.71 376.479,1752.81 378.324,1752.9 380.169,1753 382.014,1753.09 383.859,1753.19 385.704,1753.29 
  387.55,1753.38 389.395,1753.48 391.24,1753.57 393.085,1753.67 394.93,1753.77 396.775,1753.86 398.62,1753.96 400.465,1754.05 402.31,1754.15 404.155,1754.24 
  406.001,1754.34 407.846,1754.44 409.691,1754.53 411.536,1754.63 413.381,1754.72 415.226,1754.82 417.071,1754.92 418.916,1755.01 420.761,1755.11 422.607,1755.2 
  424.452,1755.3 426.297,1755.4 428.142,1755.49 429.987,1755.59 431.832,1755.68 433.677,1755.78 435.522,1755.88 437.367,1755.97 439.212,1756.07 441.058,1756.16 
  442.903,1756.26 444.748,1756.36 446.593,1756.45 448.438,1756.55 450.283,1756.64 452.128,1756.74 453.973,1756.84 455.818,1756.93 457.663,1757.03 459.509,1757.12 
  461.354,1757.22 463.199,1757.32 465.044,1757.41 466.889,1757.51 468.734,1757.6 470.579,1757.7 472.424,1757.8 474.269,1757.89 476.115,1757.99 477.96,1758.08 
  479.805,1758.18 481.65,1758.28 483.495,1758.37 485.34,1758.47 487.185,1758.56 489.03,1758.66 490.875,1758.75 492.72,1758.85 494.566,1758.95 496.411,1759.04 
  498.256,1759.14 500.101,1759.23 501.946,1759.33 503.791,1759.43 505.636,1759.52 507.481,1759.62 509.326,1759.71 511.172,1759.81 513.017,1759.91 514.862,1760 
  516.707,1760.1 518.552,1760.19 520.397,1760.29 522.242,1760.39 524.087,1760.48 525.932,1760.58 527.777,1760.67 529.623,1760.77 531.468,1760.87 533.313,1760.96 
  535.158,1761.06 537.003,1761.15 538.848,1761.25 540.693,1761.35 542.538,1761.44 544.383,1761.54 546.229,1761.63 548.074,1761.73 549.919,1761.83 551.764,1761.92 
  553.609,1762.02 555.454,1762.11 557.299,1762.21 559.144,1762.31 560.989,1762.4 562.834,1762.5 564.68,1762.59 566.525,1762.69 568.37,1762.79 570.215,1762.88 
  572.06,1762.98 573.905,1763.07 575.75,1763.17 577.595,1763.26 579.44,1763.36 581.285,1763.46 583.131,1763.55 584.976,1763.65 586.821,1763.74 588.666,1763.84 
  590.511,1763.94 592.356,1764.03 594.201,1764.13 596.046,1764.22 597.891,1764.32 599.737,1764.42 601.582,1764.51 603.427,1764.61 605.272,1764.7 607.117,1764.8 
  608.962,1764.9 610.807,1764.99 612.652,1765.09 614.497,1765.18 616.342,1765.28 618.188,1765.38 620.033,1765.47 621.878,1765.57 623.723,1765.66 625.568,1765.76 
  627.413,1765.86 629.258,1765.95 631.103,1766.05 632.948,1766.14 634.794,1766.24 636.639,1766.34 638.484,1766.43 640.329,1766.53 642.174,1766.62 644.019,1766.72 
  645.864,1766.82 647.709,1766.91 649.554,1767.01 651.399,1767.1 653.245,1767.2 655.09,1767.3 656.935,1767.39 658.78,1767.49 660.625,1767.58 662.47,1767.68 
  664.315,1767.77 666.16,1767.87 668.005,1767.97 669.851,1768.06 671.696,1768.16 673.541,1768.25 675.386,1768.35 677.231,1768.45 679.076,1768.54 680.921,1768.64 
  682.766,1768.73 684.611,1768.83 686.456,1768.93 688.302,1769.02 690.147,1769.12 691.992,1769.21 693.837,1769.31 695.682,1769.41 697.527,1769.5 699.372,1769.6 
  701.217,1769.69 703.062,1769.79 704.908,1769.89 706.753,1769.98 708.598,1770.08 710.443,1770.17 712.288,1770.27 714.133,1770.37 715.978,1770.46 717.823,1770.56 
  719.668,1770.65 721.513,1770.75 723.359,1770.85 725.204,1770.94 727.049,1771.04 728.894,1771.13 730.739,1771.23 732.584,1771.33 734.429,1771.42 736.274,1771.52 
  738.119,1771.61 739.964,1771.71 741.81,1771.81 743.655,1771.9 745.5,1772 747.345,1772.09 749.19,1772.19 751.035,1772.28 752.88,1772.38 754.725,1772.48 
  756.57,1772.57 758.416,1772.67 760.261,1772.76 762.106,1772.86 763.951,1772.96 765.796,1773.05 767.641,1773.15 769.486,1773.24 771.331,1773.34 773.176,1773.44 
  775.021,1773.53 776.867,1773.63 778.712,1773.72 780.557,1773.82 782.402,1773.92 784.247,1774.01 786.092,1774.11 787.937,1774.2 789.782,1774.3 791.627,1774.4 
  793.473,1774.49 795.318,1774.59 797.163,1774.68 799.008,1774.78 800.853,1774.88 802.698,1774.97 804.543,1775.07 806.388,1775.16 808.233,1775.26 810.078,1775.36 
  811.924,1775.45 813.769,1775.55 815.614,1775.64 817.459,1775.74 819.304,1775.84 821.149,1775.93 822.994,1776.03 824.839,1776.12 826.684,1776.22 828.53,1776.31 
  830.375,1776.41 832.22,1776.51 834.065,1776.6 835.91,1776.7 837.755,1776.79 839.6,1776.89 841.445,1776.99 843.29,1777.08 845.135,1777.18 846.981,1777.27 
  848.826,1777.37 850.671,1777.47 852.516,1777.56 854.361,1777.66 856.206,1777.75 858.051,1777.85 859.896,1777.95 861.741,1778.04 863.586,1778.14 865.432,1778.23 
  867.277,1777.99 869.122,1777.75 870.967,1777.51 872.812,1777.27 874.657,1777.03 876.502,1776.79 878.347,1776.55 880.192,1776.31 882.038,1776.08 883.883,1775.84 
  885.728,1775.6 887.573,1775.36 889.418,1775.12 891.263,1774.88 893.108,1774.64 894.953,1774.4 896.798,1774.16 898.643,1773.92 900.489,1773.68 902.334,1773.44 
  904.179,1773.2 906.024,1772.96 907.869,1772.72 909.714,1772.48 911.559,1772.24 913.404,1772 915.249,1771.76 917.095,1771.52 918.94,1771.28 920.785,1771.04 
  922.63,1770.8 924.475,1770.56 926.32,1770.32 928.165,1770.08 930.01,1769.84 931.855,1769.6 933.7,1769.36 935.546,1769.12 937.391,1768.88 939.236,1768.64 
  941.081,1768.4 942.926,1768.16 944.771,1767.92 946.616,1767.68 948.461,1767.44 950.306,1767.2 952.152,1766.96 953.997,1766.72 955.842,1766.48 957.687,1766.24 
  959.532,1766 961.377,1765.76 963.222,1765.52 965.067,1765.28 966.912,1765.04 968.757,1764.8 970.603,1764.56 972.448,1764.32 974.293,1764.08 976.138,1763.84 
  977.983,1763.6 979.828,1763.36 981.673,1763.12 983.518,1762.88 985.363,1762.64 987.208,1762.4 989.054,1762.16 990.899,1761.92 992.744,1761.68 994.589,1761.44 
  996.434,1761.2 998.279,1760.96 1000.12,1760.72 1001.97,1760.48 1003.81,1760.24 1005.66,1760 1007.5,1759.76 1009.35,1759.52 1011.19,1759.28 1013.04,1759.04 
  1014.89,1758.8 1016.73,1758.56 1018.58,1758.32 1020.42,1758.08 1022.27,1757.84 1024.11,1757.6 1025.96,1757.36 1027.8,1757.12 1029.65,1756.88 1031.49,1756.64 
  1033.34,1756.4 1035.18,1756.16 1037.03,1755.92 1038.87,1755.68 1040.72,1755.44 1042.56,1755.2 1044.41,1754.96 1046.25,1754.72 1048.1,1754.48 1049.94,1754.24 
  1051.79,1754.01 1053.63,1753.77 1055.48,1753.53 1057.32,1753.29 1059.17,1753.05 1061.01,1752.81 1062.86,1752.57 1064.7,1752.33 1066.55,1752.09 1068.39,1751.85 
  1070.24,1751.61 1072.08,1751.37 1073.93,1751.13 1075.77,1750.89 1077.62,1750.65 1079.46,1750.41 1081.31,1750.17 1083.15,1749.93 1085,1749.69 1086.84,1749.45 
  1088.69,1740.65 1090.53,1731.86 1092.38,1723.06 1094.22,1714.26 1096.07,1705.47 1097.91,1696.67 1099.76,1687.88 1101.6,1679.08 1103.45,1670.28 1105.3,1661.49 
  1107.14,1652.69 1108.99,1643.89 1110.83,1635.1 1112.68,1626.3 1114.52,1617.51 1116.37,1608.71 1118.21,1599.91 1120.06,1591.12 1121.9,1582.32 1123.75,1573.53 
  1125.59,1564.73 1127.44,1555.93 1129.28,1547.14 1131.13,1538.34 1132.97,1529.55 1134.82,1520.75 1136.66,1511.95 1138.51,1503.16 1140.35,1494.36 1142.2,1485.57 
  1144.04,1476.77 1145.89,1467.97 1147.73,1459.18 1149.58,1450.38 1151.42,1441.59 1153.27,1432.79 1155.11,1423.99 1156.96,1415.2 1158.8,1406.4 1160.65,1397.61 
  1162.49,1388.81 1164.34,1380.01 1166.18,1371.22 1168.03,1362.42 1169.87,1353.63 1171.72,1344.83 1173.56,1336.03 1175.41,1327.24 1177.25,1318.44 1179.1,1309.65 
  1180.94,1300.85 1182.79,1292.05 1184.63,1283.26 1186.48,1274.46 1188.32,1265.67 1190.17,1256.87 1192.02,1248.07 1193.86,1239.28 1195.71,1230.48 1197.55,1221.69 
  1199.4,1212.89 1201.24,1204.09 1203.09,1195.3 1204.93,1186.5 1206.78,1177.71 1208.62,1168.91 1210.47,1160.11 1212.31,1151.32 1214.16,1142.52 1216,1133.73 
  1217.85,1124.93 1219.69,1116.13 1221.54,1107.34 1223.38,1098.54 1225.23,1089.75 1227.07,1080.95 1228.92,1072.15 1230.76,1063.36 1232.61,1054.56 1234.45,1045.77 
  1236.3,1036.97 1238.14,1028.17 1239.99,1019.38 1241.83,1010.58 1243.68,1001.79 1245.52,992.99 1247.37,984.194 1249.21,975.398 1251.06,966.602 1252.9,957.806 
  1254.75,949.01 1256.59,940.214 1258.44,931.418 1260.28,922.622 1262.13,913.826 1263.97,905.03 1265.82,896.234 1267.66,887.438 1269.51,878.642 1271.35,869.846 
  1273.2,861.05 1275.04,852.253 1276.89,843.457 1278.74,834.661 1280.58,825.865 1282.43,817.069 1284.27,808.273 1286.12,799.477 1287.96,790.681 1289.81,781.885 
  1291.65,773.089 1293.5,764.293 1295.34,755.497 1297.19,746.701 1299.03,737.905 1300.88,729.109 1302.72,720.313 1304.57,711.517 1306.41,702.721 1308.26,693.925 
  1310.1,685.129 1311.95,676.333 1313.79,667.537 1315.64,658.741 1317.48,649.945 1319.33,641.149 1321.17,632.353 1323.02,623.557 1324.86,614.761 1326.71,605.965 
  1328.55,597.169 1330.4,588.373 1332.24,579.577 1334.09,570.781 1335.93,561.985 1337.78,553.189 1339.62,544.393 1341.47,535.597 1343.31,526.801 1345.16,518.005 
  1347,509.209 1348.85,500.413 1350.69,491.617 1352.54,482.821 1354.38,474.025 1356.23,465.229 1358.07,456.433 1359.92,447.637 1361.76,438.841 1363.61,430.045 
  1365.45,421.249 1367.3,412.453 1369.15,403.657 1370.99,394.861 1372.84,386.065 1374.68,377.269 1376.53,368.473 1378.37,359.677 1380.22,350.881 1382.06,342.085 
  1383.91,333.289 1385.75,324.493 1387.6,315.696 1389.44,306.9 1391.29,298.104 1393.13,289.308 1394.98,280.512 1396.82,271.716 1398.67,262.92 1400.51,254.124 
  1402.36,245.328 1404.2,236.532 1406.05,227.736 1407.89,218.94 1409.74,210.144 1411.58,201.348 1413.43,192.552 1415.27,183.756 1417.12,174.96 1418.96,166.164 
  1420.81,167.364 1422.65,168.563 1424.5,169.763 1426.34,170.962 1428.19,172.162 1430.03,173.361 1431.88,174.56 1433.72,175.76 1435.57,176.959 1437.41,178.159 
  1439.26,179.358 1441.1,180.558 1442.95,181.757 1444.79,182.957 1446.64,184.156 1448.48,185.356 1450.33,186.555 1452.17,187.754 1454.02,188.954 1455.87,190.153 
  1457.71,191.353 1459.56,192.552 1461.4,193.752 1463.25,194.951 1465.09,196.151 1466.94,197.35 1468.78,198.55 1470.63,199.749 1472.47,200.948 1474.32,202.148 
  1476.16,203.347 1478.01,204.547 1479.85,205.746 1481.7,206.946 1483.54,208.145 1485.39,209.345 1487.23,210.544 1489.08,211.744 1490.92,212.943 1492.77,214.142 
  1494.61,215.342 1496.46,216.541 1498.3,217.741 1500.15,218.94 1501.99,220.14 1503.84,221.339 1505.68,222.539 1507.53,223.738 1509.37,224.938 1511.22,226.137 
  1513.06,227.337 1514.91,228.536 1516.75,229.735 1518.6,230.935 1520.44,232.134 1522.29,233.334 1524.13,234.533 1525.98,235.733 1527.82,236.932 1529.67,238.132 
  1531.51,239.331 1533.36,240.531 1535.2,241.73 1537.05,242.929 1538.89,244.129 1540.74,245.328 1542.58,246.528 1544.43,247.727 1546.28,248.927 1548.12,250.126 
  1549.97,251.326 1551.81,252.525 1553.66,253.725 1555.5,254.924 1557.35,256.123 1559.19,257.323 1561.04,258.522 1562.88,259.722 1564.73,260.921 1566.57,262.121 
  1568.42,263.32 1570.26,264.52 1572.11,265.719 1573.95,266.919 1575.8,268.118 1577.64,269.318 1579.49,270.517 1581.33,271.716 1583.18,272.916 1585.02,274.115 
  1586.87,275.315 1588.71,276.514 1590.56,277.714 1592.4,278.913 1594.25,280.113 1596.09,281.312 1597.94,282.512 1599.78,283.711 1601.63,284.91 1603.47,286.11 
  1605.32,287.309 1607.16,288.509 1609.01,289.708 1610.85,290.908 1612.7,292.107 1614.54,293.307 1616.39,294.506 1618.23,295.706 1620.08,296.905 1621.92,298.104 
  1623.77,299.304 1625.61,300.503 1627.46,301.703 1629.3,302.902 1631.15,304.102 1633,305.301 1634.84,306.501 1636.69,307.7 1638.53,308.9 1640.38,310.099 
  1642.22,311.298 1644.07,312.498 1645.91,313.697 1647.76,314.897 1649.6,316.096 1651.45,317.296 1653.29,318.495 1655.14,319.695 1656.98,320.894 1658.83,322.094 
  1660.67,323.293 1662.52,324.493 1664.36,325.692 1666.21,326.891 1668.05,328.091 1669.9,329.29 1671.74,330.49 1673.59,331.689 1675.43,332.889 1677.28,334.088 
  1679.12,335.288 1680.97,336.487 1682.81,337.687 1684.66,338.886 1686.5,340.085 1688.35,341.285 1690.19,342.484 1692.04,343.684 1693.88,344.883 1695.73,346.083 
  1697.57,347.282 1699.42,348.482 1701.26,349.681 1703.11,350.881 1704.95,352.08 1706.8,353.279 1708.64,354.479 1710.49,355.678 1712.33,356.878 1714.18,358.077 
  1716.02,359.277 1717.87,360.476 1719.71,361.676 1721.56,362.875 1723.41,364.075 1725.25,365.274 1727.1,366.473 1728.94,367.673 1730.79,368.872 1732.63,370.072 
  1734.48,371.271 1736.32,372.471 1738.17,373.67 1740.01,374.87 1741.86,376.069 1743.7,377.269 1745.55,378.468 1747.39,379.668 1749.24,380.867 1751.08,382.066 
  1752.93,383.266 1754.77,384.465 1756.62,385.665 1758.46,386.864 1760.31,388.064 1762.15,389.263 1764,390.463 1765.84,391.662 1767.69,392.862 1769.53,394.061 
  1771.38,395.26 1773.22,396.46 1775.07,397.659 1776.91,398.859 1778.76,400.058 1780.6,401.258 1782.45,402.457 1784.29,403.657 1786.14,404.856 1787.98,406.056 
  1789.83,407.255 1791.67,408.454 1793.52,409.654 1795.36,410.853 1797.21,412.053 1799.05,413.252 1800.9,414.452 1802.74,415.651 1804.59,416.851 1806.43,418.05 
  1808.28,419.25 1810.13,420.449 1811.97,421.649 1813.82,422.848 1815.66,424.047 1817.51,425.247 1819.35,426.446 1821.2,427.646 1823.04,428.845 1824.89,430.045 
  1826.73,431.244 1828.58,432.444 1830.42,433.643 1832.27,434.843 1834.11,436.042 1835.96,437.241 1837.8,438.441 1839.65,439.64 1841.49,440.84 1843.34,442.039 
  1845.18,443.239 1847.03,444.438 1848.87,445.638 1850.72,446.837 1852.56,448.037 1854.41,449.236 1856.25,450.435 1858.1,451.635 1859.94,452.834 1861.79,454.034 
  1863.63,455.233 1865.48,456.433 1867.32,457.632 1869.17,458.832 1871.01,460.031 1872.86,461.231 1874.7,462.43 1876.55,463.629 1878.39,464.829 1880.24,466.028 
  1882.08,467.228 1883.93,468.427 1885.77,469.627 1887.62,470.826 1889.46,472.026 1891.31,473.225 1893.15,474.425 1895,475.624 1896.85,476.824 1898.69,478.023 
  1900.54,479.222 1902.38,480.422 1904.23,481.621 1906.07,482.821 1907.92,484.02 1909.76,485.22 1911.61,486.419 1913.45,487.619 1915.3,488.818 1917.14,490.018 
  1918.99,491.217 1920.83,492.416 1922.68,493.616 1924.52,494.815 1926.37,496.015 1928.21,497.214 1930.06,498.414 1931.9,499.613 1933.75,500.813 1935.59,502.012 
  1937.44,503.212 1939.28,504.411 1941.13,505.61 1942.97,506.81 1944.82,508.009 1946.66,509.209 1948.51,510.408 1950.35,511.608 1952.2,512.807 1954.04,514.007 
  1955.89,515.206 1957.73,516.406 1959.58,517.605 1961.42,518.805 1963.27,520.004 1965.11,521.203 1966.96,522.403 1968.8,523.602 1970.65,524.802 1972.49,526.001 
  1974.34,527.201 1976.18,528.4 1978.03,529.6 1979.87,530.799 1981.72,531.999 1983.56,533.198 1985.41,534.397 1987.26,535.597 1989.1,536.796 1990.95,537.996 
  1992.79,539.195 1994.64,540.395 1996.48,541.594 1998.33,542.794 2000.17,543.993 2002.02,545.193 2003.86,546.392 2005.71,547.591 2007.55,548.791 2009.4,549.99 
  2011.24,551.19 2013.09,552.389 2014.93,553.589 2016.78,554.788 2018.62,555.988 2020.47,557.187 2022.31,558.387 2024.16,559.586 2026,560.785 2027.85,561.985 
  2029.69,563.184 2031.54,564.384 2033.38,565.583 2035.23,566.783 2037.07,567.982 2038.92,569.182 2040.76,570.381 2042.61,571.581 2044.45,572.78 2046.3,573.98 
  2048.14,575.179 2049.99,576.378 2051.83,577.578 2053.68,578.777 2055.52,579.977 2057.37,581.176 2059.21,582.376 2061.06,583.575 2062.9,584.775 2064.75,585.974 
  2066.59,587.174 2068.44,588.373 2070.28,589.572 2072.13,590.772 2073.98,591.971 2075.82,593.171 2077.67,594.37 2079.51,595.57 2081.36,596.769 2083.2,597.969 
  2085.05,603.966 2086.89,609.963 2088.74,615.961 2090.58,621.958 2092.43,627.955 2094.27,633.952 2096.12,639.95 2097.96,645.947 2099.81,651.944 2101.65,657.941 
  2103.5,663.939 2105.34,669.936 2107.19,675.933 2109.03,681.931 2110.88,687.928 2112.72,693.925 2114.57,699.922 2116.41,705.92 2118.26,711.917 2120.1,717.914 
  2121.95,723.912 2123.79,729.909 2125.64,735.906 2127.48,741.903 2129.33,747.901 2131.17,753.898 2133.02,759.895 2134.86,765.893 2136.71,771.89 2138.55,777.887 
  2140.4,783.884 2142.24,789.882 2144.09,795.879 2145.93,801.876 2147.78,807.874 2149.62,813.871 2151.47,819.868 2153.31,825.865 2155.16,831.863 2157,837.86 
  2158.85,843.857 2160.69,849.855 2162.54,855.852 2164.39,861.849 2166.23,867.846 2168.08,873.844 2169.92,879.841 2171.77,885.838 2173.61,891.836 2175.46,897.833 
  2177.3,903.83 2179.15,909.827 2180.99,915.825 2182.84,921.822 2184.68,927.819 2186.53,933.817 2188.37,939.814 2190.22,945.811 2192.06,951.808 2193.91,957.806 
  2195.75,963.803 2197.6,969.8 2199.44,975.798 2201.29,981.795 2203.13,987.792 2204.98,993.789 2206.82,999.787 2208.67,1005.78 2210.51,1011.78 2212.36,1017.78 
  2214.2,1023.78 2216.05,1029.77 2217.89,1035.77 2219.74,1041.77 2221.58,1047.76 2223.43,1053.76 2225.27,1059.76 2227.12,1065.76 2228.96,1071.75 2230.81,1077.75 
  2232.65,1083.75 2234.5,1089.75 2236.34,1095.74 2238.19,1101.74 2240.03,1107.74 2241.88,1113.74 2243.72,1119.73 2245.57,1125.73 2247.41,1131.73 2249.26,1137.72 
  2251.11,1143.72 2252.95,1149.72 2254.8,1155.72 2256.64,1161.71 2258.49,1167.71 2260.33,1173.71 2262.18,1179.71 2264.02,1185.7 2265.87,1191.7 2267.71,1197.7 
  2269.56,1203.69 2271.4,1209.69 2273.25,1215.69 2275.09,1221.69 2276.94,1227.68 2278.78,1233.68 2280.63,1239.68 2282.47,1245.68 2284.32,1251.67 2286.16,1257.67 
  2288.01,1263.67 2289.85,1269.66 2291.7,1275.66 2293.54,1281.66 2295.39,1287.66 2297.23,1293.65 2299.08,1299.65 2300.92,1305.65 2302.77,1311.65 2304.61,1317.64 
  2306.46,1318.92 2308.3,1320.2 2310.15,1321.48 2311.99,1322.76 2313.84,1324.04 2315.68,1325.32 2317.53,1326.6 2319.37,1327.88 2321.22,1329.16 2323.06,1330.44 
  2324.91,1331.72 2326.75,1333 2328.6,1334.28 2330.44,1335.55 2332.29,1336.83 2334.13,1338.11 2335.98,1339.39 2337.83,1340.67 2339.67,1341.95 2341.52,1343.23 
  2343.36,1344.51 2345.21,1345.79 2347.05,1347.07 2348.9,1348.35 2350.74,1349.63 2352.59,1350.91 2354.43,1352.19 2356.28,1353.47 2358.12,1354.75 2359.97,1356.03 
  2361.81,1357.3 2363.66,1358.58 2365.5,1359.86 2367.35,1361.14 2369.19,1362.42 2371.04,1363.7 2372.88,1364.98 2374.73,1366.26 2376.57,1367.54 2378.42,1368.82 
  2380.26,1370.1 2382.11,1371.38 2383.95,1372.66 2385.8,1373.94 2387.64,1375.22 2389.49,1376.5 2391.33,1377.78 2393.18,1379.05 2395.02,1380.33 2396.87,1381.61 
  2398.71,1382.89 2400.56,1384.17 2402.4,1385.45 2404.25,1386.73 2406.09,1388.01 2407.94,1389.29 2409.78,1390.57 2411.63,1391.85 2413.47,1393.13 2415.32,1394.41 
  2417.16,1395.69 2419.01,1396.97 2420.85,1398.25 2422.7,1399.53 2424.54,1400.81 2426.39,1402.08 2428.24,1403.36 2430.08,1404.64 2431.93,1405.92 2433.77,1407.2 
  2435.62,1408.48 2437.46,1409.76 2439.31,1411.04 2441.15,1412.32 2443,1413.6 2444.84,1414.88 2446.69,1416.16 2448.53,1417.44 2450.38,1418.72 2452.22,1420 
  2454.07,1421.28 2455.91,1422.56 2457.76,1423.83 2459.6,1425.11 2461.45,1426.39 2463.29,1427.67 2465.14,1428.95 2466.98,1430.23 2468.83,1431.51 2470.67,1432.79 
  2472.52,1434.07 2474.36,1435.35 2476.21,1436.63 2478.05,1437.91 2479.9,1439.19 2481.74,1440.47 2483.59,1441.75 2485.43,1443.03 2487.28,1444.31 2489.12,1445.58 
  2490.97,1446.86 2492.81,1448.14 2494.66,1449.42 2496.5,1450.7 2498.35,1451.98 2500.19,1453.26 2502.04,1454.54 2503.88,1455.82 2505.73,1457.1 2507.57,1458.38 
  2509.42,1459.66 2511.26,1460.94 2513.11,1462.22 2514.96,1463.5 2516.8,1464.78 2518.65,1466.06 2520.49,1467.33 2522.34,1468.61 2524.18,1469.89 2526.03,1471.17 
  2527.87,1472.45 2529.72,1473.73 2531.56,1475.01 2533.41,1476.29 2535.25,1477.57 2537.1,1478.85 2538.94,1480.13 2540.79,1481.41 2542.63,1482.69 2544.48,1483.97 
  2546.32,1485.25 2548.17,1486.53 2550.01,1487.81 2551.86,1489.09 2553.7,1490.36 2555.55,1491.64 2557.39,1492.92 2559.24,1494.2 2561.08,1495.48 2562.93,1496.76 
  2564.77,1498.04 2566.62,1499.32 2568.46,1500.6 2570.31,1501.88 2572.15,1503.16 2574,1504.44 2575.84,1505.72 2577.69,1507 2579.53,1508.28 2581.38,1509.56 
  2583.22,1510.84 2585.07,1512.11 2586.91,1513.39 2588.76,1514.67 2590.6,1515.95 2592.45,1517.23 2594.29,1518.51 2596.14,1519.79 2597.98,1521.07 2599.83,1522.35 
  2601.67,1523.63 2603.52,1524.91 2605.37,1526.19 2607.21,1527.47 2609.06,1528.75 2610.9,1530.03 2612.75,1531.31 2614.59,1532.59 2616.44,1533.86 2618.28,1535.14 
  2620.13,1536.42 2621.97,1537.7 2623.82,1538.98 2625.66,1540.26 2627.51,1541.54 2629.35,1542.82 2631.2,1544.1 2633.04,1545.38 2634.89,1546.66 2636.73,1547.94 
  2638.58,1549.22 2640.42,1550.5 2642.27,1551.78 2644.11,1553.06 2645.96,1554.34 2647.8,1555.61 2649.65,1556.89 2651.49,1558.17 2653.34,1559.45 2655.18,1560.73 
  2657.03,1562.01 2658.87,1563.29 2660.72,1564.57 2662.56,1565.85 2664.41,1567.13 2666.25,1568.41 2668.1,1569.69 2669.94,1570.97 2671.79,1572.25 2673.63,1573.53 
  2675.48,1574.81 2677.32,1576.09 2679.17,1577.37 2681.01,1578.64 2682.86,1579.92 2684.7,1581.2 2686.55,1582.48 2688.39,1583.76 2690.24,1585.04 2692.09,1586.32 
  2693.93,1587.6 2695.78,1588.88 2697.62,1590.16 2699.47,1591.44 2701.31,1592.72 2703.16,1594 2705,1595.28 2706.85,1596.56 2708.69,1597.84 2710.54,1599.12 
  2712.38,1600.39 2714.23,1601.67 2716.07,1602.95 2717.92,1604.23 2719.76,1605.51 2721.61,1606.79 2723.45,1608.07 2725.3,1609.35 2727.14,1610.63 2728.99,1611.91 
  2730.83,1613.19 2732.68,1614.47 2734.52,1615.75 2736.37,1617.03 2738.21,1618.31 2740.06,1619.59 2741.9,1620.87 2743.75,1622.14 2745.59,1623.42 2747.44,1624.7 
  2749.28,1625.98 2751.13,1627.26 2752.97,1628.54 2754.82,1629.82 2756.66,1631.1 2758.51,1632.38 2760.35,1633.66 2762.2,1634.94 2764.04,1636.22 2765.89,1637.5 
  2767.73,1638.78 2769.58,1640.06 2771.42,1641.34 2773.27,1642.62 2775.11,1643.89 2776.96,1645.17 2778.81,1646.45 2780.65,1647.73 2782.5,1649.01 2784.34,1650.29 
  2786.19,1651.57 2788.03,1652.85 2789.88,1654.13 2791.72,1655.41 2793.57,1656.69 2795.41,1657.97 2797.26,1659.25 2799.1,1660.53 2800.95,1661.81 2802.79,1663.09 
  2804.64,1664.37 2806.48,1665.65 2808.33,1666.92 2810.17,1668.2 2812.02,1669.48 2813.86,1670.76 2815.71,1672.04 2817.55,1673.32 2819.4,1674.6 2821.24,1675.88 
  2823.09,1677.16 2824.93,1678.44 2826.78,1679.72 2828.62,1681 2830.47,1682.28 2832.31,1683.56 2834.16,1684.84 2836,1686.12 2837.85,1687.4 2839.69,1688.67 
  2841.54,1689.95 2843.38,1691.23 2845.23,1692.51 2847.07,1693.79 2848.92,1695.07 2850.76,1696.35 2852.61,1697.63 2854.45,1698.91 2856.3,1700.19 2858.14,1701.47 
  2859.99,1702.75 2861.83,1704.03 2863.68,1705.31 2865.52,1706.59 2867.37,1707.87 2869.22,1709.15 2871.06,1710.42 2872.91,1711.7 2874.75,1712.98 2876.6,1714.26 
  2878.44,1715.54 2880.29,1716.82 2882.13,1718.1 2883.98,1719.38 2885.82,1720.66 2887.67,1721.94 2889.51,1723.22 2891.36,1724.5 2893.2,1725.78 2895.05,1727.06 
  2896.89,1728.34 2898.74,1729.62 2900.58,1730.9 2902.43,1732.17 2904.27,1733.45 2906.12,1734.73 2907.96,1736.01 2909.81,1737.29 2911.65,1738.57 2913.5,1739.85 
  2915.34,1741.13 2917.19,1742.41 2919.03,1743.69 2920.88,1744.97 2922.72,1746.25 2924.57,1747.53 2926.41,1748.81 2928.26,1750.09 2930.1,1751.37 2931.95,1752.65 
  2933.79,1753.93 2935.64,1755.2 2937.48,1756.48 2939.33,1757.76 2941.17,1759.04 2943.02,1760.32 2944.86,1761.6 2946.71,1762.88 2948.55,1764.16 2950.4,1765.44 
  2952.24,1766.72 2954.09,1768 2955.94,1769.28 2957.78,1770.56 2959.63,1771.84 2961.47,1773.12 2963.32,1774.4 2965.16,1775.68 2967.01,1776.95 2968.85,1778.23 
  
  "/>
<polygon clip-path="url(#clip8700)" points="
234.092,1826.6 3048.5,1826.6 3048.5,117.802 234.092,117.802 
  " fill="#000000" fill-rule="evenodd" fill-opacity="0"/>
<polyline clip-path="url(#clip8702)" style="stroke:#000000; stroke-width:2; stroke-opacity:0.1; fill:none" points="
  311.9,1826.6 311.9,117.802 
  "/>
<polyline clip-path="url(#clip8702)" style="stroke:#000000; stroke-width:2; stroke-opacity:0.1; fill:none" points="
  865.432,1826.6 865.432,117.802 
  "/>
<polyline clip-path="url(#clip8702)" style="stroke:#000000; stroke-width:2; stroke-opacity:0.1; fill:none" points="
  1418.96,1826.6 1418.96,117.802 
  "/>
<polyline clip-path="url(#clip8702)" style="stroke:#000000; stroke-width:2; stroke-opacity:0.1; fill:none" points="
  1972.49,1826.6 1972.49,117.802 
  "/>
<polyline clip-path="url(#clip8702)" style="stroke:#000000; stroke-width:2; stroke-opacity:0.1; fill:none" points="
  2526.03,1826.6 2526.03,117.802 
  "/>
<polyline clip-path="url(#clip8702)" style="stroke:#000000; stroke-width:2; stroke-opacity:0.1; fill:none" points="
  234.092,1702.03 3048.5,1702.03 
  "/>
<polyline clip-path="url(#clip8702)" style="stroke:#000000; stroke-width:2; stroke-opacity:0.1; fill:none" points="
  234.092,1408.92 3048.5,1408.92 
  "/>
<polyline clip-path="url(#clip8702)" style="stroke:#000000; stroke-width:2; stroke-opacity:0.1; fill:none" points="
  234.092,1115.82 3048.5,1115.82 
  "/>
<polyline clip-path="url(#clip8702)" style="stroke:#000000; stroke-width:2; stroke-opacity:0.1; fill:none" points="
  234.092,822.716 3048.5,822.716 
  "/>
<polyline clip-path="url(#clip8702)" style="stroke:#000000; stroke-width:2; stroke-opacity:0.1; fill:none" points="
  234.092,529.613 3048.5,529.613 
  "/>
<polyline clip-path="url(#clip8702)" style="stroke:#000000; stroke-width:2; stroke-opacity:0.1; fill:none" points="
  234.092,236.509 3048.5,236.509 
  "/>
<polyline clip-path="url(#clip8700)" style="stroke:#000000; stroke-width:4; stroke-opacity:1; fill:none" points="
  234.092,1826.6 3048.5,1826.6 
  "/>
<polyline clip-path="url(#clip8700)" style="stroke:#000000; stroke-width:4; stroke-opacity:1; fill:none" points="
  3048.5,1826.6 3048.5,117.802 
  "/>
<polyline clip-path="url(#clip8700)" style="stroke:#000000; stroke-width:4; stroke-opacity:1; fill:none" points="
  311.9,1826.6 311.9,1800.96 
  "/>
<polyline clip-path="url(#clip8700)" style="stroke:#000000; stroke-width:4; stroke-opacity:1; fill:none" points="
  865.432,1826.6 865.432,1800.96 
  "/>
<polyline clip-path="url(#clip8700)" style="stroke:#000000; stroke-width:4; stroke-opacity:1; fill:none" points="
  1418.96,1826.6 1418.96,1800.96 
  "/>
<polyline clip-path="url(#clip8700)" style="stroke:#000000; stroke-width:4; stroke-opacity:1; fill:none" points="
  1972.49,1826.6 1972.49,1800.96 
  "/>
<polyline clip-path="url(#clip8700)" style="stroke:#000000; stroke-width:4; stroke-opacity:1; fill:none" points="
  2526.03,1826.6 2526.03,1800.96 
  "/>
<polyline clip-path="url(#clip8700)" style="stroke:#000000; stroke-width:4; stroke-opacity:1; fill:none" points="
  3048.5,1702.03 3006.29,1702.03 
  "/>
<polyline clip-path="url(#clip8700)" style="stroke:#000000; stroke-width:4; stroke-opacity:1; fill:none" points="
  3048.5,1408.92 3006.29,1408.92 
  "/>
<polyline clip-path="url(#clip8700)" style="stroke:#000000; stroke-width:4; stroke-opacity:1; fill:none" points="
  3048.5,1115.82 3006.29,1115.82 
  "/>
<polyline clip-path="url(#clip8700)" style="stroke:#000000; stroke-width:4; stroke-opacity:1; fill:none" points="
  3048.5,822.716 3006.29,822.716 
  "/>
<polyline clip-path="url(#clip8700)" style="stroke:#000000; stroke-width:4; stroke-opacity:1; fill:none" points="
  3048.5,529.613 3006.29,529.613 
  "/>
<polyline clip-path="url(#clip8700)" style="stroke:#000000; stroke-width:4; stroke-opacity:1; fill:none" points="
  3048.5,236.509 3006.29,236.509 
  "/>
<g clip-path="url(#clip8700)">
<text style="fill:#000000; fill-opacity:1; font-family:Arial,Helvetica Neue,Helvetica,sans-serif; font-size:48px; text-anchor:middle;" transform="rotate(0, 311.9, 1884.6)" x="311.9" y="1884.6">0</text>
</g>
<g clip-path="url(#clip8700)">
<text style="fill:#000000; fill-opacity:1; font-family:Arial,Helvetica Neue,Helvetica,sans-serif; font-size:48px; text-anchor:middle;" transform="rotate(0, 865.432, 1884.6)" x="865.432" y="1884.6">300</text>
</g>
<g clip-path="url(#clip8700)">
<text style="fill:#000000; fill-opacity:1; font-family:Arial,Helvetica Neue,Helvetica,sans-serif; font-size:48px; text-anchor:middle;" transform="rotate(0, 1418.96, 1884.6)" x="1418.96" y="1884.6">600</text>
</g>
<g clip-path="url(#clip8700)">
<text style="fill:#000000; fill-opacity:1; font-family:Arial,Helvetica Neue,Helvetica,sans-serif; font-size:48px; text-anchor:middle;" transform="rotate(0, 1972.49, 1884.6)" x="1972.49" y="1884.6">900</text>
</g>
<g clip-path="url(#clip8700)">
<text style="fill:#000000; fill-opacity:1; font-family:Arial,Helvetica Neue,Helvetica,sans-serif; font-size:48px; text-anchor:middle;" transform="rotate(0, 2526.03, 1884.6)" x="2526.03" y="1884.6">1200</text>
</g>
<g clip-path="url(#clip8700)">
<text style="fill:#000000; fill-opacity:1; font-family:Arial,Helvetica Neue,Helvetica,sans-serif; font-size:48px; text-anchor:start;" transform="rotate(0, 3080.5, 1719.53)" x="3080.5" y="1719.53">50</text>
</g>
<g clip-path="url(#clip8700)">
<text style="fill:#000000; fill-opacity:1; font-family:Arial,Helvetica Neue,Helvetica,sans-serif; font-size:48px; text-anchor:start;" transform="rotate(0, 3080.5, 1426.42)" x="3080.5" y="1426.42">100</text>
</g>
<g clip-path="url(#clip8700)">
<text style="fill:#000000; fill-opacity:1; font-family:Arial,Helvetica Neue,Helvetica,sans-serif; font-size:48px; text-anchor:start;" transform="rotate(0, 3080.5, 1133.32)" x="3080.5" y="1133.32">150</text>
</g>
<g clip-path="url(#clip8700)">
<text style="fill:#000000; fill-opacity:1; font-family:Arial,Helvetica Neue,Helvetica,sans-serif; font-size:48px; text-anchor:start;" transform="rotate(0, 3080.5, 840.216)" x="3080.5" y="840.216">200</text>
</g>
<g clip-path="url(#clip8700)">
<text style="fill:#000000; fill-opacity:1; font-family:Arial,Helvetica Neue,Helvetica,sans-serif; font-size:48px; text-anchor:start;" transform="rotate(0, 3080.5, 547.113)" x="3080.5" y="547.113">250</text>
</g>
<g clip-path="url(#clip8700)">
<text style="fill:#000000; fill-opacity:1; font-family:Arial,Helvetica Neue,Helvetica,sans-serif; font-size:48px; text-anchor:start;" transform="rotate(0, 3080.5, 254.009)" x="3080.5" y="254.009">300</text>
</g>
<g clip-path="url(#clip8700)">
<text style="fill:#000000; fill-opacity:1; font-family:Arial,Helvetica Neue,Helvetica,sans-serif; font-size:66px; text-anchor:middle;" transform="rotate(-90, 3252.35, 972.199)" x="3252.35" y="972.199">Number of Servers</text>
</g>
<polyline clip-path="url(#clip8702)" style="stroke:#ff0000; stroke-width:4; stroke-opacity:1; fill:none" points="
  313.745,1778.23 315.59,1778.23 317.436,1778.23 319.281,1778.23 321.126,1778.23 322.971,1778.23 324.816,1778.23 326.661,1778.23 328.506,1778.23 330.351,1778.23 
  332.196,1778.23 334.041,1778.23 335.887,1778.23 337.732,1778.23 339.577,1778.23 341.422,1778.23 343.267,1778.23 345.112,1778.23 346.957,1778.23 348.802,1778.23 
  350.647,1778.23 352.493,1778.23 354.338,1778.23 356.183,1778.23 358.028,1778.23 359.873,1778.23 361.718,1778.23 363.563,1778.23 365.408,1778.23 367.253,1778.23 
  369.098,1778.23 370.944,1778.23 372.789,1778.23 374.634,1778.23 376.479,1778.23 378.324,1778.23 380.169,1778.23 382.014,1778.23 383.859,1778.23 385.704,1778.23 
  387.55,1778.23 389.395,1778.23 391.24,1778.23 393.085,1778.23 394.93,1778.23 396.775,1778.23 398.62,1778.23 400.465,1778.23 402.31,1778.23 404.155,1778.23 
  406.001,1778.23 407.846,1778.23 409.691,1778.23 411.536,1778.23 413.381,1778.23 415.226,1778.23 417.071,1778.23 418.916,1778.23 420.761,1778.23 422.607,1778.23 
  424.452,1778.23 426.297,1778.23 428.142,1778.23 429.987,1778.23 431.832,1778.23 433.677,1778.23 435.522,1778.23 437.367,1778.23 439.212,1778.23 441.058,1778.23 
  442.903,1778.23 444.748,1778.23 446.593,1778.23 448.438,1778.23 450.283,1778.23 452.128,1778.23 453.973,1778.23 455.818,1778.23 457.663,1778.23 459.509,1778.23 
  461.354,1778.23 463.199,1778.23 465.044,1778.23 466.889,1778.23 468.734,1778.23 470.579,1778.23 472.424,1778.23 474.269,1778.23 476.115,1778.23 477.96,1778.23 
  479.805,1778.23 481.65,1778.23 483.495,1778.23 485.34,1778.23 487.185,1778.23 489.03,1778.23 490.875,1778.23 492.72,1778.23 494.566,1778.23 496.411,1778.23 
  498.256,1778.23 500.101,1778.23 501.946,1778.23 503.791,1778.23 505.636,1778.23 507.481,1778.23 509.326,1778.23 511.172,1778.23 513.017,1778.23 514.862,1778.23 
  516.707,1778.23 518.552,1778.23 520.397,1778.23 522.242,1778.23 524.087,1778.23 525.932,1778.23 527.777,1778.23 529.623,1778.23 531.468,1778.23 533.313,1778.23 
  535.158,1778.23 537.003,1778.23 538.848,1778.23 540.693,1778.23 542.538,1778.23 544.383,1778.23 546.229,1778.23 548.074,1778.23 549.919,1778.23 551.764,1778.23 
  553.609,1778.23 555.454,1778.23 557.299,1778.23 559.144,1778.23 560.989,1778.23 562.834,1778.23 564.68,1778.23 566.525,1778.23 568.37,1778.23 570.215,1778.23 
  572.06,1778.23 573.905,1778.23 575.75,1778.23 577.595,1778.23 579.44,1778.23 581.285,1778.23 583.131,1778.23 584.976,1778.23 586.821,1778.23 588.666,1778.23 
  590.511,1778.23 592.356,1778.23 594.201,1778.23 596.046,1778.23 597.891,1778.23 599.737,1778.23 601.582,1778.23 603.427,1778.23 605.272,1778.23 607.117,1778.23 
  608.962,1778.23 610.807,1778.23 612.652,1778.23 614.497,1778.23 616.342,1778.23 618.188,1778.23 620.033,1778.23 621.878,1778.23 623.723,1778.23 625.568,1778.23 
  627.413,1778.23 629.258,1778.23 631.103,1778.23 632.948,1778.23 634.794,1778.23 636.639,1778.23 638.484,1778.23 640.329,1778.23 642.174,1778.23 644.019,1778.23 
  645.864,1778.23 647.709,1778.23 649.554,1778.23 651.399,1778.23 653.245,1778.23 655.09,1778.23 656.935,1778.23 658.78,1778.23 660.625,1778.23 662.47,1778.23 
  664.315,1778.23 666.16,1778.23 668.005,1778.23 669.851,1778.23 671.696,1778.23 673.541,1778.23 675.386,1778.23 677.231,1778.23 679.076,1778.23 680.921,1778.23 
  682.766,1778.23 684.611,1778.23 686.456,1778.23 688.302,1778.23 690.147,1778.23 691.992,1778.23 693.837,1778.23 695.682,1778.23 697.527,1778.23 699.372,1778.23 
  701.217,1778.23 703.062,1778.23 704.908,1778.23 706.753,1778.23 708.598,1778.23 710.443,1778.23 712.288,1778.23 714.133,1778.23 715.978,1778.23 717.823,1778.23 
  719.668,1778.23 721.513,1778.23 723.359,1778.23 725.204,1778.23 727.049,1778.23 728.894,1778.23 730.739,1778.23 732.584,1778.23 734.429,1778.23 736.274,1778.23 
  738.119,1778.23 739.964,1778.23 741.81,1778.23 743.655,1778.23 745.5,1778.23 747.345,1778.23 749.19,1778.23 751.035,1778.23 752.88,1778.23 754.725,1778.23 
  756.57,1778.23 758.416,1778.23 760.261,1778.23 762.106,1778.23 763.951,1778.23 765.796,1778.23 767.641,1778.23 769.486,1778.23 771.331,1778.23 773.176,1778.23 
  775.021,1778.23 776.867,1778.23 778.712,1778.23 780.557,1778.23 782.402,1778.23 784.247,1778.23 786.092,1778.23 787.937,1778.23 789.782,1778.23 791.627,1778.23 
  793.473,1778.23 795.318,1778.23 797.163,1778.23 799.008,1778.23 800.853,1778.23 802.698,1778.23 804.543,1778.23 806.388,1778.23 808.233,1778.23 810.078,1778.23 
  811.924,1778.23 813.769,1778.23 815.614,1778.23 817.459,1778.23 819.304,1778.23 821.149,1778.23 822.994,1778.23 824.839,1778.23 826.684,1778.23 828.53,1778.23 
  830.375,1778.23 832.22,1778.23 834.065,1778.23 835.91,1778.23 837.755,1778.23 839.6,1778.23 841.445,1778.23 843.29,1778.23 845.135,1778.23 846.981,1778.23 
  848.826,1778.23 850.671,1778.23 852.516,1778.23 854.361,1778.23 856.206,1778.23 858.051,1778.23 859.896,1778.23 861.741,1778.23 863.586,1778.23 865.432,1778.23 
  867.277,1778.23 869.122,1778.23 870.967,1778.23 872.812,1778.23 874.657,1778.23 876.502,1778.23 878.347,1778.23 880.192,1778.23 882.038,1778.23 883.883,1778.23 
  885.728,1778.23 887.573,1778.23 889.418,1778.23 891.263,1778.23 893.108,1778.23 894.953,1778.23 896.798,1778.23 898.643,1778.23 900.489,1778.23 902.334,1778.23 
  904.179,1778.23 906.024,1778.23 907.869,1778.23 909.714,1778.23 911.559,1778.23 913.404,1778.23 915.249,1778.23 917.095,1778.23 918.94,1778.23 920.785,1778.23 
  922.63,1778.23 924.475,1778.23 926.32,1778.23 928.165,1778.23 930.01,1778.23 931.855,1778.23 933.7,1778.23 935.546,1778.23 937.391,1778.23 939.236,1778.23 
  941.081,1778.23 942.926,1778.23 944.771,1778.23 946.616,1778.23 948.461,1778.23 950.306,1778.23 952.152,1778.23 953.997,1778.23 955.842,1778.23 957.687,1778.23 
  959.532,1778.23 961.377,1778.23 963.222,1778.23 965.067,1778.23 966.912,1778.23 968.757,1778.23 970.603,1778.23 972.448,1778.23 974.293,1778.23 976.138,1778.23 
  977.983,1778.23 979.828,1778.23 981.673,1778.23 983.518,1778.23 985.363,1778.23 987.208,1778.23 989.054,1778.23 990.899,1778.23 992.744,1778.23 994.589,1778.23 
  996.434,1778.23 998.279,1778.23 1000.12,1778.23 1001.97,1778.23 1003.81,1778.23 1005.66,1778.23 1007.5,1778.23 1009.35,1778.23 1011.19,1778.23 1013.04,1778.23 
  1014.89,1778.23 1016.73,1778.23 1018.58,1778.23 1020.42,1778.23 1022.27,1778.23 1024.11,1778.23 1025.96,1778.23 1027.8,1778.23 1029.65,1778.23 1031.49,1778.23 
  1033.34,1778.23 1035.18,1778.23 1037.03,1778.23 1038.87,1778.23 1040.72,1778.23 1042.56,1778.23 1044.41,1778.23 1046.25,1778.23 1048.1,1778.23 1049.94,1778.23 
  1051.79,1778.23 1053.63,1778.23 1055.48,1778.23 1057.32,1778.23 1059.17,1778.23 1061.01,1778.23 1062.86,1778.23 1064.7,1778.23 1066.55,1778.23 1068.39,1778.23 
  1070.24,1778.23 1072.08,1778.23 1073.93,1778.23 1075.77,1778.23 1077.62,1778.23 1079.46,1778.23 1081.31,1778.23 1083.15,1778.23 1085,1778.23 1086.84,1778.23 
  1088.69,816.854 1090.53,816.854 1092.38,816.854 1094.22,816.854 1096.07,816.854 1097.91,816.854 1099.76,816.854 1101.6,816.854 1103.45,816.854 1105.3,816.854 
  1107.14,816.854 1108.99,816.854 1110.83,816.854 1112.68,816.854 1114.52,816.854 1116.37,816.854 1118.21,816.854 1120.06,816.854 1121.9,816.854 1123.75,816.854 
  1125.59,816.854 1127.44,816.854 1129.28,816.854 1131.13,816.854 1132.97,816.854 1134.82,816.854 1136.66,816.854 1138.51,816.854 1140.35,816.854 1142.2,816.854 
  1144.04,816.854 1145.89,816.854 1147.73,816.854 1149.58,816.854 1151.42,816.854 1153.27,816.854 1155.11,816.854 1156.96,816.854 1158.8,816.854 1160.65,816.854 
  1162.49,816.854 1164.34,816.854 1166.18,816.854 1168.03,816.854 1169.87,816.854 1171.72,816.854 1173.56,816.854 1175.41,816.854 1177.25,816.854 1179.1,816.854 
  1180.94,816.854 1182.79,816.854 1184.63,816.854 1186.48,816.854 1188.32,816.854 1190.17,816.854 1192.02,816.854 1193.86,816.854 1195.71,816.854 1197.55,816.854 
  1199.4,816.854 1201.24,816.854 1203.09,816.854 1204.93,816.854 1206.78,816.854 1208.62,816.854 1210.47,816.854 1212.31,816.854 1214.16,816.854 1216,816.854 
  1217.85,816.854 1219.69,816.854 1221.54,816.854 1223.38,816.854 1225.23,816.854 1227.07,816.854 1228.92,816.854 1230.76,816.854 1232.61,816.854 1234.45,816.854 
  1236.3,816.854 1238.14,816.854 1239.99,816.854 1241.83,816.854 1243.68,816.854 1245.52,816.854 1247.37,816.854 1249.21,816.854 1251.06,816.854 1252.9,816.854 
  1254.75,816.854 1256.59,816.854 1258.44,816.854 1260.28,816.854 1262.13,816.854 1263.97,816.854 1265.82,816.854 1267.66,816.854 1269.51,816.854 1271.35,816.854 
  1273.2,816.854 1275.04,816.854 1276.89,816.854 1278.74,816.854 1280.58,816.854 1282.43,816.854 1284.27,816.854 1286.12,816.854 1287.96,816.854 1289.81,816.854 
  1291.65,816.854 1293.5,816.854 1295.34,816.854 1297.19,816.854 1299.03,816.854 1300.88,816.854 1302.72,816.854 1304.57,816.854 1306.41,816.854 1308.26,816.854 
  1310.1,816.854 1311.95,816.854 1313.79,816.854 1315.64,816.854 1317.48,816.854 1319.33,816.854 1321.17,816.854 1323.02,816.854 1324.86,816.854 1326.71,816.854 
  1328.55,816.854 1330.4,816.854 1332.24,816.854 1334.09,816.854 1335.93,816.854 1337.78,816.854 1339.62,816.854 1341.47,816.854 1343.31,816.854 1345.16,816.854 
  1347,816.854 1348.85,816.854 1350.69,816.854 1352.54,816.854 1354.38,816.854 1356.23,816.854 1358.07,816.854 1359.92,816.854 1361.76,816.854 1363.61,816.854 
  1365.45,816.854 1367.3,816.854 1369.15,816.854 1370.99,816.854 1372.84,816.854 1374.68,816.854 1376.53,816.854 1378.37,816.854 1380.22,816.854 1382.06,816.854 
  1383.91,816.854 1385.75,816.854 1387.6,816.854 1389.44,816.854 1391.29,816.854 1393.13,816.854 1394.98,816.854 1396.82,816.854 1398.67,816.854 1400.51,816.854 
  1402.36,816.854 1404.2,816.854 1406.05,816.854 1407.89,816.854 1409.74,816.854 1411.58,816.854 1413.43,816.854 1415.27,816.854 1417.12,816.854 1418.96,816.854 
  1420.81,166.164 1422.65,166.164 1424.5,166.164 1426.34,166.164 1428.19,166.164 1430.03,166.164 1431.88,166.164 1433.72,166.164 1435.57,166.164 1437.41,166.164 
  1439.26,166.164 1441.1,166.164 1442.95,166.164 1444.79,166.164 1446.64,166.164 1448.48,166.164 1450.33,166.164 1452.17,166.164 1454.02,166.164 1455.87,166.164 
  1457.71,166.164 1459.56,166.164 1461.4,166.164 1463.25,166.164 1465.09,166.164 1466.94,166.164 1468.78,166.164 1470.63,166.164 1472.47,166.164 1474.32,166.164 
  1476.16,166.164 1478.01,166.164 1479.85,166.164 1481.7,166.164 1483.54,166.164 1485.39,166.164 1487.23,166.164 1489.08,166.164 1490.92,166.164 1492.77,166.164 
  1494.61,166.164 1496.46,166.164 1498.3,166.164 1500.15,166.164 1501.99,166.164 1503.84,166.164 1505.68,166.164 1507.53,166.164 1509.37,166.164 1511.22,166.164 
  1513.06,166.164 1514.91,166.164 1516.75,166.164 1518.6,166.164 1520.44,166.164 1522.29,166.164 1524.13,166.164 1525.98,166.164 1527.82,166.164 1529.67,166.164 
  1531.51,166.164 1533.36,166.164 1535.2,166.164 1537.05,166.164 1538.89,166.164 1540.74,166.164 1542.58,166.164 1544.43,166.164 1546.28,166.164 1548.12,166.164 
  1549.97,166.164 1551.81,166.164 1553.66,166.164 1555.5,166.164 1557.35,166.164 1559.19,166.164 1561.04,166.164 1562.88,166.164 1564.73,166.164 1566.57,166.164 
  1568.42,166.164 1570.26,166.164 1572.11,166.164 1573.95,166.164 1575.8,166.164 1577.64,166.164 1579.49,166.164 1581.33,166.164 1583.18,166.164 1585.02,166.164 
  1586.87,166.164 1588.71,166.164 1590.56,166.164 1592.4,166.164 1594.25,166.164 1596.09,166.164 1597.94,166.164 1599.78,166.164 1601.63,166.164 1603.47,166.164 
  1605.32,166.164 1607.16,166.164 1609.01,166.164 1610.85,166.164 1612.7,166.164 1614.54,166.164 1616.39,166.164 1618.23,166.164 1620.08,166.164 1621.92,166.164 
  1623.77,166.164 1625.61,166.164 1627.46,166.164 1629.3,166.164 1631.15,166.164 1633,166.164 1634.84,166.164 1636.69,166.164 1638.53,166.164 1640.38,166.164 
  1642.22,166.164 1644.07,166.164 1645.91,166.164 1647.76,166.164 1649.6,166.164 1651.45,166.164 1653.29,166.164 1655.14,166.164 1656.98,166.164 1658.83,166.164 
  1660.67,166.164 1662.52,166.164 1664.36,166.164 1666.21,166.164 1668.05,166.164 1669.9,166.164 1671.74,166.164 1673.59,166.164 1675.43,166.164 1677.28,166.164 
  1679.12,166.164 1680.97,166.164 1682.81,166.164 1684.66,166.164 1686.5,166.164 1688.35,166.164 1690.19,166.164 1692.04,166.164 1693.88,166.164 1695.73,166.164 
  1697.57,166.164 1699.42,166.164 1701.26,166.164 1703.11,166.164 1704.95,166.164 1706.8,166.164 1708.64,166.164 1710.49,166.164 1712.33,166.164 1714.18,166.164 
  1716.02,166.164 1717.87,166.164 1719.71,166.164 1721.56,166.164 1723.41,166.164 1725.25,166.164 1727.1,166.164 1728.94,166.164 1730.79,166.164 1732.63,166.164 
  1734.48,166.164 1736.32,166.164 1738.17,166.164 1740.01,166.164 1741.86,166.164 1743.7,166.164 1745.55,166.164 1747.39,166.164 1749.24,166.164 1751.08,166.164 
  1752.93,166.164 1754.77,166.164 1756.62,166.164 1758.46,166.164 1760.31,166.164 1762.15,166.164 1764,166.164 1765.84,166.164 1767.69,166.164 1769.53,166.164 
  1771.38,166.164 1773.22,166.164 1775.07,166.164 1776.91,166.164 1778.76,166.164 1780.6,166.164 1782.45,166.164 1784.29,166.164 1786.14,166.164 1787.98,166.164 
  1789.83,166.164 1791.67,166.164 1793.52,166.164 1795.36,166.164 1797.21,166.164 1799.05,166.164 1800.9,166.164 1802.74,166.164 1804.59,166.164 1806.43,166.164 
  1808.28,166.164 1810.13,166.164 1811.97,166.164 1813.82,166.164 1815.66,166.164 1817.51,166.164 1819.35,166.164 1821.2,166.164 1823.04,166.164 1824.89,166.164 
  1826.73,166.164 1828.58,166.164 1830.42,166.164 1832.27,166.164 1834.11,166.164 1835.96,166.164 1837.8,166.164 1839.65,166.164 1841.49,166.164 1843.34,166.164 
  1845.18,166.164 1847.03,166.164 1848.87,166.164 1850.72,166.164 1852.56,166.164 1854.41,166.164 1856.25,166.164 1858.1,166.164 1859.94,166.164 1861.79,166.164 
  1863.63,166.164 1865.48,166.164 1867.32,166.164 1869.17,166.164 1871.01,166.164 1872.86,166.164 1874.7,166.164 1876.55,166.164 1878.39,166.164 1880.24,166.164 
  1882.08,166.164 1883.93,166.164 1885.77,166.164 1887.62,166.164 1889.46,166.164 1891.31,166.164 1893.15,166.164 1895,166.164 1896.85,166.164 1898.69,166.164 
  1900.54,166.164 1902.38,166.164 1904.23,166.164 1906.07,166.164 1907.92,166.164 1909.76,166.164 1911.61,166.164 1913.45,166.164 1915.3,166.164 1917.14,166.164 
  1918.99,166.164 1920.83,166.164 1922.68,166.164 1924.52,166.164 1926.37,166.164 1928.21,166.164 1930.06,166.164 1931.9,166.164 1933.75,166.164 1935.59,166.164 
  1937.44,166.164 1939.28,166.164 1941.13,166.164 1942.97,166.164 1944.82,166.164 1946.66,166.164 1948.51,166.164 1950.35,166.164 1952.2,166.164 1954.04,166.164 
  1955.89,166.164 1957.73,166.164 1959.58,166.164 1961.42,166.164 1963.27,166.164 1965.11,166.164 1966.96,166.164 1968.8,166.164 1970.65,166.164 1972.49,166.164 
  1974.34,166.164 1976.18,166.164 1978.03,166.164 1979.87,166.164 1981.72,166.164 1983.56,166.164 1985.41,166.164 1987.26,166.164 1989.1,166.164 1990.95,166.164 
  1992.79,166.164 1994.64,166.164 1996.48,166.164 1998.33,166.164 2000.17,166.164 2002.02,166.164 2003.86,166.164 2005.71,166.164 2007.55,166.164 2009.4,166.164 
  2011.24,166.164 2013.09,166.164 2014.93,166.164 2016.78,166.164 2018.62,166.164 2020.47,166.164 2022.31,166.164 2024.16,166.164 2026,166.164 2027.85,166.164 
  2029.69,166.164 2031.54,166.164 2033.38,166.164 2035.23,166.164 2037.07,166.164 2038.92,166.164 2040.76,166.164 2042.61,166.164 2044.45,166.164 2046.3,166.164 
  2048.14,166.164 2049.99,166.164 2051.83,166.164 2053.68,166.164 2055.52,166.164 2057.37,166.164 2059.21,166.164 2061.06,166.164 2062.9,166.164 2064.75,166.164 
  2066.59,166.164 2068.44,166.164 2070.28,166.164 2072.13,166.164 2073.98,166.164 2075.82,166.164 2077.67,166.164 2079.51,166.164 2081.36,166.164 2083.2,166.164 
  2085.05,816.854 2086.89,816.854 2088.74,816.854 2090.58,816.854 2092.43,816.854 2094.27,816.854 2096.12,816.854 2097.96,816.854 2099.81,816.854 2101.65,816.854 
  2103.5,816.854 2105.34,816.854 2107.19,816.854 2109.03,816.854 2110.88,816.854 2112.72,816.854 2114.57,816.854 2116.41,816.854 2118.26,816.854 2120.1,816.854 
  2121.95,816.854 2123.79,816.854 2125.64,816.854 2127.48,816.854 2129.33,816.854 2131.17,816.854 2133.02,816.854 2134.86,816.854 2136.71,816.854 2138.55,816.854 
  2140.4,816.854 2142.24,816.854 2144.09,816.854 2145.93,816.854 2147.78,816.854 2149.62,816.854 2151.47,816.854 2153.31,816.854 2155.16,816.854 2157,816.854 
  2158.85,816.854 2160.69,816.854 2162.54,816.854 2164.39,816.854 2166.23,816.854 2168.08,816.854 2169.92,816.854 2171.77,816.854 2173.61,816.854 2175.46,816.854 
  2177.3,816.854 2179.15,816.854 2180.99,816.854 2182.84,816.854 2184.68,816.854 2186.53,816.854 2188.37,816.854 2190.22,816.854 2192.06,816.854 2193.91,816.854 
  2195.75,816.854 2197.6,816.854 2199.44,816.854 2201.29,816.854 2203.13,816.854 2204.98,816.854 2206.82,816.854 2208.67,816.854 2210.51,816.854 2212.36,816.854 
  2214.2,816.854 2216.05,816.854 2217.89,816.854 2219.74,816.854 2221.58,816.854 2223.43,816.854 2225.27,816.854 2227.12,816.854 2228.96,816.854 2230.81,816.854 
  2232.65,816.854 2234.5,816.854 2236.34,816.854 2238.19,816.854 2240.03,816.854 2241.88,816.854 2243.72,816.854 2245.57,816.854 2247.41,816.854 2249.26,816.854 
  2251.11,816.854 2252.95,816.854 2254.8,816.854 2256.64,816.854 2258.49,816.854 2260.33,816.854 2262.18,816.854 2264.02,816.854 2265.87,816.854 2267.71,816.854 
  2269.56,816.854 2271.4,816.854 2273.25,816.854 2275.09,816.854 2276.94,816.854 2278.78,816.854 2280.63,816.854 2282.47,816.854 2284.32,816.854 2286.16,816.854 
  2288.01,816.854 2289.85,816.854 2291.7,816.854 2293.54,816.854 2295.39,816.854 2297.23,816.854 2299.08,816.854 2300.92,816.854 2302.77,816.854 2304.61,816.854 
  2306.46,1502.72 2308.3,1502.72 2310.15,1502.72 2311.99,1502.72 2313.84,1502.72 2315.68,1502.72 2317.53,1502.72 2319.37,1502.72 2321.22,1502.72 2323.06,1502.72 
  2324.91,1502.72 2326.75,1502.72 2328.6,1502.72 2330.44,1502.72 2332.29,1502.72 2334.13,1502.72 2335.98,1502.72 2337.83,1502.72 2339.67,1502.72 2341.52,1502.72 
  2343.36,1502.72 2345.21,1502.72 2347.05,1502.72 2348.9,1502.72 2350.74,1502.72 2352.59,1502.72 2354.43,1502.72 2356.28,1502.72 2358.12,1502.72 2359.97,1502.72 
  2361.81,1502.72 2363.66,1502.72 2365.5,1502.72 2367.35,1502.72 2369.19,1502.72 2371.04,1502.72 2372.88,1502.72 2374.73,1502.72 2376.57,1502.72 2378.42,1502.72 
  2380.26,1502.72 2382.11,1502.72 2383.95,1502.72 2385.8,1502.72 2387.64,1502.72 2389.49,1502.72 2391.33,1502.72 2393.18,1502.72 2395.02,1502.72 2396.87,1502.72 
  2398.71,1502.72 2400.56,1502.72 2402.4,1502.72 2404.25,1502.72 2406.09,1502.72 2407.94,1502.72 2409.78,1502.72 2411.63,1502.72 2413.47,1502.72 2415.32,1502.72 
  2417.16,1502.72 2419.01,1502.72 2420.85,1502.72 2422.7,1502.72 2424.54,1502.72 2426.39,1502.72 2428.24,1502.72 2430.08,1502.72 2431.93,1502.72 2433.77,1502.72 
  2435.62,1502.72 2437.46,1502.72 2439.31,1502.72 2441.15,1502.72 2443,1502.72 2444.84,1502.72 2446.69,1502.72 2448.53,1502.72 2450.38,1502.72 2452.22,1502.72 
  2454.07,1502.72 2455.91,1502.72 2457.76,1502.72 2459.6,1502.72 2461.45,1502.72 2463.29,1502.72 2465.14,1502.72 2466.98,1502.72 2468.83,1502.72 2470.67,1502.72 
  2472.52,1502.72 2474.36,1502.72 2476.21,1502.72 2478.05,1502.72 2479.9,1502.72 2481.74,1502.72 2483.59,1502.72 2485.43,1502.72 2487.28,1502.72 2489.12,1502.72 
  2490.97,1502.72 2492.81,1502.72 2494.66,1502.72 2496.5,1502.72 2498.35,1502.72 2500.19,1502.72 2502.04,1502.72 2503.88,1502.72 2505.73,1502.72 2507.57,1502.72 
  2509.42,1502.72 2511.26,1502.72 2513.11,1502.72 2514.96,1502.72 2516.8,1502.72 2518.65,1502.72 2520.49,1502.72 2522.34,1502.72 2524.18,1502.72 2526.03,1502.72 
  2527.87,1502.72 2529.72,1502.72 2531.56,1502.72 2533.41,1502.72 2535.25,1502.72 2537.1,1502.72 2538.94,1502.72 2540.79,1502.72 2542.63,1502.72 2544.48,1502.72 
  2546.32,1502.72 2548.17,1502.72 2550.01,1502.72 2551.86,1502.72 2553.7,1502.72 2555.55,1502.72 2557.39,1502.72 2559.24,1502.72 2561.08,1502.72 2562.93,1502.72 
  2564.77,1502.72 2566.62,1502.72 2568.46,1502.72 2570.31,1502.72 2572.15,1502.72 2574,1502.72 2575.84,1502.72 2577.69,1502.72 2579.53,1502.72 2581.38,1502.72 
  2583.22,1502.72 2585.07,1502.72 2586.91,1502.72 2588.76,1502.72 2590.6,1502.72 2592.45,1502.72 2594.29,1502.72 2596.14,1502.72 2597.98,1502.72 2599.83,1502.72 
  2601.67,1502.72 2603.52,1502.72 2605.37,1502.72 2607.21,1502.72 2609.06,1502.72 2610.9,1502.72 2612.75,1502.72 2614.59,1502.72 2616.44,1502.72 2618.28,1502.72 
  2620.13,1502.72 2621.97,1502.72 2623.82,1502.72 2625.66,1502.72 2627.51,1502.72 2629.35,1502.72 2631.2,1502.72 2633.04,1502.72 2634.89,1502.72 2636.73,1502.72 
  2638.58,1502.72 2640.42,1502.72 2642.27,1502.72 2644.11,1502.72 2645.96,1502.72 2647.8,1502.72 2649.65,1502.72 2651.49,1502.72 2653.34,1502.72 2655.18,1502.72 
  2657.03,1502.72 2658.87,1502.72 2660.72,1502.72 2662.56,1502.72 2664.41,1502.72 2666.25,1502.72 2668.1,1502.72 2669.94,1502.72 2671.79,1502.72 2673.63,1502.72 
  2675.48,1502.72 2677.32,1502.72 2679.17,1502.72 2681.01,1502.72 2682.86,1502.72 2684.7,1502.72 2686.55,1502.72 2688.39,1502.72 2690.24,1502.72 2692.09,1502.72 
  2693.93,1502.72 2695.78,1502.72 2697.62,1502.72 2699.47,1502.72 2701.31,1502.72 2703.16,1502.72 2705,1502.72 2706.85,1502.72 2708.69,1502.72 2710.54,1502.72 
  2712.38,1502.72 2714.23,1502.72 2716.07,1502.72 2717.92,1502.72 2719.76,1502.72 2721.61,1502.72 2723.45,1502.72 2725.3,1502.72 2727.14,1502.72 2728.99,1502.72 
  2730.83,1502.72 2732.68,1502.72 2734.52,1502.72 2736.37,1502.72 2738.21,1502.72 2740.06,1502.72 2741.9,1502.72 2743.75,1502.72 2745.59,1502.72 2747.44,1502.72 
  2749.28,1502.72 2751.13,1502.72 2752.97,1502.72 2754.82,1502.72 2756.66,1502.72 2758.51,1502.72 2760.35,1502.72 2762.2,1502.72 2764.04,1502.72 2765.89,1502.72 
  2767.73,1502.72 2769.58,1502.72 2771.42,1502.72 2773.27,1502.72 2775.11,1502.72 2776.96,1502.72 2778.81,1502.72 2780.65,1502.72 2782.5,1502.72 2784.34,1502.72 
  2786.19,1502.72 2788.03,1502.72 2789.88,1502.72 2791.72,1502.72 2793.57,1502.72 2795.41,1502.72 2797.26,1502.72 2799.1,1502.72 2800.95,1502.72 2802.79,1502.72 
  2804.64,1502.72 2806.48,1502.72 2808.33,1502.72 2810.17,1502.72 2812.02,1502.72 2813.86,1502.72 2815.71,1502.72 2817.55,1502.72 2819.4,1502.72 2821.24,1502.72 
  2823.09,1502.72 2824.93,1502.72 2826.78,1502.72 2828.62,1502.72 2830.47,1502.72 2832.31,1502.72 2834.16,1502.72 2836,1502.72 2837.85,1502.72 2839.69,1502.72 
  2841.54,1502.72 2843.38,1502.72 2845.23,1502.72 2847.07,1502.72 2848.92,1502.72 2850.76,1502.72 2852.61,1502.72 2854.45,1502.72 2856.3,1502.72 2858.14,1502.72 
  2859.99,1502.72 2861.83,1502.72 2863.68,1502.72 2865.52,1502.72 2867.37,1502.72 2869.22,1502.72 2871.06,1502.72 2872.91,1502.72 2874.75,1502.72 2876.6,1502.72 
  2878.44,1502.72 2880.29,1502.72 2882.13,1502.72 2883.98,1502.72 2885.82,1502.72 2887.67,1502.72 2889.51,1502.72 2891.36,1502.72 2893.2,1502.72 2895.05,1502.72 
  2896.89,1502.72 2898.74,1502.72 2900.58,1502.72 2902.43,1502.72 2904.27,1502.72 2906.12,1502.72 2907.96,1502.72 2909.81,1502.72 2911.65,1502.72 2913.5,1502.72 
  2915.34,1502.72 2917.19,1502.72 2919.03,1502.72 2920.88,1502.72 2922.72,1502.72 2924.57,1502.72 2926.41,1502.72 2928.26,1502.72 2930.1,1502.72 2931.95,1502.72 
  2933.79,1502.72 2935.64,1502.72 2937.48,1502.72 2939.33,1502.72 2941.17,1502.72 2943.02,1502.72 2944.86,1502.72 2946.71,1502.72 2948.55,1502.72 2950.4,1502.72 
  2952.24,1502.72 2954.09,1502.72 2955.94,1502.72 2957.78,1502.72 2959.63,1502.72 2961.47,1502.72 2963.32,1502.72 2965.16,1502.72 2967.01,1502.72 2968.85,1502.72 
  
  "/>
</svg>
