<?xml version="1.0" encoding="utf-8"?>
<svg xmlns="http://www.w3.org/2000/svg" xmlns:xlink="http://www.w3.org/1999/xlink" width="800" height="500" viewBox="0 0 3200 2000">
<defs>
  <clipPath id="clip1300">
    <rect x="0" y="0" width="3200" height="2000"/>
  </clipPath>
</defs>
<polygon clip-path="url(#clip1300)" points="
0,2000 3200,2000 3200,0 0,0 
  " fill="#ffffff" fill-rule="evenodd" fill-opacity="1"/>
<defs>
  <clipPath id="clip1301">
    <rect x="640" y="0" width="2241" height="2000"/>
  </clipPath>
</defs>
<polygon clip-path="url(#clip1300)" points="
237.824,1737.8 3152.76,1737.8 3152.76,150.688 237.824,150.688 
  " fill="#ffffff" fill-rule="evenodd" fill-opacity="1"/>
<defs>
  <clipPath id="clip1302">
    <rect x="237" y="150" width="2916" height="1588"/>
  </clipPath>
</defs>
<polyline clip-path="url(#clip1302)" style="stroke:#000000; stroke-width:2; stroke-opacity:0.1; fill:none" points="
  320.322,1737.8 320.322,150.688 
  "/>
<polyline clip-path="url(#clip1302)" style="stroke:#000000; stroke-width:2; stroke-opacity:0.1; fill:none" points="
  1084.19,1737.8 1084.19,150.688 
  "/>
<polyline clip-path="url(#clip1302)" style="stroke:#000000; stroke-width:2; stroke-opacity:0.1; fill:none" points="
  1848.06,1737.8 1848.06,150.688 
  "/>
<polyline clip-path="url(#clip1302)" style="stroke:#000000; stroke-width:2; stroke-opacity:0.1; fill:none" points="
  2611.94,1737.8 2611.94,150.688 
  "/>
<polyline clip-path="url(#clip1302)" style="stroke:#000000; stroke-width:2; stroke-opacity:0.1; fill:none" points="
  237.824,1526.52 3152.76,1526.52 
  "/>
<polyline clip-path="url(#clip1302)" style="stroke:#000000; stroke-width:2; stroke-opacity:0.1; fill:none" points="
  237.824,1193.79 3152.76,1193.79 
  "/>
<polyline clip-path="url(#clip1302)" style="stroke:#000000; stroke-width:2; stroke-opacity:0.1; fill:none" points="
  237.824,861.061 3152.76,861.061 
  "/>
<polyline clip-path="url(#clip1302)" style="stroke:#000000; stroke-width:2; stroke-opacity:0.1; fill:none" points="
  237.824,528.334 3152.76,528.334 
  "/>
<polyline clip-path="url(#clip1302)" style="stroke:#000000; stroke-width:2; stroke-opacity:0.1; fill:none" points="
  237.824,195.606 3152.76,195.606 
  "/>
<polyline clip-path="url(#clip1300)" style="stroke:#000000; stroke-width:4; stroke-opacity:1; fill:none" points="
  237.824,1737.8 3152.76,1737.8 
  "/>
<polyline clip-path="url(#clip1300)" style="stroke:#000000; stroke-width:4; stroke-opacity:1; fill:none" points="
  237.824,1737.8 237.824,150.688 
  "/>
<polyline clip-path="url(#clip1300)" style="stroke:#000000; stroke-width:4; stroke-opacity:1; fill:none" points="
  320.322,1737.8 320.322,1713.99 
  "/>
<polyline clip-path="url(#clip1300)" style="stroke:#000000; stroke-width:4; stroke-opacity:1; fill:none" points="
  1084.19,1737.8 1084.19,1713.99 
  "/>
<polyline clip-path="url(#clip1300)" style="stroke:#000000; stroke-width:4; stroke-opacity:1; fill:none" points="
  1848.06,1737.8 1848.06,1713.99 
  "/>
<polyline clip-path="url(#clip1300)" style="stroke:#000000; stroke-width:4; stroke-opacity:1; fill:none" points="
  2611.94,1737.8 2611.94,1713.99 
  "/>
<polyline clip-path="url(#clip1300)" style="stroke:#000000; stroke-width:4; stroke-opacity:1; fill:none" points="
  237.824,1526.52 281.548,1526.52 
  "/>
<polyline clip-path="url(#clip1300)" style="stroke:#000000; stroke-width:4; stroke-opacity:1; fill:none" points="
  237.824,1193.79 281.548,1193.79 
  "/>
<polyline clip-path="url(#clip1300)" style="stroke:#000000; stroke-width:4; stroke-opacity:1; fill:none" points="
  237.824,861.061 281.548,861.061 
  "/>
<polyline clip-path="url(#clip1300)" style="stroke:#000000; stroke-width:4; stroke-opacity:1; fill:none" points="
  237.824,528.334 281.548,528.334 
  "/>
<polyline clip-path="url(#clip1300)" style="stroke:#000000; stroke-width:4; stroke-opacity:1; fill:none" points="
  237.824,195.606 281.548,195.606 
  "/>
<g clip-path="url(#clip1300)">
<text style="fill:#000000; fill-opacity:1; font-family:Arial,Helvetica Neue,Helvetica,sans-serif; font-size:48px; text-anchor:middle;" transform="rotate(0, 320.322, 1795.8)" x="320.322" y="1795.8">0</text>
</g>
<g clip-path="url(#clip1300)">
<text style="fill:#000000; fill-opacity:1; font-family:Arial,Helvetica Neue,Helvetica,sans-serif; font-size:48px; text-anchor:middle;" transform="rotate(0, 1084.19, 1795.8)" x="1084.19" y="1795.8">50</text>
</g>
<g clip-path="url(#clip1300)">
<text style="fill:#000000; fill-opacity:1; font-family:Arial,Helvetica Neue,Helvetica,sans-serif; font-size:48px; text-anchor:middle;" transform="rotate(0, 1848.06, 1795.8)" x="1848.06" y="1795.8">100</text>
</g>
<g clip-path="url(#clip1300)">
<text style="fill:#000000; fill-opacity:1; font-family:Arial,Helvetica Neue,Helvetica,sans-serif; font-size:48px; text-anchor:middle;" transform="rotate(0, 2611.94, 1795.8)" x="2611.94" y="1795.8">150</text>
</g>
<g clip-path="url(#clip1300)">
<text style="fill:#000000; fill-opacity:1; font-family:Arial,Helvetica Neue,Helvetica,sans-serif; font-size:48px; text-anchor:end;" transform="rotate(0, 205.824, 1544.02)" x="205.824" y="1544.02">20</text>
</g>
<g clip-path="url(#clip1300)">
<text style="fill:#000000; fill-opacity:1; font-family:Arial,Helvetica Neue,Helvetica,sans-serif; font-size:48px; text-anchor:end;" transform="rotate(0, 205.824, 1211.29)" x="205.824" y="1211.29">40</text>
</g>
<g clip-path="url(#clip1300)">
<text style="fill:#000000; fill-opacity:1; font-family:Arial,Helvetica Neue,Helvetica,sans-serif; font-size:48px; text-anchor:end;" transform="rotate(0, 205.824, 878.561)" x="205.824" y="878.561">60</text>
</g>
<g clip-path="url(#clip1300)">
<text style="fill:#000000; fill-opacity:1; font-family:Arial,Helvetica Neue,Helvetica,sans-serif; font-size:48px; text-anchor:end;" transform="rotate(0, 205.824, 545.834)" x="205.824" y="545.834">80</text>
</g>
<g clip-path="url(#clip1300)">
<text style="fill:#000000; fill-opacity:1; font-family:Arial,Helvetica Neue,Helvetica,sans-serif; font-size:48px; text-anchor:end;" transform="rotate(0, 205.824, 213.106)" x="205.824" y="213.106">100</text>
</g>
<g clip-path="url(#clip1300)">
<text style="fill:#000000; fill-opacity:1; font-family:Arial,Helvetica Neue,Helvetica,sans-serif; font-size:82px; text-anchor:start;" transform="rotate(0, 483.711, 74.9952)" x="483.711" y="74.9952">Figure 3: Arrival rate </text>
</g>
<g clip-path="url(#clip1300)">
<text style="fill:#000000; fill-opacity:1; font-family:Symbol; font-size:90px; text-anchor:start;" transform="rotate(0, 1270.12, 74.9952)" x="1270.12" y="74.9952">λ</text>
</g>
<g clip-path="url(#clip1300)">
<text style="fill:#000000; fill-opacity:1; font-family:Arial,Helvetica Neue,Helvetica,sans-serif; font-size:82px; text-anchor:start;" transform="rotate(0, 1319.9, 74.9952)" x="1319.9" y="74.9952"> (t) for US Bank Callcenter during Increase</text>
</g>
<g clip-path="url(#clip1300)">
<text style="fill:#000000; fill-opacity:1; font-family:Arial,Helvetica Neue,Helvetica,sans-serif; font-size:66px; text-anchor:middle;" transform="rotate(0, 1695.29, 1879.66)" x="1695.29" y="1879.66">Time (min)</text>
</g>
<g clip-path="url(#clip1300)">
<text style="fill:#000000; fill-opacity:1; font-family:Arial,Helvetica Neue,Helvetica,sans-serif; font-size:66px; text-anchor:start;" transform="rotate(-90, 83.5573, 1132.97)" x="83.5573" y="1132.97">Arrival rate </text>
</g>
<g clip-path="url(#clip1300)">
<text style="fill:#000000; fill-opacity:1; font-family:Symbol; font-size:72px; text-anchor:start;" transform="rotate(-90, 83.5573, 794.634)" x="83.5573" y="794.634">λ</text>
</g>
<polyline clip-path="url(#clip1302)" style="stroke:#009af9; stroke-width:4; stroke-opacity:1; fill:none" points="
  320.322,1692.88 335.599,1684.56 350.876,1676.24 366.154,1667.93 381.431,1659.61 396.709,1651.29 411.986,1642.97 427.264,1634.65 442.541,1626.33 457.818,1618.02 
  473.096,1609.7 488.373,1601.38 503.651,1593.06 518.928,1584.74 534.206,1576.43 549.483,1568.11 564.76,1559.79 580.038,1551.47 595.315,1543.15 610.593,1534.83 
  625.87,1526.52 641.148,1518.2 656.425,1509.88 671.702,1501.56 686.98,1493.24 702.257,1484.93 717.535,1476.61 732.812,1468.29 748.089,1459.97 763.367,1451.65 
  778.644,1443.33 793.922,1435.02 809.199,1426.7 824.477,1418.38 839.754,1410.06 855.031,1401.74 870.309,1393.43 885.586,1385.11 900.864,1376.79 916.141,1368.47 
  931.419,1360.15 946.696,1351.83 961.973,1343.52 977.251,1335.2 992.528,1326.88 1007.81,1318.56 1023.08,1310.24 1038.36,1301.93 1053.64,1293.61 1068.92,1285.29 
  1084.19,1276.97 1099.47,1268.65 1114.75,1260.33 1130.03,1252.02 1145.3,1243.7 1160.58,1235.38 1175.86,1227.06 1191.13,1218.74 1206.41,1210.43 1221.69,1202.11 
  1236.97,1193.79 1252.24,1185.47 1267.52,1177.15 1282.8,1168.83 1298.08,1160.52 1313.35,1152.2 1328.63,1143.88 1343.91,1135.56 1359.19,1127.24 1374.46,1118.92 
  1389.74,1110.61 1405.02,1102.29 1420.3,1093.97 1435.57,1085.65 1450.85,1077.33 1466.13,1069.02 1481.41,1060.7 1496.68,1052.38 1511.96,1044.06 1527.24,1035.74 
  1542.52,1027.42 1557.79,1019.11 1573.07,1010.79 1588.35,1002.47 1603.63,994.152 1618.9,985.834 1634.18,977.516 1649.46,969.198 1664.73,960.879 1680.01,952.561 
  1695.29,944.243 1710.57,935.925 1725.84,927.607 1741.12,919.289 1756.4,910.97 1771.68,902.652 1786.95,894.334 1802.23,886.016 1817.51,877.698 1832.79,869.379 
  1848.06,861.061 1863.34,852.743 1878.62,844.425 1893.9,836.107 1909.17,827.788 1924.45,819.47 1939.73,811.152 1955.01,802.834 1970.28,794.516 1985.56,786.198 
  2000.84,777.879 2016.12,769.561 2031.39,761.243 2046.67,752.925 2061.95,744.607 2077.23,736.288 2092.5,727.97 2107.78,719.652 2123.06,711.334 2138.34,703.016 
  2153.61,694.697 2168.89,686.379 2184.17,678.061 2199.44,669.743 2214.72,661.425 2230,653.107 2245.28,644.788 2260.55,636.47 2275.83,628.152 2291.11,619.834 
  2306.39,611.516 2321.66,603.197 2336.94,594.879 2352.22,586.561 2367.5,578.243 2382.77,569.925 2398.05,561.607 2413.33,553.288 2428.61,544.97 2443.88,536.652 
  2459.16,528.334 2474.44,520.016 2489.72,511.697 2504.99,503.379 2520.27,495.061 2535.55,486.743 2550.83,478.425 2566.1,470.106 2581.38,461.788 2596.66,453.47 
  2611.94,445.152 2627.21,436.834 2642.49,428.516 2657.77,420.197 2673.04,411.879 2688.32,403.561 2703.6,395.243 2718.88,386.925 2734.15,378.606 2749.43,370.288 
  2764.71,361.97 2779.99,353.652 2795.26,345.334 2810.54,337.015 2825.82,328.697 2841.1,320.379 2856.37,312.061 2871.65,303.743 2886.93,295.425 2902.21,287.106 
  2917.48,278.788 2932.76,270.47 2948.04,262.152 2963.32,253.834 2978.59,245.515 2993.87,237.197 3009.15,228.879 3024.43,220.561 3039.7,212.243 3054.98,203.925 
  3070.26,195.606 
  "/>
<polygon clip-path="url(#clip1300)" points="
333.824,403.168 741.089,403.168 741.089,282.208 333.824,282.208 
  " fill="#ffffff" fill-rule="evenodd" fill-opacity="1"/>
<polyline clip-path="url(#clip1300)" style="stroke:#000000; stroke-width:4; stroke-opacity:1; fill:none" points="
  333.824,403.168 741.089,403.168 741.089,282.208 333.824,282.208 333.824,403.168 
  "/>
<polyline clip-path="url(#clip1300)" style="stroke:#009af9; stroke-width:4; stroke-opacity:1; fill:none" points="
  365.824,342.688 557.824,342.688 
  "/>
<g clip-path="url(#clip1300)">
<text style="fill:#000000; fill-opacity:1; font-family:Symbol; font-size:52px; text-anchor:start;" transform="rotate(0, 589.824, 356.339)" x="589.824" y="356.339">λ</text>
</g>
<g clip-path="url(#clip1300)">
<text style="fill:#000000; fill-opacity:1; font-family:Arial,Helvetica Neue,Helvetica,sans-serif; font-size:48px; text-anchor:start;" transform="rotate(0, 618.269, 356.339)" x="618.269" y="356.339"> (t)</text>
</g>
</svg>
