<?xml version="1.0" encoding="utf-8"?>
<svg xmlns="http://www.w3.org/2000/svg" xmlns:xlink="http://www.w3.org/1999/xlink" width="800" height="500" viewBox="0 0 3200 2000">
<defs>
  <clipPath id="clip7400">
    <rect x="0" y="0" width="3200" height="2000"/>
  </clipPath>
</defs>
<polygon clip-path="url(#clip7400)" points="
0,2000 3200,2000 3200,0 0,0 
  " fill="#ffffff" fill-rule="evenodd" fill-opacity="1"/>
<defs>
  <clipPath id="clip7401">
    <rect x="640" y="0" width="2241" height="2000"/>
  </clipPath>
</defs>
<polygon clip-path="url(#clip7400)" points="
553.114,1649.5 2853.54,1649.5 2853.54,259.74 553.114,259.74 
  " fill="#ffffff" fill-rule="evenodd" fill-opacity="1"/>
<defs>
  <clipPath id="clip7402">
    <rect x="553" y="259" width="2301" height="1391"/>
  </clipPath>
</defs>
<polyline clip-path="url(#clip7402)" style="stroke:#000000; stroke-width:2; stroke-opacity:0.1; fill:none" points="
  616.713,1649.5 616.713,259.74 
  "/>
<polyline clip-path="url(#clip7402)" style="stroke:#000000; stroke-width:2; stroke-opacity:0.1; fill:none" points="
  978.667,1649.5 978.667,259.74 
  "/>
<polyline clip-path="url(#clip7402)" style="stroke:#000000; stroke-width:2; stroke-opacity:0.1; fill:none" points="
  1340.62,1649.5 1340.62,259.74 
  "/>
<polyline clip-path="url(#clip7402)" style="stroke:#000000; stroke-width:2; stroke-opacity:0.1; fill:none" points="
  1702.57,1649.5 1702.57,259.74 
  "/>
<polyline clip-path="url(#clip7402)" style="stroke:#000000; stroke-width:2; stroke-opacity:0.1; fill:none" points="
  2064.53,1649.5 2064.53,259.74 
  "/>
<polyline clip-path="url(#clip7402)" style="stroke:#000000; stroke-width:2; stroke-opacity:0.1; fill:none" points="
  2426.48,1649.5 2426.48,259.74 
  "/>
<polyline clip-path="url(#clip7402)" style="stroke:#000000; stroke-width:2; stroke-opacity:0.1; fill:none" points="
  2788.44,1649.5 2788.44,259.74 
  "/>
<polyline clip-path="url(#clip7402)" style="stroke:#000000; stroke-width:2; stroke-opacity:0.1; fill:none" points="
  553.114,1614.08 2853.54,1614.08 
  "/>
<polyline clip-path="url(#clip7402)" style="stroke:#000000; stroke-width:2; stroke-opacity:0.1; fill:none" points="
  553.114,1371.43 2853.54,1371.43 
  "/>
<polyline clip-path="url(#clip7402)" style="stroke:#000000; stroke-width:2; stroke-opacity:0.1; fill:none" points="
  553.114,1128.78 2853.54,1128.78 
  "/>
<polyline clip-path="url(#clip7402)" style="stroke:#000000; stroke-width:2; stroke-opacity:0.1; fill:none" points="
  553.114,886.128 2853.54,886.128 
  "/>
<polyline clip-path="url(#clip7402)" style="stroke:#000000; stroke-width:2; stroke-opacity:0.1; fill:none" points="
  553.114,643.479 2853.54,643.479 
  "/>
<polyline clip-path="url(#clip7402)" style="stroke:#000000; stroke-width:2; stroke-opacity:0.1; fill:none" points="
  553.114,400.829 2853.54,400.829 
  "/>
<polyline clip-path="url(#clip7400)" style="stroke:#000000; stroke-width:4; stroke-opacity:1; fill:none" points="
  553.114,1649.5 2853.54,1649.5 
  "/>
<polyline clip-path="url(#clip7400)" style="stroke:#000000; stroke-width:4; stroke-opacity:1; fill:none" points="
  553.114,1649.5 553.114,259.74 
  "/>
<polyline clip-path="url(#clip7400)" style="stroke:#000000; stroke-width:4; stroke-opacity:1; fill:none" points="
  616.713,1649.5 616.713,1628.65 
  "/>
<polyline clip-path="url(#clip7400)" style="stroke:#000000; stroke-width:4; stroke-opacity:1; fill:none" points="
  978.667,1649.5 978.667,1628.65 
  "/>
<polyline clip-path="url(#clip7400)" style="stroke:#000000; stroke-width:4; stroke-opacity:1; fill:none" points="
  1340.62,1649.5 1340.62,1628.65 
  "/>
<polyline clip-path="url(#clip7400)" style="stroke:#000000; stroke-width:4; stroke-opacity:1; fill:none" points="
  1702.57,1649.5 1702.57,1628.65 
  "/>
<polyline clip-path="url(#clip7400)" style="stroke:#000000; stroke-width:4; stroke-opacity:1; fill:none" points="
  2064.53,1649.5 2064.53,1628.65 
  "/>
<polyline clip-path="url(#clip7400)" style="stroke:#000000; stroke-width:4; stroke-opacity:1; fill:none" points="
  2426.48,1649.5 2426.48,1628.65 
  "/>
<polyline clip-path="url(#clip7400)" style="stroke:#000000; stroke-width:4; stroke-opacity:1; fill:none" points="
  2788.44,1649.5 2788.44,1628.65 
  "/>
<polyline clip-path="url(#clip7400)" style="stroke:#000000; stroke-width:4; stroke-opacity:1; fill:none" points="
  553.114,1614.08 587.621,1614.08 
  "/>
<polyline clip-path="url(#clip7400)" style="stroke:#000000; stroke-width:4; stroke-opacity:1; fill:none" points="
  553.114,1371.43 587.621,1371.43 
  "/>
<polyline clip-path="url(#clip7400)" style="stroke:#000000; stroke-width:4; stroke-opacity:1; fill:none" points="
  553.114,1128.78 587.621,1128.78 
  "/>
<polyline clip-path="url(#clip7400)" style="stroke:#000000; stroke-width:4; stroke-opacity:1; fill:none" points="
  553.114,886.128 587.621,886.128 
  "/>
<polyline clip-path="url(#clip7400)" style="stroke:#000000; stroke-width:4; stroke-opacity:1; fill:none" points="
  553.114,643.479 587.621,643.479 
  "/>
<polyline clip-path="url(#clip7400)" style="stroke:#000000; stroke-width:4; stroke-opacity:1; fill:none" points="
  553.114,400.829 587.621,400.829 
  "/>
<g clip-path="url(#clip7400)">
<text style="fill:#000000; fill-opacity:1; font-family:Arial,Helvetica Neue,Helvetica,sans-serif; font-size:71px; text-anchor:middle;" transform="rotate(0, 616.713, 1727.9)" x="616.713" y="1727.9">0</text>
</g>
<g clip-path="url(#clip7400)">
<text style="fill:#000000; fill-opacity:1; font-family:Arial,Helvetica Neue,Helvetica,sans-serif; font-size:71px; text-anchor:middle;" transform="rotate(0, 978.667, 1727.9)" x="978.667" y="1727.9">4</text>
</g>
<g clip-path="url(#clip7400)">
<text style="fill:#000000; fill-opacity:1; font-family:Arial,Helvetica Neue,Helvetica,sans-serif; font-size:71px; text-anchor:middle;" transform="rotate(0, 1340.62, 1727.9)" x="1340.62" y="1727.9">8</text>
</g>
<g clip-path="url(#clip7400)">
<text style="fill:#000000; fill-opacity:1; font-family:Arial,Helvetica Neue,Helvetica,sans-serif; font-size:71px; text-anchor:middle;" transform="rotate(0, 1702.57, 1727.9)" x="1702.57" y="1727.9">12</text>
</g>
<g clip-path="url(#clip7400)">
<text style="fill:#000000; fill-opacity:1; font-family:Arial,Helvetica Neue,Helvetica,sans-serif; font-size:71px; text-anchor:middle;" transform="rotate(0, 2064.53, 1727.9)" x="2064.53" y="1727.9">16</text>
</g>
<g clip-path="url(#clip7400)">
<text style="fill:#000000; fill-opacity:1; font-family:Arial,Helvetica Neue,Helvetica,sans-serif; font-size:71px; text-anchor:middle;" transform="rotate(0, 2426.48, 1727.9)" x="2426.48" y="1727.9">20</text>
</g>
<g clip-path="url(#clip7400)">
<text style="fill:#000000; fill-opacity:1; font-family:Arial,Helvetica Neue,Helvetica,sans-serif; font-size:71px; text-anchor:middle;" transform="rotate(0, 2788.44, 1727.9)" x="2788.44" y="1727.9">24</text>
</g>
<g clip-path="url(#clip7400)">
<text style="fill:#000000; fill-opacity:1; font-family:Arial,Helvetica Neue,Helvetica,sans-serif; font-size:71px; text-anchor:end;" transform="rotate(0, 521.114, 1640.08)" x="521.114" y="1640.08">0</text>
</g>
<g clip-path="url(#clip7400)">
<text style="fill:#000000; fill-opacity:1; font-family:Arial,Helvetica Neue,Helvetica,sans-serif; font-size:71px; text-anchor:end;" transform="rotate(0, 521.114, 1397.43)" x="521.114" y="1397.43">10</text>
</g>
<g clip-path="url(#clip7400)">
<text style="fill:#000000; fill-opacity:1; font-family:Arial,Helvetica Neue,Helvetica,sans-serif; font-size:71px; text-anchor:end;" transform="rotate(0, 521.114, 1154.78)" x="521.114" y="1154.78">20</text>
</g>
<g clip-path="url(#clip7400)">
<text style="fill:#000000; fill-opacity:1; font-family:Arial,Helvetica Neue,Helvetica,sans-serif; font-size:71px; text-anchor:end;" transform="rotate(0, 521.114, 912.128)" x="521.114" y="912.128">30</text>
</g>
<g clip-path="url(#clip7400)">
<text style="fill:#000000; fill-opacity:1; font-family:Arial,Helvetica Neue,Helvetica,sans-serif; font-size:71px; text-anchor:end;" transform="rotate(0, 521.114, 669.479)" x="521.114" y="669.479">40</text>
</g>
<g clip-path="url(#clip7400)">
<text style="fill:#000000; fill-opacity:1; font-family:Arial,Helvetica Neue,Helvetica,sans-serif; font-size:71px; text-anchor:end;" transform="rotate(0, 521.114, 426.829)" x="521.114" y="426.829">50</text>
</g>
<g clip-path="url(#clip7400)">
<text style="fill:#000000; fill-opacity:1; font-family:Arial,Helvetica Neue,Helvetica,sans-serif; font-size:82px; text-anchor:middle;" transform="rotate(0, 1703.33, 72)" x="1703.33" y="72">Problem Data for Citi Bike Docking Station</text>
</g>
<g clip-path="url(#clip7400)">
<text style="fill:#000000; fill-opacity:1; font-family:Arial,Helvetica Neue,Helvetica,sans-serif; font-size:95px; text-anchor:middle;" transform="rotate(0, 1703.33, 1843.75)" x="1703.33" y="1843.75">Time (hours)</text>
</g>
<g clip-path="url(#clip7400)">
<text style="fill:#000000; fill-opacity:1; font-family:Arial,Helvetica Neue,Helvetica,sans-serif; font-size:95px; text-anchor:middle;" transform="rotate(-90, 391.028, 954.618)" x="391.028" y="954.618">Rate (1/hour)</text>
</g>
<polyline clip-path="url(#clip7402)" style="stroke:#009af9; stroke-width:4; stroke-opacity:1; fill:none" points="
  618.221,1598.55 619.729,1598.68 621.237,1598.81 622.745,1598.94 624.253,1599.08 625.762,1599.21 627.27,1599.34 628.778,1599.47 630.286,1599.6 631.794,1599.73 
  633.302,1599.86 634.81,1599.99 636.319,1600.12 637.827,1600.25 639.335,1600.38 640.843,1600.51 642.351,1600.64 643.859,1600.77 645.367,1600.9 646.876,1601.03 
  648.384,1601.16 649.892,1601.29 651.4,1601.42 652.908,1601.55 654.416,1601.68 655.924,1601.81 657.433,1601.95 658.941,1602.08 660.449,1602.21 661.957,1602.34 
  663.465,1602.47 664.973,1602.6 666.481,1602.73 667.99,1602.86 669.498,1602.99 671.006,1603.12 672.514,1603.25 674.022,1603.38 675.53,1603.51 677.038,1603.64 
  678.547,1603.77 680.055,1603.9 681.563,1604.03 683.071,1604.16 684.579,1604.29 686.087,1604.42 687.595,1604.55 689.104,1604.68 690.612,1604.82 692.12,1604.95 
  693.628,1605.08 695.136,1605.21 696.644,1605.34 698.152,1605.47 699.661,1605.6 701.169,1605.73 702.677,1605.86 704.185,1605.99 705.693,1606.12 707.201,1606.25 
  708.709,1606.29 710.218,1606.33 711.726,1606.37 713.234,1606.41 714.742,1606.45 716.25,1606.49 717.758,1606.52 719.266,1606.56 720.775,1606.6 722.283,1606.64 
  723.791,1606.68 725.299,1606.72 726.807,1606.76 728.315,1606.8 729.823,1606.84 731.332,1606.88 732.84,1606.92 734.348,1606.95 735.856,1606.99 737.364,1607.03 
  738.872,1607.07 740.38,1607.11 741.889,1607.15 743.397,1607.19 744.905,1607.23 746.413,1607.27 747.921,1607.31 749.429,1607.35 750.937,1607.39 752.446,1607.42 
  753.954,1607.46 755.462,1607.5 756.97,1607.54 758.478,1607.58 759.986,1607.62 761.494,1607.66 763.003,1607.7 764.511,1607.74 766.019,1607.78 767.527,1607.82 
  769.035,1607.86 770.543,1607.89 772.051,1607.93 773.56,1607.97 775.068,1608.01 776.576,1608.05 778.084,1608.09 779.592,1608.13 781.1,1608.17 782.608,1608.21 
  784.116,1608.25 785.625,1608.29 787.133,1608.32 788.641,1608.36 790.149,1608.4 791.657,1608.44 793.165,1608.48 794.673,1608.52 796.182,1608.56 797.69,1608.6 
  799.198,1608.62 800.706,1608.65 802.214,1608.68 803.722,1608.7 805.23,1608.73 806.739,1608.76 808.247,1608.78 809.755,1608.81 811.263,1608.83 812.771,1608.86 
  814.279,1608.89 815.787,1608.91 817.296,1608.94 818.804,1608.96 820.312,1608.99 821.82,1609.02 823.328,1609.04 824.836,1609.07 826.344,1609.09 827.853,1609.12 
  829.361,1609.15 830.869,1609.17 832.377,1609.2 833.885,1609.22 835.393,1609.25 836.901,1609.28 838.41,1609.3 839.918,1609.33 841.426,1609.36 842.934,1609.38 
  844.442,1609.41 845.95,1609.43 847.458,1609.46 848.967,1609.49 850.475,1609.51 851.983,1609.54 853.491,1609.56 854.999,1609.59 856.507,1609.62 858.015,1609.64 
  859.524,1609.67 861.032,1609.69 862.54,1609.72 864.048,1609.75 865.556,1609.77 867.064,1609.8 868.572,1609.82 870.081,1609.85 871.589,1609.88 873.097,1609.9 
  874.605,1609.93 876.113,1609.96 877.621,1609.98 879.129,1610.01 880.638,1610.03 882.146,1610.06 883.654,1610.09 885.162,1610.11 886.67,1610.14 888.178,1610.16 
  889.686,1610.07 891.195,1609.98 892.703,1609.89 894.211,1609.8 895.719,1609.71 897.227,1609.62 898.735,1609.52 900.243,1609.43 901.752,1609.34 903.26,1609.25 
  904.768,1609.16 906.276,1609.07 907.784,1608.98 909.292,1608.89 910.8,1608.79 912.309,1608.7 913.817,1608.61 915.325,1608.52 916.833,1608.43 918.341,1608.34 
  919.849,1608.25 921.357,1608.16 922.866,1608.06 924.374,1607.97 925.882,1607.88 927.39,1607.79 928.898,1607.7 930.406,1607.61 931.914,1607.52 933.423,1607.42 
  934.931,1607.33 936.439,1607.24 937.947,1607.15 939.455,1607.06 940.963,1606.97 942.471,1606.88 943.98,1606.79 945.488,1606.69 946.996,1606.6 948.504,1606.51 
  950.012,1606.42 951.52,1606.33 953.028,1606.24 954.537,1606.15 956.045,1606.05 957.553,1605.96 959.061,1605.87 960.569,1605.78 962.077,1605.69 963.585,1605.6 
  965.093,1605.51 966.602,1605.42 968.11,1605.32 969.618,1605.23 971.126,1605.14 972.634,1605.05 974.142,1604.96 975.65,1604.87 977.159,1604.78 978.667,1604.68 
  980.175,1603.51 981.683,1602.34 983.191,1601.16 984.699,1599.99 986.207,1598.81 987.716,1597.64 989.224,1596.47 990.732,1595.29 992.24,1594.12 993.748,1592.94 
  995.256,1591.77 996.764,1590.6 998.273,1589.42 999.781,1588.25 1001.29,1587.07 1002.8,1585.9 1004.31,1584.73 1005.81,1583.55 1007.32,1582.38 1008.83,1581.2 
  1010.34,1580.03 1011.85,1578.85 1013.35,1577.68 1014.86,1576.51 1016.37,1575.33 1017.88,1574.16 1019.39,1572.98 1020.89,1571.81 1022.4,1570.64 1023.91,1569.46 
  1025.42,1568.29 1026.93,1567.11 1028.44,1565.94 1029.94,1564.77 1031.45,1563.59 1032.96,1562.42 1034.47,1561.24 1035.98,1560.07 1037.48,1558.89 1038.99,1557.72 
  1040.5,1556.55 1042.01,1555.37 1043.52,1554.2 1045.03,1553.02 1046.53,1551.85 1048.04,1550.68 1049.55,1549.5 1051.06,1548.33 1052.57,1547.15 1054.07,1545.98 
  1055.58,1544.81 1057.09,1543.63 1058.6,1542.46 1060.11,1541.28 1061.61,1540.11 1063.12,1538.93 1064.63,1537.76 1066.14,1536.59 1067.65,1535.41 1069.16,1534.24 
  1070.66,1530.94 1072.17,1527.64 1073.68,1524.34 1075.19,1521.04 1076.7,1517.74 1078.2,1514.43 1079.71,1511.13 1081.22,1507.83 1082.73,1504.53 1084.24,1501.23 
  1085.74,1497.93 1087.25,1494.63 1088.76,1491.33 1090.27,1488.03 1091.78,1484.73 1093.29,1481.43 1094.79,1478.13 1096.3,1474.83 1097.81,1471.53 1099.32,1468.23 
  1100.83,1464.93 1102.33,1461.63 1103.84,1458.33 1105.35,1455.02 1106.86,1451.72 1108.37,1448.42 1109.88,1445.12 1111.38,1441.82 1112.89,1438.52 1114.4,1435.22 
  1115.91,1431.92 1117.42,1428.62 1118.92,1425.32 1120.43,1422.02 1121.94,1418.72 1123.45,1415.42 1124.96,1412.12 1126.46,1408.82 1127.97,1405.52 1129.48,1402.22 
  1130.99,1398.92 1132.5,1395.61 1134.01,1392.31 1135.51,1389.01 1137.02,1385.71 1138.53,1382.41 1140.04,1379.11 1141.55,1375.81 1143.05,1372.51 1144.56,1369.21 
  1146.07,1365.91 1147.58,1362.61 1149.09,1359.31 1150.59,1356.01 1152.1,1352.71 1153.61,1349.41 1155.12,1346.11 1156.63,1342.81 1158.14,1339.51 1159.64,1336.2 
  1161.15,1326.62 1162.66,1317.03 1164.17,1307.44 1165.68,1297.85 1167.18,1288.26 1168.69,1278.67 1170.2,1269.08 1171.71,1259.5 1173.22,1249.91 1174.73,1240.32 
  1176.23,1230.73 1177.74,1221.14 1179.25,1211.55 1180.76,1201.96 1182.27,1192.38 1183.77,1182.79 1185.28,1173.2 1186.79,1163.61 1188.3,1154.02 1189.81,1144.43 
  1191.31,1134.84 1192.82,1125.26 1194.33,1115.67 1195.84,1106.08 1197.35,1096.49 1198.86,1086.9 1200.36,1077.31 1201.87,1067.72 1203.38,1058.14 1204.89,1048.55 
  1206.4,1038.96 1207.9,1029.37 1209.41,1019.78 1210.92,1010.19 1212.43,1000.6 1213.94,991.016 1215.45,981.427 1216.95,971.839 1218.46,962.25 1219.97,952.661 
  1221.48,943.073 1222.99,933.484 1224.49,923.896 1226,914.307 1227.51,904.719 1229.02,895.13 1230.53,885.541 1232.03,875.953 1233.54,866.364 1235.05,856.776 
  1236.56,847.187 1238.07,837.598 1239.58,828.01 1241.08,818.421 1242.59,808.833 1244.1,799.244 1245.61,789.656 1247.12,780.067 1248.62,770.478 1250.13,760.89 
  1251.64,753.193 1253.15,745.496 1254.66,737.799 1256.16,730.102 1257.67,722.405 1259.18,714.708 1260.69,707.011 1262.2,699.314 1263.71,691.617 1265.21,683.92 
  1266.72,676.223 1268.23,668.526 1269.74,660.829 1271.25,653.132 1272.75,645.436 1274.26,637.739 1275.77,630.042 1277.28,622.345 1278.79,614.648 1280.3,606.951 
  1281.8,599.254 1283.31,591.557 1284.82,583.86 1286.33,576.163 1287.84,568.466 1289.34,560.769 1290.85,553.072 1292.36,545.375 1293.87,537.678 1295.38,529.981 
  1296.88,522.284 1298.39,514.587 1299.9,506.89 1301.41,499.193 1302.92,491.496 1304.43,483.799 1305.93,476.102 1307.44,468.406 1308.95,460.709 1310.46,453.012 
  1311.97,445.315 1313.47,437.618 1314.98,429.921 1316.49,422.224 1318,414.527 1319.51,406.83 1321.01,399.133 1322.52,391.436 1324.03,383.739 1325.54,376.042 
  1327.05,368.345 1328.56,360.648 1330.06,352.951 1331.57,345.254 1333.08,337.557 1334.59,329.86 1336.1,322.163 1337.6,314.466 1339.11,306.769 1340.62,299.072 
  1342.13,313.253 1343.64,327.434 1345.15,341.614 1346.65,355.795 1348.16,369.976 1349.67,384.156 1351.18,398.337 1352.69,412.518 1354.19,426.698 1355.7,440.879 
  1357.21,455.06 1358.72,469.24 1360.23,483.421 1361.73,497.602 1363.24,511.782 1364.75,525.963 1366.26,540.144 1367.77,554.324 1369.28,568.505 1370.78,582.686 
  1372.29,596.866 1373.8,611.047 1375.31,625.228 1376.82,639.408 1378.32,653.589 1379.83,667.77 1381.34,681.95 1382.85,696.131 1384.36,710.312 1385.87,724.492 
  1387.37,738.673 1388.88,752.854 1390.39,767.034 1391.9,781.215 1393.41,795.396 1394.91,809.576 1396.42,823.757 1397.93,837.938 1399.44,852.118 1400.95,866.299 
  1402.45,880.48 1403.96,894.66 1405.47,908.841 1406.98,923.022 1408.49,937.202 1410,951.383 1411.5,965.564 1413.01,979.744 1414.52,993.925 1416.03,1008.11 
  1417.54,1022.29 1419.04,1036.47 1420.55,1050.65 1422.06,1064.83 1423.57,1079.01 1425.08,1093.19 1426.58,1107.37 1428.09,1121.55 1429.6,1135.73 1431.11,1149.91 
  1432.62,1153.33 1434.13,1156.75 1435.63,1160.17 1437.14,1163.58 1438.65,1167 1440.16,1170.42 1441.67,1173.84 1443.17,1177.26 1444.68,1180.67 1446.19,1184.09 
  1447.7,1187.51 1449.21,1190.93 1450.72,1194.35 1452.22,1197.76 1453.73,1201.18 1455.24,1204.6 1456.75,1208.02 1458.26,1211.44 1459.76,1214.85 1461.27,1218.27 
  1462.78,1221.69 1464.29,1225.11 1465.8,1228.53 1467.3,1231.94 1468.81,1235.36 1470.32,1238.78 1471.83,1242.2 1473.34,1245.62 1474.85,1249.03 1476.35,1252.45 
  1477.86,1255.87 1479.37,1259.29 1480.88,1262.71 1482.39,1266.12 1483.89,1269.54 1485.4,1272.96 1486.91,1276.38 1488.42,1279.8 1489.93,1283.21 1491.43,1286.63 
  1492.94,1290.05 1494.45,1293.47 1495.96,1296.89 1497.47,1300.3 1498.98,1303.72 1500.48,1307.14 1501.99,1310.56 1503.5,1313.97 1505.01,1317.39 1506.52,1320.81 
  1508.02,1324.23 1509.53,1327.65 1511.04,1331.06 1512.55,1334.48 1514.06,1337.9 1515.57,1341.32 1517.07,1344.74 1518.58,1348.15 1520.09,1351.57 1521.6,1354.99 
  1523.11,1355.79 1524.61,1356.58 1526.12,1357.38 1527.63,1358.17 1529.14,1358.97 1530.65,1359.77 1532.15,1360.56 1533.66,1361.36 1535.17,1362.15 1536.68,1362.95 
  1538.19,1363.74 1539.7,1364.54 1541.2,1365.34 1542.71,1366.13 1544.22,1366.93 1545.73,1367.72 1547.24,1368.52 1548.74,1369.31 1550.25,1370.11 1551.76,1370.91 
  1553.27,1371.7 1554.78,1372.5 1556.29,1373.29 1557.79,1374.09 1559.3,1374.89 1560.81,1375.68 1562.32,1376.48 1563.83,1377.27 1565.33,1378.07 1566.84,1378.86 
  1568.35,1379.66 1569.86,1380.46 1571.37,1381.25 1572.87,1382.05 1574.38,1382.84 1575.89,1383.64 1577.4,1384.43 1578.91,1385.23 1580.42,1386.03 1581.92,1386.82 
  1583.43,1387.62 1584.94,1388.41 1586.45,1389.21 1587.96,1390.01 1589.46,1390.8 1590.97,1391.6 1592.48,1392.39 1593.99,1393.19 1595.5,1393.98 1597,1394.78 
  1598.51,1395.58 1600.02,1396.37 1601.53,1397.17 1603.04,1397.96 1604.55,1398.76 1606.05,1399.55 1607.56,1400.35 1609.07,1401.15 1610.58,1401.94 1612.09,1402.74 
  1613.59,1403.69 1615.1,1404.64 1616.61,1405.59 1618.12,1406.55 1619.63,1407.5 1621.14,1408.45 1622.64,1409.4 1624.15,1410.36 1625.66,1411.31 1627.17,1412.26 
  1628.68,1413.21 1630.18,1414.17 1631.69,1415.12 1633.2,1416.07 1634.71,1417.02 1636.22,1417.98 1637.72,1418.93 1639.23,1419.88 1640.74,1420.83 1642.25,1421.78 
  1643.76,1422.74 1645.27,1423.69 1646.77,1424.64 1648.28,1425.59 1649.79,1426.55 1651.3,1427.5 1652.81,1428.45 1654.31,1429.4 1655.82,1430.36 1657.33,1431.31 
  1658.84,1432.26 1660.35,1433.21 1661.85,1434.16 1663.36,1435.12 1664.87,1436.07 1666.38,1437.02 1667.89,1437.97 1669.4,1438.93 1670.9,1439.88 1672.41,1440.83 
  1673.92,1441.78 1675.43,1442.74 1676.94,1443.69 1678.44,1444.64 1679.95,1445.59 1681.46,1446.55 1682.97,1447.5 1684.48,1448.45 1685.99,1449.4 1687.49,1450.35 
  1689,1451.31 1690.51,1452.26 1692.02,1453.21 1693.53,1454.16 1695.03,1455.12 1696.54,1456.07 1698.05,1457.02 1699.56,1457.97 1701.07,1458.93 1702.57,1459.88 
  1704.08,1460.23 1705.59,1460.58 1707.1,1460.93 1708.61,1461.29 1710.12,1461.64 1711.62,1461.99 1713.13,1462.34 1714.64,1462.7 1716.15,1463.05 1717.66,1463.4 
  1719.16,1463.75 1720.67,1464.1 1722.18,1464.46 1723.69,1464.81 1725.2,1465.16 1726.71,1465.51 1728.21,1465.87 1729.72,1466.22 1731.23,1466.57 1732.74,1466.92 
  1734.25,1467.27 1735.75,1467.63 1737.26,1467.98 1738.77,1468.33 1740.28,1468.68 1741.79,1469.04 1743.29,1469.39 1744.8,1469.74 1746.31,1470.09 1747.82,1470.44 
  1749.33,1470.8 1750.84,1471.15 1752.34,1471.5 1753.85,1471.85 1755.36,1472.21 1756.87,1472.56 1758.38,1472.91 1759.88,1473.26 1761.39,1473.61 1762.9,1473.97 
  1764.41,1474.32 1765.92,1474.67 1767.42,1475.02 1768.93,1475.38 1770.44,1475.73 1771.95,1476.08 1773.46,1476.43 1774.97,1476.79 1776.47,1477.14 1777.98,1477.49 
  1779.49,1477.84 1781,1478.19 1782.51,1478.55 1784.01,1478.9 1785.52,1479.25 1787.03,1479.6 1788.54,1479.96 1790.05,1480.31 1791.56,1480.66 1793.06,1481.01 
  1794.57,1481.05 1796.08,1481.09 1797.59,1481.13 1799.1,1481.17 1800.6,1481.21 1802.11,1481.25 1803.62,1481.29 1805.13,1481.32 1806.64,1481.36 1808.14,1481.4 
  1809.65,1481.44 1811.16,1481.48 1812.67,1481.52 1814.18,1481.56 1815.69,1481.6 1817.19,1481.64 1818.7,1481.68 1820.21,1481.72 1821.72,1481.76 1823.23,1481.79 
  1824.73,1481.83 1826.24,1481.87 1827.75,1481.91 1829.26,1481.95 1830.77,1481.99 1832.27,1482.03 1833.78,1482.07 1835.29,1482.11 1836.8,1482.15 1838.31,1482.19 
  1839.82,1482.23 1841.32,1482.26 1842.83,1482.3 1844.34,1482.34 1845.85,1482.38 1847.36,1482.42 1848.86,1482.46 1850.37,1482.5 1851.88,1482.54 1853.39,1482.58 
  1854.9,1482.62 1856.41,1482.66 1857.91,1482.69 1859.42,1482.73 1860.93,1482.77 1862.44,1482.81 1863.95,1482.85 1865.45,1482.89 1866.96,1482.93 1868.47,1482.97 
  1869.98,1483.01 1871.49,1483.05 1872.99,1483.09 1874.5,1483.13 1876.01,1483.16 1877.52,1483.2 1879.03,1483.24 1880.54,1483.28 1882.04,1483.32 1883.55,1483.36 
  1885.06,1483.26 1886.57,1483.15 1888.08,1483.05 1889.58,1482.94 1891.09,1482.84 1892.6,1482.73 1894.11,1482.63 1895.62,1482.53 1897.13,1482.42 1898.63,1482.32 
  1900.14,1482.21 1901.65,1482.11 1903.16,1482 1904.67,1481.9 1906.17,1481.79 1907.68,1481.69 1909.19,1481.59 1910.7,1481.48 1912.21,1481.38 1913.71,1481.27 
  1915.22,1481.17 1916.73,1481.06 1918.24,1480.96 1919.75,1480.86 1921.26,1480.75 1922.76,1480.65 1924.27,1480.54 1925.78,1480.44 1927.29,1480.33 1928.8,1480.23 
  1930.3,1480.12 1931.81,1480.02 1933.32,1479.92 1934.83,1479.81 1936.34,1479.71 1937.84,1479.6 1939.35,1479.5 1940.86,1479.39 1942.37,1479.29 1943.88,1479.19 
  1945.39,1479.08 1946.89,1478.98 1948.4,1478.87 1949.91,1478.77 1951.42,1478.66 1952.93,1478.56 1954.43,1478.45 1955.94,1478.35 1957.45,1478.25 1958.96,1478.14 
  1960.47,1478.04 1961.98,1477.93 1963.48,1477.83 1964.99,1477.72 1966.5,1477.62 1968.01,1477.52 1969.52,1477.41 1971.02,1477.31 1972.53,1477.2 1974.04,1477.1 
  1975.55,1476.37 1977.06,1475.64 1978.56,1474.91 1980.07,1474.18 1981.58,1473.45 1983.09,1472.71 1984.6,1471.98 1986.11,1471.25 1987.61,1470.52 1989.12,1469.79 
  1990.63,1469.06 1992.14,1468.33 1993.65,1467.6 1995.15,1466.87 1996.66,1466.14 1998.17,1465.41 1999.68,1464.68 2001.19,1463.95 2002.69,1463.22 2004.2,1462.49 
  2005.71,1461.76 2007.22,1461.03 2008.73,1460.3 2010.24,1459.56 2011.74,1458.83 2013.25,1458.1 2014.76,1457.37 2016.27,1456.64 2017.78,1455.91 2019.28,1455.18 
  2020.79,1454.45 2022.3,1453.72 2023.81,1452.99 2025.32,1452.26 2026.83,1451.53 2028.33,1450.8 2029.84,1450.07 2031.35,1449.34 2032.86,1448.61 2034.37,1447.88 
  2035.87,1447.15 2037.38,1446.41 2038.89,1445.68 2040.4,1444.95 2041.91,1444.22 2043.41,1443.49 2044.92,1442.76 2046.43,1442.03 2047.94,1441.3 2049.45,1440.57 
  2050.96,1439.84 2052.46,1439.11 2053.97,1438.38 2055.48,1437.65 2056.99,1436.92 2058.5,1436.19 2060,1435.46 2061.51,1434.73 2063.02,1434 2064.53,1433.26 
  2066.04,1432.4 2067.55,1431.54 2069.05,1430.68 2070.56,1429.82 2072.07,1428.96 2073.58,1428.1 2075.09,1427.24 2076.59,1426.38 2078.1,1425.52 2079.61,1424.65 
  2081.12,1423.79 2082.63,1422.93 2084.13,1422.07 2085.64,1421.21 2087.15,1420.35 2088.66,1419.49 2090.17,1418.63 2091.68,1417.77 2093.18,1416.91 2094.69,1416.04 
  2096.2,1415.18 2097.71,1414.32 2099.22,1413.46 2100.72,1412.6 2102.23,1411.74 2103.74,1410.88 2105.25,1410.02 2106.76,1409.16 2108.26,1408.3 2109.77,1407.43 
  2111.28,1406.57 2112.79,1405.71 2114.3,1404.85 2115.81,1403.99 2117.31,1403.13 2118.82,1402.27 2120.33,1401.41 2121.84,1400.55 2123.35,1399.69 2124.85,1398.82 
  2126.36,1397.96 2127.87,1397.1 2129.38,1396.24 2130.89,1395.38 2132.4,1394.52 2133.9,1393.66 2135.41,1392.8 2136.92,1391.94 2138.43,1391.07 2139.94,1390.21 
  2141.44,1389.35 2142.95,1388.49 2144.46,1387.63 2145.97,1386.77 2147.48,1385.91 2148.98,1385.05 2150.49,1384.19 2152,1383.33 2153.51,1382.46 2155.02,1381.6 
  2156.53,1381.68 2158.03,1381.76 2159.54,1381.84 2161.05,1381.92 2162.56,1382 2164.07,1382.07 2165.57,1382.15 2167.08,1382.23 2168.59,1382.31 2170.1,1382.39 
  2171.61,1382.46 2173.12,1382.54 2174.62,1382.62 2176.13,1382.7 2177.64,1382.78 2179.15,1382.86 2180.66,1382.93 2182.16,1383.01 2183.67,1383.09 2185.18,1383.17 
  2186.69,1383.25 2188.2,1383.33 2189.7,1383.4 2191.21,1383.48 2192.72,1383.56 2194.23,1383.64 2195.74,1383.72 2197.25,1383.8 2198.75,1383.87 2200.26,1383.95 
  2201.77,1384.03 2203.28,1384.11 2204.79,1384.19 2206.29,1384.27 2207.8,1384.34 2209.31,1384.42 2210.82,1384.5 2212.33,1384.58 2213.83,1384.66 2215.34,1384.73 
  2216.85,1384.81 2218.36,1384.89 2219.87,1384.97 2221.38,1385.05 2222.88,1385.13 2224.39,1385.2 2225.9,1385.28 2227.41,1385.36 2228.92,1385.44 2230.42,1385.52 
  2231.93,1385.6 2233.44,1385.67 2234.95,1385.75 2236.46,1385.83 2237.97,1385.91 2239.47,1385.99 2240.98,1386.07 2242.49,1386.14 2244,1386.22 2245.51,1386.3 
  2247.01,1386.67 2248.52,1387.03 2250.03,1387.4 2251.54,1387.76 2253.05,1388.13 2254.55,1388.49 2256.06,1388.86 2257.57,1389.22 2259.08,1389.59 2260.59,1389.95 
  2262.1,1390.32 2263.6,1390.68 2265.11,1391.05 2266.62,1391.41 2268.13,1391.78 2269.64,1392.14 2271.14,1392.51 2272.65,1392.88 2274.16,1393.24 2275.67,1393.61 
  2277.18,1393.97 2278.68,1394.34 2280.19,1394.7 2281.7,1395.07 2283.21,1395.43 2284.72,1395.8 2286.23,1396.16 2287.73,1396.53 2289.24,1396.89 2290.75,1397.26 
  2292.26,1397.62 2293.77,1397.99 2295.27,1398.35 2296.78,1398.72 2298.29,1399.08 2299.8,1399.45 2301.31,1399.82 2302.82,1400.18 2304.32,1400.55 2305.83,1400.91 
  2307.34,1401.28 2308.85,1401.64 2310.36,1402.01 2311.86,1402.37 2313.37,1402.74 2314.88,1403.1 2316.39,1403.47 2317.9,1403.83 2319.4,1404.2 2320.91,1404.56 
  2322.42,1404.93 2323.93,1405.29 2325.44,1405.66 2326.95,1406.03 2328.45,1406.39 2329.96,1406.76 2331.47,1407.12 2332.98,1407.49 2334.49,1407.85 2335.99,1408.22 
  2337.5,1409.16 2339.01,1410.1 2340.52,1411.03 2342.03,1411.97 2343.54,1412.91 2345.04,1413.85 2346.55,1414.79 2348.06,1415.73 2349.57,1416.67 2351.08,1417.61 
  2352.58,1418.55 2354.09,1419.49 2355.6,1420.43 2357.11,1421.37 2358.62,1422.31 2360.12,1423.25 2361.63,1424.18 2363.14,1425.12 2364.65,1426.06 2366.16,1427 
  2367.67,1427.94 2369.17,1428.88 2370.68,1429.82 2372.19,1430.76 2373.7,1431.7 2375.21,1432.64 2376.71,1433.58 2378.22,1434.52 2379.73,1435.46 2381.24,1436.4 
  2382.75,1437.33 2384.25,1438.27 2385.76,1439.21 2387.27,1440.15 2388.78,1441.09 2390.29,1442.03 2391.8,1442.97 2393.3,1443.91 2394.81,1444.85 2396.32,1445.79 
  2397.83,1446.73 2399.34,1447.67 2400.84,1448.61 2402.35,1449.55 2403.86,1450.48 2405.37,1451.42 2406.88,1452.36 2408.39,1453.3 2409.89,1454.24 2411.4,1455.18 
  2412.91,1456.12 2414.42,1457.06 2415.93,1458 2417.43,1458.94 2418.94,1459.88 2420.45,1460.82 2421.96,1461.76 2423.47,1462.7 2424.97,1463.63 2426.48,1464.57 
  2427.99,1465.47 2429.5,1466.37 2431.01,1467.27 2432.52,1468.17 2434.02,1469.08 2435.53,1469.98 2437.04,1470.88 2438.55,1471.78 2440.06,1472.68 2441.56,1473.58 
  2443.07,1474.48 2444.58,1475.38 2446.09,1476.28 2447.6,1477.18 2449.1,1478.08 2450.61,1478.98 2452.12,1479.88 2453.63,1480.78 2455.14,1481.68 2456.65,1482.58 
  2458.15,1483.48 2459.66,1484.38 2461.17,1485.28 2462.68,1486.18 2464.19,1487.08 2465.69,1487.98 2467.2,1488.88 2468.71,1489.78 2470.22,1490.68 2471.73,1491.58 
  2473.24,1492.48 2474.74,1493.38 2476.25,1494.28 2477.76,1495.18 2479.27,1496.08 2480.78,1496.98 2482.28,1497.88 2483.79,1498.78 2485.3,1499.68 2486.81,1500.58 
  2488.32,1501.48 2489.82,1502.38 2491.33,1503.28 2492.84,1504.18 2494.35,1505.08 2495.86,1505.98 2497.37,1506.88 2498.87,1507.78 2500.38,1508.68 2501.89,1509.58 
  2503.4,1510.48 2504.91,1511.38 2506.41,1512.28 2507.92,1513.18 2509.43,1514.08 2510.94,1514.98 2512.45,1515.88 2513.96,1516.78 2515.46,1517.68 2516.97,1518.58 
  2518.48,1519.34 2519.99,1520.1 2521.5,1520.85 2523,1521.61 2524.51,1522.37 2526.02,1523.12 2527.53,1523.88 2529.04,1524.64 2530.54,1525.39 2532.05,1526.15 
  2533.56,1526.91 2535.07,1527.66 2536.58,1528.42 2538.09,1529.18 2539.59,1529.93 2541.1,1530.69 2542.61,1531.45 2544.12,1532.2 2545.63,1532.96 2547.13,1533.72 
  2548.64,1534.47 2550.15,1535.23 2551.66,1535.99 2553.17,1536.74 2554.67,1537.5 2556.18,1538.26 2557.69,1539.01 2559.2,1539.77 2560.71,1540.53 2562.22,1541.28 
  2563.72,1542.04 2565.23,1542.8 2566.74,1543.55 2568.25,1544.31 2569.76,1545.07 2571.26,1545.82 2572.77,1546.58 2574.28,1547.34 2575.79,1548.09 2577.3,1548.85 
  2578.81,1549.61 2580.31,1550.36 2581.82,1551.12 2583.33,1551.88 2584.84,1552.63 2586.35,1553.39 2587.85,1554.15 2589.36,1554.9 2590.87,1555.66 2592.38,1556.42 
  2593.89,1557.17 2595.39,1557.93 2596.9,1558.69 2598.41,1559.44 2599.92,1560.2 2601.43,1560.96 2602.94,1561.71 2604.44,1562.47 2605.95,1563.23 2607.46,1563.98 
  2608.97,1564.33 2610.48,1564.69 2611.98,1565.04 2613.49,1565.39 2615,1565.74 2616.51,1566.1 2618.02,1566.45 2619.52,1566.8 2621.03,1567.15 2622.54,1567.5 
  2624.05,1567.86 2625.56,1568.21 2627.07,1568.56 2628.57,1568.91 2630.08,1569.27 2631.59,1569.62 2633.1,1569.97 2634.61,1570.32 2636.11,1570.67 2637.62,1571.03 
  2639.13,1571.38 2640.64,1571.73 2642.15,1572.08 2643.66,1572.44 2645.16,1572.79 2646.67,1573.14 2648.18,1573.49 2649.69,1573.84 2651.2,1574.2 2652.7,1574.55 
  2654.21,1574.9 2655.72,1575.25 2657.23,1575.61 2658.74,1575.96 2660.24,1576.31 2661.75,1576.66 2663.26,1577.02 2664.77,1577.37 2666.28,1577.72 2667.79,1578.07 
  2669.29,1578.42 2670.8,1578.78 2672.31,1579.13 2673.82,1579.48 2675.33,1579.83 2676.83,1580.19 2678.34,1580.54 2679.85,1580.89 2681.36,1581.24 2682.87,1581.59 
  2684.38,1581.95 2685.88,1582.3 2687.39,1582.65 2688.9,1583 2690.41,1583.36 2691.92,1583.71 2693.42,1584.06 2694.93,1584.41 2696.44,1584.76 2697.95,1585.12 
  2699.46,1585.34 2700.96,1585.56 2702.47,1585.78 2703.98,1586 2705.49,1586.23 2707,1586.45 2708.51,1586.67 2710.01,1586.89 2711.52,1587.11 2713.03,1587.33 
  2714.54,1587.56 2716.05,1587.78 2717.55,1588 2719.06,1588.22 2720.57,1588.44 2722.08,1588.66 2723.59,1588.89 2725.09,1589.11 2726.6,1589.33 2728.11,1589.55 
  2729.62,1589.77 2731.13,1590 2732.64,1590.22 2734.14,1590.44 2735.65,1590.66 2737.16,1590.88 2738.67,1591.1 2740.18,1591.33 2741.68,1591.55 2743.19,1591.77 
  2744.7,1591.99 2746.21,1592.21 2747.72,1592.44 2749.23,1592.66 2750.73,1592.88 2752.24,1593.1 2753.75,1593.32 2755.26,1593.54 2756.77,1593.77 2758.27,1593.99 
  2759.78,1594.21 2761.29,1594.43 2762.8,1594.65 2764.31,1594.87 2765.81,1595.1 2767.32,1595.32 2768.83,1595.54 2770.34,1595.76 2771.85,1595.98 2773.36,1596.21 
  2774.86,1596.43 2776.37,1596.65 2777.88,1596.87 2779.39,1597.09 2780.9,1597.31 2782.4,1597.54 2783.91,1597.76 2785.42,1597.98 2786.93,1598.2 2788.44,1598.42 
  
  "/>
<polyline clip-path="url(#clip7402)" style="stroke:#ff0000; stroke-width:4; stroke-opacity:1; fill:none" points="
  618.221,1572.84 619.729,1573.09 621.237,1573.34 622.745,1573.58 624.253,1573.83 625.762,1574.08 627.27,1574.33 628.778,1574.58 630.286,1574.82 631.794,1575.07 
  633.302,1575.32 634.81,1575.57 636.319,1575.81 637.827,1576.06 639.335,1576.31 640.843,1576.56 642.351,1576.81 643.859,1577.05 645.367,1577.3 646.876,1577.55 
  648.384,1577.8 649.892,1578.05 651.4,1578.29 652.908,1578.54 654.416,1578.79 655.924,1579.04 657.433,1579.29 658.941,1579.53 660.449,1579.78 661.957,1580.03 
  663.465,1580.28 664.973,1580.52 666.481,1580.77 667.99,1581.02 669.498,1581.27 671.006,1581.52 672.514,1581.76 674.022,1582.01 675.53,1582.26 677.038,1582.51 
  678.547,1582.76 680.055,1583 681.563,1583.25 683.071,1583.5 684.579,1583.75 686.087,1583.99 687.595,1584.24 689.104,1584.49 690.612,1584.74 692.12,1584.99 
  693.628,1585.23 695.136,1585.48 696.644,1585.73 698.152,1585.98 699.661,1586.23 701.169,1586.47 702.677,1586.72 704.185,1586.97 705.693,1587.22 707.201,1587.46 
  708.709,1587.74 710.218,1588.01 711.726,1588.29 713.234,1588.56 714.742,1588.83 716.25,1589.11 717.758,1589.38 719.266,1589.66 720.775,1589.93 722.283,1590.2 
  723.791,1590.48 725.299,1590.75 726.807,1591.03 728.315,1591.3 729.823,1591.57 731.332,1591.85 732.84,1592.12 734.348,1592.4 735.856,1592.67 737.364,1592.94 
  738.872,1593.22 740.38,1593.49 741.889,1593.77 743.397,1594.04 744.905,1594.31 746.413,1594.59 747.921,1594.86 749.429,1595.14 750.937,1595.41 752.446,1595.68 
  753.954,1595.96 755.462,1596.23 756.97,1596.51 758.478,1596.78 759.986,1597.05 761.494,1597.33 763.003,1597.6 764.511,1597.88 766.019,1598.15 767.527,1598.42 
  769.035,1598.7 770.543,1598.97 772.051,1599.24 773.56,1599.52 775.068,1599.79 776.576,1600.07 778.084,1600.34 779.592,1600.61 781.1,1600.89 782.608,1601.16 
  784.116,1601.44 785.625,1601.71 787.133,1601.98 788.641,1602.26 790.149,1602.53 791.657,1602.81 793.165,1603.08 794.673,1603.35 796.182,1603.63 797.69,1603.9 
  799.198,1603.98 800.706,1604.06 802.214,1604.14 803.722,1604.22 805.23,1604.29 806.739,1604.37 808.247,1604.45 809.755,1604.53 811.263,1604.61 812.771,1604.68 
  814.279,1604.76 815.787,1604.84 817.296,1604.92 818.804,1605 820.312,1605.08 821.82,1605.15 823.328,1605.23 824.836,1605.31 826.344,1605.39 827.853,1605.47 
  829.361,1605.55 830.869,1605.62 832.377,1605.7 833.885,1605.78 835.393,1605.86 836.901,1605.94 838.41,1606.02 839.918,1606.09 841.426,1606.17 842.934,1606.25 
  844.442,1606.33 845.95,1606.41 847.458,1606.49 848.967,1606.56 850.475,1606.64 851.983,1606.72 853.491,1606.8 854.999,1606.88 856.507,1606.95 858.015,1607.03 
  859.524,1607.11 861.032,1607.19 862.54,1607.27 864.048,1607.35 865.556,1607.42 867.064,1607.5 868.572,1607.58 870.081,1607.66 871.589,1607.74 873.097,1607.82 
  874.605,1607.89 876.113,1607.97 877.621,1608.05 879.129,1608.13 880.638,1608.21 882.146,1608.29 883.654,1608.36 885.162,1608.44 886.67,1608.52 888.178,1608.6 
  889.686,1608.57 891.195,1608.55 892.703,1608.52 894.211,1608.49 895.719,1608.47 897.227,1608.44 898.735,1608.42 900.243,1608.39 901.752,1608.36 903.26,1608.34 
  904.768,1608.31 906.276,1608.29 907.784,1608.26 909.292,1608.23 910.8,1608.21 912.309,1608.18 913.817,1608.16 915.325,1608.13 916.833,1608.1 918.341,1608.08 
  919.849,1608.05 921.357,1608.02 922.866,1608 924.374,1607.97 925.882,1607.95 927.39,1607.92 928.898,1607.89 930.406,1607.87 931.914,1607.84 933.423,1607.82 
  934.931,1607.79 936.439,1607.76 937.947,1607.74 939.455,1607.71 940.963,1607.69 942.471,1607.66 943.98,1607.63 945.488,1607.61 946.996,1607.58 948.504,1607.56 
  950.012,1607.53 951.52,1607.5 953.028,1607.48 954.537,1607.45 956.045,1607.42 957.553,1607.4 959.061,1607.37 960.569,1607.35 962.077,1607.32 963.585,1607.29 
  965.093,1607.27 966.602,1607.24 968.11,1607.22 969.618,1607.19 971.126,1607.16 972.634,1607.14 974.142,1607.11 975.65,1607.09 977.159,1607.06 978.667,1607.03 
  980.175,1606.86 981.683,1606.69 983.191,1606.52 984.699,1606.35 986.207,1606.19 987.716,1606.02 989.224,1605.85 990.732,1605.68 992.24,1605.51 993.748,1605.34 
  995.256,1605.17 996.764,1605 998.273,1604.83 999.781,1604.66 1001.29,1604.49 1002.8,1604.32 1004.31,1604.15 1005.81,1603.98 1007.32,1603.81 1008.83,1603.64 
  1010.34,1603.47 1011.85,1603.3 1013.35,1603.13 1014.86,1602.96 1016.37,1602.79 1017.88,1602.62 1019.39,1602.45 1020.89,1602.28 1022.4,1602.11 1023.91,1601.95 
  1025.42,1601.78 1026.93,1601.61 1028.44,1601.44 1029.94,1601.27 1031.45,1601.1 1032.96,1600.93 1034.47,1600.76 1035.98,1600.59 1037.48,1600.42 1038.99,1600.25 
  1040.5,1600.08 1042.01,1599.91 1043.52,1599.74 1045.03,1599.57 1046.53,1599.4 1048.04,1599.23 1049.55,1599.06 1051.06,1598.89 1052.57,1598.72 1054.07,1598.55 
  1055.58,1598.38 1057.09,1598.21 1058.6,1598.04 1060.11,1597.88 1061.61,1597.71 1063.12,1597.54 1064.63,1597.37 1066.14,1597.2 1067.65,1597.03 1069.16,1596.86 
  1070.66,1596.77 1072.17,1596.67 1073.68,1596.58 1075.19,1596.49 1076.7,1596.4 1078.2,1596.31 1079.71,1596.22 1081.22,1596.13 1082.73,1596.04 1084.24,1595.94 
  1085.74,1595.85 1087.25,1595.76 1088.76,1595.67 1090.27,1595.58 1091.78,1595.49 1093.29,1595.4 1094.79,1595.31 1096.3,1595.21 1097.81,1595.12 1099.32,1595.03 
  1100.83,1594.94 1102.33,1594.85 1103.84,1594.76 1105.35,1594.67 1106.86,1594.57 1108.37,1594.48 1109.88,1594.39 1111.38,1594.3 1112.89,1594.21 1114.4,1594.12 
  1115.91,1594.03 1117.42,1593.94 1118.92,1593.84 1120.43,1593.75 1121.94,1593.66 1123.45,1593.57 1124.96,1593.48 1126.46,1593.39 1127.97,1593.3 1129.48,1593.2 
  1130.99,1593.11 1132.5,1593.02 1134.01,1592.93 1135.51,1592.84 1137.02,1592.75 1138.53,1592.66 1140.04,1592.57 1141.55,1592.47 1143.05,1592.38 1144.56,1592.29 
  1146.07,1592.2 1147.58,1592.11 1149.09,1592.02 1150.59,1591.93 1152.1,1591.83 1153.61,1591.74 1155.12,1591.65 1156.63,1591.56 1158.14,1591.47 1159.64,1591.38 
  1161.15,1590.75 1162.66,1590.13 1164.17,1589.5 1165.68,1588.87 1167.18,1588.25 1168.69,1587.62 1170.2,1587 1171.71,1586.37 1173.22,1585.74 1174.73,1585.12 
  1176.23,1584.49 1177.74,1583.86 1179.25,1583.24 1180.76,1582.61 1182.27,1581.99 1183.77,1581.36 1185.28,1580.73 1186.79,1580.11 1188.3,1579.48 1189.81,1578.85 
  1191.31,1578.23 1192.82,1577.6 1194.33,1576.98 1195.84,1576.35 1197.35,1575.72 1198.86,1575.1 1200.36,1574.47 1201.87,1573.84 1203.38,1573.22 1204.89,1572.59 
  1206.4,1571.97 1207.9,1571.34 1209.41,1570.71 1210.92,1570.09 1212.43,1569.46 1213.94,1568.84 1215.45,1568.21 1216.95,1567.58 1218.46,1566.96 1219.97,1566.33 
  1221.48,1565.7 1222.99,1565.08 1224.49,1564.45 1226,1563.83 1227.51,1563.2 1229.02,1562.57 1230.53,1561.95 1232.03,1561.32 1233.54,1560.69 1235.05,1560.07 
  1236.56,1559.44 1238.07,1558.82 1239.58,1558.19 1241.08,1557.56 1242.59,1556.94 1244.1,1556.31 1245.61,1555.69 1247.12,1555.06 1248.62,1554.43 1250.13,1553.81 
  1251.64,1552.79 1253.15,1551.77 1254.66,1550.75 1256.16,1549.74 1257.67,1548.72 1259.18,1547.7 1260.69,1546.68 1262.2,1545.67 1263.71,1544.65 1265.21,1543.63 
  1266.72,1542.61 1268.23,1541.6 1269.74,1540.58 1271.25,1539.56 1272.75,1538.54 1274.26,1537.53 1275.77,1536.51 1277.28,1535.49 1278.79,1534.47 1280.3,1533.46 
  1281.8,1532.44 1283.31,1531.42 1284.82,1530.4 1286.33,1529.39 1287.84,1528.37 1289.34,1527.35 1290.85,1526.33 1292.36,1525.32 1293.87,1524.3 1295.38,1523.28 
  1296.88,1522.26 1298.39,1521.24 1299.9,1520.23 1301.41,1519.21 1302.92,1518.19 1304.43,1517.17 1305.93,1516.16 1307.44,1515.14 1308.95,1514.12 1310.46,1513.1 
  1311.97,1512.09 1313.47,1511.07 1314.98,1510.05 1316.49,1509.03 1318,1508.02 1319.51,1507 1321.01,1505.98 1322.52,1504.96 1324.03,1503.95 1325.54,1502.93 
  1327.05,1501.91 1328.56,1500.89 1330.06,1499.88 1331.57,1498.86 1333.08,1497.84 1334.59,1496.82 1336.1,1495.81 1337.6,1494.79 1339.11,1493.77 1340.62,1492.75 
  1342.13,1492.73 1343.64,1492.7 1345.15,1492.67 1346.65,1492.65 1348.16,1492.62 1349.67,1492.6 1351.18,1492.57 1352.69,1492.54 1354.19,1492.52 1355.7,1492.49 
  1357.21,1492.47 1358.72,1492.44 1360.23,1492.41 1361.73,1492.39 1363.24,1492.36 1364.75,1492.34 1366.26,1492.31 1367.77,1492.28 1369.28,1492.26 1370.78,1492.23 
  1372.29,1492.21 1373.8,1492.18 1375.31,1492.15 1376.82,1492.13 1378.32,1492.1 1379.83,1492.07 1381.34,1492.05 1382.85,1492.02 1384.36,1492 1385.87,1491.97 
  1387.37,1491.94 1388.88,1491.92 1390.39,1491.89 1391.9,1491.87 1393.41,1491.84 1394.91,1491.81 1396.42,1491.79 1397.93,1491.76 1399.44,1491.74 1400.95,1491.71 
  1402.45,1491.68 1403.96,1491.66 1405.47,1491.63 1406.98,1491.6 1408.49,1491.58 1410,1491.55 1411.5,1491.53 1413.01,1491.5 1414.52,1491.47 1416.03,1491.45 
  1417.54,1491.42 1419.04,1491.4 1420.55,1491.37 1422.06,1491.34 1423.57,1491.32 1425.08,1491.29 1426.58,1491.27 1428.09,1491.24 1429.6,1491.21 1431.11,1491.19 
  1432.62,1491.87 1434.13,1492.54 1435.63,1493.22 1437.14,1493.9 1438.65,1494.58 1440.16,1495.26 1441.67,1495.94 1443.17,1496.61 1444.68,1497.29 1446.19,1497.97 
  1447.7,1498.65 1449.21,1499.33 1450.72,1500.01 1452.22,1500.68 1453.73,1501.36 1455.24,1502.04 1456.75,1502.72 1458.26,1503.4 1459.76,1504.08 1461.27,1504.76 
  1462.78,1505.43 1464.29,1506.11 1465.8,1506.79 1467.3,1507.47 1468.81,1508.15 1470.32,1508.83 1471.83,1509.5 1473.34,1510.18 1474.85,1510.86 1476.35,1511.54 
  1477.86,1512.22 1479.37,1512.9 1480.88,1513.57 1482.39,1514.25 1483.89,1514.93 1485.4,1515.61 1486.91,1516.29 1488.42,1516.97 1489.93,1517.64 1491.43,1518.32 
  1492.94,1519 1494.45,1519.68 1495.96,1520.36 1497.47,1521.04 1498.98,1521.71 1500.48,1522.39 1501.99,1523.07 1503.5,1523.75 1505.01,1524.43 1506.52,1525.11 
  1508.02,1525.78 1509.53,1526.46 1511.04,1527.14 1512.55,1527.82 1514.06,1528.5 1515.57,1529.18 1517.07,1529.85 1518.58,1530.53 1520.09,1531.21 1521.6,1531.89 
  1523.11,1531.93 1524.61,1531.97 1526.12,1532.01 1527.63,1532.05 1529.14,1532.09 1530.65,1532.12 1532.15,1532.16 1533.66,1532.2 1535.17,1532.24 1536.68,1532.28 
  1538.19,1532.32 1539.7,1532.36 1541.2,1532.4 1542.71,1532.44 1544.22,1532.48 1545.73,1532.52 1547.24,1532.56 1548.74,1532.59 1550.25,1532.63 1551.76,1532.67 
  1553.27,1532.71 1554.78,1532.75 1556.29,1532.79 1557.79,1532.83 1559.3,1532.87 1560.81,1532.91 1562.32,1532.95 1563.83,1532.99 1565.33,1533.03 1566.84,1533.06 
  1568.35,1533.1 1569.86,1533.14 1571.37,1533.18 1572.87,1533.22 1574.38,1533.26 1575.89,1533.3 1577.4,1533.34 1578.91,1533.38 1580.42,1533.42 1581.92,1533.46 
  1583.43,1533.49 1584.94,1533.53 1586.45,1533.57 1587.96,1533.61 1589.46,1533.65 1590.97,1533.69 1592.48,1533.73 1593.99,1533.77 1595.5,1533.81 1597,1533.85 
  1598.51,1533.89 1600.02,1533.93 1601.53,1533.96 1603.04,1534 1604.55,1534.04 1606.05,1534.08 1607.56,1534.12 1609.07,1534.16 1610.58,1534.2 1612.09,1534.24 
  1613.59,1533.69 1615.1,1533.14 1616.61,1532.59 1618.12,1532.05 1619.63,1531.5 1621.14,1530.95 1622.64,1530.4 1624.15,1529.85 1625.66,1529.31 1627.17,1528.76 
  1628.68,1528.21 1630.18,1527.66 1631.69,1527.12 1633.2,1526.57 1634.71,1526.02 1636.22,1525.47 1637.72,1524.92 1639.23,1524.38 1640.74,1523.83 1642.25,1523.28 
  1643.76,1522.73 1645.27,1522.18 1646.77,1521.64 1648.28,1521.09 1649.79,1520.54 1651.3,1519.99 1652.81,1519.44 1654.31,1518.9 1655.82,1518.35 1657.33,1517.8 
  1658.84,1517.25 1660.35,1516.7 1661.85,1516.16 1663.36,1515.61 1664.87,1515.06 1666.38,1514.51 1667.89,1513.97 1669.4,1513.42 1670.9,1512.87 1672.41,1512.32 
  1673.92,1511.77 1675.43,1511.23 1676.94,1510.68 1678.44,1510.13 1679.95,1509.58 1681.46,1509.03 1682.97,1508.49 1684.48,1507.94 1685.99,1507.39 1687.49,1506.84 
  1689,1506.29 1690.51,1505.75 1692.02,1505.2 1693.53,1504.65 1695.03,1504.1 1696.54,1503.55 1698.05,1503.01 1699.56,1502.46 1701.07,1501.91 1702.57,1501.36 
  1704.08,1500.83 1705.59,1500.29 1707.1,1499.76 1708.61,1499.22 1710.12,1498.69 1711.62,1498.15 1713.13,1497.62 1714.64,1497.08 1716.15,1496.55 1717.66,1496.01 
  1719.16,1495.48 1720.67,1494.94 1722.18,1494.41 1723.69,1493.87 1725.2,1493.34 1726.71,1492.81 1728.21,1492.27 1729.72,1491.74 1731.23,1491.2 1732.74,1490.67 
  1734.25,1490.13 1735.75,1489.6 1737.26,1489.06 1738.77,1488.53 1740.28,1487.99 1741.79,1487.46 1743.29,1486.92 1744.8,1486.39 1746.31,1485.85 1747.82,1485.32 
  1749.33,1484.78 1750.84,1484.25 1752.34,1483.71 1753.85,1483.18 1755.36,1482.64 1756.87,1482.11 1758.38,1481.57 1759.88,1481.04 1761.39,1480.5 1762.9,1479.97 
  1764.41,1479.43 1765.92,1478.9 1767.42,1478.36 1768.93,1477.83 1770.44,1477.29 1771.95,1476.76 1773.46,1476.22 1774.97,1475.69 1776.47,1475.15 1777.98,1474.62 
  1779.49,1474.08 1781,1473.55 1782.51,1473.01 1784.01,1472.48 1785.52,1471.95 1787.03,1471.41 1788.54,1470.88 1790.05,1470.34 1791.56,1469.81 1793.06,1469.27 
  1794.57,1469.41 1796.08,1469.56 1797.59,1469.7 1799.1,1469.84 1800.6,1469.99 1802.11,1470.13 1803.62,1470.28 1805.13,1470.42 1806.64,1470.56 1808.14,1470.71 
  1809.65,1470.85 1811.16,1470.99 1812.67,1471.14 1814.18,1471.28 1815.69,1471.42 1817.19,1471.57 1818.7,1471.71 1820.21,1471.85 1821.72,1472 1823.23,1472.14 
  1824.73,1472.28 1826.24,1472.43 1827.75,1472.57 1829.26,1472.71 1830.77,1472.86 1832.27,1473 1833.78,1473.15 1835.29,1473.29 1836.8,1473.43 1838.31,1473.58 
  1839.82,1473.72 1841.32,1473.86 1842.83,1474.01 1844.34,1474.15 1845.85,1474.29 1847.36,1474.44 1848.86,1474.58 1850.37,1474.72 1851.88,1474.87 1853.39,1475.01 
  1854.9,1475.15 1856.41,1475.3 1857.91,1475.44 1859.42,1475.58 1860.93,1475.73 1862.44,1475.87 1863.95,1476.02 1865.45,1476.16 1866.96,1476.3 1868.47,1476.45 
  1869.98,1476.59 1871.49,1476.73 1872.99,1476.88 1874.5,1477.02 1876.01,1477.16 1877.52,1477.31 1879.03,1477.45 1880.54,1477.59 1882.04,1477.74 1883.55,1477.88 
  1885.06,1477.28 1886.57,1476.68 1888.08,1476.08 1889.58,1475.48 1891.09,1474.88 1892.6,1474.28 1894.11,1473.68 1895.62,1473.08 1897.13,1472.48 1898.63,1471.88 
  1900.14,1471.28 1901.65,1470.68 1903.16,1470.08 1904.67,1469.48 1906.17,1468.88 1907.68,1468.28 1909.19,1467.68 1910.7,1467.08 1912.21,1466.48 1913.71,1465.88 
  1915.22,1465.28 1916.73,1464.68 1918.24,1464.08 1919.75,1463.48 1921.26,1462.88 1922.76,1462.28 1924.27,1461.68 1925.78,1461.08 1927.29,1460.48 1928.8,1459.88 
  1930.3,1459.28 1931.81,1458.68 1933.32,1458.08 1934.83,1457.48 1936.34,1456.88 1937.84,1456.28 1939.35,1455.68 1940.86,1455.08 1942.37,1454.48 1943.88,1453.88 
  1945.39,1453.28 1946.89,1452.68 1948.4,1452.08 1949.91,1451.48 1951.42,1450.88 1952.93,1450.28 1954.43,1449.68 1955.94,1449.08 1957.45,1448.48 1958.96,1447.88 
  1960.47,1447.28 1961.98,1446.68 1963.48,1446.08 1964.99,1445.48 1966.5,1444.88 1968.01,1444.28 1969.52,1443.68 1971.02,1443.07 1972.53,1442.47 1974.04,1441.87 
  1975.55,1440.36 1977.06,1438.85 1978.56,1437.33 1980.07,1435.82 1981.58,1434.31 1983.09,1432.79 1984.6,1431.28 1986.11,1429.77 1987.61,1428.26 1989.12,1426.74 
  1990.63,1425.23 1992.14,1423.72 1993.65,1422.2 1995.15,1420.69 1996.66,1419.18 1998.17,1417.66 1999.68,1416.15 2001.19,1414.64 2002.69,1413.12 2004.2,1411.61 
  2005.71,1410.1 2007.22,1408.58 2008.73,1407.07 2010.24,1405.56 2011.74,1404.04 2013.25,1402.53 2014.76,1401.02 2016.27,1399.5 2017.78,1397.99 2019.28,1396.48 
  2020.79,1394.96 2022.3,1393.45 2023.81,1391.94 2025.32,1390.42 2026.83,1388.91 2028.33,1387.4 2029.84,1385.88 2031.35,1384.37 2032.86,1382.86 2034.37,1381.34 
  2035.87,1379.83 2037.38,1378.32 2038.89,1376.8 2040.4,1375.29 2041.91,1373.78 2043.41,1372.26 2044.92,1370.75 2046.43,1369.24 2047.94,1367.72 2049.45,1366.21 
  2050.96,1364.7 2052.46,1363.18 2053.97,1361.67 2055.48,1360.16 2056.99,1358.64 2058.5,1357.13 2060,1355.62 2061.51,1354.1 2063.02,1352.59 2064.53,1351.08 
  2066.04,1343.8 2067.55,1336.52 2069.05,1329.24 2070.56,1321.96 2072.07,1314.68 2073.58,1307.4 2075.09,1300.12 2076.59,1292.84 2078.1,1285.56 2079.61,1278.28 
  2081.12,1271 2082.63,1263.72 2084.13,1256.44 2085.64,1249.16 2087.15,1241.88 2088.66,1234.6 2090.17,1227.33 2091.68,1220.05 2093.18,1212.77 2094.69,1205.49 
  2096.2,1198.21 2097.71,1190.93 2099.22,1183.65 2100.72,1176.37 2102.23,1169.09 2103.74,1161.81 2105.25,1154.53 2106.76,1147.25 2108.26,1139.97 2109.77,1132.69 
  2111.28,1125.41 2112.79,1118.13 2114.3,1110.85 2115.81,1103.57 2117.31,1096.29 2118.82,1089.02 2120.33,1081.74 2121.84,1074.46 2123.35,1067.18 2124.85,1059.9 
  2126.36,1052.62 2127.87,1045.34 2129.38,1038.06 2130.89,1030.78 2132.4,1023.5 2133.9,1016.22 2135.41,1008.94 2136.92,1001.66 2138.43,994.382 2139.94,987.102 
  2141.44,979.823 2142.95,972.543 2144.46,965.264 2145.97,957.984 2147.48,950.705 2148.98,943.425 2150.49,936.146 2152,928.866 2153.51,921.587 2155.02,914.307 
  2156.53,911.372 2158.03,908.437 2159.54,905.501 2161.05,902.566 2162.56,899.631 2164.07,896.695 2165.57,893.76 2167.08,890.825 2168.59,887.89 2170.1,884.954 
  2171.61,882.019 2173.12,879.084 2174.62,876.149 2176.13,873.213 2177.64,870.278 2179.15,867.343 2180.66,864.407 2182.16,861.472 2183.67,858.537 2185.18,855.602 
  2186.69,852.666 2188.2,849.731 2189.7,846.796 2191.21,843.86 2192.72,840.925 2194.23,837.99 2195.74,835.055 2197.25,832.119 2198.75,829.184 2200.26,826.249 
  2201.77,823.313 2203.28,820.378 2204.79,817.443 2206.29,814.508 2207.8,811.572 2209.31,808.637 2210.82,805.702 2212.33,802.767 2213.83,799.831 2215.34,796.896 
  2216.85,793.961 2218.36,791.025 2219.87,788.09 2221.38,785.155 2222.88,782.22 2224.39,779.284 2225.9,776.349 2227.41,773.414 2228.92,770.478 2230.42,767.543 
  2231.93,764.608 2233.44,761.673 2234.95,758.737 2236.46,755.802 2237.97,752.867 2239.47,749.931 2240.98,746.996 2242.49,744.061 2244,741.126 2245.51,738.19 
  2247.01,743.839 2248.52,749.488 2250.03,755.137 2251.54,760.785 2253.05,766.434 2254.55,772.083 2256.06,777.732 2257.57,783.381 2259.08,789.029 2260.59,794.678 
  2262.1,800.327 2263.6,805.976 2265.11,811.625 2266.62,817.273 2268.13,822.922 2269.64,828.571 2271.14,834.22 2272.65,839.868 2274.16,845.517 2275.67,851.166 
  2277.18,856.815 2278.68,862.464 2280.19,868.112 2281.7,873.761 2283.21,879.41 2284.72,885.059 2286.23,890.707 2287.73,896.356 2289.24,902.005 2290.75,907.654 
  2292.26,913.303 2293.77,918.951 2295.27,924.6 2296.78,930.249 2298.29,935.898 2299.8,941.547 2301.31,947.195 2302.82,952.844 2304.32,958.493 2305.83,964.142 
  2307.34,969.79 2308.85,975.439 2310.36,981.088 2311.86,986.737 2313.37,992.386 2314.88,998.034 2316.39,1003.68 2317.9,1009.33 2319.4,1014.98 2320.91,1020.63 
  2322.42,1026.28 2323.93,1031.93 2325.44,1037.58 2326.95,1043.22 2328.45,1048.87 2329.96,1054.52 2331.47,1060.17 2332.98,1065.82 2334.49,1071.47 2335.99,1077.12 
  2337.5,1080.46 2339.01,1083.8 2340.52,1087.14 2342.03,1090.48 2343.54,1093.82 2345.04,1097.16 2346.55,1100.5 2348.06,1103.83 2349.57,1107.17 2351.08,1110.51 
  2352.58,1113.85 2354.09,1117.19 2355.6,1120.53 2357.11,1123.87 2358.62,1127.21 2360.12,1130.55 2361.63,1133.89 2363.14,1137.23 2364.65,1140.57 2366.16,1143.91 
  2367.67,1147.25 2369.17,1150.59 2370.68,1153.93 2372.19,1157.27 2373.7,1160.61 2375.21,1163.95 2376.71,1167.29 2378.22,1170.63 2379.73,1173.97 2381.24,1177.31 
  2382.75,1180.65 2384.25,1183.99 2385.76,1187.33 2387.27,1190.67 2388.78,1194.01 2390.29,1197.35 2391.8,1200.69 2393.3,1204.03 2394.81,1207.37 2396.32,1210.71 
  2397.83,1214.04 2399.34,1217.38 2400.84,1220.72 2402.35,1224.06 2403.86,1227.4 2405.37,1230.74 2406.88,1234.08 2408.39,1237.42 2409.89,1240.76 2411.4,1244.1 
  2412.91,1247.44 2414.42,1250.78 2415.93,1254.12 2417.43,1257.46 2418.94,1260.8 2420.45,1264.14 2421.96,1267.48 2423.47,1270.82 2424.97,1274.16 2426.48,1277.5 
  2427.99,1279.12 2429.5,1280.73 2431.01,1282.35 2432.52,1283.97 2434.02,1285.59 2435.53,1287.21 2437.04,1288.82 2438.55,1290.44 2440.06,1292.06 2441.56,1293.68 
  2443.07,1295.29 2444.58,1296.91 2446.09,1298.53 2447.6,1300.15 2449.1,1301.76 2450.61,1303.38 2452.12,1305 2453.63,1306.62 2455.14,1308.23 2456.65,1309.85 
  2458.15,1311.47 2459.66,1313.09 2461.17,1314.71 2462.68,1316.32 2464.19,1317.94 2465.69,1319.56 2467.2,1321.18 2468.71,1322.79 2470.22,1324.41 2471.73,1326.03 
  2473.24,1327.65 2474.74,1329.26 2476.25,1330.88 2477.76,1332.5 2479.27,1334.12 2480.78,1335.74 2482.28,1337.35 2483.79,1338.97 2485.3,1340.59 2486.81,1342.21 
  2488.32,1343.82 2489.82,1345.44 2491.33,1347.06 2492.84,1348.68 2494.35,1350.29 2495.86,1351.91 2497.37,1353.53 2498.87,1355.15 2500.38,1356.76 2501.89,1358.38 
  2503.4,1360 2504.91,1361.62 2506.41,1363.24 2507.92,1364.85 2509.43,1366.47 2510.94,1368.09 2512.45,1369.71 2513.96,1371.32 2515.46,1372.94 2516.97,1374.56 
  2518.48,1376.97 2519.99,1379.39 2521.5,1381.8 2523,1384.21 2524.51,1386.63 2526.02,1389.04 2527.53,1391.45 2529.04,1393.87 2530.54,1396.28 2532.05,1398.69 
  2533.56,1401.11 2535.07,1403.52 2536.58,1405.93 2538.09,1408.35 2539.59,1410.76 2541.1,1413.17 2542.61,1415.59 2544.12,1418 2545.63,1420.41 2547.13,1422.83 
  2548.64,1425.24 2550.15,1427.65 2551.66,1430.07 2553.17,1432.48 2554.67,1434.9 2556.18,1437.31 2557.69,1439.72 2559.2,1442.14 2560.71,1444.55 2562.22,1446.96 
  2563.72,1449.38 2565.23,1451.79 2566.74,1454.2 2568.25,1456.62 2569.76,1459.03 2571.26,1461.44 2572.77,1463.86 2574.28,1466.27 2575.79,1468.68 2577.3,1471.1 
  2578.81,1473.51 2580.31,1475.92 2581.82,1478.34 2583.33,1480.75 2584.84,1483.16 2586.35,1485.58 2587.85,1487.99 2589.36,1490.4 2590.87,1492.82 2592.38,1495.23 
  2593.89,1497.65 2595.39,1500.06 2596.9,1502.47 2598.41,1504.89 2599.92,1507.3 2601.43,1509.71 2602.94,1512.13 2604.44,1514.54 2605.95,1516.95 2607.46,1519.37 
  2608.97,1519.84 2610.48,1520.31 2611.98,1520.78 2613.49,1521.24 2615,1521.71 2616.51,1522.18 2618.02,1522.65 2619.52,1523.12 2621.03,1523.59 2622.54,1524.06 
  2624.05,1524.53 2625.56,1525 2627.07,1525.47 2628.57,1525.94 2630.08,1526.41 2631.59,1526.88 2633.1,1527.35 2634.61,1527.82 2636.11,1528.29 2637.62,1528.76 
  2639.13,1529.23 2640.64,1529.7 2642.15,1530.17 2643.66,1530.64 2645.16,1531.11 2646.67,1531.58 2648.18,1532.05 2649.69,1532.52 2651.2,1532.99 2652.7,1533.46 
  2654.21,1533.93 2655.72,1534.39 2657.23,1534.86 2658.74,1535.33 2660.24,1535.8 2661.75,1536.27 2663.26,1536.74 2664.77,1537.21 2666.28,1537.68 2667.79,1538.15 
  2669.29,1538.62 2670.8,1539.09 2672.31,1539.56 2673.82,1540.03 2675.33,1540.5 2676.83,1540.97 2678.34,1541.44 2679.85,1541.91 2681.36,1542.38 2682.87,1542.85 
  2684.38,1543.32 2685.88,1543.79 2687.39,1544.26 2688.9,1544.73 2690.41,1545.2 2691.92,1545.67 2693.42,1546.14 2694.93,1546.61 2696.44,1547.08 2697.95,1547.54 
  2699.46,1548.21 2700.96,1548.88 2702.47,1549.54 2703.98,1550.21 2705.49,1550.87 2707,1551.54 2708.51,1552.2 2710.01,1552.87 2711.52,1553.53 2713.03,1554.2 
  2714.54,1554.86 2716.05,1555.53 2717.55,1556.19 2719.06,1556.86 2720.57,1557.52 2722.08,1558.19 2723.59,1558.86 2725.09,1559.52 2726.6,1560.19 2728.11,1560.85 
  2729.62,1561.52 2731.13,1562.18 2732.64,1562.85 2734.14,1563.51 2735.65,1564.18 2737.16,1564.84 2738.67,1565.51 2740.18,1566.17 2741.68,1566.84 2743.19,1567.5 
  2744.7,1568.17 2746.21,1568.84 2747.72,1569.5 2749.23,1570.17 2750.73,1570.83 2752.24,1571.5 2753.75,1572.16 2755.26,1572.83 2756.77,1573.49 2758.27,1574.16 
  2759.78,1574.82 2761.29,1575.49 2762.8,1576.15 2764.31,1576.82 2765.81,1577.48 2767.32,1578.15 2768.83,1578.82 2770.34,1579.48 2771.85,1580.15 2773.36,1580.81 
  2774.86,1581.48 2776.37,1582.14 2777.88,1582.81 2779.39,1583.47 2780.9,1584.14 2782.4,1584.8 2783.91,1585.47 2785.42,1586.13 2786.93,1586.8 2788.44,1587.46 
  
  "/>
<polygon clip-path="url(#clip7400)" points="
2001.5,572.7 2757.54,572.7 2757.54,391.26 2001.5,391.26 
  " fill="#ffffff" fill-rule="evenodd" fill-opacity="1"/>
<polyline clip-path="url(#clip7400)" style="stroke:#000000; stroke-width:4; stroke-opacity:1; fill:none" points="
  2001.5,572.7 2757.54,572.7 2757.54,391.26 2001.5,391.26 2001.5,572.7 
  "/>
<polyline clip-path="url(#clip7400)" style="stroke:#009af9; stroke-width:4; stroke-opacity:1; fill:none" points="
  2033.5,451.74 2225.5,451.74 
  "/>
<g clip-path="url(#clip7400)">
<text style="fill:#000000; fill-opacity:1; font-family:Arial,Helvetica Neue,Helvetica,sans-serif; font-size:48px; text-anchor:start;" transform="rotate(0, 2257.5, 469.24)" x="2257.5" y="469.24">Bike Arrival Rate</text>
</g>
<polyline clip-path="url(#clip7400)" style="stroke:#ff0000; stroke-width:4; stroke-opacity:1; fill:none" points="
  2033.5,512.22 2225.5,512.22 
  "/>
<g clip-path="url(#clip7400)">
<text style="fill:#000000; fill-opacity:1; font-family:Arial,Helvetica Neue,Helvetica,sans-serif; font-size:48px; text-anchor:start;" transform="rotate(0, 2257.5, 529.72)" x="2257.5" y="529.72">Bike Departure Rate</text>
</g>
</svg>
