<?xml version="1.0" encoding="utf-8"?>
<svg xmlns="http://www.w3.org/2000/svg" xmlns:xlink="http://www.w3.org/1999/xlink" width="800" height="400" viewBox="0 0 3200 1600">
<defs>
  <clipPath id="clip7800">
    <rect x="0" y="0" width="3200" height="1600"/>
  </clipPath>
</defs>
<polygon clip-path="url(#clip7800)" points="
0,1600 3200,1600 3200,0 0,0 
  " fill="#ffffff" fill-rule="evenodd" fill-opacity="1"/>
<defs>
  <clipPath id="clip7801">
    <rect x="640" y="0" width="2241" height="1600"/>
  </clipPath>
</defs>
<polygon clip-path="url(#clip7800)" points="
573.186,1249.5 2853.54,1249.5 2853.54,188.976 573.186,188.976 
  " fill="#ffffff" fill-rule="evenodd" fill-opacity="1"/>
<defs>
  <clipPath id="clip7802">
    <rect x="573" y="188" width="2281" height="1062"/>
  </clipPath>
</defs>
<polyline clip-path="url(#clip7802)" style="stroke:#000000; stroke-width:2; stroke-opacity:0.1; fill:none" points="
  636.23,1249.5 636.23,188.976 
  "/>
<polyline clip-path="url(#clip7802)" style="stroke:#000000; stroke-width:2; stroke-opacity:0.1; fill:none" points="
  995.025,1249.5 995.025,188.976 
  "/>
<polyline clip-path="url(#clip7802)" style="stroke:#000000; stroke-width:2; stroke-opacity:0.1; fill:none" points="
  1353.82,1249.5 1353.82,188.976 
  "/>
<polyline clip-path="url(#clip7802)" style="stroke:#000000; stroke-width:2; stroke-opacity:0.1; fill:none" points="
  1712.62,1249.5 1712.62,188.976 
  "/>
<polyline clip-path="url(#clip7802)" style="stroke:#000000; stroke-width:2; stroke-opacity:0.1; fill:none" points="
  2071.41,1249.5 2071.41,188.976 
  "/>
<polyline clip-path="url(#clip7802)" style="stroke:#000000; stroke-width:2; stroke-opacity:0.1; fill:none" points="
  2430.21,1249.5 2430.21,188.976 
  "/>
<polyline clip-path="url(#clip7802)" style="stroke:#000000; stroke-width:2; stroke-opacity:0.1; fill:none" points="
  2789,1249.5 2789,188.976 
  "/>
<polyline clip-path="url(#clip7802)" style="stroke:#000000; stroke-width:2; stroke-opacity:0.1; fill:none" points="
  573.186,1219.48 2853.54,1219.48 
  "/>
<polyline clip-path="url(#clip7802)" style="stroke:#000000; stroke-width:2; stroke-opacity:0.1; fill:none" points="
  573.186,1004.17 2853.54,1004.17 
  "/>
<polyline clip-path="url(#clip7802)" style="stroke:#000000; stroke-width:2; stroke-opacity:0.1; fill:none" points="
  573.186,788.866 2853.54,788.866 
  "/>
<polyline clip-path="url(#clip7802)" style="stroke:#000000; stroke-width:2; stroke-opacity:0.1; fill:none" points="
  573.186,573.558 2853.54,573.558 
  "/>
<polyline clip-path="url(#clip7802)" style="stroke:#000000; stroke-width:2; stroke-opacity:0.1; fill:none" points="
  573.186,358.25 2853.54,358.25 
  "/>
<polyline clip-path="url(#clip7800)" style="stroke:#000000; stroke-width:4; stroke-opacity:1; fill:none" points="
  573.186,1249.5 2853.54,1249.5 
  "/>
<polyline clip-path="url(#clip7800)" style="stroke:#000000; stroke-width:4; stroke-opacity:1; fill:none" points="
  573.186,1249.5 573.186,188.976 
  "/>
<polyline clip-path="url(#clip7800)" style="stroke:#000000; stroke-width:4; stroke-opacity:1; fill:none" points="
  636.23,1249.5 636.23,1233.59 
  "/>
<polyline clip-path="url(#clip7800)" style="stroke:#000000; stroke-width:4; stroke-opacity:1; fill:none" points="
  995.025,1249.5 995.025,1233.59 
  "/>
<polyline clip-path="url(#clip7800)" style="stroke:#000000; stroke-width:4; stroke-opacity:1; fill:none" points="
  1353.82,1249.5 1353.82,1233.59 
  "/>
<polyline clip-path="url(#clip7800)" style="stroke:#000000; stroke-width:4; stroke-opacity:1; fill:none" points="
  1712.62,1249.5 1712.62,1233.59 
  "/>
<polyline clip-path="url(#clip7800)" style="stroke:#000000; stroke-width:4; stroke-opacity:1; fill:none" points="
  2071.41,1249.5 2071.41,1233.59 
  "/>
<polyline clip-path="url(#clip7800)" style="stroke:#000000; stroke-width:4; stroke-opacity:1; fill:none" points="
  2430.21,1249.5 2430.21,1233.59 
  "/>
<polyline clip-path="url(#clip7800)" style="stroke:#000000; stroke-width:4; stroke-opacity:1; fill:none" points="
  2789,1249.5 2789,1233.59 
  "/>
<polyline clip-path="url(#clip7800)" style="stroke:#000000; stroke-width:4; stroke-opacity:1; fill:none" points="
  573.186,1219.48 607.392,1219.48 
  "/>
<polyline clip-path="url(#clip7800)" style="stroke:#000000; stroke-width:4; stroke-opacity:1; fill:none" points="
  573.186,1004.17 607.392,1004.17 
  "/>
<polyline clip-path="url(#clip7800)" style="stroke:#000000; stroke-width:4; stroke-opacity:1; fill:none" points="
  573.186,788.866 607.392,788.866 
  "/>
<polyline clip-path="url(#clip7800)" style="stroke:#000000; stroke-width:4; stroke-opacity:1; fill:none" points="
  573.186,573.558 607.392,573.558 
  "/>
<polyline clip-path="url(#clip7800)" style="stroke:#000000; stroke-width:4; stroke-opacity:1; fill:none" points="
  573.186,358.25 607.392,358.25 
  "/>
<g clip-path="url(#clip7800)">
<text style="fill:#000000; fill-opacity:1; font-family:Arial,Helvetica Neue,Helvetica,sans-serif; font-size:71px; text-anchor:middle;" transform="rotate(0, 636.23, 1327.9)" x="636.23" y="1327.9">0</text>
</g>
<g clip-path="url(#clip7800)">
<text style="fill:#000000; fill-opacity:1; font-family:Arial,Helvetica Neue,Helvetica,sans-serif; font-size:71px; text-anchor:middle;" transform="rotate(0, 995.025, 1327.9)" x="995.025" y="1327.9">4</text>
</g>
<g clip-path="url(#clip7800)">
<text style="fill:#000000; fill-opacity:1; font-family:Arial,Helvetica Neue,Helvetica,sans-serif; font-size:71px; text-anchor:middle;" transform="rotate(0, 1353.82, 1327.9)" x="1353.82" y="1327.9">8</text>
</g>
<g clip-path="url(#clip7800)">
<text style="fill:#000000; fill-opacity:1; font-family:Arial,Helvetica Neue,Helvetica,sans-serif; font-size:71px; text-anchor:middle;" transform="rotate(0, 1712.62, 1327.9)" x="1712.62" y="1327.9">12</text>
</g>
<g clip-path="url(#clip7800)">
<text style="fill:#000000; fill-opacity:1; font-family:Arial,Helvetica Neue,Helvetica,sans-serif; font-size:71px; text-anchor:middle;" transform="rotate(0, 2071.41, 1327.9)" x="2071.41" y="1327.9">16</text>
</g>
<g clip-path="url(#clip7800)">
<text style="fill:#000000; fill-opacity:1; font-family:Arial,Helvetica Neue,Helvetica,sans-serif; font-size:71px; text-anchor:middle;" transform="rotate(0, 2430.21, 1327.9)" x="2430.21" y="1327.9">20</text>
</g>
<g clip-path="url(#clip7800)">
<text style="fill:#000000; fill-opacity:1; font-family:Arial,Helvetica Neue,Helvetica,sans-serif; font-size:71px; text-anchor:middle;" transform="rotate(0, 2789, 1327.9)" x="2789" y="1327.9">24</text>
</g>
<g clip-path="url(#clip7800)">
<text style="fill:#000000; fill-opacity:1; font-family:Arial,Helvetica Neue,Helvetica,sans-serif; font-size:71px; text-anchor:end;" transform="rotate(0, 541.186, 1245.48)" x="541.186" y="1245.48">0.0</text>
</g>
<g clip-path="url(#clip7800)">
<text style="fill:#000000; fill-opacity:1; font-family:Arial,Helvetica Neue,Helvetica,sans-serif; font-size:71px; text-anchor:end;" transform="rotate(0, 541.186, 1030.17)" x="541.186" y="1030.17">0.2</text>
</g>
<g clip-path="url(#clip7800)">
<text style="fill:#000000; fill-opacity:1; font-family:Arial,Helvetica Neue,Helvetica,sans-serif; font-size:71px; text-anchor:end;" transform="rotate(0, 541.186, 814.866)" x="541.186" y="814.866">0.4</text>
</g>
<g clip-path="url(#clip7800)">
<text style="fill:#000000; fill-opacity:1; font-family:Arial,Helvetica Neue,Helvetica,sans-serif; font-size:71px; text-anchor:end;" transform="rotate(0, 541.186, 599.558)" x="541.186" y="599.558">0.6</text>
</g>
<g clip-path="url(#clip7800)">
<text style="fill:#000000; fill-opacity:1; font-family:Arial,Helvetica Neue,Helvetica,sans-serif; font-size:71px; text-anchor:end;" transform="rotate(0, 541.186, 384.25)" x="541.186" y="384.25">0.8</text>
</g>
<g clip-path="url(#clip7800)">
<text style="fill:#000000; fill-opacity:1; font-family:Arial,Helvetica Neue,Helvetica,sans-serif; font-size:95px; text-anchor:middle;" transform="rotate(0, 1713.36, 1443.75)" x="1713.36" y="1443.75">Time (hours)</text>
</g>
<g clip-path="url(#clip7800)">
<text style="fill:#000000; fill-opacity:1; font-family:Arial,Helvetica Neue,Helvetica,sans-serif; font-size:95px; text-anchor:middle;" transform="rotate(-90, 391.028, 719.237)" x="391.028" y="719.237">Probability Full Dock</text>
</g>
<polyline clip-path="url(#clip7802)" style="stroke:#009af9; stroke-width:4; stroke-opacity:1; fill:none" points="
  637.725,1219.48 639.22,1219.48 640.715,1219.48 642.21,1219.48 643.705,1219.48 645.2,1219.48 646.694,1219.48 648.189,1219.48 649.684,1219.48 651.179,1219.48 
  652.674,1219.48 654.169,1219.48 655.664,1219.48 657.159,1219.48 658.654,1219.48 660.149,1219.48 661.644,1219.48 663.139,1219.48 664.634,1219.48 666.129,1219.48 
  667.624,1219.48 669.119,1219.48 670.614,1219.48 672.109,1219.48 673.604,1219.48 675.099,1219.48 676.594,1219.48 678.089,1219.48 679.584,1219.48 681.079,1219.48 
  682.574,1219.48 684.069,1219.48 685.564,1219.48 687.059,1219.48 688.554,1219.48 690.049,1219.48 691.544,1219.48 693.039,1219.48 694.534,1219.48 696.029,1219.48 
  697.524,1219.48 699.019,1219.48 700.514,1219.48 702.009,1219.48 703.504,1219.48 704.999,1219.48 706.494,1219.48 707.989,1219.48 709.484,1219.48 710.979,1219.48 
  712.474,1219.48 713.969,1219.48 715.464,1219.48 716.959,1219.48 718.454,1219.48 719.949,1219.48 721.444,1219.48 722.939,1219.48 724.434,1219.48 725.929,1219.48 
  727.424,1219.48 728.919,1219.48 730.414,1219.48 731.909,1219.48 733.403,1219.48 734.898,1219.48 736.393,1219.48 737.888,1219.48 739.383,1219.48 740.878,1219.48 
  742.373,1219.48 743.868,1219.48 745.363,1219.48 746.858,1219.48 748.353,1219.48 749.848,1219.48 751.343,1219.48 752.838,1219.48 754.333,1219.48 755.828,1219.48 
  757.323,1219.48 758.818,1219.48 760.313,1219.48 761.808,1219.48 763.303,1219.48 764.798,1219.48 766.293,1219.48 767.788,1219.48 769.283,1219.48 770.778,1219.48 
  772.273,1219.48 773.768,1219.48 775.263,1219.48 776.758,1219.48 778.253,1219.48 779.748,1219.48 781.243,1219.48 782.738,1219.48 784.233,1219.48 785.728,1219.48 
  787.223,1219.48 788.718,1219.48 790.213,1219.48 791.708,1219.48 793.203,1219.48 794.698,1219.48 796.193,1219.48 797.688,1219.48 799.183,1219.48 800.678,1219.48 
  802.173,1219.48 803.668,1219.48 805.163,1219.48 806.658,1219.48 808.153,1219.48 809.648,1219.48 811.143,1219.48 812.638,1219.48 814.133,1219.48 815.628,1219.48 
  817.123,1219.48 818.618,1219.48 820.112,1219.48 821.607,1219.48 823.102,1219.48 824.597,1219.48 826.092,1219.48 827.587,1219.48 829.082,1219.48 830.577,1219.48 
  832.072,1219.48 833.567,1219.48 835.062,1219.48 836.557,1219.48 838.052,1219.48 839.547,1219.48 841.042,1219.48 842.537,1219.48 844.032,1219.48 845.527,1219.48 
  847.022,1219.48 848.517,1219.48 850.012,1219.48 851.507,1219.48 853.002,1219.48 854.497,1219.48 855.992,1219.48 857.487,1219.48 858.982,1219.48 860.477,1219.48 
  861.972,1219.48 863.467,1219.48 864.962,1219.48 866.457,1219.48 867.952,1219.48 869.447,1219.48 870.942,1219.48 872.437,1219.48 873.932,1219.48 875.427,1219.48 
  876.922,1219.48 878.417,1219.48 879.912,1219.48 881.407,1219.48 882.902,1219.48 884.397,1219.48 885.892,1219.48 887.387,1219.48 888.882,1219.48 890.377,1219.48 
  891.872,1219.48 893.367,1219.48 894.862,1219.48 896.357,1219.48 897.852,1219.48 899.347,1219.48 900.842,1219.48 902.337,1219.48 903.832,1219.48 905.327,1219.48 
  906.822,1219.48 908.316,1219.48 909.811,1219.48 911.306,1219.48 912.801,1219.48 914.296,1219.47 915.791,1219.47 917.286,1219.45 918.781,1219.43 920.276,1219.4 
  921.771,1219.34 923.266,1219.25 924.761,1219.1 926.256,1218.88 927.751,1218.54 929.246,1218.03 930.741,1217.3 932.236,1216.28 933.731,1214.87 935.226,1212.98 
  936.721,1210.53 938.216,1207.44 939.711,1203.64 941.206,1199.11 942.701,1193.85 944.196,1187.9 945.691,1181.33 947.186,1174.23 948.681,1166.7 950.176,1158.85 
  951.671,1150.77 953.166,1142.55 954.661,1134.27 956.156,1125.98 957.651,1117.74 959.146,1109.58 960.641,1101.53 962.136,1093.6 963.631,1085.82 965.126,1078.18 
  966.621,1070.7 968.116,1063.38 969.611,1056.21 971.106,1049.19 972.601,1042.33 974.096,1035.61 975.591,1029.04 977.086,1022.62 978.581,1016.33 980.076,1010.18 
  981.571,1004.16 983.066,998.261 984.561,992.49 986.056,986.838 987.551,981.303 989.046,975.88 990.541,970.567 992.036,965.36 993.531,960.256 995.025,955.252 
  996.52,950.346 998.015,877.913 999.51,819.966 1001.01,772.555 1002.5,733.045 1004,699.614 1005.49,670.959 1006.99,646.125 1008.48,624.395 1009.98,605.221 
  1011.47,588.178 1012.97,572.928 1014.46,559.204 1015.96,546.787 1017.45,535.499 1018.95,525.192 1020.44,515.744 1021.94,507.052 1023.43,499.028 1024.93,491.599 
  1026.42,484.701 1027.92,478.278 1029.41,472.284 1030.91,466.676 1032.4,461.418 1033.9,456.48 1035.39,451.832 1036.89,447.449 1038.38,443.31 1039.87,439.395 
  1041.37,435.685 1042.86,432.166 1044.36,428.823 1045.85,425.643 1047.35,422.615 1048.84,419.727 1050.34,416.97 1051.83,414.336 1053.33,411.817 1054.82,409.405 
  1056.32,407.093 1057.81,404.876 1059.31,402.747 1060.8,400.702 1062.3,398.735 1063.79,396.843 1065.29,395.021 1066.78,393.265 1068.28,391.571 1069.77,389.938 
  1071.27,388.36 1072.76,386.836 1074.26,385.363 1075.75,383.938 1077.25,382.559 1078.74,381.224 1080.24,379.93 1081.73,378.677 1083.23,377.461 1084.72,376.282 
  1086.22,375.137 1087.71,367.102 1089.21,359.68 1090.7,352.804 1092.2,346.416 1093.69,340.466 1095.19,334.909 1096.68,329.71 1098.18,324.833 1099.67,320.25 
  1101.17,315.935 1102.66,311.866 1104.16,308.021 1105.65,304.383 1107.15,300.936 1108.64,297.664 1110.14,294.555 1111.63,291.598 1113.13,288.78 1114.62,286.093 
  1116.12,283.528 1117.61,281.076 1119.11,278.73 1120.6,276.484 1122.1,274.331 1123.59,272.265 1125.09,270.282 1126.58,268.376 1128.08,266.543 1129.57,264.78 
  1131.07,263.081 1132.56,261.444 1134.06,259.865 1135.55,258.341 1137.05,256.87 1138.54,255.448 1140.04,254.074 1141.53,252.745 1143.03,251.458 1144.52,250.212 
  1146.02,249.005 1147.51,247.835 1149.01,246.7 1150.5,245.599 1152,244.531 1153.49,243.493 1154.99,242.485 1156.48,241.505 1157.98,240.552 1159.47,239.625 
  1160.97,238.724 1162.46,237.846 1163.96,236.991 1165.45,236.159 1166.95,235.347 1168.44,234.557 1169.94,233.786 1171.43,233.034 1172.93,232.3 1174.42,231.584 
  1175.92,230.885 1177.41,230.296 1178.91,229.746 1180.4,229.23 1181.9,228.745 1183.39,228.289 1184.89,227.859 1186.38,227.453 1187.88,227.069 1189.37,226.705 
  1190.87,226.36 1192.36,226.032 1193.86,225.72 1195.35,225.423 1196.85,225.139 1198.34,224.869 1199.84,224.611 1201.33,224.363 1202.83,224.127 1204.32,223.9 
  1205.82,223.682 1207.31,223.474 1208.81,223.273 1210.3,223.08 1211.8,222.895 1213.29,222.716 1214.79,222.544 1216.28,222.377 1217.78,222.217 1219.27,222.063 
  1220.77,221.913 1222.26,221.769 1223.76,221.629 1225.25,221.494 1226.75,221.363 1228.24,221.236 1229.74,221.113 1231.23,220.994 1232.73,220.878 1234.22,220.766 
  1235.72,220.657 1237.21,220.551 1238.71,220.448 1240.2,220.348 1241.7,220.251 1243.19,220.156 1244.69,220.064 1246.18,219.974 1247.68,219.887 1249.17,219.801 
  1250.67,219.718 1252.16,219.638 1253.66,219.559 1255.15,219.482 1256.65,219.406 1258.14,219.333 1259.64,219.262 1261.13,219.192 1262.63,219.123 1264.12,219.056 
  1265.62,218.991 1267.11,219.584 1268.61,220.166 1270.1,220.737 1271.6,221.299 1273.09,221.851 1274.59,222.394 1276.08,222.928 1277.58,223.452 1279.07,223.968 
  1280.57,224.475 1282.06,224.974 1283.56,225.465 1285.05,225.948 1286.55,226.423 1288.04,226.89 1289.54,227.351 1291.03,227.804 1292.53,228.249 1294.02,228.689 
  1295.52,229.121 1297.01,229.547 1298.51,229.966 1300,230.379 1301.5,230.786 1302.99,231.187 1304.49,231.583 1305.98,231.972 1307.48,232.356 1308.97,232.734 
  1310.47,233.107 1311.96,233.475 1313.46,233.837 1314.95,234.195 1316.45,234.547 1317.94,234.895 1319.44,235.238 1320.93,235.576 1322.43,235.91 1323.92,236.24 
  1325.42,236.565 1326.91,236.885 1328.41,237.202 1329.9,237.514 1331.4,237.823 1332.89,238.127 1334.39,238.428 1335.88,238.724 1337.38,239.017 1338.87,239.307 
  1340.37,239.592 1341.86,239.875 1343.36,240.153 1344.85,240.429 1346.35,240.701 1347.84,240.969 1349.34,241.235 1350.83,241.497 1352.33,241.756 1353.82,242.012 
  1355.32,242.266 1356.81,243.37 1358.31,244.499 1359.8,245.652 1361.3,246.832 1362.79,248.039 1364.29,249.274 1365.78,250.537 1367.28,251.83 1368.77,253.154 
  1370.27,254.51 1371.76,255.9 1373.26,257.323 1374.75,258.783 1376.25,260.279 1377.74,261.814 1379.24,263.389 1380.73,265.006 1382.23,266.666 1383.72,268.371 
  1385.22,270.122 1386.71,271.923 1388.21,273.774 1389.7,275.679 1391.2,277.639 1392.69,279.657 1394.19,281.735 1395.68,283.877 1397.18,286.085 1398.67,288.362 
  1400.17,290.712 1401.66,293.137 1403.16,295.643 1404.65,298.233 1406.15,300.911 1407.64,303.681 1409.14,306.549 1410.63,309.52 1412.13,312.6 1413.62,315.794 
  1415.12,319.11 1416.61,322.554 1418.11,326.133 1419.6,329.856 1421.1,333.733 1422.59,337.771 1424.09,341.983 1425.58,346.378 1427.08,350.97 1428.57,355.772 
  1430.07,360.799 1431.56,366.067 1433.06,371.594 1434.55,377.398 1436.05,383.503 1437.54,389.931 1439.04,396.709 1440.53,403.866 1442.03,411.435 1443.52,419.454 
  1445.02,427.962 1446.51,428.491 1448.01,429.028 1449.5,429.574 1451,430.127 1452.49,430.689 1453.99,431.26 1455.48,431.84 1456.98,432.429 1458.47,433.026 
  1459.97,433.634 1461.46,434.251 1462.96,434.878 1464.45,435.516 1465.95,436.164 1467.44,436.822 1468.94,437.492 1470.43,438.173 1471.93,438.865 1473.42,439.569 
  1474.91,440.286 1476.41,441.015 1477.9,441.756 1479.4,442.511 1480.89,443.279 1482.39,444.062 1483.88,444.858 1485.38,445.669 1486.87,446.495 1488.37,447.337 
  1489.86,448.195 1491.36,449.069 1492.85,449.959 1494.35,450.867 1495.84,451.793 1497.34,452.738 1498.83,453.701 1500.33,454.684 1501.82,455.686 1503.32,456.71 
  1504.81,457.755 1506.31,458.822 1507.8,459.912 1509.3,461.025 1510.79,462.162 1512.29,463.325 1513.78,464.513 1515.28,465.728 1516.77,466.971 1518.27,468.242 
  1519.76,469.544 1521.26,470.875 1522.75,472.239 1524.25,473.635 1525.74,475.066 1527.24,476.532 1528.73,478.035 1530.23,479.576 1531.72,481.156 1533.22,482.778 
  1534.71,484.443 1536.21,485.332 1537.7,486.226 1539.2,487.126 1540.69,488.032 1542.19,488.943 1543.68,489.86 1545.18,490.783 1546.67,491.712 1548.17,492.646 
  1549.66,493.586 1551.16,494.533 1552.65,495.485 1554.15,496.444 1555.64,497.408 1557.14,498.379 1558.63,499.356 1560.13,500.34 1561.62,501.33 1563.12,502.326 
  1564.61,503.329 1566.11,504.338 1567.6,505.354 1569.1,506.377 1570.59,507.407 1572.09,508.443 1573.58,509.486 1575.08,510.537 1576.57,511.594 1578.07,512.659 
  1579.56,513.73 1581.06,514.809 1582.55,515.896 1584.05,516.989 1585.54,518.091 1587.04,519.2 1588.53,520.316 1590.03,521.44 1591.52,522.572 1593.02,523.712 
  1594.51,524.86 1596.01,526.016 1597.5,527.181 1599,528.353 1600.49,529.534 1601.99,530.723 1603.48,531.921 1604.98,533.127 1606.47,534.342 1607.97,535.566 
  1609.46,536.798 1610.96,538.04 1612.45,539.29 1613.95,540.55 1615.44,541.819 1616.94,543.098 1618.43,544.386 1619.93,545.684 1621.42,546.991 1622.92,548.308 
  1624.41,549.635 1625.91,554.28 1627.4,558.966 1628.9,563.696 1630.39,568.469 1631.89,573.286 1633.38,578.148 1634.88,583.055 1636.37,588.008 1637.87,593.007 
  1639.36,598.053 1640.86,603.148 1642.35,608.291 1643.85,613.483 1645.34,618.725 1646.84,624.018 1648.33,629.362 1649.83,634.758 1651.32,640.207 1652.82,645.71 
  1654.31,651.268 1655.81,656.88 1657.3,662.549 1658.8,668.275 1660.29,674.059 1661.79,679.901 1663.28,685.804 1664.78,691.766 1666.27,697.791 1667.77,703.877 
  1669.26,710.027 1670.76,716.242 1672.25,722.522 1673.75,728.868 1675.24,735.282 1676.74,741.765 1678.23,748.317 1679.73,754.941 1681.22,761.636 1682.72,768.404 
  1684.21,775.247 1685.71,782.166 1687.2,789.161 1688.7,796.235 1690.19,803.388 1691.69,810.622 1693.18,817.938 1694.68,825.338 1696.17,832.823 1697.67,840.395 
  1699.16,848.054 1700.66,855.804 1702.15,863.644 1703.65,871.577 1705.14,879.605 1706.64,887.729 1708.13,895.951 1709.63,904.273 1711.12,912.696 1712.62,921.222 
  1714.11,929.854 1715.61,935.398 1717.1,940.968 1718.6,946.563 1720.09,952.184 1721.59,957.831 1723.08,963.503 1724.58,969.202 1726.07,974.927 1727.57,980.679 
  1729.06,986.457 1730.56,992.261 1732.05,998.092 1733.55,1003.95 1735.04,1009.83 1736.54,1015.74 1738.03,1021.68 1739.53,1027.64 1741.02,1033.63 1742.52,1039.64 
  1744.01,1045.68 1745.51,1051.74 1747,1057.82 1748.5,1063.92 1749.99,1070.03 1751.49,1076.16 1752.98,1082.3 1754.48,1088.45 1755.97,1094.6 1757.47,1100.74 
  1758.96,1106.87 1760.46,1112.98 1761.95,1119.06 1763.45,1125.09 1764.94,1131.06 1766.44,1136.96 1767.93,1142.76 1769.43,1148.45 1770.92,1154.01 1772.42,1159.42 
  1773.91,1164.65 1775.41,1169.69 1776.9,1174.5 1778.4,1179.07 1779.89,1183.38 1781.39,1187.42 1782.88,1191.18 1784.38,1194.64 1785.87,1197.81 1787.37,1200.68 
  1788.86,1203.27 1790.36,1205.58 1791.85,1207.62 1793.35,1209.42 1794.84,1210.99 1796.34,1212.34 1797.83,1213.51 1799.33,1214.51 1800.82,1215.36 1802.32,1216.08 
  1803.81,1216.68 1805.31,1216.62 1806.8,1216.55 1808.3,1216.49 1809.79,1216.43 1811.29,1216.36 1812.78,1216.29 1814.28,1216.22 1815.77,1216.15 1817.27,1216.08 
  1818.76,1216.01 1820.26,1215.93 1821.75,1215.85 1823.25,1215.78 1824.74,1215.7 1826.24,1215.61 1827.73,1215.53 1829.23,1215.45 1830.72,1215.36 1832.22,1215.27 
  1833.71,1215.18 1835.21,1215.09 1836.7,1215 1838.2,1214.9 1839.69,1214.8 1841.19,1214.7 1842.68,1214.6 1844.18,1214.5 1845.67,1214.39 1847.17,1214.28 
  1848.66,1214.17 1850.16,1214.06 1851.65,1213.95 1853.15,1213.83 1854.64,1213.71 1856.14,1213.59 1857.63,1213.47 1859.13,1213.34 1860.62,1213.21 1862.12,1213.08 
  1863.61,1212.95 1865.11,1212.81 1866.6,1212.68 1868.1,1212.53 1869.59,1212.39 1871.09,1212.24 1872.58,1212.1 1874.08,1211.94 1875.57,1211.79 1877.07,1211.63 
  1878.56,1211.47 1880.06,1211.31 1881.55,1211.14 1883.05,1210.97 1884.54,1210.8 1886.04,1210.62 1887.53,1210.44 1889.03,1210.26 1890.52,1210.08 1892.02,1209.89 
  1893.51,1209.69 1895.01,1210.58 1896.5,1211.4 1898,1212.15 1899.49,1212.84 1900.99,1213.47 1902.48,1214.04 1903.98,1214.56 1905.47,1215.04 1906.97,1215.47 
  1908.46,1215.86 1909.95,1216.22 1911.45,1216.54 1912.94,1216.84 1914.44,1217.1 1915.93,1217.34 1917.43,1217.55 1918.92,1217.75 1920.42,1217.92 1921.91,1218.08 
  1923.41,1218.22 1924.9,1218.35 1926.4,1218.47 1927.89,1218.57 1929.39,1218.66 1930.88,1218.75 1932.38,1218.82 1933.87,1218.89 1935.37,1218.95 1936.86,1219 
  1938.36,1219.05 1939.85,1219.1 1941.35,1219.14 1942.84,1219.17 1944.34,1219.2 1945.83,1219.23 1947.33,1219.26 1948.82,1219.28 1950.32,1219.3 1951.81,1219.32 
  1953.31,1219.33 1954.8,1219.35 1956.3,1219.36 1957.79,1219.37 1959.29,1219.39 1960.78,1219.4 1962.28,1219.4 1963.77,1219.41 1965.27,1219.42 1966.76,1219.42 
  1968.26,1219.43 1969.75,1219.44 1971.25,1219.44 1972.74,1219.44 1974.24,1219.45 1975.73,1219.45 1977.23,1219.45 1978.72,1219.46 1980.22,1219.46 1981.71,1219.46 
  1983.21,1219.46 1984.7,1219.47 1986.2,1219.47 1987.69,1219.47 1989.19,1219.47 1990.68,1219.47 1992.18,1219.47 1993.67,1219.47 1995.17,1219.48 1996.66,1219.48 
  1998.16,1219.48 1999.65,1219.48 2001.15,1219.48 2002.64,1219.48 2004.14,1219.48 2005.63,1219.48 2007.13,1219.48 2008.62,1219.48 2010.12,1219.48 2011.61,1219.48 
  2013.11,1219.48 2014.6,1219.48 2016.1,1219.48 2017.59,1219.48 2019.09,1219.48 2020.58,1219.48 2022.08,1219.48 2023.57,1219.48 2025.07,1219.48 2026.56,1219.48 
  2028.06,1219.48 2029.55,1219.48 2031.05,1219.48 2032.54,1219.48 2034.04,1219.48 2035.53,1219.48 2037.03,1219.48 2038.52,1219.48 2040.02,1219.48 2041.51,1219.48 
  2043.01,1219.48 2044.5,1219.48 2046,1219.48 2047.49,1219.48 2048.99,1219.48 2050.48,1219.48 2051.98,1219.48 2053.47,1219.48 2054.97,1219.48 2056.46,1219.48 
  2057.96,1219.48 2059.45,1219.48 2060.95,1219.48 2062.44,1219.48 2063.94,1219.48 2065.43,1219.48 2066.93,1219.48 2068.42,1219.48 2069.92,1219.48 2071.41,1219.48 
  2072.91,1219.48 2074.4,1219.48 2075.9,1219.48 2077.39,1219.48 2078.89,1219.48 2080.38,1219.48 2081.88,1219.48 2083.37,1219.48 2084.87,1219.48 2086.36,1219.48 
  2087.86,1219.48 2089.35,1219.48 2090.85,1219.48 2092.34,1219.48 2093.84,1219.48 2095.33,1219.48 2096.83,1219.48 2098.32,1219.48 2099.82,1219.48 2101.31,1219.48 
  2102.81,1219.48 2104.3,1219.48 2105.8,1219.48 2107.29,1219.48 2108.79,1219.48 2110.28,1219.48 2111.78,1219.48 2113.27,1219.48 2114.77,1219.48 2116.26,1219.48 
  2117.76,1219.48 2119.25,1219.48 2120.75,1219.48 2122.24,1219.48 2123.74,1219.48 2125.23,1219.48 2126.73,1219.48 2128.22,1219.48 2129.72,1219.48 2131.21,1219.48 
  2132.71,1219.48 2134.2,1219.48 2135.7,1219.48 2137.19,1219.48 2138.69,1219.48 2140.18,1219.48 2141.68,1219.48 2143.17,1219.48 2144.67,1219.48 2146.16,1219.48 
  2147.66,1219.48 2149.15,1219.48 2150.65,1219.48 2152.14,1219.48 2153.64,1219.48 2155.13,1219.48 2156.63,1219.48 2158.12,1219.48 2159.62,1219.48 2161.11,1219.48 
  2162.61,1219.48 2164.1,1219.48 2165.6,1219.48 2167.09,1219.48 2168.59,1219.48 2170.08,1219.48 2171.58,1219.48 2173.07,1219.48 2174.57,1219.48 2176.06,1219.48 
  2177.56,1219.48 2179.05,1219.48 2180.55,1219.48 2182.04,1219.48 2183.54,1219.48 2185.03,1219.48 2186.53,1219.48 2188.02,1219.48 2189.52,1219.48 2191.01,1219.48 
  2192.51,1219.48 2194,1219.48 2195.5,1219.48 2196.99,1219.48 2198.49,1219.48 2199.98,1219.48 2201.48,1219.48 2202.97,1219.48 2204.47,1219.48 2205.96,1219.48 
  2207.46,1219.48 2208.95,1219.48 2210.45,1219.48 2211.94,1219.48 2213.44,1219.48 2214.93,1219.48 2216.43,1219.48 2217.92,1219.48 2219.42,1219.48 2220.91,1219.48 
  2222.41,1219.48 2223.9,1219.48 2225.4,1219.48 2226.89,1219.48 2228.39,1219.48 2229.88,1219.48 2231.38,1219.48 2232.87,1219.48 2234.37,1219.48 2235.86,1219.48 
  2237.36,1219.48 2238.85,1219.48 2240.35,1219.48 2241.84,1219.48 2243.34,1219.48 2244.83,1219.48 2246.33,1219.48 2247.82,1219.48 2249.32,1219.48 2250.81,1219.48 
  2252.31,1219.48 2253.8,1219.48 2255.3,1219.48 2256.79,1219.48 2258.29,1219.48 2259.78,1219.48 2261.28,1219.48 2262.77,1219.48 2264.27,1219.48 2265.76,1219.48 
  2267.26,1219.48 2268.75,1219.48 2270.25,1219.48 2271.74,1219.48 2273.24,1219.48 2274.73,1219.48 2276.23,1219.48 2277.72,1219.48 2279.22,1219.48 2280.71,1219.48 
  2282.21,1219.48 2283.7,1219.48 2285.2,1219.48 2286.69,1219.48 2288.19,1219.48 2289.68,1219.48 2291.18,1219.48 2292.67,1219.48 2294.17,1219.48 2295.66,1219.48 
  2297.16,1219.48 2298.65,1219.48 2300.15,1219.48 2301.64,1219.48 2303.14,1219.48 2304.63,1219.48 2306.13,1219.48 2307.62,1219.48 2309.12,1219.48 2310.61,1219.48 
  2312.11,1219.48 2313.6,1219.48 2315.1,1219.48 2316.59,1219.48 2318.09,1219.48 2319.58,1219.48 2321.08,1219.48 2322.57,1219.48 2324.07,1219.48 2325.56,1219.48 
  2327.06,1219.48 2328.55,1219.48 2330.05,1219.48 2331.54,1219.48 2333.04,1219.48 2334.53,1219.48 2336.03,1219.48 2337.52,1219.48 2339.02,1219.48 2340.51,1219.48 
  2342.01,1219.48 2343.5,1219.48 2344.99,1219.48 2346.49,1219.48 2347.98,1219.48 2349.48,1219.48 2350.97,1219.48 2352.47,1219.48 2353.96,1219.48 2355.46,1219.48 
  2356.95,1219.48 2358.45,1219.48 2359.94,1219.48 2361.44,1219.48 2362.93,1219.48 2364.43,1219.48 2365.92,1219.48 2367.42,1219.48 2368.91,1219.48 2370.41,1219.48 
  2371.9,1219.48 2373.4,1219.48 2374.89,1219.48 2376.39,1219.48 2377.88,1219.48 2379.38,1219.48 2380.87,1219.48 2382.37,1219.48 2383.86,1219.48 2385.36,1219.48 
  2386.85,1219.48 2388.35,1219.48 2389.84,1219.48 2391.34,1219.48 2392.83,1219.48 2394.33,1219.48 2395.82,1219.48 2397.32,1219.48 2398.81,1219.48 2400.31,1219.48 
  2401.8,1219.48 2403.3,1219.48 2404.79,1219.48 2406.29,1219.48 2407.78,1219.48 2409.28,1219.48 2410.77,1219.48 2412.27,1219.48 2413.76,1219.48 2415.26,1219.48 
  2416.75,1219.48 2418.25,1219.48 2419.74,1219.48 2421.24,1219.48 2422.73,1219.48 2424.23,1219.48 2425.72,1219.48 2427.22,1219.48 2428.71,1219.48 2430.21,1219.48 
  2431.7,1219.48 2433.2,1219.48 2434.69,1219.48 2436.19,1219.48 2437.68,1219.48 2439.18,1219.48 2440.67,1219.48 2442.17,1219.48 2443.66,1219.48 2445.16,1219.48 
  2446.65,1219.48 2448.15,1219.48 2449.64,1219.48 2451.14,1219.48 2452.63,1219.48 2454.13,1219.48 2455.62,1219.48 2457.12,1219.48 2458.61,1219.48 2460.11,1219.48 
  2461.6,1219.48 2463.1,1219.48 2464.59,1219.48 2466.09,1219.48 2467.58,1219.48 2469.08,1219.48 2470.57,1219.48 2472.07,1219.48 2473.56,1219.48 2475.06,1219.48 
  2476.55,1219.48 2478.05,1219.48 2479.54,1219.48 2481.04,1219.48 2482.53,1219.48 2484.03,1219.48 2485.52,1219.48 2487.02,1219.48 2488.51,1219.48 2490.01,1219.48 
  2491.5,1219.48 2493,1219.48 2494.49,1219.48 2495.99,1219.48 2497.48,1219.48 2498.98,1219.48 2500.47,1219.48 2501.97,1219.48 2503.46,1219.48 2504.96,1219.48 
  2506.45,1219.48 2507.95,1219.48 2509.44,1219.48 2510.94,1219.48 2512.43,1219.48 2513.93,1219.48 2515.42,1219.48 2516.92,1219.48 2518.41,1219.48 2519.91,1219.48 
  2521.4,1219.48 2522.9,1219.48 2524.39,1219.48 2525.89,1219.48 2527.38,1219.48 2528.88,1219.48 2530.37,1219.48 2531.87,1219.48 2533.36,1219.48 2534.86,1219.48 
  2536.35,1219.48 2537.85,1219.48 2539.34,1219.48 2540.84,1219.48 2542.33,1219.48 2543.83,1219.48 2545.32,1219.48 2546.82,1219.48 2548.31,1219.48 2549.81,1219.48 
  2551.3,1219.48 2552.8,1219.48 2554.29,1219.48 2555.79,1219.48 2557.28,1219.48 2558.78,1219.48 2560.27,1219.48 2561.77,1219.48 2563.26,1219.48 2564.76,1219.48 
  2566.25,1219.48 2567.75,1219.48 2569.24,1219.48 2570.74,1219.48 2572.23,1219.48 2573.73,1219.48 2575.22,1219.48 2576.72,1219.48 2578.21,1219.48 2579.71,1219.48 
  2581.2,1219.48 2582.7,1219.48 2584.19,1219.48 2585.69,1219.48 2587.18,1219.48 2588.68,1219.48 2590.17,1219.48 2591.67,1219.48 2593.16,1219.48 2594.66,1219.48 
  2596.15,1219.48 2597.65,1219.48 2599.14,1219.48 2600.64,1219.48 2602.13,1219.48 2603.63,1219.48 2605.12,1219.48 2606.62,1219.48 2608.11,1219.48 2609.61,1219.48 
  2611.1,1219.48 2612.6,1219.48 2614.09,1219.48 2615.59,1219.48 2617.08,1219.48 2618.58,1219.48 2620.07,1219.48 2621.57,1219.48 2623.06,1219.48 2624.56,1219.48 
  2626.05,1219.48 2627.55,1219.48 2629.04,1219.48 2630.54,1219.48 2632.03,1219.48 2633.53,1219.48 2635.02,1219.48 2636.52,1219.48 2638.01,1219.48 2639.51,1219.48 
  2641,1219.48 2642.5,1219.48 2643.99,1219.48 2645.49,1219.48 2646.98,1219.48 2648.48,1219.48 2649.97,1219.48 2651.47,1219.48 2652.96,1219.48 2654.46,1219.48 
  2655.95,1219.48 2657.45,1219.48 2658.94,1219.48 2660.44,1219.48 2661.93,1219.48 2663.43,1219.48 2664.92,1219.48 2666.42,1219.48 2667.91,1219.48 2669.41,1219.48 
  2670.9,1219.48 2672.4,1219.48 2673.89,1219.48 2675.39,1219.48 2676.88,1219.48 2678.38,1219.48 2679.87,1219.48 2681.37,1219.48 2682.86,1219.48 2684.36,1219.48 
  2685.85,1219.48 2687.35,1219.48 2688.84,1219.48 2690.34,1219.48 2691.83,1219.48 2693.33,1219.48 2694.82,1219.48 2696.32,1219.48 2697.81,1219.48 2699.31,1219.48 
  2700.8,1219.48 2702.3,1219.48 2703.79,1219.48 2705.29,1219.48 2706.78,1219.48 2708.28,1219.48 2709.77,1219.48 2711.27,1219.48 2712.76,1219.48 2714.26,1219.48 
  2715.75,1219.48 2717.25,1219.48 2718.74,1219.48 2720.24,1219.48 2721.73,1219.48 2723.23,1219.48 2724.72,1219.48 2726.22,1219.48 2727.71,1219.48 2729.21,1219.48 
  2730.7,1219.48 2732.2,1219.48 2733.69,1219.48 2735.19,1219.48 2736.68,1219.48 2738.18,1219.48 2739.67,1219.48 2741.17,1219.48 2742.66,1219.48 2744.16,1219.48 
  2745.65,1219.48 2747.15,1219.48 2748.64,1219.48 2750.14,1219.48 2751.63,1219.48 2753.13,1219.48 2754.62,1219.48 2756.12,1219.48 2757.61,1219.48 2759.11,1219.48 
  2760.6,1219.48 2762.1,1219.48 2763.59,1219.48 2765.09,1219.48 2766.58,1219.48 2768.08,1219.48 2769.57,1219.48 2771.07,1219.48 2772.56,1219.48 2774.06,1219.48 
  2775.55,1219.48 2777.05,1219.48 2778.54,1219.48 2780.04,1219.48 2781.53,1219.48 2783.02,1219.48 2784.52,1219.48 2786.01,1219.48 2787.51,1219.48 2789,1219.48 
  
  "/>
<polyline clip-path="url(#clip7802)" style="stroke:#e26f46; stroke-width:4; stroke-opacity:1; fill:none" points="
  637.725,1219.48 639.22,1219.48 640.715,1219.48 642.21,1219.48 643.705,1219.48 645.2,1219.48 646.694,1219.48 648.189,1219.48 649.684,1219.48 651.179,1219.48 
  652.674,1219.48 654.169,1219.48 655.664,1219.48 657.159,1219.48 658.654,1219.48 660.149,1219.48 661.644,1219.48 663.139,1219.48 664.634,1219.48 666.129,1219.48 
  667.624,1219.48 669.119,1219.48 670.614,1219.48 672.109,1219.48 673.604,1219.48 675.099,1219.48 676.594,1219.48 678.089,1219.48 679.584,1219.48 681.079,1219.48 
  682.574,1219.48 684.069,1219.48 685.564,1219.48 687.059,1219.48 688.554,1219.48 690.049,1219.48 691.544,1219.48 693.039,1219.48 694.534,1219.48 696.029,1219.48 
  697.524,1219.48 699.019,1219.48 700.514,1219.48 702.009,1219.48 703.504,1219.48 704.999,1219.48 706.494,1219.48 707.989,1219.48 709.484,1219.48 710.979,1219.48 
  712.474,1219.48 713.969,1219.48 715.464,1219.48 716.959,1219.48 718.454,1219.48 719.949,1219.48 721.444,1219.48 722.939,1219.48 724.434,1219.48 725.929,1219.48 
  727.424,1219.48 728.919,1219.48 730.414,1219.48 731.909,1219.48 733.403,1219.48 734.898,1219.48 736.393,1219.48 737.888,1219.48 739.383,1219.48 740.878,1219.48 
  742.373,1219.48 743.868,1219.48 745.363,1219.48 746.858,1219.48 748.353,1219.48 749.848,1219.48 751.343,1219.48 752.838,1219.48 754.333,1219.48 755.828,1219.48 
  757.323,1219.48 758.818,1219.48 760.313,1219.48 761.808,1219.48 763.303,1219.48 764.798,1219.48 766.293,1219.48 767.788,1219.48 769.283,1219.48 770.778,1219.48 
  772.273,1219.48 773.768,1219.48 775.263,1219.48 776.758,1219.48 778.253,1219.48 779.748,1219.48 781.243,1219.48 782.738,1219.48 784.233,1219.48 785.728,1219.48 
  787.223,1219.48 788.718,1219.48 790.213,1219.48 791.708,1219.48 793.203,1219.48 794.698,1219.48 796.193,1219.48 797.688,1219.48 799.183,1219.48 800.678,1219.48 
  802.173,1219.48 803.668,1219.48 805.163,1219.48 806.658,1219.48 808.153,1219.48 809.648,1219.48 811.143,1219.48 812.638,1219.48 814.133,1219.48 815.628,1219.48 
  817.123,1219.48 818.618,1219.48 820.112,1219.48 821.607,1219.48 823.102,1219.48 824.597,1219.48 826.092,1219.48 827.587,1219.48 829.082,1219.48 830.577,1219.48 
  832.072,1219.48 833.567,1219.48 835.062,1219.48 836.557,1219.48 838.052,1219.48 839.547,1219.48 841.042,1219.48 842.537,1219.48 844.032,1219.48 845.527,1219.48 
  847.022,1219.48 848.517,1219.48 850.012,1219.48 851.507,1219.48 853.002,1219.48 854.497,1219.48 855.992,1219.48 857.487,1219.48 858.982,1219.48 860.477,1219.48 
  861.972,1219.48 863.467,1219.48 864.962,1219.48 866.457,1219.48 867.952,1219.48 869.447,1219.48 870.942,1219.48 872.437,1219.48 873.932,1219.48 875.427,1219.48 
  876.922,1219.48 878.417,1219.48 879.912,1219.48 881.407,1219.48 882.902,1219.48 884.397,1219.48 885.892,1219.48 887.387,1219.48 888.882,1219.48 890.377,1219.48 
  891.872,1219.48 893.367,1219.48 894.862,1219.48 896.357,1219.48 897.852,1219.48 899.347,1219.48 900.842,1219.48 902.337,1219.48 903.832,1219.48 905.327,1219.48 
  906.822,1219.48 908.316,1219.48 909.811,1219.48 911.306,1219.48 912.801,1219.48 914.296,1219.48 915.791,1219.48 917.286,1219.48 918.781,1219.48 920.276,1219.48 
  921.771,1219.48 923.266,1219.48 924.761,1219.48 926.256,1219.48 927.751,1219.48 929.246,1219.48 930.741,1219.48 932.236,1219.48 933.731,1219.48 935.226,1219.48 
  936.721,1219.48 938.216,1219.48 939.711,1219.48 941.206,1219.48 942.701,1219.48 944.196,1219.48 945.691,1219.48 947.186,1219.48 948.681,1219.48 950.176,1219.48 
  951.671,1219.48 953.166,1219.48 954.661,1219.48 956.156,1219.48 957.651,1219.48 959.146,1219.48 960.641,1219.48 962.136,1219.48 963.631,1219.48 965.126,1219.48 
  966.621,1219.48 968.116,1219.48 969.611,1219.48 971.106,1219.48 972.601,1219.48 974.096,1219.48 975.591,1219.48 977.086,1219.48 978.581,1219.48 980.076,1219.48 
  981.571,1219.48 983.066,1219.48 984.561,1219.48 986.056,1219.48 987.551,1219.48 989.046,1219.48 990.541,1219.48 992.036,1219.48 993.531,1219.48 995.025,1219.48 
  996.52,1219.48 998.015,1219.48 999.51,1219.48 1001.01,1219.48 1002.5,1219.48 1004,1219.48 1005.49,1219.48 1006.99,1219.48 1008.48,1219.48 1009.98,1219.48 
  1011.47,1219.48 1012.97,1219.48 1014.46,1219.48 1015.96,1219.48 1017.45,1219.47 1018.95,1219.47 1020.44,1219.46 1021.94,1219.43 1023.43,1219.39 1024.93,1219.32 
  1026.42,1219.18 1027.92,1218.94 1029.41,1218.53 1030.91,1217.82 1032.4,1216.64 1033.9,1214.73 1035.39,1211.7 1036.89,1207.04 1038.38,1200.08 1039.87,1190 
  1041.37,1175.87 1042.86,1156.68 1044.36,1131.51 1045.85,1099.61 1047.35,1060.59 1048.84,1014.53 1050.34,962.099 1051.83,904.543 1053.33,843.62 1054.82,781.429 
  1056.32,720.195 1057.81,662.016 1059.31,608.651 1060.8,561.361 1062.3,520.839 1063.79,487.224 1065.29,460.186 1066.78,439.055 1068.28,422.962 1069.77,410.969 
  1071.27,402.174 1072.76,395.773 1074.26,391.101 1075.75,387.638 1077.25,384.993 1078.74,382.889 1080.24,381.136 1081.73,379.611 1083.23,378.233 1084.72,376.955 
  1086.22,375.746 1087.71,370.337 1089.21,362.958 1090.7,355.769 1092.2,349.04 1093.69,342.786 1095.19,336.968 1096.68,331.544 1098.18,326.475 1099.67,321.727 
  1101.17,317.268 1102.66,313.073 1104.16,309.119 1105.65,305.384 1107.15,301.851 1108.64,298.503 1110.14,295.327 1111.63,292.309 1113.13,289.437 1114.62,286.701 
  1116.12,284.091 1117.61,281.599 1119.11,279.217 1120.6,276.938 1122.1,274.755 1123.59,272.662 1125.09,270.654 1126.58,268.725 1128.08,266.871 1129.57,265.088 
  1131.07,263.371 1132.56,261.717 1134.06,260.123 1135.55,258.585 1137.05,257.101 1138.54,255.667 1140.04,254.281 1141.53,252.941 1143.03,251.645 1144.52,250.39 
  1146.02,249.174 1147.51,247.996 1149.01,246.853 1150.5,245.745 1152,244.67 1153.49,243.626 1154.99,242.612 1156.48,241.626 1157.98,240.668 1159.47,239.737 
  1160.97,238.83 1162.46,237.948 1163.96,237.089 1165.45,236.253 1166.95,235.438 1168.44,234.644 1169.94,233.869 1171.43,233.114 1172.93,232.377 1174.42,231.658 
  1175.92,230.957 1177.41,230.354 1178.91,229.798 1180.4,229.277 1181.9,228.788 1183.39,228.329 1184.89,227.895 1186.38,227.486 1187.88,227.099 1189.37,226.733 
  1190.87,226.386 1192.36,226.056 1193.86,225.742 1195.35,225.443 1196.85,225.159 1198.34,224.887 1199.84,224.627 1201.33,224.379 1202.83,224.141 1204.32,223.914 
  1205.82,223.695 1207.31,223.486 1208.81,223.284 1210.3,223.091 1211.8,222.905 1213.29,222.725 1214.79,222.553 1216.28,222.386 1217.78,222.225 1219.27,222.07 
  1220.77,221.92 1222.26,221.776 1223.76,221.635 1225.25,221.5 1226.75,221.369 1228.24,221.242 1229.74,221.118 1231.23,220.999 1232.73,220.883 1234.22,220.77 
  1235.72,220.661 1237.21,220.555 1238.71,220.452 1240.2,220.352 1241.7,220.254 1243.19,220.16 1244.69,220.067 1246.18,219.977 1247.68,219.89 1249.17,219.805 
  1250.67,219.721 1252.16,219.64 1253.66,219.561 1255.15,219.484 1256.65,219.409 1258.14,219.336 1259.64,219.264 1261.13,219.194 1262.63,219.125 1264.12,219.059 
  1265.62,218.993 1267.11,219.564 1268.61,220.147 1270.1,220.719 1271.6,221.282 1273.09,221.834 1274.59,222.377 1276.08,222.911 1277.58,223.436 1279.07,223.952 
  1280.57,224.46 1282.06,224.959 1283.56,225.45 1285.05,225.933 1286.55,226.409 1288.04,226.877 1289.54,227.337 1291.03,227.79 1292.53,228.237 1294.02,228.676 
  1295.52,229.109 1297.01,229.535 1298.51,229.954 1300,230.368 1301.5,230.775 1302.99,231.176 1304.49,231.572 1305.98,231.961 1307.48,232.345 1308.97,232.724 
  1310.47,233.097 1311.96,233.465 1313.46,233.828 1314.95,234.186 1316.45,234.538 1317.94,234.886 1319.44,235.229 1320.93,235.568 1322.43,235.902 1323.92,236.231 
  1325.42,236.557 1326.91,236.877 1328.41,237.194 1329.9,237.507 1331.4,237.815 1332.89,238.12 1334.39,238.42 1335.88,238.717 1337.38,239.01 1338.87,239.3 
  1340.37,239.586 1341.86,239.868 1343.36,240.147 1344.85,240.422 1346.35,240.694 1347.84,240.963 1349.34,241.229 1350.83,241.491 1352.33,241.75 1353.82,242.007 
  1355.32,242.26 1356.81,243.345 1358.31,244.472 1359.8,245.625 1361.3,246.804 1362.79,248.01 1364.29,249.243 1365.78,250.506 1367.28,251.798 1368.77,253.12 
  1370.27,254.475 1371.76,255.863 1373.26,257.285 1374.75,258.743 1376.25,260.238 1377.74,261.771 1379.24,263.344 1380.73,264.959 1382.23,266.617 1383.72,268.319 
  1385.22,270.069 1386.71,271.867 1388.21,273.716 1389.7,275.618 1391.2,277.575 1392.69,279.589 1394.19,281.664 1395.68,283.802 1397.18,286.006 1398.67,288.279 
  1400.17,290.624 1401.66,293.045 1403.16,295.546 1404.65,298.13 1406.15,300.802 1407.64,303.566 1409.14,306.427 1410.63,309.391 1412.13,312.462 1413.62,315.648 
  1415.12,318.954 1416.61,322.387 1418.11,325.955 1419.6,329.666 1421.1,333.528 1422.59,337.552 1424.09,341.747 1425.58,346.124 1427.08,350.696 1428.57,355.476 
  1430.07,360.478 1431.56,365.718 1433.06,371.213 1434.55,376.983 1436.05,383.048 1437.54,389.432 1439.04,396.16 1440.53,403.26 1442.03,410.764 1443.52,418.707 
  1445.02,427.128 1446.51,428.438 1448.01,428.975 1449.5,429.519 1451,430.072 1452.49,430.632 1453.99,431.202 1455.48,431.78 1456.98,432.367 1458.47,432.963 
  1459.97,433.569 1461.46,434.185 1462.96,434.81 1464.45,435.446 1465.95,436.092 1467.44,436.749 1468.94,437.416 1470.43,438.095 1471.93,438.785 1473.42,439.487 
  1474.91,440.201 1476.41,440.928 1477.9,441.667 1479.4,442.42 1480.89,443.185 1482.39,443.965 1483.88,444.758 1485.38,445.566 1486.87,446.39 1488.37,447.228 
  1489.86,448.082 1491.36,448.953 1492.85,449.84 1494.35,450.744 1495.84,451.666 1497.34,452.606 1498.83,453.565 1500.33,454.543 1501.82,455.541 1503.32,456.56 
  1504.81,457.6 1506.31,458.661 1507.8,459.745 1509.3,460.853 1510.79,461.984 1512.29,463.14 1513.78,464.321 1515.28,465.53 1516.77,466.765 1518.27,468.028 
  1519.76,469.321 1521.26,470.644 1522.75,471.999 1524.25,473.386 1525.74,474.806 1527.24,476.261 1528.73,477.753 1530.23,479.282 1531.72,480.85 1533.22,482.458 
  1534.71,484.108 1536.21,485.147 1537.7,486.044 1539.2,486.943 1540.69,487.846 1542.19,488.755 1543.68,489.67 1545.18,490.59 1546.67,491.517 1548.17,492.449 
  1549.66,493.387 1551.16,494.331 1552.65,495.281 1554.15,496.237 1555.64,497.199 1557.14,498.167 1558.63,499.142 1560.13,500.122 1561.62,501.109 1563.12,502.103 
  1564.61,503.103 1566.11,504.11 1567.6,505.123 1569.1,506.143 1570.59,507.169 1572.09,508.202 1573.58,509.243 1575.08,510.29 1576.57,511.344 1578.07,512.405 
  1579.56,513.474 1581.06,514.549 1582.55,515.632 1584.05,516.722 1585.54,517.82 1587.04,518.925 1588.53,520.038 1590.03,521.159 1591.52,522.287 1593.02,523.423 
  1594.51,524.567 1596.01,525.719 1597.5,526.879 1599,528.047 1600.49,529.223 1601.99,530.408 1603.48,531.601 1604.98,532.803 1606.47,534.013 1607.97,535.232 
  1609.46,536.46 1610.96,537.697 1612.45,538.942 1613.95,540.197 1615.44,541.461 1616.94,542.734 1618.43,544.017 1619.93,545.309 1621.42,546.611 1622.92,547.922 
  1624.41,549.243 1625.91,552.988 1627.4,557.559 1628.9,562.237 1630.39,566.967 1631.89,571.741 1633.38,576.558 1634.88,581.419 1636.37,586.324 1637.87,591.273 
  1639.36,596.268 1640.86,601.308 1642.35,606.395 1643.85,611.529 1645.34,616.71 1646.84,621.939 1648.33,627.217 1649.83,632.544 1651.32,637.921 1652.82,643.348 
  1654.31,648.827 1655.81,654.357 1657.3,659.939 1658.8,665.575 1660.29,671.264 1661.79,677.007 1663.28,682.805 1664.78,688.659 1666.27,694.568 1667.77,700.535 
  1669.26,706.558 1670.76,712.64 1672.25,718.78 1673.75,724.979 1675.24,731.238 1676.74,737.557 1678.23,743.936 1679.73,750.377 1681.22,756.88 1682.72,763.445 
  1684.21,770.073 1685.71,776.764 1687.2,783.519 1688.7,790.337 1690.19,797.219 1691.69,804.166 1693.18,811.177 1694.68,818.252 1696.17,825.392 1697.67,832.596 
  1699.16,839.865 1700.66,847.197 1702.15,854.593 1703.65,862.051 1705.14,869.572 1706.64,877.153 1708.13,884.795 1709.63,892.496 1711.12,900.254 1712.62,908.067 
  1714.11,915.934 1715.61,922.737 1717.1,928.755 1718.6,934.471 1720.09,940.026 1721.59,945.487 1723.08,950.888 1724.58,956.25 1726.07,961.586 1727.57,966.903 
  1729.06,972.206 1730.56,977.499 1732.05,982.783 1733.55,988.059 1735.04,993.327 1736.54,998.587 1738.03,1003.84 1739.53,1009.08 1741.02,1014.31 1742.52,1019.53 
  1744.01,1024.73 1745.51,1029.92 1747,1035.09 1748.5,1040.25 1749.99,1045.38 1751.49,1050.48 1752.98,1055.56 1754.48,1060.62 1755.97,1065.64 1757.47,1070.62 
  1758.96,1075.57 1760.46,1080.48 1761.95,1085.35 1763.45,1090.17 1764.94,1094.94 1766.44,1099.66 1767.93,1104.32 1769.43,1108.93 1770.92,1113.47 1772.42,1117.94 
  1773.91,1122.35 1775.41,1126.68 1776.9,1130.93 1778.4,1135.11 1779.89,1139.2 1781.39,1143.2 1782.88,1147.11 1784.38,1150.93 1785.87,1154.65 1787.37,1158.27 
  1788.86,1161.79 1790.36,1165.2 1791.85,1168.5 1793.35,1171.7 1794.84,1174.77 1796.34,1177.74 1797.83,1180.59 1799.33,1183.32 1800.82,1185.94 1802.32,1188.43 
  1803.81,1190.81 1805.31,1192.8 1806.8,1194.42 1808.3,1195.81 1809.79,1197.03 1811.29,1198.11 1812.78,1199.09 1814.28,1199.96 1815.77,1200.76 1817.27,1201.49 
  1818.76,1202.16 1820.26,1202.77 1821.75,1203.34 1823.25,1203.87 1824.74,1204.35 1826.24,1204.81 1827.73,1205.23 1829.23,1205.62 1830.72,1205.99 1832.22,1206.33 
  1833.71,1206.65 1835.21,1206.95 1836.7,1207.24 1838.2,1207.5 1839.69,1207.75 1841.19,1207.98 1842.68,1208.2 1844.18,1208.4 1845.67,1208.59 1847.17,1208.77 
  1848.66,1208.94 1850.16,1209.1 1851.65,1209.25 1853.15,1209.38 1854.64,1209.51 1856.14,1209.63 1857.63,1209.74 1859.13,1209.84 1860.62,1209.93 1862.12,1210.02 
  1863.61,1210.1 1865.11,1210.17 1866.6,1210.23 1868.1,1210.29 1869.59,1210.34 1871.09,1210.39 1872.58,1210.43 1874.08,1210.46 1875.57,1210.48 1877.07,1210.51 
  1878.56,1210.52 1880.06,1210.53 1881.55,1210.53 1883.05,1210.53 1884.54,1210.53 1886.04,1210.52 1887.53,1210.5 1889.03,1210.48 1890.52,1210.46 1892.02,1210.43 
  1893.51,1210.39 1895.01,1210.41 1896.5,1210.48 1898,1210.59 1899.49,1210.72 1900.99,1210.89 1902.48,1211.07 1903.98,1211.27 1905.47,1211.48 1906.97,1211.71 
  1908.46,1211.94 1909.95,1212.19 1911.45,1212.44 1912.94,1212.7 1914.44,1212.96 1915.93,1213.22 1917.43,1213.48 1918.92,1213.75 1920.42,1214.01 1921.91,1214.27 
  1923.41,1214.53 1924.9,1214.78 1926.4,1215.03 1927.89,1215.27 1929.39,1215.51 1930.88,1215.74 1932.38,1215.96 1933.87,1216.17 1935.37,1216.38 1936.86,1216.58 
  1938.36,1216.77 1939.85,1216.96 1941.35,1217.13 1942.84,1217.3 1944.34,1217.46 1945.83,1217.61 1947.33,1217.75 1948.82,1217.88 1950.32,1218.01 1951.81,1218.12 
  1953.31,1218.24 1954.8,1218.34 1956.3,1218.44 1957.79,1218.53 1959.29,1218.61 1960.78,1218.69 1962.28,1218.76 1963.77,1218.83 1965.27,1218.89 1966.76,1218.94 
  1968.26,1219 1969.75,1219.04 1971.25,1219.09 1972.74,1219.13 1974.24,1219.16 1975.73,1219.2 1977.23,1219.23 1978.72,1219.25 1980.22,1219.28 1981.71,1219.3 
  1983.21,1219.32 1984.7,1219.34 1986.2,1219.36 1987.69,1219.37 1989.19,1219.38 1990.68,1219.4 1992.18,1219.41 1993.67,1219.42 1995.17,1219.42 1996.66,1219.43 
  1998.16,1219.44 1999.65,1219.44 2001.15,1219.45 2002.64,1219.45 2004.14,1219.46 2005.63,1219.46 2007.13,1219.46 2008.62,1219.47 2010.12,1219.47 2011.61,1219.47 
  2013.11,1219.47 2014.6,1219.47 2016.1,1219.47 2017.59,1219.48 2019.09,1219.48 2020.58,1219.48 2022.08,1219.48 2023.57,1219.48 2025.07,1219.48 2026.56,1219.48 
  2028.06,1219.48 2029.55,1219.48 2031.05,1219.48 2032.54,1219.48 2034.04,1219.48 2035.53,1219.48 2037.03,1219.48 2038.52,1219.48 2040.02,1219.48 2041.51,1219.48 
  2043.01,1219.48 2044.5,1219.48 2046,1219.48 2047.49,1219.48 2048.99,1219.48 2050.48,1219.48 2051.98,1219.48 2053.47,1219.48 2054.97,1219.48 2056.46,1219.48 
  2057.96,1219.48 2059.45,1219.48 2060.95,1219.48 2062.44,1219.48 2063.94,1219.48 2065.43,1219.48 2066.93,1219.48 2068.42,1219.48 2069.92,1219.48 2071.41,1219.48 
  2072.91,1219.48 2074.4,1219.48 2075.9,1219.48 2077.39,1219.48 2078.89,1219.48 2080.38,1219.48 2081.88,1219.48 2083.37,1219.48 2084.87,1219.48 2086.36,1219.48 
  2087.86,1219.48 2089.35,1219.48 2090.85,1219.48 2092.34,1219.48 2093.84,1219.48 2095.33,1219.48 2096.83,1219.48 2098.32,1219.48 2099.82,1219.48 2101.31,1219.48 
  2102.81,1219.48 2104.3,1219.48 2105.8,1219.48 2107.29,1219.48 2108.79,1219.48 2110.28,1219.48 2111.78,1219.48 2113.27,1219.48 2114.77,1219.48 2116.26,1219.48 
  2117.76,1219.48 2119.25,1219.48 2120.75,1219.48 2122.24,1219.48 2123.74,1219.48 2125.23,1219.48 2126.73,1219.48 2128.22,1219.48 2129.72,1219.48 2131.21,1219.48 
  2132.71,1219.48 2134.2,1219.48 2135.7,1219.48 2137.19,1219.48 2138.69,1219.48 2140.18,1219.48 2141.68,1219.48 2143.17,1219.48 2144.67,1219.48 2146.16,1219.48 
  2147.66,1219.48 2149.15,1219.48 2150.65,1219.48 2152.14,1219.48 2153.64,1219.48 2155.13,1219.48 2156.63,1219.48 2158.12,1219.48 2159.62,1219.48 2161.11,1219.48 
  2162.61,1219.48 2164.1,1219.48 2165.6,1219.48 2167.09,1219.48 2168.59,1219.48 2170.08,1219.48 2171.58,1219.48 2173.07,1219.48 2174.57,1219.48 2176.06,1219.48 
  2177.56,1219.48 2179.05,1219.48 2180.55,1219.48 2182.04,1219.48 2183.54,1219.48 2185.03,1219.48 2186.53,1219.48 2188.02,1219.48 2189.52,1219.48 2191.01,1219.48 
  2192.51,1219.48 2194,1219.48 2195.5,1219.48 2196.99,1219.48 2198.49,1219.48 2199.98,1219.48 2201.48,1219.48 2202.97,1219.48 2204.47,1219.48 2205.96,1219.48 
  2207.46,1219.48 2208.95,1219.48 2210.45,1219.48 2211.94,1219.48 2213.44,1219.48 2214.93,1219.48 2216.43,1219.48 2217.92,1219.48 2219.42,1219.48 2220.91,1219.48 
  2222.41,1219.48 2223.9,1219.48 2225.4,1219.48 2226.89,1219.48 2228.39,1219.48 2229.88,1219.48 2231.38,1219.48 2232.87,1219.48 2234.37,1219.48 2235.86,1219.48 
  2237.36,1219.48 2238.85,1219.48 2240.35,1219.48 2241.84,1219.48 2243.34,1219.48 2244.83,1219.48 2246.33,1219.48 2247.82,1219.48 2249.32,1219.48 2250.81,1219.48 
  2252.31,1219.48 2253.8,1219.48 2255.3,1219.48 2256.79,1219.48 2258.29,1219.48 2259.78,1219.48 2261.28,1219.48 2262.77,1219.48 2264.27,1219.48 2265.76,1219.48 
  2267.26,1219.48 2268.75,1219.48 2270.25,1219.48 2271.74,1219.48 2273.24,1219.48 2274.73,1219.48 2276.23,1219.48 2277.72,1219.48 2279.22,1219.48 2280.71,1219.48 
  2282.21,1219.48 2283.7,1219.48 2285.2,1219.48 2286.69,1219.48 2288.19,1219.48 2289.68,1219.48 2291.18,1219.48 2292.67,1219.48 2294.17,1219.48 2295.66,1219.48 
  2297.16,1219.48 2298.65,1219.48 2300.15,1219.48 2301.64,1219.48 2303.14,1219.48 2304.63,1219.48 2306.13,1219.48 2307.62,1219.48 2309.12,1219.48 2310.61,1219.48 
  2312.11,1219.48 2313.6,1219.48 2315.1,1219.48 2316.59,1219.48 2318.09,1219.48 2319.58,1219.48 2321.08,1219.48 2322.57,1219.48 2324.07,1219.48 2325.56,1219.48 
  2327.06,1219.48 2328.55,1219.48 2330.05,1219.48 2331.54,1219.48 2333.04,1219.48 2334.53,1219.48 2336.03,1219.48 2337.52,1219.48 2339.02,1219.48 2340.51,1219.48 
  2342.01,1219.48 2343.5,1219.48 2344.99,1219.48 2346.49,1219.48 2347.98,1219.48 2349.48,1219.48 2350.97,1219.48 2352.47,1219.48 2353.96,1219.48 2355.46,1219.48 
  2356.95,1219.48 2358.45,1219.48 2359.94,1219.48 2361.44,1219.48 2362.93,1219.48 2364.43,1219.48 2365.92,1219.48 2367.42,1219.48 2368.91,1219.48 2370.41,1219.48 
  2371.9,1219.48 2373.4,1219.48 2374.89,1219.48 2376.39,1219.48 2377.88,1219.48 2379.38,1219.48 2380.87,1219.48 2382.37,1219.48 2383.86,1219.48 2385.36,1219.48 
  2386.85,1219.48 2388.35,1219.48 2389.84,1219.48 2391.34,1219.48 2392.83,1219.48 2394.33,1219.48 2395.82,1219.48 2397.32,1219.48 2398.81,1219.48 2400.31,1219.48 
  2401.8,1219.48 2403.3,1219.48 2404.79,1219.48 2406.29,1219.48 2407.78,1219.48 2409.28,1219.48 2410.77,1219.48 2412.27,1219.48 2413.76,1219.48 2415.26,1219.48 
  2416.75,1219.48 2418.25,1219.48 2419.74,1219.48 2421.24,1219.48 2422.73,1219.48 2424.23,1219.48 2425.72,1219.48 2427.22,1219.48 2428.71,1219.48 2430.21,1219.48 
  2431.7,1219.48 2433.2,1219.48 2434.69,1219.48 2436.19,1219.48 2437.68,1219.48 2439.18,1219.48 2440.67,1219.48 2442.17,1219.48 2443.66,1219.48 2445.16,1219.48 
  2446.65,1219.48 2448.15,1219.48 2449.64,1219.48 2451.14,1219.48 2452.63,1219.48 2454.13,1219.48 2455.62,1219.48 2457.12,1219.48 2458.61,1219.48 2460.11,1219.48 
  2461.6,1219.48 2463.1,1219.48 2464.59,1219.48 2466.09,1219.48 2467.58,1219.48 2469.08,1219.48 2470.57,1219.48 2472.07,1219.48 2473.56,1219.48 2475.06,1219.48 
  2476.55,1219.48 2478.05,1219.48 2479.54,1219.48 2481.04,1219.48 2482.53,1219.48 2484.03,1219.48 2485.52,1219.48 2487.02,1219.48 2488.51,1219.48 2490.01,1219.48 
  2491.5,1219.48 2493,1219.48 2494.49,1219.48 2495.99,1219.48 2497.48,1219.48 2498.98,1219.48 2500.47,1219.48 2501.97,1219.48 2503.46,1219.48 2504.96,1219.48 
  2506.45,1219.48 2507.95,1219.48 2509.44,1219.48 2510.94,1219.48 2512.43,1219.48 2513.93,1219.48 2515.42,1219.48 2516.92,1219.48 2518.41,1219.48 2519.91,1219.48 
  2521.4,1219.48 2522.9,1219.48 2524.39,1219.48 2525.89,1219.48 2527.38,1219.48 2528.88,1219.48 2530.37,1219.48 2531.87,1219.48 2533.36,1219.48 2534.86,1219.48 
  2536.35,1219.48 2537.85,1219.48 2539.34,1219.48 2540.84,1219.48 2542.33,1219.48 2543.83,1219.48 2545.32,1219.48 2546.82,1219.48 2548.31,1219.48 2549.81,1219.48 
  2551.3,1219.48 2552.8,1219.48 2554.29,1219.48 2555.79,1219.48 2557.28,1219.48 2558.78,1219.48 2560.27,1219.48 2561.77,1219.48 2563.26,1219.48 2564.76,1219.48 
  2566.25,1219.48 2567.75,1219.48 2569.24,1219.48 2570.74,1219.48 2572.23,1219.48 2573.73,1219.48 2575.22,1219.48 2576.72,1219.48 2578.21,1219.48 2579.71,1219.48 
  2581.2,1219.48 2582.7,1219.48 2584.19,1219.48 2585.69,1219.48 2587.18,1219.48 2588.68,1219.48 2590.17,1219.48 2591.67,1219.48 2593.16,1219.48 2594.66,1219.48 
  2596.15,1219.48 2597.65,1219.48 2599.14,1219.48 2600.64,1219.48 2602.13,1219.48 2603.63,1219.48 2605.12,1219.48 2606.62,1219.48 2608.11,1219.48 2609.61,1219.48 
  2611.1,1219.48 2612.6,1219.48 2614.09,1219.48 2615.59,1219.48 2617.08,1219.48 2618.58,1219.48 2620.07,1219.48 2621.57,1219.48 2623.06,1219.48 2624.56,1219.48 
  2626.05,1219.48 2627.55,1219.48 2629.04,1219.48 2630.54,1219.48 2632.03,1219.48 2633.53,1219.48 2635.02,1219.48 2636.52,1219.48 2638.01,1219.48 2639.51,1219.48 
  2641,1219.48 2642.5,1219.48 2643.99,1219.48 2645.49,1219.48 2646.98,1219.48 2648.48,1219.48 2649.97,1219.48 2651.47,1219.48 2652.96,1219.48 2654.46,1219.48 
  2655.95,1219.48 2657.45,1219.48 2658.94,1219.48 2660.44,1219.48 2661.93,1219.48 2663.43,1219.48 2664.92,1219.48 2666.42,1219.48 2667.91,1219.48 2669.41,1219.48 
  2670.9,1219.48 2672.4,1219.48 2673.89,1219.48 2675.39,1219.48 2676.88,1219.48 2678.38,1219.48 2679.87,1219.48 2681.37,1219.48 2682.86,1219.48 2684.36,1219.48 
  2685.85,1219.48 2687.35,1219.48 2688.84,1219.48 2690.34,1219.48 2691.83,1219.48 2693.33,1219.48 2694.82,1219.48 2696.32,1219.48 2697.81,1219.48 2699.31,1219.48 
  2700.8,1219.48 2702.3,1219.48 2703.79,1219.48 2705.29,1219.48 2706.78,1219.48 2708.28,1219.48 2709.77,1219.48 2711.27,1219.48 2712.76,1219.48 2714.26,1219.48 
  2715.75,1219.48 2717.25,1219.48 2718.74,1219.48 2720.24,1219.48 2721.73,1219.48 2723.23,1219.48 2724.72,1219.48 2726.22,1219.48 2727.71,1219.48 2729.21,1219.48 
  2730.7,1219.48 2732.2,1219.48 2733.69,1219.48 2735.19,1219.48 2736.68,1219.48 2738.18,1219.48 2739.67,1219.48 2741.17,1219.48 2742.66,1219.48 2744.16,1219.48 
  2745.65,1219.48 2747.15,1219.48 2748.64,1219.48 2750.14,1219.48 2751.63,1219.48 2753.13,1219.48 2754.62,1219.48 2756.12,1219.48 2757.61,1219.48 2759.11,1219.48 
  2760.6,1219.48 2762.1,1219.48 2763.59,1219.48 2765.09,1219.48 2766.58,1219.48 2768.08,1219.48 2769.57,1219.48 2771.07,1219.48 2772.56,1219.48 2774.06,1219.48 
  2775.55,1219.48 2777.05,1219.48 2778.54,1219.48 2780.04,1219.48 2781.53,1219.48 2783.02,1219.48 2784.52,1219.48 2786.01,1219.48 2787.51,1219.48 2789,1219.48 
  
  "/>
<polygon clip-path="url(#clip7800)" points="
2341.23,1057.5 2757.54,1057.5 2757.54,876.057 2341.23,876.057 
  " fill="#ffffff" fill-rule="evenodd" fill-opacity="1"/>
<polyline clip-path="url(#clip7800)" style="stroke:#000000; stroke-width:4; stroke-opacity:1; fill:none" points="
  2341.23,1057.5 2757.54,1057.5 2757.54,876.057 2341.23,876.057 2341.23,1057.5 
  "/>
<polyline clip-path="url(#clip7800)" style="stroke:#009af9; stroke-width:4; stroke-opacity:1; fill:none" points="
  2373.23,936.537 2565.23,936.537 
  "/>
<g clip-path="url(#clip7800)">
<text style="fill:#000000; fill-opacity:1; font-family:Arial,Helvetica Neue,Helvetica,sans-serif; font-size:48px; text-anchor:start;" transform="rotate(0, 2597.23, 954.037)" x="2597.23" y="954.037">PSA</text>
</g>
<polyline clip-path="url(#clip7800)" style="stroke:#e26f46; stroke-width:4; stroke-opacity:1; fill:none" points="
  2373.23,997.017 2565.23,997.017 
  "/>
<g clip-path="url(#clip7800)">
<text style="fill:#000000; fill-opacity:1; font-family:Arial,Helvetica Neue,Helvetica,sans-serif; font-size:48px; text-anchor:start;" transform="rotate(0, 2597.23, 1014.52)" x="2597.23" y="1014.52">NS</text>
</g>
</svg>
