<?xml version="1.0" encoding="utf-8"?>
<svg xmlns="http://www.w3.org/2000/svg" xmlns:xlink="http://www.w3.org/1999/xlink" width="800" height="400" viewBox="0 0 3200 1600">
<defs>
  <clipPath id="clip9400">
    <rect x="0" y="0" width="3200" height="1600"/>
  </clipPath>
</defs>
<polygon clip-path="url(#clip9400)" points="
0,1600 3200,1600 3200,0 0,0 
  " fill="#ffffff" fill-rule="evenodd" fill-opacity="1"/>
<defs>
  <clipPath id="clip9401">
    <rect x="640" y="0" width="2241" height="1600"/>
  </clipPath>
</defs>
<polygon clip-path="url(#clip9400)" points="
552.61,1275.5 2853.54,1275.5 2853.54,188.976 552.61,188.976 
  " fill="#ffffff" fill-rule="evenodd" fill-opacity="1"/>
<defs>
  <clipPath id="clip9402">
    <rect x="552" y="188" width="2302" height="1088"/>
  </clipPath>
</defs>
<polyline clip-path="url(#clip9402)" style="stroke:#000000; stroke-width:2; stroke-opacity:0.1; fill:none" points="
  614.712,1275.5 614.712,188.976 
  "/>
<polyline clip-path="url(#clip9402)" style="stroke:#000000; stroke-width:2; stroke-opacity:0.1; fill:none" points="
  976.997,1275.5 976.997,188.976 
  "/>
<polyline clip-path="url(#clip9402)" style="stroke:#000000; stroke-width:2; stroke-opacity:0.1; fill:none" points="
  1339.28,1275.5 1339.28,188.976 
  "/>
<polyline clip-path="url(#clip9402)" style="stroke:#000000; stroke-width:2; stroke-opacity:0.1; fill:none" points="
  1701.57,1275.5 1701.57,188.976 
  "/>
<polyline clip-path="url(#clip9402)" style="stroke:#000000; stroke-width:2; stroke-opacity:0.1; fill:none" points="
  2063.85,1275.5 2063.85,188.976 
  "/>
<polyline clip-path="url(#clip9402)" style="stroke:#000000; stroke-width:2; stroke-opacity:0.1; fill:none" points="
  2426.14,1275.5 2426.14,188.976 
  "/>
<polyline clip-path="url(#clip9402)" style="stroke:#000000; stroke-width:2; stroke-opacity:0.1; fill:none" points="
  2788.42,1275.5 2788.42,188.976 
  "/>
<polyline clip-path="url(#clip9402)" style="stroke:#000000; stroke-width:2; stroke-opacity:0.1; fill:none" points="
  552.61,1211.28 2853.54,1211.28 
  "/>
<polyline clip-path="url(#clip9402)" style="stroke:#000000; stroke-width:2; stroke-opacity:0.1; fill:none" points="
  552.61,1027.3 2853.54,1027.3 
  "/>
<polyline clip-path="url(#clip9402)" style="stroke:#000000; stroke-width:2; stroke-opacity:0.1; fill:none" points="
  552.61,843.329 2853.54,843.329 
  "/>
<polyline clip-path="url(#clip9402)" style="stroke:#000000; stroke-width:2; stroke-opacity:0.1; fill:none" points="
  552.61,659.353 2853.54,659.353 
  "/>
<polyline clip-path="url(#clip9402)" style="stroke:#000000; stroke-width:2; stroke-opacity:0.1; fill:none" points="
  552.61,475.377 2853.54,475.377 
  "/>
<polyline clip-path="url(#clip9402)" style="stroke:#000000; stroke-width:2; stroke-opacity:0.1; fill:none" points="
  552.61,291.402 2853.54,291.402 
  "/>
<polyline clip-path="url(#clip9400)" style="stroke:#000000; stroke-width:4; stroke-opacity:1; fill:none" points="
  552.61,1275.5 2853.54,1275.5 
  "/>
<polyline clip-path="url(#clip9400)" style="stroke:#000000; stroke-width:4; stroke-opacity:1; fill:none" points="
  552.61,1275.5 552.61,188.976 
  "/>
<polyline clip-path="url(#clip9400)" style="stroke:#000000; stroke-width:4; stroke-opacity:1; fill:none" points="
  614.712,1275.5 614.712,1259.21 
  "/>
<polyline clip-path="url(#clip9400)" style="stroke:#000000; stroke-width:4; stroke-opacity:1; fill:none" points="
  976.997,1275.5 976.997,1259.21 
  "/>
<polyline clip-path="url(#clip9400)" style="stroke:#000000; stroke-width:4; stroke-opacity:1; fill:none" points="
  1339.28,1275.5 1339.28,1259.21 
  "/>
<polyline clip-path="url(#clip9400)" style="stroke:#000000; stroke-width:4; stroke-opacity:1; fill:none" points="
  1701.57,1275.5 1701.57,1259.21 
  "/>
<polyline clip-path="url(#clip9400)" style="stroke:#000000; stroke-width:4; stroke-opacity:1; fill:none" points="
  2063.85,1275.5 2063.85,1259.21 
  "/>
<polyline clip-path="url(#clip9400)" style="stroke:#000000; stroke-width:4; stroke-opacity:1; fill:none" points="
  2426.14,1275.5 2426.14,1259.21 
  "/>
<polyline clip-path="url(#clip9400)" style="stroke:#000000; stroke-width:4; stroke-opacity:1; fill:none" points="
  2788.42,1275.5 2788.42,1259.21 
  "/>
<polyline clip-path="url(#clip9400)" style="stroke:#000000; stroke-width:4; stroke-opacity:1; fill:none" points="
  552.61,1211.28 587.124,1211.28 
  "/>
<polyline clip-path="url(#clip9400)" style="stroke:#000000; stroke-width:4; stroke-opacity:1; fill:none" points="
  552.61,1027.3 587.124,1027.3 
  "/>
<polyline clip-path="url(#clip9400)" style="stroke:#000000; stroke-width:4; stroke-opacity:1; fill:none" points="
  552.61,843.329 587.124,843.329 
  "/>
<polyline clip-path="url(#clip9400)" style="stroke:#000000; stroke-width:4; stroke-opacity:1; fill:none" points="
  552.61,659.353 587.124,659.353 
  "/>
<polyline clip-path="url(#clip9400)" style="stroke:#000000; stroke-width:4; stroke-opacity:1; fill:none" points="
  552.61,475.377 587.124,475.377 
  "/>
<polyline clip-path="url(#clip9400)" style="stroke:#000000; stroke-width:4; stroke-opacity:1; fill:none" points="
  552.61,291.402 587.124,291.402 
  "/>
<g clip-path="url(#clip9400)">
<text style="fill:#000000; fill-opacity:1; font-family:Arial,Helvetica Neue,Helvetica,sans-serif; font-size:71px; text-anchor:middle;" transform="rotate(0, 614.712, 1353.9)" x="614.712" y="1353.9">0</text>
</g>
<g clip-path="url(#clip9400)">
<text style="fill:#000000; fill-opacity:1; font-family:Arial,Helvetica Neue,Helvetica,sans-serif; font-size:71px; text-anchor:middle;" transform="rotate(0, 976.997, 1353.9)" x="976.997" y="1353.9">4</text>
</g>
<g clip-path="url(#clip9400)">
<text style="fill:#000000; fill-opacity:1; font-family:Arial,Helvetica Neue,Helvetica,sans-serif; font-size:71px; text-anchor:middle;" transform="rotate(0, 1339.28, 1353.9)" x="1339.28" y="1353.9">8</text>
</g>
<g clip-path="url(#clip9400)">
<text style="fill:#000000; fill-opacity:1; font-family:Arial,Helvetica Neue,Helvetica,sans-serif; font-size:71px; text-anchor:middle;" transform="rotate(0, 1701.57, 1353.9)" x="1701.57" y="1353.9">12</text>
</g>
<g clip-path="url(#clip9400)">
<text style="fill:#000000; fill-opacity:1; font-family:Arial,Helvetica Neue,Helvetica,sans-serif; font-size:71px; text-anchor:middle;" transform="rotate(0, 2063.85, 1353.9)" x="2063.85" y="1353.9">16</text>
</g>
<g clip-path="url(#clip9400)">
<text style="fill:#000000; fill-opacity:1; font-family:Arial,Helvetica Neue,Helvetica,sans-serif; font-size:71px; text-anchor:middle;" transform="rotate(0, 2426.14, 1353.9)" x="2426.14" y="1353.9">20</text>
</g>
<g clip-path="url(#clip9400)">
<text style="fill:#000000; fill-opacity:1; font-family:Arial,Helvetica Neue,Helvetica,sans-serif; font-size:71px; text-anchor:middle;" transform="rotate(0, 2788.42, 1353.9)" x="2788.42" y="1353.9">24</text>
</g>
<g clip-path="url(#clip9400)">
<text style="fill:#000000; fill-opacity:1; font-family:Arial,Helvetica Neue,Helvetica,sans-serif; font-size:71px; text-anchor:start;" transform="rotate(0, 357.139, 1246.87)" x="357.139" y="1246.87">10</text>
</g>
<g clip-path="url(#clip9400)">
<text style="fill:#000000; fill-opacity:1; font-family:Arial,Helvetica Neue,Helvetica,sans-serif; font-size:58px; text-anchor:start;" transform="rotate(0, 437.426, 1205.76)" x="437.426" y="1205.76">-</text>
</g>
<g clip-path="url(#clip9400)">
<text style="fill:#000000; fill-opacity:1; font-family:Arial,Helvetica Neue,Helvetica,sans-serif; font-size:58px; text-anchor:start;" transform="rotate(0, 471.685, 1205.76)" x="471.685" y="1205.76">4 </text>
</g>
<g clip-path="url(#clip9400)">
<text style="fill:#000000; fill-opacity:1; font-family:Arial,Helvetica Neue,Helvetica,sans-serif; font-size:71px; text-anchor:start;" transform="rotate(0, 357.139, 1062.9)" x="357.139" y="1062.9">10</text>
</g>
<g clip-path="url(#clip9400)">
<text style="fill:#000000; fill-opacity:1; font-family:Arial,Helvetica Neue,Helvetica,sans-serif; font-size:58px; text-anchor:start;" transform="rotate(0, 437.426, 1021.78)" x="437.426" y="1021.78">-</text>
</g>
<g clip-path="url(#clip9400)">
<text style="fill:#000000; fill-opacity:1; font-family:Arial,Helvetica Neue,Helvetica,sans-serif; font-size:58px; text-anchor:start;" transform="rotate(0, 471.685, 1021.78)" x="471.685" y="1021.78">3 </text>
</g>
<g clip-path="url(#clip9400)">
<text style="fill:#000000; fill-opacity:1; font-family:Arial,Helvetica Neue,Helvetica,sans-serif; font-size:71px; text-anchor:start;" transform="rotate(0, 357.139, 878.92)" x="357.139" y="878.92">10</text>
</g>
<g clip-path="url(#clip9400)">
<text style="fill:#000000; fill-opacity:1; font-family:Arial,Helvetica Neue,Helvetica,sans-serif; font-size:58px; text-anchor:start;" transform="rotate(0, 437.426, 837.805)" x="437.426" y="837.805">-</text>
</g>
<g clip-path="url(#clip9400)">
<text style="fill:#000000; fill-opacity:1; font-family:Arial,Helvetica Neue,Helvetica,sans-serif; font-size:58px; text-anchor:start;" transform="rotate(0, 471.685, 837.805)" x="471.685" y="837.805">2 </text>
</g>
<g clip-path="url(#clip9400)">
<text style="fill:#000000; fill-opacity:1; font-family:Arial,Helvetica Neue,Helvetica,sans-serif; font-size:71px; text-anchor:start;" transform="rotate(0, 357.139, 694.944)" x="357.139" y="694.944">10</text>
</g>
<g clip-path="url(#clip9400)">
<text style="fill:#000000; fill-opacity:1; font-family:Arial,Helvetica Neue,Helvetica,sans-serif; font-size:58px; text-anchor:start;" transform="rotate(0, 437.426, 653.829)" x="437.426" y="653.829">-</text>
</g>
<g clip-path="url(#clip9400)">
<text style="fill:#000000; fill-opacity:1; font-family:Arial,Helvetica Neue,Helvetica,sans-serif; font-size:58px; text-anchor:start;" transform="rotate(0, 471.685, 653.829)" x="471.685" y="653.829">1 </text>
</g>
<g clip-path="url(#clip9400)">
<text style="fill:#000000; fill-opacity:1; font-family:Arial,Helvetica Neue,Helvetica,sans-serif; font-size:71px; text-anchor:start;" transform="rotate(0, 391.398, 510.969)" x="391.398" y="510.969">10</text>
</g>
<g clip-path="url(#clip9400)">
<text style="fill:#000000; fill-opacity:1; font-family:Arial,Helvetica Neue,Helvetica,sans-serif; font-size:58px; text-anchor:start;" transform="rotate(0, 471.685, 469.853)" x="471.685" y="469.853">0 </text>
</g>
<g clip-path="url(#clip9400)">
<text style="fill:#000000; fill-opacity:1; font-family:Arial,Helvetica Neue,Helvetica,sans-serif; font-size:71px; text-anchor:start;" transform="rotate(0, 391.398, 326.993)" x="391.398" y="326.993">10</text>
</g>
<g clip-path="url(#clip9400)">
<text style="fill:#000000; fill-opacity:1; font-family:Arial,Helvetica Neue,Helvetica,sans-serif; font-size:58px; text-anchor:start;" transform="rotate(0, 471.685, 285.877)" x="471.685" y="285.877">1 </text>
</g>
<g clip-path="url(#clip9400)">
<text style="fill:#000000; fill-opacity:1; font-family:Arial,Helvetica Neue,Helvetica,sans-serif; font-size:95px; text-anchor:middle;" transform="rotate(0, 1703.08, 1469.75)" x="1703.08" y="1469.75">Time (hours)</text>
</g>
<g clip-path="url(#clip9400)">
<text style="fill:#000000; fill-opacity:1; font-family:Arial,Helvetica Neue,Helvetica,sans-serif; font-size:95px; text-anchor:middle;" transform="rotate(-90, 167.592, 732.24)" x="167.592" y="732.24">Probability Empty Dock:</text>
</g>
<g clip-path="url(#clip9400)">
<text style="fill:#000000; fill-opacity:1; font-family:Arial,Helvetica Neue,Helvetica,sans-serif; font-size:95px; text-anchor:middle;" transform="rotate(-90, 271.272, 732.24)" x="271.272" y="732.24"> Relative Error: |(PSA-NS)/NS|</text>
</g>
<polyline clip-path="url(#clip9402)" style="stroke:#009af9; stroke-width:4; stroke-opacity:1; fill:none" points="
  617.731,1031.59 619.24,998.871 620.75,984.173 622.259,975.796 623.769,970.392 625.279,966.594 626.788,963.735 628.298,961.456 629.807,959.544 631.317,957.873 
  632.826,956.361 634.336,954.955 635.845,953.621 637.355,952.336 638.864,951.082 640.374,949.85 641.883,948.631 643.393,947.42 644.902,946.213 646.412,945.007 
  647.921,943.8 649.431,942.591 650.94,941.379 652.45,940.162 653.959,938.941 655.469,937.714 656.978,936.482 658.488,935.244 659.998,934 661.507,932.75 
  663.017,931.493 664.526,930.23 666.036,928.96 667.545,927.683 669.055,926.4 670.564,925.109 672.074,923.811 673.583,922.506 675.093,921.194 676.602,919.875 
  678.112,918.547 679.621,917.213 681.131,915.871 682.64,914.521 684.15,913.163 685.659,911.797 687.169,910.423 688.678,909.041 690.188,907.651 691.697,906.252 
  693.207,904.845 694.716,903.429 696.226,902.005 697.736,900.572 699.245,899.13 700.755,897.678 702.264,896.218 703.774,894.749 705.283,893.27 706.793,891.781 
  708.302,984.031 709.812,1109.25 711.321,986.468 712.831,952.139 714.34,933.999 715.85,922.345 717.359,913.957 718.869,907.41 720.378,901.972 721.888,897.228 
  723.397,892.928 724.907,888.917 726.416,885.091 727.926,881.382 729.435,877.744 730.945,874.143 732.455,870.557 733.964,866.968 735.474,863.366 736.983,859.739 
  738.493,856.082 740.002,852.39 741.512,848.656 743.021,844.879 744.531,841.055 746.04,837.182 747.55,833.256 749.059,829.277 750.569,825.242 752.078,821.148 
  753.588,816.995 755.097,812.78 756.607,808.502 758.116,804.158 759.626,799.747 761.135,795.266 762.645,790.715 764.154,786.089 765.664,781.389 767.174,776.61 
  768.683,771.752 770.193,766.811 771.702,761.786 773.212,756.673 774.721,751.47 776.231,746.175 777.74,740.784 779.25,735.294 780.759,729.702 782.269,724.005 
  783.778,718.199 785.288,712.281 786.797,706.247 788.307,700.092 789.816,693.813 791.326,687.406 792.835,680.865 794.345,674.185 795.854,667.361 797.364,660.387 
  798.873,667.03 800.383,672.615 801.893,677.388 803.402,681.502 804.912,685.059 806.421,688.134 807.931,690.779 809.44,693.038 810.95,694.945 812.459,696.528 
  813.969,697.814 815.478,698.823 816.988,699.576 818.497,700.089 820.007,700.38 821.516,700.462 823.026,700.349 824.535,700.053 826.045,699.587 827.554,698.961 
  829.064,698.185 830.573,697.267 832.083,696.217 833.592,695.043 835.102,693.751 836.611,692.349 838.121,690.843 839.631,689.238 841.14,687.54 842.65,685.753 
  844.159,683.883 845.669,681.934 847.178,679.908 848.688,677.811 850.197,675.644 851.707,673.411 853.216,671.114 854.726,668.757 856.235,666.34 857.745,663.866 
  859.254,661.337 860.764,658.754 862.273,656.119 863.783,653.433 865.292,650.698 866.802,647.913 868.311,645.08 869.821,642.2 871.33,639.273 872.84,636.3 
  874.35,633.281 875.859,630.217 877.369,627.108 878.878,623.953 880.388,620.753 881.897,617.508 883.407,614.218 884.916,610.882 886.426,607.501 887.935,604.073 
  889.445,592.934 890.954,583.473 892.464,575.199 893.973,567.803 895.483,561.075 896.992,554.87 898.502,549.083 900.011,543.636 901.521,538.469 903.03,533.54 
  904.54,528.815 906.049,524.269 907.559,519.888 909.069,515.663 910.578,511.593 912.088,507.685 913.597,503.951 915.107,500.409 916.616,497.082 918.126,493.991 
  919.635,491.159 921.145,488.604 922.654,486.336 924.164,484.356 925.673,482.657 927.183,481.223 928.692,480.032 930.202,479.056 931.711,478.266 933.221,477.635 
  934.73,477.134 936.24,476.741 937.749,476.433 939.259,476.194 940.768,476.009 942.278,475.866 943.788,475.756 945.297,475.671 946.807,475.605 948.316,475.554 
  949.826,475.515 951.335,475.485 952.845,475.462 954.354,475.444 955.864,475.43 957.373,475.419 958.883,475.41 960.392,475.403 961.902,475.398 963.411,475.394 
  964.921,475.391 966.43,475.388 967.94,475.386 969.449,475.384 970.959,475.383 972.468,475.382 973.978,475.381 975.487,475.38 976.997,475.38 978.507,475.379 
  980.016,475.377 981.526,475.377 983.035,475.377 984.545,475.377 986.054,475.377 987.564,475.377 989.073,475.377 990.583,475.377 992.092,475.377 993.602,475.377 
  995.111,475.377 996.621,475.377 998.13,475.377 999.64,475.377 1001.15,475.377 1002.66,475.377 1004.17,475.377 1005.68,475.377 1007.19,475.377 1008.7,475.377 
  1010.21,475.377 1011.72,475.377 1013.23,475.377 1014.74,475.377 1016.24,475.377 1017.75,475.377 1019.26,475.377 1020.77,475.377 1022.28,475.377 1023.79,475.377 
  1025.3,475.377 1026.81,475.377 1028.32,475.377 1029.83,475.377 1031.34,475.377 1032.85,475.377 1034.36,475.377 1035.87,475.377 1037.38,475.377 1038.89,475.377 
  1040.4,475.377 1041.91,475.377 1043.42,475.377 1044.93,475.377 1046.43,475.377 1047.94,475.377 1049.45,475.377 1050.96,475.377 1052.47,475.377 1053.98,475.377 
  1055.49,475.377 1057,475.377 1058.51,475.377 1060.02,475.377 1061.53,475.377 1063.04,475.377 1064.55,475.377 1066.06,475.377 1067.57,475.377 1069.08,475.377 
  1070.59,475.377 1072.1,475.377 1073.61,475.377 1075.12,475.377 1076.63,475.377 1078.13,475.377 1079.64,475.377 1081.15,475.377 1082.66,475.377 1084.17,475.377 
  1085.68,475.377 1087.19,475.377 1088.7,475.377 1090.21,475.377 1091.72,475.377 1093.23,475.377 1094.74,475.377 1096.25,475.377 1097.76,475.377 1099.27,475.377 
  1100.78,475.377 1102.29,475.377 1103.8,475.377 1105.31,475.377 1106.82,475.377 1108.33,475.377 1109.83,475.377 1111.34,475.377 1112.85,475.377 1114.36,475.377 
  1115.87,475.377 1117.38,475.377 1118.89,475.377 1120.4,475.377 1121.91,475.377 1123.42,475.377 1124.93,475.377 1126.44,475.377 1127.95,475.377 1129.46,475.377 
  1130.97,475.377 1132.48,475.377 1133.99,475.377 1135.5,475.377 1137.01,475.377 1138.52,475.377 1140.03,475.377 1141.53,475.377 1143.04,475.377 1144.55,475.377 
  1146.06,475.377 1147.57,475.377 1149.08,475.377 1150.59,475.377 1152.1,475.377 1153.61,475.377 1155.12,475.377 1156.63,475.377 1158.14,475.377 1159.65,475.377 
  1161.16,475.377 1162.67,475.377 1164.18,475.377 1165.69,475.377 1167.2,475.378 1168.71,475.377 1170.22,475.377 1171.73,475.377 1173.23,475.377 1174.74,475.377 
  1176.25,475.377 1177.76,475.377 1179.27,475.377 1180.78,475.377 1182.29,475.377 1183.8,475.377 1185.31,475.377 1186.82,475.377 1188.33,475.377 1189.84,475.377 
  1191.35,475.377 1192.86,475.377 1194.37,475.377 1195.88,475.377 1197.39,475.377 1198.9,475.377 1200.41,475.377 1201.92,475.377 1203.43,475.377 1204.93,475.377 
  1206.44,475.377 1207.95,475.377 1209.46,475.377 1210.97,475.377 1212.48,475.377 1213.99,475.377 1215.5,475.377 1217.01,475.377 1218.52,475.377 1220.03,475.377 
  1221.54,475.377 1223.05,475.377 1224.56,475.377 1226.07,475.377 1227.58,475.377 1229.09,475.377 1230.6,475.377 1232.11,475.377 1233.62,475.377 1235.13,475.377 
  1236.63,475.377 1238.14,475.377 1239.65,475.377 1241.16,475.377 1242.67,475.377 1244.18,475.377 1245.69,475.377 1247.2,475.377 1248.71,475.377 1250.22,475.377 
  1251.73,414.227 1253.24,475.055 1254.75,476.498 1256.26,478.637 1257.77,473.8 1259.28,471.484 1260.79,477.142 1262.3,483.313 1263.81,478.819 1265.32,477.065 
  1266.83,476.159 1268.33,472.812 1269.84,475.685 1271.35,475.469 1272.86,420.379 1274.37,449.991 1275.88,491.969 1277.39,472.222 1278.9,700.814 1280.41,584.858 
  1281.92,559.914 1283.43,659.117 1284.94,665.21 1286.45,590.304 1287.96,415.478 1289.47,446.643 1290.98,434.268 1292.49,610.789 1294,529.587 1295.51,568.18 
  1297.02,497.534 1298.53,639.885 1300.03,494.767 1301.54,416.634 1303.05,262.818 1304.56,671.314 1306.07,407.967 1307.58,548.941 1309.09,789.741 1310.6,682.023 
  1312.11,643.881 1313.62,703.051 1315.13,695.679 1316.64,691.663 1318.15,721.103 1319.66,684.74 1321.17,672.176 1322.68,768.881 1324.19,717.258 1325.7,717.102 
  1327.21,1107.84 1328.72,617.027 1330.22,678.849 1331.73,847.149 1333.24,567.932 1334.75,579.58 1336.26,868.502 1337.77,850.76 1339.28,535.079 1340.79,723.021 
  1342.3,598.78 1343.81,596.628 1345.32,594.596 1346.83,592.519 1348.34,590.457 1349.85,588.395 1351.36,586.268 1352.87,584 1354.38,582.045 1355.89,579.392 
  1357.4,576.951 1358.91,579.41 1360.42,565.003 1361.92,569.59 1363.43,573.273 1364.94,567.453 1366.45,542.914 1367.96,533.871 1369.47,686.302 1370.98,526.754 
  1372.49,545.095 1374,469.049 1375.51,474.336 1377.02,475.873 1378.53,475.971 1380.04,474.759 1381.55,474.955 1383.06,476.572 1384.57,464.366 1386.08,460.266 
  1387.59,467.384 1389.1,469.177 1390.61,471.059 1392.12,469.124 1393.62,469.637 1395.13,478.043 1396.64,475.904 1398.15,475.919 1399.66,469.403 1401.17,530.799 
  1402.68,451.509 1404.19,311.151 1405.7,428.451 1407.21,414.027 1408.72,566.986 1410.23,488.933 1411.74,495.014 1413.25,467.753 1414.76,471.897 1416.27,453.254 
  1417.78,433.191 1419.29,425.504 1420.8,418.939 1422.31,411.726 1423.82,404.261 1425.32,396.364 1426.83,387.933 1428.34,379.076 1429.85,369.636 1431.36,359.587 
  1432.87,460.022 1434.38,557.098 1435.89,625.864 1437.4,640.502 1438.91,640.004 1440.42,638.631 1441.93,636.799 1443.44,634.268 1444.95,632.558 1446.46,630.819 
  1447.97,628.771 1449.48,626.933 1450.99,625.036 1452.5,623.005 1454.01,621.156 1455.52,619.22 1457.02,617.058 1458.53,615.179 1460.04,613.266 1461.55,610.891 
  1463.06,608.994 1464.57,607.267 1466.08,604.483 1467.59,602.442 1469.1,600.864 1470.61,597.627 1472.12,595.64 1473.63,594.28 1475.14,591.744 1476.65,589.52 
  1478.16,587.083 1479.67,584.792 1481.18,582.435 1482.69,580.016 1484.2,577.64 1485.71,575.216 1487.22,572.728 1488.72,570.234 1490.23,567.726 1491.74,565.149 
  1493.25,562.541 1494.76,559.938 1496.27,557.273 1497.78,554.538 1499.29,551.819 1500.8,549.081 1502.31,546.227 1503.82,543.367 1505.33,540.46 1506.84,537.515 
  1508.35,534.52 1509.86,531.478 1511.37,528.386 1512.88,525.242 1514.39,522.045 1515.9,518.792 1517.41,515.482 1518.92,512.11 1520.42,508.678 1521.93,505.177 
  1523.44,519.576 1524.95,532.492 1526.46,543.196 1527.97,550.831 1529.48,555.007 1530.99,556.472 1532.5,556.506 1534.01,555.998 1535.52,555.327 1537.03,554.614 
  1538.54,553.889 1540.05,553.158 1541.56,552.423 1543.07,551.686 1544.58,550.945 1546.09,550.2 1547.6,549.452 1549.11,548.7 1550.62,547.946 1552.12,547.188 
  1553.63,546.426 1555.14,545.659 1556.65,544.886 1558.16,544.11 1559.67,543.332 1561.18,542.552 1562.69,541.768 1564.2,540.98 1565.71,540.185 1567.22,539.386 
  1568.73,538.583 1570.24,537.778 1571.75,536.971 1573.26,536.159 1574.77,535.34 1576.28,534.514 1577.79,533.683 1579.3,532.851 1580.81,532.019 1582.32,531.185 
  1583.82,530.343 1585.33,529.489 1586.84,528.623 1588.35,527.754 1589.86,526.893 1591.37,526.041 1592.88,525.174 1594.39,524.282 1595.9,523.389 1597.41,522.523 
  1598.92,521.657 1600.43,520.732 1601.94,519.822 1603.45,518.905 1604.96,517.988 1606.47,517.09 1607.98,516.144 1609.49,515.213 1611,514.279 1612.51,513.338 
  1614.01,460.852 1615.52,426.473 1617.03,401.737 1618.54,383.729 1620.05,371.074 1621.56,362.757 1623.07,357.614 1624.58,354.427 1626.09,352.253 1627.6,350.525 
  1629.11,348.964 1630.62,347.447 1632.13,345.922 1633.64,344.373 1635.15,342.792 1636.66,341.178 1638.17,339.527 1639.68,337.839 1641.19,336.114 1642.7,334.35 
  1644.21,332.547 1645.71,330.704 1647.22,328.818 1648.73,326.891 1650.24,324.921 1651.75,322.907 1653.26,320.848 1654.77,318.743 1656.28,316.591 1657.79,314.391 
  1659.3,312.142 1660.81,309.845 1662.32,307.496 1663.83,305.093 1665.34,302.636 1666.85,300.123 1668.36,297.553 1669.87,294.926 1671.38,292.239 1672.89,289.492 
  1674.4,286.682 1675.91,283.81 1677.41,280.873 1678.92,277.868 1680.43,274.797 1681.94,271.656 1683.45,268.445 1684.96,265.161 1686.47,261.805 1687.98,258.374 
  1689.49,254.867 1691,251.282 1692.51,247.62 1694.02,243.877 1695.53,240.055 1697.04,236.152 1698.55,232.168 1700.06,228.102 1701.57,223.955 1703.08,219.727 
  1704.59,227.593 1706.1,234.548 1707.61,240.707 1709.11,246.112 1710.62,250.795 1712.13,254.784 1713.64,258.111 1715.15,260.806 1716.66,262.909 1718.17,264.463 
  1719.68,265.519 1721.19,266.131 1722.7,266.353 1724.21,266.239 1725.72,265.839 1727.23,265.2 1728.74,264.364 1730.25,263.368 1731.76,262.246 1733.27,261.025 
  1734.78,259.732 1736.29,258.389 1737.8,257.016 1739.31,255.633 1740.81,254.257 1742.32,252.904 1743.83,251.59 1745.34,250.331 1746.85,249.144 1748.36,248.043 
  1749.87,247.045 1751.38,246.168 1752.89,245.43 1754.4,244.848 1755.91,244.441 1757.42,244.228 1758.93,244.229 1760.44,244.463 1761.95,244.949 1763.46,245.705 
  1764.97,246.748 1766.48,248.095 1767.99,249.758 1769.5,251.748 1771.01,254.076 1772.51,256.744 1774.02,259.757 1775.53,263.112 1777.04,266.805 1778.55,270.829 
  1780.06,275.172 1781.57,279.822 1783.08,284.763 1784.59,289.979 1786.1,295.45 1787.61,301.16 1789.12,307.087 1790.63,313.214 1792.14,319.521 1793.65,325.99 
  1795.16,338.25 1796.67,349.607 1798.18,360.351 1799.69,370.587 1801.2,380.381 1802.71,389.781 1804.21,398.825 1805.72,407.544 1807.23,415.966 1808.74,424.115 
  1810.25,432.015 1811.76,439.685 1813.27,447.144 1814.78,454.411 1816.29,461.502 1817.8,468.434 1819.31,475.221 1820.82,481.879 1822.33,488.421 1823.84,494.861 
  1825.35,501.212 1826.86,507.488 1828.37,513.699 1829.88,519.86 1831.39,525.983 1832.9,532.08 1834.41,538.164 1835.91,544.248 1837.42,550.345 1838.93,556.471 
  1840.44,562.64 1841.95,568.868 1843.46,575.173 1844.97,581.575 1846.48,588.094 1847.99,594.755 1849.5,601.585 1851.01,608.615 1852.52,615.884 1854.03,623.433 
  1855.54,631.317 1857.05,639.599 1858.56,648.358 1860.07,657.697 1861.58,667.748 1863.09,678.688 1864.6,690.762 1866.11,704.323 1867.61,719.91 1869.12,738.405 
  1870.63,761.407 1872.14,792.311 1873.65,840.747 1875.16,970.634 1876.67,884.533 1878.18,818.173 1879.69,783.391 1881.2,759.912 1882.71,742.296 1884.22,728.27 
  1885.73,862.245 1887.24,710.258 1888.75,664.085 1890.26,636.929 1891.77,618.132 1893.28,604.088 1894.79,593.136 1896.3,584.371 1897.8,577.245 1899.31,571.4 
  1900.82,566.592 1902.33,562.642 1903.84,559.418 1905.35,556.821 1906.86,554.77 1908.37,553.202 1909.88,552.066 1911.39,551.318 1912.9,550.923 1914.41,550.851 
  1915.92,551.075 1917.43,551.574 1918.94,552.327 1920.45,553.318 1921.96,554.531 1923.47,555.953 1924.98,557.571 1926.49,559.375 1928,561.355 1929.5,563.502 
  1931.01,565.807 1932.52,568.264 1934.03,570.865 1935.54,573.605 1937.05,576.477 1938.56,579.475 1940.07,582.595 1941.58,585.832 1943.09,589.181 1944.6,592.638 
  1946.11,596.199 1947.62,599.86 1949.13,603.617 1950.64,607.466 1952.15,611.404 1953.66,615.428 1955.17,619.533 1956.68,623.716 1958.19,627.974 1959.7,632.302 
  1961.2,636.698 1962.71,641.156 1964.22,645.675 1965.73,650.248 1967.24,654.872 1968.75,659.543 1970.26,664.256 1971.77,669.006 1973.28,673.788 1974.79,678.598 
  1976.3,681.262 1977.81,684.788 1979.32,688.79 1980.83,693.134 1982.34,697.746 1983.85,702.572 1985.36,707.576 1986.87,712.727 1988.38,717.999 1989.89,723.368 
  1991.4,728.815 1992.9,734.319 1994.41,739.863 1995.92,745.428 1997.43,751 1998.94,756.561 2000.45,762.098 2001.96,767.595 2003.47,773.041 2004.98,778.422 
  2006.49,783.727 2008,788.948 2009.51,794.075 2011.02,799.102 2012.53,804.021 2014.04,808.83 2015.55,813.525 2017.06,818.103 2018.57,822.565 2020.08,826.912 
  2021.59,831.143 2023.1,835.263 2024.6,839.274 2026.11,843.179 2027.62,846.983 2029.13,850.69 2030.64,854.305 2032.15,857.832 2033.66,861.276 2035.17,864.642 
  2036.68,867.934 2038.19,871.157 2039.7,874.314 2041.21,877.409 2042.72,880.446 2044.23,883.428 2045.74,886.358 2047.25,889.24 2048.76,892.074 2050.27,894.865 
  2051.78,897.614 2053.29,900.323 2054.8,902.993 2056.3,905.627 2057.81,908.226 2059.32,910.791 2060.83,913.323 2062.34,915.825 2063.85,918.296 2065.36,920.737 
  2066.87,770.149 2068.38,756.677 2069.89,759.101 2071.4,767.806 2072.91,779.568 2074.42,792.792 2075.93,806.528 2077.44,820.173 2078.95,833.362 2080.46,845.909 
  2081.97,857.753 2083.48,868.912 2084.99,879.444 2086.5,889.422 2088,898.911 2089.51,907.971 2091.02,916.65 2092.53,924.985 2094.04,933.009 2095.55,940.748 
  2097.06,948.225 2098.57,955.459 2100.08,962.468 2101.59,969.265 2103.1,975.865 2104.61,982.28 2106.12,988.52 2107.63,994.595 2109.14,1000.51 2110.65,1006.29 
  2112.16,1011.92 2113.67,1017.42 2115.18,1022.79 2116.69,1028.04 2118.2,1033.18 2119.7,1038.2 2121.21,1043.12 2122.72,1047.94 2124.23,1052.66 2125.74,1057.29 
  2127.25,1061.83 2128.76,1066.29 2130.27,1070.66 2131.78,1074.95 2133.29,1079.17 2134.8,1083.31 2136.31,1087.38 2137.82,1091.39 2139.33,1095.32 2140.84,1099.19 
  2142.35,1103 2143.86,1106.75 2145.37,1110.44 2146.88,1114.08 2148.39,1117.66 2149.9,1121.19 2151.4,1124.66 2152.91,1128.09 2154.42,1131.46 2155.93,1134.79 
  2157.44,1167.75 2158.95,1169.31 2160.46,1170.83 2161.97,1172.35 2163.48,1173.85 2164.99,1175.35 2166.5,1176.84 2168.01,1178.31 2169.52,1179.78 2171.03,1181.24 
  2172.54,1182.69 2174.05,1184.13 2175.56,1185.57 2177.07,1186.99 2178.58,1188.41 2180.09,1189.82 2181.59,1191.22 2183.1,1192.61 2184.61,1193.99 2186.12,1195.37 
  2187.63,1196.73 2189.14,1198.09 2190.65,1199.44 2192.16,1200.79 2193.67,1202.13 2195.18,1203.46 2196.69,1204.78 2198.2,1206.09 2199.71,1207.4 2201.22,1208.7 
  2202.73,1209.99 2204.24,1211.28 2205.75,1212.56 2207.26,1213.83 2208.77,1215.1 2210.28,1216.36 2211.79,1217.61 2213.29,1218.86 2214.8,1220.1 2216.31,1221.33 
  2217.82,1222.56 2219.33,1223.78 2220.84,1224.99 2222.35,1226.2 2223.86,1227.4 2225.37,1228.6 2226.88,1229.79 2228.39,1230.98 2229.9,1232.16 2231.41,1233.33 
  2232.92,1234.5 2234.43,1235.66 2235.94,1236.81 2237.45,1237.96 2238.96,1239.11 2240.47,1240.25 2241.98,1241.38 2243.49,1242.51 2244.99,1243.63 2246.5,1244.75 
  2248.01,1221.36 2249.52,1219.39 2251.03,1217.4 2252.54,1215.39 2254.05,1213.36 2255.56,1211.32 2257.07,1209.26 2258.58,1207.18 2260.09,1205.09 2261.6,1202.97 
  2263.11,1200.84 2264.62,1198.69 2266.13,1196.51 2267.64,1194.32 2269.15,1192.11 2270.66,1189.88 2272.17,1187.63 2273.68,1185.35 2275.19,1183.06 2276.69,1180.74 
  2278.2,1178.4 2279.71,1176.03 2281.22,1173.65 2282.73,1171.24 2284.24,1168.8 2285.75,1166.34 2287.26,1163.85 2288.77,1161.34 2290.28,1158.8 2291.79,1156.24 
  2293.3,1153.65 2294.81,1151.02 2296.32,1148.37 2297.83,1145.7 2299.34,1142.99 2300.85,1140.25 2302.36,1137.47 2303.87,1134.67 2305.38,1131.83 2306.89,1128.96 
  2308.39,1126.06 2309.9,1123.12 2311.41,1120.14 2312.92,1117.12 2314.43,1114.07 2315.94,1110.98 2317.45,1107.85 2318.96,1104.68 2320.47,1101.46 2321.98,1098.2 
  2323.49,1094.9 2325,1091.55 2326.51,1088.16 2328.02,1084.71 2329.53,1081.22 2331.04,1077.68 2332.55,1074.08 2334.06,1070.43 2335.57,1066.72 2337.08,1062.96 
  2338.59,1191.31 2340.09,1191.88 2341.6,1190.16 2343.11,1188.39 2344.62,1186.6 2346.13,1184.79 2347.64,1182.97 2349.15,1181.14 2350.66,1179.3 2352.17,1177.44 
  2353.68,1175.56 2355.19,1173.67 2356.7,1171.77 2358.21,1169.85 2359.72,1167.92 2361.23,1165.97 2362.74,1164 2364.25,1162.02 2365.76,1160.02 2367.27,1158 
  2368.78,1155.97 2370.29,1153.92 2371.79,1151.86 2373.3,1149.77 2374.81,1147.67 2376.32,1145.55 2377.83,1143.41 2379.34,1141.25 2380.85,1139.07 2382.36,1136.87 
  2383.87,1134.65 2385.38,1132.41 2386.89,1130.15 2388.4,1127.87 2389.91,1125.56 2391.42,1123.24 2392.93,1120.89 2394.44,1118.52 2395.95,1116.12 2397.46,1113.7 
  2398.97,1111.26 2400.48,1108.79 2401.99,1106.29 2403.49,1103.77 2405,1101.23 2406.51,1098.65 2408.02,1096.05 2409.53,1093.42 2411.04,1090.77 2412.55,1088.08 
  2414.06,1085.36 2415.57,1082.61 2417.08,1079.83 2418.59,1077.02 2420.1,1074.18 2421.61,1071.3 2423.12,1068.38 2424.63,1065.44 2426.14,1062.45 2427.65,1059.43 
  2429.16,1169.55 2430.67,1146.97 2432.18,1143.8 2433.69,1142.55 2435.19,1141.57 2436.7,1140.62 2438.21,1139.68 2439.72,1138.74 2441.23,1137.79 2442.74,1136.83 
  2444.25,1135.88 2445.76,1134.92 2447.27,1133.95 2448.78,1132.99 2450.29,1132.01 2451.8,1131.04 2453.31,1130.06 2454.82,1129.07 2456.33,1128.09 2457.84,1127.09 
  2459.35,1126.1 2460.86,1125.1 2462.37,1124.09 2463.88,1123.08 2465.38,1122.07 2466.89,1121.05 2468.4,1120.03 2469.91,1119 2471.42,1117.97 2472.93,1116.94 
  2474.44,1115.9 2475.95,1114.85 2477.46,1113.81 2478.97,1112.75 2480.48,1111.69 2481.99,1110.63 2483.5,1109.56 2485.01,1108.49 2486.52,1107.42 2488.03,1106.33 
  2489.54,1105.25 2491.05,1104.16 2492.56,1103.06 2494.07,1101.96 2495.58,1100.85 2497.08,1099.74 2498.59,1098.62 2500.1,1097.5 2501.61,1096.37 2503.12,1095.24 
  2504.63,1094.1 2506.14,1092.95 2507.65,1091.81 2509.16,1090.65 2510.67,1089.49 2512.18,1088.32 2513.69,1087.15 2515.2,1085.97 2516.71,1084.79 2518.22,1083.6 
  2519.73,1116.82 2521.24,1098.68 2522.75,1093.81 2524.26,1090.6 2525.77,1087.66 2527.28,1084.74 2528.78,1081.79 2530.29,1078.81 2531.8,1075.79 2533.31,1072.74 
  2534.82,1069.65 2536.33,1066.52 2537.84,1063.34 2539.35,1060.13 2540.86,1056.87 2542.37,1053.57 2543.88,1050.22 2545.39,1046.83 2546.9,1043.39 2548.41,1039.9 
  2549.92,1036.36 2551.43,1032.77 2552.94,1029.13 2554.45,1025.43 2555.96,1021.67 2557.47,1017.86 2558.98,1013.98 2560.48,1010.05 2561.99,1006.05 2563.5,1001.99 
  2565.01,997.855 2566.52,993.653 2568.03,989.379 2569.54,985.031 2571.05,980.605 2572.56,976.1 2574.07,971.512 2575.58,966.838 2577.09,962.076 2578.6,957.223 
  2580.11,952.274 2581.62,947.226 2583.13,942.076 2584.64,936.82 2586.15,931.453 2587.66,925.97 2589.17,920.369 2590.68,914.642 2592.18,908.786 2593.69,902.794 
  2595.2,896.661 2596.71,890.381 2598.22,883.947 2599.73,877.351 2601.24,870.588 2602.75,863.648 2604.26,856.524 2605.77,849.206 2607.28,841.686 2608.79,833.953 
  2610.3,912.712 2611.81,1009.59 2613.32,1118.24 2614.83,1010.53 2616.34,980.555 2617.85,965.968 2619.36,957.582 2620.87,952.3 2622.38,948.75 2623.88,946.23 
  2625.39,944.35 2626.9,942.876 2628.41,941.668 2629.92,940.634 2631.43,939.716 2632.94,938.877 2634.45,938.091 2635.96,937.34 2637.47,936.613 2638.98,935.902 
  2640.49,935.202 2642,934.508 2643.51,933.819 2645.02,933.132 2646.53,932.446 2648.04,931.76 2649.55,931.074 2651.06,930.387 2652.57,929.699 2654.08,929.009 
  2655.58,928.317 2657.09,927.624 2658.6,926.928 2660.11,926.231 2661.62,925.532 2663.13,924.831 2664.64,924.127 2666.15,923.422 2667.66,922.714 2669.17,922.005 
  2670.68,921.293 2672.19,920.579 2673.7,919.862 2675.21,919.144 2676.72,918.423 2678.23,917.7 2679.74,916.975 2681.25,916.247 2682.76,915.517 2684.27,914.785 
  2685.78,914.05 2687.28,913.313 2688.79,912.574 2690.3,911.832 2691.81,911.088 2693.32,910.341 2694.83,909.592 2696.34,908.84 2697.85,908.086 2699.36,907.33 
  2700.87,1016.32 2702.38,1125.3 2703.89,1021.11 2705.4,991.622 2706.91,976.621 2708.42,967.26 2709.93,960.611 2711.44,955.408 2712.95,951.02 2714.46,947.106 
  2715.97,943.47 2717.48,939.994 2718.98,936.608 2720.49,933.266 2722,929.939 2723.51,926.607 2725.02,923.259 2726.53,919.885 2728.04,916.478 2729.55,913.034 
  2731.06,909.55 2732.57,906.023 2734.08,902.45 2735.59,898.83 2737.1,895.16 2738.61,891.44 2740.12,887.666 2741.63,883.839 2743.14,879.955 2744.65,876.014 
  2746.16,872.014 2747.67,867.953 2749.18,863.83 2750.68,859.642 2752.19,855.388 2753.7,851.066 2755.21,846.673 2756.72,842.209 2758.23,837.67 2759.74,833.055 
  2761.25,828.36 2762.76,823.584 2764.27,818.725 2765.78,813.778 2767.29,808.743 2768.8,803.615 2770.31,798.392 2771.82,793.071 2773.33,787.648 2774.84,782.121 
  2776.35,776.484 2777.86,770.735 2779.37,764.87 2780.87,758.884 2782.38,752.773 2783.89,746.532 2785.4,740.157 2786.91,733.642 2788.42,726.983 
  "/>
</svg>
