<?xml version="1.0" encoding="utf-8"?>
<svg xmlns="http://www.w3.org/2000/svg" xmlns:xlink="http://www.w3.org/1999/xlink" width="800" height="400" viewBox="0 0 3200 1600">
<defs>
  <clipPath id="clip0900">
    <rect x="0" y="0" width="3200" height="1600"/>
  </clipPath>
</defs>
<polygon clip-path="url(#clip0900)" points="
0,1600 3200,1600 3200,0 0,0 
  " fill="#000000" fill-rule="evenodd" fill-opacity="0"/>
<defs>
  <clipPath id="clip0901">
    <rect x="640" y="0" width="2241" height="1600"/>
  </clipPath>
</defs>
<polygon clip-path="url(#clip0900)" points="
443.274,1275.5 2853.54,1275.5 2853.54,188.976 443.274,188.976 
  " fill="#000000" fill-rule="evenodd" fill-opacity="0"/>
<defs>
  <clipPath id="clip0902">
    <rect x="443" y="188" width="2411" height="1088"/>
  </clipPath>
</defs>
<polyline clip-path="url(#clip0900)" style="stroke:#000000; stroke-width:4; stroke-opacity:1; fill:none" points="
  443.274,1275.5 2853.54,1275.5 
  "/>
<polyline clip-path="url(#clip0900)" style="stroke:#000000; stroke-width:4; stroke-opacity:1; fill:none" points="
  443.274,1275.5 443.274,188.976 
  "/>
<polyline clip-path="url(#clip0900)" style="stroke:#000000; stroke-width:4; stroke-opacity:1; fill:none" points="
  509.909,1275.5 509.909,1259.21 
  "/>
<polyline clip-path="url(#clip0900)" style="stroke:#000000; stroke-width:4; stroke-opacity:1; fill:none" points="
  889.146,1275.5 889.146,1259.21 
  "/>
<polyline clip-path="url(#clip0900)" style="stroke:#000000; stroke-width:4; stroke-opacity:1; fill:none" points="
  1268.38,1275.5 1268.38,1259.21 
  "/>
<polyline clip-path="url(#clip0900)" style="stroke:#000000; stroke-width:4; stroke-opacity:1; fill:none" points="
  1647.62,1275.5 1647.62,1259.21 
  "/>
<polyline clip-path="url(#clip0900)" style="stroke:#000000; stroke-width:4; stroke-opacity:1; fill:none" points="
  2026.86,1275.5 2026.86,1259.21 
  "/>
<polyline clip-path="url(#clip0900)" style="stroke:#000000; stroke-width:4; stroke-opacity:1; fill:none" points="
  2406.09,1275.5 2406.09,1259.21 
  "/>
<polyline clip-path="url(#clip0900)" style="stroke:#000000; stroke-width:4; stroke-opacity:1; fill:none" points="
  2785.33,1275.5 2785.33,1259.21 
  "/>
<polyline clip-path="url(#clip0900)" style="stroke:#000000; stroke-width:4; stroke-opacity:1; fill:none" points="
  443.274,1244.75 479.428,1244.75 
  "/>
<polyline clip-path="url(#clip0900)" style="stroke:#000000; stroke-width:4; stroke-opacity:1; fill:none" points="
  443.274,988.441 479.428,988.441 
  "/>
<polyline clip-path="url(#clip0900)" style="stroke:#000000; stroke-width:4; stroke-opacity:1; fill:none" points="
  443.274,732.129 479.428,732.129 
  "/>
<polyline clip-path="url(#clip0900)" style="stroke:#000000; stroke-width:4; stroke-opacity:1; fill:none" points="
  443.274,475.818 479.428,475.818 
  "/>
<polyline clip-path="url(#clip0900)" style="stroke:#000000; stroke-width:4; stroke-opacity:1; fill:none" points="
  443.274,219.506 479.428,219.506 
  "/>
<g clip-path="url(#clip0900)">
<text style="fill:#000000; fill-opacity:1; font-family:Arial,Helvetica Neue,Helvetica,sans-serif; font-size:71px; text-anchor:middle;" transform="rotate(0, 509.909, 1353.9)" x="509.909" y="1353.9">0</text>
</g>
<g clip-path="url(#clip0900)">
<text style="fill:#000000; fill-opacity:1; font-family:Arial,Helvetica Neue,Helvetica,sans-serif; font-size:71px; text-anchor:middle;" transform="rotate(0, 889.146, 1353.9)" x="889.146" y="1353.9">4</text>
</g>
<g clip-path="url(#clip0900)">
<text style="fill:#000000; fill-opacity:1; font-family:Arial,Helvetica Neue,Helvetica,sans-serif; font-size:71px; text-anchor:middle;" transform="rotate(0, 1268.38, 1353.9)" x="1268.38" y="1353.9">8</text>
</g>
<g clip-path="url(#clip0900)">
<text style="fill:#000000; fill-opacity:1; font-family:Arial,Helvetica Neue,Helvetica,sans-serif; font-size:71px; text-anchor:middle;" transform="rotate(0, 1647.62, 1353.9)" x="1647.62" y="1353.9">12</text>
</g>
<g clip-path="url(#clip0900)">
<text style="fill:#000000; fill-opacity:1; font-family:Arial,Helvetica Neue,Helvetica,sans-serif; font-size:71px; text-anchor:middle;" transform="rotate(0, 2026.86, 1353.9)" x="2026.86" y="1353.9">16</text>
</g>
<g clip-path="url(#clip0900)">
<text style="fill:#000000; fill-opacity:1; font-family:Arial,Helvetica Neue,Helvetica,sans-serif; font-size:71px; text-anchor:middle;" transform="rotate(0, 2406.09, 1353.9)" x="2406.09" y="1353.9">20</text>
</g>
<g clip-path="url(#clip0900)">
<text style="fill:#000000; fill-opacity:1; font-family:Arial,Helvetica Neue,Helvetica,sans-serif; font-size:71px; text-anchor:middle;" transform="rotate(0, 2785.33, 1353.9)" x="2785.33" y="1353.9">24</text>
</g>
<g clip-path="url(#clip0900)">
<text style="fill:#000000; fill-opacity:1; font-family:Arial,Helvetica Neue,Helvetica,sans-serif; font-size:71px; text-anchor:end;" transform="rotate(0, 411.274, 1270.75)" x="411.274" y="1270.75">0.00</text>
</g>
<g clip-path="url(#clip0900)">
<text style="fill:#000000; fill-opacity:1; font-family:Arial,Helvetica Neue,Helvetica,sans-serif; font-size:71px; text-anchor:end;" transform="rotate(0, 411.274, 1014.44)" x="411.274" y="1014.44">0.25</text>
</g>
<g clip-path="url(#clip0900)">
<text style="fill:#000000; fill-opacity:1; font-family:Arial,Helvetica Neue,Helvetica,sans-serif; font-size:71px; text-anchor:end;" transform="rotate(0, 411.274, 758.129)" x="411.274" y="758.129">0.50</text>
</g>
<g clip-path="url(#clip0900)">
<text style="fill:#000000; fill-opacity:1; font-family:Arial,Helvetica Neue,Helvetica,sans-serif; font-size:71px; text-anchor:end;" transform="rotate(0, 411.274, 501.818)" x="411.274" y="501.818">0.75</text>
</g>
<g clip-path="url(#clip0900)">
<text style="fill:#000000; fill-opacity:1; font-family:Arial,Helvetica Neue,Helvetica,sans-serif; font-size:71px; text-anchor:end;" transform="rotate(0, 411.274, 245.506)" x="411.274" y="245.506">1.00</text>
</g>
<g clip-path="url(#clip0900)">
<text style="fill:#000000; fill-opacity:1; font-family:Arial,Helvetica Neue,Helvetica,sans-serif; font-size:95px; text-anchor:middle;" transform="rotate(0, 1648.41, 1469.75)" x="1648.41" y="1469.75">Time (hours)</text>
</g>
<g clip-path="url(#clip0900)">
<text style="fill:#000000; fill-opacity:1; font-family:Arial,Helvetica Neue,Helvetica,sans-serif; font-size:95px; text-anchor:middle;" transform="rotate(-90, 220.973, 732.24)" x="220.973" y="732.24">TV Error</text>
</g>
<polyline clip-path="url(#clip0902)" style="stroke:#000003; stroke-width:4; stroke-opacity:1; fill:none" points="
  511.49,1244.75 513.07,1244.15 514.65,1243.84 516.23,1243.65 517.81,1243.53 519.39,1243.44 520.971,1243.38 522.551,1243.33 524.131,1243.28 525.711,1243.24 
  527.291,1243.21 528.871,1243.18 530.451,1243.15 532.032,1243.12 533.612,1243.09 535.192,1243.06 536.772,1243.03 538.352,1243 539.932,1242.97 541.512,1242.94 
  543.093,1242.91 544.673,1242.88 546.253,1242.85 547.833,1242.82 549.413,1242.78 550.993,1242.75 552.574,1242.71 554.154,1242.68 555.734,1242.64 557.314,1242.6 
  558.894,1242.57 560.474,1242.53 562.054,1242.49 563.635,1242.45 565.215,1242.4 566.795,1242.36 568.375,1242.32 569.955,1242.27 571.535,1242.23 573.116,1242.18 
  574.696,1242.13 576.276,1242.08 577.856,1242.03 579.436,1241.98 581.016,1241.92 582.596,1241.87 584.177,1241.81 585.757,1241.75 587.337,1241.69 588.917,1241.63 
  590.497,1241.57 592.077,1241.5 593.658,1241.43 595.238,1241.37 596.818,1241.3 598.398,1241.22 599.978,1241.15 601.558,1241.07 603.138,1240.99 604.719,1240.91 
  606.299,1240.83 607.879,1243.42 609.459,1244.23 611.039,1243.52 612.619,1242.91 614.199,1242.45 615.78,1242.09 617.36,1241.8 618.94,1241.56 620.52,1241.34 
  622.1,1241.14 623.68,1240.95 625.261,1240.76 626.841,1240.58 628.421,1240.39 630.001,1240.2 631.581,1240.01 633.161,1239.8 634.741,1239.59 636.322,1239.37 
  637.902,1239.14 639.482,1238.9 641.062,1238.64 642.642,1238.37 644.222,1238.09 645.803,1237.79 647.383,1237.47 648.963,1237.13 650.543,1236.78 652.123,1236.4 
  653.703,1236 655.283,1235.57 656.864,1235.12 658.444,1234.64 660.024,1234.13 661.604,1233.58 663.184,1233 664.764,1232.38 666.344,1231.71 667.925,1231 
  669.505,1230.24 671.085,1229.42 672.665,1228.42 674.245,1227.33 675.825,1226.15 677.406,1224.86 678.986,1223.46 680.566,1221.94 682.146,1220.28 683.726,1218.47 
  685.306,1216.49 686.886,1214.32 688.467,1211.95 690.047,1209.35 691.627,1206.48 693.207,1203.33 694.787,1199.85 696.367,1196.01 697.948,1191.76 699.528,1187.05 
  701.108,1181.81 702.688,1185.98 704.268,1189.54 705.848,1192.55 707.428,1195.1 709.009,1197.27 710.589,1199.1 712.169,1200.66 713.749,1201.97 715.329,1203.08 
  716.909,1204 718.489,1204.76 720.07,1205.37 721.65,1205.85 723.23,1206.21 724.81,1206.46 726.39,1206.61 727.97,1206.66 729.551,1206.63 731.131,1206.52 
  732.711,1206.33 734.291,1206.07 735.871,1205.73 737.451,1205.32 739.031,1204.85 740.612,1204.31 742.192,1203.71 743.772,1203.04 745.352,1202.31 746.932,1201.51 
  748.512,1200.65 750.093,1199.62 751.673,1198.51 753.253,1197.33 754.833,1196.08 756.413,1194.74 757.993,1193.33 759.573,1191.82 761.154,1190.23 762.734,1188.55 
  764.314,1186.77 765.894,1184.89 767.474,1182.91 769.054,1180.81 770.635,1178.6 772.215,1176.27 773.795,1173.81 775.375,1171.22 776.955,1168.48 778.535,1165.59 
  780.115,1162.55 781.696,1159.33 783.276,1155.94 784.856,1152.36 786.436,1148.58 788.016,1144.58 789.596,1140.36 791.176,1135.9 792.757,1131.18 794.337,1126.18 
  795.917,1120.9 797.497,1103.1 799.077,1085.13 800.657,1067 802.238,1048.71 803.818,1030.25 805.398,1009.55 806.978,987.802 808.558,965.394 810.138,942.331 
  811.718,918.63 813.299,894.321 814.879,869.455 816.459,840.784 818.039,810.203 819.619,778.913 821.199,747.176 822.78,714.184 824.36,677.169 825.94,640.618 
  827.52,605.199 829.1,566.955 830.68,530.331 832.26,496.334 833.841,461.611 835.421,431.007 837.001,402.208 838.581,376.471 840.161,354.089 841.741,333.825 
  843.321,317.277 844.902,302.051 846.482,289.989 848.062,279.179 849.642,270.464 851.222,263.061 852.802,256.794 854.383,251.823 855.963,247.282 857.543,243.799 
  859.123,240.666 860.703,238.088 862.283,236.052 863.863,234.092 865.444,232.599 867.024,231.289 868.604,230.105 870.184,229.218 871.764,228.353 873.344,227.611 
  874.925,227.068 876.505,226.492 878.085,226.008 879.665,225.665 881.245,225.291 882.825,224.96 884.405,224.735 885.986,224.515 887.566,224.277 889.146,224.122 
  890.726,224.031 892.306,221.102 893.886,220.271 895.467,219.976 897.047,219.841 898.627,219.77 900.207,219.736 901.787,219.727 903.367,219.732 904.947,219.741 
  906.528,219.783 908.108,219.812 909.688,219.896 911.268,219.966 912.848,220.123 914.428,220.277 916.008,220.559 917.589,220.917 919.169,221.427 920.749,222.304 
  922.329,223.226 923.909,224.799 925.489,227.15 927.07,229.914 928.65,234.291 930.23,240.946 931.81,248.385 933.39,259.187 934.97,274.538 936.55,295.59 
  938.131,318.989 939.711,349.151 941.291,387.467 942.871,434.395 944.451,489.827 946.031,552.974 947.612,618.162 949.192,686.264 950.772,757.312 952.352,828.756 
  953.932,898.02 955.512,962.785 957.092,1021.21 958.673,1072.08 960.253,1114.86 961.833,1149.61 963.413,1176.89 964.993,1197.61 966.573,1212.83 968.153,1223.67 
  969.734,1231.13 971.314,1236.13 972.894,1239.29 974.474,1241.23 976.054,1242.43 977.634,1243.17 979.215,1243.6 980.795,1243.86 982.375,1244.02 983.955,1244.11 
  985.535,1244.17 987.115,1241.67 988.695,1241.63 990.276,1241.93 991.856,1242.25 993.436,1242.54 995.016,1242.79 996.596,1243.01 998.176,1243.19 999.757,1243.35 
  1001.34,1243.48 1002.92,1243.6 1004.5,1243.71 1006.08,1243.8 1007.66,1243.88 1009.24,1243.95 1010.82,1244.02 1012.4,1244.08 1013.98,1244.13 1015.56,1244.17 
  1017.14,1244.22 1018.72,1244.25 1020.3,1244.29 1021.88,1244.32 1023.46,1244.35 1025.04,1244.37 1026.62,1244.4 1028.2,1244.42 1029.78,1244.44 1031.36,1244.46 
  1032.94,1244.48 1034.52,1244.49 1036.1,1244.51 1037.68,1244.52 1039.26,1244.53 1040.84,1244.54 1042.42,1244.55 1044,1244.57 1045.58,1244.57 1047.16,1244.58 
  1048.74,1244.59 1050.32,1244.6 1051.9,1244.61 1053.48,1244.61 1055.06,1244.62 1056.64,1244.63 1058.22,1244.63 1059.8,1244.64 1061.38,1244.64 1062.96,1244.65 
  1064.54,1244.65 1066.12,1244.65 1067.7,1244.66 1069.28,1244.66 1070.86,1244.67 1072.44,1244.67 1074.02,1244.67 1075.6,1244.68 1077.18,1244.68 1078.76,1244.68 
  1080.34,1244.68 1081.92,1244.7 1083.5,1244.7 1085.08,1244.71 1086.66,1244.71 1088.25,1244.71 1089.83,1244.72 1091.41,1244.72 1092.99,1244.72 1094.57,1244.73 
  1096.15,1244.73 1097.73,1244.73 1099.31,1244.73 1100.89,1244.73 1102.47,1244.73 1104.05,1244.74 1105.63,1244.74 1107.21,1244.74 1108.79,1244.74 1110.37,1244.74 
  1111.95,1244.74 1113.53,1244.74 1115.11,1244.74 1116.69,1244.74 1118.27,1244.74 1119.85,1244.74 1121.43,1244.74 1123.01,1244.74 1124.59,1244.74 1126.17,1244.74 
  1127.75,1244.75 1129.33,1244.75 1130.91,1244.75 1132.49,1244.75 1134.07,1244.75 1135.65,1244.75 1137.23,1244.75 1138.81,1244.75 1140.39,1244.75 1141.97,1244.75 
  1143.55,1244.75 1145.13,1244.75 1146.71,1244.75 1148.29,1244.75 1149.87,1244.75 1151.45,1244.75 1153.03,1244.75 1154.61,1244.75 1156.19,1244.75 1157.77,1244.75 
  1159.35,1244.75 1160.93,1244.75 1162.51,1244.75 1164.09,1244.75 1165.67,1244.75 1167.25,1244.75 1168.83,1244.75 1170.41,1244.75 1171.99,1244.75 1173.57,1244.75 
  1175.15,1244.75 1176.73,1244.73 1178.31,1244.73 1179.89,1244.73 1181.47,1244.74 1183.05,1244.74 1184.63,1244.74 1186.21,1244.74 1187.79,1244.74 1189.37,1244.74 
  1190.95,1244.74 1192.54,1244.74 1194.12,1244.74 1195.7,1244.74 1197.28,1244.74 1198.86,1244.74 1200.44,1244.74 1202.02,1244.74 1203.6,1244.74 1205.18,1244.74 
  1206.76,1244.74 1208.34,1244.74 1209.92,1244.74 1211.5,1244.74 1213.08,1244.74 1214.66,1244.74 1216.24,1244.74 1217.82,1244.74 1219.4,1244.74 1220.98,1244.74 
  1222.56,1244.74 1224.14,1244.74 1225.72,1244.74 1227.3,1244.74 1228.88,1244.74 1230.46,1244.74 1232.04,1244.74 1233.62,1244.74 1235.2,1244.74 1236.78,1244.74 
  1238.36,1244.74 1239.94,1244.74 1241.52,1244.74 1243.1,1244.75 1244.68,1244.75 1246.26,1244.75 1247.84,1244.75 1249.42,1244.75 1251,1244.75 1252.58,1244.75 
  1254.16,1244.75 1255.74,1244.75 1257.32,1244.75 1258.9,1244.75 1260.48,1244.75 1262.06,1244.75 1263.64,1244.75 1265.22,1244.75 1266.8,1244.75 1268.38,1244.75 
  1269.96,1244.75 1271.54,1244.73 1273.12,1244.73 1274.7,1244.73 1276.28,1244.73 1277.86,1244.72 1279.44,1244.72 1281.02,1244.72 1282.6,1244.72 1284.18,1244.72 
  1285.76,1244.72 1287.34,1244.72 1288.92,1244.72 1290.5,1244.71 1292.08,1244.71 1293.66,1244.71 1295.24,1244.71 1296.83,1244.71 1298.41,1244.71 1299.99,1244.7 
  1301.57,1244.7 1303.15,1244.7 1304.73,1244.7 1306.31,1244.69 1307.89,1244.69 1309.47,1244.69 1311.05,1244.68 1312.63,1244.68 1314.21,1244.68 1315.79,1244.67 
  1317.37,1244.67 1318.95,1244.66 1320.53,1244.66 1322.11,1244.65 1323.69,1244.65 1325.27,1244.64 1326.85,1244.64 1328.43,1244.63 1330.01,1244.62 1331.59,1244.61 
  1333.17,1244.6 1334.75,1244.59 1336.33,1244.58 1337.91,1244.57 1339.49,1244.56 1341.07,1244.54 1342.65,1244.53 1344.23,1244.51 1345.81,1244.49 1347.39,1244.47 
  1348.97,1244.45 1350.55,1244.42 1352.13,1244.39 1353.71,1244.36 1355.29,1244.32 1356.87,1244.28 1358.45,1244.23 1360.03,1244.18 1361.61,1244.11 1363.19,1244.04 
  1364.77,1243.96 1366.35,1244.7 1367.93,1244.7 1369.51,1244.7 1371.09,1244.7 1372.67,1244.7 1374.25,1244.7 1375.83,1244.7 1377.41,1244.69 1378.99,1244.69 
  1380.57,1244.69 1382.15,1244.69 1383.73,1244.69 1385.31,1244.69 1386.89,1244.68 1388.47,1244.68 1390.05,1244.68 1391.63,1244.68 1393.21,1244.68 1394.79,1244.67 
  1396.37,1244.67 1397.95,1244.67 1399.53,1244.67 1401.12,1244.67 1402.7,1244.66 1404.28,1244.66 1405.86,1244.66 1407.44,1244.65 1409.02,1244.65 1410.6,1244.65 
  1412.18,1244.65 1413.76,1244.64 1415.34,1244.64 1416.92,1244.63 1418.5,1244.63 1420.08,1244.63 1421.66,1244.62 1423.24,1244.62 1424.82,1244.61 1426.4,1244.61 
  1427.98,1244.6 1429.56,1244.6 1431.14,1244.59 1432.72,1244.59 1434.3,1244.58 1435.88,1244.58 1437.46,1244.57 1439.04,1244.56 1440.62,1244.56 1442.2,1244.55 
  1443.78,1244.54 1445.36,1244.53 1446.94,1244.52 1448.52,1244.51 1450.1,1244.5 1451.68,1244.49 1453.26,1244.48 1454.84,1244.47 1456.42,1244.46 1458,1244.45 
  1459.58,1244.43 1461.16,1244.58 1462.74,1244.58 1464.32,1244.58 1465.9,1244.58 1467.48,1244.57 1469.06,1244.57 1470.64,1244.57 1472.22,1244.57 1473.8,1244.56 
  1475.38,1244.56 1476.96,1244.56 1478.54,1244.56 1480.12,1244.56 1481.7,1244.55 1483.28,1244.55 1484.86,1244.55 1486.44,1244.55 1488.02,1244.54 1489.6,1244.54 
  1491.18,1244.54 1492.76,1244.53 1494.34,1244.53 1495.92,1244.53 1497.5,1244.53 1499.08,1244.52 1500.66,1244.52 1502.24,1244.52 1503.82,1244.51 1505.41,1244.51 
  1506.99,1244.51 1508.57,1244.5 1510.15,1244.5 1511.73,1244.5 1513.31,1244.49 1514.89,1244.49 1516.47,1244.49 1518.05,1244.48 1519.63,1244.48 1521.21,1244.48 
  1522.79,1244.47 1524.37,1244.47 1525.95,1244.46 1527.53,1244.46 1529.11,1244.46 1530.69,1244.45 1532.27,1244.45 1533.85,1244.44 1535.43,1244.44 1537.01,1244.43 
  1538.59,1244.43 1540.17,1244.43 1541.75,1244.42 1543.33,1244.42 1544.91,1244.41 1546.49,1244.41 1548.07,1244.4 1549.65,1244.4 1551.23,1244.39 1552.81,1244.38 
  1554.39,1244.38 1555.97,1243.52 1557.55,1243.41 1559.13,1243.34 1560.71,1243.29 1562.29,1243.23 1563.87,1243.17 1565.45,1243.11 1567.03,1243.04 1568.61,1242.98 
  1570.19,1242.91 1571.77,1242.83 1573.35,1242.76 1574.93,1242.68 1576.51,1242.59 1578.09,1242.5 1579.67,1242.41 1581.25,1242.31 1582.83,1242.21 1584.41,1242.1 
  1585.99,1241.99 1587.57,1241.87 1589.15,1241.75 1590.73,1241.62 1592.31,1241.48 1593.89,1241.33 1595.47,1241.18 1597.05,1241.02 1598.63,1240.84 1600.21,1240.66 
  1601.79,1240.47 1603.37,1240.27 1604.95,1240.06 1606.53,1239.83 1608.12,1239.59 1609.7,1239.34 1611.28,1239.07 1612.86,1238.79 1614.44,1238.46 1616.02,1238.08 
  1617.6,1237.67 1619.18,1237.23 1620.76,1236.76 1622.34,1236.26 1623.92,1235.72 1625.5,1235.14 1627.08,1234.52 1628.66,1233.85 1630.24,1233.14 1631.82,1232.36 
  1633.4,1231.53 1634.98,1230.63 1636.56,1229.66 1638.14,1228.61 1639.72,1227.39 1641.3,1226 1642.88,1224.49 1644.46,1222.84 1646.04,1221.04 1647.62,1219.07 
  1649.2,1216.93 1650.78,1218.55 1652.36,1219.07 1653.94,1218.83 1655.52,1218.2 1657.1,1217.28 1658.68,1216.15 1660.26,1214.82 1661.84,1213.33 1663.42,1211.68 
  1665,1209.88 1666.58,1207.94 1668.16,1205.75 1669.74,1203.28 1671.32,1200.62 1672.9,1197.78 1674.48,1194.73 1676.06,1191.47 1677.64,1187.99 1679.22,1184 
  1680.8,1179.68 1682.38,1175.07 1683.96,1170.13 1685.54,1164.86 1687.12,1158.88 1688.7,1152.42 1690.28,1145.52 1691.86,1138.17 1693.44,1129.91 1695.02,1121.01 
  1696.6,1111.58 1698.18,1101.28 1699.76,1090.04 1701.34,1078.21 1702.92,1065.3 1704.5,1051.51 1706.08,1037.06 1707.66,1021.3 1709.24,1005.1 1710.82,987.639 
  1712.41,969.797 1713.99,950.909 1715.57,931.858 1717.15,911.908 1718.73,892.14 1720.31,871.817 1721.89,851.857 1723.47,832.112 1725.05,812.691 1726.63,794.305 
  1728.21,776.244 1729.79,759.479 1731.37,743.944 1732.95,729.381 1734.53,716.614 1736.11,704.949 1737.69,694.973 1739.27,686.725 1740.85,679.713 1742.43,674.874 
  1744.01,670.905 1745.59,691.159 1747.17,711.355 1748.75,730.916 1750.33,750.248 1751.91,769.34 1753.49,788.126 1755.07,806.548 1756.65,824.564 1758.23,842.139 
  1759.81,859.247 1761.39,875.82 1762.97,891.839 1764.55,907.389 1766.13,922.465 1767.71,937.065 1769.29,951.192 1770.87,964.85 1772.45,978.045 1774.03,990.788 
  1775.61,1003.09 1777.19,1014.95 1778.77,1026.4 1780.35,1037.43 1781.93,1048.07 1783.51,1058.33 1785.09,1068.22 1786.67,1077.73 1788.25,1086.87 1789.83,1095.68 
  1791.41,1104.18 1792.99,1112.37 1794.57,1120.27 1796.15,1127.89 1797.73,1135.24 1799.31,1142.33 1800.89,1149.18 1802.47,1155.78 1804.05,1162.16 1805.63,1168.32 
  1807.21,1174.28 1808.79,1180.03 1810.37,1185.58 1811.95,1190.92 1813.53,1196.08 1815.11,1201.08 1816.7,1205.93 1818.28,1210.62 1819.86,1215.17 1821.44,1219.54 
  1823.02,1223.78 1824.6,1227.89 1826.18,1231.84 1827.76,1235.64 1829.34,1239.26 1830.92,1241.54 1832.5,1241.19 1834.08,1238.22 1835.66,1235.08 1837.24,1231.94 
  1838.82,1228.84 1840.4,1242.78 1841.98,1226.19 1843.56,1210.4 1845.14,1195.62 1846.72,1181.83 1848.3,1168.98 1849.88,1157.08 1851.46,1146.13 1853.04,1136.09 
  1854.62,1126.97 1856.2,1118.72 1857.78,1111.33 1859.36,1104.69 1860.94,1098.76 1862.52,1093.6 1864.1,1089.18 1865.68,1085.47 1867.26,1082.44 1868.84,1080.01 
  1870.42,1078.05 1872,1076.67 1873.58,1075.87 1875.16,1075.59 1876.74,1075.83 1878.32,1076.55 1879.9,1077.48 1881.48,1078.83 1883.06,1080.59 1884.64,1082.71 
  1886.22,1085.17 1887.8,1087.95 1889.38,1090.93 1890.96,1094.02 1892.54,1097.35 1894.12,1100.9 1895.7,1104.64 1897.28,1108.55 1898.86,1112.6 1900.44,1116.75 
  1902.02,1120.8 1903.6,1124.94 1905.18,1129.15 1906.76,1133.39 1908.34,1137.67 1909.92,1141.94 1911.5,1146.21 1913.08,1150.45 1914.66,1154.5 1916.24,1158.49 
  1917.82,1162.43 1919.4,1166.29 1920.99,1170.08 1922.57,1173.78 1924.15,1177.38 1925.73,1180.88 1927.31,1184.27 1928.89,1187.46 1930.47,1190.51 1932.05,1193.44 
  1933.63,1196.26 1935.21,1198.07 1936.79,1200.07 1938.37,1202.19 1939.95,1204.37 1941.53,1206.56 1943.11,1208.69 1944.69,1210.76 1946.27,1212.79 1947.85,1214.75 
  1949.43,1216.65 1951.01,1218.46 1952.59,1220.19 1954.17,1221.82 1955.75,1223.37 1957.33,1224.82 1958.91,1226.18 1960.49,1227.45 1962.07,1228.61 1963.65,1229.66 
  1965.23,1230.64 1966.81,1231.55 1968.39,1232.39 1969.97,1233.17 1971.55,1233.88 1973.13,1234.55 1974.71,1235.15 1976.29,1235.71 1977.87,1236.23 1979.45,1236.71 
  1981.03,1237.15 1982.61,1237.55 1984.19,1237.93 1985.77,1238.27 1987.35,1238.59 1988.93,1238.89 1990.51,1239.15 1992.09,1239.4 1993.67,1239.63 1995.25,1239.84 
  1996.83,1240.05 1998.41,1240.23 1999.99,1240.41 2001.57,1240.58 2003.15,1240.74 2004.73,1240.89 2006.31,1241.03 2007.89,1241.16 2009.47,1241.29 2011.05,1241.41 
  2012.63,1241.52 2014.21,1241.63 2015.79,1241.74 2017.37,1241.84 2018.95,1241.93 2020.53,1242.02 2022.11,1242.11 2023.69,1242.19 2025.28,1242.27 2026.86,1242.35 
  2028.44,1242.42 2030.02,1230.5 2031.6,1227.24 2033.18,1227.35 2034.76,1228.88 2036.34,1230.9 2037.92,1232.95 2039.5,1234.79 2041.08,1236.37 2042.66,1237.67 
  2044.24,1238.74 2045.82,1239.58 2047.4,1240.22 2048.98,1240.75 2050.56,1241.2 2052.14,1241.58 2053.72,1241.91 2055.3,1242.2 2056.88,1242.44 2058.46,1242.66 
  2060.04,1242.85 2061.62,1243.01 2063.2,1243.16 2064.78,1243.29 2066.36,1243.41 2067.94,1243.52 2069.52,1243.61 2071.1,1243.7 2072.68,1243.78 2074.26,1243.85 
  2075.84,1243.91 2077.42,1243.97 2079,1244.02 2080.58,1244.07 2082.16,1244.11 2083.74,1244.16 2085.32,1244.19 2086.9,1244.23 2088.48,1244.26 2090.06,1244.29 
  2091.64,1244.31 2093.22,1244.34 2094.8,1244.36 2096.38,1244.38 2097.96,1244.4 2099.54,1244.42 2101.12,1244.43 2102.7,1244.45 2104.28,1244.46 2105.86,1244.47 
  2107.44,1244.48 2109.02,1244.5 2110.6,1244.51 2112.18,1244.52 2113.76,1244.53 2115.34,1244.54 2116.92,1244.54 2118.5,1244.55 2120.08,1244.56 2121.66,1244.57 
  2123.24,1244.57 2124.82,1244.63 2126.4,1244.64 2127.98,1244.64 2129.57,1244.64 2131.15,1244.64 2132.73,1244.64 2134.31,1244.65 2135.89,1244.65 2137.47,1244.65 
  2139.05,1244.65 2140.63,1244.65 2142.21,1244.65 2143.79,1244.66 2145.37,1244.66 2146.95,1244.66 2148.53,1244.66 2150.11,1244.66 2151.69,1244.66 2153.27,1244.66 
  2154.85,1244.67 2156.43,1244.67 2158.01,1244.67 2159.59,1244.67 2161.17,1244.67 2162.75,1244.67 2164.33,1244.67 2165.91,1244.67 2167.49,1244.68 2169.07,1244.68 
  2170.65,1244.68 2172.23,1244.68 2173.81,1244.68 2175.39,1244.68 2176.97,1244.68 2178.55,1244.68 2180.13,1244.68 2181.71,1244.68 2183.29,1244.69 2184.87,1244.69 
  2186.45,1244.69 2188.03,1244.69 2189.61,1244.69 2191.19,1244.69 2192.77,1244.69 2194.35,1244.69 2195.93,1244.69 2197.51,1244.69 2199.09,1244.69 2200.67,1244.69 
  2202.25,1244.7 2203.83,1244.7 2205.41,1244.7 2206.99,1244.7 2208.57,1244.7 2210.15,1244.7 2211.73,1244.7 2213.31,1244.7 2214.89,1244.7 2216.47,1244.7 
  2218.05,1244.7 2219.63,1244.69 2221.21,1244.68 2222.79,1244.68 2224.37,1244.68 2225.95,1244.68 2227.53,1244.68 2229.11,1244.68 2230.69,1244.67 2232.27,1244.67 
  2233.86,1244.67 2235.44,1244.67 2237.02,1244.67 2238.6,1244.66 2240.18,1244.66 2241.76,1244.66 2243.34,1244.66 2244.92,1244.65 2246.5,1244.65 2248.08,1244.65 
  2249.66,1244.65 2251.24,1244.64 2252.82,1244.64 2254.4,1244.64 2255.98,1244.63 2257.56,1244.63 2259.14,1244.63 2260.72,1244.62 2262.3,1244.62 2263.88,1244.61 
  2265.46,1244.61 2267.04,1244.61 2268.62,1244.6 2270.2,1244.6 2271.78,1244.59 2273.36,1244.59 2274.94,1244.58 2276.52,1244.58 2278.1,1244.57 2279.68,1244.57 
  2281.26,1244.56 2282.84,1244.55 2284.42,1244.55 2286,1244.54 2287.58,1244.53 2289.16,1244.52 2290.74,1244.52 2292.32,1244.51 2293.9,1244.5 2295.48,1244.49 
  2297.06,1244.48 2298.64,1244.47 2300.22,1244.46 2301.8,1244.45 2303.38,1244.43 2304.96,1244.42 2306.54,1244.41 2308.12,1244.39 2309.7,1244.38 2311.28,1244.36 
  2312.86,1244.35 2314.44,1244.67 2316.02,1244.67 2317.6,1244.67 2319.18,1244.67 2320.76,1244.67 2322.34,1244.66 2323.92,1244.66 2325.5,1244.66 2327.08,1244.66 
  2328.66,1244.66 2330.24,1244.65 2331.82,1244.65 2333.4,1244.65 2334.98,1244.65 2336.57,1244.64 2338.15,1244.64 2339.73,1244.64 2341.31,1244.63 2342.89,1244.63 
  2344.47,1244.63 2346.05,1244.62 2347.63,1244.62 2349.21,1244.62 2350.79,1244.61 2352.37,1244.61 2353.95,1244.61 2355.53,1244.6 2357.11,1244.6 2358.69,1244.59 
  2360.27,1244.59 2361.85,1244.58 2363.43,1244.58 2365.01,1244.58 2366.59,1244.57 2368.17,1244.56 2369.75,1244.56 2371.33,1244.55 2372.91,1244.55 2374.49,1244.54 
  2376.07,1244.53 2377.65,1244.53 2379.23,1244.52 2380.81,1244.51 2382.39,1244.5 2383.97,1244.5 2385.55,1244.49 2387.13,1244.48 2388.71,1244.47 2390.29,1244.46 
  2391.87,1244.45 2393.45,1244.44 2395.03,1244.43 2396.61,1244.42 2398.19,1244.41 2399.77,1244.39 2401.35,1244.38 2402.93,1244.37 2404.51,1244.35 2406.09,1244.34 
  2407.67,1244.32 2409.25,1244.65 2410.83,1244.61 2412.41,1244.6 2413.99,1244.6 2415.57,1244.6 2417.15,1244.6 2418.73,1244.59 2420.31,1244.59 2421.89,1244.59 
  2423.47,1244.59 2425.05,1244.59 2426.63,1244.58 2428.21,1244.58 2429.79,1244.58 2431.37,1244.58 2432.95,1244.58 2434.53,1244.57 2436.11,1244.57 2437.69,1244.57 
  2439.27,1244.57 2440.86,1244.56 2442.44,1244.56 2444.02,1244.56 2445.6,1244.56 2447.18,1244.56 2448.76,1244.55 2450.34,1244.55 2451.92,1244.55 2453.5,1244.54 
  2455.08,1244.54 2456.66,1244.54 2458.24,1244.54 2459.82,1244.53 2461.4,1244.53 2462.98,1244.53 2464.56,1244.53 2466.14,1244.52 2467.72,1244.52 2469.3,1244.52 
  2470.88,1244.51 2472.46,1244.51 2474.04,1244.51 2475.62,1244.5 2477.2,1244.5 2478.78,1244.5 2480.36,1244.49 2481.94,1244.49 2483.52,1244.49 2485.1,1244.48 
  2486.68,1244.48 2488.26,1244.47 2489.84,1244.47 2491.42,1244.47 2493,1244.46 2494.58,1244.46 2496.16,1244.45 2497.74,1244.45 2499.32,1244.45 2500.9,1244.44 
  2502.48,1244.44 2504.06,1244.55 2505.64,1244.49 2507.22,1244.47 2508.8,1244.46 2510.38,1244.45 2511.96,1244.44 2513.54,1244.43 2515.12,1244.42 2516.7,1244.4 
  2518.28,1244.39 2519.86,1244.37 2521.44,1244.36 2523.02,1244.34 2524.6,1244.33 2526.18,1244.31 2527.76,1244.29 2529.34,1244.27 2530.92,1244.25 2532.5,1244.23 
  2534.08,1244.2 2535.66,1244.18 2537.24,1244.15 2538.82,1244.12 2540.4,1244.09 2541.98,1244.06 2543.56,1244.03 2545.15,1243.99 2546.73,1243.95 2548.31,1243.91 
  2549.89,1243.87 2551.47,1243.82 2553.05,1243.77 2554.63,1243.72 2556.21,1243.66 2557.79,1243.59 2559.37,1243.53 2560.95,1243.46 2562.53,1243.38 2564.11,1243.29 
  2565.69,1243.2 2567.27,1243.1 2568.85,1243 2570.43,1242.88 2572.01,1242.75 2573.59,1242.62 2575.17,1242.46 2576.75,1242.3 2578.33,1242.12 2579.91,1241.92 
  2581.49,1241.7 2583.07,1241.46 2584.65,1241.2 2586.23,1240.91 2587.81,1240.58 2589.39,1240.22 2590.97,1239.82 2592.55,1239.37 2594.13,1238.87 2595.71,1238.31 
  2597.29,1237.67 2598.87,1241.79 2600.45,1243.65 2602.03,1244.34 2603.61,1244.01 2605.19,1243.67 2606.77,1243.43 2608.35,1243.26 2609.93,1243.15 2611.51,1243.07 
  2613.09,1243.01 2614.67,1242.97 2616.25,1242.93 2617.83,1242.9 2619.41,1242.87 2620.99,1242.85 2622.57,1242.83 2624.15,1242.81 2625.73,1242.79 2627.31,1242.77 
  2628.89,1242.75 2630.47,1242.73 2632.05,1242.71 2633.63,1242.69 2635.21,1242.67 2636.79,1242.65 2638.37,1242.64 2639.95,1242.62 2641.53,1242.6 2643.11,1242.58 
  2644.69,1242.56 2646.27,1242.54 2647.85,1242.52 2649.44,1242.5 2651.02,1242.48 2652.6,1242.45 2654.18,1242.43 2655.76,1242.41 2657.34,1242.39 2658.92,1242.37 
  2660.5,1242.35 2662.08,1242.32 2663.66,1242.3 2665.24,1242.28 2666.82,1242.26 2668.4,1242.23 2669.98,1242.21 2671.56,1242.19 2673.14,1242.16 2674.72,1242.14 
  2676.3,1242.11 2677.88,1242.09 2679.46,1242.06 2681.04,1242.04 2682.62,1242.01 2684.2,1241.99 2685.78,1241.96 2687.36,1241.94 2688.94,1241.91 2690.52,1241.88 
  2692.1,1241.86 2693.68,1243.84 2695.26,1244.43 2696.84,1244.11 2698.42,1243.8 2700,1243.58 2701.58,1243.41 2703.16,1243.29 2704.74,1243.18 2706.32,1243.09 
  2707.9,1243 2709.48,1242.92 2711.06,1242.84 2712.64,1242.75 2714.22,1242.67 2715.8,1242.58 2717.38,1242.48 2718.96,1242.39 2720.54,1242.28 2722.12,1242.18 
  2723.7,1242.06 2725.28,1241.95 2726.86,1241.82 2728.44,1241.69 2730.02,1241.54 2731.6,1241.4 2733.18,1241.24 2734.76,1241.07 2736.34,1240.89 2737.92,1240.7 
  2739.5,1240.5 2741.08,1240.28 2742.66,1240.05 2744.24,1239.8 2745.82,1239.54 2747.4,1239.26 2748.98,1238.96 2750.56,1238.64 2752.14,1238.29 2753.73,1237.92 
  2755.31,1237.52 2756.89,1237.09 2758.47,1236.63 2760.05,1236.13 2761.63,1235.6 2763.21,1235.01 2764.79,1234.39 2766.37,1233.71 2767.95,1232.97 2769.53,1232.16 
  2771.11,1231.29 2772.69,1230.34 2774.27,1229.3 2775.85,1228.17 2777.43,1226.93 2779.01,1225.57 2780.59,1224.08 2782.17,1222.44 2783.75,1220.64 2785.33,1218.64 
  
  "/>
</svg>
