<?xml version="1.0" encoding="utf-8"?>
<svg xmlns="http://www.w3.org/2000/svg" xmlns:xlink="http://www.w3.org/1999/xlink" width="900" height="500" viewBox="0 0 3600 2000">
<defs>
  <clipPath id="clip8600">
    <rect x="0" y="0" width="3600" height="2000"/>
  </clipPath>
</defs>
<polygon clip-path="url(#clip8600)" points="
0,2000 3600,2000 3600,0 0,0 
  " fill="#ffffff" fill-rule="evenodd" fill-opacity="1"/>
<defs>
  <clipPath id="clip8601">
    <rect x="720" y="0" width="2521" height="2000"/>
  </clipPath>
</defs>
<polygon clip-path="url(#clip8600)" points="
550.128,1661.72 3253.54,1661.72 3253.54,253.627 550.128,253.627 
  " fill="#ffffff" fill-rule="evenodd" fill-opacity="1"/>
<defs>
  <clipPath id="clip8602">
    <rect x="550" y="253" width="2704" height="1409"/>
  </clipPath>
</defs>
<polyline clip-path="url(#clip8602)" style="stroke:#000000; stroke-width:2; stroke-opacity:0.1; fill:none" points="
  624.868,1661.72 624.868,253.627 
  "/>
<polyline clip-path="url(#clip8602)" style="stroke:#000000; stroke-width:2; stroke-opacity:0.1; fill:none" points="
  1050.23,1661.72 1050.23,253.627 
  "/>
<polyline clip-path="url(#clip8602)" style="stroke:#000000; stroke-width:2; stroke-opacity:0.1; fill:none" points="
  1475.59,1661.72 1475.59,253.627 
  "/>
<polyline clip-path="url(#clip8602)" style="stroke:#000000; stroke-width:2; stroke-opacity:0.1; fill:none" points="
  1900.95,1661.72 1900.95,253.627 
  "/>
<polyline clip-path="url(#clip8602)" style="stroke:#000000; stroke-width:2; stroke-opacity:0.1; fill:none" points="
  2326.31,1661.72 2326.31,253.627 
  "/>
<polyline clip-path="url(#clip8602)" style="stroke:#000000; stroke-width:2; stroke-opacity:0.1; fill:none" points="
  2751.67,1661.72 2751.67,253.627 
  "/>
<polyline clip-path="url(#clip8602)" style="stroke:#000000; stroke-width:2; stroke-opacity:0.1; fill:none" points="
  3177.03,1661.72 3177.03,253.627 
  "/>
<polyline clip-path="url(#clip8602)" style="stroke:#000000; stroke-width:2; stroke-opacity:0.1; fill:none" points="
  550.128,1627.31 3253.54,1627.31 
  "/>
<polyline clip-path="url(#clip8602)" style="stroke:#000000; stroke-width:2; stroke-opacity:0.1; fill:none" points="
  550.128,1253.65 3253.54,1253.65 
  "/>
<polyline clip-path="url(#clip8602)" style="stroke:#000000; stroke-width:2; stroke-opacity:0.1; fill:none" points="
  550.128,879.987 3253.54,879.987 
  "/>
<polyline clip-path="url(#clip8602)" style="stroke:#000000; stroke-width:2; stroke-opacity:0.1; fill:none" points="
  550.128,506.323 3253.54,506.323 
  "/>
<polyline clip-path="url(#clip8600)" style="stroke:#000000; stroke-width:4; stroke-opacity:1; fill:none" points="
  550.128,1661.72 3253.54,1661.72 
  "/>
<polyline clip-path="url(#clip8600)" style="stroke:#000000; stroke-width:4; stroke-opacity:1; fill:none" points="
  550.128,1661.72 550.128,253.627 
  "/>
<polyline clip-path="url(#clip8600)" style="stroke:#000000; stroke-width:4; stroke-opacity:1; fill:none" points="
  624.868,1661.72 624.868,1640.6 
  "/>
<polyline clip-path="url(#clip8600)" style="stroke:#000000; stroke-width:4; stroke-opacity:1; fill:none" points="
  1050.23,1661.72 1050.23,1640.6 
  "/>
<polyline clip-path="url(#clip8600)" style="stroke:#000000; stroke-width:4; stroke-opacity:1; fill:none" points="
  1475.59,1661.72 1475.59,1640.6 
  "/>
<polyline clip-path="url(#clip8600)" style="stroke:#000000; stroke-width:4; stroke-opacity:1; fill:none" points="
  1900.95,1661.72 1900.95,1640.6 
  "/>
<polyline clip-path="url(#clip8600)" style="stroke:#000000; stroke-width:4; stroke-opacity:1; fill:none" points="
  2326.31,1661.72 2326.31,1640.6 
  "/>
<polyline clip-path="url(#clip8600)" style="stroke:#000000; stroke-width:4; stroke-opacity:1; fill:none" points="
  2751.67,1661.72 2751.67,1640.6 
  "/>
<polyline clip-path="url(#clip8600)" style="stroke:#000000; stroke-width:4; stroke-opacity:1; fill:none" points="
  3177.03,1661.72 3177.03,1640.6 
  "/>
<polyline clip-path="url(#clip8600)" style="stroke:#000000; stroke-width:4; stroke-opacity:1; fill:none" points="
  550.128,1627.31 590.68,1627.31 
  "/>
<polyline clip-path="url(#clip8600)" style="stroke:#000000; stroke-width:4; stroke-opacity:1; fill:none" points="
  550.128,1253.65 590.68,1253.65 
  "/>
<polyline clip-path="url(#clip8600)" style="stroke:#000000; stroke-width:4; stroke-opacity:1; fill:none" points="
  550.128,879.987 590.68,879.987 
  "/>
<polyline clip-path="url(#clip8600)" style="stroke:#000000; stroke-width:4; stroke-opacity:1; fill:none" points="
  550.128,506.323 590.68,506.323 
  "/>
<g clip-path="url(#clip8600)">
<text style="fill:#000000; fill-opacity:1; font-family:Arial,Helvetica Neue,Helvetica,sans-serif; font-size:71px; text-anchor:middle;" transform="rotate(0, 624.868, 1742.12)" x="624.868" y="1742.12">0</text>
</g>
<g clip-path="url(#clip8600)">
<text style="fill:#000000; fill-opacity:1; font-family:Arial,Helvetica Neue,Helvetica,sans-serif; font-size:71px; text-anchor:middle;" transform="rotate(0, 1050.23, 1742.12)" x="1050.23" y="1742.12">4</text>
</g>
<g clip-path="url(#clip8600)">
<text style="fill:#000000; fill-opacity:1; font-family:Arial,Helvetica Neue,Helvetica,sans-serif; font-size:71px; text-anchor:middle;" transform="rotate(0, 1475.59, 1742.12)" x="1475.59" y="1742.12">8</text>
</g>
<g clip-path="url(#clip8600)">
<text style="fill:#000000; fill-opacity:1; font-family:Arial,Helvetica Neue,Helvetica,sans-serif; font-size:71px; text-anchor:middle;" transform="rotate(0, 1900.95, 1742.12)" x="1900.95" y="1742.12">12</text>
</g>
<g clip-path="url(#clip8600)">
<text style="fill:#000000; fill-opacity:1; font-family:Arial,Helvetica Neue,Helvetica,sans-serif; font-size:71px; text-anchor:middle;" transform="rotate(0, 2326.31, 1742.12)" x="2326.31" y="1742.12">16</text>
</g>
<g clip-path="url(#clip8600)">
<text style="fill:#000000; fill-opacity:1; font-family:Arial,Helvetica Neue,Helvetica,sans-serif; font-size:71px; text-anchor:middle;" transform="rotate(0, 2751.67, 1742.12)" x="2751.67" y="1742.12">20</text>
</g>
<g clip-path="url(#clip8600)">
<text style="fill:#000000; fill-opacity:1; font-family:Arial,Helvetica Neue,Helvetica,sans-serif; font-size:71px; text-anchor:middle;" transform="rotate(0, 3177.03, 1742.12)" x="3177.03" y="1742.12">24</text>
</g>
<g clip-path="url(#clip8600)">
<text style="fill:#000000; fill-opacity:1; font-family:Arial,Helvetica Neue,Helvetica,sans-serif; font-size:71px; text-anchor:end;" transform="rotate(0, 514.128, 1653.31)" x="514.128" y="1653.31">0</text>
</g>
<g clip-path="url(#clip8600)">
<text style="fill:#000000; fill-opacity:1; font-family:Arial,Helvetica Neue,Helvetica,sans-serif; font-size:71px; text-anchor:end;" transform="rotate(0, 514.128, 1279.65)" x="514.128" y="1279.65">20</text>
</g>
<g clip-path="url(#clip8600)">
<text style="fill:#000000; fill-opacity:1; font-family:Arial,Helvetica Neue,Helvetica,sans-serif; font-size:71px; text-anchor:end;" transform="rotate(0, 514.128, 905.987)" x="514.128" y="905.987">40</text>
</g>
<g clip-path="url(#clip8600)">
<text style="fill:#000000; fill-opacity:1; font-family:Arial,Helvetica Neue,Helvetica,sans-serif; font-size:71px; text-anchor:end;" transform="rotate(0, 514.128, 532.323)" x="514.128" y="532.323">60</text>
</g>
<g clip-path="url(#clip8600)">
<text style="fill:#000000; fill-opacity:1; font-family:Arial,Helvetica Neue,Helvetica,sans-serif; font-size:82px; text-anchor:middle;" transform="rotate(0, 1901.84, 72)" x="1901.84" y="72">Problem Data for US Call Center</text>
</g>
<g clip-path="url(#clip8600)">
<text style="fill:#000000; fill-opacity:1; font-family:Arial,Helvetica Neue,Helvetica,sans-serif; font-size:95px; text-anchor:middle;" transform="rotate(0, 1901.84, 1859.97)" x="1901.84" y="1859.97">Time (hours)</text>
</g>
<g clip-path="url(#clip8600)">
<text style="fill:#000000; fill-opacity:1; font-family:Arial,Helvetica Neue,Helvetica,sans-serif; font-size:95px; text-anchor:middle;" transform="rotate(-90, 380.042, 957.675)" x="380.042" y="957.675">Rate (1/min.)</text>
</g>
<polyline clip-path="url(#clip8602)" style="stroke:#009af9; stroke-width:4; stroke-opacity:1; fill:none" points="
  626.64,1533.89 628.412,1534.21 630.185,1534.54 631.957,1534.86 633.729,1535.19 635.502,1535.52 637.274,1535.84 639.046,1536.17 640.819,1536.49 642.591,1536.82 
  644.363,1537.15 646.136,1537.47 647.908,1537.8 649.68,1538.13 651.453,1538.45 653.225,1538.78 654.997,1539.1 656.77,1539.43 658.542,1539.76 660.314,1540.08 
  662.087,1540.41 663.859,1540.73 665.631,1541.06 667.404,1541.39 669.176,1541.71 670.948,1542.04 672.721,1542.36 674.493,1542.69 676.266,1543.02 678.038,1543.34 
  679.81,1543.67 681.583,1544 683.355,1544.32 685.127,1544.65 686.9,1544.97 688.672,1545.3 690.444,1545.63 692.217,1545.95 693.989,1546.28 695.761,1546.6 
  697.534,1546.93 699.306,1547.26 701.078,1547.58 702.851,1547.91 704.623,1548.23 706.395,1548.56 708.168,1548.89 709.94,1549.21 711.712,1549.54 713.485,1549.86 
  715.257,1550.19 717.029,1550.52 718.802,1550.84 720.574,1551.17 722.346,1551.5 724.119,1551.82 725.891,1552.15 727.663,1552.47 729.436,1552.8 731.208,1553.13 
  732.98,1573.09 734.753,1573.49 736.525,1573.89 738.297,1574.29 740.07,1574.69 741.842,1575.09 743.614,1575.49 745.387,1575.88 747.159,1576.28 748.931,1576.68 
  750.704,1577.08 752.476,1577.48 754.248,1577.88 756.021,1578.28 757.793,1578.68 759.565,1579.08 761.338,1579.48 763.11,1579.88 764.882,1580.28 766.655,1580.68 
  768.427,1581.07 770.199,1581.47 771.972,1581.87 773.744,1582.27 775.516,1582.67 777.289,1583.07 779.061,1583.47 780.833,1583.87 782.606,1584.27 784.378,1584.67 
  786.15,1585.07 787.923,1585.47 789.695,1585.86 791.467,1586.26 793.24,1586.66 795.012,1587.06 796.784,1587.46 798.557,1587.86 800.329,1588.26 802.101,1588.66 
  803.874,1589.06 805.646,1589.46 807.418,1589.86 809.191,1590.26 810.963,1590.65 812.735,1591.05 814.508,1591.45 816.28,1591.85 818.052,1592.25 819.825,1592.65 
  821.597,1593.05 823.369,1593.45 825.142,1593.85 826.914,1594.25 828.686,1594.65 830.459,1595.05 832.231,1595.45 834.003,1595.84 835.776,1596.24 837.548,1596.64 
  839.32,1596.8 841.093,1596.95 842.865,1597.1 844.637,1597.26 846.41,1597.41 848.182,1597.56 849.954,1597.72 851.727,1597.87 853.499,1598.02 855.271,1598.18 
  857.044,1598.33 858.816,1598.48 860.588,1598.64 862.361,1598.79 864.133,1598.94 865.905,1599.1 867.678,1599.25 869.45,1599.4 871.222,1599.56 872.995,1599.71 
  874.767,1599.86 876.539,1600.02 878.312,1600.17 880.084,1600.32 881.856,1600.48 883.629,1600.63 885.401,1600.78 887.173,1600.94 888.946,1601.09 890.718,1601.24 
  892.49,1601.4 894.263,1601.55 896.035,1601.7 897.808,1601.86 899.58,1602.01 901.352,1602.16 903.125,1602.32 904.897,1602.47 906.669,1602.62 908.442,1602.78 
  910.214,1602.93 911.986,1603.08 913.759,1603.24 915.531,1603.39 917.303,1603.54 919.076,1603.7 920.848,1603.85 922.62,1604 924.393,1604.16 926.165,1604.31 
  927.937,1604.46 929.71,1604.62 931.482,1604.77 933.254,1604.92 935.027,1605.08 936.799,1605.23 938.571,1605.38 940.344,1605.54 942.116,1605.69 943.888,1605.84 
  945.661,1605.93 947.433,1606.02 949.205,1606.11 950.978,1606.2 952.75,1606.29 954.522,1606.38 956.295,1606.47 958.067,1606.56 959.839,1606.64 961.612,1606.73 
  963.384,1606.82 965.156,1606.91 966.929,1607 968.701,1607.09 970.473,1607.18 972.246,1607.27 974.018,1607.36 975.79,1607.44 977.563,1607.53 979.335,1607.62 
  981.107,1607.71 982.88,1607.8 984.652,1607.89 986.424,1607.98 988.197,1608.07 989.969,1608.16 991.741,1608.24 993.514,1608.33 995.286,1608.42 997.058,1608.51 
  998.831,1608.6 1000.6,1608.69 1002.38,1608.78 1004.15,1608.87 1005.92,1608.95 1007.69,1609.04 1009.46,1609.13 1011.24,1609.22 1013.01,1609.31 1014.78,1609.4 
  1016.55,1609.49 1018.33,1609.58 1020.1,1609.67 1021.87,1609.75 1023.64,1609.84 1025.42,1609.93 1027.19,1610.02 1028.96,1610.11 1030.73,1610.2 1032.51,1610.29 
  1034.28,1610.38 1036.05,1610.47 1037.82,1610.55 1039.59,1610.64 1041.37,1610.73 1043.14,1610.82 1044.91,1610.91 1046.68,1611 1048.46,1611.09 1050.23,1611.18 
  1052,1611.07 1053.77,1610.97 1055.55,1610.87 1057.32,1610.76 1059.09,1610.66 1060.86,1610.55 1062.63,1610.45 1064.41,1610.35 1066.18,1610.24 1067.95,1610.14 
  1069.72,1610.03 1071.5,1609.93 1073.27,1609.83 1075.04,1609.72 1076.81,1609.62 1078.59,1609.52 1080.36,1609.41 1082.13,1609.31 1083.9,1609.2 1085.68,1609.1 
  1087.45,1609 1089.22,1608.89 1090.99,1608.79 1092.76,1608.69 1094.54,1608.58 1096.31,1608.48 1098.08,1608.37 1099.85,1608.27 1101.63,1608.17 1103.4,1608.06 
  1105.17,1607.96 1106.94,1607.85 1108.72,1607.75 1110.49,1607.65 1112.26,1607.54 1114.03,1607.44 1115.8,1607.34 1117.58,1607.23 1119.35,1607.13 1121.12,1607.02 
  1122.89,1606.92 1124.67,1606.82 1126.44,1606.71 1128.21,1606.61 1129.98,1606.51 1131.76,1606.4 1133.53,1606.3 1135.3,1606.19 1137.07,1606.09 1138.85,1605.99 
  1140.62,1605.88 1142.39,1605.78 1144.16,1605.67 1145.93,1605.57 1147.71,1605.47 1149.48,1605.36 1151.25,1605.26 1153.02,1605.16 1154.8,1605.05 1156.57,1604.95 
  1158.34,1604.16 1160.11,1603.37 1161.89,1602.57 1163.66,1601.78 1165.43,1600.99 1167.2,1600.2 1168.97,1599.41 1170.75,1598.62 1172.52,1597.83 1174.29,1597.03 
  1176.06,1596.24 1177.84,1595.45 1179.61,1594.66 1181.38,1593.87 1183.15,1593.08 1184.93,1592.29 1186.7,1591.5 1188.47,1590.7 1190.24,1589.91 1192.02,1589.12 
  1193.79,1588.33 1195.56,1587.54 1197.33,1586.75 1199.1,1585.96 1200.88,1585.16 1202.65,1584.37 1204.42,1583.58 1206.19,1582.79 1207.97,1582 1209.74,1581.21 
  1211.51,1580.42 1213.28,1579.63 1215.06,1578.83 1216.83,1578.04 1218.6,1577.25 1220.37,1576.46 1222.14,1575.67 1223.92,1574.88 1225.69,1574.09 1227.46,1573.3 
  1229.23,1572.5 1231.01,1571.71 1232.78,1570.92 1234.55,1570.13 1236.32,1569.34 1238.1,1568.55 1239.87,1567.76 1241.64,1566.96 1243.41,1566.17 1245.19,1565.38 
  1246.96,1564.59 1248.73,1563.8 1250.5,1563.01 1252.27,1562.22 1254.05,1561.43 1255.82,1560.63 1257.59,1559.84 1259.36,1559.05 1261.14,1558.26 1262.91,1557.47 
  1264.68,1555.24 1266.45,1553.02 1268.23,1550.79 1270,1548.57 1271.77,1546.35 1273.54,1544.12 1275.32,1541.9 1277.09,1539.67 1278.86,1537.45 1280.63,1535.22 
  1282.4,1533 1284.18,1530.77 1285.95,1528.55 1287.72,1526.32 1289.49,1524.1 1291.27,1521.87 1293.04,1519.65 1294.81,1517.43 1296.58,1515.2 1298.36,1512.98 
  1300.13,1510.75 1301.9,1508.53 1303.67,1506.3 1305.44,1504.08 1307.22,1501.85 1308.99,1499.63 1310.76,1497.4 1312.53,1495.18 1314.31,1492.96 1316.08,1490.73 
  1317.85,1488.51 1319.62,1486.28 1321.4,1484.06 1323.17,1481.83 1324.94,1479.61 1326.71,1477.38 1328.49,1475.16 1330.26,1472.93 1332.03,1470.71 1333.8,1468.48 
  1335.57,1466.26 1337.35,1464.04 1339.12,1461.81 1340.89,1459.59 1342.66,1457.36 1344.44,1455.14 1346.21,1452.91 1347.98,1450.69 1349.75,1448.46 1351.53,1446.24 
  1353.3,1444.01 1355.07,1441.79 1356.84,1439.56 1358.61,1437.34 1360.39,1435.12 1362.16,1432.89 1363.93,1430.67 1365.7,1428.44 1367.48,1426.22 1369.25,1423.99 
  1371.02,1420.68 1372.79,1417.37 1374.57,1414.06 1376.34,1410.75 1378.11,1407.44 1379.88,1404.13 1381.66,1400.82 1383.43,1397.51 1385.2,1394.2 1386.97,1390.89 
  1388.74,1387.58 1390.52,1384.27 1392.29,1380.96 1394.06,1377.65 1395.83,1374.34 1397.61,1371.03 1399.38,1367.72 1401.15,1364.41 1402.92,1361.1 1404.7,1357.79 
  1406.47,1354.48 1408.24,1351.17 1410.01,1347.86 1411.78,1344.55 1413.56,1341.24 1415.33,1337.93 1417.1,1334.62 1418.87,1331.31 1420.65,1328 1422.42,1324.69 
  1424.19,1321.38 1425.96,1318.07 1427.74,1314.76 1429.51,1311.45 1431.28,1308.14 1433.05,1304.83 1434.83,1301.52 1436.6,1298.21 1438.37,1294.9 1440.14,1291.59 
  1441.91,1288.28 1443.69,1284.97 1445.46,1281.66 1447.23,1278.35 1449,1275.04 1450.78,1271.73 1452.55,1268.42 1454.32,1265.11 1456.09,1261.8 1457.87,1258.49 
  1459.64,1255.18 1461.41,1251.87 1463.18,1248.56 1464.96,1245.25 1466.73,1241.94 1468.5,1238.63 1470.27,1235.32 1472.04,1232.01 1473.82,1228.7 1475.59,1225.39 
  1477.36,1215.92 1479.13,1206.45 1480.91,1196.98 1482.68,1187.52 1484.45,1178.05 1486.22,1168.58 1488,1159.11 1489.77,1149.65 1491.54,1140.18 1493.31,1130.71 
  1495.08,1121.24 1496.86,1111.77 1498.63,1102.31 1500.4,1092.84 1502.17,1083.37 1503.95,1073.9 1505.72,1064.44 1507.49,1054.97 1509.26,1045.5 1511.04,1036.03 
  1512.81,1026.57 1514.58,1017.1 1516.35,1007.63 1518.13,998.165 1519.9,988.697 1521.67,979.229 1523.44,969.762 1525.21,960.294 1526.99,950.827 1528.76,941.359 
  1530.53,931.892 1532.3,922.424 1534.08,912.957 1535.85,903.489 1537.62,894.022 1539.39,884.554 1541.17,875.087 1542.94,865.619 1544.71,856.151 1546.48,846.684 
  1548.25,837.216 1550.03,827.749 1551.8,818.281 1553.57,808.814 1555.34,799.346 1557.12,789.879 1558.89,780.411 1560.66,770.944 1562.43,761.476 1564.21,752.009 
  1565.98,742.541 1567.75,733.074 1569.52,723.606 1571.3,714.138 1573.07,704.671 1574.84,695.203 1576.61,685.736 1578.38,676.268 1580.16,666.801 1581.93,657.333 
  1583.7,651.269 1585.47,645.205 1587.25,639.141 1589.02,633.076 1590.79,627.012 1592.56,620.948 1594.34,614.884 1596.11,608.819 1597.88,602.755 1599.65,596.691 
  1601.42,590.627 1603.2,584.562 1604.97,578.498 1606.74,572.434 1608.51,566.37 1610.29,560.305 1612.06,554.241 1613.83,548.177 1615.6,542.113 1617.38,536.048 
  1619.15,529.984 1620.92,523.92 1622.69,517.856 1624.47,511.791 1626.24,505.727 1628.01,499.663 1629.78,493.599 1631.55,487.534 1633.33,481.47 1635.1,475.406 
  1636.87,469.342 1638.64,463.277 1640.42,457.213 1642.19,451.149 1643.96,445.085 1645.73,439.02 1647.51,432.956 1649.28,426.892 1651.05,420.828 1652.82,414.764 
  1654.59,408.699 1656.37,402.635 1658.14,396.571 1659.91,390.507 1661.68,384.442 1663.46,378.378 1665.23,372.314 1667,366.25 1668.77,360.185 1670.55,354.121 
  1672.32,348.057 1674.09,341.993 1675.86,335.928 1677.64,329.864 1679.41,323.8 1681.18,317.736 1682.95,311.671 1684.72,305.607 1686.5,299.543 1688.27,293.479 
  1690.04,293.987 1691.81,294.495 1693.59,295.004 1695.36,295.512 1697.13,296.021 1698.9,296.529 1700.68,297.037 1702.45,297.546 1704.22,298.054 1705.99,298.563 
  1707.77,299.071 1709.54,299.579 1711.31,300.088 1713.08,300.596 1714.85,301.105 1716.63,301.613 1718.4,302.121 1720.17,302.63 1721.94,303.138 1723.72,303.646 
  1725.49,304.155 1727.26,304.663 1729.03,305.172 1730.81,305.68 1732.58,306.188 1734.35,306.697 1736.12,307.205 1737.89,307.714 1739.67,308.222 1741.44,308.73 
  1743.21,309.239 1744.98,309.747 1746.76,310.256 1748.53,310.764 1750.3,311.272 1752.07,311.781 1753.85,312.289 1755.62,312.797 1757.39,313.306 1759.16,313.814 
  1760.94,314.323 1762.71,314.831 1764.48,315.339 1766.25,315.848 1768.02,316.356 1769.8,316.865 1771.57,317.373 1773.34,317.881 1775.11,318.39 1776.89,318.898 
  1778.66,319.407 1780.43,319.915 1782.2,320.423 1783.98,320.932 1785.75,321.44 1787.52,321.948 1789.29,322.457 1791.06,322.965 1792.84,323.474 1794.61,323.982 
  1796.38,325.22 1798.15,326.457 1799.93,327.695 1801.7,328.933 1803.47,330.17 1805.24,331.408 1807.02,332.646 1808.79,333.883 1810.56,335.121 1812.33,336.359 
  1814.11,337.596 1815.88,338.834 1817.65,340.072 1819.42,341.309 1821.19,342.547 1822.97,343.785 1824.74,345.022 1826.51,346.26 1828.28,347.498 1830.06,348.735 
  1831.83,349.973 1833.6,351.21 1835.37,352.448 1837.15,353.686 1838.92,354.923 1840.69,356.161 1842.46,357.399 1844.23,358.636 1846.01,359.874 1847.78,361.112 
  1849.55,362.349 1851.32,363.587 1853.1,364.825 1854.87,366.062 1856.64,367.3 1858.41,368.538 1860.19,369.775 1861.96,371.013 1863.73,372.251 1865.5,373.488 
  1867.28,374.726 1869.05,375.964 1870.82,377.201 1872.59,378.439 1874.36,379.677 1876.14,380.914 1877.91,382.152 1879.68,383.39 1881.45,384.627 1883.23,385.865 
  1885,387.102 1886.77,388.34 1888.54,389.578 1890.32,390.815 1892.09,392.053 1893.86,393.291 1895.63,394.528 1897.4,395.766 1899.18,397.004 1900.95,398.241 
  1902.72,399.943 1904.49,401.645 1906.27,403.347 1908.04,405.049 1909.81,406.751 1911.58,408.453 1913.36,410.155 1915.13,411.856 1916.9,413.558 1918.67,415.26 
  1920.45,416.962 1922.22,418.664 1923.99,420.366 1925.76,422.068 1927.53,423.77 1929.31,425.471 1931.08,427.173 1932.85,428.875 1934.62,430.577 1936.4,432.279 
  1938.17,433.981 1939.94,435.683 1941.71,437.385 1943.49,439.087 1945.26,440.788 1947.03,442.49 1948.8,444.192 1950.58,445.894 1952.35,447.596 1954.12,449.298 
  1955.89,451 1957.66,452.702 1959.44,454.403 1961.21,456.105 1962.98,457.807 1964.75,459.509 1966.53,461.211 1968.3,462.913 1970.07,464.615 1971.84,466.317 
  1973.62,468.018 1975.39,469.72 1977.16,471.422 1978.93,473.124 1980.7,474.826 1982.48,476.528 1984.25,478.23 1986.02,479.932 1987.79,481.634 1989.57,483.335 
  1991.34,485.037 1993.11,486.739 1994.88,488.441 1996.66,490.143 1998.43,491.845 2000.2,493.547 2001.97,495.249 2003.75,496.95 2005.52,498.652 2007.29,500.354 
  2009.06,500.16 2010.83,499.965 2012.61,499.771 2014.38,499.576 2016.15,499.381 2017.92,499.187 2019.7,498.992 2021.47,498.798 2023.24,498.603 2025.01,498.409 
  2026.79,498.214 2028.56,498.019 2030.33,497.825 2032.1,497.63 2033.87,497.436 2035.65,497.241 2037.42,497.047 2039.19,496.852 2040.96,496.657 2042.74,496.463 
  2044.51,496.268 2046.28,496.074 2048.05,495.879 2049.83,495.685 2051.6,495.49 2053.37,495.296 2055.14,495.101 2056.92,494.906 2058.69,494.712 2060.46,494.517 
  2062.23,494.323 2064,494.128 2065.78,493.934 2067.55,493.739 2069.32,493.544 2071.09,493.35 2072.87,493.155 2074.64,492.961 2076.41,492.766 2078.18,492.572 
  2079.96,492.377 2081.73,492.182 2083.5,491.988 2085.27,491.793 2087.04,491.599 2088.82,491.404 2090.59,491.21 2092.36,491.015 2094.13,490.821 2095.91,490.626 
  2097.68,490.431 2099.45,490.237 2101.22,490.042 2103,489.848 2104.77,489.653 2106.54,489.459 2108.31,489.264 2110.09,489.069 2111.86,488.875 2113.63,488.68 
  2115.4,489.493 2117.17,490.305 2118.95,491.117 2120.72,491.929 2122.49,492.741 2124.26,493.554 2126.04,494.366 2127.81,495.178 2129.58,495.99 2131.35,496.802 
  2133.13,497.615 2134.9,498.427 2136.67,499.239 2138.44,500.051 2140.22,500.863 2141.99,501.676 2143.76,502.488 2145.53,503.3 2147.3,504.112 2149.08,504.924 
  2150.85,505.737 2152.62,506.549 2154.39,507.361 2156.17,508.173 2157.94,508.985 2159.71,509.798 2161.48,510.61 2163.26,511.422 2165.03,512.234 2166.8,513.046 
  2168.57,513.858 2170.34,514.671 2172.12,515.483 2173.89,516.295 2175.66,517.107 2177.43,517.919 2179.21,518.732 2180.98,519.544 2182.75,520.356 2184.52,521.168 
  2186.3,521.98 2188.07,522.793 2189.84,523.605 2191.61,524.417 2193.39,525.229 2195.16,526.041 2196.93,526.854 2198.7,527.666 2200.47,528.478 2202.25,529.29 
  2204.02,530.102 2205.79,530.915 2207.56,531.727 2209.34,532.539 2211.11,533.351 2212.88,534.163 2214.65,534.976 2216.43,535.788 2218.2,536.6 2219.97,537.412 
  2221.74,538.743 2223.51,540.073 2225.29,541.404 2227.06,542.734 2228.83,544.065 2230.6,545.395 2232.38,546.726 2234.15,548.056 2235.92,549.387 2237.69,550.717 
  2239.47,552.048 2241.24,553.378 2243.01,554.709 2244.78,556.039 2246.56,557.37 2248.33,558.7 2250.1,560.031 2251.87,561.361 2253.64,562.692 2255.42,564.022 
  2257.19,565.353 2258.96,566.683 2260.73,568.014 2262.51,569.344 2264.28,570.675 2266.05,572.005 2267.82,573.336 2269.6,574.666 2271.37,575.997 2273.14,577.327 
  2274.91,578.658 2276.68,579.988 2278.46,581.319 2280.23,582.649 2282,583.98 2283.77,585.31 2285.55,586.641 2287.32,587.971 2289.09,589.302 2290.86,590.632 
  2292.64,591.963 2294.41,593.293 2296.18,594.624 2297.95,595.954 2299.73,597.285 2301.5,598.615 2303.27,599.946 2305.04,601.276 2306.81,602.607 2308.59,603.937 
  2310.36,605.268 2312.13,606.598 2313.9,607.929 2315.68,609.259 2317.45,610.59 2319.22,611.92 2320.99,613.251 2322.77,614.581 2324.54,615.912 2326.31,617.242 
  2328.08,621.36 2329.85,625.478 2331.63,629.595 2333.4,633.713 2335.17,637.831 2336.94,641.949 2338.72,646.066 2340.49,650.184 2342.26,654.302 2344.03,658.419 
  2345.81,662.537 2347.58,666.655 2349.35,670.773 2351.12,674.89 2352.9,679.008 2354.67,683.126 2356.44,687.243 2358.21,691.361 2359.98,695.479 2361.76,699.597 
  2363.53,703.714 2365.3,707.832 2367.07,711.95 2368.85,716.067 2370.62,720.185 2372.39,724.303 2374.16,728.421 2375.94,732.538 2377.71,736.656 2379.48,740.774 
  2381.25,744.891 2383.03,749.009 2384.8,753.127 2386.57,757.245 2388.34,761.362 2390.11,765.48 2391.89,769.598 2393.66,773.716 2395.43,777.833 2397.2,781.951 
  2398.98,786.069 2400.75,790.186 2402.52,794.304 2404.29,798.422 2406.07,802.54 2407.84,806.657 2409.61,810.775 2411.38,814.893 2413.15,819.01 2414.93,823.128 
  2416.7,827.246 2418.47,831.364 2420.24,835.481 2422.02,839.599 2423.79,843.717 2425.56,847.834 2427.33,851.952 2429.11,856.07 2430.88,860.188 2432.65,864.305 
  2434.42,867.472 2436.2,870.639 2437.97,873.805 2439.74,876.972 2441.51,880.139 2443.28,883.305 2445.06,886.472 2446.83,889.639 2448.6,892.806 2450.37,895.972 
  2452.15,899.139 2453.92,902.306 2455.69,905.472 2457.46,908.639 2459.24,911.806 2461.01,914.972 2462.78,918.139 2464.55,921.306 2466.32,924.472 2468.1,927.639 
  2469.87,930.806 2471.64,933.973 2473.41,937.139 2475.19,940.306 2476.96,943.473 2478.73,946.639 2480.5,949.806 2482.28,952.973 2484.05,956.139 2485.82,959.306 
  2487.59,962.473 2489.37,965.639 2491.14,968.806 2492.91,971.973 2494.68,975.139 2496.45,978.306 2498.23,981.473 2500,984.64 2501.77,987.806 2503.54,990.973 
  2505.32,994.14 2507.09,997.306 2508.86,1000.47 2510.63,1003.64 2512.41,1006.81 2514.18,1009.97 2515.95,1013.14 2517.72,1016.31 2519.49,1019.47 2521.27,1022.64 
  2523.04,1025.81 2524.81,1028.97 2526.58,1032.14 2528.36,1035.31 2530.13,1038.47 2531.9,1041.64 2533.67,1044.81 2535.45,1047.97 2537.22,1051.14 2538.99,1054.31 
  2540.76,1056.25 2542.54,1058.2 2544.31,1060.14 2546.08,1062.09 2547.85,1064.04 2549.62,1065.98 2551.4,1067.93 2553.17,1069.87 2554.94,1071.82 2556.71,1073.76 
  2558.49,1075.71 2560.26,1077.66 2562.03,1079.6 2563.8,1081.55 2565.58,1083.49 2567.35,1085.44 2569.12,1087.39 2570.89,1089.33 2572.66,1091.28 2574.44,1093.22 
  2576.21,1095.17 2577.98,1097.11 2579.75,1099.06 2581.53,1101.01 2583.3,1102.95 2585.07,1104.9 2586.84,1106.84 2588.62,1108.79 2590.39,1110.73 2592.16,1112.68 
  2593.93,1114.63 2595.71,1116.57 2597.48,1118.52 2599.25,1120.46 2601.02,1122.41 2602.79,1124.36 2604.57,1126.3 2606.34,1128.25 2608.11,1130.19 2609.88,1132.14 
  2611.66,1134.08 2613.43,1136.03 2615.2,1137.98 2616.97,1139.92 2618.75,1141.87 2620.52,1143.81 2622.29,1145.76 2624.06,1147.71 2625.84,1149.65 2627.61,1151.6 
  2629.38,1153.54 2631.15,1155.49 2632.92,1157.43 2634.7,1159.38 2636.47,1161.33 2638.24,1163.27 2640.01,1165.22 2641.79,1167.16 2643.56,1169.11 2645.33,1171.05 
  2647.1,1172.15 2648.88,1173.24 2650.65,1174.33 2652.42,1175.42 2654.19,1176.51 2655.96,1177.6 2657.74,1178.69 2659.51,1179.78 2661.28,1180.87 2663.05,1181.96 
  2664.83,1183.05 2666.6,1184.14 2668.37,1185.23 2670.14,1186.32 2671.92,1187.41 2673.69,1188.5 2675.46,1189.59 2677.23,1190.68 2679.01,1191.77 2680.78,1192.86 
  2682.55,1193.95 2684.32,1195.04 2686.09,1196.13 2687.87,1197.22 2689.64,1198.32 2691.41,1199.41 2693.18,1200.5 2694.96,1201.59 2696.73,1202.68 2698.5,1203.77 
  2700.27,1204.86 2702.05,1205.95 2703.82,1207.04 2705.59,1208.13 2707.36,1209.22 2709.13,1210.31 2710.91,1211.4 2712.68,1212.49 2714.45,1213.58 2716.22,1214.67 
  2718,1215.76 2719.77,1216.85 2721.54,1217.94 2723.31,1219.03 2725.09,1220.12 2726.86,1221.21 2728.63,1222.3 2730.4,1223.39 2732.18,1224.49 2733.95,1225.58 
  2735.72,1226.67 2737.49,1227.76 2739.26,1228.85 2741.04,1229.94 2742.81,1231.03 2744.58,1232.12 2746.35,1233.21 2748.13,1234.3 2749.9,1235.39 2751.67,1236.48 
  2753.44,1237.51 2755.22,1238.55 2756.99,1239.58 2758.76,1240.62 2760.53,1241.65 2762.3,1242.68 2764.08,1243.72 2765.85,1244.75 2767.62,1245.79 2769.39,1246.82 
  2771.17,1247.85 2772.94,1248.89 2774.71,1249.92 2776.48,1250.96 2778.26,1251.99 2780.03,1253.03 2781.8,1254.06 2783.57,1255.09 2785.35,1256.13 2787.12,1257.16 
  2788.89,1258.2 2790.66,1259.23 2792.43,1260.26 2794.21,1261.3 2795.98,1262.33 2797.75,1263.37 2799.52,1264.4 2801.3,1265.43 2803.07,1266.47 2804.84,1267.5 
  2806.61,1268.54 2808.39,1269.57 2810.16,1270.6 2811.93,1271.64 2813.7,1272.67 2815.48,1273.71 2817.25,1274.74 2819.02,1275.77 2820.79,1276.81 2822.56,1277.84 
  2824.34,1278.88 2826.11,1279.91 2827.88,1280.94 2829.65,1281.98 2831.43,1283.01 2833.2,1284.05 2834.97,1285.08 2836.74,1286.11 2838.52,1287.15 2840.29,1288.18 
  2842.06,1289.22 2843.83,1290.25 2845.6,1291.29 2847.38,1292.32 2849.15,1293.35 2850.92,1294.39 2852.69,1295.42 2854.47,1296.46 2856.24,1297.49 2858.01,1298.52 
  2859.78,1299.78 2861.56,1301.03 2863.33,1302.28 2865.1,1303.53 2866.87,1304.78 2868.65,1306.03 2870.42,1307.28 2872.19,1308.53 2873.96,1309.79 2875.73,1311.04 
  2877.51,1312.29 2879.28,1313.54 2881.05,1314.79 2882.82,1316.04 2884.6,1317.29 2886.37,1318.55 2888.14,1319.8 2889.91,1321.05 2891.69,1322.3 2893.46,1323.55 
  2895.23,1324.8 2897,1326.05 2898.77,1327.31 2900.55,1328.56 2902.32,1329.81 2904.09,1331.06 2905.86,1332.31 2907.64,1333.56 2909.41,1334.81 2911.18,1336.07 
  2912.95,1337.32 2914.73,1338.57 2916.5,1339.82 2918.27,1341.07 2920.04,1342.32 2921.82,1343.57 2923.59,1344.83 2925.36,1346.08 2927.13,1347.33 2928.9,1348.58 
  2930.68,1349.83 2932.45,1351.08 2934.22,1352.33 2935.99,1353.58 2937.77,1354.84 2939.54,1356.09 2941.31,1357.34 2943.08,1358.59 2944.86,1359.84 2946.63,1361.09 
  2948.4,1362.34 2950.17,1363.6 2951.94,1364.85 2953.72,1366.1 2955.49,1367.35 2957.26,1368.6 2959.03,1369.85 2960.81,1371.1 2962.58,1372.36 2964.35,1373.61 
  2966.12,1374.79 2967.9,1375.98 2969.67,1377.17 2971.44,1378.35 2973.21,1379.54 2974.99,1380.72 2976.76,1381.91 2978.53,1383.1 2980.3,1384.28 2982.07,1385.47 
  2983.85,1386.66 2985.62,1387.84 2987.39,1389.03 2989.16,1390.21 2990.94,1391.4 2992.71,1392.59 2994.48,1393.77 2996.25,1394.96 2998.03,1396.14 2999.8,1397.33 
  3001.57,1398.52 3003.34,1399.7 3005.11,1400.89 3006.89,1402.08 3008.66,1403.26 3010.43,1404.45 3012.2,1405.63 3013.98,1406.82 3015.75,1408.01 3017.52,1409.19 
  3019.29,1410.38 3021.07,1411.57 3022.84,1412.75 3024.61,1413.94 3026.38,1415.12 3028.16,1416.31 3029.93,1417.5 3031.7,1418.68 3033.47,1419.87 3035.24,1421.06 
  3037.02,1422.24 3038.79,1423.43 3040.56,1424.61 3042.33,1425.8 3044.11,1426.99 3045.88,1428.17 3047.65,1429.36 3049.42,1430.54 3051.2,1431.73 3052.97,1432.92 
  3054.74,1434.1 3056.51,1435.29 3058.29,1436.48 3060.06,1437.66 3061.83,1438.85 3063.6,1440.03 3065.37,1441.22 3067.15,1442.41 3068.92,1443.59 3070.69,1444.78 
  3072.46,1446.04 3074.24,1447.31 3076.01,1448.57 3077.78,1449.83 3079.55,1451.1 3081.33,1452.36 3083.1,1453.62 3084.87,1454.89 3086.64,1456.15 3088.41,1457.41 
  3090.19,1458.68 3091.96,1459.94 3093.73,1461.2 3095.5,1462.47 3097.28,1463.73 3099.05,1465 3100.82,1466.26 3102.59,1467.52 3104.37,1468.79 3106.14,1470.05 
  3107.91,1471.31 3109.68,1472.58 3111.46,1473.84 3113.23,1475.1 3115,1476.37 3116.77,1477.63 3118.54,1478.89 3120.32,1480.16 3122.09,1481.42 3123.86,1482.68 
  3125.63,1483.95 3127.41,1485.21 3129.18,1486.47 3130.95,1487.74 3132.72,1489 3134.5,1490.26 3136.27,1491.53 3138.04,1492.79 3139.81,1494.06 3141.58,1495.32 
  3143.36,1496.58 3145.13,1497.85 3146.9,1499.11 3148.67,1500.37 3150.45,1501.64 3152.22,1502.9 3153.99,1504.16 3155.76,1505.43 3157.54,1506.69 3159.31,1507.95 
  3161.08,1509.22 3162.85,1510.48 3164.63,1511.74 3166.4,1513.01 3168.17,1514.27 3169.94,1515.53 3171.71,1516.8 3173.49,1518.06 3175.26,1519.33 3177.03,1520.59 
  
  "/>
<polyline clip-path="url(#clip8602)" style="stroke:#008000; stroke-width:4; stroke-opacity:1; fill:none" points="
  626.64,1616.72 628.412,1616.72 630.185,1616.72 631.957,1616.72 633.729,1616.72 635.502,1616.72 637.274,1616.72 639.046,1616.72 640.819,1616.72 642.591,1616.72 
  644.363,1616.72 646.136,1616.72 647.908,1616.72 649.68,1616.72 651.453,1616.72 653.225,1616.72 654.997,1616.72 656.77,1616.72 658.542,1616.72 660.314,1616.72 
  662.087,1616.72 663.859,1616.72 665.631,1616.72 667.404,1616.72 669.176,1616.72 670.948,1616.72 672.721,1616.72 674.493,1616.72 676.266,1616.72 678.038,1616.72 
  679.81,1616.72 681.583,1616.72 683.355,1616.72 685.127,1616.72 686.9,1616.72 688.672,1616.72 690.444,1616.72 692.217,1616.72 693.989,1616.72 695.761,1616.72 
  697.534,1616.72 699.306,1616.72 701.078,1616.72 702.851,1616.72 704.623,1616.72 706.395,1616.72 708.168,1616.72 709.94,1616.72 711.712,1616.72 713.485,1616.72 
  715.257,1616.72 717.029,1616.72 718.802,1616.72 720.574,1616.72 722.346,1616.72 724.119,1616.72 725.891,1616.72 727.663,1616.72 729.436,1616.72 731.208,1616.72 
  732.98,1616.65 734.753,1616.65 736.525,1616.65 738.297,1616.65 740.07,1616.65 741.842,1616.65 743.614,1616.65 745.387,1616.65 747.159,1616.65 748.931,1616.65 
  750.704,1616.65 752.476,1616.65 754.248,1616.65 756.021,1616.65 757.793,1616.65 759.565,1616.65 761.338,1616.65 763.11,1616.65 764.882,1616.65 766.655,1616.65 
  768.427,1616.65 770.199,1616.65 771.972,1616.65 773.744,1616.65 775.516,1616.65 777.289,1616.65 779.061,1616.65 780.833,1616.65 782.606,1616.65 784.378,1616.65 
  786.15,1616.65 787.923,1616.65 789.695,1616.65 791.467,1616.65 793.24,1616.65 795.012,1616.65 796.784,1616.65 798.557,1616.65 800.329,1616.65 802.101,1616.65 
  803.874,1616.65 805.646,1616.65 807.418,1616.65 809.191,1616.65 810.963,1616.65 812.735,1616.65 814.508,1616.65 816.28,1616.65 818.052,1616.65 819.825,1616.65 
  821.597,1616.65 823.369,1616.65 825.142,1616.65 826.914,1616.65 828.686,1616.65 830.459,1616.65 832.231,1616.65 834.003,1616.65 835.776,1616.65 837.548,1616.65 
  839.32,1617.37 841.093,1617.37 842.865,1617.37 844.637,1617.37 846.41,1617.37 848.182,1617.37 849.954,1617.37 851.727,1617.37 853.499,1617.37 855.271,1617.37 
  857.044,1617.37 858.816,1617.37 860.588,1617.37 862.361,1617.37 864.133,1617.37 865.905,1617.37 867.678,1617.37 869.45,1617.37 871.222,1617.37 872.995,1617.37 
  874.767,1617.37 876.539,1617.37 878.312,1617.37 880.084,1617.37 881.856,1617.37 883.629,1617.37 885.401,1617.37 887.173,1617.37 888.946,1617.37 890.718,1617.37 
  892.49,1617.37 894.263,1617.37 896.035,1617.37 897.808,1617.37 899.58,1617.37 901.352,1617.37 903.125,1617.37 904.897,1617.37 906.669,1617.37 908.442,1617.37 
  910.214,1617.37 911.986,1617.37 913.759,1617.37 915.531,1617.37 917.303,1617.37 919.076,1617.37 920.848,1617.37 922.62,1617.37 924.393,1617.37 926.165,1617.37 
  927.937,1617.37 929.71,1617.37 931.482,1617.37 933.254,1617.37 935.027,1617.37 936.799,1617.37 938.571,1617.37 940.344,1617.37 942.116,1617.37 943.888,1617.37 
  945.661,1621.87 947.433,1621.87 949.205,1621.87 950.978,1621.87 952.75,1621.87 954.522,1621.87 956.295,1621.87 958.067,1621.87 959.839,1621.87 961.612,1621.87 
  963.384,1621.87 965.156,1621.87 966.929,1621.87 968.701,1621.87 970.473,1621.87 972.246,1621.87 974.018,1621.87 975.79,1621.87 977.563,1621.87 979.335,1621.87 
  981.107,1621.87 982.88,1621.87 984.652,1621.87 986.424,1621.87 988.197,1621.87 989.969,1621.87 991.741,1621.87 993.514,1621.87 995.286,1621.87 997.058,1621.87 
  998.831,1621.87 1000.6,1621.87 1002.38,1621.87 1004.15,1621.87 1005.92,1621.87 1007.69,1621.87 1009.46,1621.87 1011.24,1621.87 1013.01,1621.87 1014.78,1621.87 
  1016.55,1621.87 1018.33,1621.87 1020.1,1621.87 1021.87,1621.87 1023.64,1621.87 1025.42,1621.87 1027.19,1621.87 1028.96,1621.87 1030.73,1621.87 1032.51,1621.87 
  1034.28,1621.87 1036.05,1621.87 1037.82,1621.87 1039.59,1621.87 1041.37,1621.87 1043.14,1621.87 1044.91,1621.87 1046.68,1621.87 1048.46,1621.87 1050.23,1621.87 
  1052,1618.12 1053.77,1618.12 1055.55,1618.12 1057.32,1618.12 1059.09,1618.12 1060.86,1618.12 1062.63,1618.12 1064.41,1618.12 1066.18,1618.12 1067.95,1618.12 
  1069.72,1618.12 1071.5,1618.12 1073.27,1618.12 1075.04,1618.12 1076.81,1618.12 1078.59,1618.12 1080.36,1618.12 1082.13,1618.12 1083.9,1618.12 1085.68,1618.12 
  1087.45,1618.12 1089.22,1618.12 1090.99,1618.12 1092.76,1618.12 1094.54,1618.12 1096.31,1618.12 1098.08,1618.12 1099.85,1618.12 1101.63,1618.12 1103.4,1618.12 
  1105.17,1618.12 1106.94,1618.12 1108.72,1618.12 1110.49,1618.12 1112.26,1618.12 1114.03,1618.12 1115.8,1618.12 1117.58,1618.12 1119.35,1618.12 1121.12,1618.12 
  1122.89,1618.12 1124.67,1618.12 1126.44,1618.12 1128.21,1618.12 1129.98,1618.12 1131.76,1618.12 1133.53,1618.12 1135.3,1618.12 1137.07,1618.12 1138.85,1618.12 
  1140.62,1618.12 1142.39,1618.12 1144.16,1618.12 1145.93,1618.12 1147.71,1618.12 1149.48,1618.12 1151.25,1618.12 1153.02,1618.12 1154.8,1618.12 1156.57,1618.12 
  1158.34,1616.68 1160.11,1616.68 1161.89,1616.68 1163.66,1616.68 1165.43,1616.68 1167.2,1616.68 1168.97,1616.68 1170.75,1616.68 1172.52,1616.68 1174.29,1616.68 
  1176.06,1616.68 1177.84,1616.68 1179.61,1616.68 1181.38,1616.68 1183.15,1616.68 1184.93,1616.68 1186.7,1616.68 1188.47,1616.68 1190.24,1616.68 1192.02,1616.68 
  1193.79,1616.68 1195.56,1616.68 1197.33,1616.68 1199.1,1616.68 1200.88,1616.68 1202.65,1616.68 1204.42,1616.68 1206.19,1616.68 1207.97,1616.68 1209.74,1616.68 
  1211.51,1616.68 1213.28,1616.68 1215.06,1616.68 1216.83,1616.68 1218.6,1616.68 1220.37,1616.68 1222.14,1616.68 1223.92,1616.68 1225.69,1616.68 1227.46,1616.68 
  1229.23,1616.68 1231.01,1616.68 1232.78,1616.68 1234.55,1616.68 1236.32,1616.68 1238.1,1616.68 1239.87,1616.68 1241.64,1616.68 1243.41,1616.68 1245.19,1616.68 
  1246.96,1616.68 1248.73,1616.68 1250.5,1616.68 1252.27,1616.68 1254.05,1616.68 1255.82,1616.68 1257.59,1616.68 1259.36,1616.68 1261.14,1616.68 1262.91,1616.68 
  1264.68,1495.85 1266.45,1495.85 1268.23,1495.85 1270,1495.85 1271.77,1495.85 1273.54,1495.85 1275.32,1495.85 1277.09,1495.85 1278.86,1495.85 1280.63,1495.85 
  1282.4,1495.85 1284.18,1495.85 1285.95,1495.85 1287.72,1495.85 1289.49,1495.85 1291.27,1495.85 1293.04,1495.85 1294.81,1495.85 1296.58,1495.85 1298.36,1495.85 
  1300.13,1495.85 1301.9,1495.85 1303.67,1495.85 1305.44,1495.85 1307.22,1495.85 1308.99,1495.85 1310.76,1495.85 1312.53,1495.85 1314.31,1495.85 1316.08,1495.85 
  1317.85,1495.85 1319.62,1495.85 1321.4,1495.85 1323.17,1495.85 1324.94,1495.85 1326.71,1495.85 1328.49,1495.85 1330.26,1495.85 1332.03,1495.85 1333.8,1495.85 
  1335.57,1495.85 1337.35,1495.85 1339.12,1495.85 1340.89,1495.85 1342.66,1495.85 1344.44,1495.85 1346.21,1495.85 1347.98,1495.85 1349.75,1495.85 1351.53,1495.85 
  1353.3,1495.85 1355.07,1495.85 1356.84,1495.85 1358.61,1495.85 1360.39,1495.85 1362.16,1495.85 1363.93,1495.85 1365.7,1495.85 1367.48,1495.85 1369.25,1495.85 
  1371.02,1165.52 1372.79,1165.52 1374.57,1165.52 1376.34,1165.52 1378.11,1165.52 1379.88,1165.52 1381.66,1165.52 1383.43,1165.52 1385.2,1165.52 1386.97,1165.52 
  1388.74,1165.52 1390.52,1165.52 1392.29,1165.52 1394.06,1165.52 1395.83,1165.52 1397.61,1165.52 1399.38,1165.52 1401.15,1165.52 1402.92,1165.52 1404.7,1165.52 
  1406.47,1165.52 1408.24,1165.52 1410.01,1165.52 1411.78,1165.52 1413.56,1165.52 1415.33,1165.52 1417.1,1165.52 1418.87,1165.52 1420.65,1165.52 1422.42,1165.52 
  1424.19,1165.52 1425.96,1165.52 1427.74,1165.52 1429.51,1165.52 1431.28,1165.52 1433.05,1165.52 1434.83,1165.52 1436.6,1165.52 1438.37,1165.52 1440.14,1165.52 
  1441.91,1165.52 1443.69,1165.52 1445.46,1165.52 1447.23,1165.52 1449,1165.52 1450.78,1165.52 1452.55,1165.52 1454.32,1165.52 1456.09,1165.52 1457.87,1165.52 
  1459.64,1165.52 1461.41,1165.52 1463.18,1165.52 1464.96,1165.52 1466.73,1165.52 1468.5,1165.52 1470.27,1165.52 1472.04,1165.52 1473.82,1165.52 1475.59,1165.52 
  1477.36,807.515 1479.13,807.515 1480.91,807.515 1482.68,807.515 1484.45,807.515 1486.22,807.515 1488,807.515 1489.77,807.515 1491.54,807.515 1493.31,807.515 
  1495.08,807.515 1496.86,807.515 1498.63,807.515 1500.4,807.515 1502.17,807.515 1503.95,807.515 1505.72,807.515 1507.49,807.515 1509.26,807.515 1511.04,807.515 
  1512.81,807.515 1514.58,807.515 1516.35,807.515 1518.13,807.515 1519.9,807.515 1521.67,807.515 1523.44,807.515 1525.21,807.515 1526.99,807.515 1528.76,807.515 
  1530.53,807.515 1532.3,807.515 1534.08,807.515 1535.85,807.515 1537.62,807.515 1539.39,807.515 1541.17,807.515 1542.94,807.515 1544.71,807.515 1546.48,807.515 
  1548.25,807.515 1550.03,807.515 1551.8,807.515 1553.57,807.515 1555.34,807.515 1557.12,807.515 1558.89,807.515 1560.66,807.515 1562.43,807.515 1564.21,807.515 
  1565.98,807.515 1567.75,807.515 1569.52,807.515 1571.3,807.515 1573.07,807.515 1574.84,807.515 1576.61,807.515 1578.38,807.515 1580.16,807.515 1581.93,807.515 
  1583.7,543.014 1585.47,543.014 1587.25,543.014 1589.02,543.014 1590.79,543.014 1592.56,543.014 1594.34,543.014 1596.11,543.014 1597.88,543.014 1599.65,543.014 
  1601.42,543.014 1603.2,543.014 1604.97,543.014 1606.74,543.014 1608.51,543.014 1610.29,543.014 1612.06,543.014 1613.83,543.014 1615.6,543.014 1617.38,543.014 
  1619.15,543.014 1620.92,543.014 1622.69,543.014 1624.47,543.014 1626.24,543.014 1628.01,543.014 1629.78,543.014 1631.55,543.014 1633.33,543.014 1635.1,543.014 
  1636.87,543.014 1638.64,543.014 1640.42,543.014 1642.19,543.014 1643.96,543.014 1645.73,543.014 1647.51,543.014 1649.28,543.014 1651.05,543.014 1652.82,543.014 
  1654.59,543.014 1656.37,543.014 1658.14,543.014 1659.91,543.014 1661.68,543.014 1663.46,543.014 1665.23,543.014 1667,543.014 1668.77,543.014 1670.55,543.014 
  1672.32,543.014 1674.09,543.014 1675.86,543.014 1677.64,543.014 1679.41,543.014 1681.18,543.014 1682.95,543.014 1684.72,543.014 1686.5,543.014 1688.27,543.014 
  1690.04,461.281 1691.81,461.281 1693.59,461.281 1695.36,461.281 1697.13,461.281 1698.9,461.281 1700.68,461.281 1702.45,461.281 1704.22,461.281 1705.99,461.281 
  1707.77,461.281 1709.54,461.281 1711.31,461.281 1713.08,461.281 1714.85,461.281 1716.63,461.281 1718.4,461.281 1720.17,461.281 1721.94,461.281 1723.72,461.281 
  1725.49,461.281 1727.26,461.281 1729.03,461.281 1730.81,461.281 1732.58,461.281 1734.35,461.281 1736.12,461.281 1737.89,461.281 1739.67,461.281 1741.44,461.281 
  1743.21,461.281 1744.98,461.281 1746.76,461.281 1748.53,461.281 1750.3,461.281 1752.07,461.281 1753.85,461.281 1755.62,461.281 1757.39,461.281 1759.16,461.281 
  1760.94,461.281 1762.71,461.281 1764.48,461.281 1766.25,461.281 1768.02,461.281 1769.8,461.281 1771.57,461.281 1773.34,461.281 1775.11,461.281 1776.89,461.281 
  1778.66,461.281 1780.43,461.281 1782.2,461.281 1783.98,461.281 1785.75,461.281 1787.52,461.281 1789.29,461.281 1791.06,461.281 1792.84,461.281 1794.61,461.281 
  1796.38,462.483 1798.15,462.483 1799.93,462.483 1801.7,462.483 1803.47,462.483 1805.24,462.483 1807.02,462.483 1808.79,462.483 1810.56,462.483 1812.33,462.483 
  1814.11,462.483 1815.88,462.483 1817.65,462.483 1819.42,462.483 1821.19,462.483 1822.97,462.483 1824.74,462.483 1826.51,462.483 1828.28,462.483 1830.06,462.483 
  1831.83,462.483 1833.6,462.483 1835.37,462.483 1837.15,462.483 1838.92,462.483 1840.69,462.483 1842.46,462.483 1844.23,462.483 1846.01,462.483 1847.78,462.483 
  1849.55,462.483 1851.32,462.483 1853.1,462.483 1854.87,462.483 1856.64,462.483 1858.41,462.483 1860.19,462.483 1861.96,462.483 1863.73,462.483 1865.5,462.483 
  1867.28,462.483 1869.05,462.483 1870.82,462.483 1872.59,462.483 1874.36,462.483 1876.14,462.483 1877.91,462.483 1879.68,462.483 1881.45,462.483 1883.23,462.483 
  1885,462.483 1886.77,462.483 1888.54,462.483 1890.32,462.483 1892.09,462.483 1893.86,462.483 1895.63,462.483 1897.4,462.483 1899.18,462.483 1900.95,462.483 
  1902.72,479.592 1904.49,479.592 1906.27,479.592 1908.04,479.592 1909.81,479.592 1911.58,479.592 1913.36,479.592 1915.13,479.592 1916.9,479.592 1918.67,479.592 
  1920.45,479.592 1922.22,479.592 1923.99,479.592 1925.76,479.592 1927.53,479.592 1929.31,479.592 1931.08,479.592 1932.85,479.592 1934.62,479.592 1936.4,479.592 
  1938.17,479.592 1939.94,479.592 1941.71,479.592 1943.49,479.592 1945.26,479.592 1947.03,479.592 1948.8,479.592 1950.58,479.592 1952.35,479.592 1954.12,479.592 
  1955.89,479.592 1957.66,479.592 1959.44,479.592 1961.21,479.592 1962.98,479.592 1964.75,479.592 1966.53,479.592 1968.3,479.592 1970.07,479.592 1971.84,479.592 
  1973.62,479.592 1975.39,479.592 1977.16,479.592 1978.93,479.592 1980.7,479.592 1982.48,479.592 1984.25,479.592 1986.02,479.592 1987.79,479.592 1989.57,479.592 
  1991.34,479.592 1993.11,479.592 1994.88,479.592 1996.66,479.592 1998.43,479.592 2000.2,479.592 2001.97,479.592 2003.75,479.592 2005.52,479.592 2007.29,479.592 
  2009.06,567.461 2010.83,567.461 2012.61,567.461 2014.38,567.461 2016.15,567.461 2017.92,567.461 2019.7,567.461 2021.47,567.461 2023.24,567.461 2025.01,567.461 
  2026.79,567.461 2028.56,567.461 2030.33,567.461 2032.1,567.461 2033.87,567.461 2035.65,567.461 2037.42,567.461 2039.19,567.461 2040.96,567.461 2042.74,567.461 
  2044.51,567.461 2046.28,567.461 2048.05,567.461 2049.83,567.461 2051.6,567.461 2053.37,567.461 2055.14,567.461 2056.92,567.461 2058.69,567.461 2060.46,567.461 
  2062.23,567.461 2064,567.461 2065.78,567.461 2067.55,567.461 2069.32,567.461 2071.09,567.461 2072.87,567.461 2074.64,567.461 2076.41,567.461 2078.18,567.461 
  2079.96,567.461 2081.73,567.461 2083.5,567.461 2085.27,567.461 2087.04,567.461 2088.82,567.461 2090.59,567.461 2092.36,567.461 2094.13,567.461 2095.91,567.461 
  2097.68,567.461 2099.45,567.461 2101.22,567.461 2103,567.461 2104.77,567.461 2106.54,567.461 2108.31,567.461 2110.09,567.461 2111.86,567.461 2113.63,567.461 
  2115.4,618.698 2117.17,618.698 2118.95,618.698 2120.72,618.698 2122.49,618.698 2124.26,618.698 2126.04,618.698 2127.81,618.698 2129.58,618.698 2131.35,618.698 
  2133.13,618.698 2134.9,618.698 2136.67,618.698 2138.44,618.698 2140.22,618.698 2141.99,618.698 2143.76,618.698 2145.53,618.698 2147.3,618.698 2149.08,618.698 
  2150.85,618.698 2152.62,618.698 2154.39,618.698 2156.17,618.698 2157.94,618.698 2159.71,618.698 2161.48,618.698 2163.26,618.698 2165.03,618.698 2166.8,618.698 
  2168.57,618.698 2170.34,618.698 2172.12,618.698 2173.89,618.698 2175.66,618.698 2177.43,618.698 2179.21,618.698 2180.98,618.698 2182.75,618.698 2184.52,618.698 
  2186.3,618.698 2188.07,618.698 2189.84,618.698 2191.61,618.698 2193.39,618.698 2195.16,618.698 2196.93,618.698 2198.7,618.698 2200.47,618.698 2202.25,618.698 
  2204.02,618.698 2205.79,618.698 2207.56,618.698 2209.34,618.698 2211.11,618.698 2212.88,618.698 2214.65,618.698 2216.43,618.698 2218.2,618.698 2219.97,618.698 
  2221.74,645.454 2223.51,645.454 2225.29,645.454 2227.06,645.454 2228.83,645.454 2230.6,645.454 2232.38,645.454 2234.15,645.454 2235.92,645.454 2237.69,645.454 
  2239.47,645.454 2241.24,645.454 2243.01,645.454 2244.78,645.454 2246.56,645.454 2248.33,645.454 2250.1,645.454 2251.87,645.454 2253.64,645.454 2255.42,645.454 
  2257.19,645.454 2258.96,645.454 2260.73,645.454 2262.51,645.454 2264.28,645.454 2266.05,645.454 2267.82,645.454 2269.6,645.454 2271.37,645.454 2273.14,645.454 
  2274.91,645.454 2276.68,645.454 2278.46,645.454 2280.23,645.454 2282,645.454 2283.77,645.454 2285.55,645.454 2287.32,645.454 2289.09,645.454 2290.86,645.454 
  2292.64,645.454 2294.41,645.454 2296.18,645.454 2297.95,645.454 2299.73,645.454 2301.5,645.454 2303.27,645.454 2305.04,645.454 2306.81,645.454 2308.59,645.454 
  2310.36,645.454 2312.13,645.454 2313.9,645.454 2315.68,645.454 2317.45,645.454 2319.22,645.454 2320.99,645.454 2322.77,645.454 2324.54,645.454 2326.31,645.454 
  2328.08,720.038 2329.85,720.038 2331.63,720.038 2333.4,720.038 2335.17,720.038 2336.94,720.038 2338.72,720.038 2340.49,720.038 2342.26,720.038 2344.03,720.038 
  2345.81,720.038 2347.58,720.038 2349.35,720.038 2351.12,720.038 2352.9,720.038 2354.67,720.038 2356.44,720.038 2358.21,720.038 2359.98,720.038 2361.76,720.038 
  2363.53,720.038 2365.3,720.038 2367.07,720.038 2368.85,720.038 2370.62,720.038 2372.39,720.038 2374.16,720.038 2375.94,720.038 2377.71,720.038 2379.48,720.038 
  2381.25,720.038 2383.03,720.038 2384.8,720.038 2386.57,720.038 2388.34,720.038 2390.11,720.038 2391.89,720.038 2393.66,720.038 2395.43,720.038 2397.2,720.038 
  2398.98,720.038 2400.75,720.038 2402.52,720.038 2404.29,720.038 2406.07,720.038 2407.84,720.038 2409.61,720.038 2411.38,720.038 2413.15,720.038 2414.93,720.038 
  2416.7,720.038 2418.47,720.038 2420.24,720.038 2422.02,720.038 2423.79,720.038 2425.56,720.038 2427.33,720.038 2429.11,720.038 2430.88,720.038 2432.65,720.038 
  2434.42,949.739 2436.2,949.739 2437.97,949.739 2439.74,949.739 2441.51,949.739 2443.28,949.739 2445.06,949.739 2446.83,949.739 2448.6,949.739 2450.37,949.739 
  2452.15,949.739 2453.92,949.739 2455.69,949.739 2457.46,949.739 2459.24,949.739 2461.01,949.739 2462.78,949.739 2464.55,949.739 2466.32,949.739 2468.1,949.739 
  2469.87,949.739 2471.64,949.739 2473.41,949.739 2475.19,949.739 2476.96,949.739 2478.73,949.739 2480.5,949.739 2482.28,949.739 2484.05,949.739 2485.82,949.739 
  2487.59,949.739 2489.37,949.739 2491.14,949.739 2492.91,949.739 2494.68,949.739 2496.45,949.739 2498.23,949.739 2500,949.739 2501.77,949.739 2503.54,949.739 
  2505.32,949.739 2507.09,949.739 2508.86,949.739 2510.63,949.739 2512.41,949.739 2514.18,949.739 2515.95,949.739 2517.72,949.739 2519.49,949.739 2521.27,949.739 
  2523.04,949.739 2524.81,949.739 2526.58,949.739 2528.36,949.739 2530.13,949.739 2531.9,949.739 2533.67,949.739 2535.45,949.739 2537.22,949.739 2538.99,949.739 
  2540.76,1125.15 2542.54,1125.15 2544.31,1125.15 2546.08,1125.15 2547.85,1125.15 2549.62,1125.15 2551.4,1125.15 2553.17,1125.15 2554.94,1125.15 2556.71,1125.15 
  2558.49,1125.15 2560.26,1125.15 2562.03,1125.15 2563.8,1125.15 2565.58,1125.15 2567.35,1125.15 2569.12,1125.15 2570.89,1125.15 2572.66,1125.15 2574.44,1125.15 
  2576.21,1125.15 2577.98,1125.15 2579.75,1125.15 2581.53,1125.15 2583.3,1125.15 2585.07,1125.15 2586.84,1125.15 2588.62,1125.15 2590.39,1125.15 2592.16,1125.15 
  2593.93,1125.15 2595.71,1125.15 2597.48,1125.15 2599.25,1125.15 2601.02,1125.15 2602.79,1125.15 2604.57,1125.15 2606.34,1125.15 2608.11,1125.15 2609.88,1125.15 
  2611.66,1125.15 2613.43,1125.15 2615.2,1125.15 2616.97,1125.15 2618.75,1125.15 2620.52,1125.15 2622.29,1125.15 2624.06,1125.15 2625.84,1125.15 2627.61,1125.15 
  2629.38,1125.15 2631.15,1125.15 2632.92,1125.15 2634.7,1125.15 2636.47,1125.15 2638.24,1125.15 2640.01,1125.15 2641.79,1125.15 2643.56,1125.15 2645.33,1125.15 
  2647.1,1232.02 2648.88,1232.02 2650.65,1232.02 2652.42,1232.02 2654.19,1232.02 2655.96,1232.02 2657.74,1232.02 2659.51,1232.02 2661.28,1232.02 2663.05,1232.02 
  2664.83,1232.02 2666.6,1232.02 2668.37,1232.02 2670.14,1232.02 2671.92,1232.02 2673.69,1232.02 2675.46,1232.02 2677.23,1232.02 2679.01,1232.02 2680.78,1232.02 
  2682.55,1232.02 2684.32,1232.02 2686.09,1232.02 2687.87,1232.02 2689.64,1232.02 2691.41,1232.02 2693.18,1232.02 2694.96,1232.02 2696.73,1232.02 2698.5,1232.02 
  2700.27,1232.02 2702.05,1232.02 2703.82,1232.02 2705.59,1232.02 2707.36,1232.02 2709.13,1232.02 2710.91,1232.02 2712.68,1232.02 2714.45,1232.02 2716.22,1232.02 
  2718,1232.02 2719.77,1232.02 2721.54,1232.02 2723.31,1232.02 2725.09,1232.02 2726.86,1232.02 2728.63,1232.02 2730.4,1232.02 2732.18,1232.02 2733.95,1232.02 
  2735.72,1232.02 2737.49,1232.02 2739.26,1232.02 2741.04,1232.02 2742.81,1232.02 2744.58,1232.02 2746.35,1232.02 2748.13,1232.02 2749.9,1232.02 2751.67,1232.02 
  2753.44,1279.31 2755.22,1279.31 2756.99,1279.31 2758.76,1279.31 2760.53,1279.31 2762.3,1279.31 2764.08,1279.31 2765.85,1279.31 2767.62,1279.31 2769.39,1279.31 
  2771.17,1279.31 2772.94,1279.31 2774.71,1279.31 2776.48,1279.31 2778.26,1279.31 2780.03,1279.31 2781.8,1279.31 2783.57,1279.31 2785.35,1279.31 2787.12,1279.31 
  2788.89,1279.31 2790.66,1279.31 2792.43,1279.31 2794.21,1279.31 2795.98,1279.31 2797.75,1279.31 2799.52,1279.31 2801.3,1279.31 2803.07,1279.31 2804.84,1279.31 
  2806.61,1279.31 2808.39,1279.31 2810.16,1279.31 2811.93,1279.31 2813.7,1279.31 2815.48,1279.31 2817.25,1279.31 2819.02,1279.31 2820.79,1279.31 2822.56,1279.31 
  2824.34,1279.31 2826.11,1279.31 2827.88,1279.31 2829.65,1279.31 2831.43,1279.31 2833.2,1279.31 2834.97,1279.31 2836.74,1279.31 2838.52,1279.31 2840.29,1279.31 
  2842.06,1279.31 2843.83,1279.31 2845.6,1279.31 2847.38,1279.31 2849.15,1279.31 2850.92,1279.31 2852.69,1279.31 2854.47,1279.31 2856.24,1279.31 2858.01,1279.31 
  2859.78,1332.59 2861.56,1332.59 2863.33,1332.59 2865.1,1332.59 2866.87,1332.59 2868.65,1332.59 2870.42,1332.59 2872.19,1332.59 2873.96,1332.59 2875.73,1332.59 
  2877.51,1332.59 2879.28,1332.59 2881.05,1332.59 2882.82,1332.59 2884.6,1332.59 2886.37,1332.59 2888.14,1332.59 2889.91,1332.59 2891.69,1332.59 2893.46,1332.59 
  2895.23,1332.59 2897,1332.59 2898.77,1332.59 2900.55,1332.59 2902.32,1332.59 2904.09,1332.59 2905.86,1332.59 2907.64,1332.59 2909.41,1332.59 2911.18,1332.59 
  2912.95,1332.59 2914.73,1332.59 2916.5,1332.59 2918.27,1332.59 2920.04,1332.59 2921.82,1332.59 2923.59,1332.59 2925.36,1332.59 2927.13,1332.59 2928.9,1332.59 
  2930.68,1332.59 2932.45,1332.59 2934.22,1332.59 2935.99,1332.59 2937.77,1332.59 2939.54,1332.59 2941.31,1332.59 2943.08,1332.59 2944.86,1332.59 2946.63,1332.59 
  2948.4,1332.59 2950.17,1332.59 2951.94,1332.59 2953.72,1332.59 2955.49,1332.59 2957.26,1332.59 2959.03,1332.59 2960.81,1332.59 2962.58,1332.59 2964.35,1332.59 
  2966.12,1401.79 2967.9,1401.79 2969.67,1401.79 2971.44,1401.79 2973.21,1401.79 2974.99,1401.79 2976.76,1401.79 2978.53,1401.79 2980.3,1401.79 2982.07,1401.79 
  2983.85,1401.79 2985.62,1401.79 2987.39,1401.79 2989.16,1401.79 2990.94,1401.79 2992.71,1401.79 2994.48,1401.79 2996.25,1401.79 2998.03,1401.79 2999.8,1401.79 
  3001.57,1401.79 3003.34,1401.79 3005.11,1401.79 3006.89,1401.79 3008.66,1401.79 3010.43,1401.79 3012.2,1401.79 3013.98,1401.79 3015.75,1401.79 3017.52,1401.79 
  3019.29,1401.79 3021.07,1401.79 3022.84,1401.79 3024.61,1401.79 3026.38,1401.79 3028.16,1401.79 3029.93,1401.79 3031.7,1401.79 3033.47,1401.79 3035.24,1401.79 
  3037.02,1401.79 3038.79,1401.79 3040.56,1401.79 3042.33,1401.79 3044.11,1401.79 3045.88,1401.79 3047.65,1401.79 3049.42,1401.79 3051.2,1401.79 3052.97,1401.79 
  3054.74,1401.79 3056.51,1401.79 3058.29,1401.79 3060.06,1401.79 3061.83,1401.79 3063.6,1401.79 3065.37,1401.79 3067.15,1401.79 3068.92,1401.79 3070.69,1401.79 
  3072.46,1442.52 3074.24,1442.52 3076.01,1442.52 3077.78,1442.52 3079.55,1442.52 3081.33,1442.52 3083.1,1442.52 3084.87,1442.52 3086.64,1442.52 3088.41,1442.52 
  3090.19,1442.52 3091.96,1442.52 3093.73,1442.52 3095.5,1442.52 3097.28,1442.52 3099.05,1442.52 3100.82,1442.52 3102.59,1442.52 3104.37,1442.52 3106.14,1442.52 
  3107.91,1442.52 3109.68,1442.52 3111.46,1442.52 3113.23,1442.52 3115,1442.52 3116.77,1442.52 3118.54,1442.52 3120.32,1442.52 3122.09,1442.52 3123.86,1442.52 
  3125.63,1442.52 3127.41,1442.52 3129.18,1442.52 3130.95,1442.52 3132.72,1442.52 3134.5,1442.52 3136.27,1442.52 3138.04,1442.52 3139.81,1442.52 3141.58,1442.52 
  3143.36,1442.52 3145.13,1442.52 3146.9,1442.52 3148.67,1442.52 3150.45,1442.52 3152.22,1442.52 3153.99,1442.52 3155.76,1442.52 3157.54,1442.52 3159.31,1442.52 
  3161.08,1442.52 3162.85,1442.52 3164.63,1442.52 3166.4,1442.52 3168.17,1442.52 3169.94,1442.52 3171.71,1442.52 3173.49,1442.52 3175.26,1442.52 3177.03,1442.52 
  
  "/>
<polygon clip-path="url(#clip8600)" points="
658.128,651.067 1459.47,651.067 1459.47,409.147 658.128,409.147 
  " fill="#ffffff" fill-rule="evenodd" fill-opacity="1"/>
<polyline clip-path="url(#clip8600)" style="stroke:#000000; stroke-width:4; stroke-opacity:1; fill:none" points="
  658.128,651.067 1459.47,651.067 1459.47,409.147 658.128,409.147 658.128,651.067 
  "/>
<polyline clip-path="url(#clip8600)" style="stroke:#009af9; stroke-width:4; stroke-opacity:1; fill:none" points="
  694.128,469.627 910.128,469.627 
  "/>
<g clip-path="url(#clip8600)">
<text style="fill:#000000; fill-opacity:1; font-family:Arial,Helvetica Neue,Helvetica,sans-serif; font-size:48px; text-anchor:start;" transform="rotate(0, 946.128, 487.127)" x="946.128" y="487.127">Arrival Rate</text>
</g>
<polyline clip-path="url(#clip8600)" style="stroke:#008000; stroke-width:4; stroke-opacity:1; fill:none" points="
  694.128,530.107 910.128,530.107 
  "/>
<g clip-path="url(#clip8600)">
<text style="fill:#000000; fill-opacity:1; font-family:Arial,Helvetica Neue,Helvetica,sans-serif; font-size:48px; text-anchor:start;" transform="rotate(0, 946.128, 547.607)" x="946.128" y="547.607">Service Completions</text>
</g>
<polyline clip-path="url(#clip8600)" style="stroke:#ff0000; stroke-width:4; stroke-opacity:1; fill:none" points="
  694.128,590.587 910.128,590.587 
  "/>
<g clip-path="url(#clip8600)">
<text style="fill:#000000; fill-opacity:1; font-family:Arial,Helvetica Neue,Helvetica,sans-serif; font-size:48px; text-anchor:start;" transform="rotate(0, 946.128, 608.087)" x="946.128" y="608.087">Number of Servers</text>
</g>
<g clip-path="url(#clip8600)">
<text style="fill:#000000; fill-opacity:1; font-family:Arial,Helvetica Neue,Helvetica,sans-serif; font-size:95px; text-anchor:middle;" transform="rotate(-90, 3530.55, 879.987)" x="3530.55" y="879.987">Number of Servers</text>
</g>
<polygon clip-path="url(#clip8600)" points="
550.128,1661.72 3253.54,1661.72 3253.54,253.627 550.128,253.627 
  " fill="#000000" fill-rule="evenodd" fill-opacity="0"/>
<polyline clip-path="url(#clip8602)" style="stroke:#000000; stroke-width:2; stroke-opacity:0.1; fill:none" points="
  624.868,1661.72 624.868,253.627 
  "/>
<polyline clip-path="url(#clip8602)" style="stroke:#000000; stroke-width:2; stroke-opacity:0.1; fill:none" points="
  1050.23,1661.72 1050.23,253.627 
  "/>
<polyline clip-path="url(#clip8602)" style="stroke:#000000; stroke-width:2; stroke-opacity:0.1; fill:none" points="
  1475.59,1661.72 1475.59,253.627 
  "/>
<polyline clip-path="url(#clip8602)" style="stroke:#000000; stroke-width:2; stroke-opacity:0.1; fill:none" points="
  1900.95,1661.72 1900.95,253.627 
  "/>
<polyline clip-path="url(#clip8602)" style="stroke:#000000; stroke-width:2; stroke-opacity:0.1; fill:none" points="
  2326.31,1661.72 2326.31,253.627 
  "/>
<polyline clip-path="url(#clip8602)" style="stroke:#000000; stroke-width:2; stroke-opacity:0.1; fill:none" points="
  2751.67,1661.72 2751.67,253.627 
  "/>
<polyline clip-path="url(#clip8602)" style="stroke:#000000; stroke-width:2; stroke-opacity:0.1; fill:none" points="
  3177.03,1661.72 3177.03,253.627 
  "/>
<polyline clip-path="url(#clip8602)" style="stroke:#000000; stroke-width:2; stroke-opacity:0.1; fill:none" points="
  550.128,1627.04 3253.54,1627.04 
  "/>
<polyline clip-path="url(#clip8602)" style="stroke:#000000; stroke-width:2; stroke-opacity:0.1; fill:none" points="
  550.128,1368.6 3253.54,1368.6 
  "/>
<polyline clip-path="url(#clip8602)" style="stroke:#000000; stroke-width:2; stroke-opacity:0.1; fill:none" points="
  550.128,1110.16 3253.54,1110.16 
  "/>
<polyline clip-path="url(#clip8602)" style="stroke:#000000; stroke-width:2; stroke-opacity:0.1; fill:none" points="
  550.128,851.713 3253.54,851.713 
  "/>
<polyline clip-path="url(#clip8602)" style="stroke:#000000; stroke-width:2; stroke-opacity:0.1; fill:none" points="
  550.128,593.271 3253.54,593.271 
  "/>
<polyline clip-path="url(#clip8602)" style="stroke:#000000; stroke-width:2; stroke-opacity:0.1; fill:none" points="
  550.128,334.829 3253.54,334.829 
  "/>
<polyline clip-path="url(#clip8600)" style="stroke:#000000; stroke-width:4; stroke-opacity:1; fill:none" points="
  550.128,1661.72 3253.54,1661.72 
  "/>
<polyline clip-path="url(#clip8600)" style="stroke:#000000; stroke-width:4; stroke-opacity:1; fill:none" points="
  3253.54,1661.72 3253.54,253.627 
  "/>
<polyline clip-path="url(#clip8600)" style="stroke:#000000; stroke-width:4; stroke-opacity:1; fill:none" points="
  624.868,1661.72 624.868,1640.6 
  "/>
<polyline clip-path="url(#clip8600)" style="stroke:#000000; stroke-width:4; stroke-opacity:1; fill:none" points="
  1050.23,1661.72 1050.23,1640.6 
  "/>
<polyline clip-path="url(#clip8600)" style="stroke:#000000; stroke-width:4; stroke-opacity:1; fill:none" points="
  1475.59,1661.72 1475.59,1640.6 
  "/>
<polyline clip-path="url(#clip8600)" style="stroke:#000000; stroke-width:4; stroke-opacity:1; fill:none" points="
  1900.95,1661.72 1900.95,1640.6 
  "/>
<polyline clip-path="url(#clip8600)" style="stroke:#000000; stroke-width:4; stroke-opacity:1; fill:none" points="
  2326.31,1661.72 2326.31,1640.6 
  "/>
<polyline clip-path="url(#clip8600)" style="stroke:#000000; stroke-width:4; stroke-opacity:1; fill:none" points="
  2751.67,1661.72 2751.67,1640.6 
  "/>
<polyline clip-path="url(#clip8600)" style="stroke:#000000; stroke-width:4; stroke-opacity:1; fill:none" points="
  3177.03,1661.72 3177.03,1640.6 
  "/>
<polyline clip-path="url(#clip8600)" style="stroke:#000000; stroke-width:4; stroke-opacity:1; fill:none" points="
  3253.54,1627.04 3212.99,1627.04 
  "/>
<polyline clip-path="url(#clip8600)" style="stroke:#000000; stroke-width:4; stroke-opacity:1; fill:none" points="
  3253.54,1368.6 3212.99,1368.6 
  "/>
<polyline clip-path="url(#clip8600)" style="stroke:#000000; stroke-width:4; stroke-opacity:1; fill:none" points="
  3253.54,1110.16 3212.99,1110.16 
  "/>
<polyline clip-path="url(#clip8600)" style="stroke:#000000; stroke-width:4; stroke-opacity:1; fill:none" points="
  3253.54,851.713 3212.99,851.713 
  "/>
<polyline clip-path="url(#clip8600)" style="stroke:#000000; stroke-width:4; stroke-opacity:1; fill:none" points="
  3253.54,593.271 3212.99,593.271 
  "/>
<polyline clip-path="url(#clip8600)" style="stroke:#000000; stroke-width:4; stroke-opacity:1; fill:none" points="
  3253.54,334.829 3212.99,334.829 
  "/>
<g clip-path="url(#clip8600)">
<text style="fill:#000000; fill-opacity:1; font-family:Arial,Helvetica Neue,Helvetica,sans-serif; font-size:71px; text-anchor:middle;" transform="rotate(0, 624.868, 1742.12)" x="624.868" y="1742.12">0</text>
</g>
<g clip-path="url(#clip8600)">
<text style="fill:#000000; fill-opacity:1; font-family:Arial,Helvetica Neue,Helvetica,sans-serif; font-size:71px; text-anchor:middle;" transform="rotate(0, 1050.23, 1742.12)" x="1050.23" y="1742.12">4</text>
</g>
<g clip-path="url(#clip8600)">
<text style="fill:#000000; fill-opacity:1; font-family:Arial,Helvetica Neue,Helvetica,sans-serif; font-size:71px; text-anchor:middle;" transform="rotate(0, 1475.59, 1742.12)" x="1475.59" y="1742.12">8</text>
</g>
<g clip-path="url(#clip8600)">
<text style="fill:#000000; fill-opacity:1; font-family:Arial,Helvetica Neue,Helvetica,sans-serif; font-size:71px; text-anchor:middle;" transform="rotate(0, 1900.95, 1742.12)" x="1900.95" y="1742.12">12</text>
</g>
<g clip-path="url(#clip8600)">
<text style="fill:#000000; fill-opacity:1; font-family:Arial,Helvetica Neue,Helvetica,sans-serif; font-size:71px; text-anchor:middle;" transform="rotate(0, 2326.31, 1742.12)" x="2326.31" y="1742.12">16</text>
</g>
<g clip-path="url(#clip8600)">
<text style="fill:#000000; fill-opacity:1; font-family:Arial,Helvetica Neue,Helvetica,sans-serif; font-size:71px; text-anchor:middle;" transform="rotate(0, 2751.67, 1742.12)" x="2751.67" y="1742.12">20</text>
</g>
<g clip-path="url(#clip8600)">
<text style="fill:#000000; fill-opacity:1; font-family:Arial,Helvetica Neue,Helvetica,sans-serif; font-size:71px; text-anchor:middle;" transform="rotate(0, 3177.03, 1742.12)" x="3177.03" y="1742.12">24</text>
</g>
<g clip-path="url(#clip8600)">
<text style="fill:#000000; fill-opacity:1; font-family:Arial,Helvetica Neue,Helvetica,sans-serif; font-size:71px; text-anchor:start;" transform="rotate(0, 3289.54, 1653.04)" x="3289.54" y="1653.04">0</text>
</g>
<g clip-path="url(#clip8600)">
<text style="fill:#000000; fill-opacity:1; font-family:Arial,Helvetica Neue,Helvetica,sans-serif; font-size:71px; text-anchor:start;" transform="rotate(0, 3289.54, 1394.6)" x="3289.54" y="1394.6">50</text>
</g>
<g clip-path="url(#clip8600)">
<text style="fill:#000000; fill-opacity:1; font-family:Arial,Helvetica Neue,Helvetica,sans-serif; font-size:71px; text-anchor:start;" transform="rotate(0, 3289.54, 1136.16)" x="3289.54" y="1136.16">100</text>
</g>
<g clip-path="url(#clip8600)">
<text style="fill:#000000; fill-opacity:1; font-family:Arial,Helvetica Neue,Helvetica,sans-serif; font-size:71px; text-anchor:start;" transform="rotate(0, 3289.54, 877.713)" x="3289.54" y="877.713">150</text>
</g>
<g clip-path="url(#clip8600)">
<text style="fill:#000000; fill-opacity:1; font-family:Arial,Helvetica Neue,Helvetica,sans-serif; font-size:71px; text-anchor:start;" transform="rotate(0, 3289.54, 619.271)" x="3289.54" y="619.271">200</text>
</g>
<g clip-path="url(#clip8600)">
<text style="fill:#000000; fill-opacity:1; font-family:Arial,Helvetica Neue,Helvetica,sans-serif; font-size:71px; text-anchor:start;" transform="rotate(0, 3289.54, 360.829)" x="3289.54" y="360.829">250</text>
</g>
<polyline clip-path="url(#clip8602)" style="stroke:#ff0000; stroke-width:4; stroke-opacity:1; fill:none" points="
  626.64,1616.7 628.412,1616.7 630.185,1616.7 631.957,1616.7 633.729,1616.7 635.502,1616.7 637.274,1616.7 639.046,1616.7 640.819,1616.7 642.591,1616.7 
  644.363,1616.7 646.136,1616.7 647.908,1616.7 649.68,1616.7 651.453,1616.7 653.225,1616.7 654.997,1616.7 656.77,1616.7 658.542,1616.7 660.314,1616.7 
  662.087,1616.7 663.859,1616.7 665.631,1616.7 667.404,1616.7 669.176,1616.7 670.948,1616.7 672.721,1616.7 674.493,1616.7 676.266,1616.7 678.038,1616.7 
  679.81,1616.7 681.583,1616.7 683.355,1616.7 685.127,1616.7 686.9,1616.7 688.672,1616.7 690.444,1616.7 692.217,1616.7 693.989,1616.7 695.761,1616.7 
  697.534,1616.7 699.306,1616.7 701.078,1616.7 702.851,1616.7 704.623,1616.7 706.395,1616.7 708.168,1616.7 709.94,1616.7 711.712,1616.7 713.485,1616.7 
  715.257,1616.7 717.029,1616.7 718.802,1616.7 720.574,1616.7 722.346,1616.7 724.119,1616.7 725.891,1616.7 727.663,1616.7 729.436,1616.7 731.208,1616.7 
  732.98,1616.7 734.753,1616.7 736.525,1616.7 738.297,1616.7 740.07,1616.7 741.842,1616.7 743.614,1616.7 745.387,1616.7 747.159,1616.7 748.931,1616.7 
  750.704,1616.7 752.476,1616.7 754.248,1616.7 756.021,1616.7 757.793,1616.7 759.565,1616.7 761.338,1616.7 763.11,1616.7 764.882,1616.7 766.655,1616.7 
  768.427,1616.7 770.199,1616.7 771.972,1616.7 773.744,1616.7 775.516,1616.7 777.289,1616.7 779.061,1616.7 780.833,1616.7 782.606,1616.7 784.378,1616.7 
  786.15,1616.7 787.923,1616.7 789.695,1616.7 791.467,1616.7 793.24,1616.7 795.012,1616.7 796.784,1616.7 798.557,1616.7 800.329,1616.7 802.101,1616.7 
  803.874,1616.7 805.646,1616.7 807.418,1616.7 809.191,1616.7 810.963,1616.7 812.735,1616.7 814.508,1616.7 816.28,1616.7 818.052,1616.7 819.825,1616.7 
  821.597,1616.7 823.369,1616.7 825.142,1616.7 826.914,1616.7 828.686,1616.7 830.459,1616.7 832.231,1616.7 834.003,1616.7 835.776,1616.7 837.548,1616.7 
  839.32,1616.7 841.093,1616.7 842.865,1616.7 844.637,1616.7 846.41,1616.7 848.182,1616.7 849.954,1616.7 851.727,1616.7 853.499,1616.7 855.271,1616.7 
  857.044,1616.7 858.816,1616.7 860.588,1616.7 862.361,1616.7 864.133,1616.7 865.905,1616.7 867.678,1616.7 869.45,1616.7 871.222,1616.7 872.995,1616.7 
  874.767,1616.7 876.539,1616.7 878.312,1616.7 880.084,1616.7 881.856,1616.7 883.629,1616.7 885.401,1616.7 887.173,1616.7 888.946,1616.7 890.718,1616.7 
  892.49,1616.7 894.263,1616.7 896.035,1616.7 897.808,1616.7 899.58,1616.7 901.352,1616.7 903.125,1616.7 904.897,1616.7 906.669,1616.7 908.442,1616.7 
  910.214,1616.7 911.986,1616.7 913.759,1616.7 915.531,1616.7 917.303,1616.7 919.076,1616.7 920.848,1616.7 922.62,1616.7 924.393,1616.7 926.165,1616.7 
  927.937,1616.7 929.71,1616.7 931.482,1616.7 933.254,1616.7 935.027,1616.7 936.799,1616.7 938.571,1616.7 940.344,1616.7 942.116,1616.7 943.888,1616.7 
  945.661,1621.87 947.433,1621.87 949.205,1621.87 950.978,1621.87 952.75,1621.87 954.522,1621.87 956.295,1621.87 958.067,1621.87 959.839,1621.87 961.612,1621.87 
  963.384,1621.87 965.156,1621.87 966.929,1621.87 968.701,1621.87 970.473,1621.87 972.246,1621.87 974.018,1621.87 975.79,1621.87 977.563,1621.87 979.335,1621.87 
  981.107,1621.87 982.88,1621.87 984.652,1621.87 986.424,1621.87 988.197,1621.87 989.969,1621.87 991.741,1621.87 993.514,1621.87 995.286,1621.87 997.058,1621.87 
  998.831,1621.87 1000.6,1621.87 1002.38,1621.87 1004.15,1621.87 1005.92,1621.87 1007.69,1621.87 1009.46,1621.87 1011.24,1621.87 1013.01,1621.87 1014.78,1621.87 
  1016.55,1621.87 1018.33,1621.87 1020.1,1621.87 1021.87,1621.87 1023.64,1621.87 1025.42,1621.87 1027.19,1621.87 1028.96,1621.87 1030.73,1621.87 1032.51,1621.87 
  1034.28,1621.87 1036.05,1621.87 1037.82,1621.87 1039.59,1621.87 1041.37,1621.87 1043.14,1621.87 1044.91,1621.87 1046.68,1621.87 1048.46,1621.87 1050.23,1621.87 
  1052,1621.87 1053.77,1621.87 1055.55,1621.87 1057.32,1621.87 1059.09,1621.87 1060.86,1621.87 1062.63,1621.87 1064.41,1621.87 1066.18,1621.87 1067.95,1621.87 
  1069.72,1621.87 1071.5,1621.87 1073.27,1621.87 1075.04,1621.87 1076.81,1621.87 1078.59,1621.87 1080.36,1621.87 1082.13,1621.87 1083.9,1621.87 1085.68,1621.87 
  1087.45,1621.87 1089.22,1621.87 1090.99,1621.87 1092.76,1621.87 1094.54,1621.87 1096.31,1621.87 1098.08,1621.87 1099.85,1621.87 1101.63,1621.87 1103.4,1621.87 
  1105.17,1621.87 1106.94,1621.87 1108.72,1621.87 1110.49,1621.87 1112.26,1621.87 1114.03,1621.87 1115.8,1621.87 1117.58,1621.87 1119.35,1621.87 1121.12,1621.87 
  1122.89,1621.87 1124.67,1621.87 1126.44,1621.87 1128.21,1621.87 1129.98,1621.87 1131.76,1621.87 1133.53,1621.87 1135.3,1621.87 1137.07,1621.87 1138.85,1621.87 
  1140.62,1621.87 1142.39,1621.87 1144.16,1621.87 1145.93,1621.87 1147.71,1621.87 1149.48,1621.87 1151.25,1621.87 1153.02,1621.87 1154.8,1621.87 1156.57,1621.87 
  1158.34,1616.7 1160.11,1616.7 1161.89,1616.7 1163.66,1616.7 1165.43,1616.7 1167.2,1616.7 1168.97,1616.7 1170.75,1616.7 1172.52,1616.7 1174.29,1616.7 
  1176.06,1616.7 1177.84,1616.7 1179.61,1616.7 1181.38,1616.7 1183.15,1616.7 1184.93,1616.7 1186.7,1616.7 1188.47,1616.7 1190.24,1616.7 1192.02,1616.7 
  1193.79,1616.7 1195.56,1616.7 1197.33,1616.7 1199.1,1616.7 1200.88,1616.7 1202.65,1616.7 1204.42,1616.7 1206.19,1616.7 1207.97,1616.7 1209.74,1616.7 
  1211.51,1616.7 1213.28,1616.7 1215.06,1616.7 1216.83,1616.7 1218.6,1616.7 1220.37,1616.7 1222.14,1616.7 1223.92,1616.7 1225.69,1616.7 1227.46,1616.7 
  1229.23,1616.7 1231.01,1616.7 1232.78,1616.7 1234.55,1616.7 1236.32,1616.7 1238.1,1616.7 1239.87,1616.7 1241.64,1616.7 1243.41,1616.7 1245.19,1616.7 
  1246.96,1616.7 1248.73,1616.7 1250.5,1616.7 1252.27,1616.7 1254.05,1616.7 1255.82,1616.7 1257.59,1616.7 1259.36,1616.7 1261.14,1616.7 1262.91,1616.7 
  1264.68,1502.99 1266.45,1502.99 1268.23,1502.99 1270,1502.99 1271.77,1502.99 1273.54,1502.99 1275.32,1502.99 1277.09,1502.99 1278.86,1502.99 1280.63,1502.99 
  1282.4,1502.99 1284.18,1502.99 1285.95,1502.99 1287.72,1502.99 1289.49,1502.99 1291.27,1502.99 1293.04,1502.99 1294.81,1502.99 1296.58,1502.99 1298.36,1502.99 
  1300.13,1502.99 1301.9,1502.99 1303.67,1502.99 1305.44,1502.99 1307.22,1502.99 1308.99,1502.99 1310.76,1502.99 1312.53,1502.99 1314.31,1502.99 1316.08,1502.99 
  1317.85,1502.99 1319.62,1502.99 1321.4,1502.99 1323.17,1502.99 1324.94,1502.99 1326.71,1502.99 1328.49,1502.99 1330.26,1502.99 1332.03,1502.99 1333.8,1502.99 
  1335.57,1502.99 1337.35,1502.99 1339.12,1502.99 1340.89,1502.99 1342.66,1502.99 1344.44,1502.99 1346.21,1502.99 1347.98,1502.99 1349.75,1502.99 1351.53,1502.99 
  1353.3,1502.99 1355.07,1502.99 1356.84,1502.99 1358.61,1502.99 1360.39,1502.99 1362.16,1502.99 1363.93,1502.99 1365.7,1502.99 1367.48,1502.99 1369.25,1502.99 
  1371.02,1182.52 1372.79,1182.52 1374.57,1182.52 1376.34,1182.52 1378.11,1182.52 1379.88,1182.52 1381.66,1182.52 1383.43,1182.52 1385.2,1182.52 1386.97,1182.52 
  1388.74,1182.52 1390.52,1182.52 1392.29,1182.52 1394.06,1182.52 1395.83,1182.52 1397.61,1182.52 1399.38,1182.52 1401.15,1182.52 1402.92,1182.52 1404.7,1182.52 
  1406.47,1182.52 1408.24,1182.52 1410.01,1182.52 1411.78,1182.52 1413.56,1182.52 1415.33,1182.52 1417.1,1182.52 1418.87,1182.52 1420.65,1182.52 1422.42,1182.52 
  1424.19,1182.52 1425.96,1182.52 1427.74,1182.52 1429.51,1182.52 1431.28,1182.52 1433.05,1182.52 1434.83,1182.52 1436.6,1182.52 1438.37,1182.52 1440.14,1182.52 
  1441.91,1182.52 1443.69,1182.52 1445.46,1182.52 1447.23,1182.52 1449,1182.52 1450.78,1182.52 1452.55,1182.52 1454.32,1182.52 1456.09,1182.52 1457.87,1182.52 
  1459.64,1182.52 1461.41,1182.52 1463.18,1182.52 1464.96,1182.52 1466.73,1182.52 1468.5,1182.52 1470.27,1182.52 1472.04,1182.52 1473.82,1182.52 1475.59,1182.52 
  1477.36,701.817 1479.13,701.817 1480.91,701.817 1482.68,701.817 1484.45,701.817 1486.22,701.817 1488,701.817 1489.77,701.817 1491.54,701.817 1493.31,701.817 
  1495.08,701.817 1496.86,701.817 1498.63,701.817 1500.4,701.817 1502.17,701.817 1503.95,701.817 1505.72,701.817 1507.49,701.817 1509.26,701.817 1511.04,701.817 
  1512.81,701.817 1514.58,701.817 1516.35,701.817 1518.13,701.817 1519.9,701.817 1521.67,701.817 1523.44,701.817 1525.21,701.817 1526.99,701.817 1528.76,701.817 
  1530.53,701.817 1532.3,701.817 1534.08,701.817 1535.85,701.817 1537.62,701.817 1539.39,701.817 1541.17,701.817 1542.94,701.817 1544.71,701.817 1546.48,701.817 
  1548.25,701.817 1550.03,701.817 1551.8,701.817 1553.57,701.817 1555.34,701.817 1557.12,701.817 1558.89,701.817 1560.66,701.817 1562.43,701.817 1564.21,701.817 
  1565.98,701.817 1567.75,701.817 1569.52,701.817 1571.3,701.817 1573.07,701.817 1574.84,701.817 1576.61,701.817 1578.38,701.817 1580.16,701.817 1581.93,701.817 
  1583.7,350.336 1585.47,350.336 1587.25,350.336 1589.02,350.336 1590.79,350.336 1592.56,350.336 1594.34,350.336 1596.11,350.336 1597.88,350.336 1599.65,350.336 
  1601.42,350.336 1603.2,350.336 1604.97,350.336 1606.74,350.336 1608.51,350.336 1610.29,350.336 1612.06,350.336 1613.83,350.336 1615.6,350.336 1617.38,350.336 
  1619.15,350.336 1620.92,350.336 1622.69,350.336 1624.47,350.336 1626.24,350.336 1628.01,350.336 1629.78,350.336 1631.55,350.336 1633.33,350.336 1635.1,350.336 
  1636.87,350.336 1638.64,350.336 1640.42,350.336 1642.19,350.336 1643.96,350.336 1645.73,350.336 1647.51,350.336 1649.28,350.336 1651.05,350.336 1652.82,350.336 
  1654.59,350.336 1656.37,350.336 1658.14,350.336 1659.91,350.336 1661.68,350.336 1663.46,350.336 1665.23,350.336 1667,350.336 1668.77,350.336 1670.55,350.336 
  1672.32,350.336 1674.09,350.336 1675.86,350.336 1677.64,350.336 1679.41,350.336 1681.18,350.336 1682.95,350.336 1684.72,350.336 1686.5,350.336 1688.27,350.336 
  1690.04,293.479 1691.81,293.479 1693.59,293.479 1695.36,293.479 1697.13,293.479 1698.9,293.479 1700.68,293.479 1702.45,293.479 1704.22,293.479 1705.99,293.479 
  1707.77,293.479 1709.54,293.479 1711.31,293.479 1713.08,293.479 1714.85,293.479 1716.63,293.479 1718.4,293.479 1720.17,293.479 1721.94,293.479 1723.72,293.479 
  1725.49,293.479 1727.26,293.479 1729.03,293.479 1730.81,293.479 1732.58,293.479 1734.35,293.479 1736.12,293.479 1737.89,293.479 1739.67,293.479 1741.44,293.479 
  1743.21,293.479 1744.98,293.479 1746.76,293.479 1748.53,293.479 1750.3,293.479 1752.07,293.479 1753.85,293.479 1755.62,293.479 1757.39,293.479 1759.16,293.479 
  1760.94,293.479 1762.71,293.479 1764.48,293.479 1766.25,293.479 1768.02,293.479 1769.8,293.479 1771.57,293.479 1773.34,293.479 1775.11,293.479 1776.89,293.479 
  1778.66,293.479 1780.43,293.479 1782.2,293.479 1783.98,293.479 1785.75,293.479 1787.52,293.479 1789.29,293.479 1791.06,293.479 1792.84,293.479 1794.61,293.479 
  1796.38,314.154 1798.15,314.154 1799.93,314.154 1801.7,314.154 1803.47,314.154 1805.24,314.154 1807.02,314.154 1808.79,314.154 1810.56,314.154 1812.33,314.154 
  1814.11,314.154 1815.88,314.154 1817.65,314.154 1819.42,314.154 1821.19,314.154 1822.97,314.154 1824.74,314.154 1826.51,314.154 1828.28,314.154 1830.06,314.154 
  1831.83,314.154 1833.6,314.154 1835.37,314.154 1837.15,314.154 1838.92,314.154 1840.69,314.154 1842.46,314.154 1844.23,314.154 1846.01,314.154 1847.78,314.154 
  1849.55,314.154 1851.32,314.154 1853.1,314.154 1854.87,314.154 1856.64,314.154 1858.41,314.154 1860.19,314.154 1861.96,314.154 1863.73,314.154 1865.5,314.154 
  1867.28,314.154 1869.05,314.154 1870.82,314.154 1872.59,314.154 1874.36,314.154 1876.14,314.154 1877.91,314.154 1879.68,314.154 1881.45,314.154 1883.23,314.154 
  1885,314.154 1886.77,314.154 1888.54,314.154 1890.32,314.154 1892.09,314.154 1893.86,314.154 1895.63,314.154 1897.4,314.154 1899.18,314.154 1900.95,314.154 
  1902.72,350.336 1904.49,350.336 1906.27,350.336 1908.04,350.336 1909.81,350.336 1911.58,350.336 1913.36,350.336 1915.13,350.336 1916.9,350.336 1918.67,350.336 
  1920.45,350.336 1922.22,350.336 1923.99,350.336 1925.76,350.336 1927.53,350.336 1929.31,350.336 1931.08,350.336 1932.85,350.336 1934.62,350.336 1936.4,350.336 
  1938.17,350.336 1939.94,350.336 1941.71,350.336 1943.49,350.336 1945.26,350.336 1947.03,350.336 1948.8,350.336 1950.58,350.336 1952.35,350.336 1954.12,350.336 
  1955.89,350.336 1957.66,350.336 1959.44,350.336 1961.21,350.336 1962.98,350.336 1964.75,350.336 1966.53,350.336 1968.3,350.336 1970.07,350.336 1971.84,350.336 
  1973.62,350.336 1975.39,350.336 1977.16,350.336 1978.93,350.336 1980.7,350.336 1982.48,350.336 1984.25,350.336 1986.02,350.336 1987.79,350.336 1989.57,350.336 
  1991.34,350.336 1993.11,350.336 1994.88,350.336 1996.66,350.336 1998.43,350.336 2000.2,350.336 2001.97,350.336 2003.75,350.336 2005.52,350.336 2007.29,350.336 
  2009.06,381.349 2010.83,381.349 2012.61,381.349 2014.38,381.349 2016.15,381.349 2017.92,381.349 2019.7,381.349 2021.47,381.349 2023.24,381.349 2025.01,381.349 
  2026.79,381.349 2028.56,381.349 2030.33,381.349 2032.1,381.349 2033.87,381.349 2035.65,381.349 2037.42,381.349 2039.19,381.349 2040.96,381.349 2042.74,381.349 
  2044.51,381.349 2046.28,381.349 2048.05,381.349 2049.83,381.349 2051.6,381.349 2053.37,381.349 2055.14,381.349 2056.92,381.349 2058.69,381.349 2060.46,381.349 
  2062.23,381.349 2064,381.349 2065.78,381.349 2067.55,381.349 2069.32,381.349 2071.09,381.349 2072.87,381.349 2074.64,381.349 2076.41,381.349 2078.18,381.349 
  2079.96,381.349 2081.73,381.349 2083.5,381.349 2085.27,381.349 2087.04,381.349 2088.82,381.349 2090.59,381.349 2092.36,381.349 2094.13,381.349 2095.91,381.349 
  2097.68,381.349 2099.45,381.349 2101.22,381.349 2103,381.349 2104.77,381.349 2106.54,381.349 2108.31,381.349 2110.09,381.349 2111.86,381.349 2113.63,381.349 
  2115.4,386.518 2117.17,386.518 2118.95,386.518 2120.72,386.518 2122.49,386.518 2124.26,386.518 2126.04,386.518 2127.81,386.518 2129.58,386.518 2131.35,386.518 
  2133.13,386.518 2134.9,386.518 2136.67,386.518 2138.44,386.518 2140.22,386.518 2141.99,386.518 2143.76,386.518 2145.53,386.518 2147.3,386.518 2149.08,386.518 
  2150.85,386.518 2152.62,386.518 2154.39,386.518 2156.17,386.518 2157.94,386.518 2159.71,386.518 2161.48,386.518 2163.26,386.518 2165.03,386.518 2166.8,386.518 
  2168.57,386.518 2170.34,386.518 2172.12,386.518 2173.89,386.518 2175.66,386.518 2177.43,386.518 2179.21,386.518 2180.98,386.518 2182.75,386.518 2184.52,386.518 
  2186.3,386.518 2188.07,386.518 2189.84,386.518 2191.61,386.518 2193.39,386.518 2195.16,386.518 2196.93,386.518 2198.7,386.518 2200.47,386.518 2202.25,386.518 
  2204.02,386.518 2205.79,386.518 2207.56,386.518 2209.34,386.518 2211.11,386.518 2212.88,386.518 2214.65,386.518 2216.43,386.518 2218.2,386.518 2219.97,386.518 
  2221.74,458.882 2223.51,458.882 2225.29,458.882 2227.06,458.882 2228.83,458.882 2230.6,458.882 2232.38,458.882 2234.15,458.882 2235.92,458.882 2237.69,458.882 
  2239.47,458.882 2241.24,458.882 2243.01,458.882 2244.78,458.882 2246.56,458.882 2248.33,458.882 2250.1,458.882 2251.87,458.882 2253.64,458.882 2255.42,458.882 
  2257.19,458.882 2258.96,458.882 2260.73,458.882 2262.51,458.882 2264.28,458.882 2266.05,458.882 2267.82,458.882 2269.6,458.882 2271.37,458.882 2273.14,458.882 
  2274.91,458.882 2276.68,458.882 2278.46,458.882 2280.23,458.882 2282,458.882 2283.77,458.882 2285.55,458.882 2287.32,458.882 2289.09,458.882 2290.86,458.882 
  2292.64,458.882 2294.41,458.882 2296.18,458.882 2297.95,458.882 2299.73,458.882 2301.5,458.882 2303.27,458.882 2305.04,458.882 2306.81,458.882 2308.59,458.882 
  2310.36,458.882 2312.13,458.882 2313.9,458.882 2315.68,458.882 2317.45,458.882 2319.22,458.882 2320.99,458.882 2322.77,458.882 2324.54,458.882 2326.31,458.882 
  2328.08,536.414 2329.85,536.414 2331.63,536.414 2333.4,536.414 2335.17,536.414 2336.94,536.414 2338.72,536.414 2340.49,536.414 2342.26,536.414 2344.03,536.414 
  2345.81,536.414 2347.58,536.414 2349.35,536.414 2351.12,536.414 2352.9,536.414 2354.67,536.414 2356.44,536.414 2358.21,536.414 2359.98,536.414 2361.76,536.414 
  2363.53,536.414 2365.3,536.414 2367.07,536.414 2368.85,536.414 2370.62,536.414 2372.39,536.414 2374.16,536.414 2375.94,536.414 2377.71,536.414 2379.48,536.414 
  2381.25,536.414 2383.03,536.414 2384.8,536.414 2386.57,536.414 2388.34,536.414 2390.11,536.414 2391.89,536.414 2393.66,536.414 2395.43,536.414 2397.2,536.414 
  2398.98,536.414 2400.75,536.414 2402.52,536.414 2404.29,536.414 2406.07,536.414 2407.84,536.414 2409.61,536.414 2411.38,536.414 2413.15,536.414 2414.93,536.414 
  2416.7,536.414 2418.47,536.414 2420.24,536.414 2422.02,536.414 2423.79,536.414 2425.56,536.414 2427.33,536.414 2429.11,536.414 2430.88,536.414 2432.65,536.414 
  2434.42,805.194 2436.2,805.194 2437.97,805.194 2439.74,805.194 2441.51,805.194 2443.28,805.194 2445.06,805.194 2446.83,805.194 2448.6,805.194 2450.37,805.194 
  2452.15,805.194 2453.92,805.194 2455.69,805.194 2457.46,805.194 2459.24,805.194 2461.01,805.194 2462.78,805.194 2464.55,805.194 2466.32,805.194 2468.1,805.194 
  2469.87,805.194 2471.64,805.194 2473.41,805.194 2475.19,805.194 2476.96,805.194 2478.73,805.194 2480.5,805.194 2482.28,805.194 2484.05,805.194 2485.82,805.194 
  2487.59,805.194 2489.37,805.194 2491.14,805.194 2492.91,805.194 2494.68,805.194 2496.45,805.194 2498.23,805.194 2500,805.194 2501.77,805.194 2503.54,805.194 
  2505.32,805.194 2507.09,805.194 2508.86,805.194 2510.63,805.194 2512.41,805.194 2514.18,805.194 2515.95,805.194 2517.72,805.194 2519.49,805.194 2521.27,805.194 
  2523.04,805.194 2524.81,805.194 2526.58,805.194 2528.36,805.194 2530.13,805.194 2531.9,805.194 2533.67,805.194 2535.45,805.194 2537.22,805.194 2538.99,805.194 
  2540.76,1011.95 2542.54,1011.95 2544.31,1011.95 2546.08,1011.95 2547.85,1011.95 2549.62,1011.95 2551.4,1011.95 2553.17,1011.95 2554.94,1011.95 2556.71,1011.95 
  2558.49,1011.95 2560.26,1011.95 2562.03,1011.95 2563.8,1011.95 2565.58,1011.95 2567.35,1011.95 2569.12,1011.95 2570.89,1011.95 2572.66,1011.95 2574.44,1011.95 
  2576.21,1011.95 2577.98,1011.95 2579.75,1011.95 2581.53,1011.95 2583.3,1011.95 2585.07,1011.95 2586.84,1011.95 2588.62,1011.95 2590.39,1011.95 2592.16,1011.95 
  2593.93,1011.95 2595.71,1011.95 2597.48,1011.95 2599.25,1011.95 2601.02,1011.95 2602.79,1011.95 2604.57,1011.95 2606.34,1011.95 2608.11,1011.95 2609.88,1011.95 
  2611.66,1011.95 2613.43,1011.95 2615.2,1011.95 2616.97,1011.95 2618.75,1011.95 2620.52,1011.95 2622.29,1011.95 2624.06,1011.95 2625.84,1011.95 2627.61,1011.95 
  2629.38,1011.95 2631.15,1011.95 2632.92,1011.95 2634.7,1011.95 2636.47,1011.95 2638.24,1011.95 2640.01,1011.95 2641.79,1011.95 2643.56,1011.95 2645.33,1011.95 
  2647.1,1089.48 2648.88,1089.48 2650.65,1089.48 2652.42,1089.48 2654.19,1089.48 2655.96,1089.48 2657.74,1089.48 2659.51,1089.48 2661.28,1089.48 2663.05,1089.48 
  2664.83,1089.48 2666.6,1089.48 2668.37,1089.48 2670.14,1089.48 2671.92,1089.48 2673.69,1089.48 2675.46,1089.48 2677.23,1089.48 2679.01,1089.48 2680.78,1089.48 
  2682.55,1089.48 2684.32,1089.48 2686.09,1089.48 2687.87,1089.48 2689.64,1089.48 2691.41,1089.48 2693.18,1089.48 2694.96,1089.48 2696.73,1089.48 2698.5,1089.48 
  2700.27,1089.48 2702.05,1089.48 2703.82,1089.48 2705.59,1089.48 2707.36,1089.48 2709.13,1089.48 2710.91,1089.48 2712.68,1089.48 2714.45,1089.48 2716.22,1089.48 
  2718,1089.48 2719.77,1089.48 2721.54,1089.48 2723.31,1089.48 2725.09,1089.48 2726.86,1089.48 2728.63,1089.48 2730.4,1089.48 2732.18,1089.48 2733.95,1089.48 
  2735.72,1089.48 2737.49,1089.48 2739.26,1089.48 2741.04,1089.48 2742.81,1089.48 2744.58,1089.48 2746.35,1089.48 2748.13,1089.48 2749.9,1089.48 2751.67,1089.48 
  2753.44,1167.01 2755.22,1167.01 2756.99,1167.01 2758.76,1167.01 2760.53,1167.01 2762.3,1167.01 2764.08,1167.01 2765.85,1167.01 2767.62,1167.01 2769.39,1167.01 
  2771.17,1167.01 2772.94,1167.01 2774.71,1167.01 2776.48,1167.01 2778.26,1167.01 2780.03,1167.01 2781.8,1167.01 2783.57,1167.01 2785.35,1167.01 2787.12,1167.01 
  2788.89,1167.01 2790.66,1167.01 2792.43,1167.01 2794.21,1167.01 2795.98,1167.01 2797.75,1167.01 2799.52,1167.01 2801.3,1167.01 2803.07,1167.01 2804.84,1167.01 
  2806.61,1167.01 2808.39,1167.01 2810.16,1167.01 2811.93,1167.01 2813.7,1167.01 2815.48,1167.01 2817.25,1167.01 2819.02,1167.01 2820.79,1167.01 2822.56,1167.01 
  2824.34,1167.01 2826.11,1167.01 2827.88,1167.01 2829.65,1167.01 2831.43,1167.01 2833.2,1167.01 2834.97,1167.01 2836.74,1167.01 2838.52,1167.01 2840.29,1167.01 
  2842.06,1167.01 2843.83,1167.01 2845.6,1167.01 2847.38,1167.01 2849.15,1167.01 2850.92,1167.01 2852.69,1167.01 2854.47,1167.01 2856.24,1167.01 2858.01,1167.01 
  2859.78,1249.71 2861.56,1249.71 2863.33,1249.71 2865.1,1249.71 2866.87,1249.71 2868.65,1249.71 2870.42,1249.71 2872.19,1249.71 2873.96,1249.71 2875.73,1249.71 
  2877.51,1249.71 2879.28,1249.71 2881.05,1249.71 2882.82,1249.71 2884.6,1249.71 2886.37,1249.71 2888.14,1249.71 2889.91,1249.71 2891.69,1249.71 2893.46,1249.71 
  2895.23,1249.71 2897,1249.71 2898.77,1249.71 2900.55,1249.71 2902.32,1249.71 2904.09,1249.71 2905.86,1249.71 2907.64,1249.71 2909.41,1249.71 2911.18,1249.71 
  2912.95,1249.71 2914.73,1249.71 2916.5,1249.71 2918.27,1249.71 2920.04,1249.71 2921.82,1249.71 2923.59,1249.71 2925.36,1249.71 2927.13,1249.71 2928.9,1249.71 
  2930.68,1249.71 2932.45,1249.71 2934.22,1249.71 2935.99,1249.71 2937.77,1249.71 2939.54,1249.71 2941.31,1249.71 2943.08,1249.71 2944.86,1249.71 2946.63,1249.71 
  2948.4,1249.71 2950.17,1249.71 2951.94,1249.71 2953.72,1249.71 2955.49,1249.71 2957.26,1249.71 2959.03,1249.71 2960.81,1249.71 2962.58,1249.71 2964.35,1249.71 
  2966.12,1342.75 2967.9,1342.75 2969.67,1342.75 2971.44,1342.75 2973.21,1342.75 2974.99,1342.75 2976.76,1342.75 2978.53,1342.75 2980.3,1342.75 2982.07,1342.75 
  2983.85,1342.75 2985.62,1342.75 2987.39,1342.75 2989.16,1342.75 2990.94,1342.75 2992.71,1342.75 2994.48,1342.75 2996.25,1342.75 2998.03,1342.75 2999.8,1342.75 
  3001.57,1342.75 3003.34,1342.75 3005.11,1342.75 3006.89,1342.75 3008.66,1342.75 3010.43,1342.75 3012.2,1342.75 3013.98,1342.75 3015.75,1342.75 3017.52,1342.75 
  3019.29,1342.75 3021.07,1342.75 3022.84,1342.75 3024.61,1342.75 3026.38,1342.75 3028.16,1342.75 3029.93,1342.75 3031.7,1342.75 3033.47,1342.75 3035.24,1342.75 
  3037.02,1342.75 3038.79,1342.75 3040.56,1342.75 3042.33,1342.75 3044.11,1342.75 3045.88,1342.75 3047.65,1342.75 3049.42,1342.75 3051.2,1342.75 3052.97,1342.75 
  3054.74,1342.75 3056.51,1342.75 3058.29,1342.75 3060.06,1342.75 3061.83,1342.75 3063.6,1342.75 3065.37,1342.75 3067.15,1342.75 3068.92,1342.75 3070.69,1342.75 
  3072.46,1399.61 3074.24,1399.61 3076.01,1399.61 3077.78,1399.61 3079.55,1399.61 3081.33,1399.61 3083.1,1399.61 3084.87,1399.61 3086.64,1399.61 3088.41,1399.61 
  3090.19,1399.61 3091.96,1399.61 3093.73,1399.61 3095.5,1399.61 3097.28,1399.61 3099.05,1399.61 3100.82,1399.61 3102.59,1399.61 3104.37,1399.61 3106.14,1399.61 
  3107.91,1399.61 3109.68,1399.61 3111.46,1399.61 3113.23,1399.61 3115,1399.61 3116.77,1399.61 3118.54,1399.61 3120.32,1399.61 3122.09,1399.61 3123.86,1399.61 
  3125.63,1399.61 3127.41,1399.61 3129.18,1399.61 3130.95,1399.61 3132.72,1399.61 3134.5,1399.61 3136.27,1399.61 3138.04,1399.61 3139.81,1399.61 3141.58,1399.61 
  3143.36,1399.61 3145.13,1399.61 3146.9,1399.61 3148.67,1399.61 3150.45,1399.61 3152.22,1399.61 3153.99,1399.61 3155.76,1399.61 3157.54,1399.61 3159.31,1399.61 
  3161.08,1399.61 3162.85,1399.61 3164.63,1399.61 3166.4,1399.61 3168.17,1399.61 3169.94,1399.61 3171.71,1399.61 3173.49,1399.61 3175.26,1399.61 3177.03,1399.61 
  
  "/>
</svg>
