<?xml version="1.0" encoding="utf-8"?>
<svg xmlns="http://www.w3.org/2000/svg" xmlns:xlink="http://www.w3.org/1999/xlink" width="800" height="400" viewBox="0 0 3200 1600">
<defs>
  <clipPath id="clip2700">
    <rect x="0" y="0" width="3200" height="1600"/>
  </clipPath>
</defs>
<polygon clip-path="url(#clip2700)" points="
0,1600 3200,1600 3200,0 0,0 
  " fill="#ffffff" fill-rule="evenodd" fill-opacity="1"/>
<defs>
  <clipPath id="clip2701">
    <rect x="640" y="0" width="2241" height="1600"/>
  </clipPath>
</defs>
<polygon clip-path="url(#clip2700)" points="
500.208,1275.5 2853.54,1275.5 2853.54,188.976 500.208,188.976 
  " fill="#ffffff" fill-rule="evenodd" fill-opacity="1"/>
<defs>
  <clipPath id="clip2702">
    <rect x="500" y="188" width="2354" height="1088"/>
  </clipPath>
</defs>
<polyline clip-path="url(#clip2702)" style="stroke:#000000; stroke-width:2; stroke-opacity:0.1; fill:none" points="
  565.269,1275.5 565.269,188.976 
  "/>
<polyline clip-path="url(#clip2702)" style="stroke:#000000; stroke-width:2; stroke-opacity:0.1; fill:none" points="
  935.548,1275.5 935.548,188.976 
  "/>
<polyline clip-path="url(#clip2702)" style="stroke:#000000; stroke-width:2; stroke-opacity:0.1; fill:none" points="
  1305.83,1275.5 1305.83,188.976 
  "/>
<polyline clip-path="url(#clip2702)" style="stroke:#000000; stroke-width:2; stroke-opacity:0.1; fill:none" points="
  1676.1,1275.5 1676.1,188.976 
  "/>
<polyline clip-path="url(#clip2702)" style="stroke:#000000; stroke-width:2; stroke-opacity:0.1; fill:none" points="
  2046.38,1275.5 2046.38,188.976 
  "/>
<polyline clip-path="url(#clip2702)" style="stroke:#000000; stroke-width:2; stroke-opacity:0.1; fill:none" points="
  2416.66,1275.5 2416.66,188.976 
  "/>
<polyline clip-path="url(#clip2702)" style="stroke:#000000; stroke-width:2; stroke-opacity:0.1; fill:none" points="
  2786.94,1275.5 2786.94,188.976 
  "/>
<polyline clip-path="url(#clip2702)" style="stroke:#000000; stroke-width:2; stroke-opacity:0.1; fill:none" points="
  500.208,1054.74 2853.54,1054.74 
  "/>
<polyline clip-path="url(#clip2702)" style="stroke:#000000; stroke-width:2; stroke-opacity:0.1; fill:none" points="
  500.208,809.957 2853.54,809.957 
  "/>
<polyline clip-path="url(#clip2702)" style="stroke:#000000; stroke-width:2; stroke-opacity:0.1; fill:none" points="
  500.208,565.177 2853.54,565.177 
  "/>
<polyline clip-path="url(#clip2702)" style="stroke:#000000; stroke-width:2; stroke-opacity:0.1; fill:none" points="
  500.208,320.398 2853.54,320.398 
  "/>
<polyline clip-path="url(#clip2700)" style="stroke:#000000; stroke-width:4; stroke-opacity:1; fill:none" points="
  500.208,1275.5 2853.54,1275.5 
  "/>
<polyline clip-path="url(#clip2700)" style="stroke:#000000; stroke-width:4; stroke-opacity:1; fill:none" points="
  500.208,1275.5 500.208,188.976 
  "/>
<polyline clip-path="url(#clip2700)" style="stroke:#000000; stroke-width:4; stroke-opacity:1; fill:none" points="
  565.269,1275.5 565.269,1259.21 
  "/>
<polyline clip-path="url(#clip2700)" style="stroke:#000000; stroke-width:4; stroke-opacity:1; fill:none" points="
  935.548,1275.5 935.548,1259.21 
  "/>
<polyline clip-path="url(#clip2700)" style="stroke:#000000; stroke-width:4; stroke-opacity:1; fill:none" points="
  1305.83,1275.5 1305.83,1259.21 
  "/>
<polyline clip-path="url(#clip2700)" style="stroke:#000000; stroke-width:4; stroke-opacity:1; fill:none" points="
  1676.1,1275.5 1676.1,1259.21 
  "/>
<polyline clip-path="url(#clip2700)" style="stroke:#000000; stroke-width:4; stroke-opacity:1; fill:none" points="
  2046.38,1275.5 2046.38,1259.21 
  "/>
<polyline clip-path="url(#clip2700)" style="stroke:#000000; stroke-width:4; stroke-opacity:1; fill:none" points="
  2416.66,1275.5 2416.66,1259.21 
  "/>
<polyline clip-path="url(#clip2700)" style="stroke:#000000; stroke-width:4; stroke-opacity:1; fill:none" points="
  2786.94,1275.5 2786.94,1259.21 
  "/>
<polyline clip-path="url(#clip2700)" style="stroke:#000000; stroke-width:4; stroke-opacity:1; fill:none" points="
  500.208,1054.74 535.508,1054.74 
  "/>
<polyline clip-path="url(#clip2700)" style="stroke:#000000; stroke-width:4; stroke-opacity:1; fill:none" points="
  500.208,809.957 535.508,809.957 
  "/>
<polyline clip-path="url(#clip2700)" style="stroke:#000000; stroke-width:4; stroke-opacity:1; fill:none" points="
  500.208,565.177 535.508,565.177 
  "/>
<polyline clip-path="url(#clip2700)" style="stroke:#000000; stroke-width:4; stroke-opacity:1; fill:none" points="
  500.208,320.398 535.508,320.398 
  "/>
<g clip-path="url(#clip2700)">
<text style="fill:#000000; fill-opacity:1; font-family:Arial,Helvetica Neue,Helvetica,sans-serif; font-size:71px; text-anchor:middle;" transform="rotate(0, 565.269, 1353.9)" x="565.269" y="1353.9">0</text>
</g>
<g clip-path="url(#clip2700)">
<text style="fill:#000000; fill-opacity:1; font-family:Arial,Helvetica Neue,Helvetica,sans-serif; font-size:71px; text-anchor:middle;" transform="rotate(0, 935.548, 1353.9)" x="935.548" y="1353.9">4</text>
</g>
<g clip-path="url(#clip2700)">
<text style="fill:#000000; fill-opacity:1; font-family:Arial,Helvetica Neue,Helvetica,sans-serif; font-size:71px; text-anchor:middle;" transform="rotate(0, 1305.83, 1353.9)" x="1305.83" y="1353.9">8</text>
</g>
<g clip-path="url(#clip2700)">
<text style="fill:#000000; fill-opacity:1; font-family:Arial,Helvetica Neue,Helvetica,sans-serif; font-size:71px; text-anchor:middle;" transform="rotate(0, 1676.1, 1353.9)" x="1676.1" y="1353.9">12</text>
</g>
<g clip-path="url(#clip2700)">
<text style="fill:#000000; fill-opacity:1; font-family:Arial,Helvetica Neue,Helvetica,sans-serif; font-size:71px; text-anchor:middle;" transform="rotate(0, 2046.38, 1353.9)" x="2046.38" y="1353.9">16</text>
</g>
<g clip-path="url(#clip2700)">
<text style="fill:#000000; fill-opacity:1; font-family:Arial,Helvetica Neue,Helvetica,sans-serif; font-size:71px; text-anchor:middle;" transform="rotate(0, 2416.66, 1353.9)" x="2416.66" y="1353.9">20</text>
</g>
<g clip-path="url(#clip2700)">
<text style="fill:#000000; fill-opacity:1; font-family:Arial,Helvetica Neue,Helvetica,sans-serif; font-size:71px; text-anchor:middle;" transform="rotate(0, 2786.94, 1353.9)" x="2786.94" y="1353.9">24</text>
</g>
<g clip-path="url(#clip2700)">
<text style="fill:#000000; fill-opacity:1; font-family:Arial,Helvetica Neue,Helvetica,sans-serif; font-size:71px; text-anchor:end;" transform="rotate(0, 468.208, 1080.74)" x="468.208" y="1080.74">2</text>
</g>
<g clip-path="url(#clip2700)">
<text style="fill:#000000; fill-opacity:1; font-family:Arial,Helvetica Neue,Helvetica,sans-serif; font-size:71px; text-anchor:end;" transform="rotate(0, 468.208, 835.957)" x="468.208" y="835.957">4</text>
</g>
<g clip-path="url(#clip2700)">
<text style="fill:#000000; fill-opacity:1; font-family:Arial,Helvetica Neue,Helvetica,sans-serif; font-size:71px; text-anchor:end;" transform="rotate(0, 468.208, 591.177)" x="468.208" y="591.177">6</text>
</g>
<g clip-path="url(#clip2700)">
<text style="fill:#000000; fill-opacity:1; font-family:Arial,Helvetica Neue,Helvetica,sans-serif; font-size:71px; text-anchor:end;" transform="rotate(0, 468.208, 346.398)" x="468.208" y="346.398">8</text>
</g>
<g clip-path="url(#clip2700)">
<text style="fill:#000000; fill-opacity:1; font-family:Arial,Helvetica Neue,Helvetica,sans-serif; font-size:95px; text-anchor:middle;" transform="rotate(0, 1676.88, 1469.75)" x="1676.88" y="1469.75">Time (hours)</text>
</g>
<g clip-path="url(#clip2700)">
<text style="fill:#000000; fill-opacity:1; font-family:Arial,Helvetica Neue,Helvetica,sans-serif; font-size:95px; text-anchor:start;" transform="rotate(-90, 381.55, 1054.88)" x="381.55" y="1054.88"> Utilization </text>
</g>
<g clip-path="url(#clip2700)">
<text style="fill:#000000; fill-opacity:1; font-family:Symbol; font-size:103px; text-anchor:start;" transform="rotate(-90, 381.55, 584.131)" x="381.55" y="584.131">ρ</text>
</g>
<g clip-path="url(#clip2700)">
<text style="fill:#000000; fill-opacity:1; font-family:Arial,Helvetica Neue,Helvetica,sans-serif; font-size:95px; text-anchor:start;" transform="rotate(-90, 381.55, 527.239)" x="381.55" y="527.239"> (t)</text>
</g>
<polyline clip-path="url(#clip2702)" style="stroke:#009af9; stroke-width:4; stroke-opacity:1; fill:none" points="
  566.812,219.727 568.355,223.496 569.898,227.265 571.441,231.034 572.983,234.803 574.526,238.571 576.069,242.34 577.612,246.109 579.155,249.878 580.698,253.647 
  582.24,257.416 583.783,261.185 585.326,264.953 586.869,268.722 588.412,272.491 589.954,276.26 591.497,280.029 593.04,283.798 594.583,287.566 596.126,291.335 
  597.669,295.104 599.211,298.873 600.754,302.642 602.297,306.411 603.84,310.18 605.383,313.948 606.926,317.717 608.468,321.486 610.011,325.255 611.554,329.024 
  613.097,332.793 614.64,336.562 616.183,340.33 617.725,344.099 619.268,347.868 620.811,351.637 622.354,355.406 623.897,359.175 625.439,362.944 626.982,366.712 
  628.525,370.481 630.068,374.25 631.611,378.019 633.154,381.788 634.696,385.557 636.239,389.326 637.782,393.094 639.325,396.863 640.868,400.632 642.411,404.401 
  643.953,408.17 645.496,411.939 647.039,415.707 648.582,419.476 650.125,423.245 651.668,427.014 653.21,430.783 654.753,434.552 656.296,438.321 657.839,442.089 
  659.382,677.106 660.925,681.688 662.467,686.27 664.01,690.852 665.553,695.434 667.096,700.017 668.639,704.599 670.181,709.181 671.724,713.763 673.267,718.345 
  674.81,722.928 676.353,727.51 677.896,732.092 679.438,736.674 680.981,741.256 682.524,745.839 684.067,750.421 685.61,755.003 687.153,759.585 688.695,764.168 
  690.238,768.75 691.781,773.332 693.324,777.914 694.867,782.496 696.41,787.079 697.952,791.661 699.495,796.243 701.038,800.825 702.581,805.407 704.124,809.99 
  705.666,814.572 707.209,819.154 708.752,823.736 710.295,828.318 711.838,832.901 713.381,837.483 714.923,842.065 716.466,846.647 718.009,851.229 719.552,855.812 
  721.095,860.394 722.638,864.976 724.18,869.558 725.723,874.14 727.266,878.723 728.809,883.305 730.352,887.887 731.895,892.469 733.437,897.051 734.98,901.634 
  736.523,906.216 738.066,910.798 739.609,915.38 741.151,919.962 742.694,924.545 744.237,929.127 745.78,933.709 747.323,938.291 748.866,942.874 750.408,947.456 
  751.951,923.818 753.494,925.706 755.037,927.594 756.58,929.482 758.123,931.37 759.665,933.258 761.208,935.147 762.751,937.035 764.294,938.923 765.837,940.811 
  767.38,942.699 768.922,944.587 770.465,946.475 772.008,948.363 773.551,950.252 775.094,952.14 776.636,954.028 778.179,955.916 779.722,957.804 781.265,959.692 
  782.808,961.58 784.351,963.468 785.893,965.356 787.436,967.245 788.979,969.133 790.522,971.021 792.065,972.909 793.608,974.797 795.15,976.685 796.693,978.573 
  798.236,980.461 799.779,982.35 801.322,984.238 802.865,986.126 804.407,988.014 805.95,989.902 807.493,991.79 809.036,993.678 810.579,995.566 812.122,997.455 
  813.664,999.343 815.207,1001.23 816.75,1003.12 818.293,1005.01 819.836,1006.9 821.378,1008.78 822.921,1010.67 824.464,1012.56 826.007,1014.45 827.55,1016.34 
  829.093,1018.22 830.635,1020.11 832.178,1022 833.721,1023.89 835.264,1025.78 836.807,1027.66 838.35,1029.55 839.892,1031.44 841.435,1033.33 842.978,1035.22 
  844.521,818.721 846.064,820.72 847.607,822.718 849.149,824.716 850.692,826.715 852.235,828.713 853.778,830.711 855.321,832.71 856.863,834.708 858.406,836.707 
  859.949,838.705 861.492,840.703 863.035,842.702 864.578,844.7 866.12,846.699 867.663,848.697 869.206,850.695 870.749,852.694 872.292,854.692 873.835,856.691 
  875.377,858.689 876.92,860.687 878.463,862.686 880.006,864.684 881.549,866.683 883.092,868.681 884.634,870.679 886.177,872.678 887.72,874.676 889.263,876.675 
  890.806,878.673 892.348,880.671 893.891,882.67 895.434,884.668 896.977,886.667 898.52,888.665 900.063,890.663 901.605,892.662 903.148,894.66 904.691,896.659 
  906.234,898.657 907.777,900.655 909.32,902.654 910.862,904.652 912.405,906.651 913.948,908.649 915.491,910.647 917.034,912.646 918.577,914.644 920.119,916.643 
  921.662,918.641 923.205,920.639 924.748,922.638 926.291,924.636 927.833,926.635 929.376,928.633 930.919,930.631 932.462,932.63 934.005,934.628 935.548,936.627 
  937.09,1083.42 938.633,1082.03 940.176,1080.65 941.719,1079.27 943.262,1077.89 944.805,1076.51 946.347,1075.13 947.89,1073.75 949.433,1072.36 950.976,1070.98 
  952.519,1069.6 954.062,1068.22 955.604,1066.84 957.147,1065.46 958.69,1064.08 960.233,1062.7 961.776,1061.31 963.319,1059.93 964.861,1058.55 966.404,1057.17 
  967.947,1055.79 969.49,1054.41 971.033,1053.03 972.575,1051.65 974.118,1050.26 975.661,1048.88 977.204,1047.5 978.747,1046.12 980.29,1044.74 981.832,1043.36 
  983.375,1041.98 984.918,1040.59 986.461,1039.21 988.004,1037.83 989.547,1036.45 991.089,1035.07 992.632,1033.69 994.175,1032.31 995.718,1030.93 997.261,1029.54 
  998.804,1028.16 1000.35,1026.78 1001.89,1025.4 1003.43,1024.02 1004.97,1022.64 1006.52,1021.26 1008.06,1019.87 1009.6,1018.49 1011.15,1017.11 1012.69,1015.73 
  1014.23,1014.35 1015.77,1012.97 1017.32,1011.59 1018.86,1010.21 1020.4,1008.82 1021.95,1007.44 1023.49,1006.06 1025.03,1004.68 1026.57,1003.3 1028.12,1001.92 
  1029.66,1032.95 1031.2,1023.84 1032.75,1014.73 1034.29,1005.62 1035.83,996.513 1037.37,987.404 1038.92,978.294 1040.46,969.185 1042,960.076 1043.55,950.967 
  1045.09,941.857 1046.63,932.748 1048.17,923.639 1049.72,914.529 1051.26,905.42 1052.8,896.311 1054.35,887.202 1055.89,878.092 1057.43,868.983 1058.97,859.874 
  1060.52,850.764 1062.06,841.655 1063.6,832.546 1065.15,823.437 1066.69,814.327 1068.23,805.218 1069.77,796.109 1071.32,786.999 1072.86,777.89 1074.4,768.781 
  1075.94,759.671 1077.49,750.562 1079.03,741.453 1080.57,732.344 1082.12,723.234 1083.66,714.125 1085.2,705.016 1086.74,695.906 1088.29,686.797 1089.83,677.688 
  1091.37,668.579 1092.92,659.469 1094.46,650.36 1096,641.251 1097.54,632.141 1099.09,623.032 1100.63,613.923 1102.17,604.814 1103.72,595.704 1105.26,586.595 
  1106.8,577.486 1108.34,568.376 1109.89,559.267 1111.43,550.158 1112.97,541.048 1114.52,531.939 1116.06,522.83 1117.6,513.721 1119.14,504.611 1120.69,495.502 
  1122.23,1232.42 1123.77,1230.35 1125.32,1228.28 1126.86,1226.21 1128.4,1224.14 1129.94,1222.07 1131.49,1220 1133.03,1217.92 1134.57,1215.85 1136.12,1213.78 
  1137.66,1211.71 1139.2,1209.64 1140.74,1207.57 1142.29,1205.5 1143.83,1203.43 1145.37,1201.36 1146.91,1199.28 1148.46,1197.21 1150,1195.14 1151.54,1193.07 
  1153.09,1191 1154.63,1188.93 1156.17,1186.86 1157.71,1184.79 1159.26,1182.72 1160.8,1180.65 1162.34,1178.57 1163.89,1176.5 1165.43,1174.43 1166.97,1172.36 
  1168.51,1170.29 1170.06,1168.22 1171.6,1166.15 1173.14,1164.08 1174.69,1162.01 1176.23,1159.94 1177.77,1157.86 1179.31,1155.79 1180.86,1153.72 1182.4,1151.65 
  1183.94,1149.58 1185.49,1147.51 1187.03,1145.44 1188.57,1143.37 1190.11,1141.3 1191.66,1139.22 1193.2,1137.15 1194.74,1135.08 1196.29,1133.01 1197.83,1130.94 
  1199.37,1128.87 1200.91,1126.8 1202.46,1124.73 1204,1122.66 1205.54,1120.59 1207.09,1118.51 1208.63,1116.44 1210.17,1114.37 1211.71,1112.3 1213.26,1110.23 
  1214.8,1244.75 1216.34,1243.88 1217.88,1243 1219.43,1242.12 1220.97,1241.24 1222.51,1240.37 1224.06,1239.49 1225.6,1238.61 1227.14,1237.73 1228.68,1236.86 
  1230.23,1235.98 1231.77,1235.1 1233.31,1234.22 1234.86,1233.35 1236.4,1232.47 1237.94,1231.59 1239.48,1230.72 1241.03,1229.84 1242.57,1228.96 1244.11,1228.08 
  1245.66,1227.21 1247.2,1226.33 1248.74,1225.45 1250.28,1224.57 1251.83,1223.7 1253.37,1222.82 1254.91,1221.94 1256.46,1221.07 1258,1220.19 1259.54,1219.31 
  1261.08,1218.43 1262.63,1217.56 1264.17,1216.68 1265.71,1215.8 1267.26,1214.92 1268.8,1214.05 1270.34,1213.17 1271.88,1212.29 1273.43,1211.42 1274.97,1210.54 
  1276.51,1209.66 1278.06,1208.78 1279.6,1207.91 1281.14,1207.03 1282.68,1206.15 1284.23,1205.27 1285.77,1204.4 1287.31,1203.52 1288.85,1202.64 1290.4,1201.77 
  1291.94,1200.89 1293.48,1200.01 1295.03,1199.13 1296.57,1198.26 1298.11,1197.38 1299.65,1196.5 1301.2,1195.62 1302.74,1194.75 1304.28,1193.87 1305.83,1192.99 
  1307.37,1238.1 1308.91,1236.68 1310.45,1235.27 1312,1233.86 1313.54,1232.44 1315.08,1231.03 1316.63,1229.62 1318.17,1228.2 1319.71,1226.79 1321.25,1225.38 
  1322.8,1223.96 1324.34,1222.55 1325.88,1221.14 1327.43,1219.72 1328.97,1218.31 1330.51,1216.9 1332.05,1215.48 1333.6,1214.07 1335.14,1212.66 1336.68,1211.24 
  1338.23,1209.83 1339.77,1208.42 1341.31,1207 1342.85,1205.59 1344.4,1204.18 1345.94,1202.76 1347.48,1201.35 1349.03,1199.93 1350.57,1198.52 1352.11,1197.11 
  1353.65,1195.69 1355.2,1194.28 1356.74,1192.87 1358.28,1191.45 1359.82,1190.04 1361.37,1188.63 1362.91,1187.21 1364.45,1185.8 1366,1184.39 1367.54,1182.97 
  1369.08,1181.56 1370.62,1180.15 1372.17,1178.73 1373.71,1177.32 1375.25,1175.91 1376.8,1174.49 1378.34,1173.08 1379.88,1171.67 1381.42,1170.25 1382.97,1168.84 
  1384.51,1167.43 1386.05,1166.01 1387.6,1164.6 1389.14,1163.19 1390.68,1161.77 1392.22,1160.36 1393.77,1158.95 1395.31,1157.53 1396.85,1156.12 1398.4,1154.7 
  1399.94,1189.35 1401.48,1188.66 1403.02,1187.98 1404.57,1187.29 1406.11,1186.61 1407.65,1185.92 1409.2,1185.24 1410.74,1184.55 1412.28,1183.87 1413.82,1183.18 
  1415.37,1182.5 1416.91,1181.82 1418.45,1181.13 1420,1180.45 1421.54,1179.76 1423.08,1179.08 1424.62,1178.39 1426.17,1177.71 1427.71,1177.02 1429.25,1176.34 
  1430.79,1175.66 1432.34,1174.97 1433.88,1174.29 1435.42,1173.6 1436.97,1172.92 1438.51,1172.23 1440.05,1171.55 1441.59,1170.86 1443.14,1170.18 1444.68,1169.49 
  1446.22,1168.81 1447.77,1168.13 1449.31,1167.44 1450.85,1166.76 1452.39,1166.07 1453.94,1165.39 1455.48,1164.7 1457.02,1164.02 1458.57,1163.33 1460.11,1162.65 
  1461.65,1161.97 1463.19,1161.28 1464.74,1160.6 1466.28,1159.91 1467.82,1159.23 1469.37,1158.54 1470.91,1157.86 1472.45,1157.17 1473.99,1156.49 1475.54,1155.8 
  1477.08,1155.12 1478.62,1154.44 1480.17,1153.75 1481.71,1153.07 1483.25,1152.38 1484.79,1151.7 1486.34,1151.01 1487.88,1150.33 1489.42,1149.64 1490.97,1148.96 
  1492.51,1159.57 1494.05,1159.62 1495.59,1159.67 1497.14,1159.73 1498.68,1159.78 1500.22,1159.83 1501.76,1159.89 1503.31,1159.94 1504.85,1159.99 1506.39,1160.05 
  1507.94,1160.1 1509.48,1160.15 1511.02,1160.21 1512.56,1160.26 1514.11,1160.31 1515.65,1160.37 1517.19,1160.42 1518.74,1160.47 1520.28,1160.53 1521.82,1160.58 
  1523.36,1160.63 1524.91,1160.69 1526.45,1160.74 1527.99,1160.79 1529.54,1160.85 1531.08,1160.9 1532.62,1160.95 1534.16,1161.01 1535.71,1161.06 1537.25,1161.11 
  1538.79,1161.17 1540.34,1161.22 1541.88,1161.27 1543.42,1161.33 1544.96,1161.38 1546.51,1161.43 1548.05,1161.49 1549.59,1161.54 1551.14,1161.59 1552.68,1161.65 
  1554.22,1161.7 1555.76,1161.75 1557.31,1161.81 1558.85,1161.86 1560.39,1161.91 1561.94,1161.97 1563.48,1162.02 1565.02,1162.07 1566.56,1162.13 1568.11,1162.18 
  1569.65,1162.23 1571.19,1162.29 1572.73,1162.34 1574.28,1162.39 1575.82,1162.45 1577.36,1162.5 1578.91,1162.55 1580.45,1162.61 1581.99,1162.66 1583.53,1162.71 
  1585.08,1162.7 1586.62,1162.83 1588.16,1162.96 1589.71,1163.09 1591.25,1163.22 1592.79,1163.35 1594.33,1163.48 1595.88,1163.61 1597.42,1163.74 1598.96,1163.87 
  1600.51,1164 1602.05,1164.13 1603.59,1164.26 1605.13,1164.39 1606.68,1164.52 1608.22,1164.65 1609.76,1164.78 1611.31,1164.91 1612.85,1165.04 1614.39,1165.17 
  1615.93,1165.3 1617.48,1165.43 1619.02,1165.56 1620.56,1165.69 1622.11,1165.82 1623.65,1165.95 1625.19,1166.08 1626.73,1166.21 1628.28,1166.34 1629.82,1166.47 
  1631.36,1166.6 1632.91,1166.73 1634.45,1166.87 1635.99,1167 1637.53,1167.13 1639.08,1167.26 1640.62,1167.39 1642.16,1167.52 1643.71,1167.65 1645.25,1167.78 
  1646.79,1167.91 1648.33,1168.04 1649.88,1168.17 1651.42,1168.3 1652.96,1168.43 1654.5,1168.56 1656.05,1168.69 1657.59,1168.82 1659.13,1168.95 1660.68,1169.08 
  1662.22,1169.21 1663.76,1169.34 1665.3,1169.47 1666.85,1169.6 1668.39,1169.73 1669.93,1169.86 1671.48,1169.99 1673.02,1170.12 1674.56,1170.25 1676.1,1170.38 
  1677.65,1168.63 1679.19,1168.81 1680.73,1169 1682.28,1169.18 1683.82,1169.36 1685.36,1169.54 1686.9,1169.72 1688.45,1169.9 1689.99,1170.08 1691.53,1170.27 
  1693.08,1170.45 1694.62,1170.63 1696.16,1170.81 1697.7,1170.99 1699.25,1171.17 1700.79,1171.35 1702.33,1171.54 1703.88,1171.72 1705.42,1171.9 1706.96,1172.08 
  1708.5,1172.26 1710.05,1172.44 1711.59,1172.63 1713.13,1172.81 1714.68,1172.99 1716.22,1173.17 1717.76,1173.35 1719.3,1173.53 1720.85,1173.71 1722.39,1173.9 
  1723.93,1174.08 1725.47,1174.26 1727.02,1174.44 1728.56,1174.62 1730.1,1174.8 1731.65,1174.98 1733.19,1175.17 1734.73,1175.35 1736.27,1175.53 1737.82,1175.71 
  1739.36,1175.89 1740.9,1176.07 1742.45,1176.25 1743.99,1176.44 1745.53,1176.62 1747.07,1176.8 1748.62,1176.98 1750.16,1177.16 1751.7,1177.34 1753.25,1177.53 
  1754.79,1177.71 1756.33,1177.89 1757.87,1178.07 1759.42,1178.25 1760.96,1178.43 1762.5,1178.61 1764.05,1178.8 1765.59,1178.98 1767.13,1179.16 1768.67,1179.34 
  1770.22,1169.35 1771.76,1169.33 1773.3,1169.31 1774.85,1169.29 1776.39,1169.26 1777.93,1169.24 1779.47,1169.22 1781.02,1169.2 1782.56,1169.17 1784.1,1169.15 
  1785.65,1169.13 1787.19,1169.11 1788.73,1169.08 1790.27,1169.06 1791.82,1169.04 1793.36,1169.02 1794.9,1168.99 1796.44,1168.97 1797.99,1168.95 1799.53,1168.93 
  1801.07,1168.9 1802.62,1168.88 1804.16,1168.86 1805.7,1168.84 1807.24,1168.81 1808.79,1168.79 1810.33,1168.77 1811.87,1168.75 1813.42,1168.73 1814.96,1168.7 
  1816.5,1168.68 1818.04,1168.66 1819.59,1168.64 1821.13,1168.61 1822.67,1168.59 1824.22,1168.57 1825.76,1168.55 1827.3,1168.52 1828.84,1168.5 1830.39,1168.48 
  1831.93,1168.46 1833.47,1168.43 1835.02,1168.41 1836.56,1168.39 1838.1,1168.37 1839.64,1168.34 1841.19,1168.32 1842.73,1168.3 1844.27,1168.28 1845.82,1168.25 
  1847.36,1168.23 1848.9,1168.21 1850.44,1168.19 1851.99,1168.16 1853.53,1168.14 1855.07,1168.12 1856.62,1168.1 1858.16,1168.07 1859.7,1168.05 1861.24,1168.03 
  1862.79,1161.45 1864.33,1161.55 1865.87,1161.64 1867.41,1161.74 1868.96,1161.84 1870.5,1161.94 1872.04,1162.04 1873.59,1162.14 1875.13,1162.24 1876.67,1162.33 
  1878.21,1162.43 1879.76,1162.53 1881.3,1162.63 1882.84,1162.73 1884.39,1162.83 1885.93,1162.93 1887.47,1163.02 1889.01,1163.12 1890.56,1163.22 1892.1,1163.32 
  1893.64,1163.42 1895.19,1163.52 1896.73,1163.62 1898.27,1163.71 1899.81,1163.81 1901.36,1163.91 1902.9,1164.01 1904.44,1164.11 1905.99,1164.21 1907.53,1164.31 
  1909.07,1164.4 1910.61,1164.5 1912.16,1164.6 1913.7,1164.7 1915.24,1164.8 1916.79,1164.9 1918.33,1165 1919.87,1165.09 1921.41,1165.19 1922.96,1165.29 
  1924.5,1165.39 1926.04,1165.49 1927.59,1165.59 1929.13,1165.69 1930.67,1165.78 1932.21,1165.88 1933.76,1165.98 1935.3,1166.08 1936.84,1166.18 1938.38,1166.28 
  1939.93,1166.38 1941.47,1166.47 1943.01,1166.57 1944.56,1166.67 1946.1,1166.77 1947.64,1166.87 1949.18,1166.97 1950.73,1167.07 1952.27,1167.16 1953.81,1167.26 
  1955.36,1163.82 1956.9,1163.99 1958.44,1164.16 1959.98,1164.32 1961.53,1164.49 1963.07,1164.65 1964.61,1164.82 1966.16,1164.99 1967.7,1165.15 1969.24,1165.32 
  1970.78,1165.48 1972.33,1165.65 1973.87,1165.81 1975.41,1165.98 1976.96,1166.15 1978.5,1166.31 1980.04,1166.48 1981.58,1166.64 1983.13,1166.81 1984.67,1166.98 
  1986.21,1167.14 1987.76,1167.31 1989.3,1167.47 1990.84,1167.64 1992.38,1167.8 1993.93,1167.97 1995.47,1168.14 1997.01,1168.3 1998.56,1168.47 2000.1,1168.63 
  2001.64,1168.8 2003.18,1168.97 2004.73,1169.13 2006.27,1169.3 2007.81,1169.46 2009.35,1169.63 2010.9,1169.79 2012.44,1169.96 2013.98,1170.13 2015.53,1170.29 
  2017.07,1170.46 2018.61,1170.62 2020.15,1170.79 2021.7,1170.96 2023.24,1171.12 2024.78,1171.29 2026.33,1171.45 2027.87,1171.62 2029.41,1171.79 2030.95,1171.95 
  2032.5,1172.12 2034.04,1172.28 2035.58,1172.45 2037.13,1172.61 2038.67,1172.78 2040.21,1172.95 2041.75,1173.11 2043.3,1173.28 2044.84,1173.44 2046.38,1173.61 
  2047.93,1163.81 2049.47,1164.37 2051.01,1164.93 2052.55,1165.48 2054.1,1166.04 2055.64,1166.59 2057.18,1167.15 2058.73,1167.7 2060.27,1168.26 2061.81,1168.81 
  2063.35,1169.37 2064.9,1169.92 2066.44,1170.48 2067.98,1171.04 2069.53,1171.59 2071.07,1172.15 2072.61,1172.7 2074.15,1173.26 2075.7,1173.81 2077.24,1174.37 
  2078.78,1174.92 2080.32,1175.48 2081.87,1176.03 2083.41,1176.59 2084.95,1177.15 2086.5,1177.7 2088.04,1178.26 2089.58,1178.81 2091.12,1179.37 2092.67,1179.92 
  2094.21,1180.48 2095.75,1181.03 2097.3,1181.59 2098.84,1182.15 2100.38,1182.7 2101.92,1183.26 2103.47,1183.81 2105.01,1184.37 2106.55,1184.92 2108.1,1185.48 
  2109.64,1186.03 2111.18,1186.59 2112.72,1187.14 2114.27,1187.7 2115.81,1188.26 2117.35,1188.81 2118.9,1189.37 2120.44,1189.92 2121.98,1190.48 2123.52,1191.03 
  2125.07,1191.59 2126.61,1192.14 2128.15,1192.7 2129.7,1193.25 2131.24,1193.81 2132.78,1194.37 2134.32,1194.92 2135.87,1195.48 2137.41,1196.03 2138.95,1196.59 
  2140.5,1162.27 2142.04,1162.84 2143.58,1163.41 2145.12,1163.98 2146.67,1164.55 2148.21,1165.13 2149.75,1165.7 2151.29,1166.27 2152.84,1166.84 2154.38,1167.41 
  2155.92,1167.99 2157.47,1168.56 2159.01,1169.13 2160.55,1169.7 2162.09,1170.27 2163.64,1170.85 2165.18,1171.42 2166.72,1171.99 2168.27,1172.56 2169.81,1173.13 
  2171.35,1173.71 2172.89,1174.28 2174.44,1174.85 2175.98,1175.42 2177.52,1175.99 2179.07,1176.57 2180.61,1177.14 2182.15,1177.71 2183.69,1178.28 2185.24,1178.85 
  2186.78,1179.43 2188.32,1180 2189.87,1180.57 2191.41,1181.14 2192.95,1181.71 2194.49,1182.29 2196.04,1182.86 2197.58,1183.43 2199.12,1184 2200.67,1184.57 
  2202.21,1185.15 2203.75,1185.72 2205.29,1186.29 2206.84,1186.86 2208.38,1187.43 2209.92,1188.01 2211.47,1188.58 2213.01,1189.15 2214.55,1189.72 2216.09,1190.29 
  2217.64,1190.87 2219.18,1191.44 2220.72,1192.01 2222.26,1192.58 2223.81,1193.15 2225.35,1193.73 2226.89,1194.3 2228.44,1194.87 2229.98,1195.44 2231.52,1196.01 
  2233.06,1160.33 2234.61,1160.81 2236.15,1161.28 2237.69,1161.76 2239.24,1162.23 2240.78,1162.7 2242.32,1163.18 2243.86,1163.65 2245.41,1164.13 2246.95,1164.6 
  2248.49,1165.08 2250.04,1165.55 2251.58,1166.02 2253.12,1166.5 2254.66,1166.97 2256.21,1167.45 2257.75,1167.92 2259.29,1168.4 2260.84,1168.87 2262.38,1169.34 
  2263.92,1169.82 2265.46,1170.29 2267.01,1170.77 2268.55,1171.24 2270.09,1171.71 2271.64,1172.19 2273.18,1172.66 2274.72,1173.14 2276.26,1173.61 2277.81,1174.09 
  2279.35,1174.56 2280.89,1175.03 2282.44,1175.51 2283.98,1175.98 2285.52,1176.46 2287.06,1176.93 2288.61,1177.41 2290.15,1177.88 2291.69,1178.35 2293.23,1178.83 
  2294.78,1179.3 2296.32,1179.78 2297.86,1180.25 2299.41,1180.73 2300.95,1181.2 2302.49,1181.67 2304.03,1182.15 2305.58,1182.62 2307.12,1183.1 2308.66,1183.57 
  2310.21,1184.05 2311.75,1184.52 2313.29,1184.99 2314.83,1185.47 2316.38,1185.94 2317.92,1186.42 2319.46,1186.89 2321.01,1187.36 2322.55,1187.84 2324.09,1188.31 
  2325.63,1158.59 2327.18,1158.93 2328.72,1159.26 2330.26,1159.6 2331.81,1159.94 2333.35,1160.28 2334.89,1160.61 2336.43,1160.95 2337.98,1161.29 2339.52,1161.63 
  2341.06,1161.96 2342.61,1162.3 2344.15,1162.64 2345.69,1162.98 2347.23,1163.31 2348.78,1163.65 2350.32,1163.99 2351.86,1164.33 2353.41,1164.67 2354.95,1165 
  2356.49,1165.34 2358.03,1165.68 2359.58,1166.02 2361.12,1166.35 2362.66,1166.69 2364.21,1167.03 2365.75,1167.37 2367.29,1167.7 2368.83,1168.04 2370.38,1168.38 
  2371.92,1168.72 2373.46,1169.05 2375,1169.39 2376.55,1169.73 2378.09,1170.07 2379.63,1170.4 2381.18,1170.74 2382.72,1171.08 2384.26,1171.42 2385.8,1171.76 
  2387.35,1172.09 2388.89,1172.43 2390.43,1172.77 2391.98,1173.11 2393.52,1173.44 2395.06,1173.78 2396.6,1174.12 2398.15,1174.46 2399.69,1174.79 2401.23,1175.13 
  2402.78,1175.47 2404.32,1175.81 2405.86,1176.14 2407.4,1176.48 2408.95,1176.82 2410.49,1177.16 2412.03,1177.49 2413.58,1177.83 2415.12,1178.17 2416.66,1178.51 
  2418.2,1162.43 2419.75,1162.79 2421.29,1163.16 2422.83,1163.52 2424.38,1163.88 2425.92,1164.25 2427.46,1164.61 2429,1164.97 2430.55,1165.34 2432.09,1165.7 
  2433.63,1166.06 2435.18,1166.43 2436.72,1166.79 2438.26,1167.16 2439.8,1167.52 2441.35,1167.88 2442.89,1168.25 2444.43,1168.61 2445.97,1168.97 2447.52,1169.34 
  2449.06,1169.7 2450.6,1170.07 2452.15,1170.43 2453.69,1170.79 2455.23,1171.16 2456.77,1171.52 2458.32,1171.88 2459.86,1172.25 2461.4,1172.61 2462.95,1172.97 
  2464.49,1173.34 2466.03,1173.7 2467.57,1174.07 2469.12,1174.43 2470.66,1174.79 2472.2,1175.16 2473.75,1175.52 2475.29,1175.88 2476.83,1176.25 2478.37,1176.61 
  2479.92,1176.97 2481.46,1177.34 2483,1177.7 2484.55,1178.07 2486.09,1178.43 2487.63,1178.79 2489.17,1179.16 2490.72,1179.52 2492.26,1179.88 2493.8,1180.25 
  2495.35,1180.61 2496.89,1180.98 2498.43,1181.34 2499.97,1181.7 2501.52,1182.07 2503.06,1182.43 2504.6,1182.79 2506.15,1183.16 2507.69,1183.52 2509.23,1183.88 
  2510.77,1163.5 2512.32,1164.02 2513.86,1164.54 2515.4,1165.06 2516.94,1165.58 2518.49,1166.1 2520.03,1166.62 2521.57,1167.13 2523.12,1167.65 2524.66,1168.17 
  2526.2,1168.69 2527.74,1169.21 2529.29,1169.73 2530.83,1170.25 2532.37,1170.77 2533.92,1171.29 2535.46,1171.81 2537,1172.33 2538.54,1172.85 2540.09,1173.37 
  2541.63,1173.89 2543.17,1174.41 2544.72,1174.93 2546.26,1175.45 2547.8,1175.97 2549.34,1176.49 2550.89,1177.01 2552.43,1177.53 2553.97,1178.05 2555.52,1178.57 
  2557.06,1179.09 2558.6,1179.61 2560.14,1180.13 2561.69,1180.65 2563.23,1181.17 2564.77,1181.69 2566.32,1182.21 2567.86,1182.73 2569.4,1183.24 2570.94,1183.76 
  2572.49,1184.28 2574.03,1184.8 2575.57,1185.32 2577.12,1185.84 2578.66,1186.36 2580.2,1186.88 2581.74,1187.4 2583.29,1187.92 2584.83,1188.44 2586.37,1188.96 
  2587.91,1189.48 2589.46,1190 2591,1190.52 2592.54,1191.04 2594.09,1191.56 2595.63,1192.08 2597.17,1192.6 2598.71,1193.12 2600.26,1193.64 2601.8,1194.16 
  2603.34,1162.48 2604.89,1163.12 2606.43,1163.77 2607.97,1164.41 2609.51,1165.05 2611.06,1165.7 2612.6,1166.34 2614.14,1166.98 2615.69,1167.63 2617.23,1168.27 
  2618.77,1168.91 2620.31,1169.56 2621.86,1170.2 2623.4,1170.85 2624.94,1171.49 2626.49,1172.13 2628.03,1172.78 2629.57,1173.42 2631.11,1174.06 2632.66,1174.71 
  2634.2,1175.35 2635.74,1176 2637.29,1176.64 2638.83,1177.28 2640.37,1177.93 2641.91,1178.57 2643.46,1179.21 2645,1179.86 2646.54,1180.5 2648.09,1181.15 
  2649.63,1181.79 2651.17,1182.43 2652.71,1183.08 2654.26,1183.72 2655.8,1184.36 2657.34,1185.01 2658.88,1185.65 2660.43,1186.3 2661.97,1186.94 2663.51,1187.58 
  2665.06,1188.23 2666.6,1188.87 2668.14,1189.51 2669.68,1190.16 2671.23,1190.8 2672.77,1191.45 2674.31,1192.09 2675.86,1192.73 2677.4,1193.38 2678.94,1194.02 
  2680.48,1194.66 2682.03,1195.31 2683.57,1195.95 2685.11,1196.6 2686.66,1197.24 2688.2,1197.88 2689.74,1198.53 2691.28,1199.17 2692.83,1199.81 2694.37,1200.46 
  2695.91,1179.46 2697.46,1180.3 2699,1181.13 2700.54,1181.97 2702.08,1182.81 2703.63,1183.64 2705.17,1184.48 2706.71,1185.32 2708.26,1186.15 2709.8,1186.99 
  2711.34,1187.83 2712.88,1188.67 2714.43,1189.5 2715.97,1190.34 2717.51,1191.18 2719.06,1192.01 2720.6,1192.85 2722.14,1193.69 2723.68,1194.52 2725.23,1195.36 
  2726.77,1196.2 2728.31,1197.03 2729.85,1197.87 2731.4,1198.71 2732.94,1199.54 2734.48,1200.38 2736.03,1201.22 2737.57,1202.05 2739.11,1202.89 2740.65,1203.73 
  2742.2,1204.56 2743.74,1205.4 2745.28,1206.24 2746.83,1207.07 2748.37,1207.91 2749.91,1208.75 2751.45,1209.59 2753,1210.42 2754.54,1211.26 2756.08,1212.1 
  2757.63,1212.93 2759.17,1213.77 2760.71,1214.61 2762.25,1215.44 2763.8,1216.28 2765.34,1217.12 2766.88,1217.95 2768.43,1218.79 2769.97,1219.63 2771.51,1220.46 
  2773.05,1221.3 2774.6,1222.14 2776.14,1222.97 2777.68,1223.81 2779.23,1224.65 2780.77,1225.48 2782.31,1226.32 2783.85,1227.16 2785.4,1228 2786.94,1228.83 
  
  "/>
</svg>
