<?xml version="1.0" encoding="utf-8"?>
<svg xmlns="http://www.w3.org/2000/svg" xmlns:xlink="http://www.w3.org/1999/xlink" width="800" height="400" viewBox="0 0 3200 1600">
<defs>
  <clipPath id="clip2500">
    <rect x="0" y="0" width="3200" height="1600"/>
  </clipPath>
</defs>
<polygon clip-path="url(#clip2500)" points="
0,1600 3200,1600 3200,0 0,0 
  " fill="#ffffff" fill-rule="evenodd" fill-opacity="1"/>
<defs>
  <clipPath id="clip2501">
    <rect x="640" y="0" width="2241" height="1600"/>
  </clipPath>
</defs>
<polygon clip-path="url(#clip2500)" points="
697.733,1275.5 2853.54,1275.5 2853.54,188.976 697.733,188.976 
  " fill="#ffffff" fill-rule="evenodd" fill-opacity="1"/>
<defs>
  <clipPath id="clip2502">
    <rect x="697" y="188" width="2157" height="1088"/>
  </clipPath>
</defs>
<polyline clip-path="url(#clip2502)" style="stroke:#000000; stroke-width:2; stroke-opacity:0.1; fill:none" points="
  757.333,1275.5 757.333,188.976 
  "/>
<polyline clip-path="url(#clip2502)" style="stroke:#000000; stroke-width:2; stroke-opacity:0.1; fill:none" points="
  762.987,1275.5 762.987,188.976 
  "/>
<polyline clip-path="url(#clip2502)" style="stroke:#000000; stroke-width:2; stroke-opacity:0.1; fill:none" points="
  768.64,1275.5 768.64,188.976 
  "/>
<polyline clip-path="url(#clip2502)" style="stroke:#000000; stroke-width:2; stroke-opacity:0.1; fill:none" points="
  774.293,1275.5 774.293,188.976 
  "/>
<polyline clip-path="url(#clip2502)" style="stroke:#000000; stroke-width:2; stroke-opacity:0.1; fill:none" points="
  779.947,1275.5 779.947,188.976 
  "/>
<polyline clip-path="url(#clip2502)" style="stroke:#000000; stroke-width:2; stroke-opacity:0.1; fill:none" points="
  785.6,1275.5 785.6,188.976 
  "/>
<polyline clip-path="url(#clip2502)" style="stroke:#000000; stroke-width:2; stroke-opacity:0.1; fill:none" points="
  791.253,1275.5 791.253,188.976 
  "/>
<polyline clip-path="url(#clip2502)" style="stroke:#000000; stroke-width:2; stroke-opacity:0.1; fill:none" points="
  697.733,1244.68 2853.54,1244.68 
  "/>
<polyline clip-path="url(#clip2502)" style="stroke:#000000; stroke-width:2; stroke-opacity:0.1; fill:none" points="
  697.733,1061.5 2853.54,1061.5 
  "/>
<polyline clip-path="url(#clip2502)" style="stroke:#000000; stroke-width:2; stroke-opacity:0.1; fill:none" points="
  697.733,878.326 2853.54,878.326 
  "/>
<polyline clip-path="url(#clip2502)" style="stroke:#000000; stroke-width:2; stroke-opacity:0.1; fill:none" points="
  697.733,695.15 2853.54,695.15 
  "/>
<polyline clip-path="url(#clip2502)" style="stroke:#000000; stroke-width:2; stroke-opacity:0.1; fill:none" points="
  697.733,511.973 2853.54,511.973 
  "/>
<polyline clip-path="url(#clip2502)" style="stroke:#000000; stroke-width:2; stroke-opacity:0.1; fill:none" points="
  697.733,328.797 2853.54,328.797 
  "/>
<polyline clip-path="url(#clip2500)" style="stroke:#000000; stroke-width:4; stroke-opacity:1; fill:none" points="
  697.733,1275.5 2853.54,1275.5 
  "/>
<polyline clip-path="url(#clip2500)" style="stroke:#000000; stroke-width:4; stroke-opacity:1; fill:none" points="
  697.733,1275.5 697.733,188.976 
  "/>
<polyline clip-path="url(#clip2500)" style="stroke:#000000; stroke-width:4; stroke-opacity:1; fill:none" points="
  757.333,1275.5 757.333,1259.21 
  "/>
<polyline clip-path="url(#clip2500)" style="stroke:#000000; stroke-width:4; stroke-opacity:1; fill:none" points="
  762.987,1275.5 762.987,1259.21 
  "/>
<polyline clip-path="url(#clip2500)" style="stroke:#000000; stroke-width:4; stroke-opacity:1; fill:none" points="
  768.64,1275.5 768.64,1259.21 
  "/>
<polyline clip-path="url(#clip2500)" style="stroke:#000000; stroke-width:4; stroke-opacity:1; fill:none" points="
  774.293,1275.5 774.293,1259.21 
  "/>
<polyline clip-path="url(#clip2500)" style="stroke:#000000; stroke-width:4; stroke-opacity:1; fill:none" points="
  779.947,1275.5 779.947,1259.21 
  "/>
<polyline clip-path="url(#clip2500)" style="stroke:#000000; stroke-width:4; stroke-opacity:1; fill:none" points="
  785.6,1275.5 785.6,1259.21 
  "/>
<polyline clip-path="url(#clip2500)" style="stroke:#000000; stroke-width:4; stroke-opacity:1; fill:none" points="
  791.253,1275.5 791.253,1259.21 
  "/>
<polyline clip-path="url(#clip2500)" style="stroke:#000000; stroke-width:4; stroke-opacity:1; fill:none" points="
  697.733,1244.68 730.07,1244.68 
  "/>
<polyline clip-path="url(#clip2500)" style="stroke:#000000; stroke-width:4; stroke-opacity:1; fill:none" points="
  697.733,1061.5 730.07,1061.5 
  "/>
<polyline clip-path="url(#clip2500)" style="stroke:#000000; stroke-width:4; stroke-opacity:1; fill:none" points="
  697.733,878.326 730.07,878.326 
  "/>
<polyline clip-path="url(#clip2500)" style="stroke:#000000; stroke-width:4; stroke-opacity:1; fill:none" points="
  697.733,695.15 730.07,695.15 
  "/>
<polyline clip-path="url(#clip2500)" style="stroke:#000000; stroke-width:4; stroke-opacity:1; fill:none" points="
  697.733,511.973 730.07,511.973 
  "/>
<polyline clip-path="url(#clip2500)" style="stroke:#000000; stroke-width:4; stroke-opacity:1; fill:none" points="
  697.733,328.797 730.07,328.797 
  "/>
<g clip-path="url(#clip2500)">
<text style="fill:#000000; fill-opacity:1; font-family:Arial,Helvetica Neue,Helvetica,sans-serif; font-size:71px; text-anchor:middle;" transform="rotate(0, 757.333, 1353.9)" x="757.333" y="1353.9">0</text>
</g>
<g clip-path="url(#clip2500)">
<text style="fill:#000000; fill-opacity:1; font-family:Arial,Helvetica Neue,Helvetica,sans-serif; font-size:71px; text-anchor:middle;" transform="rotate(0, 762.987, 1353.9)" x="762.987" y="1353.9">4</text>
</g>
<g clip-path="url(#clip2500)">
<text style="fill:#000000; fill-opacity:1; font-family:Arial,Helvetica Neue,Helvetica,sans-serif; font-size:71px; text-anchor:middle;" transform="rotate(0, 768.64, 1353.9)" x="768.64" y="1353.9">8</text>
</g>
<g clip-path="url(#clip2500)">
<text style="fill:#000000; fill-opacity:1; font-family:Arial,Helvetica Neue,Helvetica,sans-serif; font-size:71px; text-anchor:middle;" transform="rotate(0, 774.293, 1353.9)" x="774.293" y="1353.9">12</text>
</g>
<g clip-path="url(#clip2500)">
<text style="fill:#000000; fill-opacity:1; font-family:Arial,Helvetica Neue,Helvetica,sans-serif; font-size:71px; text-anchor:middle;" transform="rotate(0, 779.947, 1353.9)" x="779.947" y="1353.9">16</text>
</g>
<g clip-path="url(#clip2500)">
<text style="fill:#000000; fill-opacity:1; font-family:Arial,Helvetica Neue,Helvetica,sans-serif; font-size:71px; text-anchor:middle;" transform="rotate(0, 785.6, 1353.9)" x="785.6" y="1353.9">20</text>
</g>
<g clip-path="url(#clip2500)">
<text style="fill:#000000; fill-opacity:1; font-family:Arial,Helvetica Neue,Helvetica,sans-serif; font-size:71px; text-anchor:middle;" transform="rotate(0, 791.253, 1353.9)" x="791.253" y="1353.9">24</text>
</g>
<g clip-path="url(#clip2500)">
<text style="fill:#000000; fill-opacity:1; font-family:Arial,Helvetica Neue,Helvetica,sans-serif; font-size:71px; text-anchor:end;" transform="rotate(0, 665.733, 1270.68)" x="665.733" y="1270.68">0</text>
</g>
<g clip-path="url(#clip2500)">
<text style="fill:#000000; fill-opacity:1; font-family:Arial,Helvetica Neue,Helvetica,sans-serif; font-size:71px; text-anchor:start;" transform="rotate(0, 370.162, 1097.09)" x="370.162" y="1097.09">2.50×10</text>
</g>
<g clip-path="url(#clip2500)">
<text style="fill:#000000; fill-opacity:1; font-family:Arial,Helvetica Neue,Helvetica,sans-serif; font-size:58px; text-anchor:start;" transform="rotate(0, 633.117, 1055.98)" x="633.117" y="1055.98">3</text>
</g>
<g clip-path="url(#clip2500)">
<text style="fill:#000000; fill-opacity:1; font-family:Arial,Helvetica Neue,Helvetica,sans-serif; font-size:71px; text-anchor:start;" transform="rotate(0, 370.162, 913.918)" x="370.162" y="913.918">5.00×10</text>
</g>
<g clip-path="url(#clip2500)">
<text style="fill:#000000; fill-opacity:1; font-family:Arial,Helvetica Neue,Helvetica,sans-serif; font-size:58px; text-anchor:start;" transform="rotate(0, 633.117, 872.802)" x="633.117" y="872.802">3</text>
</g>
<g clip-path="url(#clip2500)">
<text style="fill:#000000; fill-opacity:1; font-family:Arial,Helvetica Neue,Helvetica,sans-serif; font-size:71px; text-anchor:start;" transform="rotate(0, 370.162, 730.741)" x="370.162" y="730.741">7.50×10</text>
</g>
<g clip-path="url(#clip2500)">
<text style="fill:#000000; fill-opacity:1; font-family:Arial,Helvetica Neue,Helvetica,sans-serif; font-size:58px; text-anchor:start;" transform="rotate(0, 633.117, 689.626)" x="633.117" y="689.626">3</text>
</g>
<g clip-path="url(#clip2500)">
<text style="fill:#000000; fill-opacity:1; font-family:Arial,Helvetica Neue,Helvetica,sans-serif; font-size:71px; text-anchor:start;" transform="rotate(0, 370.162, 547.565)" x="370.162" y="547.565">1.00×10</text>
</g>
<g clip-path="url(#clip2500)">
<text style="fill:#000000; fill-opacity:1; font-family:Arial,Helvetica Neue,Helvetica,sans-serif; font-size:58px; text-anchor:start;" transform="rotate(0, 633.117, 506.449)" x="633.117" y="506.449">4</text>
</g>
<g clip-path="url(#clip2500)">
<text style="fill:#000000; fill-opacity:1; font-family:Arial,Helvetica Neue,Helvetica,sans-serif; font-size:71px; text-anchor:start;" transform="rotate(0, 370.162, 364.388)" x="370.162" y="364.388">1.25×10</text>
</g>
<g clip-path="url(#clip2500)">
<text style="fill:#000000; fill-opacity:1; font-family:Arial,Helvetica Neue,Helvetica,sans-serif; font-size:58px; text-anchor:start;" transform="rotate(0, 633.117, 323.273)" x="633.117" y="323.273">4</text>
</g>
<g clip-path="url(#clip2500)">
<text style="fill:#000000; fill-opacity:1; font-family:Arial,Helvetica Neue,Helvetica,sans-serif; font-size:95px; text-anchor:middle;" transform="rotate(0, 1775.64, 1469.75)" x="1775.64" y="1469.75">Time (hours)</text>
</g>
<g clip-path="url(#clip2500)">
<text style="fill:#000000; fill-opacity:1; font-family:Arial,Helvetica Neue,Helvetica,sans-serif; font-size:95px; text-anchor:middle;" transform="rotate(-90, 167.592, 732.24)" x="167.592" y="732.24">Expected Waiting Time:</text>
</g>
<g clip-path="url(#clip2500)">
<text style="fill:#000000; fill-opacity:1; font-family:Arial,Helvetica Neue,Helvetica,sans-serif; font-size:95px; text-anchor:middle;" transform="rotate(-90, 271.272, 732.24)" x="271.272" y="732.24"> Relative Error: (PSA-NS)/NS</text>
</g>
<polyline clip-path="url(#clip2502)" style="stroke:#009af9; stroke-width:4; stroke-opacity:1; fill:none" points="
  758.747,1244.68 760.16,1244.68 761.573,1244.68 762.987,1244.68 764.4,1244.68 765.813,1244.68 767.227,1244.68 768.64,1244.68 770.053,1244.68 771.467,1244.68 
  772.88,1244.68 774.293,1244.68 775.707,1244.68 777.12,1244.68 778.533,1244.68 779.947,1244.68 781.36,1244.68 782.773,1244.68 784.187,1244.68 785.6,1244.68 
  787.013,1244.68 788.427,1244.68 789.84,1244.68 791.253,1244.68 792.667,1244.68 794.08,1244.68 795.493,1244.68 796.907,1244.68 798.32,1244.68 799.733,1244.68 
  801.147,1244.68 802.56,1244.68 803.973,1244.68 805.387,1244.68 806.8,1244.68 808.213,1244.68 809.627,1244.68 811.04,1244.68 812.453,1244.68 813.867,1244.68 
  815.28,1244.68 816.693,1244.68 818.107,1244.68 819.52,1244.68 820.933,1244.68 822.347,1244.68 823.76,1244.68 825.173,1244.68 826.587,1244.68 828,1244.68 
  829.413,1244.68 830.827,1244.68 832.24,1244.68 833.653,1244.68 835.067,1244.68 836.48,1244.68 837.893,1244.68 839.307,1244.68 840.72,1244.68 842.133,1244.68 
  843.547,1244.68 844.96,1244.7 846.373,1244.7 847.787,1244.7 849.2,1244.7 850.613,1244.7 852.027,1244.69 853.44,1244.69 854.853,1244.69 856.267,1244.69 
  857.68,1244.69 859.093,1244.69 860.507,1244.69 861.92,1244.69 863.333,1244.69 864.747,1244.69 866.16,1244.69 867.573,1244.69 868.987,1244.69 870.4,1244.69 
  871.813,1244.69 873.227,1244.69 874.64,1244.69 876.053,1244.69 877.467,1244.69 878.88,1244.69 880.293,1244.69 881.707,1244.69 883.12,1244.69 884.533,1244.69 
  885.947,1244.69 887.36,1244.69 888.773,1244.69 890.187,1244.69 891.6,1244.69 893.013,1244.69 894.427,1244.69 895.84,1244.69 897.253,1244.69 898.667,1244.69 
  900.08,1244.69 901.493,1244.69 902.907,1244.69 904.32,1244.69 905.733,1244.69 907.147,1244.69 908.56,1244.69 909.973,1244.69 911.386,1244.69 912.8,1244.69 
  914.213,1244.69 915.626,1244.69 917.04,1244.69 918.453,1244.69 919.866,1244.69 921.28,1244.69 922.693,1244.69 924.106,1244.69 925.52,1244.69 926.933,1244.69 
  928.346,1244.69 929.76,1244.69 931.173,1244.69 932.586,1244.69 934,1244.69 935.413,1244.68 936.826,1244.68 938.24,1244.68 939.653,1244.68 941.066,1244.68 
  942.48,1244.68 943.893,1244.68 945.306,1244.68 946.72,1244.68 948.133,1244.68 949.546,1244.68 950.96,1244.68 952.373,1244.68 953.786,1244.68 955.2,1244.68 
  956.613,1244.68 958.026,1244.68 959.44,1244.68 960.853,1244.68 962.266,1244.68 963.68,1244.68 965.093,1244.68 966.506,1244.68 967.92,1244.68 969.333,1244.68 
  970.746,1244.68 972.16,1244.68 973.573,1244.68 974.986,1244.68 976.4,1244.68 977.813,1244.68 979.226,1244.68 980.64,1244.68 982.053,1244.68 983.466,1244.68 
  984.88,1244.68 986.293,1244.68 987.706,1244.68 989.12,1244.68 990.533,1244.68 991.946,1244.68 993.36,1244.68 994.773,1244.68 996.186,1244.68 997.6,1244.68 
  999.013,1244.68 1000.43,1244.68 1001.84,1244.68 1003.25,1244.68 1004.67,1244.68 1006.08,1244.69 1007.49,1244.69 1008.91,1244.69 1010.32,1244.69 1011.73,1244.69 
  1013.15,1244.69 1014.56,1244.68 1015.97,1244.68 1017.39,1244.68 1018.8,1244.68 1020.21,1244.68 1021.63,1244.68 1023.04,1244.68 1024.45,1244.68 1025.87,1244.68 
  1027.28,1244.68 1028.69,1244.68 1030.11,1244.68 1031.52,1244.68 1032.93,1244.68 1034.35,1244.68 1035.76,1244.68 1037.17,1244.68 1038.59,1244.68 1040,1244.68 
  1041.41,1244.68 1042.83,1244.68 1044.24,1244.68 1045.65,1244.68 1047.07,1244.68 1048.48,1244.68 1049.89,1244.68 1051.31,1244.68 1052.72,1244.68 1054.13,1244.68 
  1055.55,1244.68 1056.96,1244.68 1058.37,1244.68 1059.79,1244.68 1061.2,1244.68 1062.61,1244.68 1064.03,1244.68 1065.44,1244.68 1066.85,1244.68 1068.27,1244.68 
  1069.68,1244.68 1071.09,1244.68 1072.51,1244.68 1073.92,1244.68 1075.33,1244.68 1076.75,1244.68 1078.16,1244.68 1079.57,1244.68 1080.99,1244.68 1082.4,1244.68 
  1083.81,1244.68 1085.23,1244.68 1086.64,1244.68 1088.05,1244.68 1089.47,1244.68 1090.88,1244.68 1092.29,1244.68 1093.71,1244.68 1095.12,1244.68 1096.53,1244.68 
  1097.95,1244.68 1099.36,1244.7 1100.77,1244.7 1102.19,1244.7 1103.6,1244.69 1105.01,1244.69 1106.43,1244.69 1107.84,1244.69 1109.25,1244.69 1110.67,1244.68 
  1112.08,1244.68 1113.49,1244.68 1114.91,1244.68 1116.32,1244.68 1117.73,1244.68 1119.15,1244.68 1120.56,1244.68 1121.97,1244.68 1123.39,1244.68 1124.8,1244.68 
  1126.21,1244.68 1127.63,1244.68 1129.04,1244.68 1130.45,1244.68 1131.87,1244.67 1133.28,1244.67 1134.69,1244.67 1136.11,1244.67 1137.52,1244.67 1138.93,1244.67 
  1140.35,1244.67 1141.76,1244.67 1143.17,1244.67 1144.59,1244.67 1146,1244.67 1147.41,1244.67 1148.83,1244.67 1150.24,1244.67 1151.65,1244.67 1153.07,1244.67 
  1154.48,1244.67 1155.89,1244.67 1157.31,1244.67 1158.72,1244.67 1160.13,1244.67 1161.55,1244.67 1162.96,1244.67 1164.37,1244.67 1165.79,1244.67 1167.2,1244.67 
  1168.61,1244.67 1170.03,1244.67 1171.44,1244.67 1172.85,1244.67 1174.27,1244.67 1175.68,1244.67 1177.09,1244.67 1178.51,1244.67 1179.92,1244.67 1181.33,1244.67 
  1182.75,1244.67 1184.16,1244.66 1185.57,1244.66 1186.99,1244.66 1188.4,1244.66 1189.81,1244.66 1191.23,1244.66 1192.64,1244.66 1194.05,1244.66 1195.47,1244.66 
  1196.88,1244.66 1198.29,1244.66 1199.71,1244.66 1201.12,1244.66 1202.53,1244.66 1203.95,1244.66 1205.36,1244.66 1206.77,1244.66 1208.19,1244.66 1209.6,1244.66 
  1211.01,1244.66 1212.43,1244.66 1213.84,1244.66 1215.25,1244.66 1216.67,1244.66 1218.08,1244.66 1219.49,1244.66 1220.91,1244.66 1222.32,1244.66 1223.73,1244.66 
  1225.15,1244.66 1226.56,1244.66 1227.97,1244.67 1229.39,1244.67 1230.8,1244.67 1232.21,1244.67 1233.63,1244.67 1235.04,1244.67 1236.45,1244.67 1237.87,1244.67 
  1239.28,1244.67 1240.69,1244.67 1242.11,1244.67 1243.52,1244.67 1244.93,1244.67 1246.35,1244.67 1247.76,1244.67 1249.17,1244.67 1250.59,1244.67 1252,1244.67 
  1253.41,1244.67 1254.83,1244.67 1256.24,1244.67 1257.65,1244.67 1259.07,1244.67 1260.48,1244.67 1261.89,1244.67 1263.31,1244.67 1264.72,1244.67 1266.13,1244.67 
  1267.55,1244.67 1268.96,1244.75 1270.37,1244.75 1271.79,1244.75 1273.2,1244.74 1274.61,1244.73 1276.03,1244.72 1277.44,1244.7 1278.85,1244.67 1280.27,1244.65 
  1281.68,1244.63 1283.09,1244.61 1284.51,1244.6 1285.92,1244.6 1287.33,1244.59 1288.75,1244.59 1290.16,1244.59 1291.57,1244.59 1292.99,1244.59 1294.4,1244.59 
  1295.81,1244.6 1297.23,1244.6 1298.64,1244.6 1300.05,1244.6 1301.47,1244.6 1302.88,1244.61 1304.29,1244.61 1305.71,1244.61 1307.12,1244.61 1308.53,1244.61 
  1309.95,1244.62 1311.36,1244.62 1312.77,1244.62 1314.19,1244.62 1315.6,1244.62 1317.01,1244.63 1318.43,1244.63 1319.84,1244.63 1321.25,1244.63 1322.67,1244.63 
  1324.08,1244.63 1325.49,1244.64 1326.91,1244.64 1328.32,1244.64 1329.73,1244.64 1331.15,1244.64 1332.56,1244.64 1333.97,1244.64 1335.39,1244.65 1336.8,1244.65 
  1338.21,1244.65 1339.63,1244.65 1341.04,1244.65 1342.45,1244.65 1343.87,1244.65 1345.28,1244.65 1346.69,1244.65 1348.11,1244.66 1349.52,1244.66 1350.93,1244.66 
  1352.35,1244.66 1353.76,1244.75 1355.17,1244.75 1356.59,1244.75 1358,1244.75 1359.41,1244.73 1360.83,1244.69 1362.24,1244.63 1363.65,1244.55 1365.07,1244.46 
  1366.48,1244.39 1367.89,1244.34 1369.31,1244.3 1370.72,1244.28 1372.13,1244.27 1373.55,1244.27 1374.96,1244.28 1376.37,1244.29 1377.79,1244.3 1379.2,1244.32 
  1380.61,1244.33 1382.03,1244.35 1383.44,1244.36 1384.85,1244.38 1386.27,1244.39 1387.68,1244.41 1389.09,1244.42 1390.51,1244.43 1391.92,1244.44 1393.33,1244.45 
  1394.75,1244.46 1396.16,1244.47 1397.57,1244.48 1398.99,1244.49 1400.4,1244.5 1401.81,1244.51 1403.23,1244.51 1404.64,1244.52 1406.05,1244.53 1407.47,1244.53 
  1408.88,1244.54 1410.29,1244.55 1411.71,1244.55 1413.12,1244.56 1414.53,1244.56 1415.95,1244.56 1417.36,1244.57 1418.77,1244.57 1420.19,1244.58 1421.6,1244.58 
  1423.01,1244.58 1424.43,1244.59 1425.84,1244.59 1427.25,1244.59 1428.67,1244.59 1430.08,1244.6 1431.49,1244.6 1432.91,1244.6 1434.32,1244.6 1435.73,1244.61 
  1437.15,1244.61 1438.56,1226.9 1439.97,1042.28 1441.39,534.565 1442.8,219.727 1444.21,412.192 1445.63,734.647 1447.04,954.337 1448.45,1075.53 1449.87,1140.97 
  1451.28,1177.67 1452.69,1199.36 1454.11,1212.83 1455.52,1221.58 1456.93,1227.49 1458.35,1231.61 1459.76,1234.57 1461.17,1236.73 1462.59,1238.35 1464,1239.58 
  1465.41,1240.53 1466.83,1241.28 1468.24,1241.86 1469.65,1242.33 1471.07,1242.71 1472.48,1243.02 1473.89,1243.26 1475.31,1243.47 1476.72,1243.64 1478.13,1243.78 
  1479.55,1243.9 1480.96,1244 1482.37,1244.08 1483.79,1244.15 1485.2,1244.21 1486.61,1244.26 1488.03,1244.31 1489.44,1244.35 1490.85,1244.38 1492.27,1244.41 
  1493.68,1244.43 1495.09,1244.45 1496.51,1244.47 1497.92,1244.49 1499.33,1244.5 1500.75,1244.52 1502.16,1244.53 1503.57,1244.54 1504.99,1244.55 1506.4,1244.56 
  1507.81,1244.57 1509.23,1244.58 1510.64,1244.59 1512.05,1244.59 1513.47,1244.6 1514.88,1244.61 1516.29,1244.61 1517.71,1244.62 1519.12,1244.62 1520.53,1244.63 
  1521.95,1244.63 1523.36,1244.65 1524.77,1244.63 1526.19,1244.6 1527.6,1244.59 1529.01,1244.58 1530.43,1244.57 1531.84,1244.57 1533.25,1244.57 1534.67,1244.57 
  1536.08,1244.58 1537.49,1244.58 1538.91,1244.58 1540.32,1244.59 1541.73,1244.59 1543.15,1244.59 1544.56,1244.6 1545.97,1244.6 1547.39,1244.6 1548.8,1244.6 
  1550.21,1244.61 1551.63,1244.61 1553.04,1244.61 1554.45,1244.61 1555.87,1244.62 1557.28,1244.62 1558.69,1244.62 1560.11,1244.62 1561.52,1244.62 1562.93,1244.63 
  1564.35,1244.63 1565.76,1244.63 1567.17,1244.63 1568.59,1244.63 1570,1244.64 1571.41,1244.64 1572.83,1244.64 1574.24,1244.64 1575.65,1244.64 1577.07,1244.64 
  1578.48,1244.65 1579.89,1244.65 1581.31,1244.65 1582.72,1244.65 1584.13,1244.65 1585.55,1244.65 1586.96,1244.65 1588.37,1244.65 1589.79,1244.66 1591.2,1244.66 
  1592.61,1244.66 1594.03,1244.66 1595.44,1244.66 1596.85,1244.66 1598.27,1244.66 1599.68,1244.66 1601.09,1244.66 1602.51,1244.66 1603.92,1244.66 1605.33,1244.66 
  1606.75,1244.66 1608.16,1244.68 1609.57,1244.68 1610.99,1244.68 1612.4,1244.68 1613.81,1244.68 1615.23,1244.68 1616.64,1244.68 1618.05,1244.68 1619.47,1244.68 
  1620.88,1244.68 1622.29,1244.68 1623.71,1244.68 1625.12,1244.68 1626.53,1244.68 1627.95,1244.68 1629.36,1244.68 1630.77,1244.68 1632.19,1244.68 1633.6,1244.68 
  1635.01,1244.68 1636.43,1244.68 1637.84,1244.68 1639.25,1244.68 1640.67,1244.68 1642.08,1244.68 1643.49,1244.68 1644.91,1244.68 1646.32,1244.68 1647.73,1244.68 
  1649.15,1244.68 1650.56,1244.68 1651.97,1244.68 1653.39,1244.68 1654.8,1244.68 1656.21,1244.68 1657.63,1244.68 1659.04,1244.68 1660.45,1244.68 1661.87,1244.68 
  1663.28,1244.68 1664.69,1244.68 1666.11,1244.68 1667.52,1244.68 1668.93,1244.68 1670.35,1244.68 1671.76,1244.68 1673.17,1244.68 1674.59,1244.68 1676,1244.68 
  1677.41,1244.68 1678.83,1244.68 1680.24,1244.68 1681.65,1244.68 1683.07,1244.68 1684.48,1244.68 1685.89,1244.68 1687.31,1244.68 1688.72,1244.68 1690.13,1244.68 
  1691.55,1244.68 1692.96,1244.68 1694.37,1244.68 1695.79,1244.68 1697.2,1244.68 1698.61,1244.68 1700.03,1244.68 1701.44,1244.68 1702.85,1244.68 1704.27,1244.68 
  1705.68,1244.68 1707.09,1244.68 1708.51,1244.68 1709.92,1244.68 1711.33,1244.68 1712.75,1244.68 1714.16,1244.68 1715.57,1244.68 1716.99,1244.68 1718.4,1244.68 
  1719.81,1244.68 1721.23,1244.68 1722.64,1244.68 1724.05,1244.68 1725.47,1244.68 1726.88,1244.68 1728.29,1244.68 1729.71,1244.68 1731.12,1244.68 1732.53,1244.68 
  1733.95,1244.68 1735.36,1244.68 1736.77,1244.68 1738.19,1244.68 1739.6,1244.69 1741.01,1244.69 1742.43,1244.69 1743.84,1244.69 1745.25,1244.69 1746.67,1244.69 
  1748.08,1244.69 1749.49,1244.69 1750.91,1244.69 1752.32,1244.69 1753.73,1244.69 1755.14,1244.69 1756.56,1244.69 1757.97,1244.69 1759.38,1244.69 1760.8,1244.69 
  1762.21,1244.69 1763.62,1244.69 1765.04,1244.69 1766.45,1244.69 1767.86,1244.69 1769.28,1244.69 1770.69,1244.69 1772.1,1244.69 1773.52,1244.69 1774.93,1244.69 
  1776.34,1244.69 1777.76,1244.69 1779.17,1244.69 1780.58,1244.69 1782,1244.69 1783.41,1244.69 1784.82,1244.69 1786.24,1244.69 1787.65,1244.69 1789.06,1244.69 
  1790.48,1244.69 1791.89,1244.69 1793.3,1244.69 1794.72,1244.69 1796.13,1244.69 1797.54,1244.69 1798.96,1244.69 1800.37,1244.69 1801.78,1244.69 1803.2,1244.69 
  1804.61,1244.69 1806.02,1244.69 1807.44,1244.69 1808.85,1244.69 1810.26,1244.69 1811.68,1244.69 1813.09,1244.69 1814.5,1244.69 1815.92,1244.69 1817.33,1244.69 
  1818.74,1244.69 1820.16,1244.69 1821.57,1244.69 1822.98,1244.69 1824.4,1244.69 1825.81,1244.69 1827.22,1244.69 1828.64,1244.69 1830.05,1244.69 1831.46,1244.69 
  1832.88,1244.69 1834.29,1244.69 1835.7,1244.69 1837.12,1244.69 1838.53,1244.69 1839.94,1244.69 1841.36,1244.69 1842.77,1244.69 1844.18,1244.69 1845.6,1244.69 
  1847.01,1244.69 1848.42,1244.69 1849.84,1244.69 1851.25,1244.69 1852.66,1244.69 1854.08,1244.69 1855.49,1244.69 1856.9,1244.69 1858.32,1244.69 1859.73,1244.69 
  1861.14,1244.69 1862.56,1244.6 1863.97,1244.62 1865.38,1244.63 1866.8,1244.64 1868.21,1244.65 1869.62,1244.65 1871.04,1244.66 1872.45,1244.66 1873.86,1244.66 
  1875.28,1244.66 1876.69,1244.67 1878.1,1244.67 1879.52,1244.67 1880.93,1244.67 1882.34,1244.67 1883.76,1244.67 1885.17,1244.67 1886.58,1244.67 1888,1244.67 
  1889.41,1244.67 1890.82,1244.68 1892.24,1244.68 1893.65,1244.68 1895.06,1244.68 1896.48,1244.68 1897.89,1244.68 1899.3,1244.68 1900.72,1244.68 1902.13,1244.68 
  1903.54,1244.68 1904.96,1244.68 1906.37,1244.68 1907.78,1244.68 1909.2,1244.68 1910.61,1244.68 1912.02,1244.68 1913.44,1244.68 1914.85,1244.68 1916.26,1244.68 
  1917.68,1244.68 1919.09,1244.68 1920.5,1244.68 1921.92,1244.68 1923.33,1244.68 1924.74,1244.68 1926.16,1244.68 1927.57,1244.68 1928.98,1244.68 1930.4,1244.68 
  1931.81,1244.68 1933.22,1244.68 1934.64,1244.68 1936.05,1244.68 1937.46,1244.68 1938.88,1244.68 1940.29,1244.68 1941.7,1244.68 1943.12,1244.68 1944.53,1244.68 
  1945.94,1244.68 1947.36,1244.64 1948.77,1244.65 1950.18,1244.66 1951.6,1244.66 1953.01,1244.66 1954.42,1244.67 1955.84,1244.67 1957.25,1244.67 1958.66,1244.67 
  1960.08,1244.67 1961.49,1244.67 1962.9,1244.68 1964.32,1244.68 1965.73,1244.68 1967.14,1244.68 1968.56,1244.68 1969.97,1244.68 1971.38,1244.68 1972.8,1244.68 
  1974.21,1244.68 1975.62,1244.68 1977.04,1244.68 1978.45,1244.68 1979.86,1244.68 1981.28,1244.68 1982.69,1244.68 1984.1,1244.68 1985.52,1244.68 1986.93,1244.68 
  1988.34,1244.68 1989.76,1244.68 1991.17,1244.68 1992.58,1244.68 1994,1244.68 1995.41,1244.68 1996.82,1244.68 1998.24,1244.68 1999.65,1244.68 2001.06,1244.68 
  2002.48,1244.68 2003.89,1244.68 2005.3,1244.68 2006.72,1244.68 2008.13,1244.68 2009.54,1244.68 2010.96,1244.68 2012.37,1244.68 2013.78,1244.68 2015.2,1244.68 
  2016.61,1244.68 2018.02,1244.68 2019.44,1244.68 2020.85,1244.68 2022.26,1244.68 2023.68,1244.68 2025.09,1244.68 2026.5,1244.68 2027.92,1244.68 2029.33,1244.68 
  2030.74,1244.68 2032.16,1244.69 2033.57,1244.69 2034.98,1244.69 2036.4,1244.69 2037.81,1244.69 2039.22,1244.69 2040.64,1244.69 2042.05,1244.69 2043.46,1244.69 
  2044.88,1244.69 2046.29,1244.69 2047.7,1244.69 2049.12,1244.69 2050.53,1244.69 2051.94,1244.69 2053.36,1244.69 2054.77,1244.69 2056.18,1244.69 2057.6,1244.69 
  2059.01,1244.69 2060.42,1244.69 2061.84,1244.69 2063.25,1244.69 2064.66,1244.69 2066.08,1244.69 2067.49,1244.69 2068.9,1244.69 2070.32,1244.69 2071.73,1244.69 
  2073.14,1244.69 2074.56,1244.69 2075.97,1244.69 2077.38,1244.69 2078.8,1244.69 2080.21,1244.69 2081.62,1244.69 2083.04,1244.69 2084.45,1244.69 2085.86,1244.69 
  2087.28,1244.69 2088.69,1244.69 2090.1,1244.69 2091.52,1244.69 2092.93,1244.69 2094.34,1244.69 2095.76,1244.69 2097.17,1244.69 2098.58,1244.69 2100,1244.69 
  2101.41,1244.69 2102.82,1244.69 2104.24,1244.69 2105.65,1244.69 2107.06,1244.69 2108.48,1244.69 2109.89,1244.69 2111.3,1244.69 2112.72,1244.69 2114.13,1244.69 
  2115.54,1244.69 2116.96,1244.66 2118.37,1244.67 2119.78,1244.67 2121.2,1244.68 2122.61,1244.68 2124.02,1244.68 2125.44,1244.69 2126.85,1244.69 2128.26,1244.69 
  2129.68,1244.69 2131.09,1244.69 2132.5,1244.7 2133.92,1244.7 2135.33,1244.7 2136.74,1244.7 2138.16,1244.7 2139.57,1244.7 2140.98,1244.7 2142.4,1244.7 
  2143.81,1244.71 2145.22,1244.71 2146.64,1244.71 2148.05,1244.71 2149.46,1244.71 2150.88,1244.71 2152.29,1244.71 2153.7,1244.71 2155.12,1244.71 2156.53,1244.71 
  2157.94,1244.71 2159.36,1244.71 2160.77,1244.72 2162.18,1244.72 2163.6,1244.72 2165.01,1244.72 2166.42,1244.72 2167.84,1244.72 2169.25,1244.72 2170.66,1244.72 
  2172.08,1244.72 2173.49,1244.72 2174.9,1244.72 2176.32,1244.72 2177.73,1244.72 2179.14,1244.72 2180.56,1244.72 2181.97,1244.72 2183.38,1244.72 2184.8,1244.72 
  2186.21,1244.72 2187.62,1244.72 2189.04,1244.72 2190.45,1244.72 2191.86,1244.72 2193.28,1244.72 2194.69,1244.72 2196.1,1244.73 2197.52,1244.73 2198.93,1244.73 
  2200.34,1244.73 2201.76,1244.65 2203.17,1244.66 2204.58,1244.67 2206,1244.67 2207.41,1244.68 2208.82,1244.68 2210.24,1244.68 2211.65,1244.68 2213.06,1244.69 
  2214.48,1244.69 2215.89,1244.69 2217.3,1244.69 2218.72,1244.69 2220.13,1244.7 2221.54,1244.7 2222.96,1244.7 2224.37,1244.7 2225.78,1244.7 2227.2,1244.7 
  2228.61,1244.7 2230.02,1244.7 2231.44,1244.7 2232.85,1244.7 2234.26,1244.71 2235.68,1244.71 2237.09,1244.71 2238.5,1244.71 2239.92,1244.71 2241.33,1244.71 
  2242.74,1244.71 2244.16,1244.71 2245.57,1244.71 2246.98,1244.71 2248.4,1244.71 2249.81,1244.71 2251.22,1244.71 2252.64,1244.71 2254.05,1244.71 2255.46,1244.71 
  2256.88,1244.71 2258.29,1244.72 2259.7,1244.72 2261.12,1244.72 2262.53,1244.72 2263.94,1244.72 2265.36,1244.72 2266.77,1244.72 2268.18,1244.72 2269.6,1244.72 
  2271.01,1244.72 2272.42,1244.72 2273.84,1244.72 2275.25,1244.72 2276.66,1244.72 2278.08,1244.72 2279.49,1244.72 2280.9,1244.72 2282.32,1244.72 2283.73,1244.72 
  2285.14,1244.72 2286.56,1244.65 2287.97,1244.66 2289.38,1244.66 2290.8,1244.67 2292.21,1244.67 2293.62,1244.68 2295.04,1244.68 2296.45,1244.68 2297.86,1244.68 
  2299.28,1244.68 2300.69,1244.69 2302.1,1244.69 2303.52,1244.69 2304.93,1244.69 2306.34,1244.69 2307.76,1244.69 2309.17,1244.69 2310.58,1244.69 2312,1244.69 
  2313.41,1244.69 2314.82,1244.69 2316.24,1244.7 2317.65,1244.7 2319.06,1244.7 2320.48,1244.7 2321.89,1244.7 2323.3,1244.7 2324.72,1244.7 2326.13,1244.7 
  2327.54,1244.7 2328.96,1244.7 2330.37,1244.7 2331.78,1244.7 2333.2,1244.7 2334.61,1244.7 2336.02,1244.7 2337.44,1244.7 2338.85,1244.7 2340.26,1244.7 
  2341.68,1244.7 2343.09,1244.7 2344.5,1244.7 2345.92,1244.7 2347.33,1244.7 2348.74,1244.7 2350.16,1244.7 2351.57,1244.71 2352.98,1244.71 2354.4,1244.71 
  2355.81,1244.71 2357.22,1244.71 2358.64,1244.71 2360.05,1244.71 2361.46,1244.71 2362.88,1244.71 2364.29,1244.71 2365.7,1244.71 2367.12,1244.71 2368.53,1244.71 
  2369.94,1244.71 2371.36,1244.59 2372.77,1244.61 2374.18,1244.63 2375.6,1244.64 2377.01,1244.65 2378.42,1244.66 2379.84,1244.66 2381.25,1244.66 2382.66,1244.67 
  2384.08,1244.67 2385.49,1244.67 2386.9,1244.68 2388.32,1244.68 2389.73,1244.68 2391.14,1244.68 2392.56,1244.68 2393.97,1244.68 2395.38,1244.68 2396.8,1244.68 
  2398.21,1244.69 2399.62,1244.69 2401.04,1244.69 2402.45,1244.69 2403.86,1244.69 2405.28,1244.69 2406.69,1244.69 2408.1,1244.69 2409.52,1244.69 2410.93,1244.69 
  2412.34,1244.69 2413.76,1244.69 2415.17,1244.69 2416.58,1244.69 2418,1244.69 2419.41,1244.69 2420.82,1244.69 2422.24,1244.69 2423.65,1244.69 2425.06,1244.69 
  2426.48,1244.69 2427.89,1244.69 2429.3,1244.69 2430.72,1244.69 2432.13,1244.69 2433.54,1244.69 2434.96,1244.69 2436.37,1244.69 2437.78,1244.69 2439.2,1244.69 
  2440.61,1244.69 2442.02,1244.69 2443.44,1244.69 2444.85,1244.69 2446.26,1244.7 2447.68,1244.7 2449.09,1244.7 2450.5,1244.7 2451.92,1244.7 2453.33,1244.7 
  2454.74,1244.7 2456.16,1244.68 2457.57,1244.68 2458.98,1244.68 2460.4,1244.68 2461.81,1244.69 2463.22,1244.69 2464.64,1244.69 2466.05,1244.69 2467.46,1244.69 
  2468.88,1244.69 2470.29,1244.69 2471.7,1244.69 2473.12,1244.69 2474.53,1244.69 2475.94,1244.69 2477.36,1244.69 2478.77,1244.69 2480.18,1244.69 2481.6,1244.69 
  2483.01,1244.69 2484.42,1244.69 2485.84,1244.69 2487.25,1244.69 2488.66,1244.69 2490.08,1244.69 2491.49,1244.69 2492.9,1244.69 2494.32,1244.69 2495.73,1244.69 
  2497.14,1244.69 2498.56,1244.69 2499.97,1244.69 2501.38,1244.69 2502.8,1244.69 2504.21,1244.69 2505.62,1244.69 2507.04,1244.69 2508.45,1244.69 2509.86,1244.69 
  2511.28,1244.7 2512.69,1244.7 2514.1,1244.7 2515.52,1244.7 2516.93,1244.7 2518.34,1244.7 2519.76,1244.7 2521.17,1244.7 2522.58,1244.7 2524,1244.7 
  2525.41,1244.7 2526.82,1244.7 2528.24,1244.7 2529.65,1244.7 2531.06,1244.7 2532.48,1244.7 2533.89,1244.7 2535.3,1244.7 2536.72,1244.7 2538.13,1244.7 
  2539.54,1244.7 2540.96,1244.68 2542.37,1244.68 2543.78,1244.68 2545.2,1244.69 2546.61,1244.69 2548.02,1244.69 2549.44,1244.69 2550.85,1244.69 2552.26,1244.69 
  2553.68,1244.69 2555.09,1244.69 2556.5,1244.69 2557.92,1244.69 2559.33,1244.69 2560.74,1244.69 2562.16,1244.69 2563.57,1244.7 2564.98,1244.7 2566.4,1244.7 
  2567.81,1244.7 2569.22,1244.7 2570.64,1244.7 2572.05,1244.7 2573.46,1244.7 2574.88,1244.7 2576.29,1244.7 2577.7,1244.7 2579.12,1244.7 2580.53,1244.7 
  2581.94,1244.7 2583.36,1244.7 2584.77,1244.7 2586.18,1244.7 2587.6,1244.7 2589.01,1244.7 2590.42,1244.7 2591.84,1244.7 2593.25,1244.7 2594.66,1244.7 
  2596.08,1244.7 2597.49,1244.7 2598.9,1244.7 2600.32,1244.7 2601.73,1244.7 2603.14,1244.7 2604.56,1244.7 2605.97,1244.7 2607.38,1244.7 2608.8,1244.7 
  2610.21,1244.7 2611.62,1244.7 2613.04,1244.7 2614.45,1244.71 2615.86,1244.71 2617.28,1244.71 2618.69,1244.71 2620.1,1244.71 2621.52,1244.71 2622.93,1244.71 
  2624.34,1244.71 2625.76,1244.67 2627.17,1244.67 2628.58,1244.68 2630,1244.68 2631.41,1244.68 2632.82,1244.68 2634.24,1244.69 2635.65,1244.69 2637.06,1244.69 
  2638.48,1244.69 2639.89,1244.69 2641.3,1244.69 2642.72,1244.69 2644.13,1244.69 2645.54,1244.7 2646.96,1244.7 2648.37,1244.7 2649.78,1244.7 2651.2,1244.7 
  2652.61,1244.7 2654.02,1244.7 2655.44,1244.7 2656.85,1244.7 2658.26,1244.7 2659.68,1244.7 2661.09,1244.7 2662.5,1244.7 2663.92,1244.7 2665.33,1244.7 
  2666.74,1244.7 2668.16,1244.7 2669.57,1244.7 2670.98,1244.7 2672.4,1244.7 2673.81,1244.7 2675.22,1244.7 2676.64,1244.7 2678.05,1244.7 2679.46,1244.7 
  2680.88,1244.71 2682.29,1244.71 2683.7,1244.71 2685.12,1244.71 2686.53,1244.71 2687.94,1244.71 2689.36,1244.71 2690.77,1244.71 2692.18,1244.71 2693.6,1244.71 
  2695.01,1244.71 2696.42,1244.71 2697.84,1244.71 2699.25,1244.71 2700.66,1244.71 2702.08,1244.71 2703.49,1244.71 2704.9,1244.71 2706.32,1244.71 2707.73,1244.71 
  2709.14,1244.71 2710.56,1244.69 2711.97,1244.69 2713.38,1244.7 2714.8,1244.7 2716.21,1244.7 2717.62,1244.7 2719.04,1244.7 2720.45,1244.7 2721.86,1244.7 
  2723.28,1244.7 2724.69,1244.71 2726.1,1244.71 2727.52,1244.71 2728.93,1244.71 2730.34,1244.71 2731.76,1244.71 2733.17,1244.71 2734.58,1244.71 2736,1244.71 
  2737.41,1244.71 2738.82,1244.71 2740.24,1244.71 2741.65,1244.71 2743.06,1244.71 2744.48,1244.71 2745.89,1244.71 2747.3,1244.71 2748.72,1244.71 2750.13,1244.71 
  2751.54,1244.71 2752.96,1244.71 2754.37,1244.72 2755.78,1244.72 2757.2,1244.72 2758.61,1244.72 2760.02,1244.72 2761.44,1244.72 2762.85,1244.72 2764.26,1244.72 
  2765.68,1244.72 2767.09,1244.72 2768.5,1244.72 2769.92,1244.72 2771.33,1244.72 2772.74,1244.72 2774.16,1244.72 2775.57,1244.72 2776.98,1244.72 2778.4,1244.72 
  2779.81,1244.72 2781.22,1244.72 2782.64,1244.72 2784.05,1244.72 2785.46,1244.73 2786.88,1244.73 2788.29,1244.73 2789.7,1244.73 2791.12,1244.73 2792.53,1244.73 
  
  "/>
</svg>
