<?xml version="1.0" encoding="utf-8"?>
<svg xmlns="http://www.w3.org/2000/svg" xmlns:xlink="http://www.w3.org/1999/xlink" width="800" height="400" viewBox="0 0 3200 1600">
<defs>
  <clipPath id="clip0900">
    <rect x="0" y="0" width="3200" height="1600"/>
  </clipPath>
</defs>
<polygon clip-path="url(#clip0900)" points="
0,1600 3200,1600 3200,0 0,0 
  " fill="#ffffff" fill-rule="evenodd" fill-opacity="1"/>
<defs>
  <clipPath id="clip0901">
    <rect x="640" y="0" width="2241" height="1600"/>
  </clipPath>
</defs>
<polygon clip-path="url(#clip0900)" points="
600.755,1275.5 2853.54,1275.5 2853.54,188.976 600.755,188.976 
  " fill="#ffffff" fill-rule="evenodd" fill-opacity="1"/>
<defs>
  <clipPath id="clip0902">
    <rect x="600" y="188" width="2254" height="1088"/>
  </clipPath>
</defs>
<polyline clip-path="url(#clip0902)" style="stroke:#000000; stroke-width:2; stroke-opacity:0.1; fill:none" points="
  663.036,1275.5 663.036,188.976 
  "/>
<polyline clip-path="url(#clip0902)" style="stroke:#000000; stroke-width:2; stroke-opacity:0.1; fill:none" points="
  1017.49,1275.5 1017.49,188.976 
  "/>
<polyline clip-path="url(#clip0902)" style="stroke:#000000; stroke-width:2; stroke-opacity:0.1; fill:none" points="
  1371.95,1275.5 1371.95,188.976 
  "/>
<polyline clip-path="url(#clip0902)" style="stroke:#000000; stroke-width:2; stroke-opacity:0.1; fill:none" points="
  1726.41,1275.5 1726.41,188.976 
  "/>
<polyline clip-path="url(#clip0902)" style="stroke:#000000; stroke-width:2; stroke-opacity:0.1; fill:none" points="
  2080.87,1275.5 2080.87,188.976 
  "/>
<polyline clip-path="url(#clip0902)" style="stroke:#000000; stroke-width:2; stroke-opacity:0.1; fill:none" points="
  2435.33,1275.5 2435.33,188.976 
  "/>
<polyline clip-path="url(#clip0902)" style="stroke:#000000; stroke-width:2; stroke-opacity:0.1; fill:none" points="
  2789.79,1275.5 2789.79,188.976 
  "/>
<polyline clip-path="url(#clip0902)" style="stroke:#000000; stroke-width:2; stroke-opacity:0.1; fill:none" points="
  600.755,1244.75 2853.54,1244.75 
  "/>
<polyline clip-path="url(#clip0902)" style="stroke:#000000; stroke-width:2; stroke-opacity:0.1; fill:none" points="
  600.755,988.496 2853.54,988.496 
  "/>
<polyline clip-path="url(#clip0902)" style="stroke:#000000; stroke-width:2; stroke-opacity:0.1; fill:none" points="
  600.755,732.24 2853.54,732.24 
  "/>
<polyline clip-path="url(#clip0902)" style="stroke:#000000; stroke-width:2; stroke-opacity:0.1; fill:none" points="
  600.755,475.983 2853.54,475.983 
  "/>
<polyline clip-path="url(#clip0902)" style="stroke:#000000; stroke-width:2; stroke-opacity:0.1; fill:none" points="
  600.755,219.727 2853.54,219.727 
  "/>
<polyline clip-path="url(#clip0900)" style="stroke:#000000; stroke-width:4; stroke-opacity:1; fill:none" points="
  600.755,1275.5 2853.54,1275.5 
  "/>
<polyline clip-path="url(#clip0900)" style="stroke:#000000; stroke-width:4; stroke-opacity:1; fill:none" points="
  600.755,1275.5 600.755,188.976 
  "/>
<polyline clip-path="url(#clip0900)" style="stroke:#000000; stroke-width:4; stroke-opacity:1; fill:none" points="
  663.036,1275.5 663.036,1259.21 
  "/>
<polyline clip-path="url(#clip0900)" style="stroke:#000000; stroke-width:4; stroke-opacity:1; fill:none" points="
  1017.49,1275.5 1017.49,1259.21 
  "/>
<polyline clip-path="url(#clip0900)" style="stroke:#000000; stroke-width:4; stroke-opacity:1; fill:none" points="
  1371.95,1275.5 1371.95,1259.21 
  "/>
<polyline clip-path="url(#clip0900)" style="stroke:#000000; stroke-width:4; stroke-opacity:1; fill:none" points="
  1726.41,1275.5 1726.41,1259.21 
  "/>
<polyline clip-path="url(#clip0900)" style="stroke:#000000; stroke-width:4; stroke-opacity:1; fill:none" points="
  2080.87,1275.5 2080.87,1259.21 
  "/>
<polyline clip-path="url(#clip0900)" style="stroke:#000000; stroke-width:4; stroke-opacity:1; fill:none" points="
  2435.33,1275.5 2435.33,1259.21 
  "/>
<polyline clip-path="url(#clip0900)" style="stroke:#000000; stroke-width:4; stroke-opacity:1; fill:none" points="
  2789.79,1275.5 2789.79,1259.21 
  "/>
<polyline clip-path="url(#clip0900)" style="stroke:#000000; stroke-width:4; stroke-opacity:1; fill:none" points="
  600.755,1244.75 634.547,1244.75 
  "/>
<polyline clip-path="url(#clip0900)" style="stroke:#000000; stroke-width:4; stroke-opacity:1; fill:none" points="
  600.755,988.496 634.547,988.496 
  "/>
<polyline clip-path="url(#clip0900)" style="stroke:#000000; stroke-width:4; stroke-opacity:1; fill:none" points="
  600.755,732.24 634.547,732.24 
  "/>
<polyline clip-path="url(#clip0900)" style="stroke:#000000; stroke-width:4; stroke-opacity:1; fill:none" points="
  600.755,475.983 634.547,475.983 
  "/>
<polyline clip-path="url(#clip0900)" style="stroke:#000000; stroke-width:4; stroke-opacity:1; fill:none" points="
  600.755,219.727 634.547,219.727 
  "/>
<g clip-path="url(#clip0900)">
<text style="fill:#000000; fill-opacity:1; font-family:Arial,Helvetica Neue,Helvetica,sans-serif; font-size:71px; text-anchor:middle;" transform="rotate(0, 663.036, 1353.9)" x="663.036" y="1353.9">0</text>
</g>
<g clip-path="url(#clip0900)">
<text style="fill:#000000; fill-opacity:1; font-family:Arial,Helvetica Neue,Helvetica,sans-serif; font-size:71px; text-anchor:middle;" transform="rotate(0, 1017.49, 1353.9)" x="1017.49" y="1353.9">4</text>
</g>
<g clip-path="url(#clip0900)">
<text style="fill:#000000; fill-opacity:1; font-family:Arial,Helvetica Neue,Helvetica,sans-serif; font-size:71px; text-anchor:middle;" transform="rotate(0, 1371.95, 1353.9)" x="1371.95" y="1353.9">8</text>
</g>
<g clip-path="url(#clip0900)">
<text style="fill:#000000; fill-opacity:1; font-family:Arial,Helvetica Neue,Helvetica,sans-serif; font-size:71px; text-anchor:middle;" transform="rotate(0, 1726.41, 1353.9)" x="1726.41" y="1353.9">12</text>
</g>
<g clip-path="url(#clip0900)">
<text style="fill:#000000; fill-opacity:1; font-family:Arial,Helvetica Neue,Helvetica,sans-serif; font-size:71px; text-anchor:middle;" transform="rotate(0, 2080.87, 1353.9)" x="2080.87" y="1353.9">16</text>
</g>
<g clip-path="url(#clip0900)">
<text style="fill:#000000; fill-opacity:1; font-family:Arial,Helvetica Neue,Helvetica,sans-serif; font-size:71px; text-anchor:middle;" transform="rotate(0, 2435.33, 1353.9)" x="2435.33" y="1353.9">20</text>
</g>
<g clip-path="url(#clip0900)">
<text style="fill:#000000; fill-opacity:1; font-family:Arial,Helvetica Neue,Helvetica,sans-serif; font-size:71px; text-anchor:middle;" transform="rotate(0, 2789.79, 1353.9)" x="2789.79" y="1353.9">24</text>
</g>
<g clip-path="url(#clip0900)">
<text style="fill:#000000; fill-opacity:1; font-family:Arial,Helvetica Neue,Helvetica,sans-serif; font-size:71px; text-anchor:end;" transform="rotate(0, 568.755, 1270.75)" x="568.755" y="1270.75">0.00</text>
</g>
<g clip-path="url(#clip0900)">
<text style="fill:#000000; fill-opacity:1; font-family:Arial,Helvetica Neue,Helvetica,sans-serif; font-size:71px; text-anchor:end;" transform="rotate(0, 568.755, 1014.5)" x="568.755" y="1014.5">0.25</text>
</g>
<g clip-path="url(#clip0900)">
<text style="fill:#000000; fill-opacity:1; font-family:Arial,Helvetica Neue,Helvetica,sans-serif; font-size:71px; text-anchor:end;" transform="rotate(0, 568.755, 758.24)" x="568.755" y="758.24">0.50</text>
</g>
<g clip-path="url(#clip0900)">
<text style="fill:#000000; fill-opacity:1; font-family:Arial,Helvetica Neue,Helvetica,sans-serif; font-size:71px; text-anchor:end;" transform="rotate(0, 568.755, 501.983)" x="568.755" y="501.983">0.75</text>
</g>
<g clip-path="url(#clip0900)">
<text style="fill:#000000; fill-opacity:1; font-family:Arial,Helvetica Neue,Helvetica,sans-serif; font-size:71px; text-anchor:end;" transform="rotate(0, 568.755, 245.727)" x="568.755" y="245.727">1.00</text>
</g>
<g clip-path="url(#clip0900)">
<text style="fill:#000000; fill-opacity:1; font-family:Arial,Helvetica Neue,Helvetica,sans-serif; font-size:95px; text-anchor:middle;" transform="rotate(0, 1727.15, 1469.75)" x="1727.15" y="1469.75">Time (hours)</text>
</g>
<g clip-path="url(#clip0900)">
<text style="fill:#000000; fill-opacity:1; font-family:Arial,Helvetica Neue,Helvetica,sans-serif; font-size:95px; text-anchor:middle;" transform="rotate(-90, 378.453, 732.24)" x="378.453" y="732.24">Probability of Wait </text>
</g>
<polyline clip-path="url(#clip0902)" style="stroke:#009af9; stroke-width:4; stroke-opacity:1; fill:none" points="
  664.513,219.727 665.99,219.727 667.467,219.727 668.944,219.727 670.421,219.727 671.897,219.727 673.374,219.727 674.851,219.727 676.328,219.727 677.805,219.727 
  679.282,219.727 680.759,219.727 682.236,219.727 683.713,219.727 685.19,219.727 686.667,219.727 688.143,219.727 689.62,219.727 691.097,219.727 692.574,219.727 
  694.051,219.727 695.528,219.727 697.005,219.727 698.482,219.727 699.959,219.727 701.436,219.727 702.913,219.727 704.389,219.727 705.866,219.727 707.343,219.727 
  708.82,219.727 710.297,219.727 711.774,219.727 713.251,219.727 714.728,219.727 716.205,219.727 717.682,219.727 719.159,219.727 720.635,219.727 722.112,219.727 
  723.589,219.727 725.066,219.727 726.543,219.727 728.02,219.727 729.497,219.727 730.974,219.727 732.451,219.727 733.928,219.727 735.405,219.727 736.881,219.727 
  738.358,219.727 739.835,219.727 741.312,219.727 742.789,219.727 744.266,219.727 745.743,219.727 747.22,219.727 748.697,219.727 750.174,219.727 751.651,219.727 
  753.127,219.727 754.604,219.734 756.081,219.735 757.558,219.736 759.035,219.737 760.512,219.738 761.989,219.74 763.466,219.742 764.943,219.744 766.42,219.746 
  767.897,219.748 769.373,219.751 770.85,219.755 772.327,219.758 773.804,219.762 775.281,219.767 776.758,219.773 778.235,219.779 779.712,219.786 781.189,219.793 
  782.666,219.802 784.143,219.812 785.619,219.824 787.096,219.836 788.573,219.851 790.05,219.867 791.527,219.885 793.004,219.906 794.481,219.929 795.958,219.956 
  797.435,219.985 798.912,220.019 800.389,220.056 801.865,220.099 803.342,220.146 804.819,220.2 806.296,220.26 807.773,220.328 809.25,220.404 810.727,220.489 
  812.204,220.585 813.681,220.693 815.158,220.813 816.635,220.948 818.111,221.099 819.588,221.269 821.065,221.458 822.542,221.67 824.019,221.907 825.496,222.171 
  826.973,222.467 828.45,222.796 829.927,223.164 831.404,223.573 832.881,224.029 834.357,224.537 835.834,225.102 837.311,225.729 838.788,226.426 840.265,227.2 
  841.742,228.058 843.219,226.148 844.696,226.429 846.173,226.722 847.65,227.027 849.127,227.345 850.603,227.676 852.08,228.02 853.557,228.378 855.034,228.752 
  856.511,229.14 857.988,229.544 859.465,229.965 860.942,230.403 862.419,230.858 863.896,231.332 865.373,231.824 866.849,232.337 868.326,232.869 869.803,233.423 
  871.28,233.999 872.757,234.598 874.234,235.22 875.711,235.866 877.188,236.538 878.665,237.236 880.142,237.96 881.619,238.713 883.095,239.495 884.572,240.307 
  886.049,241.149 887.526,242.024 889.003,242.932 890.48,243.874 891.957,244.851 893.434,245.865 894.911,246.917 896.388,248.007 897.865,249.138 899.341,250.31 
  900.818,251.526 902.295,252.785 903.772,254.09 905.249,255.442 906.726,256.843 908.203,258.293 909.68,259.796 911.157,261.351 912.634,262.961 914.111,264.627 
  915.587,266.351 917.064,268.134 918.541,269.979 920.018,271.887 921.495,273.86 922.972,275.899 924.449,278.007 925.926,280.186 927.403,282.436 928.88,284.761 
  930.357,287.161 931.833,231.004 933.31,231.316 934.787,231.636 936.264,231.965 937.741,232.303 939.218,232.649 940.695,233.005 942.172,233.37 943.649,233.744 
  945.126,234.128 946.603,234.522 948.079,234.927 949.556,235.342 951.033,235.768 952.51,236.205 953.987,236.653 955.464,237.113 956.941,237.585 958.418,238.069 
  959.895,238.565 961.372,239.074 962.849,239.596 964.325,240.132 965.802,240.681 967.279,241.244 968.756,241.821 970.233,242.413 971.71,243.02 973.187,243.643 
  974.664,244.281 976.141,244.935 977.618,245.606 979.095,246.293 980.571,246.998 982.048,247.72 983.525,248.46 985.002,249.218 986.479,249.995 987.956,250.792 
  989.433,251.608 990.91,252.444 992.387,253.301 993.864,254.178 995.341,255.077 996.817,255.998 998.294,256.941 999.771,257.907 1001.25,258.897 1002.73,259.91 
  1004.2,260.948 1005.68,262.01 1007.16,263.098 1008.63,264.212 1010.11,265.352 1011.59,266.52 1013.06,267.715 1014.54,268.938 1016.02,270.19 1017.49,271.471 
  1018.97,272.782 1020.45,382.889 1021.92,379.447 1023.4,376.062 1024.88,372.735 1026.36,369.465 1027.83,366.251 1029.31,363.093 1030.79,359.991 1032.26,356.943 
  1033.74,353.949 1035.22,351.009 1036.69,348.122 1038.17,345.287 1039.65,342.504 1041.12,339.772 1042.6,337.091 1044.08,334.459 1045.56,331.878 1047.03,329.345 
  1048.51,326.86 1049.99,324.422 1051.46,322.032 1052.94,319.688 1054.42,317.39 1055.89,315.136 1057.37,312.927 1058.85,310.762 1060.32,308.64 1061.8,306.561 
  1063.28,304.523 1064.76,302.527 1066.23,300.572 1067.71,298.657 1069.19,296.781 1070.66,294.944 1072.14,293.145 1073.62,291.384 1075.09,289.659 1076.57,287.972 
  1078.05,286.32 1079.52,284.703 1081,283.121 1082.48,281.573 1083.96,280.058 1085.43,278.577 1086.91,277.128 1088.39,275.71 1089.86,274.324 1091.34,272.968 
  1092.82,271.642 1094.29,270.346 1095.77,269.079 1097.25,267.841 1098.72,266.63 1100.2,265.447 1101.68,264.291 1103.15,263.161 1104.63,262.057 1106.11,260.978 
  1107.59,259.925 1109.06,275.705 1110.54,266.095 1112.02,257.997 1113.49,251.205 1114.97,245.534 1116.45,240.819 1117.92,236.915 1119.4,233.695 1120.88,231.047 
  1122.35,228.878 1123.83,227.107 1125.31,225.664 1126.79,224.493 1128.26,223.545 1129.74,222.779 1131.22,222.162 1132.69,221.666 1134.17,221.269 1135.65,220.95 
  1137.12,220.696 1138.6,220.494 1140.08,220.333 1141.55,220.205 1143.03,220.103 1144.51,220.023 1145.99,219.959 1147.46,219.909 1148.94,219.87 1150.42,219.839 
  1151.89,219.814 1153.37,219.795 1154.85,219.78 1156.32,219.769 1157.8,219.759 1159.28,219.752 1160.75,219.747 1162.23,219.742 1163.71,219.739 1165.19,219.736 
  1166.66,219.734 1168.14,219.733 1169.62,219.731 1171.09,219.73 1172.57,219.73 1174.05,219.729 1175.52,219.729 1177,219.728 1178.48,219.728 1179.95,219.728 
  1181.43,219.728 1182.91,219.728 1184.38,219.727 1185.86,219.727 1187.34,219.727 1188.82,219.727 1190.29,219.727 1191.77,219.727 1193.25,219.727 1194.72,219.727 
  1196.2,219.727 1197.68,1242.17 1199.15,1240.95 1200.63,1239.28 1202.11,1237.03 1203.58,1234.06 1205.06,1230.2 1206.54,1225.29 1208.02,1219.13 1209.49,1211.53 
  1210.97,1202.28 1212.45,1191.18 1213.92,1178.04 1215.4,1162.69 1216.88,1144.97 1218.35,1124.75 1219.83,1101.97 1221.31,1076.56 1222.78,1048.55 1224.26,1017.99 
  1225.74,985.012 1227.22,949.78 1228.69,912.534 1230.17,873.561 1231.65,833.2 1233.12,791.827 1234.6,749.854 1236.08,707.71 1237.55,665.835 1239.03,624.661 
  1240.51,584.603 1241.98,546.043 1243.46,509.321 1244.94,474.724 1246.42,442.478 1247.89,412.746 1249.37,385.627 1250.85,361.156 1252.32,339.309 1253.8,320.01 
  1255.28,303.14 1256.75,288.545 1258.23,276.047 1259.71,265.451 1261.18,256.556 1262.66,249.161 1264.14,243.07 1265.61,238.1 1267.09,234.08 1268.57,230.858 
  1270.05,228.298 1271.52,226.28 1273,224.702 1274.48,223.479 1275.95,222.538 1277.43,221.819 1278.91,221.274 1280.38,220.864 1281.86,220.557 1283.34,220.33 
  1284.81,220.162 1286.29,1244.75 1287.77,1244.75 1289.25,1244.75 1290.72,1244.75 1292.2,1244.75 1293.68,1244.75 1295.15,1244.75 1296.63,1244.75 1298.11,1244.75 
  1299.58,1244.75 1301.06,1244.75 1302.54,1244.75 1304.01,1244.75 1305.49,1244.75 1306.97,1244.75 1308.45,1244.75 1309.92,1244.75 1311.4,1244.75 1312.88,1244.75 
  1314.35,1244.75 1315.83,1244.75 1317.31,1244.75 1318.78,1244.75 1320.26,1244.74 1321.74,1244.74 1323.21,1244.73 1324.69,1244.72 1326.17,1244.7 1327.65,1244.68 
  1329.12,1244.65 1330.6,1244.61 1332.08,1244.56 1333.55,1244.48 1335.03,1244.38 1336.51,1244.24 1337.98,1244.06 1339.46,1243.82 1340.94,1243.51 1342.41,1243.12 
  1343.89,1242.62 1345.37,1241.98 1346.84,1241.18 1348.32,1240.19 1349.8,1238.97 1351.28,1237.47 1352.75,1235.65 1354.23,1233.45 1355.71,1230.81 1357.18,1227.67 
  1358.66,1223.97 1360.14,1219.62 1361.61,1214.54 1363.09,1208.67 1364.57,1201.9 1366.04,1194.17 1367.52,1185.38 1369,1175.44 1370.48,1164.29 1371.95,1151.84 
  1373.43,1138.03 1374.91,1244.75 1376.38,1244.75 1377.86,1244.75 1379.34,1244.75 1380.81,1244.75 1382.29,1244.75 1383.77,1244.75 1385.24,1244.75 1386.72,1244.75 
  1388.2,1244.75 1389.68,1244.75 1391.15,1244.75 1392.63,1244.75 1394.11,1244.75 1395.58,1244.75 1397.06,1244.75 1398.54,1244.75 1400.01,1244.75 1401.49,1244.75 
  1402.97,1244.74 1404.44,1244.72 1405.92,1244.68 1407.4,1244.6 1408.88,1244.45 1410.35,1244.16 1411.83,1243.64 1413.31,1242.74 1414.78,1241.23 1416.26,1238.8 
  1417.74,1235.01 1419.21,1229.31 1420.69,1221 1422.17,1209.26 1423.64,1193.19 1425.12,1171.85 1426.6,1144.32 1428.07,1109.85 1429.55,1067.9 1431.03,1018.3 
  1432.51,961.324 1433.98,897.75 1435.46,828.893 1436.94,756.548 1438.41,682.881 1439.89,610.253 1441.37,541 1442.84,477.199 1444.32,420.463 1445.8,371.804 
  1447.27,331.58 1448.75,299.54 1450.23,274.953 1451.71,256.774 1453.18,243.819 1454.66,234.915 1456.14,229.012 1457.61,225.232 1459.09,222.894 1460.57,221.495 
  1462.04,220.686 1463.52,1191.85 1465,1180.38 1466.47,1167.06 1467.95,1151.74 1469.43,1134.27 1470.91,1114.55 1472.38,1092.47 1473.86,1067.98 1475.34,1041.06 
  1476.81,1011.74 1478.29,980.098 1479.77,946.262 1481.24,910.416 1482.72,872.796 1484.2,833.689 1485.67,793.428 1487.15,752.385 1488.63,710.962 1490.11,669.578 
  1491.58,628.66 1493.06,588.628 1494.54,549.881 1496.01,512.787 1497.49,477.665 1498.97,444.785 1500.44,414.351 1501.92,386.505 1503.4,361.322 1504.87,338.812 
  1506.35,318.926 1507.83,301.566 1509.3,286.588 1510.78,273.817 1512.26,263.056 1513.74,254.094 1515.21,246.717 1516.69,240.714 1518.17,235.886 1519.64,232.046 
  1521.12,229.027 1522.6,226.679 1524.07,224.873 1525.55,223.5 1527.03,222.466 1528.5,221.697 1529.98,221.13 1531.46,220.717 1532.94,220.419 1534.41,220.206 
  1535.89,220.056 1537.37,219.951 1538.84,219.878 1540.32,219.828 1541.8,219.794 1543.27,219.771 1544.75,219.755 1546.23,219.745 1547.7,219.739 1549.18,219.735 
  1550.66,219.732 1552.14,221.382 1553.61,221.428 1555.09,221.475 1556.57,221.524 1558.04,221.573 1559.52,221.624 1561,221.677 1562.47,221.73 1563.95,221.785 
  1565.43,221.841 1566.9,221.899 1568.38,221.958 1569.86,222.019 1571.34,222.081 1572.81,222.144 1574.29,222.209 1575.77,222.276 1577.24,222.345 1578.72,222.415 
  1580.2,222.486 1581.67,222.56 1583.15,222.635 1584.63,222.712 1586.1,222.791 1587.58,222.872 1589.06,222.954 1590.53,223.039 1592.01,223.126 1593.49,223.215 
  1594.97,223.305 1596.44,223.398 1597.92,223.493 1599.4,223.591 1600.87,223.69 1602.35,223.792 1603.83,223.896 1605.3,224.003 1606.78,224.112 1608.26,224.224 
  1609.73,224.338 1611.21,224.455 1612.69,224.574 1614.17,224.696 1615.64,224.821 1617.12,224.949 1618.6,225.079 1620.07,225.212 1621.55,225.349 1623.03,225.488 
  1624.5,225.631 1625.98,225.776 1627.46,225.925 1628.93,226.077 1630.41,226.232 1631.89,226.391 1633.37,226.553 1634.84,226.719 1636.32,226.888 1637.8,227.061 
  1639.27,227.237 1640.75,227.213 1642.23,227.657 1643.7,228.124 1645.18,228.616 1646.66,229.132 1648.13,229.675 1649.61,230.245 1651.09,230.844 1652.57,231.472 
  1654.04,232.13 1655.52,232.821 1657,233.545 1658.47,234.303 1659.95,235.097 1661.43,235.927 1662.9,236.796 1664.38,237.705 1665.86,238.655 1667.33,239.647 
  1668.81,240.683 1670.29,241.765 1671.76,242.893 1673.24,244.07 1674.72,245.296 1676.2,246.574 1677.67,247.905 1679.15,249.291 1680.63,250.732 1682.1,252.231 
  1683.58,253.79 1685.06,255.409 1686.53,257.091 1688.01,258.837 1689.49,260.649 1690.96,262.528 1692.44,264.476 1693.92,266.495 1695.4,268.586 1696.87,270.751 
  1698.35,272.991 1699.83,275.308 1701.3,277.703 1702.78,280.179 1704.26,282.735 1705.73,285.375 1707.21,288.1 1708.69,290.91 1710.16,293.807 1711.64,296.793 
  1713.12,299.868 1714.6,303.035 1716.07,306.293 1717.55,309.645 1719.03,313.092 1720.5,316.634 1721.98,320.272 1723.46,324.008 1724.93,327.842 1726.41,331.775 
  1727.89,335.807 1729.36,290.998 1730.84,295.033 1732.32,299.238 1733.8,303.616 1735.27,308.171 1736.75,312.906 1738.23,317.823 1739.7,322.925 1741.18,328.214 
  1742.66,333.693 1744.13,339.362 1745.61,345.224 1747.09,351.28 1748.56,357.531 1750.04,363.976 1751.52,370.618 1752.99,377.455 1754.47,384.487 1755.95,391.714 
  1757.43,399.134 1758.9,406.746 1760.38,414.549 1761.86,422.54 1763.33,430.716 1764.81,439.076 1766.29,447.615 1767.76,456.331 1769.24,465.219 1770.72,474.275 
  1772.19,483.495 1773.67,492.874 1775.15,502.407 1776.63,512.087 1778.1,521.91 1779.58,531.869 1781.06,541.959 1782.53,552.171 1784.01,562.5 1785.49,572.939 
  1786.96,583.479 1788.44,594.115 1789.92,604.837 1791.39,615.639 1792.87,626.513 1794.35,637.449 1795.83,648.441 1797.3,659.48 1798.78,670.558 1800.26,681.666 
  1801.73,692.796 1803.21,703.94 1804.69,715.09 1806.16,726.236 1807.64,737.372 1809.12,748.488 1810.59,759.577 1812.07,770.631 1813.55,781.641 1815.03,792.601 
  1816.5,803.502 1817.98,317.587 1819.46,316.991 1820.93,316.397 1822.41,315.806 1823.89,315.218 1825.36,314.633 1826.84,314.05 1828.32,313.47 1829.79,312.892 
  1831.27,312.317 1832.75,311.745 1834.22,311.175 1835.7,310.608 1837.18,310.043 1838.66,309.481 1840.13,308.921 1841.61,308.365 1843.09,307.81 1844.56,307.259 
  1846.04,306.71 1847.52,306.163 1848.99,305.619 1850.47,305.077 1851.95,304.538 1853.42,304.002 1854.9,303.468 1856.38,302.937 1857.86,302.408 1859.33,301.882 
  1860.81,301.358 1862.29,300.837 1863.76,300.318 1865.24,299.802 1866.72,299.288 1868.19,298.777 1869.67,298.268 1871.15,297.762 1872.62,297.258 1874.1,296.756 
  1875.58,296.257 1877.06,295.761 1878.53,295.267 1880.01,294.775 1881.49,294.286 1882.96,293.799 1884.44,293.315 1885.92,292.833 1887.39,292.353 1888.87,291.876 
  1890.35,291.401 1891.82,290.929 1893.3,290.459 1894.78,289.992 1896.26,289.526 1897.73,289.064 1899.21,288.603 1900.69,288.145 1902.16,287.689 1903.64,287.236 
  1905.12,286.785 1906.59,226.926 1908.07,227.226 1909.55,227.536 1911.02,227.858 1912.5,228.192 1913.98,228.538 1915.45,228.896 1916.93,229.267 1918.41,229.651 
  1919.89,230.049 1921.36,230.46 1922.84,230.886 1924.32,231.326 1925.79,231.782 1927.27,232.253 1928.75,232.741 1930.22,233.244 1931.7,233.765 1933.18,234.303 
  1934.65,234.858 1936.13,235.432 1937.61,236.024 1939.09,236.636 1940.56,237.267 1942.04,237.918 1943.52,238.59 1944.99,239.284 1946.47,239.998 1947.95,240.735 
  1949.42,241.495 1950.9,242.277 1952.38,243.084 1953.85,243.915 1955.33,244.77 1956.81,245.651 1958.29,246.558 1959.76,247.491 1961.24,248.451 1962.72,249.439 
  1964.19,250.455 1965.67,251.5 1967.15,252.574 1968.62,253.678 1970.1,254.812 1971.58,255.978 1973.05,257.175 1974.53,258.404 1976.01,259.666 1977.49,260.961 
  1978.96,262.29 1980.44,263.654 1981.92,265.053 1983.39,266.487 1984.87,267.958 1986.35,269.466 1987.82,271.011 1989.3,272.594 1990.78,274.216 1992.25,275.877 
  1993.73,277.577 1995.21,239.197 1996.68,240.388 1998.16,241.641 1999.64,242.957 2001.12,244.34 2002.59,245.792 2004.07,247.314 2005.55,248.911 2007.02,250.584 
  2008.5,252.335 2009.98,254.168 2011.45,256.086 2012.93,258.09 2014.41,260.183 2015.88,262.368 2017.36,264.648 2018.84,267.025 2020.32,269.502 2021.79,272.081 
  2023.27,274.766 2024.75,277.558 2026.22,280.46 2027.7,283.475 2029.18,286.604 2030.65,289.851 2032.13,293.217 2033.61,296.706 2035.08,300.318 2036.56,304.057 
  2038.04,307.923 2039.52,311.919 2040.99,316.047 2042.47,320.309 2043.95,324.705 2045.42,329.238 2046.9,333.909 2048.38,338.718 2049.85,343.667 2051.33,348.757 
  2052.81,353.989 2054.28,359.363 2055.76,364.879 2057.24,370.538 2058.72,376.34 2060.19,382.285 2061.67,388.372 2063.15,394.602 2064.62,400.972 2066.1,407.484 
  2067.58,414.135 2069.05,420.925 2070.53,427.851 2072.01,434.914 2073.48,442.11 2074.96,449.437 2076.44,456.895 2077.91,464.48 2079.39,472.19 2080.87,480.021 
  2082.35,487.973 2083.82,243.277 2085.3,248.022 2086.78,253.541 2088.25,259.921 2089.73,267.249 2091.21,275.613 2092.68,285.098 2094.16,295.786 2095.64,307.754 
  2097.11,321.066 2098.59,335.781 2100.07,351.94 2101.55,369.572 2103.02,388.687 2104.5,409.279 2105.98,431.319 2107.45,454.76 2108.93,479.534 2110.41,505.553 
  2111.88,532.712 2113.36,560.884 2114.84,589.932 2116.31,619.7 2117.79,650.026 2119.27,680.738 2120.75,711.66 2122.22,742.614 2123.7,773.425 2125.18,803.921 
  2126.65,833.937 2128.13,863.319 2129.61,891.924 2131.08,919.623 2132.56,946.301 2134.04,971.86 2135.51,996.218 2136.99,1019.31 2138.47,1041.09 2139.95,1061.53 
  2141.42,1080.6 2142.9,1098.31 2144.38,1114.68 2145.85,1129.71 2147.33,1143.46 2148.81,1155.97 2150.28,1167.29 2151.76,1177.47 2153.24,1186.59 2154.71,1194.71 
  2156.19,1201.91 2157.67,1208.25 2159.14,1213.81 2160.62,1218.65 2162.1,1222.85 2163.58,1226.47 2165.05,1229.57 2166.53,1232.21 2168.01,1234.45 2169.48,1236.33 
  2170.96,1237.91 2172.44,248.251 2173.91,253.107 2175.39,258.63 2176.87,264.88 2178.34,271.919 2179.82,279.807 2181.3,288.605 2182.78,298.367 2184.25,309.146 
  2185.73,320.989 2187.21,333.935 2188.68,348.018 2190.16,363.258 2191.64,379.671 2193.11,397.257 2194.59,416.006 2196.07,435.895 2197.54,456.891 2199.02,478.943 
  2200.5,501.994 2201.98,525.968 2203.45,550.783 2204.93,576.345 2206.41,602.549 2207.88,629.285 2209.36,656.435 2210.84,683.877 2212.31,711.486 2213.79,739.136 
  2215.27,766.7 2216.74,794.056 2218.22,821.085 2219.7,847.671 2221.18,873.708 2222.65,899.096 2224.13,923.744 2225.61,947.571 2227.08,970.506 2228.56,992.488 
  2230.04,1013.47 2231.51,1033.41 2232.99,1052.28 2234.47,1070.06 2235.94,1086.75 2237.42,1102.34 2238.9,1116.86 2240.37,1130.3 2241.85,1142.71 2243.33,1154.11 
  2244.81,1164.54 2246.28,1174.04 2247.76,1182.65 2249.24,1190.43 2250.71,1197.43 2252.19,1203.69 2253.67,1209.27 2255.14,1214.22 2256.62,1218.59 2258.1,1222.43 
  2259.57,1225.79 2261.05,252.904 2262.53,256.713 2264.01,260.876 2265.48,265.415 2266.96,270.352 2268.44,275.71 2269.91,281.51 2271.39,287.772 2272.87,294.519 
  2274.34,301.768 2275.82,309.538 2277.3,317.847 2278.77,326.709 2280.25,336.137 2281.73,346.143 2283.21,356.735 2284.68,367.921 2286.16,379.703 2287.64,392.083 
  2289.11,405.057 2290.59,418.622 2292.07,432.767 2293.54,447.482 2295.02,462.751 2296.5,478.555 2297.97,494.873 2299.45,511.679 2300.93,528.946 2302.41,546.643 
  2303.88,564.736 2305.36,583.189 2306.84,601.964 2308.31,621.019 2309.79,640.313 2311.27,659.801 2312.74,679.44 2314.22,699.183 2315.7,718.984 2317.17,738.797 
  2318.65,758.575 2320.13,778.273 2321.6,797.846 2323.08,817.249 2324.56,836.442 2326.04,855.382 2327.51,874.03 2328.99,892.351 2330.47,910.308 2331.94,927.87 
  2333.42,945.007 2334.9,961.693 2336.37,977.902 2337.85,993.614 2339.33,1008.81 2340.8,1023.47 2342.28,1037.59 2343.76,1051.16 2345.24,1064.17 2346.71,1076.61 
  2348.19,1088.48 2349.67,257.445 2351.14,260.064 2352.62,262.831 2354.1,265.753 2355.57,268.834 2357.05,272.081 2358.53,275.499 2360,279.094 2361.48,282.871 
  2362.96,286.837 2364.44,290.995 2365.91,295.353 2367.39,299.914 2368.87,304.683 2370.34,309.667 2371.82,314.868 2373.3,320.291 2374.77,325.94 2376.25,331.819 
  2377.73,337.932 2379.2,344.28 2380.68,350.868 2382.16,357.697 2383.64,364.769 2385.11,372.085 2386.59,379.647 2388.07,387.454 2389.54,395.508 2391.02,403.807 
  2392.5,412.351 2393.97,421.137 2395.45,430.164 2396.93,439.429 2398.4,448.929 2399.88,458.66 2401.36,468.618 2402.83,478.798 2404.31,489.194 2405.79,499.801 
  2407.27,510.612 2408.74,521.619 2410.22,532.816 2411.7,544.193 2413.17,555.744 2414.65,567.457 2416.13,579.325 2417.6,591.336 2419.08,603.482 2420.56,615.75 
  2422.03,628.129 2423.51,640.61 2424.99,653.179 2426.47,665.825 2427.94,678.536 2429.42,691.299 2430.9,704.103 2432.37,716.934 2433.85,729.78 2435.33,742.628 
  2436.8,755.467 2438.28,310.582 2439.76,315.843 2441.23,321.329 2442.71,327.043 2444.19,332.99 2445.67,339.173 2447.14,345.594 2448.62,352.257 2450.1,359.164 
  2451.57,366.317 2453.05,373.716 2454.53,381.363 2456,389.258 2457.48,397.402 2458.96,405.792 2460.43,414.429 2461.91,423.311 2463.39,432.435 2464.87,441.798 
  2466.34,451.398 2467.82,461.23 2469.3,471.289 2470.77,481.571 2472.25,492.07 2473.73,502.779 2475.2,513.692 2476.68,524.802 2478.16,536.101 2479.63,547.58 
  2481.11,559.23 2482.59,571.042 2484.06,583.007 2485.54,595.114 2487.02,607.352 2488.5,619.711 2489.97,632.18 2491.45,644.746 2492.93,657.397 2494.4,670.123 
  2495.88,682.909 2497.36,695.745 2498.83,708.617 2500.31,721.512 2501.79,734.418 2503.26,747.322 2504.74,760.211 2506.22,773.073 2507.7,785.894 2509.17,798.663 
  2510.65,811.367 2512.13,823.994 2513.6,836.533 2515.08,848.97 2516.56,861.296 2518.03,873.5 2519.51,885.57 2520.99,897.496 2522.46,909.269 2523.94,920.879 
  2525.42,932.317 2526.9,346.019 2528.37,354.776 2529.85,363.949 2531.33,373.543 2532.8,383.558 2534.28,393.996 2535.76,404.857 2537.23,416.138 2538.71,427.835 
  2540.19,439.943 2541.66,452.454 2543.14,465.362 2544.62,478.654 2546.1,492.319 2547.57,506.343 2549.05,520.712 2550.53,535.407 2552,550.412 2553.48,565.706 
  2554.96,581.268 2556.43,597.075 2557.91,613.105 2559.39,629.333 2560.86,645.732 2562.34,662.277 2563.82,678.94 2565.29,695.695 2566.77,712.512 2568.25,729.364 
  2569.73,746.222 2571.2,763.058 2572.68,779.843 2574.16,796.55 2575.63,813.151 2577.11,829.619 2578.59,845.927 2580.06,862.05 2581.54,877.964 2583.02,893.645 
  2584.49,909.071 2585.97,924.221 2587.45,939.073 2588.93,953.611 2590.4,967.817 2591.88,981.675 2593.36,995.171 2594.83,1008.29 2596.31,1021.03 2597.79,1033.37 
  2599.26,1045.31 2600.74,1056.84 2602.22,1067.95 2603.69,1078.65 2605.17,1088.92 2606.65,1098.78 2608.13,1108.22 2609.6,1117.24 2611.08,1125.84 2612.56,1134.04 
  2614.03,1141.83 2615.51,362.629 2616.99,372.872 2618.46,383.604 2619.94,394.827 2621.42,406.539 2622.89,418.74 2624.37,431.424 2625.85,444.585 2627.33,458.213 
  2628.8,472.298 2630.28,486.826 2631.76,501.781 2633.23,517.146 2634.71,532.9 2636.19,549.022 2637.66,565.487 2639.14,582.27 2640.62,599.343 2642.09,616.675 
  2643.57,634.238 2645.05,651.998 2646.52,669.922 2648,687.975 2649.48,706.124 2650.96,724.332 2652.43,742.564 2653.91,760.784 2655.39,778.956 2656.86,797.044 
  2658.34,815.013 2659.82,832.83 2661.29,850.46 2662.77,867.871 2664.25,885.033 2665.72,901.915 2667.2,918.49 2668.68,934.731 2670.16,950.612 2671.63,966.112 
  2673.11,981.21 2674.59,995.887 2676.06,1010.13 2677.54,1023.91 2679.02,1037.23 2680.49,1050.08 2681.97,1062.44 2683.45,1074.31 2684.92,1085.69 2686.4,1096.58 
  2687.88,1106.97 2689.36,1116.86 2690.83,1126.27 2692.31,1135.19 2693.79,1143.64 2695.26,1151.61 2696.74,1159.13 2698.22,1166.19 2699.69,1172.82 2701.17,1179.03 
  2702.65,1184.83 2704.12,761.786 2705.6,783.079 2707.08,804.254 2708.56,825.252 2710.03,846.02 2711.51,866.505 2712.99,886.655 2714.46,906.422 2715.94,925.761 
  2717.42,944.63 2718.89,962.99 2720.37,980.806 2721.85,998.045 2723.32,1014.68 2724.8,1030.69 2726.28,1046.05 2727.75,1060.76 2729.23,1074.78 2730.71,1088.13 
  2732.19,1100.8 2733.66,1112.78 2735.14,1124.08 2736.62,1134.7 2738.09,1144.67 2739.57,1153.98 2741.05,1162.66 2742.52,1170.73 2744,1178.19 2745.48,1185.09 
  2746.95,1191.43 2748.43,1197.25 2749.91,1202.56 2751.39,1207.41 2752.86,1211.81 2754.34,1215.78 2755.82,1219.37 2757.29,1222.59 2758.77,1225.47 2760.25,1228.04 
  2761.72,1230.32 2763.2,1232.34 2764.68,1234.12 2766.15,1235.68 2767.63,1237.04 2769.11,1238.22 2770.59,1239.25 2772.06,1240.14 2773.54,1240.9 2775.02,1241.55 
  2776.49,1242.1 2777.97,1242.57 2779.45,1242.96 2780.92,1243.29 2782.4,1243.57 2783.88,1243.8 2785.35,1243.99 2786.83,1244.14 2788.31,1244.27 2789.79,1244.37 
  
  "/>
<polyline clip-path="url(#clip0902)" style="stroke:#e26f46; stroke-width:4; stroke-opacity:1; fill:none" points="
  664.513,219.727 665.99,219.727 667.467,219.727 668.944,219.727 670.421,219.727 671.897,219.727 673.374,219.727 674.851,219.727 676.328,219.727 677.805,219.727 
  679.282,219.727 680.759,219.727 682.236,219.727 683.713,219.727 685.19,219.727 686.667,219.727 688.143,219.727 689.62,219.727 691.097,219.727 692.574,219.727 
  694.051,219.727 695.528,219.727 697.005,219.727 698.482,219.727 699.959,219.727 701.436,219.727 702.913,219.727 704.389,219.727 705.866,219.727 707.343,219.727 
  708.82,219.727 710.297,219.727 711.774,219.727 713.251,219.727 714.728,219.727 716.205,219.727 717.682,219.727 719.159,219.727 720.635,219.727 722.112,219.727 
  723.589,219.727 725.066,219.727 726.543,219.727 728.02,219.727 729.497,219.727 730.974,219.727 732.451,219.727 733.928,219.727 735.405,219.727 736.881,219.727 
  738.358,219.727 739.835,219.727 741.312,219.727 742.789,219.727 744.266,219.727 745.743,219.727 747.22,219.727 748.697,219.727 750.174,219.727 751.651,219.727 
  753.127,219.727 754.604,219.727 756.081,219.727 757.558,219.727 759.035,219.727 760.512,219.727 761.989,219.727 763.466,219.728 764.943,219.728 766.42,219.728 
  767.897,219.729 769.373,219.729 770.85,219.73 772.327,219.731 773.804,219.732 775.281,219.734 776.758,219.736 778.235,219.738 779.712,219.74 781.189,219.743 
  782.666,219.747 784.143,219.75 785.619,219.755 787.096,219.76 788.573,219.765 790.05,219.772 791.527,219.779 793.004,219.788 794.481,219.797 795.958,219.808 
  797.435,219.82 798.912,219.834 800.389,219.849 801.865,219.867 803.342,219.886 804.819,219.909 806.296,219.934 807.773,219.962 809.25,219.994 810.727,220.03 
  812.204,220.07 813.681,220.116 815.158,220.167 816.635,220.224 818.111,220.289 819.588,220.362 821.065,220.443 822.542,220.535 824.019,220.637 825.496,220.752 
  826.973,220.882 828.45,221.026 829.927,221.188 831.404,221.37 832.881,221.572 834.357,221.799 835.834,222.053 837.311,222.336 838.788,222.652 840.265,223.005 
  841.742,223.398 843.219,223.573 844.696,223.787 846.173,224.026 847.65,224.286 849.127,224.56 850.603,224.848 852.08,225.147 853.557,225.456 855.034,225.775 
  856.511,226.105 857.988,226.444 859.465,226.794 860.942,227.155 862.419,227.527 863.896,227.911 865.373,228.307 866.849,228.716 868.326,229.139 869.803,229.577 
  871.28,230.029 872.757,230.497 874.234,230.982 875.711,231.485 877.188,232.005 878.665,232.545 880.142,233.104 881.619,233.685 883.095,234.287 884.572,234.911 
  886.049,235.559 887.526,236.231 889.003,236.928 890.48,237.652 891.957,238.403 893.434,239.183 894.911,239.991 896.388,240.83 897.865,241.701 899.341,242.604 
  900.818,243.542 902.295,244.514 903.772,245.522 905.249,246.568 906.726,247.653 908.203,248.777 909.68,249.943 911.157,251.152 912.634,252.404 914.111,253.703 
  915.587,255.048 917.064,256.442 918.541,257.885 920.018,259.381 921.495,260.929 922.972,262.533 924.449,264.193 925.926,265.911 927.403,267.688 928.88,269.528 
  930.357,271.431 931.833,236.018 933.31,234.954 934.787,234.23 936.264,233.731 937.741,233.397 939.218,233.188 940.695,233.077 942.172,233.044 943.649,233.073 
  945.126,233.154 946.603,233.279 948.079,233.441 949.556,233.635 951.033,233.859 952.51,234.108 953.987,234.381 955.464,234.676 956.941,234.991 958.418,235.326 
  959.895,235.678 961.372,236.049 962.849,236.436 964.325,236.839 965.802,237.259 967.279,237.695 968.756,238.146 970.233,238.613 971.71,239.095 973.187,239.593 
  974.664,240.106 976.141,240.635 977.618,241.179 979.095,241.739 980.571,242.316 982.048,242.908 983.525,243.517 985.002,244.143 986.479,244.786 987.956,245.445 
  989.433,246.122 990.91,246.817 992.387,247.53 993.864,248.262 995.341,249.012 996.817,249.782 998.294,250.571 999.771,251.38 1001.25,252.209 1002.73,253.059 
  1004.2,253.931 1005.68,254.824 1007.16,255.739 1008.63,256.676 1010.11,257.637 1011.59,258.621 1013.06,259.629 1014.54,260.662 1016.02,261.72 1017.49,262.803 
  1018.97,263.912 1020.45,278.426 1021.92,291.201 1023.4,302.222 1024.88,311.594 1026.36,319.447 1027.83,325.92 1029.31,331.154 1030.79,335.287 1032.26,338.453 
  1033.74,340.775 1035.22,342.365 1036.69,343.325 1038.17,343.746 1039.65,343.708 1041.12,343.282 1042.6,342.529 1044.08,341.502 1045.56,340.248 1047.03,338.806 
  1048.51,337.211 1049.99,335.491 1051.46,333.672 1052.94,331.775 1054.42,329.818 1055.89,327.817 1057.37,325.784 1058.85,323.73 1060.32,321.666 1061.8,319.598 
  1063.28,317.534 1064.76,315.479 1066.23,313.437 1067.71,311.413 1069.19,309.409 1070.66,307.429 1072.14,305.475 1073.62,303.547 1075.09,301.648 1076.57,299.779 
  1078.05,297.94 1079.52,296.133 1081,294.357 1082.48,292.614 1083.96,290.902 1085.43,289.223 1086.91,287.576 1088.39,285.961 1089.86,284.378 1091.34,282.827 
  1092.82,281.307 1094.29,279.819 1095.77,278.361 1097.25,276.934 1098.72,275.537 1100.2,274.17 1101.68,272.832 1103.15,271.523 1104.63,270.242 1106.11,268.989 
  1107.59,267.764 1109.06,321.729 1110.54,312.083 1112.02,302.495 1113.49,293.305 1114.97,284.636 1116.45,276.559 1117.92,269.124 1119.4,262.361 1120.88,256.279 
  1122.35,250.865 1123.83,246.095 1125.31,241.93 1126.79,238.324 1128.26,235.225 1129.74,232.582 1131.22,230.342 1132.69,228.456 1134.17,226.877 1135.65,225.562 
  1137.12,224.472 1138.6,223.573 1140.08,222.834 1141.55,222.23 1143.03,221.738 1144.51,221.339 1145.99,221.015 1147.46,220.754 1148.94,220.544 1150.42,220.376 
  1151.89,220.241 1153.37,220.134 1154.85,220.048 1156.32,219.98 1157.8,219.926 1159.28,219.884 1160.75,219.85 1162.23,219.823 1163.71,219.802 1165.19,219.786 
  1166.66,219.773 1168.14,219.763 1169.62,219.755 1171.09,219.749 1172.57,219.744 1174.05,219.74 1175.52,219.737 1177,219.735 1178.48,219.733 1179.95,219.732 
  1181.43,219.731 1182.91,219.73 1184.38,219.729 1185.86,219.729 1187.34,219.728 1188.82,219.728 1190.29,219.728 1191.77,219.728 1193.25,219.728 1194.72,219.727 
  1196.2,219.727 1197.68,1021.65 1199.15,1119.57 1200.63,1170.49 1202.11,1196.84 1203.58,1210.52 1205.06,1217.47 1206.54,1220.59 1208.02,1221.28 1209.49,1220.2 
  1210.97,1217.61 1212.45,1213.6 1213.92,1208.1 1215.4,1201.03 1216.88,1192.23 1218.35,1181.56 1219.83,1168.88 1221.31,1154.07 1222.78,1137.01 1224.26,1117.64 
  1225.74,1095.93 1227.22,1071.87 1228.69,1045.51 1230.17,1016.95 1231.65,986.316 1233.12,953.789 1234.6,919.58 1236.08,883.938 1237.55,847.139 1239.03,809.483 
  1240.51,771.286 1241.98,732.872 1243.46,694.568 1244.94,656.694 1246.42,619.558 1247.89,583.447 1249.37,548.624 1250.85,515.319 1252.32,483.731 1253.8,454.018 
  1255.28,426.3 1256.75,400.66 1258.23,377.138 1259.71,355.741 1261.18,336.441 1262.66,319.178 1264.14,303.869 1265.61,290.408 1267.09,278.672 1268.57,268.528 
  1270.05,259.834 1271.52,252.448 1273,246.225 1274.48,241.028 1275.95,236.724 1277.43,233.19 1278.91,230.313 1280.38,227.99 1281.86,226.13 1283.34,224.653 
  1284.81,223.49 1286.29,1244.75 1287.77,1244.75 1289.25,1244.75 1290.72,1244.75 1292.2,1244.75 1293.68,1244.75 1295.15,1244.75 1296.63,1244.75 1298.11,1244.75 
  1299.58,1244.75 1301.06,1244.75 1302.54,1244.75 1304.01,1244.75 1305.49,1244.75 1306.97,1244.75 1308.45,1244.75 1309.92,1244.75 1311.4,1244.75 1312.88,1244.75 
  1314.35,1244.75 1315.83,1244.75 1317.31,1244.75 1318.78,1244.75 1320.26,1244.75 1321.74,1244.75 1323.21,1244.75 1324.69,1244.74 1326.17,1244.74 1327.65,1244.73 
  1329.12,1244.73 1330.6,1244.71 1332.08,1244.7 1333.55,1244.67 1335.03,1244.64 1336.51,1244.59 1337.98,1244.52 1339.46,1244.43 1340.94,1244.31 1342.41,1244.16 
  1343.89,1243.95 1345.37,1243.69 1346.84,1243.34 1348.32,1242.9 1349.8,1242.34 1351.28,1241.64 1352.75,1240.76 1354.23,1239.68 1355.71,1238.35 1357.18,1236.73 
  1358.66,1234.77 1360.14,1232.42 1361.61,1229.62 1363.09,1226.31 1364.57,1222.42 1366.04,1217.88 1367.52,1212.61 1369,1206.54 1370.48,1199.61 1371.95,1191.72 
  1373.43,1182.81 1374.91,1244.75 1376.38,1244.75 1377.86,1244.75 1379.34,1244.75 1380.81,1244.75 1382.29,1244.75 1383.77,1244.75 1385.24,1244.75 1386.72,1244.75 
  1388.2,1244.75 1389.68,1244.75 1391.15,1244.75 1392.63,1244.75 1394.11,1244.75 1395.58,1244.75 1397.06,1244.75 1398.54,1244.75 1400.01,1244.75 1401.49,1244.75 
  1402.97,1244.75 1404.44,1244.75 1405.92,1244.75 1407.4,1244.75 1408.88,1244.74 1410.35,1244.72 1411.83,1244.69 1413.31,1244.61 1414.78,1244.47 1416.26,1244.2 
  1417.74,1243.71 1419.21,1242.87 1420.69,1241.46 1422.17,1239.19 1423.64,1235.66 1425.12,1230.36 1426.6,1222.65 1428.07,1211.81 1429.55,1197.04 1431.03,1177.53 
  1432.51,1152.52 1433.98,1121.39 1435.46,1083.75 1436.94,1039.49 1438.41,988.877 1439.89,932.539 1441.37,871.483 1442.84,807.037 1444.32,740.763 1445.8,674.352 
  1447.27,609.497 1448.75,547.773 1450.23,490.525 1451.71,438.789 1453.18,393.241 1454.66,354.187 1456.14,321.586 1457.61,295.099 1459.09,274.166 1460.57,258.079 
  1462.04,246.062 1463.52,1207.21 1465,1207 1466.47,1204.29 1467.95,1199.35 1469.43,1192.3 1470.91,1183.17 1472.38,1171.93 1473.86,1158.57 1475.34,1143.05 
  1476.81,1125.32 1478.29,1105.35 1479.77,1083.14 1481.24,1058.69 1482.72,1032.04 1484.2,1003.26 1485.67,972.478 1487.15,939.833 1488.63,905.518 1490.11,869.762 
  1491.58,832.824 1493.06,794.994 1494.54,756.584 1496.01,717.921 1497.49,679.341 1498.97,641.177 1500.44,603.756 1501.92,567.386 1503.4,532.351 1504.87,498.905 
  1506.35,467.265 1507.83,437.606 1509.3,410.061 1510.78,384.719 1512.26,361.624 1513.74,340.777 1515.21,322.141 1516.69,305.646 1518.17,291.19 1519.64,278.648 
  1521.12,267.875 1522.6,258.718 1524.07,251.014 1525.55,244.599 1527.03,239.315 1528.5,235.007 1529.98,231.533 1531.46,228.761 1532.94,226.573 1534.41,224.864 
  1535.89,223.545 1537.37,222.536 1538.84,221.774 1540.32,221.204 1541.8,220.782 1543.27,220.474 1544.75,220.25 1546.23,220.09 1547.7,219.976 1549.18,219.897 
  1550.66,219.841 1552.14,220.612 1553.61,220.705 1555.09,220.794 1556.57,220.878 1558.04,220.958 1559.52,221.034 1561,221.106 1562.47,221.176 1563.95,221.244 
  1565.43,221.31 1566.9,221.375 1568.38,221.44 1569.86,221.503 1571.34,221.567 1572.81,221.63 1574.29,221.693 1575.77,221.757 1577.24,221.821 1578.72,221.886 
  1580.2,221.952 1581.67,222.018 1583.15,222.086 1584.63,222.154 1586.1,222.224 1587.58,222.295 1589.06,222.367 1590.53,222.441 1592.01,222.516 1593.49,222.593 
  1594.97,222.671 1596.44,222.751 1597.92,222.832 1599.4,222.916 1600.87,223.001 1602.35,223.088 1603.83,223.177 1605.3,223.268 1606.78,223.361 1608.26,223.456 
  1609.73,223.554 1611.21,223.653 1612.69,223.755 1614.17,223.859 1615.64,223.965 1617.12,224.074 1618.6,224.185 1620.07,224.299 1621.55,224.415 1623.03,224.534 
  1624.5,224.656 1625.98,224.78 1627.46,224.907 1628.93,225.037 1630.41,225.17 1631.89,225.306 1633.37,225.444 1634.84,225.586 1636.32,225.731 1637.8,225.879 
  1639.27,226.031 1640.75,223.738 1642.23,224.143 1643.7,224.543 1645.18,224.946 1646.66,225.358 1648.13,225.782 1649.61,226.221 1651.09,226.677 1652.57,227.151 
  1654.04,227.645 1655.52,228.16 1657,228.698 1658.47,229.26 1659.95,229.846 1661.43,230.46 1662.9,231.101 1664.38,231.772 1665.86,232.473 1667.33,233.206 
  1668.81,233.972 1670.29,234.773 1671.76,235.611 1673.24,236.485 1674.72,237.399 1676.2,238.354 1677.67,239.35 1679.15,240.39 1680.63,241.475 1682.1,242.607 
  1683.58,243.788 1685.06,245.018 1686.53,246.299 1688.01,247.634 1689.49,249.024 1690.96,250.47 1692.44,251.975 1693.92,253.539 1695.4,255.166 1696.87,256.855 
  1698.35,258.609 1699.83,260.431 1701.3,262.32 1702.78,264.28 1704.26,266.312 1705.73,268.417 1707.21,270.598 1708.69,272.856 1710.16,275.192 1711.64,277.609 
  1713.12,280.107 1714.6,282.689 1716.07,285.357 1717.55,288.111 1719.03,290.953 1720.5,293.885 1721.98,296.907 1723.46,300.023 1724.93,303.232 1726.41,306.536 
  1727.89,309.937 1729.36,268.001 1730.84,271.495 1732.32,274.851 1733.8,278.204 1735.27,281.625 1736.75,285.155 1738.23,288.819 1739.7,292.637 1741.18,296.621 
  1742.66,300.779 1744.13,305.121 1745.61,309.65 1747.09,314.373 1748.56,319.293 1750.04,324.412 1751.52,329.735 1752.99,335.262 1754.47,340.997 1755.95,346.94 
  1757.43,353.094 1758.9,359.458 1760.38,366.033 1761.86,372.82 1763.33,379.818 1764.81,387.027 1766.29,394.445 1767.76,402.072 1769.24,409.906 1770.72,417.944 
  1772.19,426.185 1773.67,434.625 1775.15,443.261 1776.63,452.09 1778.1,461.108 1779.58,470.31 1781.06,479.691 1782.53,489.247 1784.01,498.971 1785.49,508.859 
  1786.96,518.903 1788.44,529.097 1789.92,539.434 1791.39,549.907 1792.87,560.508 1794.35,571.23 1795.83,582.065 1797.3,593.004 1798.78,604.039 1800.26,615.162 
  1801.73,626.362 1803.21,637.632 1804.69,648.963 1806.16,660.344 1807.64,671.767 1809.12,683.222 1810.59,694.701 1812.07,706.193 1813.55,717.689 1815.03,729.181 
  1816.5,740.658 1817.98,546.24 1819.46,500.744 1820.93,465.471 1822.41,437.915 1823.89,416.155 1825.36,398.774 1826.84,384.727 1828.32,373.25 1829.79,363.775 
  1831.27,355.878 1832.75,349.24 1834.22,343.614 1835.7,338.809 1837.18,334.678 1838.66,331.102 1840.13,327.986 1841.61,325.254 1843.09,322.845 1844.56,320.708 
  1846.04,318.8 1847.52,317.087 1848.99,315.541 1850.47,314.136 1851.95,312.853 1853.42,311.674 1854.9,310.585 1856.38,309.573 1857.86,308.627 1859.33,307.739 
  1860.81,306.901 1862.29,306.106 1863.76,305.349 1865.24,304.625 1866.72,303.929 1868.19,303.259 1869.67,302.61 1871.15,301.98 1872.62,301.368 1874.1,300.771 
  1875.58,300.187 1877.06,299.614 1878.53,299.053 1880.01,298.5 1881.49,297.957 1882.96,297.42 1884.44,296.891 1885.92,296.369 1887.39,295.852 1888.87,295.34 
  1890.35,294.833 1891.82,294.331 1893.3,293.834 1894.78,293.34 1896.26,292.85 1897.73,292.364 1899.21,291.881 1900.69,291.402 1902.16,290.925 1903.64,290.452 
  1905.12,289.982 1906.59,268.431 1908.07,258.453 1909.55,251.517 1911.02,246.581 1912.5,242.992 1913.98,240.337 1915.45,238.346 1916.93,236.839 1918.41,235.694 
  1919.89,234.826 1921.36,234.172 1922.84,233.69 1924.32,233.347 1925.79,233.117 1927.27,232.983 1928.75,232.931 1930.22,232.948 1931.7,233.027 1933.18,233.161 
  1934.65,233.343 1936.13,233.571 1937.61,233.839 1939.09,234.145 1940.56,234.488 1942.04,234.864 1943.52,235.272 1944.99,235.711 1946.47,236.181 1947.95,236.679 
  1949.42,237.206 1950.9,237.761 1952.38,238.343 1953.85,238.953 1955.33,239.59 1956.81,240.254 1958.29,240.945 1959.76,241.663 1961.24,242.408 1962.72,243.181 
  1964.19,243.981 1965.67,244.809 1967.15,245.665 1968.62,246.549 1970.1,247.463 1971.58,248.405 1973.05,249.376 1974.53,250.378 1976.01,251.409 1977.49,252.472 
  1978.96,253.566 1980.44,254.691 1981.92,255.849 1983.39,257.039 1984.87,258.263 1986.35,259.521 1987.82,260.812 1989.3,262.139 1990.78,263.501 1992.25,264.899 
  1993.73,266.334 1995.21,228.511 1996.68,229.933 1998.16,231.222 1999.64,232.457 2001.12,233.677 2002.59,234.904 2004.07,236.154 2005.55,237.436 2007.02,238.758 
  2008.5,240.126 2009.98,241.546 2011.45,243.021 2012.93,244.557 2014.41,246.156 2015.88,247.822 2017.36,249.559 2018.84,251.37 2020.32,253.258 2021.79,255.227 
  2023.27,257.28 2024.75,259.419 2026.22,261.649 2027.7,263.971 2029.18,266.39 2030.65,268.907 2032.13,271.527 2033.61,274.252 2035.08,277.084 2036.56,280.028 
  2038.04,283.085 2039.52,286.259 2040.99,289.552 2042.47,292.966 2043.95,296.505 2045.42,300.17 2046.9,303.964 2048.38,307.89 2049.85,311.949 2051.33,316.143 
  2052.81,320.475 2054.28,324.946 2055.76,329.559 2057.24,334.313 2058.72,339.212 2060.19,344.256 2061.67,349.446 2063.15,354.783 2064.62,360.267 2066.1,365.901 
  2067.58,371.683 2069.05,377.614 2070.53,383.695 2072.01,389.924 2073.48,396.302 2074.96,402.828 2076.44,409.501 2077.91,416.32 2079.39,423.284 2080.87,430.392 
  2082.35,437.641 2083.82,264.442 2085.3,262.446 2086.78,261.373 2088.25,261.196 2089.73,261.854 2091.21,263.301 2092.68,265.522 2094.16,268.522 2095.64,272.33 
  2097.11,276.991 2098.59,282.563 2100.07,289.115 2101.55,296.724 2103.02,305.472 2104.5,315.444 2105.98,326.724 2107.45,339.393 2108.93,353.523 2110.41,369.18 
  2111.88,386.412 2113.36,405.253 2114.84,425.719 2116.31,447.801 2117.79,471.468 2119.27,496.662 2120.75,523.301 2122.22,551.276 2123.7,580.451 2125.18,610.67 
  2126.65,641.754 2128.13,673.506 2129.61,705.717 2131.08,738.168 2132.56,770.634 2134.04,802.894 2135.51,834.728 2136.99,865.93 2138.47,896.305 2139.95,925.678 
  2141.42,953.893 2142.9,980.819 2144.38,1006.35 2145.85,1030.4 2147.33,1052.91 2148.81,1073.85 2150.28,1093.21 2151.76,1111.01 2153.24,1127.26 2154.71,1142.03 
  2156.19,1155.35 2157.67,1167.32 2159.14,1178 2160.62,1187.48 2162.1,1195.85 2163.58,1203.2 2165.05,1209.62 2166.53,1215.19 2168.01,1220 2169.48,1224.13 
  2170.96,1227.66 2172.44,270.207 2173.91,270.62 2175.39,270.867 2176.87,271.377 2178.34,272.341 2179.82,273.858 2181.3,275.987 2182.78,278.771 2184.25,282.252 
  2185.73,286.473 2187.21,291.479 2188.68,297.321 2190.16,304.055 2191.64,311.736 2193.11,320.423 2194.59,330.174 2196.07,341.045 2197.54,353.087 2199.02,366.347 
  2200.5,380.862 2201.98,396.661 2203.45,413.761 2204.93,432.166 2206.41,451.866 2207.88,472.835 2209.36,495.03 2210.84,518.394 2212.31,542.851 2213.79,568.312 
  2215.27,594.668 2216.74,621.802 2218.22,649.58 2219.7,677.86 2221.18,706.492 2222.65,735.321 2224.13,764.188 2225.61,792.935 2227.08,821.407 2228.56,849.455 
  2230.04,876.935 2231.51,903.716 2232.99,929.677 2234.47,954.713 2235.94,978.73 2237.42,1001.65 2238.9,1023.42 2240.37,1043.98 2241.85,1063.31 2243.33,1081.39 
  2244.81,1098.23 2246.28,1113.82 2247.76,1128.2 2249.24,1141.4 2250.71,1153.46 2252.19,1164.42 2253.67,1174.34 2255.14,1183.27 2256.62,1191.29 2258.1,1198.44 
  2259.57,1204.8 2261.05,278.978 2262.53,278.678 2264.01,278.084 2265.48,277.653 2266.96,277.583 2268.44,277.958 2269.91,278.814 2271.39,280.167 2272.87,282.023 
  2274.34,284.387 2275.82,287.264 2277.3,290.662 2278.77,294.591 2280.25,299.063 2281.73,304.092 2283.21,309.695 2284.68,315.885 2286.16,322.681 2287.64,330.098 
  2289.11,338.152 2290.59,346.856 2292.07,356.223 2293.54,366.262 2295.02,376.983 2296.5,388.39 2297.97,400.485 2299.45,413.266 2300.93,426.729 2302.41,440.864 
  2303.88,455.658 2305.36,471.096 2306.84,487.156 2308.31,503.813 2309.79,521.038 2311.27,538.799 2312.74,557.058 2314.22,575.777 2315.7,594.911 2317.17,614.414 
  2318.65,634.237 2320.13,654.329 2321.6,674.638 2323.08,695.107 2324.56,715.683 2326.04,736.308 2327.51,756.928 2328.99,777.485 2330.47,797.925 2331.94,818.195 
  2333.42,838.243 2334.9,858.018 2336.37,877.474 2337.85,896.565 2339.33,915.251 2340.8,933.492 2342.28,951.254 2343.76,968.506 2345.24,985.221 2346.71,1001.37 
  2348.19,1016.94 2349.67,450.387 2351.14,409.044 2352.62,379.102 2354.1,357.263 2355.57,341.2 2357.05,329.313 2358.53,320.503 2360,314.006 2361.48,309.29 
  2362.96,305.973 2364.44,303.782 2365.91,302.519 2367.39,302.034 2368.87,302.219 2370.34,302.99 2371.82,304.285 2373.3,306.056 2374.77,308.266 2376.25,310.885 
  2377.73,313.893 2379.2,317.271 2380.68,321.006 2382.16,325.086 2383.64,329.504 2385.11,334.252 2386.59,339.325 2388.07,344.718 2389.54,350.427 2391.02,356.449 
  2392.5,362.78 2393.97,369.417 2395.45,376.358 2396.93,383.599 2398.4,391.138 2399.88,398.971 2401.36,407.095 2402.83,415.505 2404.31,424.199 2405.79,433.171 
  2407.27,442.417 2408.74,451.931 2410.22,461.707 2411.7,471.74 2413.17,482.023 2414.65,492.548 2416.13,503.307 2417.6,514.294 2419.08,525.498 2420.56,536.91 
  2422.03,548.522 2423.51,560.323 2424.99,572.301 2426.47,584.447 2427.94,596.749 2429.42,609.194 2430.9,621.771 2432.37,634.467 2433.85,647.269 2435.33,660.164 
  2436.8,673.138 2438.28,288.776 2439.76,294.252 2441.23,298.823 2442.71,302.998 2444.19,307.045 2445.67,311.116 2447.14,315.305 2448.62,319.672 2450.1,324.256 
  2451.57,329.084 2453.05,334.174 2454.53,339.538 2456,345.183 2457.48,351.116 2458.96,357.341 2460.43,363.858 2461.91,370.67 2463.39,377.777 2464.87,385.177 
  2466.34,392.87 2467.82,400.853 2469.3,409.125 2470.77,417.681 2472.25,426.52 2473.73,435.635 2475.2,445.024 2476.68,454.681 2478.16,464.6 2479.63,474.775 
  2481.11,485.199 2482.59,495.865 2484.06,506.766 2485.54,517.892 2487.02,529.235 2488.5,540.786 2489.97,552.534 2491.45,564.47 2492.93,576.581 2494.4,588.858 
  2495.88,601.288 2497.36,613.859 2498.83,626.558 2500.31,639.373 2501.79,652.29 2503.26,665.296 2504.74,678.376 2506.22,691.518 2507.7,704.707 2509.17,717.929 
  2510.65,731.17 2512.13,744.414 2513.6,757.649 2515.08,770.86 2516.56,784.032 2518.03,797.152 2519.51,810.206 2520.99,823.181 2522.46,836.063 2523.94,848.84 
  2525.42,861.498 2526.9,320.68 2528.37,328.276 2529.85,334.718 2531.33,340.733 2532.8,346.708 2534.28,352.862 2535.76,359.33 2537.23,366.197 2538.71,373.519 
  2540.19,381.33 2541.66,389.653 2543.14,398.502 2544.62,407.884 2546.1,417.801 2547.57,428.253 2549.05,439.233 2550.53,450.735 2552,462.748 2553.48,475.26 
  2554.96,488.255 2556.43,501.718 2557.91,515.63 2559.39,529.97 2560.86,544.715 2562.34,559.842 2563.82,575.325 2565.29,591.135 2566.77,607.246 2568.25,623.627 
  2569.73,640.246 2571.2,657.073 2572.68,674.074 2574.16,691.215 2575.63,708.463 2577.11,725.783 2578.59,743.141 2580.06,760.503 2581.54,777.834 2583.02,795.101 
  2584.49,812.27 2585.97,829.31 2587.45,846.188 2588.93,862.875 2590.4,879.341 2591.88,895.557 2593.36,911.499 2594.83,927.141 2596.31,942.46 2597.79,957.434 
  2599.26,972.045 2600.74,986.274 2602.22,1000.11 2603.69,1013.53 2605.17,1026.53 2606.65,1039.09 2608.13,1051.22 2609.6,1062.9 2611.08,1074.13 2612.56,1084.91 
  2614.03,1095.23 2615.51,362.264 2616.99,367.852 2618.46,372.517 2619.94,377.055 2621.42,381.862 2622.89,387.152 2624.37,393.04 2625.85,399.594 2627.33,406.849 
  2628.8,414.822 2630.28,423.52 2631.76,432.94 2633.23,443.076 2634.71,453.917 2636.19,465.447 2637.66,477.649 2639.14,490.502 2640.62,503.983 2642.09,518.068 
  2643.57,532.726 2645.05,547.929 2646.52,563.642 2648,579.832 2649.48,596.461 2650.96,613.491 2652.43,630.88 2653.91,648.587 2655.39,666.568 2656.86,684.778 
  2658.34,703.173 2659.82,721.707 2661.29,740.332 2662.77,759.004 2664.25,777.676 2665.72,796.302 2667.2,814.839 2668.68,833.242 2670.16,851.469 2671.63,869.48 
  2673.11,887.236 2674.59,904.7 2676.06,921.837 2677.54,938.615 2679.02,955.003 2680.49,970.975 2681.97,986.506 2683.45,1001.57 2684.92,1016.16 2686.4,1030.25 
  2687.88,1043.83 2689.36,1056.88 2690.83,1069.4 2692.31,1081.39 2693.79,1092.84 2695.26,1103.76 2696.74,1114.13 2698.22,1123.98 2699.69,1133.3 2701.17,1142.1 
  2702.65,1150.39 2704.12,674.866 2705.6,693.572 2707.08,711.322 2708.56,728.937 2710.03,746.743 2711.51,764.863 2712.99,783.324 2714.46,802.101 2715.94,821.136 
  2717.42,840.357 2718.89,859.679 2720.37,879.015 2721.85,898.278 2723.32,917.38 2724.8,936.238 2726.28,954.776 2727.75,972.92 2729.23,990.606 2730.71,1007.78 
  2732.19,1024.38 2733.66,1040.37 2735.14,1055.72 2736.62,1070.39 2738.09,1084.37 2739.57,1097.63 2741.05,1110.18 2742.52,1122 2744,1133.11 2745.48,1143.5 
  2746.95,1153.2 2748.43,1162.21 2749.91,1170.56 2751.39,1178.26 2752.86,1185.35 2754.34,1191.85 2755.82,1197.79 2757.29,1203.2 2758.77,1208.1 2760.25,1212.54 
  2761.72,1216.53 2763.2,1220.12 2764.68,1223.32 2766.15,1226.18 2767.63,1228.71 2769.11,1230.95 2770.59,1232.93 2772.06,1234.66 2773.54,1236.17 2775.02,1237.49 
  2776.49,1238.63 2777.97,1239.61 2779.45,1240.45 2780.92,1241.18 2782.4,1241.79 2783.88,1242.31 2785.35,1242.75 2786.83,1243.12 2788.31,1243.42 2789.79,1243.68 
  
  "/>
<polygon clip-path="url(#clip0900)" points="
696.755,501.936 1113.07,501.936 1113.07,320.496 696.755,320.496 
  " fill="#ffffff" fill-rule="evenodd" fill-opacity="1"/>
<polyline clip-path="url(#clip0900)" style="stroke:#000000; stroke-width:4; stroke-opacity:1; fill:none" points="
  696.755,501.936 1113.07,501.936 1113.07,320.496 696.755,320.496 696.755,501.936 
  "/>
<polyline clip-path="url(#clip0900)" style="stroke:#009af9; stroke-width:4; stroke-opacity:1; fill:none" points="
  728.755,380.976 920.755,380.976 
  "/>
<g clip-path="url(#clip0900)">
<text style="fill:#000000; fill-opacity:1; font-family:Arial,Helvetica Neue,Helvetica,sans-serif; font-size:48px; text-anchor:start;" transform="rotate(0, 952.755, 398.476)" x="952.755" y="398.476">PSA</text>
</g>
<polyline clip-path="url(#clip0900)" style="stroke:#e26f46; stroke-width:4; stroke-opacity:1; fill:none" points="
  728.755,441.456 920.755,441.456 
  "/>
<g clip-path="url(#clip0900)">
<text style="fill:#000000; fill-opacity:1; font-family:Arial,Helvetica Neue,Helvetica,sans-serif; font-size:48px; text-anchor:start;" transform="rotate(0, 952.755, 458.956)" x="952.755" y="458.956">NS</text>
</g>
</svg>
