<?xml version="1.0" encoding="utf-8"?>
<svg xmlns="http://www.w3.org/2000/svg" xmlns:xlink="http://www.w3.org/1999/xlink" width="800" height="400" viewBox="0 0 3200 1600">
<defs>
  <clipPath id="clip9000">
    <rect x="0" y="0" width="3200" height="1600"/>
  </clipPath>
</defs>
<polygon clip-path="url(#clip9000)" points="
0,1600 3200,1600 3200,0 0,0 
  " fill="#ffffff" fill-rule="evenodd" fill-opacity="1"/>
<defs>
  <clipPath id="clip9001">
    <rect x="640" y="0" width="2241" height="1600"/>
  </clipPath>
</defs>
<polygon clip-path="url(#clip9000)" points="
560.611,1275.5 2853.54,1275.5 2853.54,188.976 560.611,188.976 
  " fill="#ffffff" fill-rule="evenodd" fill-opacity="1"/>
<defs>
  <clipPath id="clip9002">
    <rect x="560" y="188" width="2294" height="1088"/>
  </clipPath>
</defs>
<polyline clip-path="url(#clip9002)" style="stroke:#000000; stroke-width:2; stroke-opacity:0.1; fill:none" points="
  624.002,1275.5 624.002,188.976 
  "/>
<polyline clip-path="url(#clip9002)" style="stroke:#000000; stroke-width:2; stroke-opacity:0.1; fill:none" points="
  984.777,1275.5 984.777,188.976 
  "/>
<polyline clip-path="url(#clip9002)" style="stroke:#000000; stroke-width:2; stroke-opacity:0.1; fill:none" points="
  1345.55,1275.5 1345.55,188.976 
  "/>
<polyline clip-path="url(#clip9002)" style="stroke:#000000; stroke-width:2; stroke-opacity:0.1; fill:none" points="
  1706.33,1275.5 1706.33,188.976 
  "/>
<polyline clip-path="url(#clip9002)" style="stroke:#000000; stroke-width:2; stroke-opacity:0.1; fill:none" points="
  2067.1,1275.5 2067.1,188.976 
  "/>
<polyline clip-path="url(#clip9002)" style="stroke:#000000; stroke-width:2; stroke-opacity:0.1; fill:none" points="
  2427.87,1275.5 2427.87,188.976 
  "/>
<polyline clip-path="url(#clip9002)" style="stroke:#000000; stroke-width:2; stroke-opacity:0.1; fill:none" points="
  2788.65,1275.5 2788.65,188.976 
  "/>
<polyline clip-path="url(#clip9002)" style="stroke:#000000; stroke-width:2; stroke-opacity:0.1; fill:none" points="
  560.611,1244.75 2853.54,1244.75 
  "/>
<polyline clip-path="url(#clip9002)" style="stroke:#000000; stroke-width:2; stroke-opacity:0.1; fill:none" points="
  560.611,967.698 2853.54,967.698 
  "/>
<polyline clip-path="url(#clip9002)" style="stroke:#000000; stroke-width:2; stroke-opacity:0.1; fill:none" points="
  560.611,690.644 2853.54,690.644 
  "/>
<polyline clip-path="url(#clip9002)" style="stroke:#000000; stroke-width:2; stroke-opacity:0.1; fill:none" points="
  560.611,413.591 2853.54,413.591 
  "/>
<polyline clip-path="url(#clip9000)" style="stroke:#000000; stroke-width:4; stroke-opacity:1; fill:none" points="
  560.611,1275.5 2853.54,1275.5 
  "/>
<polyline clip-path="url(#clip9000)" style="stroke:#000000; stroke-width:4; stroke-opacity:1; fill:none" points="
  560.611,1275.5 560.611,188.976 
  "/>
<polyline clip-path="url(#clip9000)" style="stroke:#000000; stroke-width:4; stroke-opacity:1; fill:none" points="
  624.002,1275.5 624.002,1259.21 
  "/>
<polyline clip-path="url(#clip9000)" style="stroke:#000000; stroke-width:4; stroke-opacity:1; fill:none" points="
  984.777,1275.5 984.777,1259.21 
  "/>
<polyline clip-path="url(#clip9000)" style="stroke:#000000; stroke-width:4; stroke-opacity:1; fill:none" points="
  1345.55,1275.5 1345.55,1259.21 
  "/>
<polyline clip-path="url(#clip9000)" style="stroke:#000000; stroke-width:4; stroke-opacity:1; fill:none" points="
  1706.33,1275.5 1706.33,1259.21 
  "/>
<polyline clip-path="url(#clip9000)" style="stroke:#000000; stroke-width:4; stroke-opacity:1; fill:none" points="
  2067.1,1275.5 2067.1,1259.21 
  "/>
<polyline clip-path="url(#clip9000)" style="stroke:#000000; stroke-width:4; stroke-opacity:1; fill:none" points="
  2427.87,1275.5 2427.87,1259.21 
  "/>
<polyline clip-path="url(#clip9000)" style="stroke:#000000; stroke-width:4; stroke-opacity:1; fill:none" points="
  2788.65,1275.5 2788.65,1259.21 
  "/>
<polyline clip-path="url(#clip9000)" style="stroke:#000000; stroke-width:4; stroke-opacity:1; fill:none" points="
  560.611,1244.75 595.005,1244.75 
  "/>
<polyline clip-path="url(#clip9000)" style="stroke:#000000; stroke-width:4; stroke-opacity:1; fill:none" points="
  560.611,967.698 595.005,967.698 
  "/>
<polyline clip-path="url(#clip9000)" style="stroke:#000000; stroke-width:4; stroke-opacity:1; fill:none" points="
  560.611,690.644 595.005,690.644 
  "/>
<polyline clip-path="url(#clip9000)" style="stroke:#000000; stroke-width:4; stroke-opacity:1; fill:none" points="
  560.611,413.591 595.005,413.591 
  "/>
<g clip-path="url(#clip9000)">
<text style="fill:#000000; fill-opacity:1; font-family:Arial,Helvetica Neue,Helvetica,sans-serif; font-size:71px; text-anchor:middle;" transform="rotate(0, 624.002, 1353.9)" x="624.002" y="1353.9">0</text>
</g>
<g clip-path="url(#clip9000)">
<text style="fill:#000000; fill-opacity:1; font-family:Arial,Helvetica Neue,Helvetica,sans-serif; font-size:71px; text-anchor:middle;" transform="rotate(0, 984.777, 1353.9)" x="984.777" y="1353.9">4</text>
</g>
<g clip-path="url(#clip9000)">
<text style="fill:#000000; fill-opacity:1; font-family:Arial,Helvetica Neue,Helvetica,sans-serif; font-size:71px; text-anchor:middle;" transform="rotate(0, 1345.55, 1353.9)" x="1345.55" y="1353.9">8</text>
</g>
<g clip-path="url(#clip9000)">
<text style="fill:#000000; fill-opacity:1; font-family:Arial,Helvetica Neue,Helvetica,sans-serif; font-size:71px; text-anchor:middle;" transform="rotate(0, 1706.33, 1353.9)" x="1706.33" y="1353.9">12</text>
</g>
<g clip-path="url(#clip9000)">
<text style="fill:#000000; fill-opacity:1; font-family:Arial,Helvetica Neue,Helvetica,sans-serif; font-size:71px; text-anchor:middle;" transform="rotate(0, 2067.1, 1353.9)" x="2067.1" y="1353.9">16</text>
</g>
<g clip-path="url(#clip9000)">
<text style="fill:#000000; fill-opacity:1; font-family:Arial,Helvetica Neue,Helvetica,sans-serif; font-size:71px; text-anchor:middle;" transform="rotate(0, 2427.87, 1353.9)" x="2427.87" y="1353.9">20</text>
</g>
<g clip-path="url(#clip9000)">
<text style="fill:#000000; fill-opacity:1; font-family:Arial,Helvetica Neue,Helvetica,sans-serif; font-size:71px; text-anchor:middle;" transform="rotate(0, 2788.65, 1353.9)" x="2788.65" y="1353.9">24</text>
</g>
<g clip-path="url(#clip9000)">
<text style="fill:#000000; fill-opacity:1; font-family:Arial,Helvetica Neue,Helvetica,sans-serif; font-size:71px; text-anchor:end;" transform="rotate(0, 528.611, 1270.75)" x="528.611" y="1270.75">0.0</text>
</g>
<g clip-path="url(#clip9000)">
<text style="fill:#000000; fill-opacity:1; font-family:Arial,Helvetica Neue,Helvetica,sans-serif; font-size:71px; text-anchor:end;" transform="rotate(0, 528.611, 993.698)" x="528.611" y="993.698">0.2</text>
</g>
<g clip-path="url(#clip9000)">
<text style="fill:#000000; fill-opacity:1; font-family:Arial,Helvetica Neue,Helvetica,sans-serif; font-size:71px; text-anchor:end;" transform="rotate(0, 528.611, 716.644)" x="528.611" y="716.644">0.4</text>
</g>
<g clip-path="url(#clip9000)">
<text style="fill:#000000; fill-opacity:1; font-family:Arial,Helvetica Neue,Helvetica,sans-serif; font-size:71px; text-anchor:end;" transform="rotate(0, 528.611, 439.591)" x="528.611" y="439.591">0.6</text>
</g>
<g clip-path="url(#clip9000)">
<text style="fill:#000000; fill-opacity:1; font-family:Arial,Helvetica Neue,Helvetica,sans-serif; font-size:95px; text-anchor:middle;" transform="rotate(0, 1707.08, 1469.75)" x="1707.08" y="1469.75">Time (hours)</text>
</g>
<g clip-path="url(#clip9000)">
<text style="fill:#000000; fill-opacity:1; font-family:Arial,Helvetica Neue,Helvetica,sans-serif; font-size:95px; text-anchor:middle;" transform="rotate(-90, 378.453, 732.24)" x="378.453" y="732.24">Probability Empty Dock</text>
</g>
<polyline clip-path="url(#clip9002)" style="stroke:#009af9; stroke-width:4; stroke-opacity:1; fill:none" points="
  625.506,382.226 627.009,380.986 628.512,379.73 630.015,378.46 631.518,377.174 633.022,375.872 634.525,374.554 636.028,373.219 637.531,371.868 639.035,370.499 
  640.538,369.114 642.041,367.71 643.544,366.289 645.048,364.849 646.551,363.39 648.054,361.912 649.557,360.415 651.06,358.897 652.564,357.36 654.067,355.801 
  655.57,354.222 657.073,352.621 658.577,350.998 660.08,349.352 661.583,347.683 663.086,345.991 664.589,344.276 666.093,342.535 667.596,340.77 669.099,338.979 
  670.602,337.162 672.106,335.318 673.609,333.447 675.112,331.549 676.615,329.622 678.118,327.665 679.622,325.679 681.125,323.663 682.628,321.615 684.131,319.535 
  685.635,317.423 687.138,315.277 688.641,313.097 690.144,310.882 691.648,308.632 693.151,306.344 694.654,304.019 696.157,301.655 697.66,299.251 699.164,296.807 
  700.667,294.321 702.17,291.792 703.673,289.22 705.177,286.602 706.68,283.939 708.183,281.228 709.686,278.468 711.189,275.658 712.693,272.797 714.196,269.883 
  715.699,266.915 717.202,269.094 718.706,271.32 720.209,273.592 721.712,275.913 723.215,278.285 724.719,280.709 726.222,283.186 727.725,285.72 729.228,288.31 
  730.731,290.96 732.235,293.672 733.738,296.447 735.241,299.288 736.744,302.198 738.248,305.178 739.751,308.232 741.254,311.362 742.757,314.571 744.26,317.863 
  745.764,321.239 747.267,324.705 748.77,328.262 750.273,331.916 751.777,335.669 753.28,339.527 754.783,343.493 756.286,347.572 757.79,351.769 759.293,356.089 
  760.796,360.538 762.299,365.121 763.802,369.845 765.306,374.717 766.809,379.742 768.312,384.93 769.815,390.287 771.319,395.822 772.822,401.545 774.325,407.464 
  775.828,413.591 777.331,419.935 778.835,426.51 780.338,433.328 781.841,440.402 783.344,447.748 784.848,455.381 786.351,463.318 787.854,471.579 789.357,480.182 
  790.861,489.151 792.364,498.508 793.867,508.28 795.37,518.494 796.873,529.183 798.377,540.378 799.88,552.118 801.383,564.442 802.886,577.396 804.39,591.03 
  805.893,605.397 807.396,607.6 808.899,609.837 810.402,612.11 811.906,614.418 813.409,616.763 814.912,619.147 816.415,621.569 817.919,624.03 819.422,626.533 
  820.925,629.077 822.428,631.664 823.932,634.295 825.435,636.97 826.938,639.692 828.441,642.461 829.944,645.279 831.448,648.147 832.951,651.065 834.454,654.037 
  835.957,657.062 837.461,660.143 838.964,663.281 840.467,666.478 841.97,669.735 843.473,673.054 844.977,676.437 846.48,679.885 847.983,683.401 849.486,686.987 
  850.99,690.644 852.493,694.376 853.996,698.183 855.499,702.069 857.002,706.036 858.506,710.087 860.009,714.224 861.512,718.449 863.015,722.767 864.519,727.179 
  866.022,731.69 867.525,736.301 869.028,741.018 870.532,745.843 872.035,750.78 873.538,755.834 875.041,761.007 876.544,766.306 878.048,771.733 879.551,777.295 
  881.054,782.996 882.557,788.841 884.061,794.836 885.564,800.986 887.067,807.299 888.57,813.779 890.073,820.435 891.577,827.274 893.08,834.302 894.583,841.528 
  896.086,848.961 897.59,867.249 899.093,885.365 900.596,903.31 902.099,921.087 903.603,938.696 905.106,956.139 906.609,973.415 908.112,990.523 909.615,1007.46 
  911.119,1024.22 912.622,1040.78 914.125,1057.13 915.628,1073.24 917.132,1089.07 918.635,1104.55 920.138,1119.61 921.641,1134.15 923.144,1148.07 924.648,1161.23 
  926.151,1173.51 927.654,1184.78 929.157,1194.95 930.661,1203.96 932.164,1211.77 933.667,1218.42 935.17,1223.97 936.674,1228.52 938.177,1232.19 939.68,1235.1 
  941.183,1237.39 942.686,1239.16 944.19,1240.52 945.693,1241.56 947.196,1242.35 948.699,1242.95 950.203,1243.4 951.706,1243.73 953.209,1243.99 954.712,1244.17 
  956.215,1244.32 957.719,1244.42 959.222,1244.5 960.725,1244.56 962.228,1244.61 963.732,1244.64 965.235,1244.67 966.738,1244.69 968.241,1244.7 969.745,1244.71 
  971.248,1244.72 972.751,1244.73 974.254,1244.73 975.757,1244.74 977.261,1244.74 978.764,1244.74 980.267,1244.75 981.77,1244.75 983.274,1244.75 984.777,1244.75 
  986.28,1244.75 987.783,1244.75 989.286,1244.75 990.79,1244.75 992.293,1244.75 993.796,1244.75 995.299,1244.75 996.803,1244.75 998.306,1244.75 999.809,1244.75 
  1001.31,1244.75 1002.82,1244.75 1004.32,1244.75 1005.82,1244.75 1007.33,1244.75 1008.83,1244.75 1010.33,1244.75 1011.83,1244.75 1013.34,1244.75 1014.84,1244.75 
  1016.34,1244.75 1017.85,1244.75 1019.35,1244.75 1020.85,1244.75 1022.36,1244.75 1023.86,1244.75 1025.36,1244.75 1026.87,1244.75 1028.37,1244.75 1029.87,1244.75 
  1031.38,1244.75 1032.88,1244.75 1034.38,1244.75 1035.89,1244.75 1037.39,1244.75 1038.89,1244.75 1040.4,1244.75 1041.9,1244.75 1043.4,1244.75 1044.91,1244.75 
  1046.41,1244.75 1047.91,1244.75 1049.42,1244.75 1050.92,1244.75 1052.42,1244.75 1053.93,1244.75 1055.43,1244.75 1056.93,1244.75 1058.43,1244.75 1059.94,1244.75 
  1061.44,1244.75 1062.94,1244.75 1064.45,1244.75 1065.95,1244.75 1067.45,1244.75 1068.96,1244.75 1070.46,1244.75 1071.96,1244.75 1073.47,1244.75 1074.97,1244.75 
  1076.47,1244.75 1077.98,1244.75 1079.48,1244.75 1080.98,1244.75 1082.49,1244.75 1083.99,1244.75 1085.49,1244.75 1087,1244.75 1088.5,1244.75 1090,1244.75 
  1091.51,1244.75 1093.01,1244.75 1094.51,1244.75 1096.02,1244.75 1097.52,1244.75 1099.02,1244.75 1100.53,1244.75 1102.03,1244.75 1103.53,1244.75 1105.03,1244.75 
  1106.54,1244.75 1108.04,1244.75 1109.54,1244.75 1111.05,1244.75 1112.55,1244.75 1114.05,1244.75 1115.56,1244.75 1117.06,1244.75 1118.56,1244.75 1120.07,1244.75 
  1121.57,1244.75 1123.07,1244.75 1124.58,1244.75 1126.08,1244.75 1127.58,1244.75 1129.09,1244.75 1130.59,1244.75 1132.09,1244.75 1133.6,1244.75 1135.1,1244.75 
  1136.6,1244.75 1138.11,1244.75 1139.61,1244.75 1141.11,1244.75 1142.62,1244.75 1144.12,1244.75 1145.62,1244.75 1147.13,1244.75 1148.63,1244.75 1150.13,1244.75 
  1151.63,1244.75 1153.14,1244.75 1154.64,1244.75 1156.14,1244.75 1157.65,1244.75 1159.15,1244.75 1160.65,1244.75 1162.16,1244.75 1163.66,1244.75 1165.16,1244.75 
  1166.67,1244.75 1168.17,1244.75 1169.67,1244.75 1171.18,1244.75 1172.68,1244.75 1174.18,1244.75 1175.69,1244.75 1177.19,1244.75 1178.69,1244.75 1180.2,1244.75 
  1181.7,1244.75 1183.2,1244.75 1184.71,1244.75 1186.21,1244.75 1187.71,1244.75 1189.22,1244.75 1190.72,1244.75 1192.22,1244.75 1193.73,1244.75 1195.23,1244.75 
  1196.73,1244.75 1198.23,1244.75 1199.74,1244.75 1201.24,1244.75 1202.74,1244.75 1204.25,1244.75 1205.75,1244.75 1207.25,1244.75 1208.76,1244.75 1210.26,1244.75 
  1211.76,1244.75 1213.27,1244.75 1214.77,1244.75 1216.27,1244.75 1217.78,1244.75 1219.28,1244.75 1220.78,1244.75 1222.29,1244.75 1223.79,1244.75 1225.29,1244.75 
  1226.8,1244.75 1228.3,1244.75 1229.8,1244.75 1231.31,1244.75 1232.81,1244.75 1234.31,1244.75 1235.82,1244.75 1237.32,1244.75 1238.82,1244.75 1240.33,1244.75 
  1241.83,1244.75 1243.33,1244.75 1244.84,1244.75 1246.34,1244.75 1247.84,1244.75 1249.34,1244.75 1250.85,1244.75 1252.35,1244.75 1253.85,1244.75 1255.36,1244.75 
  1256.86,1244.75 1258.36,1244.75 1259.87,1244.75 1261.37,1244.75 1262.87,1244.75 1264.38,1244.75 1265.88,1244.75 1267.38,1244.75 1268.89,1244.75 1270.39,1244.75 
  1271.89,1244.75 1273.4,1244.75 1274.9,1244.75 1276.4,1244.75 1277.91,1244.75 1279.41,1244.75 1280.91,1244.75 1282.42,1244.75 1283.92,1244.75 1285.42,1244.75 
  1286.93,1244.75 1288.43,1244.75 1289.93,1244.75 1291.44,1244.75 1292.94,1244.75 1294.44,1244.75 1295.94,1244.75 1297.45,1244.75 1298.95,1244.75 1300.45,1244.75 
  1301.96,1244.75 1303.46,1244.75 1304.96,1244.75 1306.47,1244.75 1307.97,1244.75 1309.47,1244.75 1310.98,1244.75 1312.48,1244.75 1313.98,1244.75 1315.49,1244.75 
  1316.99,1244.75 1318.49,1244.75 1320,1244.75 1321.5,1244.75 1323,1244.75 1324.51,1244.75 1326.01,1244.75 1327.51,1244.75 1329.02,1244.75 1330.52,1244.75 
  1332.02,1244.75 1333.53,1244.75 1335.03,1244.75 1336.53,1244.75 1338.04,1244.75 1339.54,1244.75 1341.04,1244.75 1342.54,1244.75 1344.05,1244.75 1345.55,1244.75 
  1347.05,1244.75 1348.56,1244.75 1350.06,1244.75 1351.56,1244.75 1353.07,1244.75 1354.57,1244.75 1356.07,1244.75 1357.58,1244.75 1359.08,1244.75 1360.58,1244.75 
  1362.09,1244.75 1363.59,1244.75 1365.09,1244.75 1366.6,1244.75 1368.1,1244.75 1369.6,1244.75 1371.11,1244.75 1372.61,1244.75 1374.11,1244.75 1375.62,1244.75 
  1377.12,1244.75 1378.62,1244.75 1380.13,1244.75 1381.63,1244.75 1383.13,1244.75 1384.64,1244.75 1386.14,1244.75 1387.64,1244.75 1389.14,1244.75 1390.65,1244.75 
  1392.15,1244.75 1393.65,1244.75 1395.16,1244.75 1396.66,1244.75 1398.16,1244.75 1399.67,1244.75 1401.17,1244.75 1402.67,1244.75 1404.18,1244.75 1405.68,1244.75 
  1407.18,1244.75 1408.69,1244.75 1410.19,1244.75 1411.69,1244.75 1413.2,1244.75 1414.7,1244.75 1416.2,1244.75 1417.71,1244.75 1419.21,1244.75 1420.71,1244.75 
  1422.22,1244.75 1423.72,1244.75 1425.22,1244.75 1426.73,1244.75 1428.23,1244.75 1429.73,1244.75 1431.24,1244.75 1432.74,1244.75 1434.24,1244.75 1435.74,1244.75 
  1437.25,1244.75 1438.75,1244.75 1440.25,1244.75 1441.76,1244.75 1443.26,1244.75 1444.76,1244.75 1446.27,1244.75 1447.77,1244.75 1449.27,1244.75 1450.78,1244.75 
  1452.28,1244.75 1453.78,1244.75 1455.29,1244.75 1456.79,1244.75 1458.29,1244.75 1459.8,1244.75 1461.3,1244.75 1462.8,1244.75 1464.31,1244.75 1465.81,1244.75 
  1467.31,1244.75 1468.82,1244.75 1470.32,1244.75 1471.82,1244.75 1473.33,1244.75 1474.83,1244.75 1476.33,1244.75 1477.84,1244.75 1479.34,1244.75 1480.84,1244.75 
  1482.34,1244.75 1483.85,1244.75 1485.35,1244.75 1486.85,1244.75 1488.36,1244.75 1489.86,1244.75 1491.36,1244.75 1492.87,1244.75 1494.37,1244.75 1495.87,1244.75 
  1497.38,1244.75 1498.88,1244.75 1500.38,1244.75 1501.89,1244.75 1503.39,1244.75 1504.89,1244.75 1506.4,1244.75 1507.9,1244.75 1509.4,1244.75 1510.91,1244.75 
  1512.41,1244.75 1513.91,1244.75 1515.42,1244.75 1516.92,1244.75 1518.42,1244.75 1519.93,1244.75 1521.43,1244.75 1522.93,1244.75 1524.44,1244.75 1525.94,1244.75 
  1527.44,1244.75 1528.94,1244.75 1530.45,1244.75 1531.95,1244.75 1533.45,1244.75 1534.96,1244.75 1536.46,1244.75 1537.96,1244.75 1539.47,1244.75 1540.97,1244.75 
  1542.47,1244.75 1543.98,1244.75 1545.48,1244.75 1546.98,1244.75 1548.49,1244.75 1549.99,1244.75 1551.49,1244.75 1553,1244.75 1554.5,1244.75 1556,1244.75 
  1557.51,1244.75 1559.01,1244.75 1560.51,1244.75 1562.02,1244.75 1563.52,1244.75 1565.02,1244.75 1566.53,1244.75 1568.03,1244.75 1569.53,1244.75 1571.04,1244.75 
  1572.54,1244.75 1574.04,1244.75 1575.54,1244.75 1577.05,1244.75 1578.55,1244.75 1580.05,1244.75 1581.56,1244.75 1583.06,1244.75 1584.56,1244.75 1586.07,1244.75 
  1587.57,1244.75 1589.07,1244.75 1590.58,1244.75 1592.08,1244.75 1593.58,1244.75 1595.09,1244.75 1596.59,1244.75 1598.09,1244.75 1599.6,1244.75 1601.1,1244.75 
  1602.6,1244.75 1604.11,1244.75 1605.61,1244.75 1607.11,1244.75 1608.62,1244.75 1610.12,1244.75 1611.62,1244.75 1613.13,1244.75 1614.63,1244.75 1616.13,1244.75 
  1617.64,1244.75 1619.14,1244.75 1620.64,1244.75 1622.14,1244.75 1623.65,1244.75 1625.15,1244.75 1626.65,1244.75 1628.16,1244.75 1629.66,1244.75 1631.16,1244.75 
  1632.67,1244.75 1634.17,1244.75 1635.67,1244.75 1637.18,1244.75 1638.68,1244.75 1640.18,1244.75 1641.69,1244.75 1643.19,1244.75 1644.69,1244.75 1646.2,1244.75 
  1647.7,1244.75 1649.2,1244.75 1650.71,1244.75 1652.21,1244.75 1653.71,1244.75 1655.22,1244.75 1656.72,1244.75 1658.22,1244.75 1659.73,1244.75 1661.23,1244.75 
  1662.73,1244.75 1664.24,1244.75 1665.74,1244.75 1667.24,1244.75 1668.74,1244.75 1670.25,1244.75 1671.75,1244.75 1673.25,1244.75 1674.76,1244.75 1676.26,1244.75 
  1677.76,1244.75 1679.27,1244.75 1680.77,1244.75 1682.27,1244.75 1683.78,1244.75 1685.28,1244.75 1686.78,1244.75 1688.29,1244.75 1689.79,1244.75 1691.29,1244.75 
  1692.8,1244.75 1694.3,1244.75 1695.8,1244.75 1697.31,1244.75 1698.81,1244.75 1700.31,1244.75 1701.82,1244.75 1703.32,1244.75 1704.82,1244.75 1706.33,1244.75 
  1707.83,1244.75 1709.33,1244.75 1710.84,1244.75 1712.34,1244.75 1713.84,1244.75 1715.35,1244.75 1716.85,1244.75 1718.35,1244.75 1719.85,1244.74 1721.36,1244.74 
  1722.86,1244.74 1724.36,1244.73 1725.87,1244.73 1727.37,1244.72 1728.87,1244.71 1730.38,1244.7 1731.88,1244.69 1733.38,1244.67 1734.89,1244.65 1736.39,1244.62 
  1737.89,1244.59 1739.4,1244.54 1740.9,1244.49 1742.4,1244.42 1743.91,1244.33 1745.41,1244.22 1746.91,1244.08 1748.42,1243.91 1749.92,1243.7 1751.42,1243.43 
  1752.93,1243.11 1754.43,1242.72 1755.93,1242.24 1757.44,1241.66 1758.94,1240.96 1760.44,1240.12 1761.95,1239.12 1763.45,1237.94 1764.95,1236.55 1766.45,1234.92 
  1767.96,1233.03 1769.46,1230.85 1770.96,1228.37 1772.47,1225.56 1773.97,1222.4 1775.47,1218.88 1776.98,1214.99 1778.48,1210.73 1779.98,1206.11 1781.49,1201.13 
  1782.99,1195.81 1784.49,1190.16 1786,1184.21 1787.5,1177.99 1789,1171.52 1790.51,1164.84 1792.01,1157.96 1793.51,1150.93 1795.02,1143.76 1796.52,1136.48 
  1798.02,1129.12 1799.53,1129.93 1801.03,1130.74 1802.53,1131.56 1804.04,1132.37 1805.54,1133.18 1807.04,1134 1808.55,1134.81 1810.05,1135.63 1811.55,1136.44 
  1813.05,1137.25 1814.56,1138.07 1816.06,1138.88 1817.56,1139.69 1819.07,1140.51 1820.57,1141.32 1822.07,1142.13 1823.58,1142.94 1825.08,1143.75 1826.58,1144.57 
  1828.09,1145.38 1829.59,1146.19 1831.09,1147 1832.6,1147.8 1834.1,1148.61 1835.6,1149.42 1837.11,1150.23 1838.61,1151.03 1840.11,1151.84 1841.62,1152.65 
  1843.12,1153.45 1844.62,1154.25 1846.13,1155.05 1847.63,1155.86 1849.13,1156.66 1850.64,1157.46 1852.14,1158.25 1853.64,1159.05 1855.15,1159.85 1856.65,1160.64 
  1858.15,1161.43 1859.65,1162.22 1861.16,1163.01 1862.66,1163.8 1864.16,1164.59 1865.67,1165.38 1867.17,1166.16 1868.67,1166.94 1870.18,1167.72 1871.68,1168.5 
  1873.18,1169.28 1874.69,1170.05 1876.19,1170.83 1877.69,1171.6 1879.2,1172.37 1880.7,1173.13 1882.2,1173.9 1883.71,1174.66 1885.21,1175.42 1886.71,1176.18 
  1888.22,1176.93 1889.72,1173.3 1891.22,1169.61 1892.73,1165.86 1894.23,1162.08 1895.73,1158.26 1897.24,1154.41 1898.74,1150.53 1900.24,1146.62 1901.75,1142.7 
  1903.25,1138.77 1904.75,1134.82 1906.25,1130.87 1907.76,1126.92 1909.26,1122.97 1910.76,1119.02 1912.27,1115.08 1913.77,1111.14 1915.27,1107.22 1916.78,1103.31 
  1918.28,1099.41 1919.78,1095.52 1921.29,1091.66 1922.79,1087.81 1924.29,1083.98 1925.8,1080.17 1927.3,1076.38 1928.8,1072.61 1930.31,1068.87 1931.81,1065.15 
  1933.31,1061.44 1934.82,1057.77 1936.32,1054.11 1937.82,1050.48 1939.33,1046.88 1940.83,1043.3 1942.33,1039.74 1943.84,1036.2 1945.34,1032.69 1946.84,1029.21 
  1948.35,1025.75 1949.85,1022.31 1951.35,1018.9 1952.85,1015.51 1954.36,1012.14 1955.86,1008.8 1957.36,1005.48 1958.87,1002.18 1960.37,998.911 1961.87,995.662 
  1963.38,992.435 1964.88,989.231 1966.38,986.05 1967.89,982.891 1969.39,979.753 1970.89,976.638 1972.4,973.544 1973.9,970.472 1975.4,967.421 1976.91,964.392 
  1978.41,961.383 1979.91,957.612 1981.42,953.905 1982.92,950.262 1984.42,946.681 1985.93,943.16 1987.43,939.697 1988.93,936.292 1990.44,932.942 1991.94,929.647 
  1993.44,926.405 1994.95,923.215 1996.45,920.075 1997.95,916.985 1999.45,913.944 2000.96,910.949 2002.46,908.001 2003.96,905.098 2005.47,902.238 2006.97,899.422 
  2008.47,896.648 2009.98,893.915 2011.48,891.222 2012.98,888.569 2014.49,885.954 2015.99,883.377 2017.49,880.836 2019,878.332 2020.5,875.863 2022,873.428 
  2023.51,871.028 2025.01,868.66 2026.51,866.325 2028.02,864.022 2029.52,861.75 2031.02,859.509 2032.53,857.297 2034.03,855.115 2035.53,852.962 2037.04,850.836 
  2038.54,848.739 2040.04,846.668 2041.55,844.624 2043.05,842.607 2044.55,840.614 2046.05,838.647 2047.56,836.704 2049.06,834.786 2050.56,832.891 2052.07,831.02 
  2053.57,829.171 2055.07,827.345 2056.58,825.541 2058.08,823.759 2059.58,821.997 2061.09,820.257 2062.59,818.537 2064.09,816.837 2065.6,815.157 2067.1,813.497 
  2068.6,811.856 2070.11,790.618 2071.61,770.495 2073.11,751.4 2074.62,733.257 2076.12,715.996 2077.62,699.554 2079.13,683.875 2080.63,668.907 2082.13,654.602 
  2083.64,640.917 2085.14,627.813 2086.64,615.253 2088.15,603.205 2089.65,591.637 2091.15,580.522 2092.65,569.833 2094.16,559.547 2095.66,549.641 2097.16,540.094 
  2098.67,530.887 2100.17,522.003 2101.67,513.424 2103.18,505.136 2104.68,497.123 2106.18,489.372 2107.69,481.871 2109.19,474.608 2110.69,467.571 2112.2,460.75 
  2113.7,454.135 2115.2,447.718 2116.71,441.488 2118.21,435.439 2119.71,429.563 2121.22,423.852 2122.72,418.299 2124.22,412.898 2125.73,407.643 2127.23,402.527 
  2128.73,397.547 2130.24,392.695 2131.74,387.967 2133.24,383.359 2134.75,378.866 2136.25,374.484 2137.75,370.208 2139.26,366.035 2140.76,361.962 2142.26,357.984 
  2143.76,354.098 2145.27,350.302 2146.77,346.592 2148.27,342.965 2149.78,339.419 2151.28,335.95 2152.78,332.557 2154.29,329.236 2155.79,325.987 2157.29,322.805 
  2158.8,319.69 2160.3,317.613 2161.8,315.554 2163.31,313.511 2164.81,311.486 2166.31,309.477 2167.82,307.485 2169.32,305.509 2170.82,303.549 2172.33,301.604 
  2173.83,299.676 2175.33,297.763 2176.84,295.865 2178.34,293.982 2179.84,292.114 2181.35,290.261 2182.85,288.423 2184.35,286.599 2185.86,284.789 2187.36,282.993 
  2188.86,281.211 2190.36,279.443 2191.87,277.688 2193.37,275.947 2194.87,274.219 2196.38,272.504 2197.88,270.802 2199.38,269.113 2200.89,267.437 2202.39,265.773 
  2203.89,264.122 2205.4,262.483 2206.9,260.856 2208.4,259.241 2209.91,257.638 2211.41,256.046 2212.91,254.466 2214.42,252.898 2215.92,251.341 2217.42,249.795 
  2218.93,248.261 2220.43,246.737 2221.93,245.224 2223.44,243.722 2224.94,242.231 2226.44,240.75 2227.95,239.279 2229.45,237.819 2230.95,236.369 2232.46,234.929 
  2233.96,233.499 2235.46,232.079 2236.96,230.669 2238.47,229.268 2239.97,227.877 2241.47,226.496 2242.98,225.124 2244.48,223.761 2245.98,222.407 2247.49,221.063 
  2248.99,219.727 2250.49,221.484 2252,223.264 2253.5,225.067 2255,226.894 2256.51,228.746 2258.01,230.622 2259.51,232.524 2261.02,234.451 2262.52,236.405 
  2264.02,238.386 2265.53,240.395 2267.03,242.431 2268.53,244.496 2270.04,246.591 2271.54,248.715 2273.04,250.87 2274.55,253.056 2276.05,255.274 2277.55,257.525 
  2279.06,259.809 2280.56,262.127 2282.06,264.479 2283.56,266.868 2285.07,269.293 2286.57,271.755 2288.07,274.256 2289.58,276.795 2291.08,279.374 2292.58,281.995 
  2294.09,284.657 2295.59,287.362 2297.09,290.111 2298.6,292.905 2300.1,295.746 2301.6,298.633 2303.11,301.569 2304.61,304.555 2306.11,307.592 2307.62,310.682 
  2309.12,313.824 2310.62,317.023 2312.13,320.277 2313.63,323.59 2315.13,326.962 2316.64,330.396 2318.14,333.893 2319.64,337.454 2321.15,341.082 2322.65,344.778 
  2324.15,348.545 2325.66,352.384 2327.16,356.297 2328.66,360.288 2330.16,364.357 2331.67,368.507 2333.17,372.742 2334.67,377.062 2336.18,381.472 2337.68,385.974 
  2339.18,390.57 2340.69,391.456 2342.19,392.352 2343.69,393.26 2345.2,394.18 2346.7,395.111 2348.2,396.054 2349.71,397.01 2351.21,397.978 2352.71,398.959 
  2354.22,399.953 2355.72,400.96 2357.22,401.981 2358.73,403.016 2360.23,404.064 2361.73,405.128 2363.24,406.205 2364.74,407.298 2366.24,408.406 2367.75,409.53 
  2369.25,410.669 2370.75,411.825 2372.26,412.998 2373.76,414.188 2375.26,415.395 2376.76,416.619 2378.27,417.862 2379.77,419.124 2381.27,420.404 2382.78,421.704 
  2384.28,423.024 2385.78,424.365 2387.29,425.726 2388.79,427.108 2390.29,428.512 2391.8,429.938 2393.3,431.388 2394.8,432.861 2396.31,434.357 2397.81,435.879 
  2399.31,437.425 2400.82,438.997 2402.32,440.596 2403.82,442.222 2405.33,443.876 2406.83,445.558 2408.33,447.27 2409.84,449.012 2411.34,450.784 2412.84,452.589 
  2414.35,454.426 2415.85,456.296 2417.35,458.201 2418.86,460.141 2420.36,462.118 2421.86,464.131 2423.36,466.184 2424.87,468.276 2426.37,470.408 2427.87,472.583 
  2429.38,474.8 2430.88,474.049 2432.38,473.291 2433.89,472.525 2435.39,471.752 2436.89,470.971 2438.4,470.182 2439.9,469.386 2441.4,468.581 2442.91,467.769 
  2444.41,466.948 2445.91,466.119 2447.42,465.282 2448.92,464.436 2450.42,463.581 2451.93,462.717 2453.43,461.845 2454.93,460.963 2456.44,460.072 2457.94,459.171 
  2459.44,458.261 2460.95,457.342 2462.45,456.412 2463.95,455.472 2465.46,454.522 2466.96,453.562 2468.46,452.591 2469.96,451.61 2471.47,450.617 2472.97,449.614 
  2474.47,448.599 2475.98,447.572 2477.48,446.535 2478.98,445.485 2480.49,444.423 2481.99,443.349 2483.49,442.262 2485,441.163 2486.5,440.05 2488,438.925 
  2489.51,437.786 2491.01,436.634 2492.51,435.468 2494.02,434.287 2495.52,433.092 2497.02,431.883 2498.53,430.658 2500.03,429.419 2501.53,428.164 2503.04,426.893 
  2504.54,425.606 2506.04,424.302 2507.55,422.982 2509.05,421.645 2510.55,420.291 2512.06,418.919 2513.56,417.528 2515.06,416.12 2516.56,414.692 2518.07,413.246 
  2519.57,411.78 2521.07,412.981 2522.58,414.207 2524.08,415.458 2525.58,416.735 2527.09,418.04 2528.59,419.373 2530.09,420.734 2531.6,422.125 2533.1,423.548 
  2534.6,425.002 2536.11,426.489 2537.61,428.01 2539.11,429.566 2540.62,431.159 2542.12,432.79 2543.62,434.46 2545.13,436.17 2546.63,437.923 2548.13,439.719 
  2549.64,441.561 2551.14,443.449 2552.64,445.387 2554.15,447.375 2555.65,449.417 2557.15,451.513 2558.66,453.666 2560.16,455.879 2561.66,458.155 2563.16,460.495 
  2564.67,462.902 2566.17,465.38 2567.67,467.932 2569.18,470.561 2570.68,473.271 2572.18,476.065 2573.69,478.947 2575.19,481.922 2576.69,484.994 2578.2,488.168 
  2579.7,491.449 2581.2,494.843 2582.71,498.355 2584.21,501.992 2585.71,505.761 2587.22,509.669 2588.72,513.724 2590.22,517.934 2591.73,522.308 2593.23,526.856 
  2594.73,531.589 2596.24,536.519 2597.74,541.657 2599.24,547.017 2600.75,552.614 2602.25,558.464 2603.75,564.585 2605.26,570.995 2606.76,577.717 2608.26,584.772 
  2609.77,592.187 2611.27,590.661 2612.77,589.12 2614.27,587.563 2615.78,585.99 2617.28,584.401 2618.78,582.796 2620.29,581.175 2621.79,579.537 2623.29,577.882 
  2624.8,576.209 2626.3,574.519 2627.8,572.811 2629.31,571.085 2630.81,569.341 2632.31,567.578 2633.82,565.796 2635.32,563.995 2636.82,562.174 2638.33,560.333 
  2639.83,558.472 2641.33,556.59 2642.84,554.688 2644.34,552.764 2645.84,550.818 2647.35,548.85 2648.85,546.86 2650.35,544.848 2651.86,542.812 2653.36,540.752 
  2654.86,538.668 2656.37,536.56 2657.87,534.427 2659.37,532.269 2660.87,530.085 2662.38,527.875 2663.88,525.639 2665.38,523.375 2666.89,521.083 2668.39,518.763 
  2669.89,516.415 2671.4,514.037 2672.9,511.629 2674.4,509.192 2675.91,506.723 2677.41,504.223 2678.91,501.69 2680.42,499.125 2681.92,496.526 2683.42,493.894 
  2684.93,491.227 2686.43,488.524 2687.93,485.785 2689.44,483.009 2690.94,480.196 2692.44,477.344 2693.95,474.454 2695.45,471.523 2696.95,468.551 2698.46,465.538 
  2699.96,462.482 2701.46,463.909 2702.97,465.365 2704.47,466.851 2705.97,468.368 2707.47,469.916 2708.98,471.498 2710.48,473.114 2711.98,474.764 2713.49,476.452 
  2714.99,478.176 2716.49,479.939 2718,481.743 2719.5,483.588 2721,485.476 2722.51,487.408 2724.01,489.386 2725.51,491.412 2727.02,493.487 2728.52,495.614 
  2730.02,497.793 2731.53,500.028 2733.03,502.32 2734.53,504.672 2736.04,507.086 2737.54,509.564 2739.04,512.108 2740.55,514.723 2742.05,517.41 2743.55,520.173 
  2745.06,523.015 2746.56,525.94 2748.06,528.95 2749.57,532.05 2751.07,535.244 2752.57,538.536 2754.07,541.932 2755.58,545.435 2757.08,549.051 2758.58,552.785 
  2760.09,556.645 2761.59,560.634 2763.09,564.762 2764.6,569.034 2766.1,573.459 2767.6,578.045 2769.11,582.801 2770.61,587.736 2772.11,592.861 2773.62,598.187 
  2775.12,603.726 2776.62,609.491 2778.13,615.496 2779.63,621.757 2781.13,628.29 2782.64,635.113 2784.14,642.246 2785.64,649.712 2787.15,657.533 2788.65,665.735 
  
  "/>
<polyline clip-path="url(#clip9002)" style="stroke:#e26f46; stroke-width:4; stroke-opacity:1; fill:none" points="
  625.506,382.226 627.009,381.804 628.512,380.963 630.015,379.944 631.518,378.824 633.022,377.64 634.525,376.41 636.028,375.146 637.531,373.853 639.035,372.536 
  640.538,371.197 642.041,369.836 643.544,368.456 645.048,367.056 646.551,365.637 648.054,364.198 649.557,362.74 651.06,361.262 652.564,359.765 654.067,358.247 
  655.57,356.709 657.073,355.151 658.577,353.571 660.08,351.969 661.583,350.345 663.086,348.699 664.589,347.03 666.093,345.338 667.596,343.622 669.099,341.881 
  670.602,340.116 672.106,338.325 673.609,336.508 675.112,334.665 676.615,332.795 678.118,330.896 679.622,328.97 681.125,327.014 682.628,325.029 684.131,323.014 
  685.635,320.967 687.138,318.889 688.641,316.778 690.144,314.634 691.648,312.456 693.151,310.243 694.654,307.995 696.157,305.71 697.66,303.387 699.164,301.026 
  700.667,298.625 702.17,296.184 703.673,293.702 705.177,291.178 706.68,288.609 708.183,285.996 709.686,283.337 711.189,280.632 712.693,277.877 714.196,275.073 
  715.699,272.218 717.202,270.768 718.706,270.97 720.209,271.97 721.712,273.425 723.215,275.168 724.719,277.11 726.222,279.197 727.725,281.4 729.228,283.697 
  730.731,286.077 732.235,288.532 733.738,291.057 735.241,293.649 736.744,296.307 738.248,299.031 739.751,301.82 741.254,304.676 742.757,307.6 744.26,310.593 
  745.764,313.657 747.267,316.794 748.77,320.006 750.273,323.296 751.777,326.665 753.28,330.116 754.783,333.653 756.286,337.278 757.79,340.993 759.293,344.803 
  760.796,348.71 762.299,352.718 763.802,356.831 765.306,361.052 766.809,365.385 768.312,369.834 769.815,374.404 771.319,379.099 772.822,383.923 774.325,388.882 
  775.828,393.981 777.331,399.225 778.835,404.62 780.338,410.17 781.841,415.883 783.344,421.765 784.848,427.822 786.351,434.06 787.854,440.488 789.357,447.113 
  790.861,453.941 792.364,460.982 793.867,468.243 795.37,475.734 796.873,483.462 798.377,491.438 799.88,499.67 801.383,508.17 802.886,516.946 804.39,526.01 
  805.893,535.371 807.396,543.939 808.899,551.079 810.402,557.251 811.906,562.727 813.409,567.683 814.912,572.237 816.415,576.472 817.919,580.452 819.422,584.224 
  820.925,587.824 822.428,591.283 823.932,594.625 825.435,597.868 826.938,601.031 828.441,604.125 829.944,607.164 831.448,610.157 832.951,613.113 834.454,616.039 
  835.957,618.942 837.461,621.828 838.964,624.703 840.467,627.57 841.97,630.434 843.473,633.299 844.977,636.168 846.48,639.044 847.983,641.93 849.486,644.828 
  850.99,647.742 852.493,650.673 853.996,653.623 855.499,656.595 857.002,659.59 858.506,662.61 860.009,665.657 861.512,668.732 863.015,671.836 864.519,674.972 
  866.022,678.14 867.525,681.342 869.028,684.579 870.532,687.853 872.035,691.164 873.538,694.514 875.041,697.905 876.544,701.336 878.048,704.809 879.551,708.326 
  881.054,711.887 882.557,715.494 884.061,719.148 885.564,722.848 887.067,726.598 888.57,730.397 890.073,734.247 891.577,738.148 893.08,742.102 894.583,746.11 
  896.086,750.172 897.59,754.727 899.093,760.082 900.596,766.077 902.099,772.592 903.603,779.529 905.106,786.811 906.609,794.375 908.112,802.168 909.615,810.145 
  911.119,818.267 912.622,826.503 914.125,834.822 915.628,843.201 917.132,851.616 918.635,860.049 920.138,868.482 921.641,876.9 923.144,885.29 924.648,893.64 
  926.151,901.938 927.654,910.175 929.157,918.343 930.661,926.434 932.164,934.441 933.667,942.359 935.17,950.182 936.674,957.904 938.177,965.523 939.68,973.034 
  941.183,980.434 942.686,987.721 944.19,994.891 945.693,1001.94 947.196,1008.87 948.699,1015.69 950.203,1022.37 951.706,1028.94 953.209,1035.37 954.712,1041.69 
  956.215,1047.88 957.719,1053.94 959.222,1059.88 960.725,1065.69 962.228,1071.37 963.732,1076.93 965.235,1082.37 966.738,1087.68 968.241,1092.87 969.745,1097.94 
  971.248,1102.88 972.751,1107.71 974.254,1112.41 975.757,1117 977.261,1121.47 978.764,1125.83 980.267,1130.07 981.77,1134.19 983.274,1138.21 984.777,1142.12 
  986.28,1145.92 987.783,1151.23 989.286,1158.85 990.79,1167.77 992.293,1177.21 993.796,1186.61 995.299,1195.57 996.803,1203.83 998.306,1211.22 999.809,1217.69 
  1001.31,1223.22 1002.82,1227.87 1004.32,1231.7 1005.82,1234.8 1007.33,1237.27 1008.83,1239.21 1010.33,1240.7 1011.83,1241.83 1013.34,1242.67 1014.84,1243.3 
  1016.34,1243.75 1017.85,1244.07 1019.35,1244.29 1020.85,1244.45 1022.36,1244.55 1023.86,1244.62 1025.36,1244.67 1026.87,1244.7 1028.37,1244.72 1029.87,1244.73 
  1031.38,1244.74 1032.88,1244.75 1034.38,1244.75 1035.89,1244.75 1037.39,1244.75 1038.89,1244.75 1040.4,1244.75 1041.9,1244.75 1043.4,1244.75 1044.91,1244.75 
  1046.41,1244.75 1047.91,1244.75 1049.42,1244.75 1050.92,1244.75 1052.42,1244.75 1053.93,1244.75 1055.43,1244.75 1056.93,1244.75 1058.43,1244.75 1059.94,1244.75 
  1061.44,1244.75 1062.94,1244.75 1064.45,1244.75 1065.95,1244.75 1067.45,1244.75 1068.96,1244.75 1070.46,1244.75 1071.96,1244.75 1073.47,1244.75 1074.97,1244.75 
  1076.47,1244.75 1077.98,1244.75 1079.48,1244.75 1080.98,1244.75 1082.49,1244.75 1083.99,1244.75 1085.49,1244.75 1087,1244.75 1088.5,1244.75 1090,1244.75 
  1091.51,1244.75 1093.01,1244.75 1094.51,1244.75 1096.02,1244.75 1097.52,1244.75 1099.02,1244.75 1100.53,1244.75 1102.03,1244.75 1103.53,1244.75 1105.03,1244.75 
  1106.54,1244.75 1108.04,1244.75 1109.54,1244.75 1111.05,1244.75 1112.55,1244.75 1114.05,1244.75 1115.56,1244.75 1117.06,1244.75 1118.56,1244.75 1120.07,1244.75 
  1121.57,1244.75 1123.07,1244.75 1124.58,1244.75 1126.08,1244.75 1127.58,1244.75 1129.09,1244.75 1130.59,1244.75 1132.09,1244.75 1133.6,1244.75 1135.1,1244.75 
  1136.6,1244.75 1138.11,1244.75 1139.61,1244.75 1141.11,1244.75 1142.62,1244.75 1144.12,1244.75 1145.62,1244.75 1147.13,1244.75 1148.63,1244.75 1150.13,1244.75 
  1151.63,1244.75 1153.14,1244.75 1154.64,1244.75 1156.14,1244.75 1157.65,1244.75 1159.15,1244.75 1160.65,1244.75 1162.16,1244.75 1163.66,1244.75 1165.16,1244.75 
  1166.67,1244.75 1168.17,1244.75 1169.67,1244.75 1171.18,1244.75 1172.68,1244.75 1174.18,1244.75 1175.69,1244.75 1177.19,1244.75 1178.69,1244.75 1180.2,1244.75 
  1181.7,1244.75 1183.2,1244.75 1184.71,1244.75 1186.21,1244.75 1187.71,1244.75 1189.22,1244.75 1190.72,1244.75 1192.22,1244.75 1193.73,1244.75 1195.23,1244.75 
  1196.73,1244.75 1198.23,1244.75 1199.74,1244.75 1201.24,1244.75 1202.74,1244.75 1204.25,1244.75 1205.75,1244.75 1207.25,1244.75 1208.76,1244.75 1210.26,1244.75 
  1211.76,1244.75 1213.27,1244.75 1214.77,1244.75 1216.27,1244.75 1217.78,1244.75 1219.28,1244.75 1220.78,1244.75 1222.29,1244.75 1223.79,1244.75 1225.29,1244.75 
  1226.8,1244.75 1228.3,1244.75 1229.8,1244.75 1231.31,1244.75 1232.81,1244.75 1234.31,1244.75 1235.82,1244.75 1237.32,1244.75 1238.82,1244.75 1240.33,1244.75 
  1241.83,1244.75 1243.33,1244.75 1244.84,1244.75 1246.34,1244.75 1247.84,1244.75 1249.34,1244.75 1250.85,1244.75 1252.35,1244.75 1253.85,1244.75 1255.36,1244.75 
  1256.86,1244.75 1258.36,1244.75 1259.87,1244.75 1261.37,1244.75 1262.87,1244.75 1264.38,1244.75 1265.88,1244.75 1267.38,1244.75 1268.89,1244.75 1270.39,1244.75 
  1271.89,1244.75 1273.4,1244.75 1274.9,1244.75 1276.4,1244.75 1277.91,1244.75 1279.41,1244.75 1280.91,1244.75 1282.42,1244.75 1283.92,1244.75 1285.42,1244.75 
  1286.93,1244.75 1288.43,1244.75 1289.93,1244.75 1291.44,1244.75 1292.94,1244.75 1294.44,1244.75 1295.94,1244.75 1297.45,1244.75 1298.95,1244.75 1300.45,1244.75 
  1301.96,1244.75 1303.46,1244.75 1304.96,1244.75 1306.47,1244.75 1307.97,1244.75 1309.47,1244.75 1310.98,1244.75 1312.48,1244.75 1313.98,1244.75 1315.49,1244.75 
  1316.99,1244.75 1318.49,1244.75 1320,1244.75 1321.5,1244.75 1323,1244.75 1324.51,1244.75 1326.01,1244.75 1327.51,1244.75 1329.02,1244.75 1330.52,1244.75 
  1332.02,1244.75 1333.53,1244.75 1335.03,1244.75 1336.53,1244.75 1338.04,1244.75 1339.54,1244.75 1341.04,1244.75 1342.54,1244.75 1344.05,1244.75 1345.55,1244.75 
  1347.05,1244.75 1348.56,1244.75 1350.06,1244.75 1351.56,1244.75 1353.07,1244.75 1354.57,1244.75 1356.07,1244.75 1357.58,1244.75 1359.08,1244.75 1360.58,1244.75 
  1362.09,1244.75 1363.59,1244.75 1365.09,1244.75 1366.6,1244.75 1368.1,1244.75 1369.6,1244.75 1371.11,1244.75 1372.61,1244.75 1374.11,1244.75 1375.62,1244.75 
  1377.12,1244.75 1378.62,1244.75 1380.13,1244.75 1381.63,1244.75 1383.13,1244.75 1384.64,1244.75 1386.14,1244.75 1387.64,1244.75 1389.14,1244.75 1390.65,1244.75 
  1392.15,1244.75 1393.65,1244.75 1395.16,1244.75 1396.66,1244.75 1398.16,1244.75 1399.67,1244.75 1401.17,1244.75 1402.67,1244.75 1404.18,1244.75 1405.68,1244.75 
  1407.18,1244.75 1408.69,1244.75 1410.19,1244.75 1411.69,1244.75 1413.2,1244.75 1414.7,1244.75 1416.2,1244.75 1417.71,1244.75 1419.21,1244.75 1420.71,1244.75 
  1422.22,1244.75 1423.72,1244.75 1425.22,1244.75 1426.73,1244.75 1428.23,1244.75 1429.73,1244.75 1431.24,1244.75 1432.74,1244.75 1434.24,1244.75 1435.74,1244.75 
  1437.25,1244.75 1438.75,1244.75 1440.25,1244.75 1441.76,1244.75 1443.26,1244.75 1444.76,1244.75 1446.27,1244.75 1447.77,1244.75 1449.27,1244.75 1450.78,1244.75 
  1452.28,1244.75 1453.78,1244.75 1455.29,1244.75 1456.79,1244.75 1458.29,1244.75 1459.8,1244.75 1461.3,1244.75 1462.8,1244.75 1464.31,1244.75 1465.81,1244.75 
  1467.31,1244.75 1468.82,1244.75 1470.32,1244.75 1471.82,1244.75 1473.33,1244.75 1474.83,1244.75 1476.33,1244.75 1477.84,1244.75 1479.34,1244.75 1480.84,1244.75 
  1482.34,1244.75 1483.85,1244.75 1485.35,1244.75 1486.85,1244.75 1488.36,1244.75 1489.86,1244.75 1491.36,1244.75 1492.87,1244.75 1494.37,1244.75 1495.87,1244.75 
  1497.38,1244.75 1498.88,1244.75 1500.38,1244.75 1501.89,1244.75 1503.39,1244.75 1504.89,1244.75 1506.4,1244.75 1507.9,1244.75 1509.4,1244.75 1510.91,1244.75 
  1512.41,1244.75 1513.91,1244.75 1515.42,1244.75 1516.92,1244.75 1518.42,1244.75 1519.93,1244.75 1521.43,1244.75 1522.93,1244.75 1524.44,1244.75 1525.94,1244.75 
  1527.44,1244.75 1528.94,1244.75 1530.45,1244.75 1531.95,1244.75 1533.45,1244.75 1534.96,1244.75 1536.46,1244.75 1537.96,1244.75 1539.47,1244.75 1540.97,1244.75 
  1542.47,1244.75 1543.98,1244.75 1545.48,1244.75 1546.98,1244.75 1548.49,1244.75 1549.99,1244.75 1551.49,1244.75 1553,1244.75 1554.5,1244.75 1556,1244.75 
  1557.51,1244.75 1559.01,1244.75 1560.51,1244.75 1562.02,1244.75 1563.52,1244.75 1565.02,1244.75 1566.53,1244.75 1568.03,1244.75 1569.53,1244.75 1571.04,1244.75 
  1572.54,1244.75 1574.04,1244.75 1575.54,1244.75 1577.05,1244.75 1578.55,1244.75 1580.05,1244.75 1581.56,1244.75 1583.06,1244.75 1584.56,1244.75 1586.07,1244.75 
  1587.57,1244.75 1589.07,1244.75 1590.58,1244.75 1592.08,1244.75 1593.58,1244.75 1595.09,1244.75 1596.59,1244.75 1598.09,1244.75 1599.6,1244.75 1601.1,1244.75 
  1602.6,1244.75 1604.11,1244.75 1605.61,1244.75 1607.11,1244.75 1608.62,1244.75 1610.12,1244.75 1611.62,1244.75 1613.13,1244.75 1614.63,1244.75 1616.13,1244.75 
  1617.64,1244.75 1619.14,1244.75 1620.64,1244.75 1622.14,1244.75 1623.65,1244.75 1625.15,1244.75 1626.65,1244.75 1628.16,1244.75 1629.66,1244.75 1631.16,1244.75 
  1632.67,1244.75 1634.17,1244.75 1635.67,1244.75 1637.18,1244.75 1638.68,1244.75 1640.18,1244.75 1641.69,1244.75 1643.19,1244.75 1644.69,1244.75 1646.2,1244.75 
  1647.7,1244.75 1649.2,1244.75 1650.71,1244.75 1652.21,1244.75 1653.71,1244.75 1655.22,1244.75 1656.72,1244.75 1658.22,1244.75 1659.73,1244.75 1661.23,1244.75 
  1662.73,1244.75 1664.24,1244.75 1665.74,1244.75 1667.24,1244.75 1668.74,1244.75 1670.25,1244.75 1671.75,1244.75 1673.25,1244.75 1674.76,1244.75 1676.26,1244.75 
  1677.76,1244.75 1679.27,1244.75 1680.77,1244.75 1682.27,1244.75 1683.78,1244.75 1685.28,1244.75 1686.78,1244.75 1688.29,1244.75 1689.79,1244.75 1691.29,1244.75 
  1692.8,1244.75 1694.3,1244.75 1695.8,1244.75 1697.31,1244.75 1698.81,1244.75 1700.31,1244.75 1701.82,1244.75 1703.32,1244.75 1704.82,1244.75 1706.33,1244.75 
  1707.83,1244.75 1709.33,1244.75 1710.84,1244.75 1712.34,1244.75 1713.84,1244.75 1715.35,1244.75 1716.85,1244.75 1718.35,1244.75 1719.85,1244.75 1721.36,1244.75 
  1722.86,1244.75 1724.36,1244.75 1725.87,1244.75 1727.37,1244.75 1728.87,1244.75 1730.38,1244.75 1731.88,1244.75 1733.38,1244.75 1734.89,1244.75 1736.39,1244.74 
  1737.89,1244.74 1739.4,1244.74 1740.9,1244.74 1742.4,1244.73 1743.91,1244.73 1745.41,1244.72 1746.91,1244.71 1748.42,1244.7 1749.92,1244.69 1751.42,1244.68 
  1752.93,1244.66 1754.43,1244.64 1755.93,1244.62 1757.44,1244.59 1758.94,1244.55 1760.44,1244.51 1761.95,1244.46 1763.45,1244.39 1764.95,1244.32 1766.45,1244.23 
  1767.96,1244.13 1769.46,1244 1770.96,1243.85 1772.47,1243.68 1773.97,1243.47 1775.47,1243.23 1776.98,1242.94 1778.48,1242.61 1779.98,1242.22 1781.49,1241.77 
  1782.99,1241.24 1784.49,1240.63 1786,1239.93 1787.5,1239.13 1789,1238.2 1790.51,1237.15 1792.01,1235.94 1793.51,1234.57 1795.02,1233.02 1796.52,1231.27 
  1798.02,1229.31 1799.53,1227.26 1801.03,1225.18 1802.53,1223.06 1804.04,1220.9 1805.54,1218.71 1807.04,1216.49 1808.55,1214.27 1810.05,1212.05 1811.55,1209.85 
  1813.05,1207.68 1814.56,1205.54 1816.06,1203.45 1817.56,1201.41 1819.07,1199.43 1820.57,1197.51 1822.07,1195.67 1823.58,1193.9 1825.08,1192.2 1826.58,1190.58 
  1828.09,1189.04 1829.59,1187.57 1831.09,1186.18 1832.6,1184.87 1834.1,1183.64 1835.6,1182.48 1837.11,1181.39 1838.61,1180.37 1840.11,1179.43 1841.62,1178.55 
  1843.12,1177.74 1844.62,1176.99 1846.13,1176.3 1847.63,1175.67 1849.13,1175.09 1850.64,1174.58 1852.14,1174.11 1853.64,1173.69 1855.15,1173.32 1856.65,1173 
  1858.15,1172.72 1859.65,1172.49 1861.16,1172.29 1862.66,1172.14 1864.16,1172.02 1865.67,1171.93 1867.17,1171.88 1868.67,1171.86 1870.18,1171.87 1871.68,1171.91 
  1873.18,1171.98 1874.69,1172.08 1876.19,1172.2 1877.69,1172.35 1879.2,1172.51 1880.7,1172.7 1882.2,1172.91 1883.71,1173.14 1885.21,1173.39 1886.71,1173.66 
  1888.22,1173.95 1889.72,1173.86 1891.22,1173.38 1892.73,1172.66 1894.23,1171.75 1895.73,1170.67 1897.24,1169.45 1898.74,1168.09 1900.24,1166.6 1901.75,1164.99 
  1903.25,1163.27 1904.75,1161.43 1906.25,1159.48 1907.76,1157.42 1909.26,1155.26 1910.76,1152.99 1912.27,1150.62 1913.77,1148.14 1915.27,1145.56 1916.78,1142.88 
  1918.28,1140.1 1919.78,1137.22 1921.29,1134.24 1922.79,1131.17 1924.29,1128 1925.8,1124.74 1927.3,1121.38 1928.8,1117.94 1930.31,1114.42 1931.81,1110.81 
  1933.31,1107.12 1934.82,1103.36 1936.32,1099.52 1937.82,1095.62 1939.33,1091.65 1940.83,1087.63 1942.33,1083.55 1943.84,1079.41 1945.34,1075.24 1946.84,1071.02 
  1948.35,1066.77 1949.85,1062.49 1951.35,1058.18 1952.85,1053.86 1954.36,1049.52 1955.86,1045.17 1957.36,1040.82 1958.87,1036.47 1960.37,1032.13 1961.87,1027.79 
  1963.38,1023.48 1964.88,1019.18 1966.38,1014.91 1967.89,1010.67 1969.39,1006.46 1970.89,1002.28 1972.4,998.146 1973.9,994.05 1975.4,989.998 1976.91,985.991 
  1978.41,982.031 1979.91,977.897 1981.42,973.626 1982.92,969.318 1984.42,965.01 1985.93,960.726 1987.43,956.481 1988.93,952.286 1990.44,948.15 1991.94,944.079 
  1993.44,940.078 1994.95,936.152 1996.45,932.302 1997.95,928.53 1999.45,924.837 2000.96,921.224 2002.46,917.689 2003.96,914.233 2005.47,910.854 2006.97,907.549 
  2008.47,904.319 2009.98,901.159 2011.48,898.069 2012.98,895.046 2014.49,892.088 2015.99,889.192 2017.49,886.355 2019,883.577 2020.5,880.853 2022,878.182 
  2023.51,875.562 2025.01,872.991 2026.51,870.466 2028.02,867.986 2029.52,865.549 2031.02,863.154 2032.53,860.799 2034.03,858.482 2035.53,856.202 2037.04,853.958 
  2038.54,851.749 2040.04,849.573 2041.55,847.429 2043.05,845.317 2044.55,843.235 2046.05,841.183 2047.56,839.16 2049.06,837.165 2050.56,835.197 2052.07,833.256 
  2053.57,831.34 2055.07,829.45 2056.58,827.585 2058.08,825.744 2059.58,823.927 2061.09,822.133 2062.59,820.361 2064.09,818.612 2065.6,816.884 2067.1,815.178 
  2068.6,813.492 2070.11,801.69 2071.61,784.12 2073.11,765.162 2074.62,746.089 2076.12,727.485 2077.62,709.627 2079.13,692.627 2080.63,676.5 2082.13,661.212 
  2083.64,646.707 2085.14,632.921 2086.64,619.79 2088.15,607.261 2089.65,595.285 2091.15,583.819 2092.65,572.825 2094.16,562.273 2095.66,552.134 2097.16,542.38 
  2098.67,532.99 2100.17,523.942 2101.67,515.217 2103.18,506.797 2104.68,498.666 2106.18,490.808 2107.69,483.209 2109.19,475.857 2110.69,468.739 2112.2,461.844 
  2113.7,455.162 2115.2,448.683 2116.71,442.396 2118.21,436.295 2119.71,430.37 2121.22,424.614 2122.72,419.019 2124.22,413.58 2125.73,408.289 2127.23,403.14 
  2128.73,398.128 2130.24,393.247 2131.74,388.493 2133.24,383.859 2134.75,379.343 2136.25,374.938 2137.75,370.642 2139.26,366.449 2140.76,362.357 2142.26,358.362 
  2143.76,354.46 2145.27,350.649 2146.77,346.924 2148.27,343.284 2149.78,339.724 2151.28,336.243 2152.78,332.838 2154.29,329.507 2155.79,326.247 2157.29,323.055 
  2158.8,319.931 2160.3,317.773 2161.8,315.711 2163.31,313.666 2164.81,311.638 2166.31,309.627 2167.82,307.632 2169.32,305.653 2170.82,303.691 2172.33,301.744 
  2173.83,299.813 2175.33,297.898 2176.84,295.998 2178.34,294.113 2179.84,292.243 2181.35,290.388 2182.85,288.548 2184.35,286.722 2185.86,284.91 2187.36,283.112 
  2188.86,281.328 2190.36,279.558 2191.87,277.802 2193.37,276.059 2194.87,274.33 2196.38,272.613 2197.88,270.91 2199.38,269.219 2200.89,267.541 2202.39,265.876 
  2203.89,264.223 2205.4,262.583 2206.9,260.954 2208.4,259.338 2209.91,257.733 2211.41,256.14 2212.91,254.559 2214.42,252.99 2215.92,251.431 2217.42,249.884 
  2218.93,248.348 2220.43,246.823 2221.93,245.309 2223.44,243.806 2224.94,242.314 2226.44,240.832 2227.95,239.36 2229.45,237.899 2230.95,236.448 2232.46,235.007 
  2233.96,233.576 2235.46,232.155 2236.96,230.744 2238.47,229.342 2239.97,227.95 2241.47,226.568 2242.98,225.195 2244.48,223.831 2245.98,222.476 2247.49,221.131 
  2248.99,219.795 2250.49,221.394 2252,223.172 2253.5,224.973 2255,226.798 2256.51,228.647 2258.01,230.521 2259.51,232.42 2261.02,234.345 2262.52,236.296 
  2264.02,238.275 2265.53,240.28 2267.03,242.314 2268.53,244.376 2270.04,246.467 2271.54,248.588 2273.04,250.74 2274.55,252.923 2276.05,255.137 2277.55,257.384 
  2279.06,259.664 2280.56,261.978 2282.06,264.327 2283.56,266.711 2285.07,269.132 2286.57,271.59 2288.07,274.085 2289.58,276.62 2291.08,279.194 2292.58,281.809 
  2294.09,284.466 2295.59,287.165 2297.09,289.908 2298.6,292.696 2300.1,295.53 2301.6,298.411 2303.11,301.34 2304.61,304.319 2306.11,307.348 2307.62,310.429 
  2309.12,313.564 2310.62,316.753 2312.13,319.998 2313.63,323.302 2315.13,326.664 2316.64,330.087 2318.14,333.573 2319.64,337.123 2321.15,340.739 2322.65,344.422 
  2324.15,348.176 2325.66,352.001 2327.16,355.9 2328.66,359.874 2330.16,363.927 2331.67,368.061 2333.17,372.277 2334.67,376.579 2336.18,380.969 2337.68,385.449 
  2339.18,390.023 2340.69,391.346 2342.19,392.243 2343.69,393.149 2345.2,394.066 2346.7,394.995 2348.2,395.936 2349.71,396.889 2351.21,397.855 2352.71,398.833 
  2354.22,399.824 2355.72,400.828 2357.22,401.846 2358.73,402.878 2360.23,403.923 2361.73,404.983 2363.24,406.057 2364.74,407.147 2366.24,408.251 2367.75,409.371 
  2369.25,410.507 2370.75,411.659 2372.26,412.827 2373.76,414.013 2375.26,415.215 2376.76,416.436 2378.27,417.674 2379.77,418.931 2381.27,420.206 2382.78,421.501 
  2384.28,422.816 2385.78,424.15 2387.29,425.506 2388.79,426.882 2390.29,428.28 2391.8,429.7 2393.3,431.143 2394.8,432.609 2396.31,434.098 2397.81,435.612 
  2399.31,437.151 2400.82,438.716 2402.32,440.306 2403.82,441.923 2405.33,443.568 2406.83,445.241 2408.33,446.943 2409.84,448.675 2411.34,450.437 2412.84,452.231 
  2414.35,454.056 2415.85,455.915 2417.35,457.807 2418.86,459.734 2420.36,461.697 2421.86,463.697 2423.36,465.735 2424.87,467.811 2426.37,469.927 2427.87,472.085 
  2429.38,474.285 2430.88,474.179 2432.38,473.463 2433.89,472.705 2435.39,471.934 2436.89,471.156 2438.4,470.37 2439.9,469.576 2441.4,468.774 2442.91,467.964 
  2444.41,467.146 2445.91,466.319 2447.42,465.484 2448.92,464.641 2450.42,463.789 2451.93,462.928 2453.43,462.058 2454.93,461.179 2456.44,460.291 2457.94,459.394 
  2459.44,458.487 2460.95,457.57 2462.45,456.644 2463.95,455.707 2465.46,454.761 2466.96,453.804 2468.46,452.836 2469.96,451.858 2471.47,450.869 2472.97,449.869 
  2474.47,448.858 2475.98,447.835 2477.48,446.801 2478.98,445.755 2480.49,444.697 2481.99,443.627 2483.49,442.545 2485,441.45 2486.5,440.342 2488,439.221 
  2489.51,438.086 2491.01,436.938 2492.51,435.777 2494.02,434.601 2495.52,433.411 2497.02,432.206 2498.53,430.987 2500.03,429.752 2501.53,428.503 2503.04,427.237 
  2504.54,425.956 2506.04,424.658 2507.55,423.343 2509.05,422.012 2510.55,420.664 2512.06,419.298 2513.56,417.914 2515.06,416.511 2516.56,415.09 2518.07,413.651 
  2519.57,412.191 2521.07,412.709 2522.58,413.867 2524.08,415.097 2525.58,416.36 2527.09,417.651 2528.59,418.97 2530.09,420.317 2531.6,421.693 2533.1,423.1 
  2534.6,424.537 2536.11,426.007 2537.61,427.509 2539.11,429.047 2540.62,430.619 2542.12,432.228 2543.62,433.876 2545.13,435.563 2546.63,437.29 2548.13,439.06 
  2549.64,440.874 2551.14,442.733 2552.64,444.64 2554.15,446.595 2555.65,448.601 2557.15,450.661 2558.66,452.775 2560.16,454.946 2561.66,457.177 2563.16,459.47 
  2564.67,461.827 2566.17,464.252 2567.67,466.747 2569.18,469.315 2570.68,471.959 2572.18,474.683 2573.69,477.491 2575.19,480.385 2576.69,483.371 2578.2,486.452 
  2579.7,489.634 2581.2,492.92 2582.71,496.316 2584.21,499.828 2585.71,503.461 2587.22,507.221 2588.72,511.116 2590.22,515.152 2591.73,519.337 2593.23,523.678 
  2594.73,528.185 2596.24,532.867 2597.74,537.733 2599.24,542.795 2600.75,548.063 2602.25,553.55 2603.75,559.269 2605.26,565.235 2606.76,571.461 2608.26,577.966 
  2609.77,584.766 2611.27,587.905 2612.77,588.3 2614.27,587.773 2615.78,586.802 2617.28,585.585 2618.78,584.22 2620.29,582.759 2621.79,581.233 2623.29,579.659 
  2624.8,578.048 2626.3,576.407 2627.8,574.739 2629.31,573.047 2630.81,571.334 2632.31,569.599 2633.82,567.843 2635.32,566.068 2636.82,564.272 2638.33,562.456 
  2639.83,560.62 2641.33,558.763 2642.84,556.885 2644.34,554.986 2645.84,553.066 2647.35,551.124 2648.85,549.16 2650.35,547.174 2651.86,545.165 2653.36,543.132 
  2654.86,541.076 2656.37,538.996 2657.87,536.892 2659.37,534.763 2660.87,532.609 2662.38,530.428 2663.88,528.222 2665.38,525.989 2666.89,523.729 2668.39,521.441 
  2669.89,519.125 2671.4,516.781 2672.9,514.407 2674.4,512.003 2675.91,509.569 2677.41,507.104 2678.91,504.608 2680.42,502.08 2681.92,499.518 2683.42,496.924 
  2684.93,494.295 2686.43,491.632 2687.93,488.933 2689.44,486.198 2690.94,483.426 2692.44,480.617 2693.95,477.769 2695.45,474.882 2696.95,471.955 2698.46,468.988 
  2699.96,465.978 2701.46,464.804 2702.97,465.136 2704.47,466.009 2705.97,467.152 2707.47,468.452 2708.98,469.855 2710.48,471.332 2711.98,472.866 2713.49,474.45 
  2714.99,476.079 2716.49,477.749 2718,479.46 2719.5,481.212 2721,483.004 2722.51,484.837 2724.01,486.713 2725.51,488.631 2727.02,490.594 2728.52,492.603 
  2730.02,494.658 2731.53,496.763 2733.03,498.917 2734.53,501.124 2736.04,503.384 2737.54,505.7 2739.04,508.074 2740.55,510.508 2742.05,513.003 2743.55,515.563 
  2745.06,518.189 2746.56,520.884 2748.06,523.651 2749.57,526.493 2751.07,529.412 2752.57,532.411 2754.07,535.494 2755.58,538.663 2757.08,541.923 2758.58,545.277 
  2760.09,548.729 2761.59,552.283 2763.09,555.943 2764.6,559.714 2766.1,563.599 2767.6,567.606 2769.11,571.737 2770.61,576 2772.11,580.399 2773.62,584.941 
  2775.12,589.632 2776.62,594.479 2778.13,599.489 2779.63,604.668 2781.13,610.026 2782.64,615.57 2784.14,621.308 2785.64,627.251 2787.15,633.406 2788.65,639.785 
  
  "/>
<polygon clip-path="url(#clip9000)" points="
2341.23,1083.5 2757.54,1083.5 2757.54,902.063 2341.23,902.063 
  " fill="#ffffff" fill-rule="evenodd" fill-opacity="1"/>
<polyline clip-path="url(#clip9000)" style="stroke:#000000; stroke-width:4; stroke-opacity:1; fill:none" points="
  2341.23,1083.5 2757.54,1083.5 2757.54,902.063 2341.23,902.063 2341.23,1083.5 
  "/>
<polyline clip-path="url(#clip9000)" style="stroke:#009af9; stroke-width:4; stroke-opacity:1; fill:none" points="
  2373.23,962.543 2565.23,962.543 
  "/>
<g clip-path="url(#clip9000)">
<text style="fill:#000000; fill-opacity:1; font-family:Arial,Helvetica Neue,Helvetica,sans-serif; font-size:48px; text-anchor:start;" transform="rotate(0, 2597.23, 980.043)" x="2597.23" y="980.043">PSA</text>
</g>
<polyline clip-path="url(#clip9000)" style="stroke:#e26f46; stroke-width:4; stroke-opacity:1; fill:none" points="
  2373.23,1023.02 2565.23,1023.02 
  "/>
<g clip-path="url(#clip9000)">
<text style="fill:#000000; fill-opacity:1; font-family:Arial,Helvetica Neue,Helvetica,sans-serif; font-size:48px; text-anchor:start;" transform="rotate(0, 2597.23, 1040.52)" x="2597.23" y="1040.52">NS</text>
</g>
</svg>
