<?xml version="1.0" encoding="utf-8"?>
<svg xmlns="http://www.w3.org/2000/svg" xmlns:xlink="http://www.w3.org/1999/xlink" width="800" height="400" viewBox="0 0 3200 1600">
<defs>
  <clipPath id="clip5300">
    <rect x="0" y="0" width="3200" height="1600"/>
  </clipPath>
</defs>
<polygon clip-path="url(#clip5300)" points="
0,1600 3200,1600 3200,0 0,0 
  " fill="#ffffff" fill-rule="evenodd" fill-opacity="1"/>
<defs>
  <clipPath id="clip5301">
    <rect x="640" y="0" width="2241" height="1600"/>
  </clipPath>
</defs>
<polygon clip-path="url(#clip5300)" points="
620.827,1275.5 3011.02,1275.5 3011.02,188.976 620.827,188.976 
  " fill="#ffffff" fill-rule="evenodd" fill-opacity="1"/>
<defs>
  <clipPath id="clip5302">
    <rect x="620" y="188" width="2391" height="1088"/>
  </clipPath>
</defs>
<polyline clip-path="url(#clip5302)" style="stroke:#000000; stroke-width:2; stroke-opacity:0.1; fill:none" points="
  686.907,1275.5 686.907,188.976 
  "/>
<polyline clip-path="url(#clip5302)" style="stroke:#000000; stroke-width:2; stroke-opacity:0.1; fill:none" points="
  1157,1275.5 1157,188.976 
  "/>
<polyline clip-path="url(#clip5302)" style="stroke:#000000; stroke-width:2; stroke-opacity:0.1; fill:none" points="
  1627.1,1275.5 1627.1,188.976 
  "/>
<polyline clip-path="url(#clip5302)" style="stroke:#000000; stroke-width:2; stroke-opacity:0.1; fill:none" points="
  2097.2,1275.5 2097.2,188.976 
  "/>
<polyline clip-path="url(#clip5302)" style="stroke:#000000; stroke-width:2; stroke-opacity:0.1; fill:none" points="
  2567.3,1275.5 2567.3,188.976 
  "/>
<polyline clip-path="url(#clip5302)" style="stroke:#000000; stroke-width:2; stroke-opacity:0.1; fill:none" points="
  620.827,1244.75 3011.02,1244.75 
  "/>
<polyline clip-path="url(#clip5302)" style="stroke:#000000; stroke-width:2; stroke-opacity:0.1; fill:none" points="
  620.827,1020.37 3011.02,1020.37 
  "/>
<polyline clip-path="url(#clip5302)" style="stroke:#000000; stroke-width:2; stroke-opacity:0.1; fill:none" points="
  620.827,795.978 3011.02,795.978 
  "/>
<polyline clip-path="url(#clip5302)" style="stroke:#000000; stroke-width:2; stroke-opacity:0.1; fill:none" points="
  620.827,571.591 3011.02,571.591 
  "/>
<polyline clip-path="url(#clip5302)" style="stroke:#000000; stroke-width:2; stroke-opacity:0.1; fill:none" points="
  620.827,347.204 3011.02,347.204 
  "/>
<polyline clip-path="url(#clip5300)" style="stroke:#000000; stroke-width:4; stroke-opacity:1; fill:none" points="
  620.827,1275.5 3011.02,1275.5 
  "/>
<polyline clip-path="url(#clip5300)" style="stroke:#000000; stroke-width:4; stroke-opacity:1; fill:none" points="
  620.827,1275.5 620.827,188.976 
  "/>
<polyline clip-path="url(#clip5300)" style="stroke:#000000; stroke-width:4; stroke-opacity:1; fill:none" points="
  686.907,1275.5 686.907,1259.21 
  "/>
<polyline clip-path="url(#clip5300)" style="stroke:#000000; stroke-width:4; stroke-opacity:1; fill:none" points="
  1157,1275.5 1157,1259.21 
  "/>
<polyline clip-path="url(#clip5300)" style="stroke:#000000; stroke-width:4; stroke-opacity:1; fill:none" points="
  1627.1,1275.5 1627.1,1259.21 
  "/>
<polyline clip-path="url(#clip5300)" style="stroke:#000000; stroke-width:4; stroke-opacity:1; fill:none" points="
  2097.2,1275.5 2097.2,1259.21 
  "/>
<polyline clip-path="url(#clip5300)" style="stroke:#000000; stroke-width:4; stroke-opacity:1; fill:none" points="
  2567.3,1275.5 2567.3,1259.21 
  "/>
<polyline clip-path="url(#clip5300)" style="stroke:#000000; stroke-width:4; stroke-opacity:1; fill:none" points="
  620.827,1244.75 656.679,1244.75 
  "/>
<polyline clip-path="url(#clip5300)" style="stroke:#000000; stroke-width:4; stroke-opacity:1; fill:none" points="
  620.827,1020.37 656.679,1020.37 
  "/>
<polyline clip-path="url(#clip5300)" style="stroke:#000000; stroke-width:4; stroke-opacity:1; fill:none" points="
  620.827,795.978 656.679,795.978 
  "/>
<polyline clip-path="url(#clip5300)" style="stroke:#000000; stroke-width:4; stroke-opacity:1; fill:none" points="
  620.827,571.591 656.679,571.591 
  "/>
<polyline clip-path="url(#clip5300)" style="stroke:#000000; stroke-width:4; stroke-opacity:1; fill:none" points="
  620.827,347.204 656.679,347.204 
  "/>
<g clip-path="url(#clip5300)">
<text style="fill:#000000; fill-opacity:1; font-family:Arial,Helvetica Neue,Helvetica,sans-serif; font-size:71px; text-anchor:middle;" transform="rotate(0, 686.907, 1353.9)" x="686.907" y="1353.9">0</text>
</g>
<g clip-path="url(#clip5300)">
<text style="fill:#000000; fill-opacity:1; font-family:Arial,Helvetica Neue,Helvetica,sans-serif; font-size:71px; text-anchor:middle;" transform="rotate(0, 1157, 1353.9)" x="1157" y="1353.9">300</text>
</g>
<g clip-path="url(#clip5300)">
<text style="fill:#000000; fill-opacity:1; font-family:Arial,Helvetica Neue,Helvetica,sans-serif; font-size:71px; text-anchor:middle;" transform="rotate(0, 1627.1, 1353.9)" x="1627.1" y="1353.9">600</text>
</g>
<g clip-path="url(#clip5300)">
<text style="fill:#000000; fill-opacity:1; font-family:Arial,Helvetica Neue,Helvetica,sans-serif; font-size:71px; text-anchor:middle;" transform="rotate(0, 2097.2, 1353.9)" x="2097.2" y="1353.9">900</text>
</g>
<g clip-path="url(#clip5300)">
<text style="fill:#000000; fill-opacity:1; font-family:Arial,Helvetica Neue,Helvetica,sans-serif; font-size:71px; text-anchor:middle;" transform="rotate(0, 2567.3, 1353.9)" x="2567.3" y="1353.9">1200</text>
</g>
<g clip-path="url(#clip5300)">
<text style="fill:#000000; fill-opacity:1; font-family:Arial,Helvetica Neue,Helvetica,sans-serif; font-size:71px; text-anchor:end;" transform="rotate(0, 588.827, 1270.75)" x="588.827" y="1270.75">0</text>
</g>
<g clip-path="url(#clip5300)">
<text style="fill:#000000; fill-opacity:1; font-family:Arial,Helvetica Neue,Helvetica,sans-serif; font-size:71px; text-anchor:end;" transform="rotate(0, 588.827, 1046.37)" x="588.827" y="1046.37">250</text>
</g>
<g clip-path="url(#clip5300)">
<text style="fill:#000000; fill-opacity:1; font-family:Arial,Helvetica Neue,Helvetica,sans-serif; font-size:71px; text-anchor:end;" transform="rotate(0, 588.827, 821.978)" x="588.827" y="821.978">500</text>
</g>
<g clip-path="url(#clip5300)">
<text style="fill:#000000; fill-opacity:1; font-family:Arial,Helvetica Neue,Helvetica,sans-serif; font-size:71px; text-anchor:end;" transform="rotate(0, 588.827, 597.591)" x="588.827" y="597.591">750</text>
</g>
<g clip-path="url(#clip5300)">
<text style="fill:#000000; fill-opacity:1; font-family:Arial,Helvetica Neue,Helvetica,sans-serif; font-size:71px; text-anchor:end;" transform="rotate(0, 588.827, 373.204)" x="588.827" y="373.204">1000</text>
</g>
<g clip-path="url(#clip5300)">
<text style="fill:#000000; fill-opacity:1; font-family:Arial,Helvetica Neue,Helvetica,sans-serif; font-size:95px; text-anchor:middle;" transform="rotate(0, 1815.93, 1469.75)" x="1815.93" y="1469.75">Time (min)</text>
</g>
<g clip-path="url(#clip5300)">
<text style="fill:#000000; fill-opacity:1; font-family:Arial,Helvetica Neue,Helvetica,sans-serif; font-size:95px; text-anchor:middle;" transform="rotate(-90, 378.453, 732.24)" x="378.453" y="732.24">Expected Waiting Time</text>
</g>
<polyline clip-path="url(#clip5302)" style="stroke:#009af9; stroke-width:4; stroke-opacity:1; fill:none" points="
  688.474,1244.66 690.041,1244.66 691.608,1244.66 693.175,1244.66 694.742,1244.66 696.309,1244.67 697.876,1244.67 699.443,1244.67 701.01,1244.67 702.577,1244.67 
  704.144,1244.67 705.711,1244.67 707.278,1244.67 708.845,1244.67 710.412,1244.67 711.978,1244.67 713.545,1244.68 715.112,1244.68 716.679,1244.68 718.246,1244.68 
  719.813,1244.68 721.38,1244.68 722.947,1244.68 724.514,1244.68 726.081,1244.68 727.648,1244.68 729.215,1244.68 730.782,1244.68 732.349,1244.69 733.916,1244.69 
  735.483,1244.69 737.05,1244.69 738.617,1244.69 740.184,1244.69 741.751,1244.69 743.318,1244.69 744.885,1244.69 746.452,1244.69 748.019,1244.69 749.586,1244.69 
  751.153,1244.69 752.72,1244.7 754.287,1244.7 755.854,1244.7 757.421,1244.7 758.988,1244.7 760.555,1244.7 762.122,1244.7 763.689,1244.7 765.256,1244.7 
  766.823,1244.7 768.39,1244.7 769.957,1244.7 771.524,1244.7 773.091,1244.7 774.658,1244.7 776.225,1244.7 777.792,1244.71 779.359,1244.71 780.926,1244.71 
  782.493,1244.71 784.06,1244.71 785.627,1244.71 787.194,1244.71 788.761,1244.71 790.328,1244.71 791.895,1244.71 793.462,1244.71 795.029,1244.71 796.596,1244.71 
  798.163,1244.71 799.73,1244.71 801.297,1244.71 802.864,1244.71 804.431,1244.71 805.998,1244.71 807.565,1244.72 809.132,1244.72 810.699,1244.72 812.266,1244.72 
  813.833,1244.72 815.4,1244.72 816.967,1244.72 818.534,1244.72 820.101,1244.72 821.668,1244.72 823.235,1244.72 824.802,1244.72 826.369,1244.72 827.936,1244.72 
  829.503,1244.72 831.07,1244.72 832.637,1244.72 834.204,1244.72 835.771,1244.72 837.338,1244.72 838.905,1244.72 840.472,1244.72 842.039,1244.72 843.606,1244.72 
  845.173,1244.72 846.74,1244.73 848.307,1244.73 849.874,1244.73 851.441,1244.73 853.008,1244.73 854.575,1244.73 856.142,1244.73 857.709,1244.73 859.276,1244.73 
  860.843,1244.73 862.41,1244.73 863.977,1244.73 865.544,1244.73 867.111,1244.73 868.678,1244.73 870.245,1244.73 871.812,1244.73 873.379,1244.73 874.946,1244.73 
  876.513,1244.73 878.08,1244.73 879.647,1244.73 881.214,1244.73 882.781,1244.73 884.348,1244.73 885.915,1244.73 887.482,1244.73 889.049,1244.73 890.616,1244.73 
  892.183,1244.73 893.75,1244.73 895.317,1244.73 896.884,1244.73 898.451,1244.73 900.018,1244.74 901.585,1244.74 903.152,1244.74 904.719,1244.74 906.286,1244.74 
  907.853,1244.74 909.42,1244.74 910.987,1244.74 912.554,1244.74 914.121,1244.74 915.688,1244.74 917.255,1244.74 918.822,1244.74 920.389,1244.74 921.956,1244.74 
  923.523,1244.74 925.09,1244.74 926.657,1244.74 928.224,1244.74 929.791,1244.74 931.358,1244.74 932.925,1244.74 934.492,1244.74 936.058,1244.74 937.625,1244.74 
  939.192,1244.74 940.759,1244.74 942.326,1244.74 943.893,1244.74 945.46,1244.74 947.027,1244.74 948.594,1244.74 950.161,1244.74 951.728,1244.74 953.295,1244.74 
  954.862,1244.74 956.429,1244.74 957.996,1244.74 959.563,1244.74 961.13,1244.74 962.697,1244.74 964.264,1244.74 965.831,1244.74 967.398,1244.74 968.965,1244.74 
  970.532,1244.74 972.099,1244.74 973.666,1244.74 975.233,1244.74 976.8,1244.74 978.367,1244.74 979.934,1244.74 981.501,1244.74 983.068,1244.74 984.635,1244.74 
  986.202,1244.74 987.769,1244.74 989.336,1244.74 990.903,1244.74 992.47,1244.74 994.037,1244.74 995.604,1244.74 997.171,1244.75 998.738,1244.75 1000.31,1244.75 
  1001.87,1244.75 1003.44,1244.75 1005.01,1244.75 1006.57,1244.75 1008.14,1244.75 1009.71,1244.75 1011.27,1244.75 1012.84,1244.75 1014.41,1244.75 1015.98,1244.75 
  1017.54,1244.75 1019.11,1244.75 1020.68,1244.75 1022.24,1244.75 1023.81,1244.75 1025.38,1244.75 1026.94,1244.75 1028.51,1244.75 1030.08,1244.75 1031.65,1244.75 
  1033.21,1244.75 1034.78,1244.75 1036.35,1244.75 1037.91,1244.75 1039.48,1244.75 1041.05,1244.75 1042.61,1244.75 1044.18,1244.75 1045.75,1244.75 1047.32,1244.75 
  1048.88,1244.75 1050.45,1244.75 1052.02,1244.75 1053.58,1244.75 1055.15,1244.75 1056.72,1244.75 1058.28,1244.75 1059.85,1244.75 1061.42,1244.75 1062.98,1244.75 
  1064.55,1244.75 1066.12,1244.75 1067.69,1244.75 1069.25,1244.75 1070.82,1244.75 1072.39,1244.75 1073.95,1244.75 1075.52,1244.75 1077.09,1244.75 1078.65,1244.75 
  1080.22,1244.75 1081.79,1244.75 1083.36,1244.75 1084.92,1244.75 1086.49,1244.75 1088.06,1244.75 1089.62,1244.75 1091.19,1244.75 1092.76,1244.75 1094.32,1244.75 
  1095.89,1244.75 1097.46,1244.75 1099.03,1244.75 1100.59,1244.75 1102.16,1244.75 1103.73,1244.75 1105.29,1244.75 1106.86,1244.75 1108.43,1244.75 1109.99,1244.75 
  1111.56,1244.75 1113.13,1244.75 1114.7,1244.75 1116.26,1244.75 1117.83,1244.75 1119.4,1244.75 1120.96,1244.75 1122.53,1244.75 1124.1,1244.75 1125.66,1244.75 
  1127.23,1244.75 1128.8,1244.75 1130.37,1244.75 1131.93,1244.75 1133.5,1244.75 1135.07,1244.75 1136.63,1244.75 1138.2,1244.75 1139.77,1244.75 1141.33,1244.75 
  1142.9,1244.75 1144.47,1244.75 1146.04,1244.75 1147.6,1244.75 1149.17,1244.75 1150.74,1244.75 1152.3,1244.75 1153.87,1244.75 1155.44,1244.75 1157,1244.75 
  1158.57,1244.75 1160.14,1244.75 1161.71,1244.75 1163.27,1244.75 1164.84,1244.75 1166.41,1244.75 1167.97,1244.75 1169.54,1244.75 1171.11,1244.75 1172.67,1244.75 
  1174.24,1244.75 1175.81,1244.75 1177.38,1244.75 1178.94,1244.75 1180.51,1244.75 1182.08,1244.75 1183.64,1244.75 1185.21,1244.75 1186.78,1244.75 1188.34,1244.75 
  1189.91,1244.75 1191.48,1244.75 1193.05,1244.75 1194.61,1244.75 1196.18,1244.75 1197.75,1244.75 1199.31,1244.75 1200.88,1244.75 1202.45,1244.75 1204.01,1244.75 
  1205.58,1244.75 1207.15,1244.75 1208.72,1244.75 1210.28,1244.75 1211.85,1244.75 1213.42,1244.75 1214.98,1244.75 1216.55,1244.75 1218.12,1244.75 1219.68,1244.75 
  1221.25,1244.75 1222.82,1244.75 1224.39,1244.74 1225.95,1244.74 1227.52,1244.74 1229.09,1244.74 1230.65,1244.74 1232.22,1244.74 1233.79,1244.74 1235.35,1244.74 
  1236.92,1244.74 1238.49,1244.74 1240.06,1244.74 1241.62,1244.74 1243.19,1244.74 1244.76,1244.74 1246.32,1244.74 1247.89,1244.74 1249.46,1244.74 1251.02,1244.74 
  1252.59,1244.74 1254.16,1244.74 1255.73,1244.74 1257.29,1244.74 1258.86,1244.74 1260.43,1244.74 1261.99,1244.74 1263.56,1244.73 1265.13,1244.73 1266.69,1244.73 
  1268.26,1244.73 1269.83,1244.73 1271.4,1244.73 1272.96,1244.73 1274.53,1244.73 1276.1,1244.73 1277.66,1244.73 1279.23,1244.73 1280.8,1244.73 1282.36,1244.73 
  1283.93,1244.72 1285.5,1244.72 1287.06,1244.72 1288.63,1244.72 1290.2,1244.72 1291.77,1244.72 1293.33,1244.72 1294.9,1244.72 1296.47,1244.72 1298.03,1244.72 
  1299.6,1244.71 1301.17,1244.71 1302.73,1244.71 1304.3,1244.71 1305.87,1244.71 1307.44,1244.71 1309,1244.71 1310.57,1244.71 1312.14,1244.7 1313.7,1244.7 
  1315.27,1244.7 1316.84,1244.7 1318.4,1244.7 1319.97,1244.7 1321.54,1244.69 1323.11,1244.69 1324.67,1244.69 1326.24,1244.69 1327.81,1244.69 1329.37,1244.69 
  1330.94,1244.68 1332.51,1244.68 1334.07,1244.68 1335.64,1244.68 1337.21,1244.67 1338.78,1244.67 1340.34,1244.67 1341.91,1244.67 1343.48,1244.67 1345.04,1244.66 
  1346.61,1244.66 1348.18,1244.75 1349.74,1244.75 1351.31,1244.75 1352.88,1244.75 1354.45,1244.75 1356.01,1244.75 1357.58,1244.75 1359.15,1244.75 1360.71,1244.75 
  1362.28,1244.75 1363.85,1244.75 1365.41,1244.75 1366.98,1244.75 1368.55,1244.75 1370.12,1244.75 1371.68,1244.75 1373.25,1244.75 1374.82,1244.75 1376.38,1244.75 
  1377.95,1244.75 1379.52,1244.75 1381.08,1244.75 1382.65,1244.75 1384.22,1244.75 1385.79,1244.75 1387.35,1244.75 1388.92,1244.75 1390.49,1244.75 1392.05,1244.75 
  1393.62,1244.75 1395.19,1244.75 1396.75,1244.75 1398.32,1244.75 1399.89,1244.75 1401.46,1244.75 1403.02,1244.75 1404.59,1244.75 1406.16,1244.75 1407.72,1244.75 
  1409.29,1244.75 1410.86,1244.75 1412.42,1244.75 1413.99,1244.75 1415.56,1244.75 1417.13,1244.75 1418.69,1244.75 1420.26,1244.75 1421.83,1244.75 1423.39,1244.75 
  1424.96,1244.75 1426.53,1244.75 1428.09,1244.75 1429.66,1244.75 1431.23,1244.75 1432.8,1244.75 1434.36,1244.75 1435.93,1244.75 1437.5,1244.75 1439.06,1244.75 
  1440.63,1244.75 1442.2,1244.75 1443.76,1244.75 1445.33,1244.75 1446.9,1244.75 1448.47,1244.75 1450.03,1244.75 1451.6,1244.75 1453.17,1244.75 1454.73,1244.75 
  1456.3,1244.75 1457.87,1244.75 1459.43,1244.75 1461,1244.75 1462.57,1244.75 1464.14,1244.75 1465.7,1244.75 1467.27,1244.75 1468.84,1244.75 1470.4,1244.75 
  1471.97,1244.75 1473.54,1244.75 1475.1,1244.75 1476.67,1244.75 1478.24,1244.75 1479.81,1244.75 1481.37,1244.75 1482.94,1244.75 1484.51,1244.74 1486.07,1244.74 
  1487.64,1244.73 1489.21,1244.71 1490.77,1244.69 1492.34,1244.66 1493.91,1244.62 1495.48,1244.56 1497.04,1244.47 1498.61,1244.34 1500.18,1244.17 1501.74,1243.93 
  1503.31,1243.59 1504.88,1243.14 1506.44,1242.51 1508.01,1241.66 1509.58,1240.51 1511.14,1238.94 1512.71,1236.78 1514.28,1233.8 1515.85,1229.6 1517.41,1223.56 
  1518.98,1214.57 1520.55,1200.48 1522.11,1176.85 1523.68,1134.16 1525.25,1055.72 1526.81,932.429 1528.38,798.273 1529.95,701.134 1531.52,645.078 1533.08,613.43 
  1534.65,594.206 1536.22,581.506 1537.78,572.527 1539.35,565.848 1540.92,560.687 1542.48,556.579 1544.05,553.232 1545.62,550.453 1547.19,548.107 1548.75,546.102 
  1550.32,544.367 1551.89,542.852 1553.45,541.518 1555.02,540.333 1556.59,539.274 1558.15,538.323 1559.72,537.462 1561.29,536.681 1562.86,535.968 1564.42,535.316 
  1565.99,534.715 1567.56,534.162 1569.12,533.649 1570.69,533.174 1572.26,532.732 1573.82,532.319 1575.39,531.933 1576.96,531.571 1578.53,531.231 1580.09,530.912 
  1581.66,530.611 1583.23,530.326 1584.79,530.057 1586.36,529.803 1587.93,529.561 1589.49,529.332 1591.06,529.114 1592.63,528.906 1594.2,528.708 1595.76,528.519 
  1597.33,528.338 1598.9,528.166 1600.46,528.001 1602.03,527.842 1603.6,527.69 1605.16,527.545 1606.73,527.405 1608.3,527.27 1609.87,527.14 1611.43,527.016 
  1613,526.896 1614.57,526.78 1616.13,526.668 1617.7,526.56 1619.27,526.456 1620.83,526.355 1622.4,526.258 1623.97,526.163 1625.54,526.072 1627.1,525.984 
  1628.67,525.898 1630.24,1220.26 1631.8,1221.12 1633.37,1221.94 1634.94,1222.74 1636.5,1223.5 1638.07,1224.24 1639.64,1224.95 1641.21,1225.64 1642.77,1226.3 
  1644.34,1226.93 1645.91,1227.54 1647.47,1228.13 1649.04,1228.7 1650.61,1229.25 1652.17,1229.78 1653.74,1230.29 1655.31,1230.78 1656.88,1231.25 1658.44,1231.71 
  1660.01,1232.15 1661.58,1232.57 1663.14,1232.98 1664.71,1233.38 1666.28,1233.76 1667.84,1234.13 1669.41,1234.49 1670.98,1234.83 1672.55,1235.17 1674.11,1235.49 
  1675.68,1235.8 1677.25,1236.1 1678.81,1236.39 1680.38,1236.67 1681.95,1236.94 1683.51,1237.2 1685.08,1237.45 1686.65,1237.69 1688.22,1237.93 1689.78,1238.16 
  1691.35,1238.38 1692.92,1238.59 1694.48,1238.8 1696.05,1239 1697.62,1239.19 1699.18,1239.38 1700.75,1239.56 1702.32,1239.73 1703.89,1239.9 1705.45,1240.06 
  1707.02,1240.22 1708.59,1240.37 1710.15,1240.52 1711.72,1240.66 1713.29,1240.8 1714.85,1240.93 1716.42,1241.06 1717.99,1241.19 1719.55,1241.31 1721.12,1241.43 
  1722.69,1241.54 1724.26,1241.65 1725.82,1241.75 1727.39,1241.86 1728.96,1241.96 1730.52,1242.05 1732.09,1242.14 1733.66,1242.23 1735.22,1242.32 1736.79,1242.4 
  1738.36,1242.49 1739.93,1242.56 1741.49,1242.64 1743.06,1242.71 1744.63,1242.78 1746.19,1242.85 1747.76,1242.92 1749.33,1242.98 1750.89,1243.05 1752.46,1243.11 
  1754.03,1243.16 1755.6,1243.22 1757.16,1243.27 1758.73,1243.33 1760.3,1243.38 1761.86,1243.43 1763.43,1243.47 1765,1243.52 1766.56,1243.56 1768.13,1243.61 
  1769.7,1243.65 1771.27,1243.69 1772.83,1243.73 1774.4,1243.76 1775.97,1243.8 1777.53,1243.83 1779.1,1243.87 1780.67,1243.9 1782.23,1243.93 1783.8,1243.96 
  1785.37,1243.99 1786.94,1244.02 1788.5,1244.05 1790.07,1244.07 1791.64,1244.1 1793.2,1244.12 1794.77,1244.15 1796.34,1244.17 1797.9,1244.19 1799.47,1244.21 
  1801.04,1244.23 1802.61,1244.25 1804.17,1244.27 1805.74,1244.29 1807.31,1244.31 1808.87,1244.33 1810.44,1244.34 1812.01,1244.36 1813.57,1244.37 1815.14,1244.39 
  1816.71,1244.4 1818.28,1244.42 1819.84,1244.43 1821.41,1244.44 1822.98,1244.45 1824.54,1244.47 1826.11,1244.48 1827.68,1244.49 1829.24,1244.5 1830.81,1244.51 
  1832.38,1244.52 1833.95,1244.53 1835.51,1244.54 1837.08,1244.55 1838.65,1244.55 1840.21,1244.56 1841.78,1244.57 1843.35,1244.58 1844.91,1244.59 1846.48,1244.59 
  1848.05,1244.6 1849.62,1244.61 1851.18,1244.61 1852.75,1244.62 1854.32,1244.62 1855.88,1244.63 1857.45,1244.63 1859.02,1244.64 1860.58,1244.64 1862.15,1244.65 
  1863.72,1244.65 1865.29,1244.66 1866.85,1244.66 1868.42,1244.66 1869.99,1244.67 1871.55,1244.67 1873.12,1244.68 1874.69,1244.68 1876.25,1244.68 1877.82,1244.69 
  1879.39,1244.69 1880.96,1244.69 1882.52,1244.69 1884.09,1244.7 1885.66,1244.7 1887.22,1244.7 1888.79,1244.7 1890.36,1244.71 1891.92,1244.71 1893.49,1244.71 
  1895.06,1244.71 1896.63,1244.71 1898.19,1244.72 1899.76,1244.72 1901.33,1244.72 1902.89,1244.72 1904.46,1244.72 1906.03,1244.72 1907.59,1244.72 1909.16,1244.73 
  1910.73,1244.73 1912.3,1244.73 1913.86,1244.73 1915.43,1244.73 1917,1244.73 1918.56,1244.73 1920.13,1244.73 1921.7,1244.73 1923.26,1244.74 1924.83,1244.74 
  1926.4,1244.74 1927.97,1244.74 1929.53,1244.74 1931.1,1244.74 1932.67,1244.74 1934.23,1244.74 1935.8,1244.74 1937.37,1244.74 1938.93,1244.74 1940.5,1244.74 
  1942.07,1244.74 1943.63,1244.74 1945.2,1244.74 1946.77,1244.74 1948.34,1244.74 1949.9,1244.75 1951.47,1244.75 1953.04,1244.75 1954.6,1244.75 1956.17,1244.75 
  1957.74,1244.75 1959.3,1244.75 1960.87,1244.75 1962.44,1244.75 1964.01,1244.75 1965.57,1244.75 1967.14,1244.75 1968.71,1244.75 1970.27,1244.75 1971.84,1244.75 
  1973.41,1244.75 1974.97,1244.75 1976.54,1244.75 1978.11,1244.75 1979.68,1244.75 1981.24,1244.75 1982.81,1244.75 1984.38,1244.75 1985.94,1244.75 1987.51,1244.75 
  1989.08,1244.75 1990.64,1244.75 1992.21,1244.75 1993.78,1244.75 1995.35,1244.75 1996.91,1244.75 1998.48,1244.75 2000.05,1244.75 2001.61,1244.75 2003.18,1244.75 
  2004.75,1244.75 2006.31,1244.75 2007.88,1244.75 2009.45,1244.75 2011.02,1244.75 2012.58,1244.75 2014.15,1244.75 2015.72,1244.75 2017.28,1244.75 2018.85,1244.75 
  2020.42,1244.75 2021.98,1244.75 2023.55,1244.75 2025.12,1244.75 2026.69,1244.75 2028.25,1244.75 2029.82,1244.75 2031.39,1244.75 2032.95,1244.75 2034.52,1244.75 
  2036.09,1244.75 2037.65,1244.75 2039.22,1244.75 2040.79,1244.75 2042.36,1244.75 2043.92,1244.75 2045.49,1244.75 2047.06,1244.75 2048.62,1244.75 2050.19,1244.75 
  2051.76,1244.75 2053.32,1244.75 2054.89,1244.75 2056.46,1244.75 2058.03,1244.75 2059.59,1244.75 2061.16,1244.75 2062.73,1244.75 2064.29,1244.75 2065.86,1244.75 
  2067.43,1244.75 2068.99,1244.75 2070.56,1244.75 2072.13,1244.75 2073.7,1244.75 2075.26,1244.75 2076.83,1244.75 2078.4,1244.75 2079.96,1244.75 2081.53,1244.75 
  2083.1,1244.75 2084.66,1244.75 2086.23,1244.75 2087.8,1244.75 2089.37,1244.75 2090.93,1244.75 2092.5,1244.75 2094.07,1244.75 2095.63,1244.75 2097.2,1244.75 
  2098.77,1244.75 2100.33,1244.75 2101.9,1244.75 2103.47,1244.75 2105.04,1244.75 2106.6,1244.75 2108.17,1244.75 2109.74,1244.75 2111.3,1244.75 2112.87,1244.75 
  2114.44,1244.75 2116,1244.75 2117.57,1244.75 2119.14,1244.75 2120.71,1244.75 2122.27,1244.75 2123.84,1244.75 2125.41,1244.75 2126.97,1244.75 2128.54,1244.75 
  2130.11,1244.75 2131.67,1244.75 2133.24,1244.75 2134.81,1244.75 2136.38,1244.75 2137.94,1244.75 2139.51,1244.75 2141.08,1244.75 2142.64,1244.75 2144.21,1244.75 
  2145.78,1244.75 2147.34,1244.75 2148.91,1244.75 2150.48,1244.75 2152.05,1244.75 2153.61,1244.75 2155.18,1244.75 2156.75,1244.75 2158.31,1244.75 2159.88,1244.75 
  2161.45,1244.75 2163.01,1244.75 2164.58,1244.75 2166.15,1244.75 2167.71,1244.75 2169.28,1244.75 2170.85,1244.75 2172.42,1244.75 2173.98,1244.75 2175.55,1244.75 
  2177.12,1244.75 2178.68,1244.75 2180.25,1244.75 2181.82,1244.75 2183.38,1244.75 2184.95,1244.75 2186.52,1244.75 2188.09,1244.75 2189.65,1244.75 2191.22,1244.75 
  2192.79,1244.75 2194.35,544.005 2195.92,545.126 2197.49,546.358 2199.05,547.719 2200.62,549.232 2202.19,550.922 2203.76,552.823 2205.32,554.977 2206.89,557.438 
  2208.46,560.276 2210.02,563.585 2211.59,567.494 2213.16,572.181 2214.72,577.904 2216.29,585.048 2217.86,594.206 2219.43,606.337 2220.99,623.035 2222.56,646.976 
  2224.13,682.443 2225.69,735.174 2227.26,809.386 2228.83,900.759 2230.39,993.1 2231.96,1069.16 2233.53,1123.12 2235.1,1158.78 2236.66,1182.19 2238.23,1197.96 
  2239.8,1208.98 2241.36,1216.96 2242.93,1222.89 2244.5,1227.4 2246.06,1230.9 2247.63,1233.64 2249.2,1235.81 2250.77,1237.55 2252.33,1238.94 2253.9,1240.06 
  2255.47,1240.97 2257.03,1241.71 2258.6,1242.31 2260.17,1242.79 2261.73,1243.18 2263.3,1243.5 2264.87,1243.76 2266.44,1243.96 2268,1244.13 2269.57,1244.26 
  2271.14,1244.37 2272.7,1244.46 2274.27,1244.52 2275.84,1244.58 2277.4,1244.62 2278.97,1244.65 2280.54,1244.67 2282.11,1244.69 2283.67,1244.71 2285.24,1244.72 
  2286.81,1244.73 2288.37,1244.73 2289.94,1244.74 2291.51,1244.74 2293.07,1244.75 2294.64,1244.75 2296.21,1244.75 2297.78,1244.75 2299.34,1244.75 2300.91,1244.75 
  2302.48,1244.75 2304.04,1244.75 2305.61,1244.75 2307.18,1244.75 2308.74,1244.75 2310.31,1244.75 2311.88,1244.75 2313.45,1244.75 2315.01,1244.75 2316.58,1244.75 
  2318.15,1244.75 2319.71,1244.75 2321.28,1244.75 2322.85,1244.75 2324.41,1244.75 2325.98,1244.75 2327.55,1244.75 2329.12,1244.75 2330.68,1244.75 2332.25,1244.75 
  2333.82,1244.75 2335.38,1244.75 2336.95,1244.75 2338.52,1244.75 2340.08,1244.75 2341.65,1244.75 2343.22,1244.75 2344.79,1244.75 2346.35,1244.75 2347.92,1244.75 
  2349.49,1244.75 2351.05,1244.75 2352.62,1244.75 2354.19,1244.75 2355.75,1244.75 2357.32,1244.75 2358.89,1244.75 2360.46,1244.75 2362.02,1244.75 2363.59,1244.75 
  2365.16,1244.75 2366.72,1244.75 2368.29,1244.75 2369.86,1244.75 2371.42,1244.75 2372.99,1244.75 2374.56,1244.75 2376.13,1244.75 2377.69,1244.75 2379.26,1244.75 
  2380.83,1244.75 2382.39,219.727 2383.96,219.932 2385.53,220.143 2387.09,220.36 2388.66,220.583 2390.23,220.813 2391.79,221.05 2393.36,221.295 2394.93,221.548 
  2396.5,221.808 2398.06,222.077 2399.63,222.355 2401.2,222.643 2402.76,222.94 2404.33,223.248 2405.9,223.567 2407.46,223.897 2409.03,224.24 2410.6,224.596 
  2412.17,224.965 2413.73,225.349 2415.3,225.748 2416.87,226.163 2418.43,226.596 2420,227.047 2421.57,227.518 2423.13,228.01 2424.7,228.524 2426.27,229.062 
  2427.84,229.625 2429.4,230.217 2430.97,230.837 2432.54,231.49 2434.1,232.176 2435.67,232.9 2437.24,233.664 2438.8,234.472 2440.37,235.328 2441.94,236.235 
  2443.51,237.199 2445.07,238.225 2446.64,239.319 2448.21,240.489 2449.77,241.742 2451.34,243.089 2452.91,244.539 2454.47,246.104 2456.04,247.801 2457.61,249.645 
  2459.18,251.656 2460.74,253.859 2462.31,256.283 2463.88,258.961 2465.44,261.937 2467.01,265.263 2468.58,269.005 2470.14,273.246 2471.71,278.092 2473.28,283.684 
  2474.85,290.206 2476.41,297.909 2477.98,307.14 2479.55,318.39 2481.11,332.36 2482.68,350.068 2484.25,372.984 2485.81,403.172 2487.38,443.326 2488.95,496.443 
  2490.52,564.708 2492.08,647.51 2493.65,739.644 2495.22,831.97 2496.78,915.217 2498.35,983.918 2499.92,1037.28 2501.48,1077.47 2503.05,1107.53 2504.62,1130.21 
  2506.19,1147.62 2507.75,1161.27 2509.32,1172.19 2510.89,1181.09 2512.45,1188.45 2514.02,1194.64 2515.59,1199.9 2517.15,1204.42 2518.72,1208.33 2520.29,1211.75 
  2521.86,1214.75 2523.42,1217.41 2524.99,1219.77 2526.56,1221.88 2528.12,1223.78 2529.69,1225.48 2531.26,1227.02 2532.82,1228.42 2534.39,1229.69 2535.96,1230.84 
  2537.53,1231.9 2539.09,1232.86 2540.66,1233.75 2542.23,1234.56 2543.79,1235.3 2545.36,1235.99 2546.93,1236.63 2548.49,1237.21 2550.06,1237.75 2551.63,1238.25 
  2553.2,1238.72 2554.76,1239.14 2556.33,1239.54 2557.9,1239.91 2559.46,1240.25 2561.03,1240.57 2562.6,1240.87 2564.16,1241.14 2565.73,1241.4 2567.3,1241.64 
  2568.87,1241.86 2570.43,1242.06 2572,1242.26 2573.57,1242.43 2575.13,1242.6 2576.7,1242.76 2578.27,1242.9 2579.83,1243.03 2581.4,1243.16 2582.97,1243.27 
  2584.54,1243.38 2586.1,1243.48 2587.67,1243.58 2589.24,1243.67 2590.8,1243.75 2592.37,1243.82 2593.94,1243.89 2595.5,1243.96 2597.07,1244.02 2598.64,1244.07 
  2600.21,1244.13 2601.77,1244.18 2603.34,1244.22 2604.91,1244.26 2606.47,1244.3 2608.04,1244.34 2609.61,1244.37 2611.17,1244.4 2612.74,1244.43 2614.31,1244.46 
  2615.87,1244.48 2617.44,1244.5 2619.01,1244.52 2620.58,1244.54 2622.14,1244.56 2623.71,1244.58 2625.28,1244.59 2626.84,1244.61 2628.41,1244.62 2629.98,1244.63 
  2631.54,1244.64 2633.11,1244.65 2634.68,1244.66 2636.25,1244.67 2637.81,1244.68 2639.38,1244.68 2640.95,1244.69 2642.51,1244.7 2644.08,1244.7 2645.65,1244.71 
  2647.21,1244.71 2648.78,1244.71 2650.35,1244.72 2651.92,1244.72 2653.48,1244.72 2655.05,1244.73 2656.62,1244.73 2658.18,1244.73 2659.75,1244.73 2661.32,1244.74 
  2662.88,1244.74 2664.45,1244.74 2666.02,1244.74 2667.59,1244.74 2669.15,1244.74 2670.72,1244.74 2672.29,1244.75 2673.85,1244.75 2675.42,1244.75 2676.99,1244.75 
  2678.55,1244.75 2680.12,1244.75 2681.69,1244.75 2683.26,1244.75 2684.82,1244.75 2686.39,1244.75 2687.96,1244.75 2689.52,1244.75 2691.09,1244.75 2692.66,1244.75 
  2694.22,1244.75 2695.79,1244.75 2697.36,1244.75 2698.93,1244.75 2700.49,1244.75 2702.06,1244.75 2703.63,1244.75 2705.19,1244.75 2706.76,1244.75 2708.33,1244.75 
  2709.89,1244.75 2711.46,1244.75 2713.03,1244.75 2714.6,1244.75 2716.16,1244.75 2717.73,1244.75 2719.3,1244.75 2720.86,1244.75 2722.43,1244.75 2724,1244.75 
  2725.56,1244.75 2727.13,1244.75 2728.7,1244.75 2730.27,1244.75 2731.83,1244.75 2733.4,1244.75 2734.97,1244.75 2736.53,1244.75 2738.1,1244.75 2739.67,1244.75 
  2741.23,1244.75 2742.8,1244.75 2744.37,1244.75 2745.94,1244.75 2747.5,1244.75 2749.07,1244.75 2750.64,1244.75 2752.2,1244.75 2753.77,1244.75 2755.34,1244.75 
  2756.9,1244.75 2758.47,1244.75 2760.04,1244.75 2761.61,1244.75 2763.17,1244.75 2764.74,1244.75 2766.31,1244.75 2767.87,1244.75 2769.44,1244.75 2771.01,1244.75 
  2772.57,1244.75 2774.14,1244.75 2775.71,1244.75 2777.28,1244.75 2778.84,1244.75 2780.41,1244.75 2781.98,1244.75 2783.54,1244.75 2785.11,1244.75 2786.68,1244.75 
  2788.24,1244.75 2789.81,1244.75 2791.38,1244.75 2792.95,1244.75 2794.51,1244.75 2796.08,1244.75 2797.65,1244.75 2799.21,1244.75 2800.78,1244.75 2802.35,1244.75 
  2803.91,1244.75 2805.48,1244.75 2807.05,1244.75 2808.62,1244.75 2810.18,1244.75 2811.75,1244.75 2813.32,1244.75 2814.88,1244.75 2816.45,1244.75 2818.02,1244.75 
  2819.58,1244.75 2821.15,1244.75 2822.72,1244.75 2824.29,1244.75 2825.85,1244.75 2827.42,1244.75 2828.99,1244.75 2830.55,1244.75 2832.12,1244.75 2833.69,1244.75 
  2835.25,1244.75 2836.82,1244.75 2838.39,1244.75 2839.95,1244.75 2841.52,1244.75 2843.09,1244.75 2844.66,1244.75 2846.22,1244.75 2847.79,1244.75 2849.36,1244.75 
  2850.92,1244.75 2852.49,1244.75 2854.06,1244.75 2855.62,1244.75 2857.19,1244.75 2858.76,1244.75 2860.33,1244.75 2861.89,1244.75 2863.46,1244.75 2865.03,1244.75 
  2866.59,1244.75 2868.16,1244.75 2869.73,1244.75 2871.29,1244.75 2872.86,1244.75 2874.43,1244.75 2876,1244.75 2877.56,1244.75 2879.13,1244.75 2880.7,1244.75 
  2882.26,1244.75 2883.83,1244.75 2885.4,1244.75 2886.96,1244.75 2888.53,1244.75 2890.1,1244.75 2891.67,1244.75 2893.23,1244.75 2894.8,1244.75 2896.37,1244.75 
  2897.93,1244.75 2899.5,1244.75 2901.07,1244.75 2902.63,1244.75 2904.2,1244.75 2905.77,1244.75 2907.34,1244.75 2908.9,1244.75 2910.47,1244.75 2912.04,1244.75 
  2913.6,1244.75 2915.17,1244.75 2916.74,1244.75 2918.3,1244.75 2919.87,1244.75 2921.44,1244.75 2923.01,1244.75 2924.57,1244.75 2926.14,1244.75 2927.71,1244.75 
  2929.27,1244.75 2930.84,1244.75 2932.41,1244.75 2933.97,1244.75 2935.54,1244.75 2937.11,1244.75 2938.68,1244.75 2940.24,1244.75 2941.81,1244.75 2943.38,1244.75 
  
  "/>
<polyline clip-path="url(#clip5302)" style="stroke:#e26f46; stroke-width:4; stroke-opacity:1; fill:none" points="
  688.474,1244.66 690.041,1244.66 691.608,1244.66 693.175,1244.66 694.742,1244.66 696.309,1244.66 697.876,1244.66 699.443,1244.66 701.01,1244.66 702.577,1244.67 
  704.144,1244.67 705.711,1244.67 707.278,1244.67 708.845,1244.67 710.412,1244.67 711.978,1244.67 713.545,1244.67 715.112,1244.67 716.679,1244.67 718.246,1244.68 
  719.813,1244.68 721.38,1244.68 722.947,1244.68 724.514,1244.68 726.081,1244.68 727.648,1244.68 729.215,1244.68 730.782,1244.68 732.349,1244.68 733.916,1244.68 
  735.483,1244.68 737.05,1244.69 738.617,1244.69 740.184,1244.69 741.751,1244.69 743.318,1244.69 744.885,1244.69 746.452,1244.69 748.019,1244.69 749.586,1244.69 
  751.153,1244.69 752.72,1244.69 754.287,1244.69 755.854,1244.69 757.421,1244.69 758.988,1244.7 760.555,1244.7 762.122,1244.7 763.689,1244.7 765.256,1244.7 
  766.823,1244.7 768.39,1244.7 769.957,1244.7 771.524,1244.7 773.091,1244.7 774.658,1244.7 776.225,1244.7 777.792,1244.7 779.359,1244.7 780.926,1244.7 
  782.493,1244.71 784.06,1244.71 785.627,1244.71 787.194,1244.71 788.761,1244.71 790.328,1244.71 791.895,1244.71 793.462,1244.71 795.029,1244.71 796.596,1244.71 
  798.163,1244.71 799.73,1244.71 801.297,1244.71 802.864,1244.71 804.431,1244.71 805.998,1244.71 807.565,1244.71 809.132,1244.71 810.699,1244.71 812.266,1244.71 
  813.833,1244.72 815.4,1244.72 816.967,1244.72 818.534,1244.72 820.101,1244.72 821.668,1244.72 823.235,1244.72 824.802,1244.72 826.369,1244.72 827.936,1244.72 
  829.503,1244.72 831.07,1244.72 832.637,1244.72 834.204,1244.72 835.771,1244.72 837.338,1244.72 838.905,1244.72 840.472,1244.72 842.039,1244.72 843.606,1244.72 
  845.173,1244.72 846.74,1244.72 848.307,1244.72 849.874,1244.72 851.441,1244.73 853.008,1244.73 854.575,1244.73 856.142,1244.73 857.709,1244.73 859.276,1244.73 
  860.843,1244.73 862.41,1244.73 863.977,1244.73 865.544,1244.73 867.111,1244.73 868.678,1244.73 870.245,1244.73 871.812,1244.73 873.379,1244.73 874.946,1244.73 
  876.513,1244.73 878.08,1244.73 879.647,1244.73 881.214,1244.73 882.781,1244.73 884.348,1244.73 885.915,1244.73 887.482,1244.73 889.049,1244.73 890.616,1244.73 
  892.183,1244.73 893.75,1244.73 895.317,1244.73 896.884,1244.73 898.451,1244.73 900.018,1244.73 901.585,1244.73 903.152,1244.73 904.719,1244.73 906.286,1244.74 
  907.853,1244.74 909.42,1244.74 910.987,1244.74 912.554,1244.74 914.121,1244.74 915.688,1244.74 917.255,1244.74 918.822,1244.74 920.389,1244.74 921.956,1244.74 
  923.523,1244.74 925.09,1244.74 926.657,1244.74 928.224,1244.74 929.791,1244.74 931.358,1244.74 932.925,1244.74 934.492,1244.74 936.058,1244.74 937.625,1244.74 
  939.192,1244.74 940.759,1244.74 942.326,1244.74 943.893,1244.74 945.46,1244.74 947.027,1244.74 948.594,1244.74 950.161,1244.74 951.728,1244.74 953.295,1244.74 
  954.862,1244.74 956.429,1244.74 957.996,1244.74 959.563,1244.74 961.13,1244.74 962.697,1244.74 964.264,1244.74 965.831,1244.74 967.398,1244.74 968.965,1244.74 
  970.532,1244.74 972.099,1244.74 973.666,1244.74 975.233,1244.74 976.8,1244.74 978.367,1244.74 979.934,1244.74 981.501,1244.74 983.068,1244.74 984.635,1244.74 
  986.202,1244.74 987.769,1244.74 989.336,1244.74 990.903,1244.74 992.47,1244.74 994.037,1244.74 995.604,1244.74 997.171,1244.74 998.738,1244.74 1000.31,1244.74 
  1001.87,1244.75 1003.44,1244.75 1005.01,1244.75 1006.57,1244.75 1008.14,1244.75 1009.71,1244.75 1011.27,1244.75 1012.84,1244.75 1014.41,1244.75 1015.98,1244.75 
  1017.54,1244.75 1019.11,1244.75 1020.68,1244.75 1022.24,1244.75 1023.81,1244.75 1025.38,1244.75 1026.94,1244.75 1028.51,1244.75 1030.08,1244.75 1031.65,1244.75 
  1033.21,1244.75 1034.78,1244.75 1036.35,1244.75 1037.91,1244.75 1039.48,1244.75 1041.05,1244.75 1042.61,1244.75 1044.18,1244.75 1045.75,1244.75 1047.32,1244.75 
  1048.88,1244.75 1050.45,1244.75 1052.02,1244.75 1053.58,1244.75 1055.15,1244.75 1056.72,1244.75 1058.28,1244.75 1059.85,1244.75 1061.42,1244.75 1062.98,1244.75 
  1064.55,1244.75 1066.12,1244.75 1067.69,1244.75 1069.25,1244.75 1070.82,1244.75 1072.39,1244.75 1073.95,1244.75 1075.52,1244.75 1077.09,1244.75 1078.65,1244.75 
  1080.22,1244.75 1081.79,1244.75 1083.36,1244.75 1084.92,1244.75 1086.49,1244.75 1088.06,1244.75 1089.62,1244.75 1091.19,1244.75 1092.76,1244.75 1094.32,1244.75 
  1095.89,1244.75 1097.46,1244.75 1099.03,1244.75 1100.59,1244.75 1102.16,1244.75 1103.73,1244.75 1105.29,1244.75 1106.86,1244.75 1108.43,1244.75 1109.99,1244.75 
  1111.56,1244.75 1113.13,1244.75 1114.7,1244.75 1116.26,1244.75 1117.83,1244.75 1119.4,1244.75 1120.96,1244.75 1122.53,1244.75 1124.1,1244.75 1125.66,1244.75 
  1127.23,1244.75 1128.8,1244.75 1130.37,1244.75 1131.93,1244.75 1133.5,1244.75 1135.07,1244.75 1136.63,1244.75 1138.2,1244.75 1139.77,1244.75 1141.33,1244.75 
  1142.9,1244.75 1144.47,1244.75 1146.04,1244.75 1147.6,1244.75 1149.17,1244.75 1150.74,1244.75 1152.3,1244.75 1153.87,1244.75 1155.44,1244.75 1157,1244.75 
  1158.57,1244.75 1160.14,1244.75 1161.71,1244.75 1163.27,1244.75 1164.84,1244.75 1166.41,1244.75 1167.97,1244.75 1169.54,1244.75 1171.11,1244.75 1172.67,1244.75 
  1174.24,1244.75 1175.81,1244.75 1177.38,1244.75 1178.94,1244.75 1180.51,1244.75 1182.08,1244.75 1183.64,1244.75 1185.21,1244.75 1186.78,1244.75 1188.34,1244.75 
  1189.91,1244.75 1191.48,1244.75 1193.05,1244.75 1194.61,1244.75 1196.18,1244.75 1197.75,1244.75 1199.31,1244.75 1200.88,1244.75 1202.45,1244.75 1204.01,1244.75 
  1205.58,1244.75 1207.15,1244.75 1208.72,1244.75 1210.28,1244.75 1211.85,1244.75 1213.42,1244.75 1214.98,1244.75 1216.55,1244.75 1218.12,1244.75 1219.68,1244.75 
  1221.25,1244.75 1222.82,1244.75 1224.39,1244.75 1225.95,1244.75 1227.52,1244.75 1229.09,1244.74 1230.65,1244.74 1232.22,1244.74 1233.79,1244.74 1235.35,1244.74 
  1236.92,1244.74 1238.49,1244.74 1240.06,1244.74 1241.62,1244.74 1243.19,1244.74 1244.76,1244.74 1246.32,1244.74 1247.89,1244.74 1249.46,1244.74 1251.02,1244.74 
  1252.59,1244.74 1254.16,1244.74 1255.73,1244.74 1257.29,1244.74 1258.86,1244.74 1260.43,1244.74 1261.99,1244.74 1263.56,1244.74 1265.13,1244.74 1266.69,1244.74 
  1268.26,1244.73 1269.83,1244.73 1271.4,1244.73 1272.96,1244.73 1274.53,1244.73 1276.1,1244.73 1277.66,1244.73 1279.23,1244.73 1280.8,1244.73 1282.36,1244.73 
  1283.93,1244.73 1285.5,1244.73 1287.06,1244.73 1288.63,1244.73 1290.2,1244.72 1291.77,1244.72 1293.33,1244.72 1294.9,1244.72 1296.47,1244.72 1298.03,1244.72 
  1299.6,1244.72 1301.17,1244.72 1302.73,1244.72 1304.3,1244.72 1305.87,1244.71 1307.44,1244.71 1309,1244.71 1310.57,1244.71 1312.14,1244.71 1313.7,1244.71 
  1315.27,1244.71 1316.84,1244.7 1318.4,1244.7 1319.97,1244.7 1321.54,1244.7 1323.11,1244.7 1324.67,1244.7 1326.24,1244.7 1327.81,1244.69 1329.37,1244.69 
  1330.94,1244.69 1332.51,1244.69 1334.07,1244.69 1335.64,1244.68 1337.21,1244.68 1338.78,1244.68 1340.34,1244.68 1341.91,1244.68 1343.48,1244.67 1345.04,1244.67 
  1346.61,1244.67 1348.18,1244.75 1349.74,1244.75 1351.31,1244.75 1352.88,1244.75 1354.45,1244.75 1356.01,1244.75 1357.58,1244.75 1359.15,1244.75 1360.71,1244.75 
  1362.28,1244.75 1363.85,1244.75 1365.41,1244.75 1366.98,1244.75 1368.55,1244.75 1370.12,1244.75 1371.68,1244.75 1373.25,1244.75 1374.82,1244.75 1376.38,1244.75 
  1377.95,1244.75 1379.52,1244.75 1381.08,1244.75 1382.65,1244.75 1384.22,1244.75 1385.79,1244.75 1387.35,1244.75 1388.92,1244.75 1390.49,1244.75 1392.05,1244.75 
  1393.62,1244.75 1395.19,1244.75 1396.75,1244.75 1398.32,1244.75 1399.89,1244.75 1401.46,1244.75 1403.02,1244.75 1404.59,1244.75 1406.16,1244.75 1407.72,1244.75 
  1409.29,1244.75 1410.86,1244.75 1412.42,1244.75 1413.99,1244.75 1415.56,1244.75 1417.13,1244.75 1418.69,1244.75 1420.26,1244.75 1421.83,1244.75 1423.39,1244.75 
  1424.96,1244.75 1426.53,1244.75 1428.09,1244.75 1429.66,1244.75 1431.23,1244.75 1432.8,1244.75 1434.36,1244.75 1435.93,1244.75 1437.5,1244.75 1439.06,1244.75 
  1440.63,1244.75 1442.2,1244.75 1443.76,1244.75 1445.33,1244.75 1446.9,1244.75 1448.47,1244.75 1450.03,1244.75 1451.6,1244.75 1453.17,1244.75 1454.73,1244.75 
  1456.3,1244.75 1457.87,1244.75 1459.43,1244.75 1461,1244.75 1462.57,1244.75 1464.14,1244.75 1465.7,1244.75 1467.27,1244.75 1468.84,1244.75 1470.4,1244.75 
  1471.97,1244.75 1473.54,1244.75 1475.1,1244.75 1476.67,1244.75 1478.24,1244.75 1479.81,1244.75 1481.37,1244.75 1482.94,1244.75 1484.51,1244.75 1486.07,1244.75 
  1487.64,1244.75 1489.21,1244.74 1490.77,1244.74 1492.34,1244.73 1493.91,1244.72 1495.48,1244.7 1497.04,1244.67 1498.61,1244.63 1500.18,1244.58 1501.74,1244.51 
  1503.31,1244.4 1504.88,1244.26 1506.44,1244.07 1508.01,1243.81 1509.58,1243.48 1511.14,1243.05 1512.71,1242.49 1514.28,1241.78 1515.85,1240.89 1517.41,1239.77 
  1518.98,1238.4 1520.55,1236.7 1522.11,1234.65 1523.68,1232.17 1525.25,1229.21 1526.81,1225.7 1528.38,1221.56 1529.95,1216.73 1531.52,1211.12 1533.08,1204.67 
  1534.65,1197.3 1536.22,1188.93 1537.78,1179.5 1539.35,1168.95 1540.92,1157.21 1542.48,1144.25 1544.05,1130.02 1545.62,1114.48 1547.19,1097.61 1548.75,1079.4 
  1550.32,1059.82 1551.89,1038.87 1553.45,1016.56 1555.02,992.867 1556.59,967.814 1558.15,941.412 1559.72,913.693 1561.29,884.714 1562.86,854.577 1564.42,823.449 
  1565.99,791.587 1567.56,759.364 1569.12,727.281 1570.69,695.963 1572.26,666.122 1573.82,638.492 1575.39,613.745 1576.96,592.393 1578.53,574.714 1580.09,560.712 
  1581.66,550.133 1583.23,542.522 1584.79,537.31 1586.36,533.905 1587.93,531.773 1589.49,530.475 1591.06,529.689 1592.63,529.197 1594.2,528.864 1595.76,528.614 
  1597.33,528.406 1598.9,528.221 1600.46,528.048 1602.03,527.885 1603.6,527.73 1605.16,527.581 1606.73,527.438 1608.3,527.301 1609.87,527.169 1611.43,527.043 
  1613,526.921 1614.57,526.803 1616.13,526.69 1617.7,526.58 1619.27,526.475 1620.83,526.373 1622.4,526.274 1623.97,526.179 1625.54,526.087 1627.1,525.998 
  1628.67,525.911 1630.24,855.675 1631.8,874.475 1633.37,890.803 1634.94,905.965 1636.5,920.47 1638.07,934.58 1639.64,948.441 1641.21,962.135 1642.77,975.701 
  1644.34,989.145 1645.91,1002.45 1647.47,1015.58 1649.04,1028.5 1650.61,1041.16 1652.17,1053.51 1653.74,1065.52 1655.31,1077.15 1656.88,1088.35 1658.44,1099.11 
  1660.01,1109.41 1661.58,1119.22 1663.14,1128.54 1664.71,1137.36 1666.28,1145.69 1667.84,1153.52 1669.41,1160.86 1670.98,1167.73 1672.55,1174.14 1674.11,1180.1 
  1675.68,1185.63 1677.25,1190.75 1678.81,1195.47 1680.38,1199.82 1681.95,1203.82 1683.51,1207.49 1685.08,1210.85 1686.65,1213.91 1688.22,1216.71 1689.78,1219.25 
  1691.35,1221.56 1692.92,1223.65 1694.48,1225.54 1696.05,1227.26 1697.62,1228.8 1699.18,1230.19 1700.75,1231.45 1702.32,1232.58 1703.89,1233.59 1705.45,1234.5 
  1707.02,1235.32 1708.59,1236.05 1710.15,1236.71 1711.72,1237.31 1713.29,1237.84 1714.85,1238.32 1716.42,1238.75 1717.99,1239.14 1719.55,1239.49 1721.12,1239.8 
  1722.69,1240.09 1724.26,1240.35 1725.82,1240.59 1727.39,1240.81 1728.96,1241.01 1730.52,1241.19 1732.09,1241.36 1733.66,1241.52 1735.22,1241.66 1736.79,1241.8 
  1738.36,1241.93 1739.93,1242.04 1741.49,1242.16 1743.06,1242.26 1744.63,1242.36 1746.19,1242.45 1747.76,1242.54 1749.33,1242.63 1750.89,1242.71 1752.46,1242.79 
  1754.03,1242.86 1755.6,1242.93 1757.16,1243 1758.73,1243.07 1760.3,1243.13 1761.86,1243.19 1763.43,1243.25 1765,1243.3 1766.56,1243.36 1768.13,1243.41 
  1769.7,1243.46 1771.27,1243.51 1772.83,1243.55 1774.4,1243.6 1775.97,1243.64 1777.53,1243.68 1779.1,1243.72 1780.67,1243.76 1782.23,1243.8 1783.8,1243.83 
  1785.37,1243.87 1786.94,1243.9 1788.5,1243.93 1790.07,1243.96 1791.64,1243.99 1793.2,1244.02 1794.77,1244.05 1796.34,1244.08 1797.9,1244.1 1799.47,1244.13 
  1801.04,1244.15 1802.61,1244.17 1804.17,1244.2 1805.74,1244.22 1807.31,1244.24 1808.87,1244.26 1810.44,1244.28 1812.01,1244.3 1813.57,1244.31 1815.14,1244.33 
  1816.71,1244.35 1818.28,1244.36 1819.84,1244.38 1821.41,1244.39 1822.98,1244.41 1824.54,1244.42 1826.11,1244.43 1827.68,1244.45 1829.24,1244.46 1830.81,1244.47 
  1832.38,1244.48 1833.95,1244.49 1835.51,1244.5 1837.08,1244.51 1838.65,1244.52 1840.21,1244.53 1841.78,1244.54 1843.35,1244.55 1844.91,1244.56 1846.48,1244.57 
  1848.05,1244.57 1849.62,1244.58 1851.18,1244.59 1852.75,1244.6 1854.32,1244.6 1855.88,1244.61 1857.45,1244.61 1859.02,1244.62 1860.58,1244.63 1862.15,1244.63 
  1863.72,1244.64 1865.29,1244.64 1866.85,1244.65 1868.42,1244.65 1869.99,1244.66 1871.55,1244.66 1873.12,1244.66 1874.69,1244.67 1876.25,1244.67 1877.82,1244.67 
  1879.39,1244.68 1880.96,1244.68 1882.52,1244.68 1884.09,1244.69 1885.66,1244.69 1887.22,1244.69 1888.79,1244.7 1890.36,1244.7 1891.92,1244.7 1893.49,1244.7 
  1895.06,1244.71 1896.63,1244.71 1898.19,1244.71 1899.76,1244.71 1901.33,1244.71 1902.89,1244.72 1904.46,1244.72 1906.03,1244.72 1907.59,1244.72 1909.16,1244.72 
  1910.73,1244.72 1912.3,1244.72 1913.86,1244.73 1915.43,1244.73 1917,1244.73 1918.56,1244.73 1920.13,1244.73 1921.7,1244.73 1923.26,1244.73 1924.83,1244.73 
  1926.4,1244.73 1927.97,1244.74 1929.53,1244.74 1931.1,1244.74 1932.67,1244.74 1934.23,1244.74 1935.8,1244.74 1937.37,1244.74 1938.93,1244.74 1940.5,1244.74 
  1942.07,1244.74 1943.63,1244.74 1945.2,1244.74 1946.77,1244.74 1948.34,1244.74 1949.9,1244.74 1951.47,1244.74 1953.04,1244.74 1954.6,1244.75 1956.17,1244.75 
  1957.74,1244.75 1959.3,1244.75 1960.87,1244.75 1962.44,1244.75 1964.01,1244.75 1965.57,1244.75 1967.14,1244.75 1968.71,1244.75 1970.27,1244.75 1971.84,1244.75 
  1973.41,1244.75 1974.97,1244.75 1976.54,1244.75 1978.11,1244.75 1979.68,1244.75 1981.24,1244.75 1982.81,1244.75 1984.38,1244.75 1985.94,1244.75 1987.51,1244.75 
  1989.08,1244.75 1990.64,1244.75 1992.21,1244.75 1993.78,1244.75 1995.35,1244.75 1996.91,1244.75 1998.48,1244.75 2000.05,1244.75 2001.61,1244.75 2003.18,1244.75 
  2004.75,1244.75 2006.31,1244.75 2007.88,1244.75 2009.45,1244.75 2011.02,1244.75 2012.58,1244.75 2014.15,1244.75 2015.72,1244.75 2017.28,1244.75 2018.85,1244.75 
  2020.42,1244.75 2021.98,1244.75 2023.55,1244.75 2025.12,1244.75 2026.69,1244.75 2028.25,1244.75 2029.82,1244.75 2031.39,1244.75 2032.95,1244.75 2034.52,1244.75 
  2036.09,1244.75 2037.65,1244.75 2039.22,1244.75 2040.79,1244.75 2042.36,1244.75 2043.92,1244.75 2045.49,1244.75 2047.06,1244.75 2048.62,1244.75 2050.19,1244.75 
  2051.76,1244.75 2053.32,1244.75 2054.89,1244.75 2056.46,1244.75 2058.03,1244.75 2059.59,1244.75 2061.16,1244.75 2062.73,1244.75 2064.29,1244.75 2065.86,1244.75 
  2067.43,1244.75 2068.99,1244.75 2070.56,1244.75 2072.13,1244.75 2073.7,1244.75 2075.26,1244.75 2076.83,1244.75 2078.4,1244.75 2079.96,1244.75 2081.53,1244.75 
  2083.1,1244.75 2084.66,1244.75 2086.23,1244.75 2087.8,1244.75 2089.37,1244.75 2090.93,1244.75 2092.5,1244.75 2094.07,1244.75 2095.63,1244.75 2097.2,1244.75 
  2098.77,1244.75 2100.33,1244.75 2101.9,1244.75 2103.47,1244.75 2105.04,1244.75 2106.6,1244.75 2108.17,1244.75 2109.74,1244.75 2111.3,1244.75 2112.87,1244.75 
  2114.44,1244.75 2116,1244.75 2117.57,1244.75 2119.14,1244.75 2120.71,1244.75 2122.27,1244.75 2123.84,1244.75 2125.41,1244.75 2126.97,1244.75 2128.54,1244.75 
  2130.11,1244.75 2131.67,1244.75 2133.24,1244.75 2134.81,1244.75 2136.38,1244.75 2137.94,1244.75 2139.51,1244.75 2141.08,1244.75 2142.64,1244.75 2144.21,1244.75 
  2145.78,1244.75 2147.34,1244.75 2148.91,1244.75 2150.48,1244.75 2152.05,1244.75 2153.61,1244.75 2155.18,1244.75 2156.75,1244.75 2158.31,1244.75 2159.88,1244.75 
  2161.45,1244.75 2163.01,1244.75 2164.58,1244.75 2166.15,1244.75 2167.71,1244.75 2169.28,1244.75 2170.85,1244.75 2172.42,1244.75 2173.98,1244.75 2175.55,1244.75 
  2177.12,1244.75 2178.68,1244.75 2180.25,1244.75 2181.82,1244.75 2183.38,1244.75 2184.95,1244.75 2186.52,1244.75 2188.09,1244.75 2189.65,1244.75 2191.22,1244.75 
  2192.79,1244.75 2194.35,1156.4 2195.92,1136.16 2197.49,1116.88 2199.05,1098.54 2200.62,1081.15 2202.19,1064.69 2203.76,1049.17 2205.32,1034.58 2206.89,1020.93 
  2208.46,1008.21 2210.02,996.432 2211.59,985.583 2213.16,975.668 2214.72,966.688 2216.29,958.641 2217.86,951.53 2219.43,945.354 2220.99,940.113 2222.56,935.807 
  2224.13,932.433 2225.69,929.989 2227.26,928.469 2228.83,927.87 2230.39,928.182 2231.96,929.4 2233.53,931.512 2235.1,934.508 2236.66,938.376 2238.23,943.1 
  2239.8,948.665 2241.36,955.05 2242.93,962.233 2244.5,970.188 2246.06,978.884 2247.63,988.285 2249.2,998.35 2250.77,1009.03 2252.33,1020.27 2253.9,1032 
  2255.47,1044.17 2257.03,1056.67 2258.6,1069.44 2260.17,1082.36 2261.73,1095.35 2263.3,1108.3 2264.87,1121.08 2266.44,1133.6 2268,1145.73 2269.57,1157.38 
  2271.14,1168.45 2272.7,1178.83 2274.27,1188.47 2275.84,1197.3 2277.4,1205.28 2278.97,1212.39 2280.54,1218.62 2282.11,1224.01 2283.67,1228.57 2285.24,1232.37 
  2286.81,1235.47 2288.37,1237.95 2289.94,1239.88 2291.51,1241.35 2293.07,1242.44 2294.64,1243.22 2296.21,1243.77 2297.78,1244.14 2299.34,1244.39 2300.91,1244.54 
  2302.48,1244.63 2304.04,1244.69 2305.61,1244.72 2307.18,1244.74 2308.74,1244.74 2310.31,1244.75 2311.88,1244.75 2313.45,1244.75 2315.01,1244.75 2316.58,1244.75 
  2318.15,1244.75 2319.71,1244.75 2321.28,1244.75 2322.85,1244.75 2324.41,1244.75 2325.98,1244.75 2327.55,1244.75 2329.12,1244.75 2330.68,1244.75 2332.25,1244.75 
  2333.82,1244.75 2335.38,1244.75 2336.95,1244.75 2338.52,1244.75 2340.08,1244.75 2341.65,1244.75 2343.22,1244.75 2344.79,1244.75 2346.35,1244.75 2347.92,1244.75 
  2349.49,1244.75 2351.05,1244.75 2352.62,1244.75 2354.19,1244.75 2355.75,1244.75 2357.32,1244.75 2358.89,1244.75 2360.46,1244.75 2362.02,1244.75 2363.59,1244.75 
  2365.16,1244.75 2366.72,1244.75 2368.29,1244.75 2369.86,1244.75 2371.42,1244.75 2372.99,1244.75 2374.56,1244.75 2376.13,1244.75 2377.69,1244.75 2379.26,1244.75 
  2380.83,1244.75 2382.39,1178.63 2383.96,1164.52 2385.53,1150.64 2387.09,1136.96 2388.66,1123.48 2390.23,1110.21 2391.79,1097.14 2393.36,1084.27 2394.93,1071.6 
  2396.5,1059.13 2398.06,1046.86 2399.63,1034.79 2401.2,1022.92 2402.76,1011.25 2404.33,999.774 2405.9,988.503 2407.46,977.431 2409.03,966.56 2410.6,955.887 
  2412.17,945.414 2413.73,935.141 2415.3,925.068 2416.87,915.194 2418.43,905.519 2420,896.044 2421.57,886.769 2423.13,877.693 2424.7,868.816 2426.27,860.139 
  2427.84,851.662 2429.4,843.384 2430.97,835.305 2432.54,827.426 2434.1,819.747 2435.67,812.266 2437.24,804.986 2438.8,797.905 2440.37,791.023 2441.94,784.341 
  2443.51,777.858 2445.07,771.575 2446.64,765.492 2448.21,759.608 2449.77,753.923 2451.34,748.439 2452.91,743.154 2454.47,738.069 2456.04,733.184 2457.61,728.499 
  2459.18,724.014 2460.74,719.729 2462.31,715.645 2463.88,711.76 2465.44,708.077 2467.01,704.593 2468.58,701.311 2470.14,698.229 2471.71,695.348 2473.28,692.667 
  2474.85,690.188 2476.41,687.909 2477.98,685.831 2479.55,683.954 2481.11,682.277 2482.68,680.801 2484.25,679.525 2485.81,678.45 2487.38,677.576 2488.95,676.901 
  2490.52,676.427 2492.08,676.153 2493.65,676.078 2495.22,676.203 2496.78,676.527 2498.35,677.051 2499.92,677.773 2501.48,678.695 2503.05,679.815 2504.62,681.133 
  2506.19,682.65 2507.75,684.365 2509.32,686.278 2510.89,688.389 2512.45,690.697 2514.02,693.202 2515.59,695.905 2517.15,698.804 2518.72,701.9 2520.29,705.192 
  2521.86,708.68 2523.42,712.364 2524.99,716.244 2526.56,720.318 2528.12,724.587 2529.69,729.051 2531.26,733.708 2532.82,738.558 2534.39,743.601 2535.96,748.836 
  2537.53,754.261 2539.09,759.877 2540.66,765.681 2542.23,771.673 2543.79,777.852 2545.36,784.216 2546.93,790.762 2548.49,797.491 2550.06,804.398 2551.63,811.483 
  2553.2,818.741 2554.76,826.171 2556.33,833.77 2557.9,841.532 2559.46,849.456 2561.03,857.536 2562.6,865.767 2564.16,874.145 2565.73,882.663 2567.3,891.315 
  2568.87,900.095 2570.43,908.996 2572,918.008 2573.57,927.124 2575.13,936.334 2576.7,945.628 2578.27,954.996 2579.83,964.427 2581.4,973.907 2582.97,983.426 
  2584.54,992.968 2586.1,1002.52 2587.67,1012.07 2589.24,1021.6 2590.8,1031.09 2592.37,1040.53 2593.94,1049.91 2595.5,1059.19 2597.07,1068.38 2598.64,1077.45 
  2600.21,1086.37 2601.77,1095.15 2603.34,1103.75 2604.91,1112.16 2606.47,1120.37 2608.04,1128.36 2609.61,1136.12 2611.17,1143.62 2612.74,1150.87 2614.31,1157.84 
  2615.87,1164.53 2617.44,1170.94 2619.01,1177.04 2620.58,1182.84 2622.14,1188.33 2623.71,1193.52 2625.28,1198.39 2626.84,1202.96 2628.41,1207.22 2629.98,1211.18 
  2631.54,1214.84 2633.11,1218.22 2634.68,1221.32 2636.25,1224.15 2637.81,1226.72 2639.38,1229.05 2640.95,1231.15 2642.51,1233.03 2644.08,1234.7 2645.65,1236.18 
  2647.21,1237.49 2648.78,1238.63 2650.35,1239.62 2651.92,1240.48 2653.48,1241.22 2655.05,1241.86 2656.62,1242.39 2658.18,1242.84 2659.75,1243.22 2661.32,1243.53 
  2662.88,1243.78 2664.45,1243.99 2666.02,1244.16 2667.59,1244.29 2669.15,1244.4 2670.72,1244.49 2672.29,1244.55 2673.85,1244.6 2675.42,1244.64 2676.99,1244.67 
  2678.55,1244.69 2680.12,1244.71 2681.69,1244.72 2683.26,1244.73 2684.82,1244.74 2686.39,1244.74 2687.96,1244.74 2689.52,1244.75 2691.09,1244.75 2692.66,1244.75 
  2694.22,1244.75 2695.79,1244.75 2697.36,1244.75 2698.93,1244.75 2700.49,1244.75 2702.06,1244.75 2703.63,1244.75 2705.19,1244.75 2706.76,1244.75 2708.33,1244.75 
  2709.89,1244.75 2711.46,1244.75 2713.03,1244.75 2714.6,1244.75 2716.16,1244.75 2717.73,1244.75 2719.3,1244.75 2720.86,1244.75 2722.43,1244.75 2724,1244.75 
  2725.56,1244.75 2727.13,1244.75 2728.7,1244.75 2730.27,1244.75 2731.83,1244.75 2733.4,1244.75 2734.97,1244.75 2736.53,1244.75 2738.1,1244.75 2739.67,1244.75 
  2741.23,1244.75 2742.8,1244.75 2744.37,1244.75 2745.94,1244.75 2747.5,1244.75 2749.07,1244.75 2750.64,1244.75 2752.2,1244.75 2753.77,1244.75 2755.34,1244.75 
  2756.9,1244.75 2758.47,1244.75 2760.04,1244.75 2761.61,1244.75 2763.17,1244.75 2764.74,1244.75 2766.31,1244.75 2767.87,1244.75 2769.44,1244.75 2771.01,1244.75 
  2772.57,1244.75 2774.14,1244.75 2775.71,1244.75 2777.28,1244.75 2778.84,1244.75 2780.41,1244.75 2781.98,1244.75 2783.54,1244.75 2785.11,1244.75 2786.68,1244.75 
  2788.24,1244.75 2789.81,1244.75 2791.38,1244.75 2792.95,1244.75 2794.51,1244.75 2796.08,1244.75 2797.65,1244.75 2799.21,1244.75 2800.78,1244.75 2802.35,1244.75 
  2803.91,1244.75 2805.48,1244.75 2807.05,1244.75 2808.62,1244.75 2810.18,1244.75 2811.75,1244.75 2813.32,1244.75 2814.88,1244.75 2816.45,1244.75 2818.02,1244.75 
  2819.58,1244.75 2821.15,1244.75 2822.72,1244.75 2824.29,1244.75 2825.85,1244.75 2827.42,1244.75 2828.99,1244.75 2830.55,1244.75 2832.12,1244.75 2833.69,1244.75 
  2835.25,1244.75 2836.82,1244.75 2838.39,1244.75 2839.95,1244.75 2841.52,1244.75 2843.09,1244.75 2844.66,1244.75 2846.22,1244.75 2847.79,1244.75 2849.36,1244.75 
  2850.92,1244.75 2852.49,1244.75 2854.06,1244.75 2855.62,1244.75 2857.19,1244.75 2858.76,1244.75 2860.33,1244.75 2861.89,1244.75 2863.46,1244.75 2865.03,1244.75 
  2866.59,1244.75 2868.16,1244.75 2869.73,1244.75 2871.29,1244.75 2872.86,1244.75 2874.43,1244.75 2876,1244.75 2877.56,1244.75 2879.13,1244.75 2880.7,1244.75 
  2882.26,1244.75 2883.83,1244.75 2885.4,1244.75 2886.96,1244.75 2888.53,1244.75 2890.1,1244.75 2891.67,1244.75 2893.23,1244.75 2894.8,1244.75 2896.37,1244.75 
  2897.93,1244.75 2899.5,1244.75 2901.07,1244.75 2902.63,1244.75 2904.2,1244.75 2905.77,1244.75 2907.34,1244.75 2908.9,1244.75 2910.47,1244.75 2912.04,1244.75 
  2913.6,1244.75 2915.17,1244.75 2916.74,1244.75 2918.3,1244.75 2919.87,1244.75 2921.44,1244.75 2923.01,1244.75 2924.57,1244.75 2926.14,1244.75 2927.71,1244.75 
  2929.27,1244.75 2930.84,1244.75 2932.41,1244.75 2933.97,1244.75 2935.54,1244.75 2937.11,1244.75 2938.68,1244.75 2940.24,1244.75 2941.81,1244.75 2943.38,1244.75 
  
  "/>
</svg>
