<?xml version="1.0" encoding="utf-8"?>
<svg xmlns="http://www.w3.org/2000/svg" xmlns:xlink="http://www.w3.org/1999/xlink" width="800" height="400" viewBox="0 0 3200 1600">
<defs>
  <clipPath id="clip5900">
    <rect x="0" y="0" width="3200" height="1600"/>
  </clipPath>
</defs>
<polygon clip-path="url(#clip5900)" points="
0,1600 3200,1600 3200,0 0,0 
  " fill="#ffffff" fill-rule="evenodd" fill-opacity="1"/>
<defs>
  <clipPath id="clip5901">
    <rect x="640" y="0" width="2241" height="1600"/>
  </clipPath>
</defs>
<polygon clip-path="url(#clip5900)" points="
646.663,1275.5 3011.02,1275.5 3011.02,188.976 646.663,188.976 
  " fill="#ffffff" fill-rule="evenodd" fill-opacity="1"/>
<defs>
  <clipPath id="clip5902">
    <rect x="646" y="188" width="2365" height="1088"/>
  </clipPath>
</defs>
<polyline clip-path="url(#clip5902)" style="stroke:#000000; stroke-width:2; stroke-opacity:0.1; fill:none" points="
  712.029,1275.5 712.029,188.976 
  "/>
<polyline clip-path="url(#clip5902)" style="stroke:#000000; stroke-width:2; stroke-opacity:0.1; fill:none" points="
  1177.05,1275.5 1177.05,188.976 
  "/>
<polyline clip-path="url(#clip5902)" style="stroke:#000000; stroke-width:2; stroke-opacity:0.1; fill:none" points="
  1642.06,1275.5 1642.06,188.976 
  "/>
<polyline clip-path="url(#clip5902)" style="stroke:#000000; stroke-width:2; stroke-opacity:0.1; fill:none" points="
  2107.08,1275.5 2107.08,188.976 
  "/>
<polyline clip-path="url(#clip5902)" style="stroke:#000000; stroke-width:2; stroke-opacity:0.1; fill:none" points="
  2572.09,1275.5 2572.09,188.976 
  "/>
<polyline clip-path="url(#clip5902)" style="stroke:#000000; stroke-width:2; stroke-opacity:0.1; fill:none" points="
  646.663,1244.75 3011.02,1244.75 
  "/>
<polyline clip-path="url(#clip5902)" style="stroke:#000000; stroke-width:2; stroke-opacity:0.1; fill:none" points="
  646.663,977.686 3011.02,977.686 
  "/>
<polyline clip-path="url(#clip5902)" style="stroke:#000000; stroke-width:2; stroke-opacity:0.1; fill:none" points="
  646.663,710.621 3011.02,710.621 
  "/>
<polyline clip-path="url(#clip5902)" style="stroke:#000000; stroke-width:2; stroke-opacity:0.1; fill:none" points="
  646.663,443.555 3011.02,443.555 
  "/>
<polyline clip-path="url(#clip5900)" style="stroke:#000000; stroke-width:4; stroke-opacity:1; fill:none" points="
  646.663,1275.5 3011.02,1275.5 
  "/>
<polyline clip-path="url(#clip5900)" style="stroke:#000000; stroke-width:4; stroke-opacity:1; fill:none" points="
  646.663,1275.5 646.663,188.976 
  "/>
<polyline clip-path="url(#clip5900)" style="stroke:#000000; stroke-width:4; stroke-opacity:1; fill:none" points="
  712.029,1275.5 712.029,1259.21 
  "/>
<polyline clip-path="url(#clip5900)" style="stroke:#000000; stroke-width:4; stroke-opacity:1; fill:none" points="
  1177.05,1275.5 1177.05,1259.21 
  "/>
<polyline clip-path="url(#clip5900)" style="stroke:#000000; stroke-width:4; stroke-opacity:1; fill:none" points="
  1642.06,1275.5 1642.06,1259.21 
  "/>
<polyline clip-path="url(#clip5900)" style="stroke:#000000; stroke-width:4; stroke-opacity:1; fill:none" points="
  2107.08,1275.5 2107.08,1259.21 
  "/>
<polyline clip-path="url(#clip5900)" style="stroke:#000000; stroke-width:4; stroke-opacity:1; fill:none" points="
  2572.09,1275.5 2572.09,1259.21 
  "/>
<polyline clip-path="url(#clip5900)" style="stroke:#000000; stroke-width:4; stroke-opacity:1; fill:none" points="
  646.663,1244.75 682.129,1244.75 
  "/>
<polyline clip-path="url(#clip5900)" style="stroke:#000000; stroke-width:4; stroke-opacity:1; fill:none" points="
  646.663,977.686 682.129,977.686 
  "/>
<polyline clip-path="url(#clip5900)" style="stroke:#000000; stroke-width:4; stroke-opacity:1; fill:none" points="
  646.663,710.621 682.129,710.621 
  "/>
<polyline clip-path="url(#clip5900)" style="stroke:#000000; stroke-width:4; stroke-opacity:1; fill:none" points="
  646.663,443.555 682.129,443.555 
  "/>
<g clip-path="url(#clip5900)">
<text style="fill:#000000; fill-opacity:1; font-family:Arial,Helvetica Neue,Helvetica,sans-serif; font-size:71px; text-anchor:middle;" transform="rotate(0, 712.029, 1353.9)" x="712.029" y="1353.9">0</text>
</g>
<g clip-path="url(#clip5900)">
<text style="fill:#000000; fill-opacity:1; font-family:Arial,Helvetica Neue,Helvetica,sans-serif; font-size:71px; text-anchor:middle;" transform="rotate(0, 1177.05, 1353.9)" x="1177.05" y="1353.9">300</text>
</g>
<g clip-path="url(#clip5900)">
<text style="fill:#000000; fill-opacity:1; font-family:Arial,Helvetica Neue,Helvetica,sans-serif; font-size:71px; text-anchor:middle;" transform="rotate(0, 1642.06, 1353.9)" x="1642.06" y="1353.9">600</text>
</g>
<g clip-path="url(#clip5900)">
<text style="fill:#000000; fill-opacity:1; font-family:Arial,Helvetica Neue,Helvetica,sans-serif; font-size:71px; text-anchor:middle;" transform="rotate(0, 2107.08, 1353.9)" x="2107.08" y="1353.9">900</text>
</g>
<g clip-path="url(#clip5900)">
<text style="fill:#000000; fill-opacity:1; font-family:Arial,Helvetica Neue,Helvetica,sans-serif; font-size:71px; text-anchor:middle;" transform="rotate(0, 2572.09, 1353.9)" x="2572.09" y="1353.9">1200</text>
</g>
<g clip-path="url(#clip5900)">
<text style="fill:#000000; fill-opacity:1; font-family:Arial,Helvetica Neue,Helvetica,sans-serif; font-size:71px; text-anchor:end;" transform="rotate(0, 614.663, 1270.75)" x="614.663" y="1270.75">0</text>
</g>
<g clip-path="url(#clip5900)">
<text style="fill:#000000; fill-opacity:1; font-family:Arial,Helvetica Neue,Helvetica,sans-serif; font-size:71px; text-anchor:start;" transform="rotate(0, 386.835, 1013.28)" x="386.835" y="1013.28">2×10</text>
</g>
<g clip-path="url(#clip5900)">
<text style="fill:#000000; fill-opacity:1; font-family:Arial,Helvetica Neue,Helvetica,sans-serif; font-size:58px; text-anchor:start;" transform="rotate(0, 549.43, 972.162)" x="549.43" y="972.162">59</text>
</g>
<g clip-path="url(#clip5900)">
<text style="fill:#000000; fill-opacity:1; font-family:Arial,Helvetica Neue,Helvetica,sans-serif; font-size:71px; text-anchor:start;" transform="rotate(0, 386.835, 746.212)" x="386.835" y="746.212">4×10</text>
</g>
<g clip-path="url(#clip5900)">
<text style="fill:#000000; fill-opacity:1; font-family:Arial,Helvetica Neue,Helvetica,sans-serif; font-size:58px; text-anchor:start;" transform="rotate(0, 549.43, 705.096)" x="549.43" y="705.096">59</text>
</g>
<g clip-path="url(#clip5900)">
<text style="fill:#000000; fill-opacity:1; font-family:Arial,Helvetica Neue,Helvetica,sans-serif; font-size:71px; text-anchor:start;" transform="rotate(0, 386.835, 479.146)" x="386.835" y="479.146">6×10</text>
</g>
<g clip-path="url(#clip5900)">
<text style="fill:#000000; fill-opacity:1; font-family:Arial,Helvetica Neue,Helvetica,sans-serif; font-size:58px; text-anchor:start;" transform="rotate(0, 549.43, 438.03)" x="549.43" y="438.03">59</text>
</g>
<g clip-path="url(#clip5900)">
<text style="fill:#000000; fill-opacity:1; font-family:Arial,Helvetica Neue,Helvetica,sans-serif; font-size:95px; text-anchor:middle;" transform="rotate(0, 1828.84, 1469.75)" x="1828.84" y="1469.75">Time (min.)</text>
</g>
<g clip-path="url(#clip5900)">
<text style="fill:#000000; fill-opacity:1; font-family:Arial,Helvetica Neue,Helvetica,sans-serif; font-size:95px; text-anchor:middle;" transform="rotate(-90, 220.973, 732.24)" x="220.973" y="732.24">exp_wait: (PSA-NS)/NS</text>
</g>
<polyline clip-path="url(#clip5902)" style="stroke:#009af9; stroke-width:4; stroke-opacity:1; fill:none" points="
  713.579,1244.75 715.129,1244.75 716.679,1244.75 718.229,1244.75 719.779,1244.75 721.33,1244.75 722.88,1244.75 724.43,1244.75 725.98,1244.75 727.53,1244.75 
  729.08,1244.75 730.63,1244.75 732.18,1244.75 733.73,1244.75 735.28,1244.75 736.83,1244.75 738.38,1244.75 739.93,1244.75 741.48,1244.75 743.03,1244.75 
  744.58,1244.75 746.13,1244.75 747.68,1244.75 749.231,1244.75 750.781,1244.75 752.331,1244.75 753.881,1244.75 755.431,1244.75 756.981,1244.75 758.531,1244.75 
  760.081,1244.75 761.631,1244.75 763.181,1244.75 764.731,1244.75 766.281,1244.75 767.831,1244.75 769.381,1244.75 770.931,1244.75 772.481,1244.75 774.031,1244.75 
  775.581,1244.75 777.132,1244.75 778.682,1244.75 780.232,1244.75 781.782,1244.75 783.332,1244.75 784.882,1244.75 786.432,1244.75 787.982,1244.75 789.532,1244.75 
  791.082,1244.75 792.632,1244.75 794.182,1244.75 795.732,1244.75 797.282,1244.75 798.832,1244.75 800.382,1244.75 801.932,1244.75 803.482,1244.75 805.032,1244.75 
  806.583,1244.75 808.133,1244.75 809.683,1244.75 811.233,1244.75 812.783,1244.75 814.333,1244.75 815.883,1244.75 817.433,1244.75 818.983,1244.75 820.533,1244.75 
  822.083,1244.75 823.633,1244.75 825.183,1244.75 826.733,1244.75 828.283,1244.75 829.833,1244.75 831.383,1244.75 832.933,1244.75 834.484,1244.75 836.034,1244.75 
  837.584,1244.75 839.134,1244.75 840.684,1244.75 842.234,1244.75 843.784,1244.75 845.334,1244.75 846.884,1244.75 848.434,1244.75 849.984,1244.75 851.534,1244.75 
  853.084,1244.75 854.634,1244.75 856.184,1244.75 857.734,1244.75 859.284,1244.75 860.834,1244.75 862.385,1244.75 863.935,1244.75 865.485,1244.75 867.035,1244.75 
  868.585,1244.75 870.135,1244.75 871.685,1244.75 873.235,1244.75 874.785,1244.75 876.335,1244.75 877.885,1244.75 879.435,1244.75 880.985,1244.75 882.535,1244.75 
  884.085,1244.75 885.635,1244.75 887.185,1244.75 888.735,1244.75 890.285,1244.75 891.836,1244.75 893.386,1244.75 894.936,1244.75 896.486,1244.75 898.036,1244.75 
  899.586,1244.75 901.136,1244.75 902.686,1244.75 904.236,1244.75 905.786,1244.75 907.336,1244.75 908.886,1244.75 910.436,1244.75 911.986,1244.75 913.536,1244.75 
  915.086,1244.75 916.636,1244.75 918.186,1244.75 919.737,1244.75 921.287,1244.75 922.837,1244.75 924.387,1244.75 925.937,1244.75 927.487,1244.75 929.037,1244.75 
  930.587,1244.75 932.137,1244.75 933.687,1244.75 935.237,1244.75 936.787,1244.75 938.337,1244.75 939.887,1244.75 941.437,1244.75 942.987,1244.75 944.537,1244.75 
  946.087,1244.75 947.638,1244.75 949.188,1244.75 950.738,1244.75 952.288,1244.75 953.838,1244.75 955.388,1244.75 956.938,1244.75 958.488,1244.75 960.038,1244.75 
  961.588,1244.75 963.138,1244.75 964.688,1244.75 966.238,1244.75 967.788,1244.75 969.338,1244.75 970.888,1244.75 972.438,1244.75 973.988,1244.75 975.538,1244.75 
  977.089,1244.75 978.639,1244.75 980.189,1244.75 981.739,1244.75 983.289,1244.75 984.839,1244.75 986.389,1244.75 987.939,1244.75 989.489,1244.75 991.039,1244.75 
  992.589,1244.75 994.139,1244.75 995.689,1244.75 997.239,1244.75 998.789,1244.75 1000.34,1244.75 1001.89,1244.75 1003.44,1244.75 1004.99,1244.75 1006.54,1244.75 
  1008.09,1244.75 1009.64,1244.75 1011.19,1244.75 1012.74,1244.75 1014.29,1244.75 1015.84,1244.75 1017.39,1244.75 1018.94,1244.75 1020.49,1244.75 1022.04,1244.75 
  1023.59,1244.75 1025.14,1244.75 1026.69,1244.75 1028.24,1244.75 1029.79,1244.75 1031.34,1244.75 1032.89,1244.75 1034.44,1244.75 1035.99,1244.75 1037.54,1244.75 
  1039.09,1244.75 1040.64,1244.75 1042.19,1244.75 1043.74,1244.75 1045.29,1244.75 1046.84,1244.75 1048.39,1244.75 1049.94,1244.75 1051.49,1244.75 1053.04,1244.75 
  1054.59,1244.75 1056.14,1244.75 1057.69,1244.75 1059.24,1244.75 1060.79,1244.75 1062.34,1244.75 1063.89,1244.75 1065.44,1244.75 1066.99,1244.75 1068.54,1244.75 
  1070.09,1244.75 1071.64,1244.75 1073.19,1244.75 1074.74,1244.75 1076.29,1244.75 1077.84,1244.75 1079.39,1244.75 1080.94,1244.75 1082.49,1244.75 1084.04,1244.75 
  1085.59,1244.75 1087.14,1244.75 1088.69,1244.75 1090.24,1244.75 1091.79,1244.75 1093.34,1244.75 1094.89,1244.75 1096.44,1244.75 1097.99,1244.75 1099.54,1244.75 
  1101.09,1244.75 1102.64,1244.75 1104.19,1244.75 1105.74,1244.75 1107.29,1244.75 1108.84,1244.75 1110.39,1244.75 1111.94,1244.75 1113.49,1244.75 1115.04,1244.75 
  1116.59,1244.75 1118.14,1244.75 1119.69,1244.75 1121.24,1244.75 1122.79,1244.75 1124.34,1244.75 1125.89,1244.75 1127.44,1244.75 1128.99,1244.75 1130.54,1244.75 
  1132.09,1244.75 1133.64,1244.75 1135.19,1244.75 1136.74,1244.75 1138.29,1244.75 1139.84,1244.75 1141.39,1244.75 1142.94,1244.75 1144.49,1244.75 1146.04,1244.75 
  1147.59,1244.75 1149.14,1244.75 1150.69,1244.75 1152.24,1244.75 1153.79,1244.75 1155.34,1244.75 1156.89,1244.75 1158.44,1244.75 1159.99,1244.75 1161.55,1244.75 
  1163.1,1244.75 1164.65,1244.75 1166.2,1244.75 1167.75,1244.75 1169.3,1244.75 1170.85,1244.75 1172.4,1244.75 1173.95,1244.75 1175.5,1244.75 1177.05,1244.75 
  1178.6,1244.75 1180.15,1244.75 1181.7,1244.75 1183.25,1244.75 1184.8,1244.75 1186.35,1244.75 1187.9,1244.75 1189.45,1244.75 1191,1244.75 1192.55,1244.75 
  1194.1,1244.75 1195.65,1244.75 1197.2,1244.75 1198.75,1244.75 1200.3,1244.75 1201.85,1244.75 1203.4,1244.75 1204.95,1244.75 1206.5,1244.75 1208.05,1244.75 
  1209.6,1244.75 1211.15,1244.75 1212.7,1244.75 1214.25,1244.75 1215.8,1244.75 1217.35,1244.75 1218.9,1244.75 1220.45,1244.75 1222,1244.75 1223.55,1244.75 
  1225.1,1244.75 1226.65,1244.75 1228.2,1244.75 1229.75,1244.75 1231.3,1244.75 1232.85,1244.75 1234.4,1244.75 1235.95,1244.75 1237.5,1244.75 1239.05,1244.75 
  1240.6,1244.75 1242.15,1244.75 1243.7,1244.75 1245.25,1244.75 1246.8,1244.75 1248.35,1244.75 1249.9,1244.75 1251.45,1244.75 1253,1244.75 1254.55,1244.75 
  1256.1,1244.75 1257.65,1244.75 1259.2,1244.75 1260.75,1244.75 1262.3,1244.75 1263.85,1244.75 1265.4,1244.75 1266.95,1244.75 1268.5,1244.75 1270.05,1244.75 
  1271.6,1244.75 1273.15,1244.75 1274.7,1244.75 1276.25,1244.75 1277.8,1244.75 1279.35,1244.75 1280.9,1244.75 1282.45,1244.75 1284,1244.75 1285.55,1244.75 
  1287.1,1244.75 1288.65,1244.75 1290.2,1244.75 1291.75,1244.75 1293.3,1244.75 1294.85,1244.75 1296.4,1244.75 1297.95,1244.75 1299.5,1244.75 1301.05,1244.75 
  1302.6,1244.75 1304.15,1244.75 1305.7,1244.75 1307.25,1244.75 1308.8,1244.75 1310.35,1244.75 1311.9,1244.75 1313.45,1244.75 1315,1244.75 1316.55,1244.75 
  1318.1,1244.75 1319.65,1244.75 1321.2,1244.75 1322.75,1244.75 1324.3,1244.75 1325.85,1244.75 1327.4,1244.75 1328.95,1244.75 1330.5,1244.75 1332.05,1244.75 
  1333.6,1244.75 1335.15,1244.75 1336.7,1244.75 1338.25,1244.75 1339.8,1244.75 1341.35,1244.75 1342.9,1244.75 1344.45,1244.75 1346,1244.75 1347.55,1244.75 
  1349.1,1244.75 1350.65,1244.75 1352.2,1244.75 1353.75,1244.75 1355.3,1244.75 1356.85,1244.75 1358.4,1244.75 1359.95,1244.75 1361.5,1244.75 1363.05,1244.75 
  1364.6,1244.75 1366.15,1244.75 1367.7,1244.75 1369.25,1244.75 1370.8,1244.75 1372.35,1244.75 1373.9,1244.75 1375.45,1244.75 1377,1244.75 1378.55,1244.75 
  1380.1,1244.75 1381.65,1244.75 1383.2,1244.75 1384.75,219.727 1386.3,1244.75 1387.85,1244.75 1389.4,1244.75 1390.95,1244.75 1392.5,1244.75 1394.05,1244.75 
  1395.6,1244.75 1397.15,1244.75 1398.7,1244.75 1400.25,1244.75 1401.8,1244.75 1403.35,1244.75 1404.9,1244.75 1406.45,1244.75 1408,1244.75 1409.55,1244.75 
  1411.1,1244.75 1412.65,1244.75 1414.2,1244.75 1415.75,1244.75 1417.3,1244.75 1418.85,1244.75 1420.4,1244.75 1421.95,1244.75 1423.5,1244.75 1425.05,1244.75 
  1426.6,1244.75 1428.15,1244.75 1429.7,1244.75 1431.25,1244.75 1432.8,1244.75 1434.35,1244.75 1435.9,1244.75 1437.45,1244.75 1439,1244.75 1440.55,1244.75 
  1442.1,1244.75 1443.65,1244.75 1445.21,1244.75 1446.76,1244.75 1448.31,1244.75 1449.86,1244.75 1451.41,1244.75 1452.96,1244.75 1454.51,1244.75 1456.06,1244.75 
  1457.61,1244.75 1459.16,1244.75 1460.71,1244.75 1462.26,1244.75 1463.81,1244.75 1465.36,1244.75 1466.91,1244.75 1468.46,1244.75 1470.01,1244.75 1471.56,1244.75 
  1473.11,1244.75 1474.66,1244.75 1476.21,1244.75 1477.76,1244.75 1479.31,1244.75 1480.86,1244.75 1482.41,1244.75 1483.96,1244.75 1485.51,1244.75 1487.06,1244.75 
  1488.61,1244.75 1490.16,1244.75 1491.71,1244.75 1493.26,1244.75 1494.81,1244.75 1496.36,1244.75 1497.91,1244.75 1499.46,1244.75 1501.01,1244.75 1502.56,1244.75 
  1504.11,1244.75 1505.66,1244.75 1507.21,1244.75 1508.76,1244.75 1510.31,1244.75 1511.86,1244.75 1513.41,1244.75 1514.96,1244.75 1516.51,1244.75 1518.06,1244.75 
  1519.61,1244.75 1521.16,1244.75 1522.71,1244.75 1524.26,1244.75 1525.81,1244.75 1527.36,1244.75 1528.91,1244.75 1530.46,1244.75 1532.01,1244.75 1533.56,1244.75 
  1535.11,1244.75 1536.66,1244.75 1538.21,1244.75 1539.76,1244.75 1541.31,1244.75 1542.86,1244.75 1544.41,1244.75 1545.96,1244.75 1547.51,1244.75 1549.06,1244.75 
  1550.61,1244.75 1552.16,1244.75 1553.71,1244.75 1555.26,1244.75 1556.81,1244.75 1558.36,1244.75 1559.91,1244.75 1561.46,1244.75 1563.01,1244.75 1564.56,1244.75 
  1566.11,1244.75 1567.66,1244.75 1569.21,1244.75 1570.76,1244.75 1572.31,1244.75 1573.86,1244.75 1575.41,1244.75 1576.96,1244.75 1578.51,1244.75 1580.06,1244.75 
  1581.61,1244.75 1583.16,1244.75 1584.71,1244.75 1586.26,1244.75 1587.81,1244.75 1589.36,1244.75 1590.91,1244.75 1592.46,1244.75 1594.01,1244.75 1595.56,1244.75 
  1597.11,1244.75 1598.66,1244.75 1600.21,1244.75 1601.76,1244.75 1603.31,1244.75 1604.86,1244.75 1606.41,1244.75 1607.96,1244.75 1609.51,1244.75 1611.06,1244.75 
  1612.61,1244.75 1614.16,1244.75 1615.71,1244.75 1617.26,1244.75 1618.81,1244.75 1620.36,1244.75 1621.91,1244.75 1623.46,1244.75 1625.01,1244.75 1626.56,1244.75 
  1628.11,1244.75 1629.66,1244.75 1631.21,1244.75 1632.76,1244.75 1634.31,1244.75 1635.86,1244.75 1637.41,1244.75 1638.96,1244.75 1640.51,1244.75 1642.06,1244.75 
  1643.61,1244.75 1645.16,1244.75 1646.71,1244.75 1648.26,1244.75 1649.81,1244.75 1651.36,1244.75 1652.91,1244.75 1654.46,1244.75 1656.01,1244.75 1657.56,1244.75 
  1659.11,1244.75 1660.66,1244.75 1662.21,1244.75 1663.76,1244.75 1665.31,1244.75 1666.86,1244.75 1668.41,1244.75 1669.96,1244.75 1671.51,1244.75 1673.06,1244.75 
  1674.61,1244.75 1676.16,1244.75 1677.71,1244.75 1679.26,1244.75 1680.81,1244.75 1682.36,1244.75 1683.91,1244.75 1685.46,1244.75 1687.01,1244.75 1688.56,1244.75 
  1690.11,1244.75 1691.66,1244.75 1693.21,1244.75 1694.76,1244.75 1696.31,1244.75 1697.86,1244.75 1699.41,1244.75 1700.96,1244.75 1702.51,1244.75 1704.06,1244.75 
  1705.61,1244.75 1707.16,1244.75 1708.71,1244.75 1710.26,1244.75 1711.81,1244.75 1713.36,1244.75 1714.91,1244.75 1716.46,1244.75 1718.01,1244.75 1719.56,1244.75 
  1721.11,1244.75 1722.66,1244.75 1724.21,1244.75 1725.76,1244.75 1727.31,1244.75 1728.87,1244.75 1730.42,1244.75 1731.97,1244.75 1733.52,1244.75 1735.07,1244.75 
  1736.62,1244.75 1738.17,1244.75 1739.72,1244.75 1741.27,1244.75 1742.82,1244.75 1744.37,1244.75 1745.92,1244.75 1747.47,1244.75 1749.02,1244.75 1750.57,1244.75 
  1752.12,1244.75 1753.67,1244.75 1755.22,1244.75 1756.77,1244.75 1758.32,1244.75 1759.87,1244.75 1761.42,1244.75 1762.97,1244.75 1764.52,1244.75 1766.07,1244.75 
  1767.62,1244.75 1769.17,1244.75 1770.72,1244.75 1772.27,1244.75 1773.82,1244.75 1775.37,1244.75 1776.92,1244.75 1778.47,1244.75 1780.02,1244.75 1781.57,1244.75 
  1783.12,1244.75 1784.67,1244.75 1786.22,1244.75 1787.77,1244.75 1789.32,1244.75 1790.87,1244.75 1792.42,1244.75 1793.97,1244.75 1795.52,1244.75 1797.07,1244.75 
  1798.62,1244.75 1800.17,1244.75 1801.72,1244.75 1803.27,1244.75 1804.82,1244.75 1806.37,1244.75 1807.92,1244.75 1809.47,1244.75 1811.02,1244.75 1812.57,1244.75 
  1814.12,1244.75 1815.67,1244.75 1817.22,1244.75 1818.77,1244.75 1820.32,1244.75 1821.87,1244.75 1823.42,1244.75 1824.97,1244.75 1826.52,1244.75 1828.07,1244.75 
  1829.62,1244.75 1831.17,1244.75 1832.72,1244.75 1834.27,1244.75 1835.82,1244.75 1837.37,1244.75 1838.92,1244.75 1840.47,1244.75 1842.02,1244.75 1843.57,1244.75 
  1845.12,1244.75 1846.67,1244.75 1848.22,1244.75 1849.77,1244.75 1851.32,1244.75 1852.87,1244.75 1854.42,1244.75 1855.97,1244.75 1857.52,1244.75 1859.07,1244.75 
  1860.62,1244.75 1862.17,1244.75 1863.72,1244.75 1865.27,1244.75 1866.82,1244.75 1868.37,1244.75 1869.92,1244.75 1871.47,1244.75 1873.02,1244.75 1874.57,1244.75 
  1876.12,1244.75 1877.67,1244.75 1879.22,1244.75 1880.77,1244.75 1882.32,1244.75 1883.87,1244.75 1885.42,1244.75 1886.97,1244.75 1888.52,1244.75 1890.07,1244.75 
  1891.62,1244.75 1893.17,1244.75 1894.72,1244.75 1896.27,1244.75 1897.82,1244.75 1899.37,1244.75 1900.92,1244.75 1902.47,1244.75 1904.02,1244.75 1905.57,1244.75 
  1907.12,1244.75 1908.67,1244.75 1910.22,1244.75 1911.77,1244.75 1913.32,1244.75 1914.87,1244.75 1916.42,1244.75 1917.97,1244.75 1919.52,1244.75 1921.07,1244.75 
  1922.62,1244.75 1924.17,1244.75 1925.72,1244.75 1927.27,1244.75 1928.82,1244.75 1930.37,1244.75 1931.92,1244.75 1933.47,1244.75 1935.02,1244.75 1936.57,1244.75 
  1938.12,1244.75 1939.67,1244.75 1941.22,1244.75 1942.77,1244.75 1944.32,1244.75 1945.87,1244.75 1947.42,1244.75 1948.97,1244.75 1950.52,1244.75 1952.07,1244.75 
  1953.62,1244.75 1955.17,1244.75 1956.72,1244.75 1958.27,1244.75 1959.82,1244.75 1961.37,1244.75 1962.92,1244.75 1964.47,1244.75 1966.02,1244.75 1967.57,1244.75 
  1969.12,1244.75 1970.67,1244.75 1972.22,1244.75 1973.77,1244.75 1975.32,1244.75 1976.87,1244.75 1978.42,1244.75 1979.97,1244.75 1981.52,1244.75 1983.07,1244.75 
  1984.62,1244.75 1986.17,1244.75 1987.72,1244.75 1989.27,1244.75 1990.82,1244.75 1992.37,1244.75 1993.92,1244.75 1995.47,1244.75 1997.02,1244.75 1998.57,1244.75 
  2000.12,1244.75 2001.67,1244.75 2003.22,1244.75 2004.77,1244.75 2006.32,1244.75 2007.87,1244.75 2009.42,1244.75 2010.97,1244.75 2012.52,1244.75 2014.08,1244.75 
  2015.63,1244.75 2017.18,1244.75 2018.73,1244.75 2020.28,1244.75 2021.83,1244.75 2023.38,1244.75 2024.93,1244.75 2026.48,1244.75 2028.03,1244.75 2029.58,1244.75 
  2031.13,1244.75 2032.68,1244.75 2034.23,1244.75 2035.78,1244.75 2037.33,1244.75 2038.88,1244.75 2040.43,1244.75 2041.98,1244.75 2043.53,1244.75 2045.08,1244.75 
  2046.63,1244.75 2048.18,1244.75 2049.73,1244.75 2051.28,1244.75 2052.83,1244.75 2054.38,1244.75 2055.93,1244.75 2057.48,1244.75 2059.03,1244.75 2060.58,1244.75 
  2062.13,1244.75 2063.68,1244.75 2065.23,1244.75 2066.78,1244.75 2068.33,1244.75 2069.88,1244.75 2071.43,1244.75 2072.98,1244.75 2074.53,1244.75 2076.08,1244.75 
  2077.63,1244.75 2079.18,1244.75 2080.73,1244.75 2082.28,1244.75 2083.83,1244.75 2085.38,1244.75 2086.93,1244.75 2088.48,1244.75 2090.03,1244.75 2091.58,1244.75 
  2093.13,1244.75 2094.68,1244.75 2096.23,1244.75 2097.78,1244.75 2099.33,1244.75 2100.88,1244.75 2102.43,1244.75 2103.98,1244.75 2105.53,1244.75 2107.08,1244.75 
  2108.63,1244.75 2110.18,1244.75 2111.73,1244.75 2113.28,1244.75 2114.83,1244.75 2116.38,1244.75 2117.93,1244.75 2119.48,1244.75 2121.03,1244.75 2122.58,1244.75 
  2124.13,1244.75 2125.68,1244.75 2127.23,1244.75 2128.78,1244.75 2130.33,1244.75 2131.88,1244.75 2133.43,1244.75 2134.98,1244.75 2136.53,1244.75 2138.08,1244.75 
  2139.63,1244.75 2141.18,1244.75 2142.73,1244.75 2144.28,1244.75 2145.83,1244.75 2147.38,1244.75 2148.93,1244.75 2150.48,1244.75 2152.03,1244.75 2153.58,1244.75 
  2155.13,1244.75 2156.68,1244.75 2158.23,1244.75 2159.78,1244.75 2161.33,1244.75 2162.88,1244.75 2164.43,1244.75 2165.98,1244.75 2167.53,1244.75 2169.08,1244.75 
  2170.63,1244.75 2172.18,1244.75 2173.73,1244.75 2175.28,1244.75 2176.83,1244.75 2178.38,1244.75 2179.93,1244.75 2181.48,1244.75 2183.03,1244.75 2184.58,1244.75 
  2186.13,1244.75 2187.68,1244.75 2189.23,1244.75 2190.78,1244.75 2192.33,1244.75 2193.88,1244.75 2195.43,1244.75 2196.98,1244.75 2198.53,1244.75 2200.08,1244.75 
  2201.63,1244.75 2203.18,1244.75 2204.73,1244.75 2206.28,1244.75 2207.83,1244.75 2209.38,1244.75 2210.93,1244.75 2212.48,1244.75 2214.03,1244.75 2215.58,1244.75 
  2217.13,1244.75 2218.68,1244.75 2220.23,1244.75 2221.78,1244.75 2223.33,1244.75 2224.88,1244.75 2226.43,1244.75 2227.98,1244.75 2229.53,1244.75 2231.08,1244.75 
  2232.63,1244.75 2234.18,1244.75 2235.73,1244.75 2237.28,1244.75 2238.83,1244.75 2240.38,1244.75 2241.93,1244.75 2243.48,1244.75 2245.03,1244.75 2246.58,1244.75 
  2248.13,1244.75 2249.68,1244.75 2251.23,1244.75 2252.78,1244.75 2254.33,1244.75 2255.88,1244.75 2257.43,1244.75 2258.98,1244.75 2260.53,1244.75 2262.08,1244.75 
  2263.63,1244.75 2265.18,1244.75 2266.73,1244.75 2268.28,1244.75 2269.83,1244.75 2271.38,1244.75 2272.93,1244.75 2274.48,1244.75 2276.03,1244.75 2277.58,1244.75 
  2279.13,1244.75 2280.68,1244.75 2282.23,1244.75 2283.78,1244.75 2285.33,1244.75 2286.88,1244.75 2288.43,1244.75 2289.98,1244.75 2291.53,1244.75 2293.08,1244.75 
  2294.63,1244.75 2296.18,1244.75 2297.74,1244.75 2299.29,1244.75 2300.84,1244.75 2302.39,1244.75 2303.94,1244.75 2305.49,1244.75 2307.04,1244.75 2308.59,1244.75 
  2310.14,1244.75 2311.69,1244.75 2313.24,1244.75 2314.79,1244.75 2316.34,1244.75 2317.89,1244.75 2319.44,1244.75 2320.99,1244.75 2322.54,1244.75 2324.09,1244.75 
  2325.64,1244.75 2327.19,1244.75 2328.74,1244.75 2330.29,1244.75 2331.84,1244.75 2333.39,1244.75 2334.94,1244.75 2336.49,1244.75 2338.04,1244.75 2339.59,1244.75 
  2341.14,1244.75 2342.69,1244.75 2344.24,1244.75 2345.79,1244.75 2347.34,1244.75 2348.89,1244.75 2350.44,1244.75 2351.99,1244.75 2353.54,1244.75 2355.09,1244.75 
  2356.64,1244.75 2358.19,1244.75 2359.74,1244.75 2361.29,1244.75 2362.84,1244.75 2364.39,1244.75 2365.94,1244.75 2367.49,1244.75 2369.04,1244.75 2370.59,1244.75 
  2372.14,1244.75 2373.69,1244.75 2375.24,1244.75 2376.79,1244.75 2378.34,1244.75 2379.89,1244.75 2381.44,1244.75 2382.99,1244.75 2384.54,1244.75 2386.09,1244.75 
  2387.64,1244.75 2389.19,1244.75 2390.74,1244.75 2392.29,1244.75 2393.84,1244.75 2395.39,1244.75 2396.94,1244.75 2398.49,1244.75 2400.04,1244.75 2401.59,1244.75 
  2403.14,1244.75 2404.69,1244.75 2406.24,1244.75 2407.79,1244.75 2409.34,1244.75 2410.89,1244.75 2412.44,1244.75 2413.99,1244.75 2415.54,1244.75 2417.09,1244.75 
  2418.64,1244.75 2420.19,1244.75 2421.74,1244.75 2423.29,1244.75 2424.84,1244.75 2426.39,1244.75 2427.94,1244.75 2429.49,1244.75 2431.04,1244.75 2432.59,1244.75 
  2434.14,1244.75 2435.69,1244.75 2437.24,1244.75 2438.79,1244.75 2440.34,1244.75 2441.89,1244.75 2443.44,1244.75 2444.99,1244.75 2446.54,1244.75 2448.09,1244.75 
  2449.64,1244.75 2451.19,1244.75 2452.74,1244.75 2454.29,1244.75 2455.84,1244.75 2457.39,1244.75 2458.94,1244.75 2460.49,1244.75 2462.04,1244.75 2463.59,1244.75 
  2465.14,1244.75 2466.69,1244.75 2468.24,1244.75 2469.79,1244.75 2471.34,1244.75 2472.89,1244.75 2474.44,1244.75 2475.99,1244.75 2477.54,1244.75 2479.09,1244.75 
  2480.64,1244.75 2482.19,1244.75 2483.74,1244.75 2485.29,1244.75 2486.84,1244.75 2488.39,1244.75 2489.94,1244.75 2491.49,1244.75 2493.04,1244.75 2494.59,1244.75 
  2496.14,1244.75 2497.69,1244.75 2499.24,1244.75 2500.79,1244.75 2502.34,1244.75 2503.89,1244.75 2505.44,1244.75 2506.99,1244.75 2508.54,1244.75 2510.09,1244.75 
  2511.64,1244.75 2513.19,1244.75 2514.74,1244.75 2516.29,1244.75 2517.84,1244.75 2519.39,1244.75 2520.94,1244.75 2522.49,1244.75 2524.04,1244.75 2525.59,1244.75 
  2527.14,1244.75 2528.69,1244.75 2530.24,1244.75 2531.79,1244.75 2533.34,1244.75 2534.89,1244.75 2536.44,1244.75 2537.99,1244.75 2539.54,1244.75 2541.09,1244.75 
  2542.64,1244.75 2544.19,1244.75 2545.74,1244.75 2547.29,1244.75 2548.84,1244.75 2550.39,1244.75 2551.94,1244.75 2553.49,1244.75 2555.04,1244.75 2556.59,1244.75 
  2558.14,1244.75 2559.69,1244.75 2561.24,1244.75 2562.79,1244.75 2564.34,1244.75 2565.89,1244.75 2567.44,1244.75 2568.99,1244.75 2570.54,1244.75 2572.09,1244.75 
  2573.64,1244.75 2575.19,1244.75 2576.74,1244.75 2578.29,1244.75 2579.84,1244.75 2581.4,1244.75 2582.95,1244.75 2584.5,1244.75 2586.05,1244.75 2587.6,1244.75 
  2589.15,1244.75 2590.7,1244.75 2592.25,1244.75 2593.8,1244.75 2595.35,1244.75 2596.9,1244.75 2598.45,1244.75 2600,1244.75 2601.55,1244.75 2603.1,1244.75 
  2604.65,1244.75 2606.2,1244.75 2607.75,1244.75 2609.3,1244.75 2610.85,1244.75 2612.4,1244.75 2613.95,1244.75 2615.5,1244.75 2617.05,1244.75 2618.6,1244.75 
  2620.15,1244.75 2621.7,1244.75 2623.25,1244.75 2624.8,1244.75 2626.35,1244.75 2627.9,1244.75 2629.45,1244.75 2631,1244.75 2632.55,1244.75 2634.1,1244.75 
  2635.65,1244.75 2637.2,1244.75 2638.75,1244.75 2640.3,1244.75 2641.85,1244.75 2643.4,1244.75 2644.95,1244.75 2646.5,1244.75 2648.05,1244.75 2649.6,1244.75 
  2651.15,1244.75 2652.7,1244.75 2654.25,1244.75 2655.8,1244.75 2657.35,1244.75 2658.9,1244.75 2660.45,1244.75 2662,1244.75 2663.55,1244.75 2665.1,1244.75 
  2666.65,1244.75 2668.2,1244.75 2669.75,1244.75 2671.3,1244.75 2672.85,1244.75 2674.4,1244.75 2675.95,1244.75 2677.5,1244.75 2679.05,1244.75 2680.6,1244.75 
  2682.15,1244.75 2683.7,1244.75 2685.25,1244.75 2686.8,1244.75 2688.35,1244.75 2689.9,1244.75 2691.45,1244.75 2693,1244.75 2694.55,1244.75 2696.1,1244.75 
  2697.65,1244.75 2699.2,1244.75 2700.75,1244.75 2702.3,1244.75 2703.85,1244.75 2705.4,1244.75 2706.95,1244.75 2708.5,1244.75 2710.05,1244.75 2711.6,1244.75 
  2713.15,1244.75 2714.7,1244.75 2716.25,1244.75 2717.8,1244.75 2719.35,1244.75 2720.9,1244.75 2722.45,1244.75 2724,1244.75 2725.55,1244.75 2727.1,1244.75 
  2728.65,1244.75 2730.2,1244.75 2731.75,1244.75 2733.3,1244.75 2734.85,1244.75 2736.4,1244.75 2737.95,1244.75 2739.5,1244.75 2741.05,1244.75 2742.6,1244.75 
  2744.15,1244.75 2745.7,1244.75 2747.25,1244.75 2748.8,1244.75 2750.35,1244.75 2751.9,1244.75 2753.45,1244.75 2755,1244.75 2756.55,1244.75 2758.1,1244.75 
  2759.65,1244.75 2761.2,1244.75 2762.75,1244.75 2764.3,1244.75 2765.85,1244.75 2767.4,1244.75 2768.95,1244.75 2770.5,1244.75 2772.05,1244.75 2773.6,1244.75 
  2775.15,1244.75 2776.7,1244.75 2778.25,1244.75 2779.8,1244.75 2781.35,1244.75 2782.9,1244.75 2784.45,1244.75 2786,1244.75 2787.55,1244.75 2789.1,1244.75 
  2790.65,1244.75 2792.2,1244.75 2793.75,1244.75 2795.3,1244.75 2796.85,1244.75 2798.4,1244.75 2799.95,1244.75 2801.5,1244.75 2803.05,1244.75 2804.6,1244.75 
  2806.15,1244.75 2807.7,1244.75 2809.25,1244.75 2810.8,1244.75 2812.35,1244.75 2813.9,1244.75 2815.45,1244.75 2817,1244.75 2818.55,1244.75 2820.1,1244.75 
  2821.65,1244.75 2823.2,1244.75 2824.75,1244.75 2826.3,1244.75 2827.85,1244.75 2829.4,1244.75 2830.95,1244.75 2832.5,1244.75 2834.05,1244.75 2835.6,1244.75 
  2837.15,1244.75 2838.7,1244.75 2840.25,1244.75 2841.8,1244.75 2843.35,1244.75 2844.9,1244.75 2846.45,1244.75 2848,1244.75 2849.55,1244.75 2851.1,1244.75 
  2852.65,1244.75 2854.2,1244.75 2855.75,1244.75 2857.3,1244.75 2858.85,1244.75 2860.4,1244.75 2861.95,1244.75 2863.5,1244.75 2865.05,1244.75 2866.61,1244.75 
  2868.16,1244.75 2869.71,1244.75 2871.26,1244.75 2872.81,1244.75 2874.36,1244.75 2875.91,1244.75 2877.46,1244.75 2879.01,1244.75 2880.56,1244.75 2882.11,1244.75 
  2883.66,1244.75 2885.21,1244.75 2886.76,1244.75 2888.31,1244.75 2889.86,1244.75 2891.41,1244.75 2892.96,1244.75 2894.51,1244.75 2896.06,1244.75 2897.61,1244.75 
  2899.16,1244.75 2900.71,1244.75 2902.26,1244.75 2903.81,1244.75 2905.36,1244.75 2906.91,1244.75 2908.46,1244.75 2910.01,1244.75 2911.56,1244.75 2913.11,1244.75 
  2914.66,1244.75 2916.21,1244.75 2917.76,1244.75 2919.31,1244.75 2920.86,1244.75 2922.41,1244.75 2923.96,1244.75 2925.51,1244.75 2927.06,1244.75 2928.61,1244.75 
  2930.16,1244.75 2931.71,1244.75 2933.26,1244.75 2934.81,1244.75 2936.36,1244.75 2937.91,1244.75 2939.46,1244.75 2941.01,1244.75 2942.56,1244.75 2944.11,1244.75 
  
  "/>
</svg>
