<?xml version="1.0" encoding="utf-8"?>
<svg xmlns="http://www.w3.org/2000/svg" xmlns:xlink="http://www.w3.org/1999/xlink" width="800" height="400" viewBox="0 0 3200 1600">
<defs>
  <clipPath id="clip7000">
    <rect x="0" y="0" width="3200" height="1600"/>
  </clipPath>
</defs>
<polygon clip-path="url(#clip7000)" points="
0,1600 3200,1600 3200,0 0,0 
  " fill="#ffffff" fill-rule="evenodd" fill-opacity="1"/>
<defs>
  <clipPath id="clip7001">
    <rect x="640" y="0" width="2241" height="1600"/>
  </clipPath>
</defs>
<polygon clip-path="url(#clip7000)" points="
600.755,1275.5 3011.02,1275.5 3011.02,188.976 600.755,188.976 
  " fill="#ffffff" fill-rule="evenodd" fill-opacity="1"/>
<defs>
  <clipPath id="clip7002">
    <rect x="600" y="188" width="2411" height="1088"/>
  </clipPath>
</defs>
<polyline clip-path="url(#clip7002)" style="stroke:#000000; stroke-width:2; stroke-opacity:0.1; fill:none" points="
  656.267,1275.5 656.267,188.976 
  "/>
<polyline clip-path="url(#clip7002)" style="stroke:#000000; stroke-width:2; stroke-opacity:0.1; fill:none" points="
  1291.42,1275.5 1291.42,188.976 
  "/>
<polyline clip-path="url(#clip7002)" style="stroke:#000000; stroke-width:2; stroke-opacity:0.1; fill:none" points="
  1926.57,1275.5 1926.57,188.976 
  "/>
<polyline clip-path="url(#clip7002)" style="stroke:#000000; stroke-width:2; stroke-opacity:0.1; fill:none" points="
  2561.72,1275.5 2561.72,188.976 
  "/>
<polyline clip-path="url(#clip7002)" style="stroke:#000000; stroke-width:2; stroke-opacity:0.1; fill:none" points="
  600.755,1244.75 3011.02,1244.75 
  "/>
<polyline clip-path="url(#clip7002)" style="stroke:#000000; stroke-width:2; stroke-opacity:0.1; fill:none" points="
  600.755,988.496 3011.02,988.496 
  "/>
<polyline clip-path="url(#clip7002)" style="stroke:#000000; stroke-width:2; stroke-opacity:0.1; fill:none" points="
  600.755,732.24 3011.02,732.24 
  "/>
<polyline clip-path="url(#clip7002)" style="stroke:#000000; stroke-width:2; stroke-opacity:0.1; fill:none" points="
  600.755,475.983 3011.02,475.983 
  "/>
<polyline clip-path="url(#clip7002)" style="stroke:#000000; stroke-width:2; stroke-opacity:0.1; fill:none" points="
  600.755,219.727 3011.02,219.727 
  "/>
<polyline clip-path="url(#clip7000)" style="stroke:#000000; stroke-width:4; stroke-opacity:1; fill:none" points="
  600.755,1275.5 3011.02,1275.5 
  "/>
<polyline clip-path="url(#clip7000)" style="stroke:#000000; stroke-width:4; stroke-opacity:1; fill:none" points="
  600.755,1275.5 600.755,188.976 
  "/>
<polyline clip-path="url(#clip7000)" style="stroke:#000000; stroke-width:4; stroke-opacity:1; fill:none" points="
  656.267,1275.5 656.267,1259.21 
  "/>
<polyline clip-path="url(#clip7000)" style="stroke:#000000; stroke-width:4; stroke-opacity:1; fill:none" points="
  1291.42,1275.5 1291.42,1259.21 
  "/>
<polyline clip-path="url(#clip7000)" style="stroke:#000000; stroke-width:4; stroke-opacity:1; fill:none" points="
  1926.57,1275.5 1926.57,1259.21 
  "/>
<polyline clip-path="url(#clip7000)" style="stroke:#000000; stroke-width:4; stroke-opacity:1; fill:none" points="
  2561.72,1275.5 2561.72,1259.21 
  "/>
<polyline clip-path="url(#clip7000)" style="stroke:#000000; stroke-width:4; stroke-opacity:1; fill:none" points="
  600.755,1244.75 636.909,1244.75 
  "/>
<polyline clip-path="url(#clip7000)" style="stroke:#000000; stroke-width:4; stroke-opacity:1; fill:none" points="
  600.755,988.496 636.909,988.496 
  "/>
<polyline clip-path="url(#clip7000)" style="stroke:#000000; stroke-width:4; stroke-opacity:1; fill:none" points="
  600.755,732.24 636.909,732.24 
  "/>
<polyline clip-path="url(#clip7000)" style="stroke:#000000; stroke-width:4; stroke-opacity:1; fill:none" points="
  600.755,475.983 636.909,475.983 
  "/>
<polyline clip-path="url(#clip7000)" style="stroke:#000000; stroke-width:4; stroke-opacity:1; fill:none" points="
  600.755,219.727 636.909,219.727 
  "/>
<g clip-path="url(#clip7000)">
<text style="fill:#000000; fill-opacity:1; font-family:Arial,Helvetica Neue,Helvetica,sans-serif; font-size:71px; text-anchor:middle;" transform="rotate(0, 656.267, 1353.9)" x="656.267" y="1353.9">0</text>
</g>
<g clip-path="url(#clip7000)">
<text style="fill:#000000; fill-opacity:1; font-family:Arial,Helvetica Neue,Helvetica,sans-serif; font-size:71px; text-anchor:middle;" transform="rotate(0, 1291.42, 1353.9)" x="1291.42" y="1353.9">50</text>
</g>
<g clip-path="url(#clip7000)">
<text style="fill:#000000; fill-opacity:1; font-family:Arial,Helvetica Neue,Helvetica,sans-serif; font-size:71px; text-anchor:middle;" transform="rotate(0, 1926.57, 1353.9)" x="1926.57" y="1353.9">100</text>
</g>
<g clip-path="url(#clip7000)">
<text style="fill:#000000; fill-opacity:1; font-family:Arial,Helvetica Neue,Helvetica,sans-serif; font-size:71px; text-anchor:middle;" transform="rotate(0, 2561.72, 1353.9)" x="2561.72" y="1353.9">150</text>
</g>
<g clip-path="url(#clip7000)">
<text style="fill:#000000; fill-opacity:1; font-family:Arial,Helvetica Neue,Helvetica,sans-serif; font-size:71px; text-anchor:end;" transform="rotate(0, 568.755, 1270.75)" x="568.755" y="1270.75">0.00</text>
</g>
<g clip-path="url(#clip7000)">
<text style="fill:#000000; fill-opacity:1; font-family:Arial,Helvetica Neue,Helvetica,sans-serif; font-size:71px; text-anchor:end;" transform="rotate(0, 568.755, 1014.5)" x="568.755" y="1014.5">0.25</text>
</g>
<g clip-path="url(#clip7000)">
<text style="fill:#000000; fill-opacity:1; font-family:Arial,Helvetica Neue,Helvetica,sans-serif; font-size:71px; text-anchor:end;" transform="rotate(0, 568.755, 758.24)" x="568.755" y="758.24">0.50</text>
</g>
<g clip-path="url(#clip7000)">
<text style="fill:#000000; fill-opacity:1; font-family:Arial,Helvetica Neue,Helvetica,sans-serif; font-size:71px; text-anchor:end;" transform="rotate(0, 568.755, 501.983)" x="568.755" y="501.983">0.75</text>
</g>
<g clip-path="url(#clip7000)">
<text style="fill:#000000; fill-opacity:1; font-family:Arial,Helvetica Neue,Helvetica,sans-serif; font-size:71px; text-anchor:end;" transform="rotate(0, 568.755, 245.727)" x="568.755" y="245.727">1.00</text>
</g>
<g clip-path="url(#clip7000)">
<text style="fill:#000000; fill-opacity:1; font-family:Arial,Helvetica Neue,Helvetica,sans-serif; font-size:95px; text-anchor:middle;" transform="rotate(0, 1805.89, 1469.75)" x="1805.89" y="1469.75">Time (min.)</text>
</g>
<g clip-path="url(#clip7000)">
<text style="fill:#000000; fill-opacity:1; font-family:Arial,Helvetica Neue,Helvetica,sans-serif; font-size:95px; text-anchor:middle;" transform="rotate(-90, 378.453, 732.24)" x="378.453" y="732.24">Prob of wait (NS)</text>
</g>
<polyline clip-path="url(#clip7002)" style="stroke:#009af9; stroke-width:4; stroke-opacity:1; fill:none" points="
  668.97,1244.75 681.673,1244.75 694.376,1244.75 707.079,1244.75 719.782,1244.75 732.485,1244.75 745.188,1244.75 757.891,1244.75 770.594,1244.75 783.297,1244.75 
  796,1244.75 808.703,1244.75 821.406,1244.75 834.109,1244.75 846.812,1244.75 859.515,1244.75 872.218,1244.75 884.921,1244.75 897.624,1244.75 910.327,1244.75 
  923.03,1244.75 935.733,1244.75 948.436,1244.75 961.139,1244.75 973.842,1244.75 986.545,1244.75 999.248,1244.75 1011.95,1244.75 1024.65,1244.75 1037.36,1244.75 
  1050.06,1244.75 1062.76,1244.75 1075.47,1244.75 1088.17,1244.75 1100.87,1244.75 1113.58,1244.75 1126.28,1244.75 1138.98,1244.75 1151.68,1244.75 1164.39,1244.75 
  1177.09,1244.75 1189.79,1244.75 1202.5,1244.75 1215.2,1244.75 1227.9,1244.75 1240.61,1244.75 1253.31,1244.75 1266.01,1244.75 1278.71,1244.75 1291.42,1244.75 
  1304.12,1244.75 1316.82,1244.75 1329.53,1244.75 1342.23,1244.75 1354.93,1244.75 1367.64,1244.75 1380.34,1244.75 1393.04,1244.75 1405.74,1244.75 1418.45,1244.74 
  1431.15,1244.74 1443.85,1244.74 1456.56,1244.73 1469.26,1244.73 1481.96,1244.72 1494.67,1244.72 1507.37,1244.71 1520.07,1244.7 1532.77,1244.68 1545.48,1244.67 
  1558.18,1244.65 1570.88,1244.63 1583.59,1244.6 1596.29,1244.57 1608.99,1244.53 1621.7,1244.49 1634.4,1244.43 1647.1,1244.37 1659.8,1244.3 1672.51,1244.22 
  1685.21,1244.12 1697.91,1244.01 1710.62,1243.88 1723.32,1243.73 1736.02,1243.56 1748.73,1243.36 1761.43,1243.14 1774.13,1242.89 1786.83,1242.6 1799.54,1242.27 
  1812.24,1241.9 1824.94,1241.49 1837.65,1241.02 1850.35,1240.5 1863.05,1239.91 1875.76,1239.26 1888.46,1238.53 1901.16,1237.72 1913.86,1236.83 1926.57,1235.83 
  1939.27,1234.74 1951.97,1233.53 1964.68,1232.2 1977.38,1230.74 1990.08,1229.14 2002.79,1227.39 2015.49,1225.48 2028.19,1223.4 2040.89,1221.13 2053.6,1218.67 
  2066.3,1216 2079,1213.11 2091.71,1209.98 2104.41,1206.61 2117.11,1202.97 2129.82,1199.06 2142.52,1194.85 2155.22,1190.34 2167.92,1185.51 2180.63,1180.33 
  2193.33,1174.8 2206.03,1168.9 2218.74,1162.61 2231.44,1155.91 2244.14,1148.79 2256.85,1141.23 2269.55,1133.2 2282.25,1124.7 2294.96,1115.7 2307.66,1106.19 
  2320.36,1096.14 2333.06,1085.54 2345.77,1074.37 2358.47,1062.61 2371.17,1050.23 2383.88,1037.23 2396.58,1023.58 2409.28,1009.26 2421.99,994.251 2434.69,978.538 
  2447.39,962.099 2460.09,944.916 2472.8,926.968 2485.5,908.237 2498.2,888.705 2510.91,868.352 2523.61,847.159 2536.31,825.108 2549.02,802.181 2561.72,778.36 
  2574.42,753.625 2587.12,727.96 2599.83,701.346 2612.53,673.767 2625.23,645.204 2637.94,615.64 2650.64,585.059 2663.34,553.444 2676.05,520.778 2688.75,487.045 
  2701.45,452.23 2714.15,416.316 2726.86,379.296 2739.56,341.214 2752.26,302.487 2764.97,265.481 2777.67,237.312 2790.37,224.024 2803.08,220.465 2815.78,219.831 
  2828.48,219.74 2841.18,219.729 2853.89,219.727 2866.59,219.727 2879.29,219.727 2892,219.727 2904.7,219.727 2917.4,219.727 2930.11,219.727 2942.81,219.727 
  
  "/>
<polyline clip-path="url(#clip7002)" style="stroke:#e26f46; stroke-width:4; stroke-opacity:1; fill:none" points="
  668.97,1244.75 681.673,1244.75 694.376,1244.75 707.079,1244.75 719.782,1244.75 732.485,1244.75 745.188,1244.75 757.891,1244.75 770.594,1244.75 783.297,1244.75 
  796,1244.75 808.703,1244.75 821.406,1244.75 834.109,1244.75 846.812,1244.75 859.515,1244.75 872.218,1244.75 884.921,1244.75 897.624,1244.75 910.327,1244.75 
  923.03,1244.75 935.733,1244.75 948.436,1244.75 961.139,1244.75 973.842,1244.75 986.545,1244.75 999.248,1244.75 1011.95,1244.75 1024.65,1244.75 1037.36,1244.75 
  1050.06,1244.75 1062.76,1244.75 1075.47,1244.75 1088.17,1244.75 1100.87,1244.75 1113.58,1244.75 1126.28,1244.75 1138.98,1244.75 1151.68,1244.75 1164.39,1244.75 
  1177.09,1244.75 1189.79,1244.75 1202.5,1244.75 1215.2,1244.75 1227.9,1244.75 1240.61,1244.75 1253.31,1244.75 1266.01,1244.75 1278.71,1244.75 1291.42,1244.75 
  1304.12,1244.75 1316.82,1244.75 1329.53,1244.75 1342.23,1244.75 1354.93,1244.75 1367.64,1244.75 1380.34,1244.75 1393.04,1244.75 1405.74,1244.75 1418.45,1244.74 
  1431.15,1244.74 1443.85,1244.74 1456.56,1244.74 1469.26,1244.73 1481.96,1244.73 1494.67,1244.72 1507.37,1244.71 1520.07,1244.7 1532.77,1244.69 1545.48,1244.67 
  1558.18,1244.66 1570.88,1244.64 1583.59,1244.61 1596.29,1244.58 1608.99,1244.54 1621.7,1244.5 1634.4,1244.45 1647.1,1244.4 1659.8,1244.33 1672.51,1244.25 
  1685.21,1244.16 1697.91,1244.05 1710.62,1243.93 1723.32,1243.78 1736.02,1243.62 1748.73,1243.44 1761.43,1243.22 1774.13,1242.98 1786.83,1242.71 1799.54,1242.39 
  1812.24,1242.04 1824.94,1241.64 1837.65,1241.2 1850.35,1240.69 1863.05,1240.13 1875.76,1239.51 1888.46,1238.81 1901.16,1238.03 1913.86,1237.17 1926.57,1236.21 
  1939.27,1235.16 1951.97,1233.99 1964.68,1232.71 1977.38,1231.31 1990.08,1229.77 2002.79,1228.08 2015.49,1226.24 2028.19,1224.23 2040.89,1222.05 2053.6,1219.67 
  2066.3,1217.1 2079,1214.31 2091.71,1211.29 2104.41,1208.04 2117.11,1204.53 2129.82,1200.76 2142.52,1196.7 2155.22,1192.35 2167.92,1187.69 2180.63,1182.7 
  2193.33,1177.38 2206.03,1171.69 2218.74,1165.64 2231.44,1159.2 2244.14,1152.35 2256.85,1145.08 2269.55,1137.38 2282.25,1129.23 2294.96,1120.61 2307.66,1111.51 
  2320.36,1101.91 2333.06,1091.79 2345.77,1081.15 2358.47,1069.96 2371.17,1058.21 2383.88,1045.89 2396.58,1032.99 2409.28,1019.5 2421.99,1005.39 2434.69,990.673 
  2447.39,975.328 2460.09,959.352 2472.8,942.739 2485.5,925.486 2498.2,907.593 2510.91,889.06 2523.61,869.893 2536.31,850.1 2549.02,829.693 2561.72,808.688 
  2574.42,787.108 2587.12,764.977 2599.83,742.33 2612.53,719.206 2625.23,695.652 2637.94,671.722 2650.64,647.48 2663.34,622.998 2676.05,598.358 2688.75,573.651 
  2701.45,548.978 2714.15,524.449 2726.86,500.184 2739.56,476.306 2752.26,452.949 2764.97,430.247 2777.67,408.336 2790.37,387.348 2803.08,367.41 2815.78,348.64 
  2828.48,331.14 2841.18,314.994 2853.89,300.264 2866.59,286.989 2879.29,275.178 2892,264.814 2904.7,255.855 2917.4,248.23 2930.11,241.848 2942.81,236.599 
  
  "/>
</svg>
