<?xml version="1.0" encoding="utf-8"?>
<svg xmlns="http://www.w3.org/2000/svg" xmlns:xlink="http://www.w3.org/1999/xlink" width="800" height="400" viewBox="0 0 3200 1600">
<defs>
  <clipPath id="clip4000">
    <rect x="0" y="0" width="3200" height="1600"/>
  </clipPath>
</defs>
<polygon clip-path="url(#clip4000)" points="
0,1600 3200,1600 3200,0 0,0 
  " fill="#ffffff" fill-rule="evenodd" fill-opacity="1"/>
<defs>
  <clipPath id="clip4001">
    <rect x="640" y="0" width="2241" height="1600"/>
  </clipPath>
</defs>
<polygon clip-path="url(#clip4000)" points="
600.755,1275.5 3011.02,1275.5 3011.02,188.976 600.755,188.976 
  " fill="#ffffff" fill-rule="evenodd" fill-opacity="1"/>
<defs>
  <clipPath id="clip4002">
    <rect x="600" y="188" width="2411" height="1088"/>
  </clipPath>
</defs>
<polyline clip-path="url(#clip4002)" style="stroke:#000000; stroke-width:2; stroke-opacity:0.1; fill:none" points="
  656.267,1275.5 656.267,188.976 
  "/>
<polyline clip-path="url(#clip4002)" style="stroke:#000000; stroke-width:2; stroke-opacity:0.1; fill:none" points="
  1291.42,1275.5 1291.42,188.976 
  "/>
<polyline clip-path="url(#clip4002)" style="stroke:#000000; stroke-width:2; stroke-opacity:0.1; fill:none" points="
  1926.57,1275.5 1926.57,188.976 
  "/>
<polyline clip-path="url(#clip4002)" style="stroke:#000000; stroke-width:2; stroke-opacity:0.1; fill:none" points="
  2561.72,1275.5 2561.72,188.976 
  "/>
<polyline clip-path="url(#clip4002)" style="stroke:#000000; stroke-width:2; stroke-opacity:0.1; fill:none" points="
  600.755,1244.75 3011.02,1244.75 
  "/>
<polyline clip-path="url(#clip4002)" style="stroke:#000000; stroke-width:2; stroke-opacity:0.1; fill:none" points="
  600.755,1009.69 3011.02,1009.69 
  "/>
<polyline clip-path="url(#clip4002)" style="stroke:#000000; stroke-width:2; stroke-opacity:0.1; fill:none" points="
  600.755,774.633 3011.02,774.633 
  "/>
<polyline clip-path="url(#clip4002)" style="stroke:#000000; stroke-width:2; stroke-opacity:0.1; fill:none" points="
  600.755,539.573 3011.02,539.573 
  "/>
<polyline clip-path="url(#clip4002)" style="stroke:#000000; stroke-width:2; stroke-opacity:0.1; fill:none" points="
  600.755,304.514 3011.02,304.514 
  "/>
<polyline clip-path="url(#clip4000)" style="stroke:#000000; stroke-width:4; stroke-opacity:1; fill:none" points="
  600.755,1275.5 3011.02,1275.5 
  "/>
<polyline clip-path="url(#clip4000)" style="stroke:#000000; stroke-width:4; stroke-opacity:1; fill:none" points="
  600.755,1275.5 600.755,188.976 
  "/>
<polyline clip-path="url(#clip4000)" style="stroke:#000000; stroke-width:4; stroke-opacity:1; fill:none" points="
  656.267,1275.5 656.267,1259.21 
  "/>
<polyline clip-path="url(#clip4000)" style="stroke:#000000; stroke-width:4; stroke-opacity:1; fill:none" points="
  1291.42,1275.5 1291.42,1259.21 
  "/>
<polyline clip-path="url(#clip4000)" style="stroke:#000000; stroke-width:4; stroke-opacity:1; fill:none" points="
  1926.57,1275.5 1926.57,1259.21 
  "/>
<polyline clip-path="url(#clip4000)" style="stroke:#000000; stroke-width:4; stroke-opacity:1; fill:none" points="
  2561.72,1275.5 2561.72,1259.21 
  "/>
<polyline clip-path="url(#clip4000)" style="stroke:#000000; stroke-width:4; stroke-opacity:1; fill:none" points="
  600.755,1244.75 636.909,1244.75 
  "/>
<polyline clip-path="url(#clip4000)" style="stroke:#000000; stroke-width:4; stroke-opacity:1; fill:none" points="
  600.755,1009.69 636.909,1009.69 
  "/>
<polyline clip-path="url(#clip4000)" style="stroke:#000000; stroke-width:4; stroke-opacity:1; fill:none" points="
  600.755,774.633 636.909,774.633 
  "/>
<polyline clip-path="url(#clip4000)" style="stroke:#000000; stroke-width:4; stroke-opacity:1; fill:none" points="
  600.755,539.573 636.909,539.573 
  "/>
<polyline clip-path="url(#clip4000)" style="stroke:#000000; stroke-width:4; stroke-opacity:1; fill:none" points="
  600.755,304.514 636.909,304.514 
  "/>
<g clip-path="url(#clip4000)">
<text style="fill:#000000; fill-opacity:1; font-family:Arial,Helvetica Neue,Helvetica,sans-serif; font-size:71px; text-anchor:middle;" transform="rotate(0, 656.267, 1353.9)" x="656.267" y="1353.9">0</text>
</g>
<g clip-path="url(#clip4000)">
<text style="fill:#000000; fill-opacity:1; font-family:Arial,Helvetica Neue,Helvetica,sans-serif; font-size:71px; text-anchor:middle;" transform="rotate(0, 1291.42, 1353.9)" x="1291.42" y="1353.9">50</text>
</g>
<g clip-path="url(#clip4000)">
<text style="fill:#000000; fill-opacity:1; font-family:Arial,Helvetica Neue,Helvetica,sans-serif; font-size:71px; text-anchor:middle;" transform="rotate(0, 1926.57, 1353.9)" x="1926.57" y="1353.9">100</text>
</g>
<g clip-path="url(#clip4000)">
<text style="fill:#000000; fill-opacity:1; font-family:Arial,Helvetica Neue,Helvetica,sans-serif; font-size:71px; text-anchor:middle;" transform="rotate(0, 2561.72, 1353.9)" x="2561.72" y="1353.9">150</text>
</g>
<g clip-path="url(#clip4000)">
<text style="fill:#000000; fill-opacity:1; font-family:Arial,Helvetica Neue,Helvetica,sans-serif; font-size:71px; text-anchor:end;" transform="rotate(0, 568.755, 1270.75)" x="568.755" y="1270.75">0.00</text>
</g>
<g clip-path="url(#clip4000)">
<text style="fill:#000000; fill-opacity:1; font-family:Arial,Helvetica Neue,Helvetica,sans-serif; font-size:71px; text-anchor:end;" transform="rotate(0, 568.755, 1035.69)" x="568.755" y="1035.69">0.25</text>
</g>
<g clip-path="url(#clip4000)">
<text style="fill:#000000; fill-opacity:1; font-family:Arial,Helvetica Neue,Helvetica,sans-serif; font-size:71px; text-anchor:end;" transform="rotate(0, 568.755, 800.633)" x="568.755" y="800.633">0.50</text>
</g>
<g clip-path="url(#clip4000)">
<text style="fill:#000000; fill-opacity:1; font-family:Arial,Helvetica Neue,Helvetica,sans-serif; font-size:71px; text-anchor:end;" transform="rotate(0, 568.755, 565.573)" x="568.755" y="565.573">0.75</text>
</g>
<g clip-path="url(#clip4000)">
<text style="fill:#000000; fill-opacity:1; font-family:Arial,Helvetica Neue,Helvetica,sans-serif; font-size:71px; text-anchor:end;" transform="rotate(0, 568.755, 330.514)" x="568.755" y="330.514">1.00</text>
</g>
<g clip-path="url(#clip4000)">
<text style="fill:#000000; fill-opacity:1; font-family:Arial,Helvetica Neue,Helvetica,sans-serif; font-size:95px; text-anchor:middle;" transform="rotate(0, 1805.89, 1469.75)" x="1805.89" y="1469.75">Time (min.)</text>
</g>
<g clip-path="url(#clip4000)">
<text style="fill:#000000; fill-opacity:1; font-family:Arial,Helvetica Neue,Helvetica,sans-serif; font-size:95px; text-anchor:middle;" transform="rotate(-90, 378.453, 732.24)" x="378.453" y="732.24">Expected Waiting Time</text>
</g>
<polyline clip-path="url(#clip4002)" style="stroke:#009af9; stroke-width:4; stroke-opacity:1; fill:none" points="
  668.97,1244.75 681.673,1244.75 694.376,1244.75 707.079,1244.75 719.782,1244.75 732.485,1244.75 745.188,1244.75 757.891,1244.75 770.594,1244.75 783.297,1244.75 
  796,1244.75 808.703,1244.75 821.406,1244.75 834.109,1244.75 846.812,1244.75 859.515,1244.75 872.218,1244.75 884.921,1244.75 897.624,1244.75 910.327,1244.75 
  923.03,1244.75 935.733,1244.75 948.436,1244.75 961.139,1244.75 973.842,1244.75 986.545,1244.75 999.248,1244.75 1011.95,1244.75 1024.65,1244.75 1037.36,1244.75 
  1050.06,1244.75 1062.76,1244.75 1075.47,1244.75 1088.17,1244.75 1100.87,1244.75 1113.58,1244.75 1126.28,1244.75 1138.98,1244.75 1151.68,1244.75 1164.39,1244.75 
  1177.09,1244.75 1189.79,1244.75 1202.5,1244.75 1215.2,1244.75 1227.9,1244.75 1240.61,1244.75 1253.31,1244.75 1266.01,1244.75 1278.71,1244.75 1291.42,1244.75 
  1304.12,1244.75 1316.82,1244.75 1329.53,1244.75 1342.23,1244.75 1354.93,1244.75 1367.64,1244.75 1380.34,1244.75 1393.04,1244.75 1405.74,1244.75 1418.45,1244.75 
  1431.15,1244.75 1443.85,1244.75 1456.56,1244.75 1469.26,1244.75 1481.96,1244.75 1494.67,1244.75 1507.37,1244.75 1520.07,1244.75 1532.77,1244.75 1545.48,1244.75 
  1558.18,1244.75 1570.88,1244.75 1583.59,1244.75 1596.29,1244.75 1608.99,1244.75 1621.7,1244.75 1634.4,1244.75 1647.1,1244.75 1659.8,1244.75 1672.51,1244.75 
  1685.21,1244.75 1697.91,1244.75 1710.62,1244.75 1723.32,1244.75 1736.02,1244.75 1748.73,1244.75 1761.43,1244.75 1774.13,1244.75 1786.83,1244.75 1799.54,1244.75 
  1812.24,1244.75 1824.94,1244.75 1837.65,1244.75 1850.35,1244.75 1863.05,1244.74 1875.76,1244.74 1888.46,1244.74 1901.16,1244.74 1913.86,1244.73 1926.57,1244.73 
  1939.27,1244.72 1951.97,1244.71 1964.68,1244.7 1977.38,1244.69 1990.08,1244.68 2002.79,1244.67 2015.49,1244.65 2028.19,1244.63 2040.89,1244.6 2053.6,1244.57 
  2066.3,1244.53 2079,1244.49 2091.71,1244.44 2104.41,1244.38 2117.11,1244.31 2129.82,1244.23 2142.52,1244.13 2155.22,1244.02 2167.92,1243.89 2180.63,1243.74 
  2193.33,1243.57 2206.03,1243.37 2218.74,1243.13 2231.44,1242.87 2244.14,1242.56 2256.85,1242.2 2269.55,1241.8 2282.25,1241.33 2294.96,1240.81 2307.66,1240.2 
  2320.36,1239.52 2333.06,1238.74 2345.77,1237.85 2358.47,1236.85 2371.17,1235.72 2383.88,1234.45 2396.58,1233.01 2409.28,1231.39 2421.99,1229.57 2434.69,1227.54 
  2447.39,1225.25 2460.09,1222.7 2472.8,1219.85 2485.5,1216.67 2498.2,1213.12 2510.91,1209.18 2523.61,1204.8 2536.31,1199.93 2549.02,1194.54 2561.72,1188.57 
  2574.42,1181.96 2587.12,1174.66 2599.83,1166.61 2612.53,1157.73 2625.23,1147.96 2637.94,1137.21 2650.64,1125.39 2663.34,1112.41 2676.05,1098.18 2688.75,1082.58 
  2701.45,1065.5 2714.15,1046.81 2726.86,1026.38 2739.56,1004.07 2752.26,979.721 2764.97,953.165 2777.67,924.224 2790.37,892.706 2803.08,858.403 2815.78,821.094 
  2828.48,780.538 2841.18,736.48 2853.89,688.641 2866.59,636.724 2879.29,580.407 2892,519.345 2904.7,453.165 2917.4,381.464 2930.11,303.808 2942.81,219.727 
  
  "/>
<polyline clip-path="url(#clip4002)" style="stroke:#e26f46; stroke-width:4; stroke-opacity:1; fill:none" points="
  668.97,1244.75 681.673,1244.75 694.376,1244.75 707.079,1244.75 719.782,1244.75 732.485,1244.75 745.188,1244.75 757.891,1244.75 770.594,1244.75 783.297,1244.75 
  796,1244.75 808.703,1244.75 821.406,1244.75 834.109,1244.75 846.812,1244.75 859.515,1244.75 872.218,1244.75 884.921,1244.75 897.624,1244.75 910.327,1244.75 
  923.03,1244.75 935.733,1244.75 948.436,1244.75 961.139,1244.75 973.842,1244.75 986.545,1244.75 999.248,1244.75 1011.95,1244.75 1024.65,1244.75 1037.36,1244.75 
  1050.06,1244.75 1062.76,1244.75 1075.47,1244.75 1088.17,1244.75 1100.87,1244.75 1113.58,1244.75 1126.28,1244.75 1138.98,1244.75 1151.68,1244.75 1164.39,1244.75 
  1177.09,1244.75 1189.79,1244.75 1202.5,1244.75 1215.2,1244.75 1227.9,1244.75 1240.61,1244.75 1253.31,1244.75 1266.01,1244.75 1278.71,1244.75 1291.42,1244.75 
  1304.12,1244.75 1316.82,1244.75 1329.53,1244.75 1342.23,1244.75 1354.93,1244.75 1367.64,1244.75 1380.34,1244.75 1393.04,1244.75 1405.74,1244.75 1418.45,1244.75 
  1431.15,1244.75 1443.85,1244.75 1456.56,1244.75 1469.26,1244.75 1481.96,1244.75 1494.67,1244.75 1507.37,1244.75 1520.07,1244.75 1532.77,1244.75 1545.48,1244.75 
  1558.18,1244.75 1570.88,1244.75 1583.59,1244.75 1596.29,1244.75 1608.99,1244.75 1621.7,1244.75 1634.4,1244.75 1647.1,1244.75 1659.8,1244.75 1672.51,1244.75 
  1685.21,1244.75 1697.91,1244.75 1710.62,1244.75 1723.32,1244.75 1736.02,1244.75 1748.73,1244.75 1761.43,1244.75 1774.13,1244.75 1786.83,1244.75 1799.54,1244.75 
  1812.24,1244.75 1824.94,1244.75 1837.65,1244.75 1850.35,1244.75 1863.05,1244.74 1875.76,1244.74 1888.46,1244.74 1901.16,1244.74 1913.86,1244.73 1926.57,1244.73 
  1939.27,1244.72 1951.97,1244.72 1964.68,1244.71 1977.38,1244.7 1990.08,1244.69 2002.79,1244.67 2015.49,1244.65 2028.19,1244.63 2040.89,1244.61 2053.6,1244.58 
  2066.3,1244.55 2079,1244.51 2091.71,1244.46 2104.41,1244.4 2117.11,1244.34 2129.82,1244.26 2142.52,1244.17 2155.22,1244.06 2167.92,1243.94 2180.63,1243.8 
  2193.33,1243.63 2206.03,1243.44 2218.74,1243.22 2231.44,1242.96 2244.14,1242.67 2256.85,1242.33 2269.55,1241.95 2282.25,1241.5 2294.96,1241 2307.66,1240.42 
  2320.36,1239.77 2333.06,1239.02 2345.77,1238.18 2358.47,1237.22 2371.17,1236.14 2383.88,1234.92 2396.58,1233.55 2409.28,1232 2421.99,1230.26 2434.69,1228.31 
  2447.39,1226.12 2460.09,1223.67 2472.8,1220.94 2485.5,1217.88 2498.2,1214.48 2510.91,1210.7 2523.61,1206.49 2536.31,1201.82 2549.02,1196.65 2561.72,1190.91 
  2574.42,1184.57 2587.12,1177.56 2599.83,1169.83 2612.53,1161.3 2625.23,1151.91 2637.94,1141.58 2650.64,1130.23 2663.34,1117.77 2676.05,1104.1 2688.75,1089.12 
  2701.45,1072.72 2714.15,1054.78 2726.86,1035.18 2739.56,1013.77 2752.26,990.418 2764.97,964.955 2777.67,937.215 2790.37,907.018 2803.08,874.168 2815.78,838.456 
  2828.48,799.661 2841.18,757.54 2853.89,711.836 2866.59,662.273 2879.29,608.554 2892,550.36 2904.7,487.35 2917.4,419.155 2930.11,345.38 2942.81,265.601 
  
  "/>
<polygon clip-path="url(#clip4000)" points="
696.755,1083.5 1113.07,1083.5 1113.07,902.063 696.755,902.063 
  " fill="#ffffff" fill-rule="evenodd" fill-opacity="1"/>
<polyline clip-path="url(#clip4000)" style="stroke:#000000; stroke-width:4; stroke-opacity:1; fill:none" points="
  696.755,1083.5 1113.07,1083.5 1113.07,902.063 696.755,902.063 696.755,1083.5 
  "/>
<polyline clip-path="url(#clip4000)" style="stroke:#009af9; stroke-width:4; stroke-opacity:1; fill:none" points="
  728.755,962.543 920.755,962.543 
  "/>
<g clip-path="url(#clip4000)">
<text style="fill:#000000; fill-opacity:1; font-family:Arial,Helvetica Neue,Helvetica,sans-serif; font-size:48px; text-anchor:start;" transform="rotate(0, 952.755, 980.043)" x="952.755" y="980.043">PSA</text>
</g>
<polyline clip-path="url(#clip4000)" style="stroke:#e26f46; stroke-width:4; stroke-opacity:1; fill:none" points="
  728.755,1023.02 920.755,1023.02 
  "/>
<g clip-path="url(#clip4000)">
<text style="fill:#000000; fill-opacity:1; font-family:Arial,Helvetica Neue,Helvetica,sans-serif; font-size:48px; text-anchor:start;" transform="rotate(0, 952.755, 1040.52)" x="952.755" y="1040.52">NS</text>
</g>
</svg>
