<?xml version="1.0" encoding="utf-8"?>
<svg xmlns="http://www.w3.org/2000/svg" xmlns:xlink="http://www.w3.org/1999/xlink" width="800" height="400" viewBox="0 0 3200 1600">
<defs>
  <clipPath id="clip9500">
    <rect x="0" y="0" width="3200" height="1600"/>
  </clipPath>
</defs>
<polygon clip-path="url(#clip9500)" points="
0,1600 3200,1600 3200,0 0,0 
  " fill="#ffffff" fill-rule="evenodd" fill-opacity="1"/>
<defs>
  <clipPath id="clip9501">
    <rect x="640" y="0" width="2241" height="1600"/>
  </clipPath>
</defs>
<polygon clip-path="url(#clip9500)" points="
560.611,1275.5 3011.02,1275.5 3011.02,188.976 560.611,188.976 
  " fill="#ffffff" fill-rule="evenodd" fill-opacity="1"/>
<defs>
  <clipPath id="clip9502">
    <rect x="560" y="188" width="2451" height="1088"/>
  </clipPath>
</defs>
<polyline clip-path="url(#clip9502)" style="stroke:#000000; stroke-width:2; stroke-opacity:0.1; fill:none" points="
  617.048,1275.5 617.048,188.976 
  "/>
<polyline clip-path="url(#clip9502)" style="stroke:#000000; stroke-width:2; stroke-opacity:0.1; fill:none" points="
  1262.78,1275.5 1262.78,188.976 
  "/>
<polyline clip-path="url(#clip9502)" style="stroke:#000000; stroke-width:2; stroke-opacity:0.1; fill:none" points="
  1908.51,1275.5 1908.51,188.976 
  "/>
<polyline clip-path="url(#clip9502)" style="stroke:#000000; stroke-width:2; stroke-opacity:0.1; fill:none" points="
  2554.23,1275.5 2554.23,188.976 
  "/>
<polyline clip-path="url(#clip9502)" style="stroke:#000000; stroke-width:2; stroke-opacity:0.1; fill:none" points="
  560.611,1244.75 3011.02,1244.75 
  "/>
<polyline clip-path="url(#clip9502)" style="stroke:#000000; stroke-width:2; stroke-opacity:0.1; fill:none" points="
  560.611,996.83 3011.02,996.83 
  "/>
<polyline clip-path="url(#clip9502)" style="stroke:#000000; stroke-width:2; stroke-opacity:0.1; fill:none" points="
  560.611,748.908 3011.02,748.908 
  "/>
<polyline clip-path="url(#clip9502)" style="stroke:#000000; stroke-width:2; stroke-opacity:0.1; fill:none" points="
  560.611,500.986 3011.02,500.986 
  "/>
<polyline clip-path="url(#clip9502)" style="stroke:#000000; stroke-width:2; stroke-opacity:0.1; fill:none" points="
  560.611,253.064 3011.02,253.064 
  "/>
<polyline clip-path="url(#clip9500)" style="stroke:#000000; stroke-width:4; stroke-opacity:1; fill:none" points="
  560.611,1275.5 3011.02,1275.5 
  "/>
<polyline clip-path="url(#clip9500)" style="stroke:#000000; stroke-width:4; stroke-opacity:1; fill:none" points="
  560.611,1275.5 560.611,188.976 
  "/>
<polyline clip-path="url(#clip9500)" style="stroke:#000000; stroke-width:4; stroke-opacity:1; fill:none" points="
  617.048,1275.5 617.048,1259.21 
  "/>
<polyline clip-path="url(#clip9500)" style="stroke:#000000; stroke-width:4; stroke-opacity:1; fill:none" points="
  1262.78,1275.5 1262.78,1259.21 
  "/>
<polyline clip-path="url(#clip9500)" style="stroke:#000000; stroke-width:4; stroke-opacity:1; fill:none" points="
  1908.51,1275.5 1908.51,1259.21 
  "/>
<polyline clip-path="url(#clip9500)" style="stroke:#000000; stroke-width:4; stroke-opacity:1; fill:none" points="
  2554.23,1275.5 2554.23,1259.21 
  "/>
<polyline clip-path="url(#clip9500)" style="stroke:#000000; stroke-width:4; stroke-opacity:1; fill:none" points="
  560.611,1244.75 597.367,1244.75 
  "/>
<polyline clip-path="url(#clip9500)" style="stroke:#000000; stroke-width:4; stroke-opacity:1; fill:none" points="
  560.611,996.83 597.367,996.83 
  "/>
<polyline clip-path="url(#clip9500)" style="stroke:#000000; stroke-width:4; stroke-opacity:1; fill:none" points="
  560.611,748.908 597.367,748.908 
  "/>
<polyline clip-path="url(#clip9500)" style="stroke:#000000; stroke-width:4; stroke-opacity:1; fill:none" points="
  560.611,500.986 597.367,500.986 
  "/>
<polyline clip-path="url(#clip9500)" style="stroke:#000000; stroke-width:4; stroke-opacity:1; fill:none" points="
  560.611,253.064 597.367,253.064 
  "/>
<g clip-path="url(#clip9500)">
<text style="fill:#000000; fill-opacity:1; font-family:Arial,Helvetica Neue,Helvetica,sans-serif; font-size:71px; text-anchor:middle;" transform="rotate(0, 617.048, 1353.9)" x="617.048" y="1353.9">0</text>
</g>
<g clip-path="url(#clip9500)">
<text style="fill:#000000; fill-opacity:1; font-family:Arial,Helvetica Neue,Helvetica,sans-serif; font-size:71px; text-anchor:middle;" transform="rotate(0, 1262.78, 1353.9)" x="1262.78" y="1353.9">50</text>
</g>
<g clip-path="url(#clip9500)">
<text style="fill:#000000; fill-opacity:1; font-family:Arial,Helvetica Neue,Helvetica,sans-serif; font-size:71px; text-anchor:middle;" transform="rotate(0, 1908.51, 1353.9)" x="1908.51" y="1353.9">100</text>
</g>
<g clip-path="url(#clip9500)">
<text style="fill:#000000; fill-opacity:1; font-family:Arial,Helvetica Neue,Helvetica,sans-serif; font-size:71px; text-anchor:middle;" transform="rotate(0, 2554.23, 1353.9)" x="2554.23" y="1353.9">150</text>
</g>
<g clip-path="url(#clip9500)">
<text style="fill:#000000; fill-opacity:1; font-family:Arial,Helvetica Neue,Helvetica,sans-serif; font-size:71px; text-anchor:end;" transform="rotate(0, 528.611, 1270.75)" x="528.611" y="1270.75">0.0</text>
</g>
<g clip-path="url(#clip9500)">
<text style="fill:#000000; fill-opacity:1; font-family:Arial,Helvetica Neue,Helvetica,sans-serif; font-size:71px; text-anchor:end;" transform="rotate(0, 528.611, 1022.83)" x="528.611" y="1022.83">0.2</text>
</g>
<g clip-path="url(#clip9500)">
<text style="fill:#000000; fill-opacity:1; font-family:Arial,Helvetica Neue,Helvetica,sans-serif; font-size:71px; text-anchor:end;" transform="rotate(0, 528.611, 774.908)" x="528.611" y="774.908">0.4</text>
</g>
<g clip-path="url(#clip9500)">
<text style="fill:#000000; fill-opacity:1; font-family:Arial,Helvetica Neue,Helvetica,sans-serif; font-size:71px; text-anchor:end;" transform="rotate(0, 528.611, 526.986)" x="528.611" y="526.986">0.6</text>
</g>
<g clip-path="url(#clip9500)">
<text style="fill:#000000; fill-opacity:1; font-family:Arial,Helvetica Neue,Helvetica,sans-serif; font-size:71px; text-anchor:end;" transform="rotate(0, 528.611, 279.064)" x="528.611" y="279.064">0.8</text>
</g>
<g clip-path="url(#clip9500)">
<text style="fill:#000000; fill-opacity:1; font-family:Arial,Helvetica Neue,Helvetica,sans-serif; font-size:95px; text-anchor:middle;" transform="rotate(0, 1785.82, 1469.75)" x="1785.82" y="1469.75">t</text>
</g>
<g clip-path="url(#clip9500)">
<text style="fill:#000000; fill-opacity:1; font-family:Arial,Helvetica Neue,Helvetica,sans-serif; font-size:95px; text-anchor:middle;" transform="rotate(-90, 378.453, 732.24)" x="378.453" y="732.24">prob_wait: (PSA-NS)/NS</text>
</g>
<polyline clip-path="url(#clip9502)" style="stroke:#009af9; stroke-width:4; stroke-opacity:1; fill:none" points="
  629.963,1244.75 642.877,219.727 655.792,222.394 668.706,283.365 681.621,340.448 694.535,391.75 707.45,437.994 720.365,479.879 733.279,517.986 746.194,552.796 
  759.108,584.716 772.023,614.087 784.938,641.198 797.852,666.299 810.767,689.603 823.681,711.294 836.596,731.532 849.51,750.458 862.425,768.194 875.34,784.848 
  888.254,800.515 901.169,815.279 914.083,829.216 926.998,842.393 939.912,854.87 952.827,866.701 965.742,877.934 978.656,888.613 991.571,898.779 1004.49,908.466 
  1017.4,917.708 1030.31,926.534 1043.23,934.972 1056.14,943.046 1069.06,950.78 1081.97,958.194 1094.89,965.308 1107.8,972.138 1120.72,978.703 1133.63,985.017 
  1146.55,991.093 1159.46,996.946 1172.37,1002.59 1185.29,1008.03 1198.2,1013.27 1211.12,1018.34 1224.03,1023.24 1236.95,1027.97 1249.86,1032.55 1262.78,1036.98 
  1275.69,1041.27 1288.61,1045.43 1301.52,1049.46 1314.44,1053.36 1327.35,1057.15 1340.26,1060.83 1353.18,1064.4 1366.09,1067.87 1379.01,1071.23 1391.92,1074.51 
  1404.84,1077.69 1417.75,1080.79 1430.67,1083.81 1443.58,1086.74 1456.5,1089.6 1469.41,1092.38 1482.32,1095.1 1495.24,1097.74 1508.15,1100.32 1521.07,1102.83 
  1533.98,1105.28 1546.9,1107.68 1559.81,1110.01 1572.73,1112.29 1585.64,1114.52 1598.56,1116.7 1611.47,1118.82 1624.39,1120.9 1637.3,1122.93 1650.21,1124.92 
  1663.13,1126.86 1676.04,1128.76 1688.96,1130.62 1701.87,1132.43 1714.79,1134.21 1727.7,1135.95 1740.62,1137.66 1753.53,1139.33 1766.45,1140.97 1779.36,1142.57 
  1792.27,1144.14 1805.19,1145.68 1818.1,1147.18 1831.02,1148.66 1843.93,1150.11 1856.85,1151.53 1869.76,1152.92 1882.68,1154.29 1895.59,1155.63 1908.51,1156.94 
  1921.42,1158.23 1934.34,1159.49 1947.25,1160.73 1960.16,1161.95 1973.08,1163.14 1985.99,1164.32 1998.91,1165.47 2011.82,1166.6 2024.74,1167.7 2037.65,1168.79 
  2050.57,1169.86 2063.48,1170.91 2076.4,1171.94 2089.31,1172.95 2102.22,1173.94 2115.14,1174.91 2128.05,1175.87 2140.97,1176.81 2153.88,1177.73 2166.8,1178.63 
  2179.71,1179.52 2192.63,1180.39 2205.54,1181.25 2218.46,1182.09 2231.37,1182.91 2244.29,1183.72 2257.2,1184.52 2270.11,1185.29 2283.03,1186.06 2295.94,1186.81 
  2308.86,1187.54 2321.77,1188.26 2334.69,1188.96 2347.6,1189.66 2360.52,1190.33 2373.43,1191 2386.35,1191.65 2399.26,1192.28 2412.17,1192.9 2425.09,1193.51 
  2438,1194.11 2450.92,1194.69 2463.83,1195.26 2476.75,1195.81 2489.66,1196.35 2502.58,1196.88 2515.49,1197.39 2528.41,1197.89 2541.32,1198.38 2554.23,1198.85 
  2567.15,1199.31 2580.06,1199.76 2592.98,1200.19 2605.89,1200.6 2618.81,1201.01 2631.72,1201.4 2644.64,1201.77 2657.55,1202.13 2670.47,1202.48 2683.38,1202.81 
  2696.3,1203.13 2709.21,1203.43 2722.12,1203.71 2735.04,1203.98 2747.95,1204.23 2760.87,1204.47 2773.78,1204.69 2786.7,1204.89 2799.61,1205.08 2812.53,1205.25 
  2825.44,1205.39 2838.36,1205.52 2851.27,1205.63 2864.18,1205.72 2877.1,1205.79 2890.01,1205.83 2902.93,1205.86 2915.84,1205.86 2928.76,1205.83 2941.67,1205.78 
  
  "/>
</svg>
