<?xml version="1.0" encoding="utf-8"?>
<svg xmlns="http://www.w3.org/2000/svg" xmlns:xlink="http://www.w3.org/1999/xlink" width="800" height="400" viewBox="0 0 3200 1600">
<defs>
  <clipPath id="clip6100">
    <rect x="0" y="0" width="3200" height="1600"/>
  </clipPath>
</defs>
<polygon clip-path="url(#clip6100)" points="
0,1600 3200,1600 3200,0 0,0 
  " fill="#ffffff" fill-rule="evenodd" fill-opacity="1"/>
<defs>
  <clipPath id="clip6101">
    <rect x="640" y="0" width="2241" height="1600"/>
  </clipPath>
</defs>
<polygon clip-path="url(#clip6100)" points="
560.611,1275.5 3011.02,1275.5 3011.02,188.976 560.611,188.976 
  " fill="#ffffff" fill-rule="evenodd" fill-opacity="1"/>
<defs>
  <clipPath id="clip6102">
    <rect x="560" y="188" width="2451" height="1088"/>
  </clipPath>
</defs>
<polyline clip-path="url(#clip6102)" style="stroke:#000000; stroke-width:2; stroke-opacity:0.1; fill:none" points="
  617.048,1275.5 617.048,188.976 
  "/>
<polyline clip-path="url(#clip6102)" style="stroke:#000000; stroke-width:2; stroke-opacity:0.1; fill:none" points="
  1262.78,1275.5 1262.78,188.976 
  "/>
<polyline clip-path="url(#clip6102)" style="stroke:#000000; stroke-width:2; stroke-opacity:0.1; fill:none" points="
  1908.51,1275.5 1908.51,188.976 
  "/>
<polyline clip-path="url(#clip6102)" style="stroke:#000000; stroke-width:2; stroke-opacity:0.1; fill:none" points="
  2554.23,1275.5 2554.23,188.976 
  "/>
<polyline clip-path="url(#clip6102)" style="stroke:#000000; stroke-width:2; stroke-opacity:0.1; fill:none" points="
  560.611,1244.75 3011.02,1244.75 
  "/>
<polyline clip-path="url(#clip6102)" style="stroke:#000000; stroke-width:2; stroke-opacity:0.1; fill:none" points="
  560.611,1079.06 3011.02,1079.06 
  "/>
<polyline clip-path="url(#clip6102)" style="stroke:#000000; stroke-width:2; stroke-opacity:0.1; fill:none" points="
  560.611,913.373 3011.02,913.373 
  "/>
<polyline clip-path="url(#clip6102)" style="stroke:#000000; stroke-width:2; stroke-opacity:0.1; fill:none" points="
  560.611,747.683 3011.02,747.683 
  "/>
<polyline clip-path="url(#clip6102)" style="stroke:#000000; stroke-width:2; stroke-opacity:0.1; fill:none" points="
  560.611,581.994 3011.02,581.994 
  "/>
<polyline clip-path="url(#clip6102)" style="stroke:#000000; stroke-width:2; stroke-opacity:0.1; fill:none" points="
  560.611,416.304 3011.02,416.304 
  "/>
<polyline clip-path="url(#clip6102)" style="stroke:#000000; stroke-width:2; stroke-opacity:0.1; fill:none" points="
  560.611,250.614 3011.02,250.614 
  "/>
<polyline clip-path="url(#clip6100)" style="stroke:#000000; stroke-width:4; stroke-opacity:1; fill:none" points="
  560.611,1275.5 3011.02,1275.5 
  "/>
<polyline clip-path="url(#clip6100)" style="stroke:#000000; stroke-width:4; stroke-opacity:1; fill:none" points="
  560.611,1275.5 560.611,188.976 
  "/>
<polyline clip-path="url(#clip6100)" style="stroke:#000000; stroke-width:4; stroke-opacity:1; fill:none" points="
  617.048,1275.5 617.048,1259.21 
  "/>
<polyline clip-path="url(#clip6100)" style="stroke:#000000; stroke-width:4; stroke-opacity:1; fill:none" points="
  1262.78,1275.5 1262.78,1259.21 
  "/>
<polyline clip-path="url(#clip6100)" style="stroke:#000000; stroke-width:4; stroke-opacity:1; fill:none" points="
  1908.51,1275.5 1908.51,1259.21 
  "/>
<polyline clip-path="url(#clip6100)" style="stroke:#000000; stroke-width:4; stroke-opacity:1; fill:none" points="
  2554.23,1275.5 2554.23,1259.21 
  "/>
<polyline clip-path="url(#clip6100)" style="stroke:#000000; stroke-width:4; stroke-opacity:1; fill:none" points="
  560.611,1244.75 597.367,1244.75 
  "/>
<polyline clip-path="url(#clip6100)" style="stroke:#000000; stroke-width:4; stroke-opacity:1; fill:none" points="
  560.611,1079.06 597.367,1079.06 
  "/>
<polyline clip-path="url(#clip6100)" style="stroke:#000000; stroke-width:4; stroke-opacity:1; fill:none" points="
  560.611,913.373 597.367,913.373 
  "/>
<polyline clip-path="url(#clip6100)" style="stroke:#000000; stroke-width:4; stroke-opacity:1; fill:none" points="
  560.611,747.683 597.367,747.683 
  "/>
<polyline clip-path="url(#clip6100)" style="stroke:#000000; stroke-width:4; stroke-opacity:1; fill:none" points="
  560.611,581.994 597.367,581.994 
  "/>
<polyline clip-path="url(#clip6100)" style="stroke:#000000; stroke-width:4; stroke-opacity:1; fill:none" points="
  560.611,416.304 597.367,416.304 
  "/>
<polyline clip-path="url(#clip6100)" style="stroke:#000000; stroke-width:4; stroke-opacity:1; fill:none" points="
  560.611,250.614 597.367,250.614 
  "/>
<g clip-path="url(#clip6100)">
<text style="fill:#000000; fill-opacity:1; font-family:Arial,Helvetica Neue,Helvetica,sans-serif; font-size:71px; text-anchor:middle;" transform="rotate(0, 617.048, 1353.9)" x="617.048" y="1353.9">0</text>
</g>
<g clip-path="url(#clip6100)">
<text style="fill:#000000; fill-opacity:1; font-family:Arial,Helvetica Neue,Helvetica,sans-serif; font-size:71px; text-anchor:middle;" transform="rotate(0, 1262.78, 1353.9)" x="1262.78" y="1353.9">50</text>
</g>
<g clip-path="url(#clip6100)">
<text style="fill:#000000; fill-opacity:1; font-family:Arial,Helvetica Neue,Helvetica,sans-serif; font-size:71px; text-anchor:middle;" transform="rotate(0, 1908.51, 1353.9)" x="1908.51" y="1353.9">100</text>
</g>
<g clip-path="url(#clip6100)">
<text style="fill:#000000; fill-opacity:1; font-family:Arial,Helvetica Neue,Helvetica,sans-serif; font-size:71px; text-anchor:middle;" transform="rotate(0, 2554.23, 1353.9)" x="2554.23" y="1353.9">150</text>
</g>
<g clip-path="url(#clip6100)">
<text style="fill:#000000; fill-opacity:1; font-family:Arial,Helvetica Neue,Helvetica,sans-serif; font-size:71px; text-anchor:end;" transform="rotate(0, 528.611, 1270.75)" x="528.611" y="1270.75">0.0</text>
</g>
<g clip-path="url(#clip6100)">
<text style="fill:#000000; fill-opacity:1; font-family:Arial,Helvetica Neue,Helvetica,sans-serif; font-size:71px; text-anchor:end;" transform="rotate(0, 528.611, 1105.06)" x="528.611" y="1105.06">0.1</text>
</g>
<g clip-path="url(#clip6100)">
<text style="fill:#000000; fill-opacity:1; font-family:Arial,Helvetica Neue,Helvetica,sans-serif; font-size:71px; text-anchor:end;" transform="rotate(0, 528.611, 939.373)" x="528.611" y="939.373">0.2</text>
</g>
<g clip-path="url(#clip6100)">
<text style="fill:#000000; fill-opacity:1; font-family:Arial,Helvetica Neue,Helvetica,sans-serif; font-size:71px; text-anchor:end;" transform="rotate(0, 528.611, 773.683)" x="528.611" y="773.683">0.3</text>
</g>
<g clip-path="url(#clip6100)">
<text style="fill:#000000; fill-opacity:1; font-family:Arial,Helvetica Neue,Helvetica,sans-serif; font-size:71px; text-anchor:end;" transform="rotate(0, 528.611, 607.994)" x="528.611" y="607.994">0.4</text>
</g>
<g clip-path="url(#clip6100)">
<text style="fill:#000000; fill-opacity:1; font-family:Arial,Helvetica Neue,Helvetica,sans-serif; font-size:71px; text-anchor:end;" transform="rotate(0, 528.611, 442.304)" x="528.611" y="442.304">0.5</text>
</g>
<g clip-path="url(#clip6100)">
<text style="fill:#000000; fill-opacity:1; font-family:Arial,Helvetica Neue,Helvetica,sans-serif; font-size:71px; text-anchor:end;" transform="rotate(0, 528.611, 276.614)" x="528.611" y="276.614">0.6</text>
</g>
<g clip-path="url(#clip6100)">
<text style="fill:#000000; fill-opacity:1; font-family:Arial,Helvetica Neue,Helvetica,sans-serif; font-size:95px; text-anchor:middle;" transform="rotate(0, 1785.82, 1469.75)" x="1785.82" y="1469.75">t</text>
</g>
<g clip-path="url(#clip6100)">
<text style="fill:#000000; fill-opacity:1; font-family:Arial,Helvetica Neue,Helvetica,sans-serif; font-size:95px; text-anchor:middle;" transform="rotate(-90, 378.453, 732.24)" x="378.453" y="732.24">prob_wait: (PSA-NS)/NS</text>
</g>
<polyline clip-path="url(#clip6102)" style="stroke:#009af9; stroke-width:4; stroke-opacity:1; fill:none" points="
  629.963,1244.75 642.877,219.727 655.792,223.484 668.706,282.447 681.621,337.872 694.535,387.913 707.45,433.215 720.365,474.41 733.279,512.026 746.194,546.506 
  759.108,578.223 772.023,607.493 784.938,634.586 797.852,659.735 810.767,683.139 823.681,704.973 836.596,725.389 849.51,744.519 862.425,762.48 875.34,779.375 
  888.254,795.295 901.169,810.323 914.083,824.53 926.998,837.981 939.912,850.735 952.827,862.844 965.742,874.355 978.656,885.311 991.571,895.751 1004.49,905.71 
  1017.4,915.221 1030.31,924.312 1043.23,933.011 1056.14,941.342 1069.06,949.327 1081.97,956.988 1094.89,964.344 1107.8,971.412 1120.72,978.209 1133.63,984.749 
  1146.55,991.047 1159.46,997.116 1172.37,1002.97 1185.29,1008.61 1198.2,1014.06 1211.12,1019.33 1224.03,1024.41 1236.95,1029.33 1249.86,1034.09 1262.78,1038.7 
  1275.69,1043.16 1288.61,1047.48 1301.52,1051.67 1314.44,1055.73 1327.35,1059.67 1340.26,1063.5 1353.18,1067.21 1366.09,1070.81 1379.01,1074.32 1391.92,1077.72 
  1404.84,1081.03 1417.75,1084.25 1430.67,1087.38 1443.58,1090.42 1456.5,1093.39 1469.41,1096.27 1482.32,1099.09 1495.24,1101.82 1508.15,1104.49 1521.07,1107.09 
  1533.98,1109.62 1546.9,1112.09 1559.81,1114.5 1572.73,1116.85 1585.64,1119.14 1598.56,1121.38 1611.47,1123.56 1624.39,1125.69 1637.3,1127.77 1650.21,1129.79 
  1663.13,1131.77 1676.04,1133.7 1688.96,1135.59 1701.87,1137.43 1714.79,1139.23 1727.7,1140.98 1740.62,1142.7 1753.53,1144.37 1766.45,1146 1779.36,1147.6 
  1792.27,1149.15 1805.19,1150.67 1818.1,1152.16 1831.02,1153.6 1843.93,1155.01 1856.85,1156.39 1869.76,1157.73 1882.68,1159.04 1895.59,1160.32 1908.51,1161.56 
  1921.42,1162.77 1934.34,1163.95 1947.25,1165.1 1960.16,1166.21 1973.08,1167.3 1985.99,1168.35 1998.91,1169.37 2011.82,1170.36 2024.74,1171.33 2037.65,1172.26 
  2050.57,1173.16 2063.48,1174.03 2076.4,1174.87 2089.31,1175.69 2102.22,1176.47 2115.14,1177.22 2128.05,1177.94 2140.97,1178.63 2153.88,1179.28 2166.8,1179.91 
  2179.71,1180.51 2192.63,1181.07 2205.54,1181.6 2218.46,1182.1 2231.37,1182.56 2244.29,1182.99 2257.2,1183.38 2270.11,1183.74 2283.03,1184.06 2295.94,1184.35 
  2308.86,1184.59 2321.77,1184.8 2334.69,1184.96 2347.6,1185.08 2360.52,1185.16 2373.43,1185.19 2386.35,1185.18 2399.26,1185.11 2412.17,1184.99 2425.09,1184.81 
  2438,1184.58 2450.92,1184.29 2463.83,1183.93 2476.75,1183.5 2489.66,1183.01 2502.58,1182.43 2515.49,1181.77 2528.41,1181.03 2541.32,1180.19 2554.23,1179.25 
  2567.15,1178.21 2580.06,1177.04 2592.98,1175.75 2605.89,1174.33 2618.81,1172.75 2631.72,1171.02 2644.64,1169.11 2657.55,1167.01 2670.47,1164.7 2683.38,1162.16 
  2696.3,1159.37 2709.21,1156.3 2722.12,1152.93 2735.04,1149.23 2747.95,1145.15 2760.87,1140.67 2773.78,1135.74 2786.7,1130.3 2799.61,1124.32 2812.53,1117.72 
  2825.44,1110.45 2838.36,1102.42 2851.27,1093.56 2864.18,1083.78 2877.1,1072.98 2890.01,1061.05 2902.93,1047.87 2915.84,1033.32 2928.76,1017.26 2941.67,999.54 
  
  "/>
</svg>
