<?xml version="1.0" encoding="utf-8"?>
<svg xmlns="http://www.w3.org/2000/svg" xmlns:xlink="http://www.w3.org/1999/xlink" width="800" height="400" viewBox="0 0 3200 1600">
<defs>
  <clipPath id="clip9200">
    <rect x="0" y="0" width="3200" height="1600"/>
  </clipPath>
</defs>
<polygon clip-path="url(#clip9200)" points="
0,1600 3200,1600 3200,0 0,0 
  " fill="#ffffff" fill-rule="evenodd" fill-opacity="1"/>
<defs>
  <clipPath id="clip9201">
    <rect x="640" y="0" width="2241" height="1600"/>
  </clipPath>
</defs>
<polygon clip-path="url(#clip9200)" points="
600.755,1275.5 3011.02,1275.5 3011.02,188.976 600.755,188.976 
  " fill="#ffffff" fill-rule="evenodd" fill-opacity="1"/>
<defs>
  <clipPath id="clip9202">
    <rect x="600" y="188" width="2411" height="1088"/>
  </clipPath>
</defs>
<polyline clip-path="url(#clip9202)" style="stroke:#000000; stroke-width:2; stroke-opacity:0.1; fill:none" points="
  656.267,1275.5 656.267,188.976 
  "/>
<polyline clip-path="url(#clip9202)" style="stroke:#000000; stroke-width:2; stroke-opacity:0.1; fill:none" points="
  1291.42,1275.5 1291.42,188.976 
  "/>
<polyline clip-path="url(#clip9202)" style="stroke:#000000; stroke-width:2; stroke-opacity:0.1; fill:none" points="
  1926.57,1275.5 1926.57,188.976 
  "/>
<polyline clip-path="url(#clip9202)" style="stroke:#000000; stroke-width:2; stroke-opacity:0.1; fill:none" points="
  2561.72,1275.5 2561.72,188.976 
  "/>
<polyline clip-path="url(#clip9202)" style="stroke:#000000; stroke-width:2; stroke-opacity:0.1; fill:none" points="
  600.755,1244.75 3011.02,1244.75 
  "/>
<polyline clip-path="url(#clip9202)" style="stroke:#000000; stroke-width:2; stroke-opacity:0.1; fill:none" points="
  600.755,976.518 3011.02,976.518 
  "/>
<polyline clip-path="url(#clip9202)" style="stroke:#000000; stroke-width:2; stroke-opacity:0.1; fill:none" points="
  600.755,708.284 3011.02,708.284 
  "/>
<polyline clip-path="url(#clip9202)" style="stroke:#000000; stroke-width:2; stroke-opacity:0.1; fill:none" points="
  600.755,440.05 3011.02,440.05 
  "/>
<polyline clip-path="url(#clip9200)" style="stroke:#000000; stroke-width:4; stroke-opacity:1; fill:none" points="
  600.755,1275.5 3011.02,1275.5 
  "/>
<polyline clip-path="url(#clip9200)" style="stroke:#000000; stroke-width:4; stroke-opacity:1; fill:none" points="
  600.755,1275.5 600.755,188.976 
  "/>
<polyline clip-path="url(#clip9200)" style="stroke:#000000; stroke-width:4; stroke-opacity:1; fill:none" points="
  656.267,1275.5 656.267,1259.21 
  "/>
<polyline clip-path="url(#clip9200)" style="stroke:#000000; stroke-width:4; stroke-opacity:1; fill:none" points="
  1291.42,1275.5 1291.42,1259.21 
  "/>
<polyline clip-path="url(#clip9200)" style="stroke:#000000; stroke-width:4; stroke-opacity:1; fill:none" points="
  1926.57,1275.5 1926.57,1259.21 
  "/>
<polyline clip-path="url(#clip9200)" style="stroke:#000000; stroke-width:4; stroke-opacity:1; fill:none" points="
  2561.72,1275.5 2561.72,1259.21 
  "/>
<polyline clip-path="url(#clip9200)" style="stroke:#000000; stroke-width:4; stroke-opacity:1; fill:none" points="
  600.755,1244.75 636.909,1244.75 
  "/>
<polyline clip-path="url(#clip9200)" style="stroke:#000000; stroke-width:4; stroke-opacity:1; fill:none" points="
  600.755,976.518 636.909,976.518 
  "/>
<polyline clip-path="url(#clip9200)" style="stroke:#000000; stroke-width:4; stroke-opacity:1; fill:none" points="
  600.755,708.284 636.909,708.284 
  "/>
<polyline clip-path="url(#clip9200)" style="stroke:#000000; stroke-width:4; stroke-opacity:1; fill:none" points="
  600.755,440.05 636.909,440.05 
  "/>
<g clip-path="url(#clip9200)">
<text style="fill:#000000; fill-opacity:1; font-family:Arial,Helvetica Neue,Helvetica,sans-serif; font-size:71px; text-anchor:middle;" transform="rotate(0, 656.267, 1353.9)" x="656.267" y="1353.9">0</text>
</g>
<g clip-path="url(#clip9200)">
<text style="fill:#000000; fill-opacity:1; font-family:Arial,Helvetica Neue,Helvetica,sans-serif; font-size:71px; text-anchor:middle;" transform="rotate(0, 1291.42, 1353.9)" x="1291.42" y="1353.9">50</text>
</g>
<g clip-path="url(#clip9200)">
<text style="fill:#000000; fill-opacity:1; font-family:Arial,Helvetica Neue,Helvetica,sans-serif; font-size:71px; text-anchor:middle;" transform="rotate(0, 1926.57, 1353.9)" x="1926.57" y="1353.9">100</text>
</g>
<g clip-path="url(#clip9200)">
<text style="fill:#000000; fill-opacity:1; font-family:Arial,Helvetica Neue,Helvetica,sans-serif; font-size:71px; text-anchor:middle;" transform="rotate(0, 2561.72, 1353.9)" x="2561.72" y="1353.9">150</text>
</g>
<g clip-path="url(#clip9200)">
<text style="fill:#000000; fill-opacity:1; font-family:Arial,Helvetica Neue,Helvetica,sans-serif; font-size:71px; text-anchor:end;" transform="rotate(0, 568.755, 1270.75)" x="568.755" y="1270.75">0.00</text>
</g>
<g clip-path="url(#clip9200)">
<text style="fill:#000000; fill-opacity:1; font-family:Arial,Helvetica Neue,Helvetica,sans-serif; font-size:71px; text-anchor:end;" transform="rotate(0, 568.755, 1002.52)" x="568.755" y="1002.52">0.02</text>
</g>
<g clip-path="url(#clip9200)">
<text style="fill:#000000; fill-opacity:1; font-family:Arial,Helvetica Neue,Helvetica,sans-serif; font-size:71px; text-anchor:end;" transform="rotate(0, 568.755, 734.284)" x="568.755" y="734.284">0.04</text>
</g>
<g clip-path="url(#clip9200)">
<text style="fill:#000000; fill-opacity:1; font-family:Arial,Helvetica Neue,Helvetica,sans-serif; font-size:71px; text-anchor:end;" transform="rotate(0, 568.755, 466.05)" x="568.755" y="466.05">0.06</text>
</g>
<g clip-path="url(#clip9200)">
<text style="fill:#000000; fill-opacity:1; font-family:Arial,Helvetica Neue,Helvetica,sans-serif; font-size:95px; text-anchor:middle;" transform="rotate(0, 1805.89, 1469.75)" x="1805.89" y="1469.75">Time (min.)</text>
</g>
<g clip-path="url(#clip9200)">
<text style="fill:#000000; fill-opacity:1; font-family:Arial,Helvetica Neue,Helvetica,sans-serif; font-size:95px; text-anchor:middle;" transform="rotate(-90, 378.453, 732.24)" x="378.453" y="732.24">Prob of wait (NS)</text>
</g>
<polyline clip-path="url(#clip9202)" style="stroke:#009af9; stroke-width:4; stroke-opacity:1; fill:none" points="
  668.97,1244.75 681.673,1244.75 694.376,1244.75 707.079,1244.75 719.782,1244.75 732.485,1244.75 745.188,1244.75 757.891,1244.75 770.594,1244.75 783.297,1244.75 
  796,1244.75 808.703,1244.75 821.406,1244.75 834.109,1244.75 846.812,1244.75 859.515,1244.75 872.218,1244.75 884.921,1244.75 897.624,1244.75 910.327,1244.75 
  923.03,1244.75 935.733,1244.75 948.436,1244.75 961.139,1244.75 973.842,1244.75 986.545,1244.75 999.248,1244.75 1011.95,1244.75 1024.65,1244.75 1037.36,1244.75 
  1050.06,1244.75 1062.76,1244.75 1075.47,1244.75 1088.17,1244.75 1100.87,1244.75 1113.58,1244.75 1126.28,1244.75 1138.98,1244.75 1151.68,1244.75 1164.39,1244.75 
  1177.09,1244.75 1189.79,1244.75 1202.5,1244.75 1215.2,1244.75 1227.9,1244.75 1240.61,1244.75 1253.31,1244.75 1266.01,1244.75 1278.71,1244.75 1291.42,1244.75 
  1304.12,1244.75 1316.82,1244.75 1329.53,1244.75 1342.23,1244.75 1354.93,1244.75 1367.64,1244.75 1380.34,1244.75 1393.04,1244.75 1405.74,1244.75 1418.45,1244.75 
  1431.15,1244.75 1443.85,1244.75 1456.56,1244.75 1469.26,1244.75 1481.96,1244.75 1494.67,1244.75 1507.37,1244.75 1520.07,1244.75 1532.77,1244.75 1545.48,1244.75 
  1558.18,1244.75 1570.88,1244.75 1583.59,1244.75 1596.29,1244.75 1608.99,1244.75 1621.7,1244.75 1634.4,1244.75 1647.1,1244.75 1659.8,1244.75 1672.51,1244.75 
  1685.21,1244.75 1697.91,1244.75 1710.62,1244.75 1723.32,1244.75 1736.02,1244.75 1748.73,1244.75 1761.43,1244.75 1774.13,1244.75 1786.83,1244.75 1799.54,1244.75 
  1812.24,1244.74 1824.94,1244.74 1837.65,1244.74 1850.35,1244.73 1863.05,1244.73 1875.76,1244.72 1888.46,1244.72 1901.16,1244.71 1913.86,1244.7 1926.57,1244.69 
  1939.27,1244.67 1951.97,1244.66 1964.68,1244.64 1977.38,1244.61 1990.08,1244.58 2002.79,1244.55 2015.49,1244.51 2028.19,1244.46 2040.89,1244.4 2053.6,1244.33 
  2066.3,1244.25 2079,1244.16 2091.71,1244.05 2104.41,1243.92 2117.11,1243.77 2129.82,1243.6 2142.52,1243.4 2155.22,1243.17 2167.92,1242.9 2180.63,1242.6 
  2193.33,1242.25 2206.03,1241.85 2218.74,1241.39 2231.44,1240.87 2244.14,1240.28 2256.85,1239.61 2269.55,1238.84 2282.25,1237.98 2294.96,1237.01 2307.66,1235.91 
  2320.36,1234.67 2333.06,1233.29 2345.77,1231.73 2358.47,1230 2371.17,1228.05 2383.88,1225.89 2396.58,1223.48 2409.28,1220.8 2421.99,1217.83 2434.69,1214.54 
  2447.39,1210.91 2460.09,1206.89 2472.8,1202.46 2485.5,1197.59 2498.2,1192.24 2510.91,1186.36 2523.61,1179.92 2536.31,1172.87 2549.02,1165.17 2561.72,1156.76 
  2574.42,1147.6 2587.12,1137.64 2599.83,1126.8 2612.53,1115.05 2625.23,1102.3 2637.94,1088.51 2650.64,1073.59 2663.34,1057.48 2676.05,1040.1 2688.75,1021.38 
  2701.45,1001.23 2714.15,979.584 2726.86,956.339 2739.56,931.413 2752.26,904.712 2764.97,876.142 2777.67,845.604 2790.37,812.997 2803.08,778.217 2815.78,741.158 
  2828.48,701.71 2841.18,659.759 2853.89,615.192 2866.59,567.89 2879.29,517.733 2892,464.597 2904.7,408.358 2917.4,348.887 2930.11,286.054 2942.81,219.727 
  
  "/>
<polyline clip-path="url(#clip9202)" style="stroke:#e26f46; stroke-width:4; stroke-opacity:1; fill:none" points="
  668.97,1244.75 681.673,1244.75 694.376,1244.75 707.079,1244.75 719.782,1244.75 732.485,1244.75 745.188,1244.75 757.891,1244.75 770.594,1244.75 783.297,1244.75 
  796,1244.75 808.703,1244.75 821.406,1244.75 834.109,1244.75 846.812,1244.75 859.515,1244.75 872.218,1244.75 884.921,1244.75 897.624,1244.75 910.327,1244.75 
  923.03,1244.75 935.733,1244.75 948.436,1244.75 961.139,1244.75 973.842,1244.75 986.545,1244.75 999.248,1244.75 1011.95,1244.75 1024.65,1244.75 1037.36,1244.75 
  1050.06,1244.75 1062.76,1244.75 1075.47,1244.75 1088.17,1244.75 1100.87,1244.75 1113.58,1244.75 1126.28,1244.75 1138.98,1244.75 1151.68,1244.75 1164.39,1244.75 
  1177.09,1244.75 1189.79,1244.75 1202.5,1244.75 1215.2,1244.75 1227.9,1244.75 1240.61,1244.75 1253.31,1244.75 1266.01,1244.75 1278.71,1244.75 1291.42,1244.75 
  1304.12,1244.75 1316.82,1244.75 1329.53,1244.75 1342.23,1244.75 1354.93,1244.75 1367.64,1244.75 1380.34,1244.75 1393.04,1244.75 1405.74,1244.75 1418.45,1244.75 
  1431.15,1244.75 1443.85,1244.75 1456.56,1244.75 1469.26,1244.75 1481.96,1244.75 1494.67,1244.75 1507.37,1244.75 1520.07,1244.75 1532.77,1244.75 1545.48,1244.75 
  1558.18,1244.75 1570.88,1244.75 1583.59,1244.75 1596.29,1244.75 1608.99,1244.75 1621.7,1244.75 1634.4,1244.75 1647.1,1244.75 1659.8,1244.75 1672.51,1244.75 
  1685.21,1244.75 1697.91,1244.75 1710.62,1244.75 1723.32,1244.75 1736.02,1244.75 1748.73,1244.75 1761.43,1244.75 1774.13,1244.75 1786.83,1244.75 1799.54,1244.75 
  1812.24,1244.74 1824.94,1244.74 1837.65,1244.74 1850.35,1244.74 1863.05,1244.73 1875.76,1244.73 1888.46,1244.72 1901.16,1244.71 1913.86,1244.7 1926.57,1244.69 
  1939.27,1244.68 1951.97,1244.66 1964.68,1244.64 1977.38,1244.62 1990.08,1244.59 2002.79,1244.56 2015.49,1244.52 2028.19,1244.47 2040.89,1244.42 2053.6,1244.35 
  2066.3,1244.28 2079,1244.19 2091.71,1244.09 2104.41,1243.96 2117.11,1243.82 2129.82,1243.66 2142.52,1243.47 2155.22,1243.25 2167.92,1243 2180.63,1242.71 
  2193.33,1242.38 2206.03,1241.99 2218.74,1241.56 2231.44,1241.06 2244.14,1240.49 2256.85,1239.85 2269.55,1239.12 2282.25,1238.29 2294.96,1237.36 2307.66,1236.3 
  2320.36,1235.12 2333.06,1233.79 2345.77,1232.29 2358.47,1230.62 2371.17,1228.76 2383.88,1226.67 2396.58,1224.35 2409.28,1221.78 2421.99,1218.91 2434.69,1215.74 
  2447.39,1212.24 2460.09,1208.36 2472.8,1204.09 2485.5,1199.38 2498.2,1194.21 2510.91,1188.53 2523.61,1182.3 2536.31,1175.49 2549.02,1168.04 2561.72,1159.9 
  2574.42,1151.04 2587.12,1141.39 2599.83,1130.9 2612.53,1119.51 2625.23,1107.16 2637.94,1093.79 2650.64,1079.32 2663.34,1063.7 2676.05,1046.85 2688.75,1028.69 
  2701.45,1009.15 2714.15,988.138 2726.86,965.582 2739.56,941.391 2752.26,915.475 2764.97,887.743 2777.67,858.099 2790.37,826.447 2803.08,792.686 2815.78,756.712 
  2828.48,718.421 2841.18,677.705 2853.89,634.453 2866.59,588.552 2879.29,539.889 2892,488.346 2904.7,433.804 2917.4,376.142 2930.11,315.239 2942.81,250.971 
  
  "/>
</svg>
