<?xml version="1.0" encoding="utf-8"?>
<svg xmlns="http://www.w3.org/2000/svg" xmlns:xlink="http://www.w3.org/1999/xlink" width="800" height="400" viewBox="0 0 3200 1600">
<defs>
  <clipPath id="clip5800">
    <rect x="0" y="0" width="3200" height="1600"/>
  </clipPath>
</defs>
<polygon clip-path="url(#clip5800)" points="
0,1600 3200,1600 3200,0 0,0 
  " fill="#ffffff" fill-rule="evenodd" fill-opacity="1"/>
<defs>
  <clipPath id="clip5801">
    <rect x="640" y="0" width="2241" height="1600"/>
  </clipPath>
</defs>
<polygon clip-path="url(#clip5800)" points="
560.611,1275.5 3011.02,1275.5 3011.02,188.976 560.611,188.976 
  " fill="#ffffff" fill-rule="evenodd" fill-opacity="1"/>
<defs>
  <clipPath id="clip5802">
    <rect x="560" y="188" width="2451" height="1088"/>
  </clipPath>
</defs>
<polyline clip-path="url(#clip5802)" style="stroke:#000000; stroke-width:2; stroke-opacity:0.1; fill:none" points="
  617.048,1275.5 617.048,188.976 
  "/>
<polyline clip-path="url(#clip5802)" style="stroke:#000000; stroke-width:2; stroke-opacity:0.1; fill:none" points="
  1262.78,1275.5 1262.78,188.976 
  "/>
<polyline clip-path="url(#clip5802)" style="stroke:#000000; stroke-width:2; stroke-opacity:0.1; fill:none" points="
  1908.51,1275.5 1908.51,188.976 
  "/>
<polyline clip-path="url(#clip5802)" style="stroke:#000000; stroke-width:2; stroke-opacity:0.1; fill:none" points="
  2554.23,1275.5 2554.23,188.976 
  "/>
<polyline clip-path="url(#clip5802)" style="stroke:#000000; stroke-width:2; stroke-opacity:0.1; fill:none" points="
  560.611,1244.75 3011.02,1244.75 
  "/>
<polyline clip-path="url(#clip5802)" style="stroke:#000000; stroke-width:2; stroke-opacity:0.1; fill:none" points="
  560.611,993.83 3011.02,993.83 
  "/>
<polyline clip-path="url(#clip5802)" style="stroke:#000000; stroke-width:2; stroke-opacity:0.1; fill:none" points="
  560.611,742.908 3011.02,742.908 
  "/>
<polyline clip-path="url(#clip5802)" style="stroke:#000000; stroke-width:2; stroke-opacity:0.1; fill:none" points="
  560.611,491.985 3011.02,491.985 
  "/>
<polyline clip-path="url(#clip5802)" style="stroke:#000000; stroke-width:2; stroke-opacity:0.1; fill:none" points="
  560.611,241.063 3011.02,241.063 
  "/>
<polyline clip-path="url(#clip5800)" style="stroke:#000000; stroke-width:4; stroke-opacity:1; fill:none" points="
  560.611,1275.5 3011.02,1275.5 
  "/>
<polyline clip-path="url(#clip5800)" style="stroke:#000000; stroke-width:4; stroke-opacity:1; fill:none" points="
  560.611,1275.5 560.611,188.976 
  "/>
<polyline clip-path="url(#clip5800)" style="stroke:#000000; stroke-width:4; stroke-opacity:1; fill:none" points="
  617.048,1275.5 617.048,1259.21 
  "/>
<polyline clip-path="url(#clip5800)" style="stroke:#000000; stroke-width:4; stroke-opacity:1; fill:none" points="
  1262.78,1275.5 1262.78,1259.21 
  "/>
<polyline clip-path="url(#clip5800)" style="stroke:#000000; stroke-width:4; stroke-opacity:1; fill:none" points="
  1908.51,1275.5 1908.51,1259.21 
  "/>
<polyline clip-path="url(#clip5800)" style="stroke:#000000; stroke-width:4; stroke-opacity:1; fill:none" points="
  2554.23,1275.5 2554.23,1259.21 
  "/>
<polyline clip-path="url(#clip5800)" style="stroke:#000000; stroke-width:4; stroke-opacity:1; fill:none" points="
  560.611,1244.75 597.367,1244.75 
  "/>
<polyline clip-path="url(#clip5800)" style="stroke:#000000; stroke-width:4; stroke-opacity:1; fill:none" points="
  560.611,993.83 597.367,993.83 
  "/>
<polyline clip-path="url(#clip5800)" style="stroke:#000000; stroke-width:4; stroke-opacity:1; fill:none" points="
  560.611,742.908 597.367,742.908 
  "/>
<polyline clip-path="url(#clip5800)" style="stroke:#000000; stroke-width:4; stroke-opacity:1; fill:none" points="
  560.611,491.985 597.367,491.985 
  "/>
<polyline clip-path="url(#clip5800)" style="stroke:#000000; stroke-width:4; stroke-opacity:1; fill:none" points="
  560.611,241.063 597.367,241.063 
  "/>
<g clip-path="url(#clip5800)">
<text style="fill:#000000; fill-opacity:1; font-family:Arial,Helvetica Neue,Helvetica,sans-serif; font-size:71px; text-anchor:middle;" transform="rotate(0, 617.048, 1353.9)" x="617.048" y="1353.9">0</text>
</g>
<g clip-path="url(#clip5800)">
<text style="fill:#000000; fill-opacity:1; font-family:Arial,Helvetica Neue,Helvetica,sans-serif; font-size:71px; text-anchor:middle;" transform="rotate(0, 1262.78, 1353.9)" x="1262.78" y="1353.9">50</text>
</g>
<g clip-path="url(#clip5800)">
<text style="fill:#000000; fill-opacity:1; font-family:Arial,Helvetica Neue,Helvetica,sans-serif; font-size:71px; text-anchor:middle;" transform="rotate(0, 1908.51, 1353.9)" x="1908.51" y="1353.9">100</text>
</g>
<g clip-path="url(#clip5800)">
<text style="fill:#000000; fill-opacity:1; font-family:Arial,Helvetica Neue,Helvetica,sans-serif; font-size:71px; text-anchor:middle;" transform="rotate(0, 2554.23, 1353.9)" x="2554.23" y="1353.9">150</text>
</g>
<g clip-path="url(#clip5800)">
<text style="fill:#000000; fill-opacity:1; font-family:Arial,Helvetica Neue,Helvetica,sans-serif; font-size:71px; text-anchor:end;" transform="rotate(0, 528.611, 1270.75)" x="528.611" y="1270.75">0.0</text>
</g>
<g clip-path="url(#clip5800)">
<text style="fill:#000000; fill-opacity:1; font-family:Arial,Helvetica Neue,Helvetica,sans-serif; font-size:71px; text-anchor:end;" transform="rotate(0, 528.611, 1019.83)" x="528.611" y="1019.83">0.2</text>
</g>
<g clip-path="url(#clip5800)">
<text style="fill:#000000; fill-opacity:1; font-family:Arial,Helvetica Neue,Helvetica,sans-serif; font-size:71px; text-anchor:end;" transform="rotate(0, 528.611, 768.908)" x="528.611" y="768.908">0.4</text>
</g>
<g clip-path="url(#clip5800)">
<text style="fill:#000000; fill-opacity:1; font-family:Arial,Helvetica Neue,Helvetica,sans-serif; font-size:71px; text-anchor:end;" transform="rotate(0, 528.611, 517.985)" x="528.611" y="517.985">0.6</text>
</g>
<g clip-path="url(#clip5800)">
<text style="fill:#000000; fill-opacity:1; font-family:Arial,Helvetica Neue,Helvetica,sans-serif; font-size:71px; text-anchor:end;" transform="rotate(0, 528.611, 267.063)" x="528.611" y="267.063">0.8</text>
</g>
<g clip-path="url(#clip5800)">
<text style="fill:#000000; fill-opacity:1; font-family:Arial,Helvetica Neue,Helvetica,sans-serif; font-size:95px; text-anchor:middle;" transform="rotate(0, 1785.82, 1469.75)" x="1785.82" y="1469.75">Time (min.)</text>
</g>
<g clip-path="url(#clip5800)">
<text style="fill:#000000; fill-opacity:1; font-family:Arial,Helvetica Neue,Helvetica,sans-serif; font-size:95px; text-anchor:middle;" transform="rotate(-90, 378.453, 732.24)" x="378.453" y="732.24">Prob of wait (NS)</text>
</g>
<polyline clip-path="url(#clip5802)" style="stroke:#009af9; stroke-width:4; stroke-opacity:1; fill:none" points="
  629.963,1244.75 642.877,1244.75 655.792,1244.75 668.706,1244.75 681.621,1244.75 694.535,1244.75 707.45,1244.75 720.365,1244.75 733.279,1244.75 746.194,1244.75 
  759.108,1244.75 772.023,1244.75 784.938,1244.75 797.852,1244.75 810.767,1244.75 823.681,1244.75 836.596,1244.75 849.51,1244.75 862.425,1244.75 875.34,1244.75 
  888.254,1244.75 901.169,1244.75 914.083,1244.75 926.998,1244.75 939.912,1244.75 952.827,1244.75 965.742,1244.75 978.656,1244.75 991.571,1244.75 1004.49,1244.75 
  1017.4,1244.75 1030.31,1244.75 1043.23,1244.75 1056.14,1244.75 1069.06,1244.75 1081.97,1244.75 1094.89,1244.75 1107.8,1244.75 1120.72,1244.75 1133.63,1244.75 
  1146.55,1244.75 1159.46,1244.75 1172.37,1244.75 1185.29,1244.75 1198.2,1244.75 1211.12,1244.75 1224.03,1244.75 1236.95,1244.75 1249.86,1244.75 1262.78,1244.75 
  1275.69,1244.75 1288.61,1244.75 1301.52,1244.75 1314.44,1244.75 1327.35,1244.75 1340.26,1244.75 1353.18,1244.75 1366.09,1244.75 1379.01,1244.75 1391.92,1244.75 
  1404.84,1244.75 1417.75,1244.75 1430.67,1244.75 1443.58,1244.75 1456.5,1244.75 1469.41,1244.75 1482.32,1244.75 1495.24,1244.75 1508.15,1244.75 1521.07,1244.74 
  1533.98,1244.74 1546.9,1244.74 1559.81,1244.74 1572.73,1244.73 1585.64,1244.73 1598.56,1244.72 1611.47,1244.72 1624.39,1244.71 1637.3,1244.7 1650.21,1244.68 
  1663.13,1244.67 1676.04,1244.65 1688.96,1244.63 1701.87,1244.61 1714.79,1244.58 1727.7,1244.54 1740.62,1244.51 1753.53,1244.46 1766.45,1244.4 1779.36,1244.34 
  1792.27,1244.27 1805.19,1244.18 1818.1,1244.09 1831.02,1243.97 1843.93,1243.85 1856.85,1243.7 1869.76,1243.53 1882.68,1243.34 1895.59,1243.13 1908.51,1242.88 
  1921.42,1242.6 1934.34,1242.29 1947.25,1241.94 1960.16,1241.54 1973.08,1241.1 1985.99,1240.61 1998.91,1240.06 2011.82,1239.44 2024.74,1238.76 2037.65,1238.01 
  2050.57,1237.17 2063.48,1236.24 2076.4,1235.23 2089.31,1234.1 2102.22,1232.87 2115.14,1231.52 2128.05,1230.04 2140.97,1228.42 2153.88,1226.66 2166.8,1224.74 
  2179.71,1222.65 2192.63,1220.38 2205.54,1217.91 2218.46,1215.25 2231.37,1212.37 2244.29,1209.26 2257.2,1205.9 2270.11,1202.29 2283.03,1198.41 2295.94,1194.25 
  2308.86,1189.78 2321.77,1185 2334.69,1179.88 2347.6,1174.42 2360.52,1168.59 2373.43,1162.38 2386.35,1155.77 2399.26,1148.74 2412.17,1141.28 2425.09,1133.37 
  2438,1124.98 2450.92,1116.1 2463.83,1106.72 2476.75,1096.8 2489.66,1086.34 2502.58,1075.31 2515.49,1063.69 2528.41,1051.46 2541.32,1038.61 2554.23,1025.11 
  2567.15,1010.94 2580.06,996.09 2592.98,980.527 2605.89,964.235 2618.81,947.195 2631.72,929.386 2644.64,910.788 2657.55,891.38 2670.47,871.142 2683.38,850.053 
  2696.3,828.095 2709.21,805.246 2722.12,781.487 2735.04,756.798 2747.95,731.159 2760.87,704.551 2773.78,676.955 2786.7,648.35 2799.61,618.718 2812.53,588.041 
  2825.44,556.298 2838.36,523.473 2851.27,489.546 2864.18,454.5 2877.1,418.316 2890.01,380.977 2902.93,342.465 2915.84,302.764 2928.76,261.856 2941.67,219.727 
  
  "/>
<polyline clip-path="url(#clip5802)" style="stroke:#e26f46; stroke-width:4; stroke-opacity:1; fill:none" points="
  629.963,1244.75 642.877,1244.75 655.792,1244.75 668.706,1244.75 681.621,1244.75 694.535,1244.75 707.45,1244.75 720.365,1244.75 733.279,1244.75 746.194,1244.75 
  759.108,1244.75 772.023,1244.75 784.938,1244.75 797.852,1244.75 810.767,1244.75 823.681,1244.75 836.596,1244.75 849.51,1244.75 862.425,1244.75 875.34,1244.75 
  888.254,1244.75 901.169,1244.75 914.083,1244.75 926.998,1244.75 939.912,1244.75 952.827,1244.75 965.742,1244.75 978.656,1244.75 991.571,1244.75 1004.49,1244.75 
  1017.4,1244.75 1030.31,1244.75 1043.23,1244.75 1056.14,1244.75 1069.06,1244.75 1081.97,1244.75 1094.89,1244.75 1107.8,1244.75 1120.72,1244.75 1133.63,1244.75 
  1146.55,1244.75 1159.46,1244.75 1172.37,1244.75 1185.29,1244.75 1198.2,1244.75 1211.12,1244.75 1224.03,1244.75 1236.95,1244.75 1249.86,1244.75 1262.78,1244.75 
  1275.69,1244.75 1288.61,1244.75 1301.52,1244.75 1314.44,1244.75 1327.35,1244.75 1340.26,1244.75 1353.18,1244.75 1366.09,1244.75 1379.01,1244.75 1391.92,1244.75 
  1404.84,1244.75 1417.75,1244.75 1430.67,1244.75 1443.58,1244.75 1456.5,1244.75 1469.41,1244.75 1482.32,1244.75 1495.24,1244.75 1508.15,1244.75 1521.07,1244.75 
  1533.98,1244.74 1546.9,1244.74 1559.81,1244.74 1572.73,1244.73 1585.64,1244.73 1598.56,1244.72 1611.47,1244.72 1624.39,1244.71 1637.3,1244.7 1650.21,1244.69 
  1663.13,1244.68 1676.04,1244.66 1688.96,1244.64 1701.87,1244.62 1714.79,1244.59 1727.7,1244.56 1740.62,1244.52 1753.53,1244.48 1766.45,1244.42 1779.36,1244.36 
  1792.27,1244.29 1805.19,1244.21 1818.1,1244.12 1831.02,1244.02 1843.93,1243.89 1856.85,1243.75 1869.76,1243.59 1882.68,1243.41 1895.59,1243.2 1908.51,1242.97 
  1921.42,1242.7 1934.34,1242.41 1947.25,1242.07 1960.16,1241.69 1973.08,1241.27 1985.99,1240.79 1998.91,1240.26 2011.82,1239.67 2024.74,1239.02 2037.65,1238.29 
  2050.57,1237.48 2063.48,1236.59 2076.4,1235.61 2089.31,1234.53 2102.22,1233.34 2115.14,1232.04 2128.05,1230.61 2140.97,1229.05 2153.88,1227.35 2166.8,1225.49 
  2179.71,1223.47 2192.63,1221.28 2205.54,1218.9 2218.46,1216.32 2231.37,1213.54 2244.29,1210.53 2257.2,1207.29 2270.11,1203.8 2283.03,1200.05 2295.94,1196.02 
  2308.86,1191.71 2321.77,1187.09 2334.69,1182.14 2347.6,1176.86 2360.52,1171.24 2373.43,1165.24 2386.35,1158.86 2399.26,1152.08 2412.17,1144.89 2425.09,1137.26 
  2438,1129.18 2450.92,1120.63 2463.83,1111.61 2476.75,1102.08 2489.66,1092.03 2502.58,1081.45 2515.49,1070.32 2528.41,1058.62 2541.32,1046.34 2554.23,1033.46 
  2567.15,1019.97 2580.06,1005.85 2592.98,991.09 2605.89,975.672 2618.81,959.587 2631.72,942.823 2644.64,925.369 2657.55,907.218 2670.47,888.361 2683.38,868.794 
  2696.3,848.514 2709.21,827.52 2722.12,805.812 2735.04,783.397 2747.95,760.282 2760.87,736.48 2773.78,712.007 2786.7,686.884 2799.61,661.139 2812.53,634.804 
  2825.44,607.92 2838.36,580.532 2851.27,552.697 2864.18,524.478 2877.1,495.947 2890.01,467.188 2902.93,438.293 2915.84,409.365 2928.76,380.516 2941.67,351.869 
  
  "/>
</svg>
