<?xml version="1.0" encoding="utf-8"?>
<svg xmlns="http://www.w3.org/2000/svg" xmlns:xlink="http://www.w3.org/1999/xlink" width="800" height="400" viewBox="0 0 3200 1600">
<defs>
  <clipPath id="clip4300">
    <rect x="0" y="0" width="3200" height="1600"/>
  </clipPath>
</defs>
<polygon clip-path="url(#clip4300)" points="
0,1600 3200,1600 3200,0 0,0 
  " fill="#ffffff" fill-rule="evenodd" fill-opacity="1"/>
<defs>
  <clipPath id="clip4301">
    <rect x="640" y="0" width="2241" height="1600"/>
  </clipPath>
</defs>
<polygon clip-path="url(#clip4300)" points="
403.131,1275.5 3011.02,1275.5 3011.02,188.976 403.131,188.976 
  " fill="#ffffff" fill-rule="evenodd" fill-opacity="1"/>
<defs>
  <clipPath id="clip4302">
    <rect x="403" y="188" width="2609" height="1088"/>
  </clipPath>
</defs>
<polyline clip-path="url(#clip4302)" style="stroke:#000000; stroke-width:2; stroke-opacity:0.1; fill:none" points="
  463.195,1275.5 463.195,188.976 
  "/>
<polyline clip-path="url(#clip4302)" style="stroke:#000000; stroke-width:2; stroke-opacity:0.1; fill:none" points="
  1150.42,1275.5 1150.42,188.976 
  "/>
<polyline clip-path="url(#clip4302)" style="stroke:#000000; stroke-width:2; stroke-opacity:0.1; fill:none" points="
  1837.65,1275.5 1837.65,188.976 
  "/>
<polyline clip-path="url(#clip4302)" style="stroke:#000000; stroke-width:2; stroke-opacity:0.1; fill:none" points="
  2524.88,1275.5 2524.88,188.976 
  "/>
<polyline clip-path="url(#clip4302)" style="stroke:#000000; stroke-width:2; stroke-opacity:0.1; fill:none" points="
  403.131,1244.75 3011.02,1244.75 
  "/>
<polyline clip-path="url(#clip4302)" style="stroke:#000000; stroke-width:2; stroke-opacity:0.1; fill:none" points="
  403.131,997.622 3011.02,997.622 
  "/>
<polyline clip-path="url(#clip4302)" style="stroke:#000000; stroke-width:2; stroke-opacity:0.1; fill:none" points="
  403.131,750.492 3011.02,750.492 
  "/>
<polyline clip-path="url(#clip4302)" style="stroke:#000000; stroke-width:2; stroke-opacity:0.1; fill:none" points="
  403.131,503.362 3011.02,503.362 
  "/>
<polyline clip-path="url(#clip4302)" style="stroke:#000000; stroke-width:2; stroke-opacity:0.1; fill:none" points="
  403.131,256.232 3011.02,256.232 
  "/>
<polyline clip-path="url(#clip4300)" style="stroke:#000000; stroke-width:4; stroke-opacity:1; fill:none" points="
  403.131,1275.5 3011.02,1275.5 
  "/>
<polyline clip-path="url(#clip4300)" style="stroke:#000000; stroke-width:4; stroke-opacity:1; fill:none" points="
  403.131,1275.5 403.131,188.976 
  "/>
<polyline clip-path="url(#clip4300)" style="stroke:#000000; stroke-width:4; stroke-opacity:1; fill:none" points="
  463.195,1275.5 463.195,1259.21 
  "/>
<polyline clip-path="url(#clip4300)" style="stroke:#000000; stroke-width:4; stroke-opacity:1; fill:none" points="
  1150.42,1275.5 1150.42,1259.21 
  "/>
<polyline clip-path="url(#clip4300)" style="stroke:#000000; stroke-width:4; stroke-opacity:1; fill:none" points="
  1837.65,1275.5 1837.65,1259.21 
  "/>
<polyline clip-path="url(#clip4300)" style="stroke:#000000; stroke-width:4; stroke-opacity:1; fill:none" points="
  2524.88,1275.5 2524.88,1259.21 
  "/>
<polyline clip-path="url(#clip4300)" style="stroke:#000000; stroke-width:4; stroke-opacity:1; fill:none" points="
  403.131,1244.75 442.249,1244.75 
  "/>
<polyline clip-path="url(#clip4300)" style="stroke:#000000; stroke-width:4; stroke-opacity:1; fill:none" points="
  403.131,997.622 442.249,997.622 
  "/>
<polyline clip-path="url(#clip4300)" style="stroke:#000000; stroke-width:4; stroke-opacity:1; fill:none" points="
  403.131,750.492 442.249,750.492 
  "/>
<polyline clip-path="url(#clip4300)" style="stroke:#000000; stroke-width:4; stroke-opacity:1; fill:none" points="
  403.131,503.362 442.249,503.362 
  "/>
<polyline clip-path="url(#clip4300)" style="stroke:#000000; stroke-width:4; stroke-opacity:1; fill:none" points="
  403.131,256.232 442.249,256.232 
  "/>
<g clip-path="url(#clip4300)">
<text style="fill:#000000; fill-opacity:1; font-family:Arial,Helvetica Neue,Helvetica,sans-serif; font-size:71px; text-anchor:middle;" transform="rotate(0, 463.195, 1353.9)" x="463.195" y="1353.9">0</text>
</g>
<g clip-path="url(#clip4300)">
<text style="fill:#000000; fill-opacity:1; font-family:Arial,Helvetica Neue,Helvetica,sans-serif; font-size:71px; text-anchor:middle;" transform="rotate(0, 1150.42, 1353.9)" x="1150.42" y="1353.9">50</text>
</g>
<g clip-path="url(#clip4300)">
<text style="fill:#000000; fill-opacity:1; font-family:Arial,Helvetica Neue,Helvetica,sans-serif; font-size:71px; text-anchor:middle;" transform="rotate(0, 1837.65, 1353.9)" x="1837.65" y="1353.9">100</text>
</g>
<g clip-path="url(#clip4300)">
<text style="fill:#000000; fill-opacity:1; font-family:Arial,Helvetica Neue,Helvetica,sans-serif; font-size:71px; text-anchor:middle;" transform="rotate(0, 2524.88, 1353.9)" x="2524.88" y="1353.9">150</text>
</g>
<g clip-path="url(#clip4300)">
<text style="fill:#000000; fill-opacity:1; font-family:Arial,Helvetica Neue,Helvetica,sans-serif; font-size:71px; text-anchor:end;" transform="rotate(0, 371.131, 1270.75)" x="371.131" y="1270.75">0.0</text>
</g>
<g clip-path="url(#clip4300)">
<text style="fill:#000000; fill-opacity:1; font-family:Arial,Helvetica Neue,Helvetica,sans-serif; font-size:71px; text-anchor:end;" transform="rotate(0, 371.131, 1023.62)" x="371.131" y="1023.62">0.2</text>
</g>
<g clip-path="url(#clip4300)">
<text style="fill:#000000; fill-opacity:1; font-family:Arial,Helvetica Neue,Helvetica,sans-serif; font-size:71px; text-anchor:end;" transform="rotate(0, 371.131, 776.492)" x="371.131" y="776.492">0.4</text>
</g>
<g clip-path="url(#clip4300)">
<text style="fill:#000000; fill-opacity:1; font-family:Arial,Helvetica Neue,Helvetica,sans-serif; font-size:71px; text-anchor:end;" transform="rotate(0, 371.131, 529.362)" x="371.131" y="529.362">0.6</text>
</g>
<g clip-path="url(#clip4300)">
<text style="fill:#000000; fill-opacity:1; font-family:Arial,Helvetica Neue,Helvetica,sans-serif; font-size:71px; text-anchor:end;" transform="rotate(0, 371.131, 282.232)" x="371.131" y="282.232">0.8</text>
</g>
<g clip-path="url(#clip4300)">
<text style="fill:#000000; fill-opacity:1; font-family:Arial,Helvetica Neue,Helvetica,sans-serif; font-size:95px; text-anchor:middle;" transform="rotate(0, 1707.08, 1469.75)" x="1707.08" y="1469.75">Time (min.)</text>
</g>
<g clip-path="url(#clip4300)">
<text style="fill:#000000; fill-opacity:1; font-family:Arial,Helvetica Neue,Helvetica,sans-serif; font-size:95px; text-anchor:middle;" transform="rotate(-90, 220.973, 732.24)" x="220.973" y="732.24">exp_wait: (PSA-NS)/NS</text>
</g>
<polyline clip-path="url(#clip4302)" style="stroke:#009af9; stroke-width:4; stroke-opacity:1; fill:none" points="
  476.939,1244.75 490.684,219.727 504.428,222.21 518.173,283.053 531.917,340.026 545.662,391.226 559.407,437.378 573.151,479.179 586.896,517.208 600.64,551.947 
  614.385,583.799 628.129,613.107 641.874,640.16 655.618,665.206 669.363,688.458 683.108,710.099 696.852,730.291 710.597,749.172 724.341,766.865 738.086,783.478 
  751.83,799.105 765.575,813.832 779.32,827.733 793.064,840.874 806.809,853.317 820.553,865.115 834.298,876.316 848.042,886.964 861.787,897.098 875.531,906.756 
  889.276,915.968 903.021,924.766 916.765,933.175 930.51,941.222 944.254,948.928 957.999,956.316 971.743,963.403 985.488,970.207 999.232,976.746 1012.98,983.034 
  1026.72,989.085 1040.47,994.912 1054.21,1000.53 1067.96,1005.94 1081.7,1011.17 1095.44,1016.21 1109.19,1021.08 1122.93,1025.79 1136.68,1030.35 1150.42,1034.75 
  1164.17,1039.02 1177.91,1043.15 1191.66,1047.15 1205.4,1051.03 1219.15,1054.8 1232.89,1058.45 1246.63,1062 1260.38,1065.44 1274.12,1068.78 1287.87,1072.03 
  1301.61,1075.19 1315.36,1078.27 1329.1,1081.25 1342.85,1084.16 1356.59,1087 1370.34,1089.75 1384.08,1092.44 1397.82,1095.06 1411.57,1097.61 1425.31,1100.1 
  1439.06,1102.52 1452.8,1104.89 1466.55,1107.2 1480.29,1109.45 1494.04,1111.65 1507.78,1113.79 1521.53,1115.89 1535.27,1117.94 1549.01,1119.94 1562.76,1121.9 
  1576.5,1123.81 1590.25,1125.68 1603.99,1127.5 1617.74,1129.29 1631.48,1131.04 1645.23,1132.75 1658.97,1134.42 1672.72,1136.05 1686.46,1137.66 1700.2,1139.22 
  1713.95,1140.76 1727.69,1142.26 1741.44,1143.73 1755.18,1145.17 1768.93,1146.58 1782.67,1147.96 1796.42,1149.32 1810.16,1150.64 1823.91,1151.94 1837.65,1153.21 
  1851.4,1154.46 1865.14,1155.68 1878.88,1156.88 1892.63,1158.05 1906.37,1159.2 1920.12,1160.32 1933.86,1161.43 1947.61,1162.51 1961.35,1163.56 1975.1,1164.6 
  1988.84,1165.62 2002.59,1166.61 2016.33,1167.59 2030.07,1168.54 2043.82,1169.48 2057.56,1170.39 2071.31,1171.29 2085.05,1172.17 2098.8,1173.03 2112.54,1173.87 
  2126.29,1174.69 2140.03,1175.49 2153.78,1176.28 2167.52,1177.05 2181.26,1177.8 2195.01,1178.53 2208.75,1179.25 2222.5,1179.94 2236.24,1180.62 2249.99,1181.29 
  2263.73,1181.94 2277.48,1182.57 2291.22,1183.18 2304.97,1183.78 2318.71,1184.35 2332.45,1184.92 2346.2,1185.46 2359.94,1185.99 2373.69,1186.5 2387.43,1186.99 
  2401.18,1187.47 2414.92,1187.92 2428.67,1188.36 2442.41,1188.79 2456.16,1189.19 2469.9,1189.57 2483.64,1189.94 2497.39,1190.29 2511.13,1190.61 2524.88,1190.92 
  2538.62,1191.21 2552.37,1191.48 2566.11,1191.72 2579.86,1191.94 2593.6,1192.15 2607.35,1192.32 2621.09,1192.48 2634.84,1192.61 2648.58,1192.72 2662.32,1192.8 
  2676.07,1192.85 2689.81,1192.88 2703.56,1192.88 2717.3,1192.84 2731.05,1192.78 2744.79,1192.68 2758.54,1192.56 2772.28,1192.39 2786.03,1192.19 2799.77,1191.95 
  2813.51,1191.67 2827.26,1191.34 2841,1190.97 2854.75,1190.55 2868.49,1190.08 2882.24,1189.56 2895.98,1188.98 2909.73,1188.34 2923.47,1187.64 2937.22,1186.86 
  
  "/>
</svg>
