<?xml version="1.0" encoding="utf-8"?>
<svg xmlns="http://www.w3.org/2000/svg" xmlns:xlink="http://www.w3.org/1999/xlink" width="800" height="400" viewBox="0 0 3200 1600">
<defs>
  <clipPath id="clip6400">
    <rect x="0" y="0" width="3200" height="1600"/>
  </clipPath>
</defs>
<polygon clip-path="url(#clip6400)" points="
0,1600 3200,1600 3200,0 0,0 
  " fill="#ffffff" fill-rule="evenodd" fill-opacity="1"/>
<defs>
  <clipPath id="clip6401">
    <rect x="640" y="0" width="2241" height="1600"/>
  </clipPath>
</defs>
<polygon clip-path="url(#clip6400)" points="
580.683,1275.5 3011.02,1275.5 3011.02,188.976 580.683,188.976 
  " fill="#ffffff" fill-rule="evenodd" fill-opacity="1"/>
<defs>
  <clipPath id="clip6402">
    <rect x="580" y="188" width="2431" height="1088"/>
  </clipPath>
</defs>
<polyline clip-path="url(#clip6402)" style="stroke:#000000; stroke-width:2; stroke-opacity:0.1; fill:none" points="
  636.657,1275.5 636.657,188.976 
  "/>
<polyline clip-path="url(#clip6402)" style="stroke:#000000; stroke-width:2; stroke-opacity:0.1; fill:none" points="
  1277.1,1275.5 1277.1,188.976 
  "/>
<polyline clip-path="url(#clip6402)" style="stroke:#000000; stroke-width:2; stroke-opacity:0.1; fill:none" points="
  1917.54,1275.5 1917.54,188.976 
  "/>
<polyline clip-path="url(#clip6402)" style="stroke:#000000; stroke-width:2; stroke-opacity:0.1; fill:none" points="
  2557.98,1275.5 2557.98,188.976 
  "/>
<polyline clip-path="url(#clip6402)" style="stroke:#000000; stroke-width:2; stroke-opacity:0.1; fill:none" points="
  580.683,1244.75 3011.02,1244.75 
  "/>
<polyline clip-path="url(#clip6402)" style="stroke:#000000; stroke-width:2; stroke-opacity:0.1; fill:none" points="
  580.683,988.445 3011.02,988.445 
  "/>
<polyline clip-path="url(#clip6402)" style="stroke:#000000; stroke-width:2; stroke-opacity:0.1; fill:none" points="
  580.683,732.138 3011.02,732.138 
  "/>
<polyline clip-path="url(#clip6402)" style="stroke:#000000; stroke-width:2; stroke-opacity:0.1; fill:none" points="
  580.683,475.831 3011.02,475.831 
  "/>
<polyline clip-path="url(#clip6402)" style="stroke:#000000; stroke-width:2; stroke-opacity:0.1; fill:none" points="
  580.683,219.523 3011.02,219.523 
  "/>
<polyline clip-path="url(#clip6400)" style="stroke:#000000; stroke-width:4; stroke-opacity:1; fill:none" points="
  580.683,1275.5 3011.02,1275.5 
  "/>
<polyline clip-path="url(#clip6400)" style="stroke:#000000; stroke-width:4; stroke-opacity:1; fill:none" points="
  580.683,1275.5 580.683,188.976 
  "/>
<polyline clip-path="url(#clip6400)" style="stroke:#000000; stroke-width:4; stroke-opacity:1; fill:none" points="
  636.657,1275.5 636.657,1259.21 
  "/>
<polyline clip-path="url(#clip6400)" style="stroke:#000000; stroke-width:4; stroke-opacity:1; fill:none" points="
  1277.1,1275.5 1277.1,1259.21 
  "/>
<polyline clip-path="url(#clip6400)" style="stroke:#000000; stroke-width:4; stroke-opacity:1; fill:none" points="
  1917.54,1275.5 1917.54,1259.21 
  "/>
<polyline clip-path="url(#clip6400)" style="stroke:#000000; stroke-width:4; stroke-opacity:1; fill:none" points="
  2557.98,1275.5 2557.98,1259.21 
  "/>
<polyline clip-path="url(#clip6400)" style="stroke:#000000; stroke-width:4; stroke-opacity:1; fill:none" points="
  580.683,1244.75 617.138,1244.75 
  "/>
<polyline clip-path="url(#clip6400)" style="stroke:#000000; stroke-width:4; stroke-opacity:1; fill:none" points="
  580.683,988.445 617.138,988.445 
  "/>
<polyline clip-path="url(#clip6400)" style="stroke:#000000; stroke-width:4; stroke-opacity:1; fill:none" points="
  580.683,732.138 617.138,732.138 
  "/>
<polyline clip-path="url(#clip6400)" style="stroke:#000000; stroke-width:4; stroke-opacity:1; fill:none" points="
  580.683,475.831 617.138,475.831 
  "/>
<polyline clip-path="url(#clip6400)" style="stroke:#000000; stroke-width:4; stroke-opacity:1; fill:none" points="
  580.683,219.523 617.138,219.523 
  "/>
<g clip-path="url(#clip6400)">
<text style="fill:#000000; fill-opacity:1; font-family:Arial,Helvetica Neue,Helvetica,sans-serif; font-size:71px; text-anchor:middle;" transform="rotate(0, 636.657, 1353.9)" x="636.657" y="1353.9">0</text>
</g>
<g clip-path="url(#clip6400)">
<text style="fill:#000000; fill-opacity:1; font-family:Arial,Helvetica Neue,Helvetica,sans-serif; font-size:71px; text-anchor:middle;" transform="rotate(0, 1277.1, 1353.9)" x="1277.1" y="1353.9">50</text>
</g>
<g clip-path="url(#clip6400)">
<text style="fill:#000000; fill-opacity:1; font-family:Arial,Helvetica Neue,Helvetica,sans-serif; font-size:71px; text-anchor:middle;" transform="rotate(0, 1917.54, 1353.9)" x="1917.54" y="1353.9">100</text>
</g>
<g clip-path="url(#clip6400)">
<text style="fill:#000000; fill-opacity:1; font-family:Arial,Helvetica Neue,Helvetica,sans-serif; font-size:71px; text-anchor:middle;" transform="rotate(0, 2557.98, 1353.9)" x="2557.98" y="1353.9">150</text>
</g>
<g clip-path="url(#clip6400)">
<text style="fill:#000000; fill-opacity:1; font-family:Arial,Helvetica Neue,Helvetica,sans-serif; font-size:71px; text-anchor:end;" transform="rotate(0, 548.683, 1270.75)" x="548.683" y="1270.75">0</text>
</g>
<g clip-path="url(#clip6400)">
<text style="fill:#000000; fill-opacity:1; font-family:Arial,Helvetica Neue,Helvetica,sans-serif; font-size:71px; text-anchor:end;" transform="rotate(0, 548.683, 1014.45)" x="548.683" y="1014.45">25</text>
</g>
<g clip-path="url(#clip6400)">
<text style="fill:#000000; fill-opacity:1; font-family:Arial,Helvetica Neue,Helvetica,sans-serif; font-size:71px; text-anchor:end;" transform="rotate(0, 548.683, 758.138)" x="548.683" y="758.138">50</text>
</g>
<g clip-path="url(#clip6400)">
<text style="fill:#000000; fill-opacity:1; font-family:Arial,Helvetica Neue,Helvetica,sans-serif; font-size:71px; text-anchor:end;" transform="rotate(0, 548.683, 501.831)" x="548.683" y="501.831">75</text>
</g>
<g clip-path="url(#clip6400)">
<text style="fill:#000000; fill-opacity:1; font-family:Arial,Helvetica Neue,Helvetica,sans-serif; font-size:71px; text-anchor:end;" transform="rotate(0, 548.683, 245.523)" x="548.683" y="245.523">100</text>
</g>
<g clip-path="url(#clip6400)">
<text style="fill:#000000; fill-opacity:1; font-family:Arial,Helvetica Neue,Helvetica,sans-serif; font-size:95px; text-anchor:middle;" transform="rotate(0, 1795.85, 1469.75)" x="1795.85" y="1469.75">Time (min.)</text>
</g>
<g clip-path="url(#clip6400)">
<text style="fill:#000000; fill-opacity:1; font-family:Arial,Helvetica Neue,Helvetica,sans-serif; font-size:95px; text-anchor:middle;" transform="rotate(-90, 378.453, 732.24)" x="378.453" y="732.24">Expected Waiting Time</text>
</g>
<polyline clip-path="url(#clip6402)" style="stroke:#009af9; stroke-width:4; stroke-opacity:1; fill:none" points="
  649.466,1244.75 662.275,1244.75 675.084,1244.75 687.893,1244.75 700.701,1244.75 713.51,1244.75 726.319,1244.75 739.128,1244.75 751.937,1244.75 764.745,1244.75 
  777.554,1244.75 790.363,1244.75 803.172,1244.75 815.981,1244.75 828.789,1244.75 841.598,1244.75 854.407,1244.75 867.216,1244.75 880.025,1244.75 892.833,1244.75 
  905.642,1244.75 918.451,1244.75 931.26,1244.75 944.068,1244.75 956.877,1244.75 969.686,1244.75 982.495,1244.75 995.304,1244.75 1008.11,1244.75 1020.92,1244.75 
  1033.73,1244.75 1046.54,1244.75 1059.35,1244.75 1072.16,1244.75 1084.97,1244.75 1097.77,1244.75 1110.58,1244.75 1123.39,1244.75 1136.2,1244.75 1149.01,1244.75 
  1161.82,1244.75 1174.63,1244.75 1187.44,1244.75 1200.24,1244.75 1213.05,1244.75 1225.86,1244.75 1238.67,1244.75 1251.48,1244.75 1264.29,1244.75 1277.1,1244.75 
  1289.91,1244.75 1302.71,1244.75 1315.52,1244.75 1328.33,1244.75 1341.14,1244.75 1353.95,1244.75 1366.76,1244.75 1379.57,1244.75 1392.38,1244.75 1405.19,1244.75 
  1417.99,1244.75 1430.8,1244.75 1443.61,1244.75 1456.42,1244.75 1469.23,1244.75 1482.04,1244.75 1494.85,1244.75 1507.66,1244.75 1520.46,1244.75 1533.27,1244.75 
  1546.08,1244.75 1558.89,1244.75 1571.7,1244.75 1584.51,1244.75 1597.32,1244.75 1610.13,1244.75 1622.93,1244.75 1635.74,1244.75 1648.55,1244.75 1661.36,1244.75 
  1674.17,1244.75 1686.98,1244.75 1699.79,1244.75 1712.6,1244.75 1725.4,1244.74 1738.21,1244.74 1751.02,1244.74 1763.83,1244.74 1776.64,1244.73 1789.45,1244.73 
  1802.26,1244.73 1815.07,1244.72 1827.88,1244.72 1840.68,1244.71 1853.49,1244.7 1866.3,1244.69 1879.11,1244.68 1891.92,1244.67 1904.73,1244.66 1917.54,1244.64 
  1930.35,1244.62 1943.15,1244.6 1955.96,1244.58 1968.77,1244.55 1981.58,1244.52 1994.39,1244.49 2007.2,1244.45 2020.01,1244.41 2032.82,1244.36 2045.62,1244.3 
  2058.43,1244.24 2071.24,1244.17 2084.05,1244.09 2096.86,1244 2109.67,1243.9 2122.48,1243.79 2135.29,1243.67 2148.1,1243.53 2160.9,1243.38 2173.71,1243.21 
  2186.52,1243.02 2199.33,1242.82 2212.14,1242.59 2224.95,1242.33 2237.76,1242.05 2250.57,1241.74 2263.37,1241.4 2276.18,1241.03 2288.99,1240.61 2301.8,1240.16 
  2314.61,1239.66 2327.42,1239.11 2340.23,1238.51 2353.04,1237.86 2365.84,1237.13 2378.65,1236.35 2391.46,1235.48 2404.27,1234.54 2417.08,1233.5 2429.89,1232.37 
  2442.7,1231.14 2455.51,1229.79 2468.32,1228.32 2481.12,1226.71 2493.93,1224.95 2506.74,1223.02 2519.55,1220.92 2532.36,1218.63 2545.17,1216.12 2557.98,1213.37 
  2570.79,1210.36 2583.59,1207.07 2596.4,1203.46 2609.21,1199.5 2622.02,1195.15 2634.83,1190.37 2647.64,1185.1 2660.45,1179.3 2673.26,1172.89 2686.06,1165.8 
  2698.87,1157.93 2711.68,1149.19 2724.49,1139.44 2737.3,1128.55 2750.11,1116.33 2762.92,1102.56 2775.73,1087 2788.53,1069.3 2801.34,1049.07 2814.15,1025.8 
  2826.96,998.823 2839.77,967.278 2852.58,930.016 2865.39,885.47 2878.2,831.446 2891.01,764.774 2903.81,680.702 2916.62,571.762 2929.43,425.52 2942.24,219.727 
  
  "/>
<polyline clip-path="url(#clip6402)" style="stroke:#e26f46; stroke-width:4; stroke-opacity:1; fill:none" points="
  649.466,1244.75 662.275,1244.75 675.084,1244.75 687.893,1244.75 700.701,1244.75 713.51,1244.75 726.319,1244.75 739.128,1244.75 751.937,1244.75 764.745,1244.75 
  777.554,1244.75 790.363,1244.75 803.172,1244.75 815.981,1244.75 828.789,1244.75 841.598,1244.75 854.407,1244.75 867.216,1244.75 880.025,1244.75 892.833,1244.75 
  905.642,1244.75 918.451,1244.75 931.26,1244.75 944.068,1244.75 956.877,1244.75 969.686,1244.75 982.495,1244.75 995.304,1244.75 1008.11,1244.75 1020.92,1244.75 
  1033.73,1244.75 1046.54,1244.75 1059.35,1244.75 1072.16,1244.75 1084.97,1244.75 1097.77,1244.75 1110.58,1244.75 1123.39,1244.75 1136.2,1244.75 1149.01,1244.75 
  1161.82,1244.75 1174.63,1244.75 1187.44,1244.75 1200.24,1244.75 1213.05,1244.75 1225.86,1244.75 1238.67,1244.75 1251.48,1244.75 1264.29,1244.75 1277.1,1244.75 
  1289.91,1244.75 1302.71,1244.75 1315.52,1244.75 1328.33,1244.75 1341.14,1244.75 1353.95,1244.75 1366.76,1244.75 1379.57,1244.75 1392.38,1244.75 1405.19,1244.75 
  1417.99,1244.75 1430.8,1244.75 1443.61,1244.75 1456.42,1244.75 1469.23,1244.75 1482.04,1244.75 1494.85,1244.75 1507.66,1244.75 1520.46,1244.75 1533.27,1244.75 
  1546.08,1244.75 1558.89,1244.75 1571.7,1244.75 1584.51,1244.75 1597.32,1244.75 1610.13,1244.75 1622.93,1244.75 1635.74,1244.75 1648.55,1244.75 1661.36,1244.75 
  1674.17,1244.75 1686.98,1244.75 1699.79,1244.75 1712.6,1244.75 1725.4,1244.74 1738.21,1244.74 1751.02,1244.74 1763.83,1244.74 1776.64,1244.74 1789.45,1244.73 
  1802.26,1244.73 1815.07,1244.72 1827.88,1244.72 1840.68,1244.71 1853.49,1244.7 1866.3,1244.7 1879.11,1244.69 1891.92,1244.68 1904.73,1244.66 1917.54,1244.65 
  1930.35,1244.63 1943.15,1244.61 1955.96,1244.59 1968.77,1244.56 1981.58,1244.54 1994.39,1244.5 2007.2,1244.47 2020.01,1244.42 2032.82,1244.38 2045.62,1244.32 
  2058.43,1244.26 2071.24,1244.2 2084.05,1244.12 2096.86,1244.04 2109.67,1243.94 2122.48,1243.84 2135.29,1243.72 2148.1,1243.59 2160.9,1243.44 2173.71,1243.28 
  2186.52,1243.1 2199.33,1242.91 2212.14,1242.69 2224.95,1242.44 2237.76,1242.18 2250.57,1241.88 2263.37,1241.56 2276.18,1241.2 2288.99,1240.81 2301.8,1240.38 
  2314.61,1239.9 2327.42,1239.38 2340.23,1238.81 2353.04,1238.19 2365.84,1237.51 2378.65,1236.76 2391.46,1235.95 2404.27,1235.06 2417.08,1234.08 2429.89,1233.02 
  2442.7,1231.87 2455.51,1230.61 2468.32,1229.23 2481.12,1227.73 2493.93,1226.1 2506.74,1224.33 2519.55,1222.39 2532.36,1220.29 2545.17,1217.99 2557.98,1215.49 
  2570.79,1212.77 2583.59,1209.81 2596.4,1206.59 2609.21,1203.07 2622.02,1199.24 2634.83,1195.07 2647.64,1190.52 2660.45,1185.55 2673.26,1180.13 2686.06,1174.21 
  2698.87,1167.74 2711.68,1160.66 2724.49,1152.92 2737.3,1144.45 2750.11,1135.16 2762.92,1124.98 2775.73,1113.8 2788.53,1101.53 2801.34,1088.04 2814.15,1073.19 
  2826.96,1056.85 2839.77,1038.85 2852.58,1018.99 2865.39,997.087 2878.2,972.899 2891.01,946.178 2903.81,916.647 2916.62,883.998 2929.43,847.896 2942.24,807.974 
  
  "/>
<polygon clip-path="url(#clip6400)" points="
676.683,1083.5 1093,1083.5 1093,902.063 676.683,902.063 
  " fill="#ffffff" fill-rule="evenodd" fill-opacity="1"/>
<polyline clip-path="url(#clip6400)" style="stroke:#000000; stroke-width:4; stroke-opacity:1; fill:none" points="
  676.683,1083.5 1093,1083.5 1093,902.063 676.683,902.063 676.683,1083.5 
  "/>
<polyline clip-path="url(#clip6400)" style="stroke:#009af9; stroke-width:4; stroke-opacity:1; fill:none" points="
  708.683,962.543 900.683,962.543 
  "/>
<g clip-path="url(#clip6400)">
<text style="fill:#000000; fill-opacity:1; font-family:Arial,Helvetica Neue,Helvetica,sans-serif; font-size:48px; text-anchor:start;" transform="rotate(0, 932.683, 980.043)" x="932.683" y="980.043">PSA</text>
</g>
<polyline clip-path="url(#clip6400)" style="stroke:#e26f46; stroke-width:4; stroke-opacity:1; fill:none" points="
  708.683,1023.02 900.683,1023.02 
  "/>
<g clip-path="url(#clip6400)">
<text style="fill:#000000; fill-opacity:1; font-family:Arial,Helvetica Neue,Helvetica,sans-serif; font-size:48px; text-anchor:start;" transform="rotate(0, 932.683, 1040.52)" x="932.683" y="1040.52">NS</text>
</g>
</svg>
