<?xml version="1.0" encoding="utf-8"?>
<svg xmlns="http://www.w3.org/2000/svg" xmlns:xlink="http://www.w3.org/1999/xlink" width="800" height="400" viewBox="0 0 3200 1600">
<defs>
  <clipPath id="clip7400">
    <rect x="0" y="0" width="3200" height="1600"/>
  </clipPath>
</defs>
<polygon clip-path="url(#clip7400)" points="
0,1600 3200,1600 3200,0 0,0 
  " fill="#ffffff" fill-rule="evenodd" fill-opacity="1"/>
<defs>
  <clipPath id="clip7401">
    <rect x="640" y="0" width="2241" height="1600"/>
  </clipPath>
</defs>
<polygon clip-path="url(#clip7400)" points="
580.683,1275.5 3011.02,1275.5 3011.02,248.572 580.683,248.572 
  " fill="#ffffff" fill-rule="evenodd" fill-opacity="1"/>
<defs>
  <clipPath id="clip7402">
    <rect x="580" y="248" width="2431" height="1028"/>
  </clipPath>
</defs>
<polyline clip-path="url(#clip7402)" style="stroke:#000000; stroke-width:2; stroke-opacity:0.1; fill:none" points="
  649.466,1275.5 649.466,248.572 
  "/>
<polyline clip-path="url(#clip7402)" style="stroke:#000000; stroke-width:2; stroke-opacity:0.1; fill:none" points="
  1286.35,1275.5 1286.35,248.572 
  "/>
<polyline clip-path="url(#clip7402)" style="stroke:#000000; stroke-width:2; stroke-opacity:0.1; fill:none" points="
  1923.23,1275.5 1923.23,248.572 
  "/>
<polyline clip-path="url(#clip7402)" style="stroke:#000000; stroke-width:2; stroke-opacity:0.1; fill:none" points="
  2560.11,1275.5 2560.11,248.572 
  "/>
<polyline clip-path="url(#clip7402)" style="stroke:#000000; stroke-width:2; stroke-opacity:0.1; fill:none" points="
  580.683,1138.79 3011.02,1138.79 
  "/>
<polyline clip-path="url(#clip7402)" style="stroke:#000000; stroke-width:2; stroke-opacity:0.1; fill:none" points="
  580.683,923.505 3011.02,923.505 
  "/>
<polyline clip-path="url(#clip7402)" style="stroke:#000000; stroke-width:2; stroke-opacity:0.1; fill:none" points="
  580.683,708.215 3011.02,708.215 
  "/>
<polyline clip-path="url(#clip7402)" style="stroke:#000000; stroke-width:2; stroke-opacity:0.1; fill:none" points="
  580.683,492.926 3011.02,492.926 
  "/>
<polyline clip-path="url(#clip7402)" style="stroke:#000000; stroke-width:2; stroke-opacity:0.1; fill:none" points="
  580.683,277.636 3011.02,277.636 
  "/>
<polyline clip-path="url(#clip7400)" style="stroke:#000000; stroke-width:4; stroke-opacity:1; fill:none" points="
  580.683,1275.5 3011.02,1275.5 
  "/>
<polyline clip-path="url(#clip7400)" style="stroke:#000000; stroke-width:4; stroke-opacity:1; fill:none" points="
  580.683,1275.5 580.683,248.572 
  "/>
<polyline clip-path="url(#clip7400)" style="stroke:#000000; stroke-width:4; stroke-opacity:1; fill:none" points="
  649.466,1275.5 649.466,1260.1 
  "/>
<polyline clip-path="url(#clip7400)" style="stroke:#000000; stroke-width:4; stroke-opacity:1; fill:none" points="
  1286.35,1275.5 1286.35,1260.1 
  "/>
<polyline clip-path="url(#clip7400)" style="stroke:#000000; stroke-width:4; stroke-opacity:1; fill:none" points="
  1923.23,1275.5 1923.23,1260.1 
  "/>
<polyline clip-path="url(#clip7400)" style="stroke:#000000; stroke-width:4; stroke-opacity:1; fill:none" points="
  2560.11,1275.5 2560.11,1260.1 
  "/>
<polyline clip-path="url(#clip7400)" style="stroke:#000000; stroke-width:4; stroke-opacity:1; fill:none" points="
  580.683,1138.79 617.138,1138.79 
  "/>
<polyline clip-path="url(#clip7400)" style="stroke:#000000; stroke-width:4; stroke-opacity:1; fill:none" points="
  580.683,923.505 617.138,923.505 
  "/>
<polyline clip-path="url(#clip7400)" style="stroke:#000000; stroke-width:4; stroke-opacity:1; fill:none" points="
  580.683,708.215 617.138,708.215 
  "/>
<polyline clip-path="url(#clip7400)" style="stroke:#000000; stroke-width:4; stroke-opacity:1; fill:none" points="
  580.683,492.926 617.138,492.926 
  "/>
<polyline clip-path="url(#clip7400)" style="stroke:#000000; stroke-width:4; stroke-opacity:1; fill:none" points="
  580.683,277.636 617.138,277.636 
  "/>
<g clip-path="url(#clip7400)">
<text style="fill:#000000; fill-opacity:1; font-family:Arial,Helvetica Neue,Helvetica,sans-serif; font-size:71px; text-anchor:middle;" transform="rotate(0, 649.466, 1353.9)" x="649.466" y="1353.9">0</text>
</g>
<g clip-path="url(#clip7400)">
<text style="fill:#000000; fill-opacity:1; font-family:Arial,Helvetica Neue,Helvetica,sans-serif; font-size:71px; text-anchor:middle;" transform="rotate(0, 1286.35, 1353.9)" x="1286.35" y="1353.9">50</text>
</g>
<g clip-path="url(#clip7400)">
<text style="fill:#000000; fill-opacity:1; font-family:Arial,Helvetica Neue,Helvetica,sans-serif; font-size:71px; text-anchor:middle;" transform="rotate(0, 1923.23, 1353.9)" x="1923.23" y="1353.9">100</text>
</g>
<g clip-path="url(#clip7400)">
<text style="fill:#000000; fill-opacity:1; font-family:Arial,Helvetica Neue,Helvetica,sans-serif; font-size:71px; text-anchor:middle;" transform="rotate(0, 2560.11, 1353.9)" x="2560.11" y="1353.9">150</text>
</g>
<g clip-path="url(#clip7400)">
<text style="fill:#000000; fill-opacity:1; font-family:Arial,Helvetica Neue,Helvetica,sans-serif; font-size:71px; text-anchor:end;" transform="rotate(0, 548.683, 1164.79)" x="548.683" y="1164.79">20</text>
</g>
<g clip-path="url(#clip7400)">
<text style="fill:#000000; fill-opacity:1; font-family:Arial,Helvetica Neue,Helvetica,sans-serif; font-size:71px; text-anchor:end;" transform="rotate(0, 548.683, 949.505)" x="548.683" y="949.505">40</text>
</g>
<g clip-path="url(#clip7400)">
<text style="fill:#000000; fill-opacity:1; font-family:Arial,Helvetica Neue,Helvetica,sans-serif; font-size:71px; text-anchor:end;" transform="rotate(0, 548.683, 734.215)" x="548.683" y="734.215">60</text>
</g>
<g clip-path="url(#clip7400)">
<text style="fill:#000000; fill-opacity:1; font-family:Arial,Helvetica Neue,Helvetica,sans-serif; font-size:71px; text-anchor:end;" transform="rotate(0, 548.683, 518.926)" x="548.683" y="518.926">80</text>
</g>
<g clip-path="url(#clip7400)">
<text style="fill:#000000; fill-opacity:1; font-family:Arial,Helvetica Neue,Helvetica,sans-serif; font-size:71px; text-anchor:end;" transform="rotate(0, 548.683, 303.636)" x="548.683" y="303.636">100</text>
</g>
<g clip-path="url(#clip7400)">
<text style="fill:#000000; fill-opacity:1; font-family:Arial,Helvetica Neue,Helvetica,sans-serif; font-size:82px; text-anchor:start;" transform="rotate(0, 584.275, 74.9952)" x="584.275" y="74.9952">Figure 3: Arrival rate </text>
</g>
<g clip-path="url(#clip7400)">
<text style="fill:#000000; fill-opacity:1; font-family:Symbol; font-size:90px; text-anchor:start;" transform="rotate(0, 1370.68, 74.9952)" x="1370.68" y="74.9952">λ</text>
</g>
<g clip-path="url(#clip7400)">
<text style="fill:#000000; fill-opacity:1; font-family:Arial,Helvetica Neue,Helvetica,sans-serif; font-size:82px; text-anchor:start;" transform="rotate(0, 1420.46, 74.9952)" x="1420.46" y="74.9952"> (t) for US Bank Callcenter during Increase</text>
</g>
<g clip-path="url(#clip7400)">
<text style="fill:#000000; fill-opacity:1; font-family:Arial,Helvetica Neue,Helvetica,sans-serif; font-size:95px; text-anchor:middle;" transform="rotate(0, 1795.85, 1469.75)" x="1795.85" y="1469.75">Time (min.)</text>
</g>
<g clip-path="url(#clip7400)">
<text style="fill:#000000; fill-opacity:1; font-family:Arial,Helvetica Neue,Helvetica,sans-serif; font-size:95px; text-anchor:middle;" transform="rotate(-90, 378.453, 762.038)" x="378.453" y="762.038">Arrival rate (1/min.)</text>
</g>
<polyline clip-path="url(#clip7402)" style="stroke:#009af9; stroke-width:4; stroke-opacity:1; fill:none" points="
  649.466,1246.44 662.204,1241.06 674.942,1235.67 687.679,1230.29 700.417,1224.91 713.154,1219.53 725.892,1214.15 738.63,1208.76 751.367,1203.38 764.105,1198 
  776.843,1192.62 789.58,1187.23 802.318,1181.85 815.055,1176.47 827.793,1171.09 840.531,1165.71 853.268,1160.32 866.006,1154.94 878.744,1149.56 891.481,1144.18 
  904.219,1138.79 916.957,1133.41 929.694,1128.03 942.432,1122.65 955.169,1117.27 967.907,1111.88 980.645,1106.5 993.382,1101.12 1006.12,1095.74 1018.86,1090.35 
  1031.6,1084.97 1044.33,1079.59 1057.07,1074.21 1069.81,1068.83 1082.55,1063.44 1095.28,1058.06 1108.02,1052.68 1120.76,1047.3 1133.5,1041.91 1146.23,1036.53 
  1158.97,1031.15 1171.71,1025.77 1184.45,1020.39 1197.18,1015 1209.92,1009.62 1222.66,1004.24 1235.4,998.856 1248.14,993.474 1260.87,988.092 1273.61,982.709 
  1286.35,977.327 1299.09,971.945 1311.82,966.563 1324.56,961.18 1337.3,955.798 1350.04,950.416 1362.77,945.034 1375.51,939.652 1388.25,934.269 1400.99,928.887 
  1413.72,923.505 1426.46,918.123 1439.2,912.74 1451.94,907.358 1464.67,901.976 1477.41,896.594 1490.15,891.211 1502.89,885.829 1515.63,880.447 1528.36,875.065 
  1541.1,869.682 1553.84,864.3 1566.58,858.918 1579.31,853.536 1592.05,848.154 1604.79,842.771 1617.53,837.389 1630.26,832.007 1643,826.625 1655.74,821.242 
  1668.48,815.86 1681.21,810.478 1693.95,805.096 1706.69,799.713 1719.43,794.331 1732.17,788.949 1744.9,783.567 1757.64,778.184 1770.38,772.802 1783.12,767.42 
  1795.85,762.038 1808.59,756.655 1821.33,751.273 1834.07,745.891 1846.8,740.509 1859.54,735.127 1872.28,729.744 1885.02,724.362 1897.75,718.98 1910.49,713.598 
  1923.23,708.215 1935.97,702.833 1948.7,697.451 1961.44,692.069 1974.18,686.686 1986.92,681.304 1999.66,675.922 2012.39,670.54 2025.13,665.157 2037.87,659.775 
  2050.61,654.393 2063.34,649.011 2076.08,643.629 2088.82,638.246 2101.56,632.864 2114.29,627.482 2127.03,622.1 2139.77,616.717 2152.51,611.335 2165.24,605.953 
  2177.98,600.571 2190.72,595.188 2203.46,589.806 2216.2,584.424 2228.93,579.042 2241.67,573.659 2254.41,568.277 2267.15,562.895 2279.88,557.513 2292.62,552.131 
  2305.36,546.748 2318.1,541.366 2330.83,535.984 2343.57,530.602 2356.31,525.219 2369.05,519.837 2381.78,514.455 2394.52,509.073 2407.26,503.69 2420,498.308 
  2432.74,492.926 2445.47,487.544 2458.21,482.161 2470.95,476.779 2483.69,471.397 2496.42,466.015 2509.16,460.633 2521.9,455.25 2534.64,449.868 2547.37,444.486 
  2560.11,439.104 2572.85,433.721 2585.59,428.339 2598.32,422.957 2611.06,417.575 2623.8,412.192 2636.54,406.81 2649.27,401.428 2662.01,396.046 2674.75,390.663 
  2687.49,385.281 2700.23,379.899 2712.96,374.517 2725.7,369.134 2738.44,363.752 2751.18,358.37 2763.91,352.988 2776.65,347.606 2789.39,342.223 2802.13,336.841 
  2814.86,331.459 2827.6,326.077 2840.34,320.694 2853.08,315.312 2865.81,309.93 2878.55,304.548 2891.29,299.165 2904.03,293.783 2916.77,288.401 2929.5,283.019 
  2942.24,277.636 
  "/>
<polygon clip-path="url(#clip7400)" points="
676.683,501.052 1083.95,501.052 1083.95,380.092 676.683,380.092 
  " fill="#ffffff" fill-rule="evenodd" fill-opacity="1"/>
<polyline clip-path="url(#clip7400)" style="stroke:#000000; stroke-width:4; stroke-opacity:1; fill:none" points="
  676.683,501.052 1083.95,501.052 1083.95,380.092 676.683,380.092 676.683,501.052 
  "/>
<polyline clip-path="url(#clip7400)" style="stroke:#009af9; stroke-width:4; stroke-opacity:1; fill:none" points="
  708.683,440.572 900.683,440.572 
  "/>
<g clip-path="url(#clip7400)">
<text style="fill:#000000; fill-opacity:1; font-family:Symbol; font-size:52px; text-anchor:start;" transform="rotate(0, 932.683, 454.224)" x="932.683" y="454.224">λ</text>
</g>
<g clip-path="url(#clip7400)">
<text style="fill:#000000; fill-opacity:1; font-family:Arial,Helvetica Neue,Helvetica,sans-serif; font-size:48px; text-anchor:start;" transform="rotate(0, 961.129, 454.224)" x="961.129" y="454.224"> (t)</text>
</g>
</svg>
