<?xml version="1.0" encoding="utf-8"?>
<svg xmlns="http://www.w3.org/2000/svg" xmlns:xlink="http://www.w3.org/1999/xlink" width="800" height="400" viewBox="0 0 3200 1600">
<defs>
  <clipPath id="clip7600">
    <rect x="0" y="0" width="3200" height="1600"/>
  </clipPath>
</defs>
<polygon clip-path="url(#clip7600)" points="
0,1600 3200,1600 3200,0 0,0 
  " fill="#ffffff" fill-rule="evenodd" fill-opacity="1"/>
<defs>
  <clipPath id="clip7601">
    <rect x="640" y="0" width="2241" height="1600"/>
  </clipPath>
</defs>
<polygon clip-path="url(#clip7600)" points="
620.827,1275.5 3011.02,1275.5 3011.02,188.976 620.827,188.976 
  " fill="#ffffff" fill-rule="evenodd" fill-opacity="1"/>
<defs>
  <clipPath id="clip7602">
    <rect x="620" y="188" width="2391" height="1088"/>
  </clipPath>
</defs>
<polyline clip-path="url(#clip7602)" style="stroke:#000000; stroke-width:2; stroke-opacity:0.1; fill:none" points="
  675.876,1275.5 675.876,188.976 
  "/>
<polyline clip-path="url(#clip7602)" style="stroke:#000000; stroke-width:2; stroke-opacity:0.1; fill:none" points="
  1305.74,1275.5 1305.74,188.976 
  "/>
<polyline clip-path="url(#clip7602)" style="stroke:#000000; stroke-width:2; stroke-opacity:0.1; fill:none" points="
  1935.6,1275.5 1935.6,188.976 
  "/>
<polyline clip-path="url(#clip7602)" style="stroke:#000000; stroke-width:2; stroke-opacity:0.1; fill:none" points="
  2565.46,1275.5 2565.46,188.976 
  "/>
<polyline clip-path="url(#clip7602)" style="stroke:#000000; stroke-width:2; stroke-opacity:0.1; fill:none" points="
  620.827,1244.75 3011.02,1244.75 
  "/>
<polyline clip-path="url(#clip7602)" style="stroke:#000000; stroke-width:2; stroke-opacity:0.1; fill:none" points="
  620.827,1083.85 3011.02,1083.85 
  "/>
<polyline clip-path="url(#clip7602)" style="stroke:#000000; stroke-width:2; stroke-opacity:0.1; fill:none" points="
  620.827,922.943 3011.02,922.943 
  "/>
<polyline clip-path="url(#clip7602)" style="stroke:#000000; stroke-width:2; stroke-opacity:0.1; fill:none" points="
  620.827,762.038 3011.02,762.038 
  "/>
<polyline clip-path="url(#clip7602)" style="stroke:#000000; stroke-width:2; stroke-opacity:0.1; fill:none" points="
  620.827,601.133 3011.02,601.133 
  "/>
<polyline clip-path="url(#clip7602)" style="stroke:#000000; stroke-width:2; stroke-opacity:0.1; fill:none" points="
  620.827,440.229 3011.02,440.229 
  "/>
<polyline clip-path="url(#clip7602)" style="stroke:#000000; stroke-width:2; stroke-opacity:0.1; fill:none" points="
  620.827,279.324 3011.02,279.324 
  "/>
<polyline clip-path="url(#clip7600)" style="stroke:#000000; stroke-width:4; stroke-opacity:1; fill:none" points="
  620.827,1275.5 3011.02,1275.5 
  "/>
<polyline clip-path="url(#clip7600)" style="stroke:#000000; stroke-width:4; stroke-opacity:1; fill:none" points="
  620.827,1275.5 620.827,188.976 
  "/>
<polyline clip-path="url(#clip7600)" style="stroke:#000000; stroke-width:4; stroke-opacity:1; fill:none" points="
  675.876,1275.5 675.876,1259.21 
  "/>
<polyline clip-path="url(#clip7600)" style="stroke:#000000; stroke-width:4; stroke-opacity:1; fill:none" points="
  1305.74,1275.5 1305.74,1259.21 
  "/>
<polyline clip-path="url(#clip7600)" style="stroke:#000000; stroke-width:4; stroke-opacity:1; fill:none" points="
  1935.6,1275.5 1935.6,1259.21 
  "/>
<polyline clip-path="url(#clip7600)" style="stroke:#000000; stroke-width:4; stroke-opacity:1; fill:none" points="
  2565.46,1275.5 2565.46,1259.21 
  "/>
<polyline clip-path="url(#clip7600)" style="stroke:#000000; stroke-width:4; stroke-opacity:1; fill:none" points="
  620.827,1244.75 656.679,1244.75 
  "/>
<polyline clip-path="url(#clip7600)" style="stroke:#000000; stroke-width:4; stroke-opacity:1; fill:none" points="
  620.827,1083.85 656.679,1083.85 
  "/>
<polyline clip-path="url(#clip7600)" style="stroke:#000000; stroke-width:4; stroke-opacity:1; fill:none" points="
  620.827,922.943 656.679,922.943 
  "/>
<polyline clip-path="url(#clip7600)" style="stroke:#000000; stroke-width:4; stroke-opacity:1; fill:none" points="
  620.827,762.038 656.679,762.038 
  "/>
<polyline clip-path="url(#clip7600)" style="stroke:#000000; stroke-width:4; stroke-opacity:1; fill:none" points="
  620.827,601.133 656.679,601.133 
  "/>
<polyline clip-path="url(#clip7600)" style="stroke:#000000; stroke-width:4; stroke-opacity:1; fill:none" points="
  620.827,440.229 656.679,440.229 
  "/>
<polyline clip-path="url(#clip7600)" style="stroke:#000000; stroke-width:4; stroke-opacity:1; fill:none" points="
  620.827,279.324 656.679,279.324 
  "/>
<g clip-path="url(#clip7600)">
<text style="fill:#000000; fill-opacity:1; font-family:Arial,Helvetica Neue,Helvetica,sans-serif; font-size:71px; text-anchor:middle;" transform="rotate(0, 675.876, 1353.9)" x="675.876" y="1353.9">0</text>
</g>
<g clip-path="url(#clip7600)">
<text style="fill:#000000; fill-opacity:1; font-family:Arial,Helvetica Neue,Helvetica,sans-serif; font-size:71px; text-anchor:middle;" transform="rotate(0, 1305.74, 1353.9)" x="1305.74" y="1353.9">50</text>
</g>
<g clip-path="url(#clip7600)">
<text style="fill:#000000; fill-opacity:1; font-family:Arial,Helvetica Neue,Helvetica,sans-serif; font-size:71px; text-anchor:middle;" transform="rotate(0, 1935.6, 1353.9)" x="1935.6" y="1353.9">100</text>
</g>
<g clip-path="url(#clip7600)">
<text style="fill:#000000; fill-opacity:1; font-family:Arial,Helvetica Neue,Helvetica,sans-serif; font-size:71px; text-anchor:middle;" transform="rotate(0, 2565.46, 1353.9)" x="2565.46" y="1353.9">150</text>
</g>
<g clip-path="url(#clip7600)">
<text style="fill:#000000; fill-opacity:1; font-family:Arial,Helvetica Neue,Helvetica,sans-serif; font-size:71px; text-anchor:end;" transform="rotate(0, 588.827, 1270.75)" x="588.827" y="1270.75">0</text>
</g>
<g clip-path="url(#clip7600)">
<text style="fill:#000000; fill-opacity:1; font-family:Arial,Helvetica Neue,Helvetica,sans-serif; font-size:71px; text-anchor:end;" transform="rotate(0, 588.827, 1109.85)" x="588.827" y="1109.85">200</text>
</g>
<g clip-path="url(#clip7600)">
<text style="fill:#000000; fill-opacity:1; font-family:Arial,Helvetica Neue,Helvetica,sans-serif; font-size:71px; text-anchor:end;" transform="rotate(0, 588.827, 948.943)" x="588.827" y="948.943">400</text>
</g>
<g clip-path="url(#clip7600)">
<text style="fill:#000000; fill-opacity:1; font-family:Arial,Helvetica Neue,Helvetica,sans-serif; font-size:71px; text-anchor:end;" transform="rotate(0, 588.827, 788.038)" x="588.827" y="788.038">600</text>
</g>
<g clip-path="url(#clip7600)">
<text style="fill:#000000; fill-opacity:1; font-family:Arial,Helvetica Neue,Helvetica,sans-serif; font-size:71px; text-anchor:end;" transform="rotate(0, 588.827, 627.133)" x="588.827" y="627.133">800</text>
</g>
<g clip-path="url(#clip7600)">
<text style="fill:#000000; fill-opacity:1; font-family:Arial,Helvetica Neue,Helvetica,sans-serif; font-size:71px; text-anchor:end;" transform="rotate(0, 588.827, 466.229)" x="588.827" y="466.229">1000</text>
</g>
<g clip-path="url(#clip7600)">
<text style="fill:#000000; fill-opacity:1; font-family:Arial,Helvetica Neue,Helvetica,sans-serif; font-size:71px; text-anchor:end;" transform="rotate(0, 588.827, 305.324)" x="588.827" y="305.324">1200</text>
</g>
<g clip-path="url(#clip7600)">
<text style="fill:#000000; fill-opacity:1; font-family:Arial,Helvetica Neue,Helvetica,sans-serif; font-size:95px; text-anchor:middle;" transform="rotate(0, 1815.93, 1469.75)" x="1815.93" y="1469.75">Time (min.)</text>
</g>
<g clip-path="url(#clip7600)">
<text style="fill:#000000; fill-opacity:1; font-family:Arial,Helvetica Neue,Helvetica,sans-serif; font-size:95px; text-anchor:middle;" transform="rotate(-90, 378.453, 732.24)" x="378.453" y="732.24">Expected Waiting Time</text>
</g>
<polyline clip-path="url(#clip7602)" style="stroke:#009af9; stroke-width:4; stroke-opacity:1; fill:none" points="
  688.474,1244.75 701.071,1244.75 713.668,1244.75 726.265,1244.75 738.862,1244.75 751.46,1244.75 764.057,1244.75 776.654,1244.75 789.251,1244.75 801.849,1244.75 
  814.446,1244.75 827.043,1244.75 839.64,1244.75 852.238,1244.75 864.835,1244.75 877.432,1244.75 890.029,1244.75 902.626,1244.75 915.224,1244.75 927.821,1244.75 
  940.418,1244.75 953.015,1244.75 965.613,1244.75 978.21,1244.75 990.807,1244.75 1003.4,1244.75 1016,1244.75 1028.6,1244.75 1041.2,1244.75 1053.79,1244.75 
  1066.39,1244.75 1078.99,1244.75 1091.58,1244.75 1104.18,1244.75 1116.78,1244.75 1129.38,1244.75 1141.97,1244.75 1154.57,1244.75 1167.17,1244.75 1179.77,1244.75 
  1192.36,1244.75 1204.96,1244.75 1217.56,1244.75 1230.15,1244.75 1242.75,1244.75 1255.35,1244.75 1267.95,1244.75 1280.54,1244.75 1293.14,1244.75 1305.74,1244.75 
  1318.33,1244.75 1330.93,1244.75 1343.53,1244.75 1356.13,1244.75 1368.72,1244.75 1381.32,1244.75 1393.92,1244.75 1406.52,1244.75 1419.11,1244.75 1431.71,1244.75 
  1444.31,1244.75 1456.9,1244.75 1469.5,1244.75 1482.1,1244.75 1494.7,1244.75 1507.29,1244.75 1519.89,1244.75 1532.49,1244.75 1545.08,1244.75 1557.68,1244.75 
  1570.28,1244.75 1582.88,1244.75 1595.47,1244.75 1608.07,1244.75 1620.67,1244.75 1633.27,1244.75 1645.86,1244.75 1658.46,1244.75 1671.06,1244.75 1683.65,1244.75 
  1696.25,1244.75 1708.85,1244.75 1721.45,1244.75 1734.04,1244.75 1746.64,1244.75 1759.24,1244.74 1771.83,1244.74 1784.43,1244.74 1797.03,1244.74 1809.63,1244.74 
  1822.22,1244.74 1834.82,1244.73 1847.42,1244.73 1860.02,1244.73 1872.61,1244.72 1885.21,1244.72 1897.81,1244.71 1910.4,1244.71 1923,1244.7 1935.6,1244.69 
  1948.2,1244.69 1960.79,1244.68 1973.39,1244.67 1985.99,1244.65 1998.58,1244.64 2011.18,1244.63 2023.78,1244.61 2036.38,1244.59 2048.97,1244.57 2061.57,1244.55 
  2074.17,1244.53 2086.77,1244.5 2099.36,1244.47 2111.96,1244.44 2124.56,1244.4 2137.15,1244.36 2149.75,1244.32 2162.35,1244.27 2174.95,1244.21 2187.54,1244.15 
  2200.14,1244.09 2212.74,1244.01 2225.33,1243.93 2237.93,1243.85 2250.53,1243.75 2263.13,1243.65 2275.72,1243.53 2288.32,1243.4 2300.92,1243.26 2313.52,1243.11 
  2326.11,1242.94 2338.71,1242.76 2351.31,1242.56 2363.9,1242.33 2376.5,1242.09 2389.1,1241.82 2401.7,1241.52 2414.29,1241.2 2426.89,1240.83 2439.49,1240.43 
  2452.08,1239.99 2464.68,1239.5 2477.28,1238.95 2489.88,1238.34 2502.47,1237.66 2515.07,1236.9 2527.67,1236.05 2540.27,1235.08 2552.86,1233.98 2565.46,1232.74 
  2578.06,1231.31 2590.65,1229.66 2603.25,1227.75 2615.85,1225.52 2628.45,1222.87 2641.04,1219.7 2653.64,1215.86 2666.24,1211.11 2678.83,1205.12 2691.43,1197.35 
  2704.03,1186.9 2716.63,1172.19 2729.22,1150.06 2741.82,1113.59 2754.42,1046.95 2767.02,920.646 2779.61,722.876 2792.21,525.922 2804.81,400.493 2817.4,333.985 
  2830,297.345 2842.6,274.972 2855.2,260.014 2867.79,249.326 2880.39,241.31 2892.99,235.075 2905.58,230.087 2918.18,226.006 2930.78,222.605 2943.38,219.727 
  
  "/>
<polyline clip-path="url(#clip7602)" style="stroke:#e26f46; stroke-width:4; stroke-opacity:1; fill:none" points="
  688.474,1244.75 701.071,1244.75 713.668,1244.75 726.265,1244.75 738.862,1244.75 751.46,1244.75 764.057,1244.75 776.654,1244.75 789.251,1244.75 801.849,1244.75 
  814.446,1244.75 827.043,1244.75 839.64,1244.75 852.238,1244.75 864.835,1244.75 877.432,1244.75 890.029,1244.75 902.626,1244.75 915.224,1244.75 927.821,1244.75 
  940.418,1244.75 953.015,1244.75 965.613,1244.75 978.21,1244.75 990.807,1244.75 1003.4,1244.75 1016,1244.75 1028.6,1244.75 1041.2,1244.75 1053.79,1244.75 
  1066.39,1244.75 1078.99,1244.75 1091.58,1244.75 1104.18,1244.75 1116.78,1244.75 1129.38,1244.75 1141.97,1244.75 1154.57,1244.75 1167.17,1244.75 1179.77,1244.75 
  1192.36,1244.75 1204.96,1244.75 1217.56,1244.75 1230.15,1244.75 1242.75,1244.75 1255.35,1244.75 1267.95,1244.75 1280.54,1244.75 1293.14,1244.75 1305.74,1244.75 
  1318.33,1244.75 1330.93,1244.75 1343.53,1244.75 1356.13,1244.75 1368.72,1244.75 1381.32,1244.75 1393.92,1244.75 1406.52,1244.75 1419.11,1244.75 1431.71,1244.75 
  1444.31,1244.75 1456.9,1244.75 1469.5,1244.75 1482.1,1244.75 1494.7,1244.75 1507.29,1244.75 1519.89,1244.75 1532.49,1244.75 1545.08,1244.75 1557.68,1244.75 
  1570.28,1244.75 1582.88,1244.75 1595.47,1244.75 1608.07,1244.75 1620.67,1244.75 1633.27,1244.75 1645.86,1244.75 1658.46,1244.75 1671.06,1244.75 1683.65,1244.75 
  1696.25,1244.75 1708.85,1244.75 1721.45,1244.75 1734.04,1244.75 1746.64,1244.75 1759.24,1244.75 1771.83,1244.74 1784.43,1244.74 1797.03,1244.74 1809.63,1244.74 
  1822.22,1244.74 1834.82,1244.73 1847.42,1244.73 1860.02,1244.73 1872.61,1244.72 1885.21,1244.72 1897.81,1244.72 1910.4,1244.71 1923,1244.7 1935.6,1244.7 
  1948.2,1244.69 1960.79,1244.68 1973.39,1244.67 1985.99,1244.66 1998.58,1244.65 2011.18,1244.63 2023.78,1244.62 2036.38,1244.6 2048.97,1244.58 2061.57,1244.56 
  2074.17,1244.54 2086.77,1244.51 2099.36,1244.48 2111.96,1244.45 2124.56,1244.42 2137.15,1244.38 2149.75,1244.34 2162.35,1244.29 2174.95,1244.24 2187.54,1244.18 
  2200.14,1244.12 2212.74,1244.05 2225.33,1243.98 2237.93,1243.9 2250.53,1243.81 2263.13,1243.71 2275.72,1243.6 2288.32,1243.49 2300.92,1243.36 2313.52,1243.22 
  2326.11,1243.06 2338.71,1242.89 2351.31,1242.71 2363.9,1242.51 2376.5,1242.29 2389.1,1242.05 2401.7,1241.79 2414.29,1241.5 2426.89,1241.18 2439.49,1240.84 
  2452.08,1240.46 2464.68,1240.05 2477.28,1239.59 2489.88,1239.09 2502.47,1238.55 2515.07,1237.95 2527.67,1237.29 2540.27,1236.56 2552.86,1235.76 2565.46,1234.88 
  2578.06,1233.91 2590.65,1232.84 2603.25,1231.65 2615.85,1230.34 2628.45,1228.89 2641.04,1227.29 2653.64,1225.52 2666.24,1223.55 2678.83,1221.36 2691.43,1218.94 
  2704.03,1216.26 2716.63,1213.28 2729.22,1209.97 2741.82,1206.3 2754.42,1202.23 2767.02,1197.73 2779.61,1192.74 2792.21,1187.23 2804.81,1181.14 2817.4,1174.44 
  2830,1167.06 2842.6,1158.97 2855.2,1150.1 2867.79,1140.41 2880.39,1129.86 2892.99,1118.39 2905.58,1105.97 2918.18,1092.54 2930.78,1078.09 2943.38,1062.57 
  
  "/>
<polygon clip-path="url(#clip7600)" points="
716.827,1083.5 1133.14,1083.5 1133.14,902.063 716.827,902.063 
  " fill="#ffffff" fill-rule="evenodd" fill-opacity="1"/>
<polyline clip-path="url(#clip7600)" style="stroke:#000000; stroke-width:4; stroke-opacity:1; fill:none" points="
  716.827,1083.5 1133.14,1083.5 1133.14,902.063 716.827,902.063 716.827,1083.5 
  "/>
<polyline clip-path="url(#clip7600)" style="stroke:#009af9; stroke-width:4; stroke-opacity:1; fill:none" points="
  748.827,962.543 940.827,962.543 
  "/>
<g clip-path="url(#clip7600)">
<text style="fill:#000000; fill-opacity:1; font-family:Arial,Helvetica Neue,Helvetica,sans-serif; font-size:48px; text-anchor:start;" transform="rotate(0, 972.827, 980.043)" x="972.827" y="980.043">PSA</text>
</g>
<polyline clip-path="url(#clip7600)" style="stroke:#e26f46; stroke-width:4; stroke-opacity:1; fill:none" points="
  748.827,1023.02 940.827,1023.02 
  "/>
<g clip-path="url(#clip7600)">
<text style="fill:#000000; fill-opacity:1; font-family:Arial,Helvetica Neue,Helvetica,sans-serif; font-size:48px; text-anchor:start;" transform="rotate(0, 972.827, 1040.52)" x="972.827" y="1040.52">NS</text>
</g>
</svg>
