<?xml version="1.0" encoding="utf-8"?>
<svg xmlns="http://www.w3.org/2000/svg" xmlns:xlink="http://www.w3.org/1999/xlink" width="800" height="400" viewBox="0 0 3200 1600">
<defs>
  <clipPath id="clip6700">
    <rect x="0" y="0" width="3200" height="1600"/>
  </clipPath>
</defs>
<polygon clip-path="url(#clip6700)" points="
0,1600 3200,1600 3200,0 0,0 
  " fill="#ffffff" fill-rule="evenodd" fill-opacity="1"/>
<defs>
  <clipPath id="clip6701">
    <rect x="640" y="0" width="2241" height="1600"/>
  </clipPath>
</defs>
<polygon clip-path="url(#clip6700)" points="
403.131,1275.5 3011.02,1275.5 3011.02,188.976 403.131,188.976 
  " fill="#ffffff" fill-rule="evenodd" fill-opacity="1"/>
<defs>
  <clipPath id="clip6702">
    <rect x="403" y="188" width="2609" height="1088"/>
  </clipPath>
</defs>
<polyline clip-path="url(#clip6702)" style="stroke:#000000; stroke-width:2; stroke-opacity:0.1; fill:none" points="
  463.195,1275.5 463.195,188.976 
  "/>
<polyline clip-path="url(#clip6702)" style="stroke:#000000; stroke-width:2; stroke-opacity:0.1; fill:none" points="
  1150.42,1275.5 1150.42,188.976 
  "/>
<polyline clip-path="url(#clip6702)" style="stroke:#000000; stroke-width:2; stroke-opacity:0.1; fill:none" points="
  1837.65,1275.5 1837.65,188.976 
  "/>
<polyline clip-path="url(#clip6702)" style="stroke:#000000; stroke-width:2; stroke-opacity:0.1; fill:none" points="
  2524.88,1275.5 2524.88,188.976 
  "/>
<polyline clip-path="url(#clip6702)" style="stroke:#000000; stroke-width:2; stroke-opacity:0.1; fill:none" points="
  403.131,1244.75 3011.02,1244.75 
  "/>
<polyline clip-path="url(#clip6702)" style="stroke:#000000; stroke-width:2; stroke-opacity:0.1; fill:none" points="
  403.131,1092.53 3011.02,1092.53 
  "/>
<polyline clip-path="url(#clip6702)" style="stroke:#000000; stroke-width:2; stroke-opacity:0.1; fill:none" points="
  403.131,940.316 3011.02,940.316 
  "/>
<polyline clip-path="url(#clip6702)" style="stroke:#000000; stroke-width:2; stroke-opacity:0.1; fill:none" points="
  403.131,788.098 3011.02,788.098 
  "/>
<polyline clip-path="url(#clip6702)" style="stroke:#000000; stroke-width:2; stroke-opacity:0.1; fill:none" points="
  403.131,635.88 3011.02,635.88 
  "/>
<polyline clip-path="url(#clip6702)" style="stroke:#000000; stroke-width:2; stroke-opacity:0.1; fill:none" points="
  403.131,483.662 3011.02,483.662 
  "/>
<polyline clip-path="url(#clip6702)" style="stroke:#000000; stroke-width:2; stroke-opacity:0.1; fill:none" points="
  403.131,331.444 3011.02,331.444 
  "/>
<polyline clip-path="url(#clip6700)" style="stroke:#000000; stroke-width:4; stroke-opacity:1; fill:none" points="
  403.131,1275.5 3011.02,1275.5 
  "/>
<polyline clip-path="url(#clip6700)" style="stroke:#000000; stroke-width:4; stroke-opacity:1; fill:none" points="
  403.131,1275.5 403.131,188.976 
  "/>
<polyline clip-path="url(#clip6700)" style="stroke:#000000; stroke-width:4; stroke-opacity:1; fill:none" points="
  463.195,1275.5 463.195,1259.21 
  "/>
<polyline clip-path="url(#clip6700)" style="stroke:#000000; stroke-width:4; stroke-opacity:1; fill:none" points="
  1150.42,1275.5 1150.42,1259.21 
  "/>
<polyline clip-path="url(#clip6700)" style="stroke:#000000; stroke-width:4; stroke-opacity:1; fill:none" points="
  1837.65,1275.5 1837.65,1259.21 
  "/>
<polyline clip-path="url(#clip6700)" style="stroke:#000000; stroke-width:4; stroke-opacity:1; fill:none" points="
  2524.88,1275.5 2524.88,1259.21 
  "/>
<polyline clip-path="url(#clip6700)" style="stroke:#000000; stroke-width:4; stroke-opacity:1; fill:none" points="
  403.131,1244.75 442.249,1244.75 
  "/>
<polyline clip-path="url(#clip6700)" style="stroke:#000000; stroke-width:4; stroke-opacity:1; fill:none" points="
  403.131,1092.53 442.249,1092.53 
  "/>
<polyline clip-path="url(#clip6700)" style="stroke:#000000; stroke-width:4; stroke-opacity:1; fill:none" points="
  403.131,940.316 442.249,940.316 
  "/>
<polyline clip-path="url(#clip6700)" style="stroke:#000000; stroke-width:4; stroke-opacity:1; fill:none" points="
  403.131,788.098 442.249,788.098 
  "/>
<polyline clip-path="url(#clip6700)" style="stroke:#000000; stroke-width:4; stroke-opacity:1; fill:none" points="
  403.131,635.88 442.249,635.88 
  "/>
<polyline clip-path="url(#clip6700)" style="stroke:#000000; stroke-width:4; stroke-opacity:1; fill:none" points="
  403.131,483.662 442.249,483.662 
  "/>
<polyline clip-path="url(#clip6700)" style="stroke:#000000; stroke-width:4; stroke-opacity:1; fill:none" points="
  403.131,331.444 442.249,331.444 
  "/>
<g clip-path="url(#clip6700)">
<text style="fill:#000000; fill-opacity:1; font-family:Arial,Helvetica Neue,Helvetica,sans-serif; font-size:71px; text-anchor:middle;" transform="rotate(0, 463.195, 1353.9)" x="463.195" y="1353.9">0</text>
</g>
<g clip-path="url(#clip6700)">
<text style="fill:#000000; fill-opacity:1; font-family:Arial,Helvetica Neue,Helvetica,sans-serif; font-size:71px; text-anchor:middle;" transform="rotate(0, 1150.42, 1353.9)" x="1150.42" y="1353.9">50</text>
</g>
<g clip-path="url(#clip6700)">
<text style="fill:#000000; fill-opacity:1; font-family:Arial,Helvetica Neue,Helvetica,sans-serif; font-size:71px; text-anchor:middle;" transform="rotate(0, 1837.65, 1353.9)" x="1837.65" y="1353.9">100</text>
</g>
<g clip-path="url(#clip6700)">
<text style="fill:#000000; fill-opacity:1; font-family:Arial,Helvetica Neue,Helvetica,sans-serif; font-size:71px; text-anchor:middle;" transform="rotate(0, 2524.88, 1353.9)" x="2524.88" y="1353.9">150</text>
</g>
<g clip-path="url(#clip6700)">
<text style="fill:#000000; fill-opacity:1; font-family:Arial,Helvetica Neue,Helvetica,sans-serif; font-size:71px; text-anchor:end;" transform="rotate(0, 371.131, 1270.75)" x="371.131" y="1270.75">0.0</text>
</g>
<g clip-path="url(#clip6700)">
<text style="fill:#000000; fill-opacity:1; font-family:Arial,Helvetica Neue,Helvetica,sans-serif; font-size:71px; text-anchor:end;" transform="rotate(0, 371.131, 1118.53)" x="371.131" y="1118.53">0.2</text>
</g>
<g clip-path="url(#clip6700)">
<text style="fill:#000000; fill-opacity:1; font-family:Arial,Helvetica Neue,Helvetica,sans-serif; font-size:71px; text-anchor:end;" transform="rotate(0, 371.131, 966.316)" x="371.131" y="966.316">0.4</text>
</g>
<g clip-path="url(#clip6700)">
<text style="fill:#000000; fill-opacity:1; font-family:Arial,Helvetica Neue,Helvetica,sans-serif; font-size:71px; text-anchor:end;" transform="rotate(0, 371.131, 814.098)" x="371.131" y="814.098">0.6</text>
</g>
<g clip-path="url(#clip6700)">
<text style="fill:#000000; fill-opacity:1; font-family:Arial,Helvetica Neue,Helvetica,sans-serif; font-size:71px; text-anchor:end;" transform="rotate(0, 371.131, 661.88)" x="371.131" y="661.88">0.8</text>
</g>
<g clip-path="url(#clip6700)">
<text style="fill:#000000; fill-opacity:1; font-family:Arial,Helvetica Neue,Helvetica,sans-serif; font-size:71px; text-anchor:end;" transform="rotate(0, 371.131, 509.662)" x="371.131" y="509.662">1.0</text>
</g>
<g clip-path="url(#clip6700)">
<text style="fill:#000000; fill-opacity:1; font-family:Arial,Helvetica Neue,Helvetica,sans-serif; font-size:71px; text-anchor:end;" transform="rotate(0, 371.131, 357.444)" x="371.131" y="357.444">1.2</text>
</g>
<g clip-path="url(#clip6700)">
<text style="fill:#000000; fill-opacity:1; font-family:Arial,Helvetica Neue,Helvetica,sans-serif; font-size:95px; text-anchor:middle;" transform="rotate(0, 1707.08, 1469.75)" x="1707.08" y="1469.75">Time (min.)</text>
</g>
<g clip-path="url(#clip6700)">
<text style="fill:#000000; fill-opacity:1; font-family:Arial,Helvetica Neue,Helvetica,sans-serif; font-size:95px; text-anchor:middle;" transform="rotate(-90, 220.973, 732.24)" x="220.973" y="732.24">exp_wait: (PSA-NS)/NS</text>
</g>
<polyline clip-path="url(#clip6702)" style="stroke:#009af9; stroke-width:4; stroke-opacity:1; fill:none" points="
  476.939,1244.75 490.684,771.618 504.428,773.217 518.173,800.334 531.917,825.828 545.662,848.845 559.407,869.681 573.151,888.627 586.896,905.926 600.64,921.781 
  614.385,936.365 628.129,949.823 641.874,962.279 655.618,973.84 669.363,984.599 683.108,994.634 696.852,1004.02 710.597,1012.81 724.341,1021.06 738.086,1028.82 
  751.83,1036.14 765.575,1043.04 779.32,1049.56 793.064,1055.74 806.809,1061.59 820.553,1067.15 834.298,1072.44 848.042,1077.46 861.787,1082.25 875.531,1086.82 
  889.276,1091.18 903.021,1095.35 916.765,1099.34 930.51,1103.16 944.254,1106.82 957.999,1110.32 971.743,1113.69 985.488,1116.93 999.232,1120.04 1012.98,1123.03 
  1026.72,1125.91 1040.47,1128.69 1054.21,1131.36 1067.96,1133.94 1081.7,1136.43 1095.44,1138.83 1109.19,1141.15 1122.93,1143.39 1136.68,1145.56 1150.42,1147.66 
  1164.17,1149.69 1177.91,1151.66 1191.66,1153.57 1205.4,1155.41 1219.15,1157.2 1232.89,1158.94 1246.63,1160.62 1260.38,1162.26 1274.12,1163.84 1287.87,1165.38 
  1301.61,1166.88 1315.36,1168.33 1329.1,1169.74 1342.85,1171.12 1356.59,1172.45 1370.34,1173.75 1384.08,1175.01 1397.82,1176.24 1411.57,1177.44 1425.31,1178.6 
  1439.06,1179.73 1452.8,1180.83 1466.55,1181.91 1480.29,1182.95 1494.04,1183.97 1507.78,1184.96 1521.53,1185.92 1535.27,1186.86 1549.01,1187.77 1562.76,1188.66 
  1576.5,1189.53 1590.25,1190.37 1603.99,1191.19 1617.74,1191.99 1631.48,1192.77 1645.23,1193.53 1658.97,1194.26 1672.72,1194.98 1686.46,1195.67 1700.2,1196.35 
  1713.95,1197 1727.69,1197.64 1741.44,1198.26 1755.18,1198.86 1768.93,1199.44 1782.67,1200 1796.42,1200.54 1810.16,1201.07 1823.91,1201.58 1837.65,1202.07 
  1851.4,1202.54 1865.14,1202.99 1878.88,1203.43 1892.63,1203.84 1906.37,1204.24 1920.12,1204.62 1933.86,1204.99 1947.61,1205.33 1961.35,1205.66 1975.1,1205.96 
  1988.84,1206.25 2002.59,1206.52 2016.33,1206.76 2030.07,1206.99 2043.82,1207.2 2057.56,1207.38 2071.31,1207.55 2085.05,1207.69 2098.8,1207.8 2112.54,1207.9 
  2126.29,1207.96 2140.03,1208.01 2153.78,1208.02 2167.52,1208.01 2181.26,1207.97 2195.01,1207.9 2208.75,1207.79 2222.5,1207.66 2236.24,1207.49 2249.99,1207.28 
  2263.73,1207.03 2277.48,1206.74 2291.22,1206.41 2304.97,1206.03 2318.71,1205.6 2332.45,1205.11 2346.2,1204.57 2359.94,1203.97 2373.69,1203.3 2387.43,1202.56 
  2401.18,1201.74 2414.92,1200.83 2428.67,1199.84 2442.41,1198.74 2456.16,1197.54 2469.9,1196.21 2483.64,1194.76 2497.39,1193.15 2511.13,1191.39 2524.88,1189.45 
  2538.62,1187.31 2552.37,1184.96 2566.11,1182.35 2579.86,1179.47 2593.6,1176.28 2607.35,1172.74 2621.09,1168.81 2634.84,1164.42 2648.58,1159.51 2662.32,1154.02 
  2676.07,1147.85 2689.81,1140.9 2703.56,1133.04 2717.3,1124.12 2731.05,1113.96 2744.79,1102.33 2758.54,1088.96 2772.28,1073.5 2786.03,1055.53 2799.77,1034.5 
  2813.51,1009.7 2827.26,980.205 2841,944.783 2854.75,901.747 2868.49,848.736 2882.24,782.34 2895.98,697.444 2909.73,586.021 2923.47,434.72 2937.22,219.727 
  
  "/>
</svg>
