<?xml version="1.0" encoding="utf-8"?>
<svg xmlns="http://www.w3.org/2000/svg" xmlns:xlink="http://www.w3.org/1999/xlink" width="800" height="500" viewBox="0 0 3200 2000">
<defs>
  <clipPath id="clip1200">
    <rect x="0" y="0" width="3200" height="2000"/>
  </clipPath>
</defs>
<polygon clip-path="url(#clip1200)" points="
0,2000 3200,2000 3200,0 0,0 
  " fill="#ffffff" fill-rule="evenodd" fill-opacity="1"/>
<defs>
  <clipPath id="clip1201">
    <rect x="640" y="0" width="2241" height="2000"/>
  </clipPath>
</defs>
<polygon clip-path="url(#clip1200)" points="
435.778,1649.5 3011.02,1649.5 3011.02,259.534 435.778,259.534 
  " fill="#ffffff" fill-rule="evenodd" fill-opacity="1"/>
<defs>
  <clipPath id="clip1202">
    <rect x="435" y="259" width="2576" height="1391"/>
  </clipPath>
</defs>
<polyline clip-path="url(#clip1202)" style="stroke:#000000; stroke-width:2; stroke-opacity:0.1; fill:none" points="
  506.974,1649.5 506.974,259.534 
  "/>
<polyline clip-path="url(#clip1202)" style="stroke:#000000; stroke-width:2; stroke-opacity:0.1; fill:none" points="
  1013.47,1649.5 1013.47,259.534 
  "/>
<polyline clip-path="url(#clip1202)" style="stroke:#000000; stroke-width:2; stroke-opacity:0.1; fill:none" points="
  1519.96,1649.5 1519.96,259.534 
  "/>
<polyline clip-path="url(#clip1202)" style="stroke:#000000; stroke-width:2; stroke-opacity:0.1; fill:none" points="
  2026.45,1649.5 2026.45,259.534 
  "/>
<polyline clip-path="url(#clip1202)" style="stroke:#000000; stroke-width:2; stroke-opacity:0.1; fill:none" points="
  2532.95,1649.5 2532.95,259.534 
  "/>
<polyline clip-path="url(#clip1202)" style="stroke:#000000; stroke-width:2; stroke-opacity:0.1; fill:none" points="
  435.778,1422.83 3011.02,1422.83 
  "/>
<polyline clip-path="url(#clip1202)" style="stroke:#000000; stroke-width:2; stroke-opacity:0.1; fill:none" points="
  435.778,1141.84 3011.02,1141.84 
  "/>
<polyline clip-path="url(#clip1202)" style="stroke:#000000; stroke-width:2; stroke-opacity:0.1; fill:none" points="
  435.778,860.852 3011.02,860.852 
  "/>
<polyline clip-path="url(#clip1202)" style="stroke:#000000; stroke-width:2; stroke-opacity:0.1; fill:none" points="
  435.778,579.863 3011.02,579.863 
  "/>
<polyline clip-path="url(#clip1202)" style="stroke:#000000; stroke-width:2; stroke-opacity:0.1; fill:none" points="
  435.778,298.873 3011.02,298.873 
  "/>
<polyline clip-path="url(#clip1200)" style="stroke:#000000; stroke-width:4; stroke-opacity:1; fill:none" points="
  435.778,1649.5 3011.02,1649.5 
  "/>
<polyline clip-path="url(#clip1200)" style="stroke:#000000; stroke-width:4; stroke-opacity:1; fill:none" points="
  435.778,1649.5 435.778,259.534 
  "/>
<polyline clip-path="url(#clip1200)" style="stroke:#000000; stroke-width:4; stroke-opacity:1; fill:none" points="
  506.974,1649.5 506.974,1628.65 
  "/>
<polyline clip-path="url(#clip1200)" style="stroke:#000000; stroke-width:4; stroke-opacity:1; fill:none" points="
  1013.47,1649.5 1013.47,1628.65 
  "/>
<polyline clip-path="url(#clip1200)" style="stroke:#000000; stroke-width:4; stroke-opacity:1; fill:none" points="
  1519.96,1649.5 1519.96,1628.65 
  "/>
<polyline clip-path="url(#clip1200)" style="stroke:#000000; stroke-width:4; stroke-opacity:1; fill:none" points="
  2026.45,1649.5 2026.45,1628.65 
  "/>
<polyline clip-path="url(#clip1200)" style="stroke:#000000; stroke-width:4; stroke-opacity:1; fill:none" points="
  2532.95,1649.5 2532.95,1628.65 
  "/>
<polyline clip-path="url(#clip1200)" style="stroke:#000000; stroke-width:4; stroke-opacity:1; fill:none" points="
  435.778,1422.83 474.406,1422.83 
  "/>
<polyline clip-path="url(#clip1200)" style="stroke:#000000; stroke-width:4; stroke-opacity:1; fill:none" points="
  435.778,1141.84 474.406,1141.84 
  "/>
<polyline clip-path="url(#clip1200)" style="stroke:#000000; stroke-width:4; stroke-opacity:1; fill:none" points="
  435.778,860.852 474.406,860.852 
  "/>
<polyline clip-path="url(#clip1200)" style="stroke:#000000; stroke-width:4; stroke-opacity:1; fill:none" points="
  435.778,579.863 474.406,579.863 
  "/>
<polyline clip-path="url(#clip1200)" style="stroke:#000000; stroke-width:4; stroke-opacity:1; fill:none" points="
  435.778,298.873 474.406,298.873 
  "/>
<g clip-path="url(#clip1200)">
<text style="fill:#000000; fill-opacity:1; font-family:Arial,Helvetica Neue,Helvetica,sans-serif; font-size:71px; text-anchor:middle;" transform="rotate(0, 506.974, 1727.9)" x="506.974" y="1727.9">0</text>
</g>
<g clip-path="url(#clip1200)">
<text style="fill:#000000; fill-opacity:1; font-family:Arial,Helvetica Neue,Helvetica,sans-serif; font-size:71px; text-anchor:middle;" transform="rotate(0, 1013.47, 1727.9)" x="1013.47" y="1727.9">300</text>
</g>
<g clip-path="url(#clip1200)">
<text style="fill:#000000; fill-opacity:1; font-family:Arial,Helvetica Neue,Helvetica,sans-serif; font-size:71px; text-anchor:middle;" transform="rotate(0, 1519.96, 1727.9)" x="1519.96" y="1727.9">600</text>
</g>
<g clip-path="url(#clip1200)">
<text style="fill:#000000; fill-opacity:1; font-family:Arial,Helvetica Neue,Helvetica,sans-serif; font-size:71px; text-anchor:middle;" transform="rotate(0, 2026.45, 1727.9)" x="2026.45" y="1727.9">900</text>
</g>
<g clip-path="url(#clip1200)">
<text style="fill:#000000; fill-opacity:1; font-family:Arial,Helvetica Neue,Helvetica,sans-serif; font-size:71px; text-anchor:middle;" transform="rotate(0, 2532.95, 1727.9)" x="2532.95" y="1727.9">1200</text>
</g>
<g clip-path="url(#clip1200)">
<text style="fill:#000000; fill-opacity:1; font-family:Arial,Helvetica Neue,Helvetica,sans-serif; font-size:71px; text-anchor:end;" transform="rotate(0, 403.778, 1448.83)" x="403.778" y="1448.83">20</text>
</g>
<g clip-path="url(#clip1200)">
<text style="fill:#000000; fill-opacity:1; font-family:Arial,Helvetica Neue,Helvetica,sans-serif; font-size:71px; text-anchor:end;" transform="rotate(0, 403.778, 1167.84)" x="403.778" y="1167.84">40</text>
</g>
<g clip-path="url(#clip1200)">
<text style="fill:#000000; fill-opacity:1; font-family:Arial,Helvetica Neue,Helvetica,sans-serif; font-size:71px; text-anchor:end;" transform="rotate(0, 403.778, 886.852)" x="403.778" y="886.852">60</text>
</g>
<g clip-path="url(#clip1200)">
<text style="fill:#000000; fill-opacity:1; font-family:Arial,Helvetica Neue,Helvetica,sans-serif; font-size:71px; text-anchor:end;" transform="rotate(0, 403.778, 605.863)" x="403.778" y="605.863">80</text>
</g>
<g clip-path="url(#clip1200)">
<text style="fill:#000000; fill-opacity:1; font-family:Arial,Helvetica Neue,Helvetica,sans-serif; font-size:71px; text-anchor:end;" transform="rotate(0, 403.778, 324.873)" x="403.778" y="324.873">100</text>
</g>
<g clip-path="url(#clip1200)">
<text style="fill:#000000; fill-opacity:1; font-family:Arial,Helvetica Neue,Helvetica,sans-serif; font-size:82px; text-anchor:start;" transform="rotate(0, 813.801, 74.9952)" x="813.801" y="74.9952">Figure 1: Arrival rate </text>
</g>
<g clip-path="url(#clip1200)">
<text style="fill:#000000; fill-opacity:1; font-family:Symbol; font-size:90px; text-anchor:start;" transform="rotate(0, 1600.21, 74.9952)" x="1600.21" y="74.9952">λ</text>
</g>
<g clip-path="url(#clip1200)">
<text style="fill:#000000; fill-opacity:1; font-family:Arial,Helvetica Neue,Helvetica,sans-serif; font-size:82px; text-anchor:start;" transform="rotate(0, 1649.99, 74.9952)" x="1649.99" y="74.9952"> (t) for US Bank Callcenter</text>
</g>
<g clip-path="url(#clip1200)">
<text style="fill:#000000; fill-opacity:1; font-family:Arial,Helvetica Neue,Helvetica,sans-serif; font-size:95px; text-anchor:middle;" transform="rotate(0, 1723.4, 1843.75)" x="1723.4" y="1843.75">Time (min.)</text>
</g>
<g clip-path="url(#clip1200)">
<text style="fill:#000000; fill-opacity:1; font-family:Arial,Helvetica Neue,Helvetica,sans-serif; font-size:95px; text-anchor:middle;" transform="rotate(-90, 233.548, 954.516)" x="233.548" y="954.516">Arrival rate (1/min.)</text>
</g>
<polyline clip-path="url(#clip1202)" style="stroke:#009af9; stroke-width:4; stroke-opacity:1; fill:none" points="
  508.662,1586.82 510.35,1586.9 512.039,1586.98 513.727,1587.05 515.415,1587.13 517.103,1587.21 518.792,1587.29 520.48,1587.37 522.168,1587.45 523.857,1587.52 
  525.545,1587.6 527.233,1587.68 528.922,1587.76 530.61,1587.84 532.298,1587.91 533.987,1587.99 535.675,1588.07 537.363,1588.15 539.052,1588.23 540.74,1588.3 
  542.428,1588.38 544.116,1588.46 545.805,1588.54 547.493,1588.62 549.181,1588.69 550.87,1588.77 552.558,1588.85 554.246,1588.93 555.935,1589.01 557.623,1589.08 
  559.311,1589.16 561,1589.24 562.688,1589.32 564.376,1589.4 566.064,1589.47 567.753,1589.55 569.441,1589.63 571.129,1589.71 572.818,1589.79 574.506,1589.86 
  576.194,1589.94 577.883,1590.02 579.571,1590.1 581.259,1590.18 582.948,1590.25 584.636,1590.33 586.324,1590.41 588.012,1590.49 589.701,1590.57 591.389,1590.65 
  593.077,1590.72 594.766,1590.8 596.454,1590.88 598.142,1590.96 599.831,1591.04 601.519,1591.11 603.207,1591.19 604.896,1591.27 606.584,1591.35 608.272,1591.43 
  609.961,1591.5 611.649,1591.58 613.337,1591.66 615.025,1591.74 616.714,1591.82 618.402,1591.89 620.09,1591.97 621.779,1592.05 623.467,1592.13 625.155,1592.21 
  626.844,1592.28 628.532,1592.36 630.22,1592.44 631.909,1592.52 633.597,1592.6 635.285,1592.67 636.973,1592.75 638.662,1592.83 640.35,1592.91 642.038,1592.99 
  643.727,1593.06 645.415,1593.14 647.103,1593.22 648.792,1593.3 650.48,1593.38 652.168,1593.46 653.857,1593.53 655.545,1593.61 657.233,1593.69 658.921,1593.77 
  660.61,1593.85 662.298,1593.92 663.986,1594 665.675,1594.08 667.363,1594.16 669.051,1594.24 670.74,1594.31 672.428,1594.39 674.116,1594.47 675.805,1594.55 
  677.493,1594.63 679.181,1594.7 680.87,1594.78 682.558,1594.86 684.246,1594.94 685.934,1595.02 687.623,1595.09 689.311,1595.17 690.999,1595.25 692.688,1595.33 
  694.376,1595.41 696.064,1595.48 697.753,1595.56 699.441,1595.64 701.129,1595.72 702.818,1595.8 704.506,1595.87 706.194,1595.95 707.882,1596.03 709.571,1596.11 
  711.259,1596.19 712.947,1596.26 714.636,1596.34 716.324,1596.42 718.012,1596.5 719.701,1596.58 721.389,1596.66 723.077,1596.73 724.766,1596.81 726.454,1596.89 
  728.142,1596.97 729.83,1597.05 731.519,1597.12 733.207,1597.2 734.895,1597.28 736.584,1597.36 738.272,1597.44 739.96,1597.51 741.649,1597.59 743.337,1597.67 
  745.025,1597.75 746.714,1597.83 748.402,1597.9 750.09,1597.98 751.779,1598.06 753.467,1598.14 755.155,1598.22 756.843,1598.29 758.532,1598.37 760.22,1598.45 
  761.908,1598.53 763.597,1598.61 765.285,1598.68 766.973,1598.76 768.662,1598.84 770.35,1598.92 772.038,1599 773.727,1599.07 775.415,1599.15 777.103,1599.23 
  778.791,1599.31 780.48,1599.39 782.168,1599.47 783.856,1599.54 785.545,1599.62 787.233,1599.7 788.921,1599.78 790.61,1599.86 792.298,1599.93 793.986,1600.01 
  795.675,1600.09 797.363,1600.17 799.051,1600.25 800.739,1600.32 802.428,1600.4 804.116,1600.48 805.804,1600.56 807.493,1600.64 809.181,1600.71 810.869,1600.79 
  812.558,1600.87 814.246,1600.95 815.934,1601.03 817.623,1601.1 819.311,1601.18 820.999,1601.26 822.688,1601.34 824.376,1601.42 826.064,1601.49 827.752,1601.57 
  829.441,1601.65 831.129,1601.73 832.817,1601.81 834.506,1601.88 836.194,1601.96 837.882,1602.04 839.571,1602.12 841.259,1602.2 842.947,1602.28 844.636,1602.35 
  846.324,1602.43 848.012,1602.51 849.7,1602.59 851.389,1602.67 853.077,1602.74 854.765,1602.82 856.454,1602.9 858.142,1602.98 859.83,1603.06 861.519,1603.13 
  863.207,1603.21 864.895,1603.29 866.584,1603.37 868.272,1603.45 869.96,1603.52 871.648,1603.6 873.337,1603.68 875.025,1603.76 876.713,1603.84 878.402,1603.91 
  880.09,1603.99 881.778,1604.07 883.467,1604.15 885.155,1604.23 886.843,1604.3 888.532,1604.38 890.22,1604.46 891.908,1604.54 893.597,1604.62 895.285,1604.69 
  896.973,1604.77 898.661,1604.85 900.35,1604.93 902.038,1605.01 903.726,1605.08 905.415,1605.16 907.103,1605.24 908.791,1605.32 910.48,1605.4 912.168,1605.48 
  913.856,1605.55 915.545,1605.63 917.233,1605.71 918.921,1605.79 920.609,1605.87 922.298,1605.94 923.986,1606.02 925.674,1606.1 927.363,1606.18 929.051,1606.26 
  930.739,1606.33 932.428,1606.41 934.116,1606.49 935.804,1606.57 937.493,1606.65 939.181,1606.72 940.869,1606.8 942.557,1606.88 944.246,1606.96 945.934,1607.04 
  947.622,1607.11 949.311,1607.19 950.999,1607.27 952.687,1607.35 954.376,1607.43 956.064,1607.5 957.752,1607.58 959.441,1607.66 961.129,1607.74 962.817,1607.82 
  964.506,1607.89 966.194,1607.97 967.882,1608.05 969.57,1608.13 971.259,1608.21 972.947,1608.29 974.635,1608.36 976.324,1608.44 978.012,1608.52 979.7,1608.6 
  981.389,1608.68 983.077,1608.75 984.765,1608.83 986.454,1608.91 988.142,1608.99 989.83,1609.07 991.518,1609.14 993.207,1609.22 994.895,1609.3 996.583,1609.38 
  998.272,1609.46 999.96,1609.53 1001.65,1609.61 1003.34,1609.69 1005.02,1609.77 1006.71,1609.85 1008.4,1609.92 1010.09,1610 1011.78,1610.08 1013.47,1610.16 
  1015.15,1609.96 1016.84,1609.77 1018.53,1609.57 1020.22,1609.38 1021.91,1609.18 1023.6,1608.99 1025.28,1608.79 1026.97,1608.6 1028.66,1608.4 1030.35,1608.21 
  1032.04,1608.01 1033.73,1607.82 1035.41,1607.62 1037.1,1607.43 1038.79,1607.23 1040.48,1607.04 1042.17,1606.84 1043.86,1606.65 1045.54,1606.45 1047.23,1606.26 
  1048.92,1606.06 1050.61,1605.87 1052.3,1605.67 1053.99,1605.48 1055.67,1605.28 1057.36,1605.08 1059.05,1604.89 1060.74,1604.69 1062.43,1604.5 1064.12,1604.3 
  1065.8,1604.11 1067.49,1603.91 1069.18,1603.72 1070.87,1603.52 1072.56,1603.33 1074.25,1603.13 1075.93,1602.94 1077.62,1602.74 1079.31,1602.55 1081,1602.35 
  1082.69,1602.16 1084.38,1601.96 1086.06,1601.77 1087.75,1601.57 1089.44,1601.38 1091.13,1601.18 1092.82,1600.99 1094.51,1600.79 1096.19,1600.6 1097.88,1600.4 
  1099.57,1600.21 1101.26,1600.01 1102.95,1599.82 1104.64,1599.62 1106.32,1599.43 1108.01,1599.23 1109.7,1599.04 1111.39,1598.84 1113.08,1598.65 1114.77,1598.45 
  1116.45,1598.26 1118.14,1598.06 1119.83,1597.87 1121.52,1597.67 1123.21,1597.47 1124.89,1597.28 1126.58,1597.08 1128.27,1596.89 1129.96,1596.69 1131.65,1596.5 
  1133.34,1596.3 1135.02,1596.11 1136.71,1595.91 1138.4,1595.72 1140.09,1595.52 1141.78,1595.33 1143.47,1595.13 1145.15,1594.94 1146.84,1594.74 1148.53,1594.55 
  1150.22,1594.35 1151.91,1594.16 1153.6,1593.96 1155.28,1593.77 1156.97,1593.57 1158.66,1593.38 1160.35,1593.18 1162.04,1592.99 1163.73,1592.79 1165.41,1592.6 
  1167.1,1592.4 1168.79,1592.21 1170.48,1592.01 1172.17,1591.82 1173.86,1591.62 1175.54,1591.43 1177.23,1591.23 1178.92,1591.04 1180.61,1590.84 1182.3,1590.65 
  1183.99,1590.45 1185.67,1590.25 1187.36,1590.06 1189.05,1589.86 1190.74,1589.67 1192.43,1589.47 1194.12,1589.28 1195.8,1589.08 1197.49,1588.89 1199.18,1588.69 
  1200.87,1588.5 1202.56,1588.3 1204.25,1588.11 1205.93,1587.91 1207.62,1587.72 1209.31,1587.52 1211,1587.33 1212.69,1587.13 1214.38,1586.94 1216.06,1586.74 
  1217.75,1579.59 1219.44,1572.43 1221.13,1565.28 1222.82,1558.12 1224.51,1550.97 1226.19,1543.81 1227.88,1536.66 1229.57,1529.5 1231.26,1522.35 1232.95,1515.19 
  1234.64,1508.04 1236.32,1500.88 1238.01,1493.73 1239.7,1486.57 1241.39,1479.42 1243.08,1472.27 1244.76,1465.11 1246.45,1457.96 1248.14,1450.8 1249.83,1443.65 
  1251.52,1436.49 1253.21,1429.34 1254.89,1422.18 1256.58,1415.03 1258.27,1407.87 1259.96,1400.72 1261.65,1393.56 1263.34,1386.41 1265.02,1379.25 1266.71,1372.1 
  1268.4,1364.94 1270.09,1357.79 1271.78,1350.63 1273.47,1343.48 1275.15,1336.32 1276.84,1329.17 1278.53,1322.01 1280.22,1314.86 1281.91,1307.7 1283.6,1300.55 
  1285.28,1293.39 1286.97,1286.24 1288.66,1279.08 1290.35,1271.93 1292.04,1264.78 1293.73,1257.62 1295.41,1250.47 1297.1,1243.31 1298.79,1236.16 1300.48,1229 
  1302.17,1221.85 1303.86,1214.69 1305.54,1207.54 1307.23,1200.38 1308.92,1193.23 1310.61,1186.07 1312.3,1178.92 1313.99,1171.76 1315.67,1164.61 1317.36,1157.45 
  1319.05,1150.3 1320.74,1143.14 1322.43,1135.99 1324.12,1128.83 1325.8,1121.68 1327.49,1114.52 1329.18,1107.37 1330.87,1100.21 1332.56,1093.06 1334.25,1085.9 
  1335.93,1078.75 1337.62,1071.59 1339.31,1064.44 1341,1057.29 1342.69,1050.13 1344.38,1042.98 1346.06,1035.82 1347.75,1028.67 1349.44,1021.51 1351.13,1014.36 
  1352.82,1007.2 1354.5,1000.05 1356.19,992.892 1357.88,985.737 1359.57,978.582 1361.26,971.427 1362.95,964.272 1364.63,957.117 1366.32,949.963 1368.01,942.808 
  1369.7,935.653 1371.39,928.498 1373.08,921.343 1374.76,914.188 1376.45,907.034 1378.14,899.879 1379.83,892.724 1381.52,885.569 1383.21,878.414 1384.89,871.259 
  1386.58,864.105 1388.27,856.95 1389.96,849.795 1391.65,842.64 1393.34,835.485 1395.02,828.33 1396.71,821.176 1398.4,814.021 1400.09,806.866 1401.78,799.711 
  1403.47,792.556 1405.15,785.401 1406.84,778.247 1408.53,771.092 1410.22,763.937 1411.91,756.782 1413.6,749.627 1415.28,742.472 1416.97,735.318 1418.66,728.163 
  1420.35,721.008 1422.04,713.853 1423.73,706.698 1425.41,699.544 1427.1,692.389 1428.79,685.234 1430.48,678.079 1432.17,670.924 1433.86,663.769 1435.54,656.615 
  1437.23,649.46 1438.92,642.305 1440.61,635.15 1442.3,627.995 1443.99,620.84 1445.67,613.686 1447.36,606.531 1449.05,599.376 1450.74,592.221 1452.43,585.066 
  1454.12,577.911 1455.8,570.757 1457.49,563.602 1459.18,556.447 1460.87,549.292 1462.56,542.137 1464.25,534.982 1465.93,527.828 1467.62,520.673 1469.31,513.518 
  1471,506.363 1472.69,499.208 1474.37,492.053 1476.06,484.899 1477.75,477.744 1479.44,470.589 1481.13,463.434 1482.82,456.279 1484.5,449.124 1486.19,441.97 
  1487.88,434.815 1489.57,427.66 1491.26,420.505 1492.95,413.35 1494.63,406.195 1496.32,399.041 1498.01,391.886 1499.7,384.731 1501.39,377.576 1503.08,370.421 
  1504.76,363.266 1506.45,356.112 1508.14,348.957 1509.83,341.802 1511.52,334.647 1513.21,327.492 1514.89,320.337 1516.58,313.183 1518.27,306.028 1519.96,298.873 
  1521.65,299.849 1523.34,300.824 1525.02,301.8 1526.71,302.776 1528.4,303.751 1530.09,304.727 1531.78,305.703 1533.47,306.678 1535.15,307.654 1536.84,308.63 
  1538.53,309.605 1540.22,310.581 1541.91,311.557 1543.6,312.532 1545.28,313.508 1546.97,314.484 1548.66,315.459 1550.35,316.435 1552.04,317.41 1553.73,318.386 
  1555.41,319.362 1557.1,320.337 1558.79,321.313 1560.48,322.289 1562.17,323.264 1563.86,324.24 1565.54,325.216 1567.23,326.191 1568.92,327.167 1570.61,328.143 
  1572.3,329.118 1573.99,330.094 1575.67,331.07 1577.36,332.045 1579.05,333.021 1580.74,333.997 1582.43,334.972 1584.12,335.948 1585.8,336.924 1587.49,337.899 
  1589.18,338.875 1590.87,339.851 1592.56,340.826 1594.24,341.802 1595.93,342.778 1597.62,343.753 1599.31,344.729 1601,345.705 1602.69,346.68 1604.37,347.656 
  1606.06,348.632 1607.75,349.607 1609.44,350.583 1611.13,351.559 1612.82,352.534 1614.5,353.51 1616.19,354.486 1617.88,355.461 1619.57,356.437 1621.26,357.412 
  1622.95,358.388 1624.63,359.364 1626.32,360.339 1628.01,361.315 1629.7,362.291 1631.39,363.266 1633.08,364.242 1634.76,365.218 1636.45,366.193 1638.14,367.169 
  1639.83,368.145 1641.52,369.12 1643.21,370.096 1644.89,371.072 1646.58,372.047 1648.27,373.023 1649.96,373.999 1651.65,374.974 1653.34,375.95 1655.02,376.926 
  1656.71,377.901 1658.4,378.877 1660.09,379.853 1661.78,380.828 1663.47,381.804 1665.15,382.78 1666.84,383.755 1668.53,384.731 1670.22,385.707 1671.91,386.682 
  1673.6,387.658 1675.28,388.634 1676.97,389.609 1678.66,390.585 1680.35,391.561 1682.04,392.536 1683.73,393.512 1685.41,394.488 1687.1,395.463 1688.79,396.439 
  1690.48,397.415 1692.17,398.39 1693.86,399.366 1695.54,400.341 1697.23,401.317 1698.92,402.293 1700.61,403.268 1702.3,404.244 1703.99,405.22 1705.67,406.195 
  1707.36,407.171 1709.05,408.147 1710.74,409.122 1712.43,410.098 1714.11,411.074 1715.8,412.049 1717.49,413.025 1719.18,414.001 1720.87,414.976 1722.56,415.952 
  1724.24,416.928 1725.93,417.903 1727.62,418.879 1729.31,419.855 1731,420.83 1732.69,421.806 1734.37,422.782 1736.06,423.757 1737.75,424.733 1739.44,425.709 
  1741.13,426.684 1742.82,427.66 1744.5,428.636 1746.19,429.611 1747.88,430.587 1749.57,431.563 1751.26,432.538 1752.95,433.514 1754.63,434.49 1756.32,435.465 
  1758.01,436.441 1759.7,437.417 1761.39,438.392 1763.08,439.368 1764.76,440.343 1766.45,441.319 1768.14,442.295 1769.83,443.27 1771.52,444.246 1773.21,445.222 
  1774.89,446.197 1776.58,447.173 1778.27,448.149 1779.96,449.124 1781.65,450.1 1783.34,451.076 1785.02,452.051 1786.71,453.027 1788.4,454.003 1790.09,454.978 
  1791.78,455.954 1793.47,456.93 1795.15,457.905 1796.84,458.881 1798.53,459.857 1800.22,460.832 1801.91,461.808 1803.6,462.784 1805.28,463.759 1806.97,464.735 
  1808.66,465.711 1810.35,466.686 1812.04,467.662 1813.73,468.638 1815.41,469.613 1817.1,470.589 1818.79,471.565 1820.48,472.54 1822.17,473.516 1823.86,474.492 
  1825.54,475.467 1827.23,476.443 1828.92,477.419 1830.61,478.394 1832.3,479.37 1833.98,480.346 1835.67,481.321 1837.36,482.297 1839.05,483.272 1840.74,484.248 
  1842.43,485.224 1844.11,486.199 1845.8,487.175 1847.49,488.151 1849.18,489.126 1850.87,490.102 1852.56,491.078 1854.24,492.053 1855.93,493.029 1857.62,494.005 
  1859.31,494.98 1861,495.956 1862.69,496.932 1864.37,497.907 1866.06,498.883 1867.75,499.859 1869.44,500.834 1871.13,501.81 1872.82,502.786 1874.5,503.761 
  1876.19,504.737 1877.88,505.713 1879.57,506.688 1881.26,507.664 1882.95,508.64 1884.63,509.615 1886.32,510.591 1888.01,511.567 1889.7,512.542 1891.39,513.518 
  1893.08,514.494 1894.76,515.469 1896.45,516.445 1898.14,517.421 1899.83,518.396 1901.52,519.372 1903.21,520.348 1904.89,521.323 1906.58,522.299 1908.27,523.274 
  1909.96,524.25 1911.65,525.226 1913.34,526.201 1915.02,527.177 1916.71,528.153 1918.4,529.128 1920.09,530.104 1921.78,531.08 1923.47,532.055 1925.15,533.031 
  1926.84,534.007 1928.53,534.982 1930.22,535.958 1931.91,536.934 1933.6,537.909 1935.28,538.885 1936.97,539.861 1938.66,540.836 1940.35,541.812 1942.04,542.788 
  1943.73,543.763 1945.41,544.739 1947.1,545.715 1948.79,546.69 1950.48,547.666 1952.17,548.642 1953.85,549.617 1955.54,550.593 1957.23,551.569 1958.92,552.544 
  1960.61,553.52 1962.3,554.496 1963.98,555.471 1965.67,556.447 1967.36,557.423 1969.05,558.398 1970.74,559.374 1972.43,560.35 1974.11,561.325 1975.8,562.301 
  1977.49,563.276 1979.18,564.252 1980.87,565.228 1982.56,566.203 1984.24,567.179 1985.93,568.155 1987.62,569.13 1989.31,570.106 1991,571.082 1992.69,572.057 
  1994.37,573.033 1996.06,574.009 1997.75,574.984 1999.44,575.96 2001.13,576.936 2002.82,577.911 2004.5,578.887 2006.19,579.863 2007.88,580.838 2009.57,581.814 
  2011.26,582.79 2012.95,583.765 2014.63,584.741 2016.32,585.717 2018.01,586.692 2019.7,587.668 2021.39,588.644 2023.08,589.619 2024.76,590.595 2026.45,591.571 
  2028.14,592.546 2029.83,593.522 2031.52,594.498 2033.21,595.473 2034.89,596.449 2036.58,597.425 2038.27,598.4 2039.96,599.376 2041.65,600.352 2043.34,601.327 
  2045.02,602.303 2046.71,603.279 2048.4,604.254 2050.09,605.23 2051.78,606.205 2053.47,607.181 2055.15,608.157 2056.84,609.132 2058.53,610.108 2060.22,611.084 
  2061.91,612.059 2063.59,613.035 2065.28,614.011 2066.97,614.986 2068.66,615.962 2070.35,616.938 2072.04,617.913 2073.72,618.889 2075.41,619.865 2077.1,620.84 
  2078.79,621.816 2080.48,622.792 2082.17,623.767 2083.85,624.743 2085.54,625.719 2087.23,626.694 2088.92,627.67 2090.61,628.646 2092.3,629.621 2093.98,630.597 
  2095.67,631.573 2097.36,632.548 2099.05,633.524 2100.74,634.5 2102.43,635.475 2104.11,636.451 2105.8,637.427 2107.49,638.402 2109.18,639.378 2110.87,640.354 
  2112.56,641.329 2114.24,642.305 2115.93,643.281 2117.62,644.256 2119.31,645.232 2121,646.207 2122.69,647.183 2124.37,648.159 2126.06,649.134 2127.75,650.11 
  2129.44,654.988 2131.13,659.867 2132.82,664.745 2134.5,669.623 2136.19,674.502 2137.88,679.38 2139.57,684.258 2141.26,689.136 2142.95,694.015 2144.63,698.893 
  2146.32,703.771 2148.01,708.65 2149.7,713.528 2151.39,718.406 2153.08,723.285 2154.76,728.163 2156.45,733.041 2158.14,737.919 2159.83,742.798 2161.52,747.676 
  2163.21,752.554 2164.89,757.433 2166.58,762.311 2168.27,767.189 2169.96,772.067 2171.65,776.946 2173.34,781.824 2175.02,786.702 2176.71,791.581 2178.4,796.459 
  2180.09,801.337 2181.78,806.216 2183.46,811.094 2185.15,815.972 2186.84,820.85 2188.53,825.729 2190.22,830.607 2191.91,835.485 2193.59,840.364 2195.28,845.242 
  2196.97,850.12 2198.66,854.998 2200.35,859.877 2202.04,864.755 2203.72,869.633 2205.41,874.512 2207.1,879.39 2208.79,884.268 2210.48,889.147 2212.17,894.025 
  2213.85,898.903 2215.54,903.781 2217.23,908.66 2218.92,913.538 2220.61,918.416 2222.3,923.295 2223.98,928.173 2225.67,933.051 2227.36,937.929 2229.05,942.808 
  2230.74,947.686 2232.43,952.564 2234.11,957.443 2235.8,962.321 2237.49,967.199 2239.18,972.078 2240.87,976.956 2242.56,981.834 2244.24,986.712 2245.93,991.591 
  2247.62,996.469 2249.31,1001.35 2251,1006.23 2252.69,1011.1 2254.37,1015.98 2256.06,1020.86 2257.75,1025.74 2259.44,1030.62 2261.13,1035.5 2262.82,1040.37 
  2264.5,1045.25 2266.19,1050.13 2267.88,1055.01 2269.57,1059.89 2271.26,1064.77 2272.95,1069.64 2274.63,1074.52 2276.32,1079.4 2278.01,1084.28 2279.7,1089.16 
  2281.39,1094.03 2283.08,1098.91 2284.76,1103.79 2286.45,1108.67 2288.14,1113.55 2289.83,1118.43 2291.52,1123.3 2293.21,1128.18 2294.89,1133.06 2296.58,1137.94 
  2298.27,1142.82 2299.96,1147.7 2301.65,1152.57 2303.33,1157.45 2305.02,1162.33 2306.71,1167.21 2308.4,1172.09 2310.09,1176.97 2311.78,1181.84 2313.46,1186.72 
  2315.15,1191.6 2316.84,1196.48 2318.53,1201.36 2320.22,1206.24 2321.91,1211.11 2323.59,1215.99 2325.28,1220.87 2326.97,1225.75 2328.66,1230.63 2330.35,1235.51 
  2332.04,1236.55 2333.72,1237.59 2335.41,1238.63 2337.1,1239.67 2338.79,1240.71 2340.48,1241.75 2342.17,1242.79 2343.85,1243.83 2345.54,1244.87 2347.23,1245.91 
  2348.92,1246.95 2350.61,1247.99 2352.3,1249.03 2353.98,1250.08 2355.67,1251.12 2357.36,1252.16 2359.05,1253.2 2360.74,1254.24 2362.43,1255.28 2364.11,1256.32 
  2365.8,1257.36 2367.49,1258.4 2369.18,1259.44 2370.87,1260.48 2372.56,1261.52 2374.24,1262.56 2375.93,1263.6 2377.62,1264.65 2379.31,1265.69 2381,1266.73 
  2382.69,1267.77 2384.37,1268.81 2386.06,1269.85 2387.75,1270.89 2389.44,1271.93 2391.13,1272.97 2392.82,1274.01 2394.5,1275.05 2396.19,1276.09 2397.88,1277.13 
  2399.57,1278.17 2401.26,1279.21 2402.95,1280.26 2404.63,1281.3 2406.32,1282.34 2408.01,1283.38 2409.7,1284.42 2411.39,1285.46 2413.08,1286.5 2414.76,1287.54 
  2416.45,1288.58 2418.14,1289.62 2419.83,1290.66 2421.52,1291.7 2423.2,1292.74 2424.89,1293.78 2426.58,1294.83 2428.27,1295.87 2429.96,1296.91 2431.65,1297.95 
  2433.33,1298.99 2435.02,1300.03 2436.71,1301.07 2438.4,1302.11 2440.09,1303.15 2441.78,1304.19 2443.46,1305.23 2445.15,1306.27 2446.84,1307.31 2448.53,1308.35 
  2450.22,1309.4 2451.91,1310.44 2453.59,1311.48 2455.28,1312.52 2456.97,1313.56 2458.66,1314.6 2460.35,1315.64 2462.04,1316.68 2463.72,1317.72 2465.41,1318.76 
  2467.1,1319.8 2468.79,1320.84 2470.48,1321.88 2472.17,1322.92 2473.85,1323.97 2475.54,1325.01 2477.23,1326.05 2478.92,1327.09 2480.61,1328.13 2482.3,1329.17 
  2483.98,1330.21 2485.67,1331.25 2487.36,1332.29 2489.05,1333.33 2490.74,1334.37 2492.43,1335.41 2494.11,1336.45 2495.8,1337.49 2497.49,1338.53 2499.18,1339.58 
  2500.87,1340.62 2502.56,1341.66 2504.24,1342.7 2505.93,1343.74 2507.62,1344.78 2509.31,1345.82 2511,1346.86 2512.69,1347.9 2514.37,1348.94 2516.06,1349.98 
  2517.75,1351.02 2519.44,1352.06 2521.13,1353.1 2522.82,1354.15 2524.5,1355.19 2526.19,1356.23 2527.88,1357.27 2529.57,1358.31 2531.26,1359.35 2532.95,1360.39 
  2534.63,1361.43 2536.32,1362.47 2538.01,1363.51 2539.7,1364.55 2541.39,1365.59 2543.07,1366.63 2544.76,1367.67 2546.45,1368.72 2548.14,1369.76 2549.83,1370.8 
  2551.52,1371.84 2553.2,1372.88 2554.89,1373.92 2556.58,1374.96 2558.27,1376 2559.96,1377.04 2561.65,1378.08 2563.33,1379.12 2565.02,1380.16 2566.71,1381.2 
  2568.4,1382.24 2570.09,1383.29 2571.78,1384.33 2573.46,1385.37 2575.15,1386.41 2576.84,1387.45 2578.53,1388.49 2580.22,1389.53 2581.91,1390.57 2583.59,1391.61 
  2585.28,1392.65 2586.97,1393.69 2588.66,1394.73 2590.35,1395.77 2592.04,1396.81 2593.72,1397.86 2595.41,1398.9 2597.1,1399.94 2598.79,1400.98 2600.48,1402.02 
  2602.17,1403.06 2603.85,1404.1 2605.54,1405.14 2607.23,1406.18 2608.92,1407.22 2610.61,1408.26 2612.3,1409.3 2613.98,1410.34 2615.67,1411.38 2617.36,1412.42 
  2619.05,1413.47 2620.74,1414.51 2622.43,1415.55 2624.11,1416.59 2625.8,1417.63 2627.49,1418.67 2629.18,1419.71 2630.87,1420.75 2632.56,1421.79 2634.24,1422.83 
  2635.93,1423.87 2637.62,1424.91 2639.31,1425.95 2641,1426.99 2642.69,1428.04 2644.37,1429.08 2646.06,1430.12 2647.75,1431.16 2649.44,1432.2 2651.13,1433.24 
  2652.81,1434.28 2654.5,1435.32 2656.19,1436.36 2657.88,1437.4 2659.57,1438.44 2661.26,1439.48 2662.94,1440.52 2664.63,1441.56 2666.32,1442.61 2668.01,1443.65 
  2669.7,1444.69 2671.39,1445.73 2673.07,1446.77 2674.76,1447.81 2676.45,1448.85 2678.14,1449.89 2679.83,1450.93 2681.52,1451.97 2683.2,1453.01 2684.89,1454.05 
  2686.58,1455.09 2688.27,1456.13 2689.96,1457.18 2691.65,1458.22 2693.33,1459.26 2695.02,1460.3 2696.71,1461.34 2698.4,1462.38 2700.09,1463.42 2701.78,1464.46 
  2703.46,1465.5 2705.15,1466.54 2706.84,1467.58 2708.53,1468.62 2710.22,1469.66 2711.91,1470.7 2713.59,1471.74 2715.28,1472.79 2716.97,1473.83 2718.66,1474.87 
  2720.35,1475.91 2722.04,1476.95 2723.72,1477.99 2725.41,1479.03 2727.1,1480.07 2728.79,1481.11 2730.48,1482.15 2732.17,1483.19 2733.85,1484.23 2735.54,1485.27 
  2737.23,1486.31 2738.92,1487.36 2740.61,1488.4 2742.3,1489.44 2743.98,1490.48 2745.67,1491.52 2747.36,1492.56 2749.05,1493.6 2750.74,1494.64 2752.43,1495.68 
  2754.11,1496.72 2755.8,1497.76 2757.49,1498.8 2759.18,1499.84 2760.87,1500.88 2762.56,1501.93 2764.24,1502.97 2765.93,1504.01 2767.62,1505.05 2769.31,1506.09 
  2771,1507.13 2772.68,1508.17 2774.37,1509.21 2776.06,1510.25 2777.75,1511.29 2779.44,1512.33 2781.13,1513.37 2782.81,1514.41 2784.5,1515.45 2786.19,1516.5 
  2787.88,1517.54 2789.57,1518.58 2791.26,1519.62 2792.94,1520.66 2794.63,1521.7 2796.32,1522.74 2798.01,1523.78 2799.7,1524.82 2801.39,1525.86 2803.07,1526.9 
  2804.76,1527.94 2806.45,1528.98 2808.14,1530.02 2809.83,1531.06 2811.52,1532.11 2813.2,1533.15 2814.89,1534.19 2816.58,1535.23 2818.27,1536.27 2819.96,1537.31 
  2821.65,1538.35 2823.33,1539.39 2825.02,1540.43 2826.71,1541.47 2828.4,1542.51 2830.09,1543.55 2831.78,1544.59 2833.46,1545.63 2835.15,1546.68 2836.84,1547.72 
  2838.53,1548.76 2840.22,1549.8 2841.91,1550.84 2843.59,1551.88 2845.28,1552.92 2846.97,1553.96 2848.66,1555 2850.35,1556.04 2852.04,1557.08 2853.72,1558.12 
  2855.41,1559.16 2857.1,1560.2 2858.79,1561.25 2860.48,1562.29 2862.17,1563.33 2863.85,1564.37 2865.54,1565.41 2867.23,1566.45 2868.92,1567.49 2870.61,1568.53 
  2872.3,1569.57 2873.98,1570.61 2875.67,1571.65 2877.36,1572.69 2879.05,1573.73 2880.74,1574.77 2882.43,1575.82 2884.11,1576.86 2885.8,1577.9 2887.49,1578.94 
  2889.18,1579.98 2890.87,1581.02 2892.55,1582.06 2894.24,1583.1 2895.93,1584.14 2897.62,1585.18 2899.31,1586.22 2901,1587.26 2902.68,1588.3 2904.37,1589.34 
  2906.06,1590.39 2907.75,1591.43 2909.44,1592.47 2911.13,1593.51 2912.81,1594.55 2914.5,1595.59 2916.19,1596.63 2917.88,1597.67 2919.57,1598.71 2921.26,1599.75 
  2922.94,1600.79 2924.63,1601.83 2926.32,1602.87 2928.01,1603.91 2929.7,1604.95 2931.39,1606 2933.07,1607.04 2934.76,1608.08 2936.45,1609.12 2938.14,1610.16 
  
  "/>
<polygon clip-path="url(#clip1200)" points="
435.778,1649.5 3011.02,1649.5 3011.02,259.534 435.778,259.534 
  " fill="#000000" fill-rule="evenodd" fill-opacity="0"/>
<polyline clip-path="url(#clip1202)" style="stroke:#000000; stroke-width:2; stroke-opacity:0.1; fill:none" points="
  506.974,1649.5 506.974,259.534 
  "/>
<polyline clip-path="url(#clip1202)" style="stroke:#000000; stroke-width:2; stroke-opacity:0.1; fill:none" points="
  1013.47,1649.5 1013.47,259.534 
  "/>
<polyline clip-path="url(#clip1202)" style="stroke:#000000; stroke-width:2; stroke-opacity:0.1; fill:none" points="
  1519.96,1649.5 1519.96,259.534 
  "/>
<polyline clip-path="url(#clip1202)" style="stroke:#000000; stroke-width:2; stroke-opacity:0.1; fill:none" points="
  2026.45,1649.5 2026.45,259.534 
  "/>
<polyline clip-path="url(#clip1202)" style="stroke:#000000; stroke-width:2; stroke-opacity:0.1; fill:none" points="
  2532.95,1649.5 2532.95,259.534 
  "/>
<polyline clip-path="url(#clip1202)" style="stroke:#000000; stroke-width:2; stroke-opacity:0.1; fill:none" points="
  435.778,1548.17 3011.02,1548.17 
  "/>
<polyline clip-path="url(#clip1202)" style="stroke:#000000; stroke-width:2; stroke-opacity:0.1; fill:none" points="
  435.778,1309.75 3011.02,1309.75 
  "/>
<polyline clip-path="url(#clip1202)" style="stroke:#000000; stroke-width:2; stroke-opacity:0.1; fill:none" points="
  435.778,1071.34 3011.02,1071.34 
  "/>
<polyline clip-path="url(#clip1202)" style="stroke:#000000; stroke-width:2; stroke-opacity:0.1; fill:none" points="
  435.778,832.924 3011.02,832.924 
  "/>
<polyline clip-path="url(#clip1202)" style="stroke:#000000; stroke-width:2; stroke-opacity:0.1; fill:none" points="
  435.778,594.508 3011.02,594.508 
  "/>
<polyline clip-path="url(#clip1202)" style="stroke:#000000; stroke-width:2; stroke-opacity:0.1; fill:none" points="
  435.778,356.093 3011.02,356.093 
  "/>
<polyline clip-path="url(#clip1200)" style="stroke:#000000; stroke-width:4; stroke-opacity:1; fill:none" points="
  435.778,1649.5 3011.02,1649.5 
  "/>
<polyline clip-path="url(#clip1200)" style="stroke:#000000; stroke-width:4; stroke-opacity:1; fill:none" points="
  3011.02,1649.5 3011.02,259.534 
  "/>
<polyline clip-path="url(#clip1200)" style="stroke:#000000; stroke-width:4; stroke-opacity:1; fill:none" points="
  506.974,1649.5 506.974,1628.65 
  "/>
<polyline clip-path="url(#clip1200)" style="stroke:#000000; stroke-width:4; stroke-opacity:1; fill:none" points="
  1013.47,1649.5 1013.47,1628.65 
  "/>
<polyline clip-path="url(#clip1200)" style="stroke:#000000; stroke-width:4; stroke-opacity:1; fill:none" points="
  1519.96,1649.5 1519.96,1628.65 
  "/>
<polyline clip-path="url(#clip1200)" style="stroke:#000000; stroke-width:4; stroke-opacity:1; fill:none" points="
  2026.45,1649.5 2026.45,1628.65 
  "/>
<polyline clip-path="url(#clip1200)" style="stroke:#000000; stroke-width:4; stroke-opacity:1; fill:none" points="
  2532.95,1649.5 2532.95,1628.65 
  "/>
<polyline clip-path="url(#clip1200)" style="stroke:#000000; stroke-width:4; stroke-opacity:1; fill:none" points="
  3011.02,1548.17 2972.39,1548.17 
  "/>
<polyline clip-path="url(#clip1200)" style="stroke:#000000; stroke-width:4; stroke-opacity:1; fill:none" points="
  3011.02,1309.75 2972.39,1309.75 
  "/>
<polyline clip-path="url(#clip1200)" style="stroke:#000000; stroke-width:4; stroke-opacity:1; fill:none" points="
  3011.02,1071.34 2972.39,1071.34 
  "/>
<polyline clip-path="url(#clip1200)" style="stroke:#000000; stroke-width:4; stroke-opacity:1; fill:none" points="
  3011.02,832.924 2972.39,832.924 
  "/>
<polyline clip-path="url(#clip1200)" style="stroke:#000000; stroke-width:4; stroke-opacity:1; fill:none" points="
  3011.02,594.508 2972.39,594.508 
  "/>
<polyline clip-path="url(#clip1200)" style="stroke:#000000; stroke-width:4; stroke-opacity:1; fill:none" points="
  3011.02,356.093 2972.39,356.093 
  "/>
<g clip-path="url(#clip1200)">
<text style="fill:#000000; fill-opacity:1; font-family:Arial,Helvetica Neue,Helvetica,sans-serif; font-size:71px; text-anchor:middle;" transform="rotate(0, 506.974, 1727.9)" x="506.974" y="1727.9">0</text>
</g>
<g clip-path="url(#clip1200)">
<text style="fill:#000000; fill-opacity:1; font-family:Arial,Helvetica Neue,Helvetica,sans-serif; font-size:71px; text-anchor:middle;" transform="rotate(0, 1013.47, 1727.9)" x="1013.47" y="1727.9">300</text>
</g>
<g clip-path="url(#clip1200)">
<text style="fill:#000000; fill-opacity:1; font-family:Arial,Helvetica Neue,Helvetica,sans-serif; font-size:71px; text-anchor:middle;" transform="rotate(0, 1519.96, 1727.9)" x="1519.96" y="1727.9">600</text>
</g>
<g clip-path="url(#clip1200)">
<text style="fill:#000000; fill-opacity:1; font-family:Arial,Helvetica Neue,Helvetica,sans-serif; font-size:71px; text-anchor:middle;" transform="rotate(0, 2026.45, 1727.9)" x="2026.45" y="1727.9">900</text>
</g>
<g clip-path="url(#clip1200)">
<text style="fill:#000000; fill-opacity:1; font-family:Arial,Helvetica Neue,Helvetica,sans-serif; font-size:71px; text-anchor:middle;" transform="rotate(0, 2532.95, 1727.9)" x="2532.95" y="1727.9">1200</text>
</g>
<g clip-path="url(#clip1200)">
<text style="fill:#000000; fill-opacity:1; font-family:Arial,Helvetica Neue,Helvetica,sans-serif; font-size:71px; text-anchor:start;" transform="rotate(0, 3043.02, 1574.17)" x="3043.02" y="1574.17">50</text>
</g>
<g clip-path="url(#clip1200)">
<text style="fill:#000000; fill-opacity:1; font-family:Arial,Helvetica Neue,Helvetica,sans-serif; font-size:71px; text-anchor:start;" transform="rotate(0, 3043.02, 1335.75)" x="3043.02" y="1335.75">100</text>
</g>
<g clip-path="url(#clip1200)">
<text style="fill:#000000; fill-opacity:1; font-family:Arial,Helvetica Neue,Helvetica,sans-serif; font-size:71px; text-anchor:start;" transform="rotate(0, 3043.02, 1097.34)" x="3043.02" y="1097.34">150</text>
</g>
<g clip-path="url(#clip1200)">
<text style="fill:#000000; fill-opacity:1; font-family:Arial,Helvetica Neue,Helvetica,sans-serif; font-size:71px; text-anchor:start;" transform="rotate(0, 3043.02, 858.924)" x="3043.02" y="858.924">200</text>
</g>
<g clip-path="url(#clip1200)">
<text style="fill:#000000; fill-opacity:1; font-family:Arial,Helvetica Neue,Helvetica,sans-serif; font-size:71px; text-anchor:start;" transform="rotate(0, 3043.02, 620.508)" x="3043.02" y="620.508">250</text>
</g>
<g clip-path="url(#clip1200)">
<text style="fill:#000000; fill-opacity:1; font-family:Arial,Helvetica Neue,Helvetica,sans-serif; font-size:71px; text-anchor:start;" transform="rotate(0, 3043.02, 382.093)" x="3043.02" y="382.093">300</text>
</g>
<g clip-path="url(#clip1200)">
<text style="fill:#000000; fill-opacity:1; font-family:Arial,Helvetica Neue,Helvetica,sans-serif; font-size:95px; text-anchor:middle;" transform="rotate(-90, 3282.25, 954.516)" x="3282.25" y="954.516">Number of Servers</text>
</g>
<polyline clip-path="url(#clip1202)" style="stroke:#ff0000; stroke-width:4; stroke-opacity:1; fill:none" points="
  508.662,1610.16 510.35,1610.16 512.039,1610.16 513.727,1610.16 515.415,1610.16 517.103,1610.16 518.792,1610.16 520.48,1610.16 522.168,1610.16 523.857,1610.16 
  525.545,1610.16 527.233,1610.16 528.922,1610.16 530.61,1610.16 532.298,1610.16 533.987,1610.16 535.675,1610.16 537.363,1610.16 539.052,1610.16 540.74,1610.16 
  542.428,1610.16 544.116,1610.16 545.805,1610.16 547.493,1610.16 549.181,1610.16 550.87,1610.16 552.558,1610.16 554.246,1610.16 555.935,1610.16 557.623,1610.16 
  559.311,1610.16 561,1610.16 562.688,1610.16 564.376,1610.16 566.064,1610.16 567.753,1610.16 569.441,1610.16 571.129,1610.16 572.818,1610.16 574.506,1610.16 
  576.194,1610.16 577.883,1610.16 579.571,1610.16 581.259,1610.16 582.948,1610.16 584.636,1610.16 586.324,1610.16 588.012,1610.16 589.701,1610.16 591.389,1610.16 
  593.077,1610.16 594.766,1610.16 596.454,1610.16 598.142,1610.16 599.831,1610.16 601.519,1610.16 603.207,1610.16 604.896,1610.16 606.584,1610.16 608.272,1610.16 
  609.961,1610.16 611.649,1610.16 613.337,1610.16 615.025,1610.16 616.714,1610.16 618.402,1610.16 620.09,1610.16 621.779,1610.16 623.467,1610.16 625.155,1610.16 
  626.844,1610.16 628.532,1610.16 630.22,1610.16 631.909,1610.16 633.597,1610.16 635.285,1610.16 636.973,1610.16 638.662,1610.16 640.35,1610.16 642.038,1610.16 
  643.727,1610.16 645.415,1610.16 647.103,1610.16 648.792,1610.16 650.48,1610.16 652.168,1610.16 653.857,1610.16 655.545,1610.16 657.233,1610.16 658.921,1610.16 
  660.61,1610.16 662.298,1610.16 663.986,1610.16 665.675,1610.16 667.363,1610.16 669.051,1610.16 670.74,1610.16 672.428,1610.16 674.116,1610.16 675.805,1610.16 
  677.493,1610.16 679.181,1610.16 680.87,1610.16 682.558,1610.16 684.246,1610.16 685.934,1610.16 687.623,1610.16 689.311,1610.16 690.999,1610.16 692.688,1610.16 
  694.376,1610.16 696.064,1610.16 697.753,1610.16 699.441,1610.16 701.129,1610.16 702.818,1610.16 704.506,1610.16 706.194,1610.16 707.882,1610.16 709.571,1610.16 
  711.259,1610.16 712.947,1610.16 714.636,1610.16 716.324,1610.16 718.012,1610.16 719.701,1610.16 721.389,1610.16 723.077,1610.16 724.766,1610.16 726.454,1610.16 
  728.142,1610.16 729.83,1610.16 731.519,1610.16 733.207,1610.16 734.895,1610.16 736.584,1610.16 738.272,1610.16 739.96,1610.16 741.649,1610.16 743.337,1610.16 
  745.025,1610.16 746.714,1610.16 748.402,1610.16 750.09,1610.16 751.779,1610.16 753.467,1610.16 755.155,1610.16 756.843,1610.16 758.532,1610.16 760.22,1610.16 
  761.908,1610.16 763.597,1610.16 765.285,1610.16 766.973,1610.16 768.662,1610.16 770.35,1610.16 772.038,1610.16 773.727,1610.16 775.415,1610.16 777.103,1610.16 
  778.791,1610.16 780.48,1610.16 782.168,1610.16 783.856,1610.16 785.545,1610.16 787.233,1610.16 788.921,1610.16 790.61,1610.16 792.298,1610.16 793.986,1610.16 
  795.675,1610.16 797.363,1610.16 799.051,1610.16 800.739,1610.16 802.428,1610.16 804.116,1610.16 805.804,1610.16 807.493,1610.16 809.181,1610.16 810.869,1610.16 
  812.558,1610.16 814.246,1610.16 815.934,1610.16 817.623,1610.16 819.311,1610.16 820.999,1610.16 822.688,1610.16 824.376,1610.16 826.064,1610.16 827.752,1610.16 
  829.441,1610.16 831.129,1610.16 832.817,1610.16 834.506,1610.16 836.194,1610.16 837.882,1610.16 839.571,1610.16 841.259,1610.16 842.947,1610.16 844.636,1610.16 
  846.324,1610.16 848.012,1610.16 849.7,1610.16 851.389,1610.16 853.077,1610.16 854.765,1610.16 856.454,1610.16 858.142,1610.16 859.83,1610.16 861.519,1610.16 
  863.207,1610.16 864.895,1610.16 866.584,1610.16 868.272,1610.16 869.96,1610.16 871.648,1610.16 873.337,1610.16 875.025,1610.16 876.713,1610.16 878.402,1610.16 
  880.09,1610.16 881.778,1610.16 883.467,1610.16 885.155,1610.16 886.843,1610.16 888.532,1610.16 890.22,1610.16 891.908,1610.16 893.597,1610.16 895.285,1610.16 
  896.973,1610.16 898.661,1610.16 900.35,1610.16 902.038,1610.16 903.726,1610.16 905.415,1610.16 907.103,1610.16 908.791,1610.16 910.48,1610.16 912.168,1610.16 
  913.856,1610.16 915.545,1610.16 917.233,1610.16 918.921,1610.16 920.609,1610.16 922.298,1610.16 923.986,1610.16 925.674,1610.16 927.363,1610.16 929.051,1610.16 
  930.739,1610.16 932.428,1610.16 934.116,1610.16 935.804,1610.16 937.493,1610.16 939.181,1610.16 940.869,1610.16 942.557,1610.16 944.246,1610.16 945.934,1610.16 
  947.622,1610.16 949.311,1610.16 950.999,1610.16 952.687,1610.16 954.376,1610.16 956.064,1610.16 957.752,1610.16 959.441,1610.16 961.129,1610.16 962.817,1610.16 
  964.506,1610.16 966.194,1610.16 967.882,1610.16 969.57,1610.16 971.259,1610.16 972.947,1610.16 974.635,1610.16 976.324,1610.16 978.012,1610.16 979.7,1610.16 
  981.389,1610.16 983.077,1610.16 984.765,1610.16 986.454,1610.16 988.142,1610.16 989.83,1610.16 991.518,1610.16 993.207,1610.16 994.895,1610.16 996.583,1610.16 
  998.272,1610.16 999.96,1610.16 1001.65,1610.16 1003.34,1610.16 1005.02,1610.16 1006.71,1610.16 1008.4,1610.16 1010.09,1610.16 1011.78,1610.16 1013.47,1610.16 
  1015.15,1610.16 1016.84,1610.16 1018.53,1610.16 1020.22,1610.16 1021.91,1610.16 1023.6,1610.16 1025.28,1610.16 1026.97,1610.16 1028.66,1610.16 1030.35,1610.16 
  1032.04,1610.16 1033.73,1610.16 1035.41,1610.16 1037.1,1610.16 1038.79,1610.16 1040.48,1610.16 1042.17,1610.16 1043.86,1610.16 1045.54,1610.16 1047.23,1610.16 
  1048.92,1610.16 1050.61,1610.16 1052.3,1610.16 1053.99,1610.16 1055.67,1610.16 1057.36,1610.16 1059.05,1610.16 1060.74,1610.16 1062.43,1610.16 1064.12,1610.16 
  1065.8,1610.16 1067.49,1610.16 1069.18,1610.16 1070.87,1610.16 1072.56,1610.16 1074.25,1610.16 1075.93,1610.16 1077.62,1610.16 1079.31,1610.16 1081,1610.16 
  1082.69,1610.16 1084.38,1610.16 1086.06,1610.16 1087.75,1610.16 1089.44,1610.16 1091.13,1610.16 1092.82,1610.16 1094.51,1610.16 1096.19,1610.16 1097.88,1610.16 
  1099.57,1610.16 1101.26,1610.16 1102.95,1610.16 1104.64,1610.16 1106.32,1610.16 1108.01,1610.16 1109.7,1610.16 1111.39,1610.16 1113.08,1610.16 1114.77,1610.16 
  1116.45,1610.16 1118.14,1610.16 1119.83,1610.16 1121.52,1610.16 1123.21,1610.16 1124.89,1610.16 1126.58,1610.16 1128.27,1610.16 1129.96,1610.16 1131.65,1610.16 
  1133.34,1610.16 1135.02,1610.16 1136.71,1610.16 1138.4,1610.16 1140.09,1610.16 1141.78,1610.16 1143.47,1610.16 1145.15,1610.16 1146.84,1610.16 1148.53,1610.16 
  1150.22,1610.16 1151.91,1610.16 1153.6,1610.16 1155.28,1610.16 1156.97,1610.16 1158.66,1610.16 1160.35,1610.16 1162.04,1610.16 1163.73,1610.16 1165.41,1610.16 
  1167.1,1610.16 1168.79,1610.16 1170.48,1610.16 1172.17,1610.16 1173.86,1610.16 1175.54,1610.16 1177.23,1610.16 1178.92,1610.16 1180.61,1610.16 1182.3,1610.16 
  1183.99,1610.16 1185.67,1610.16 1187.36,1610.16 1189.05,1610.16 1190.74,1610.16 1192.43,1610.16 1194.12,1610.16 1195.8,1610.16 1197.49,1610.16 1199.18,1610.16 
  1200.87,1610.16 1202.56,1610.16 1204.25,1610.16 1205.93,1610.16 1207.62,1610.16 1209.31,1610.16 1211,1610.16 1212.69,1610.16 1214.38,1610.16 1216.06,1610.16 
  1217.75,828.155 1219.44,828.155 1221.13,828.155 1222.82,828.155 1224.51,828.155 1226.19,828.155 1227.88,828.155 1229.57,828.155 1231.26,828.155 1232.95,828.155 
  1234.64,828.155 1236.32,828.155 1238.01,828.155 1239.7,828.155 1241.39,828.155 1243.08,828.155 1244.76,828.155 1246.45,828.155 1248.14,828.155 1249.83,828.155 
  1251.52,828.155 1253.21,828.155 1254.89,828.155 1256.58,828.155 1258.27,828.155 1259.96,828.155 1261.65,828.155 1263.34,828.155 1265.02,828.155 1266.71,828.155 
  1268.4,828.155 1270.09,828.155 1271.78,828.155 1273.47,828.155 1275.15,828.155 1276.84,828.155 1278.53,828.155 1280.22,828.155 1281.91,828.155 1283.6,828.155 
  1285.28,828.155 1286.97,828.155 1288.66,828.155 1290.35,828.155 1292.04,828.155 1293.73,828.155 1295.41,828.155 1297.1,828.155 1298.79,828.155 1300.48,828.155 
  1302.17,828.155 1303.86,828.155 1305.54,828.155 1307.23,828.155 1308.92,828.155 1310.61,828.155 1312.3,828.155 1313.99,828.155 1315.67,828.155 1317.36,828.155 
  1319.05,828.155 1320.74,828.155 1322.43,828.155 1324.12,828.155 1325.8,828.155 1327.49,828.155 1329.18,828.155 1330.87,828.155 1332.56,828.155 1334.25,828.155 
  1335.93,828.155 1337.62,828.155 1339.31,828.155 1341,828.155 1342.69,828.155 1344.38,828.155 1346.06,828.155 1347.75,828.155 1349.44,828.155 1351.13,828.155 
  1352.82,828.155 1354.5,828.155 1356.19,828.155 1357.88,828.155 1359.57,828.155 1361.26,828.155 1362.95,828.155 1364.63,828.155 1366.32,828.155 1368.01,828.155 
  1369.7,828.155 1371.39,828.155 1373.08,828.155 1374.76,828.155 1376.45,828.155 1378.14,828.155 1379.83,828.155 1381.52,828.155 1383.21,828.155 1384.89,828.155 
  1386.58,828.155 1388.27,828.155 1389.96,828.155 1391.65,828.155 1393.34,828.155 1395.02,828.155 1396.71,828.155 1398.4,828.155 1400.09,828.155 1401.78,828.155 
  1403.47,828.155 1405.15,828.155 1406.84,828.155 1408.53,828.155 1410.22,828.155 1411.91,828.155 1413.6,828.155 1415.28,828.155 1416.97,828.155 1418.66,828.155 
  1420.35,828.155 1422.04,828.155 1423.73,828.155 1425.41,828.155 1427.1,828.155 1428.79,828.155 1430.48,828.155 1432.17,828.155 1433.86,828.155 1435.54,828.155 
  1437.23,828.155 1438.92,828.155 1440.61,828.155 1442.3,828.155 1443.99,828.155 1445.67,828.155 1447.36,828.155 1449.05,828.155 1450.74,828.155 1452.43,828.155 
  1454.12,828.155 1455.8,828.155 1457.49,828.155 1459.18,828.155 1460.87,828.155 1462.56,828.155 1464.25,828.155 1465.93,828.155 1467.62,828.155 1469.31,828.155 
  1471,828.155 1472.69,828.155 1474.37,828.155 1476.06,828.155 1477.75,828.155 1479.44,828.155 1481.13,828.155 1482.82,828.155 1484.5,828.155 1486.19,828.155 
  1487.88,828.155 1489.57,828.155 1491.26,828.155 1492.95,828.155 1494.63,828.155 1496.32,828.155 1498.01,828.155 1499.7,828.155 1501.39,828.155 1503.08,828.155 
  1504.76,828.155 1506.45,828.155 1508.14,828.155 1509.83,828.155 1511.52,828.155 1513.21,828.155 1514.89,828.155 1516.58,828.155 1518.27,828.155 1519.96,828.155 
  1521.65,298.873 1523.34,298.873 1525.02,298.873 1526.71,298.873 1528.4,298.873 1530.09,298.873 1531.78,298.873 1533.47,298.873 1535.15,298.873 1536.84,298.873 
  1538.53,298.873 1540.22,298.873 1541.91,298.873 1543.6,298.873 1545.28,298.873 1546.97,298.873 1548.66,298.873 1550.35,298.873 1552.04,298.873 1553.73,298.873 
  1555.41,298.873 1557.1,298.873 1558.79,298.873 1560.48,298.873 1562.17,298.873 1563.86,298.873 1565.54,298.873 1567.23,298.873 1568.92,298.873 1570.61,298.873 
  1572.3,298.873 1573.99,298.873 1575.67,298.873 1577.36,298.873 1579.05,298.873 1580.74,298.873 1582.43,298.873 1584.12,298.873 1585.8,298.873 1587.49,298.873 
  1589.18,298.873 1590.87,298.873 1592.56,298.873 1594.24,298.873 1595.93,298.873 1597.62,298.873 1599.31,298.873 1601,298.873 1602.69,298.873 1604.37,298.873 
  1606.06,298.873 1607.75,298.873 1609.44,298.873 1611.13,298.873 1612.82,298.873 1614.5,298.873 1616.19,298.873 1617.88,298.873 1619.57,298.873 1621.26,298.873 
  1622.95,298.873 1624.63,298.873 1626.32,298.873 1628.01,298.873 1629.7,298.873 1631.39,298.873 1633.08,298.873 1634.76,298.873 1636.45,298.873 1638.14,298.873 
  1639.83,298.873 1641.52,298.873 1643.21,298.873 1644.89,298.873 1646.58,298.873 1648.27,298.873 1649.96,298.873 1651.65,298.873 1653.34,298.873 1655.02,298.873 
  1656.71,298.873 1658.4,298.873 1660.09,298.873 1661.78,298.873 1663.47,298.873 1665.15,298.873 1666.84,298.873 1668.53,298.873 1670.22,298.873 1671.91,298.873 
  1673.6,298.873 1675.28,298.873 1676.97,298.873 1678.66,298.873 1680.35,298.873 1682.04,298.873 1683.73,298.873 1685.41,298.873 1687.1,298.873 1688.79,298.873 
  1690.48,298.873 1692.17,298.873 1693.86,298.873 1695.54,298.873 1697.23,298.873 1698.92,298.873 1700.61,298.873 1702.3,298.873 1703.99,298.873 1705.67,298.873 
  1707.36,298.873 1709.05,298.873 1710.74,298.873 1712.43,298.873 1714.11,298.873 1715.8,298.873 1717.49,298.873 1719.18,298.873 1720.87,298.873 1722.56,298.873 
  1724.24,298.873 1725.93,298.873 1727.62,298.873 1729.31,298.873 1731,298.873 1732.69,298.873 1734.37,298.873 1736.06,298.873 1737.75,298.873 1739.44,298.873 
  1741.13,298.873 1742.82,298.873 1744.5,298.873 1746.19,298.873 1747.88,298.873 1749.57,298.873 1751.26,298.873 1752.95,298.873 1754.63,298.873 1756.32,298.873 
  1758.01,298.873 1759.7,298.873 1761.39,298.873 1763.08,298.873 1764.76,298.873 1766.45,298.873 1768.14,298.873 1769.83,298.873 1771.52,298.873 1773.21,298.873 
  1774.89,298.873 1776.58,298.873 1778.27,298.873 1779.96,298.873 1781.65,298.873 1783.34,298.873 1785.02,298.873 1786.71,298.873 1788.4,298.873 1790.09,298.873 
  1791.78,298.873 1793.47,298.873 1795.15,298.873 1796.84,298.873 1798.53,298.873 1800.22,298.873 1801.91,298.873 1803.6,298.873 1805.28,298.873 1806.97,298.873 
  1808.66,298.873 1810.35,298.873 1812.04,298.873 1813.73,298.873 1815.41,298.873 1817.1,298.873 1818.79,298.873 1820.48,298.873 1822.17,298.873 1823.86,298.873 
  1825.54,298.873 1827.23,298.873 1828.92,298.873 1830.61,298.873 1832.3,298.873 1833.98,298.873 1835.67,298.873 1837.36,298.873 1839.05,298.873 1840.74,298.873 
  1842.43,298.873 1844.11,298.873 1845.8,298.873 1847.49,298.873 1849.18,298.873 1850.87,298.873 1852.56,298.873 1854.24,298.873 1855.93,298.873 1857.62,298.873 
  1859.31,298.873 1861,298.873 1862.69,298.873 1864.37,298.873 1866.06,298.873 1867.75,298.873 1869.44,298.873 1871.13,298.873 1872.82,298.873 1874.5,298.873 
  1876.19,298.873 1877.88,298.873 1879.57,298.873 1881.26,298.873 1882.95,298.873 1884.63,298.873 1886.32,298.873 1888.01,298.873 1889.7,298.873 1891.39,298.873 
  1893.08,298.873 1894.76,298.873 1896.45,298.873 1898.14,298.873 1899.83,298.873 1901.52,298.873 1903.21,298.873 1904.89,298.873 1906.58,298.873 1908.27,298.873 
  1909.96,298.873 1911.65,298.873 1913.34,298.873 1915.02,298.873 1916.71,298.873 1918.4,298.873 1920.09,298.873 1921.78,298.873 1923.47,298.873 1925.15,298.873 
  1926.84,298.873 1928.53,298.873 1930.22,298.873 1931.91,298.873 1933.6,298.873 1935.28,298.873 1936.97,298.873 1938.66,298.873 1940.35,298.873 1942.04,298.873 
  1943.73,298.873 1945.41,298.873 1947.1,298.873 1948.79,298.873 1950.48,298.873 1952.17,298.873 1953.85,298.873 1955.54,298.873 1957.23,298.873 1958.92,298.873 
  1960.61,298.873 1962.3,298.873 1963.98,298.873 1965.67,298.873 1967.36,298.873 1969.05,298.873 1970.74,298.873 1972.43,298.873 1974.11,298.873 1975.8,298.873 
  1977.49,298.873 1979.18,298.873 1980.87,298.873 1982.56,298.873 1984.24,298.873 1985.93,298.873 1987.62,298.873 1989.31,298.873 1991,298.873 1992.69,298.873 
  1994.37,298.873 1996.06,298.873 1997.75,298.873 1999.44,298.873 2001.13,298.873 2002.82,298.873 2004.5,298.873 2006.19,298.873 2007.88,298.873 2009.57,298.873 
  2011.26,298.873 2012.95,298.873 2014.63,298.873 2016.32,298.873 2018.01,298.873 2019.7,298.873 2021.39,298.873 2023.08,298.873 2024.76,298.873 2026.45,298.873 
  2028.14,298.873 2029.83,298.873 2031.52,298.873 2033.21,298.873 2034.89,298.873 2036.58,298.873 2038.27,298.873 2039.96,298.873 2041.65,298.873 2043.34,298.873 
  2045.02,298.873 2046.71,298.873 2048.4,298.873 2050.09,298.873 2051.78,298.873 2053.47,298.873 2055.15,298.873 2056.84,298.873 2058.53,298.873 2060.22,298.873 
  2061.91,298.873 2063.59,298.873 2065.28,298.873 2066.97,298.873 2068.66,298.873 2070.35,298.873 2072.04,298.873 2073.72,298.873 2075.41,298.873 2077.1,298.873 
  2078.79,298.873 2080.48,298.873 2082.17,298.873 2083.85,298.873 2085.54,298.873 2087.23,298.873 2088.92,298.873 2090.61,298.873 2092.3,298.873 2093.98,298.873 
  2095.67,298.873 2097.36,298.873 2099.05,298.873 2100.74,298.873 2102.43,298.873 2104.11,298.873 2105.8,298.873 2107.49,298.873 2109.18,298.873 2110.87,298.873 
  2112.56,298.873 2114.24,298.873 2115.93,298.873 2117.62,298.873 2119.31,298.873 2121,298.873 2122.69,298.873 2124.37,298.873 2126.06,298.873 2127.75,298.873 
  2129.44,828.155 2131.13,828.155 2132.82,828.155 2134.5,828.155 2136.19,828.155 2137.88,828.155 2139.57,828.155 2141.26,828.155 2142.95,828.155 2144.63,828.155 
  2146.32,828.155 2148.01,828.155 2149.7,828.155 2151.39,828.155 2153.08,828.155 2154.76,828.155 2156.45,828.155 2158.14,828.155 2159.83,828.155 2161.52,828.155 
  2163.21,828.155 2164.89,828.155 2166.58,828.155 2168.27,828.155 2169.96,828.155 2171.65,828.155 2173.34,828.155 2175.02,828.155 2176.71,828.155 2178.4,828.155 
  2180.09,828.155 2181.78,828.155 2183.46,828.155 2185.15,828.155 2186.84,828.155 2188.53,828.155 2190.22,828.155 2191.91,828.155 2193.59,828.155 2195.28,828.155 
  2196.97,828.155 2198.66,828.155 2200.35,828.155 2202.04,828.155 2203.72,828.155 2205.41,828.155 2207.1,828.155 2208.79,828.155 2210.48,828.155 2212.17,828.155 
  2213.85,828.155 2215.54,828.155 2217.23,828.155 2218.92,828.155 2220.61,828.155 2222.3,828.155 2223.98,828.155 2225.67,828.155 2227.36,828.155 2229.05,828.155 
  2230.74,828.155 2232.43,828.155 2234.11,828.155 2235.8,828.155 2237.49,828.155 2239.18,828.155 2240.87,828.155 2242.56,828.155 2244.24,828.155 2245.93,828.155 
  2247.62,828.155 2249.31,828.155 2251,828.155 2252.69,828.155 2254.37,828.155 2256.06,828.155 2257.75,828.155 2259.44,828.155 2261.13,828.155 2262.82,828.155 
  2264.5,828.155 2266.19,828.155 2267.88,828.155 2269.57,828.155 2271.26,828.155 2272.95,828.155 2274.63,828.155 2276.32,828.155 2278.01,828.155 2279.7,828.155 
  2281.39,828.155 2283.08,828.155 2284.76,828.155 2286.45,828.155 2288.14,828.155 2289.83,828.155 2291.52,828.155 2293.21,828.155 2294.89,828.155 2296.58,828.155 
  2298.27,828.155 2299.96,828.155 2301.65,828.155 2303.33,828.155 2305.02,828.155 2306.71,828.155 2308.4,828.155 2310.09,828.155 2311.78,828.155 2313.46,828.155 
  2315.15,828.155 2316.84,828.155 2318.53,828.155 2320.22,828.155 2321.91,828.155 2323.59,828.155 2325.28,828.155 2326.97,828.155 2328.66,828.155 2330.35,828.155 
  2332.04,1386.05 2333.72,1386.05 2335.41,1386.05 2337.1,1386.05 2338.79,1386.05 2340.48,1386.05 2342.17,1386.05 2343.85,1386.05 2345.54,1386.05 2347.23,1386.05 
  2348.92,1386.05 2350.61,1386.05 2352.3,1386.05 2353.98,1386.05 2355.67,1386.05 2357.36,1386.05 2359.05,1386.05 2360.74,1386.05 2362.43,1386.05 2364.11,1386.05 
  2365.8,1386.05 2367.49,1386.05 2369.18,1386.05 2370.87,1386.05 2372.56,1386.05 2374.24,1386.05 2375.93,1386.05 2377.62,1386.05 2379.31,1386.05 2381,1386.05 
  2382.69,1386.05 2384.37,1386.05 2386.06,1386.05 2387.75,1386.05 2389.44,1386.05 2391.13,1386.05 2392.82,1386.05 2394.5,1386.05 2396.19,1386.05 2397.88,1386.05 
  2399.57,1386.05 2401.26,1386.05 2402.95,1386.05 2404.63,1386.05 2406.32,1386.05 2408.01,1386.05 2409.7,1386.05 2411.39,1386.05 2413.08,1386.05 2414.76,1386.05 
  2416.45,1386.05 2418.14,1386.05 2419.83,1386.05 2421.52,1386.05 2423.2,1386.05 2424.89,1386.05 2426.58,1386.05 2428.27,1386.05 2429.96,1386.05 2431.65,1386.05 
  2433.33,1386.05 2435.02,1386.05 2436.71,1386.05 2438.4,1386.05 2440.09,1386.05 2441.78,1386.05 2443.46,1386.05 2445.15,1386.05 2446.84,1386.05 2448.53,1386.05 
  2450.22,1386.05 2451.91,1386.05 2453.59,1386.05 2455.28,1386.05 2456.97,1386.05 2458.66,1386.05 2460.35,1386.05 2462.04,1386.05 2463.72,1386.05 2465.41,1386.05 
  2467.1,1386.05 2468.79,1386.05 2470.48,1386.05 2472.17,1386.05 2473.85,1386.05 2475.54,1386.05 2477.23,1386.05 2478.92,1386.05 2480.61,1386.05 2482.3,1386.05 
  2483.98,1386.05 2485.67,1386.05 2487.36,1386.05 2489.05,1386.05 2490.74,1386.05 2492.43,1386.05 2494.11,1386.05 2495.8,1386.05 2497.49,1386.05 2499.18,1386.05 
  2500.87,1386.05 2502.56,1386.05 2504.24,1386.05 2505.93,1386.05 2507.62,1386.05 2509.31,1386.05 2511,1386.05 2512.69,1386.05 2514.37,1386.05 2516.06,1386.05 
  2517.75,1386.05 2519.44,1386.05 2521.13,1386.05 2522.82,1386.05 2524.5,1386.05 2526.19,1386.05 2527.88,1386.05 2529.57,1386.05 2531.26,1386.05 2532.95,1386.05 
  2534.63,1386.05 2536.32,1386.05 2538.01,1386.05 2539.7,1386.05 2541.39,1386.05 2543.07,1386.05 2544.76,1386.05 2546.45,1386.05 2548.14,1386.05 2549.83,1386.05 
  2551.52,1386.05 2553.2,1386.05 2554.89,1386.05 2556.58,1386.05 2558.27,1386.05 2559.96,1386.05 2561.65,1386.05 2563.33,1386.05 2565.02,1386.05 2566.71,1386.05 
  2568.4,1386.05 2570.09,1386.05 2571.78,1386.05 2573.46,1386.05 2575.15,1386.05 2576.84,1386.05 2578.53,1386.05 2580.22,1386.05 2581.91,1386.05 2583.59,1386.05 
  2585.28,1386.05 2586.97,1386.05 2588.66,1386.05 2590.35,1386.05 2592.04,1386.05 2593.72,1386.05 2595.41,1386.05 2597.1,1386.05 2598.79,1386.05 2600.48,1386.05 
  2602.17,1386.05 2603.85,1386.05 2605.54,1386.05 2607.23,1386.05 2608.92,1386.05 2610.61,1386.05 2612.3,1386.05 2613.98,1386.05 2615.67,1386.05 2617.36,1386.05 
  2619.05,1386.05 2620.74,1386.05 2622.43,1386.05 2624.11,1386.05 2625.8,1386.05 2627.49,1386.05 2629.18,1386.05 2630.87,1386.05 2632.56,1386.05 2634.24,1386.05 
  2635.93,1386.05 2637.62,1386.05 2639.31,1386.05 2641,1386.05 2642.69,1386.05 2644.37,1386.05 2646.06,1386.05 2647.75,1386.05 2649.44,1386.05 2651.13,1386.05 
  2652.81,1386.05 2654.5,1386.05 2656.19,1386.05 2657.88,1386.05 2659.57,1386.05 2661.26,1386.05 2662.94,1386.05 2664.63,1386.05 2666.32,1386.05 2668.01,1386.05 
  2669.7,1386.05 2671.39,1386.05 2673.07,1386.05 2674.76,1386.05 2676.45,1386.05 2678.14,1386.05 2679.83,1386.05 2681.52,1386.05 2683.2,1386.05 2684.89,1386.05 
  2686.58,1386.05 2688.27,1386.05 2689.96,1386.05 2691.65,1386.05 2693.33,1386.05 2695.02,1386.05 2696.71,1386.05 2698.4,1386.05 2700.09,1386.05 2701.78,1386.05 
  2703.46,1386.05 2705.15,1386.05 2706.84,1386.05 2708.53,1386.05 2710.22,1386.05 2711.91,1386.05 2713.59,1386.05 2715.28,1386.05 2716.97,1386.05 2718.66,1386.05 
  2720.35,1386.05 2722.04,1386.05 2723.72,1386.05 2725.41,1386.05 2727.1,1386.05 2728.79,1386.05 2730.48,1386.05 2732.17,1386.05 2733.85,1386.05 2735.54,1386.05 
  2737.23,1386.05 2738.92,1386.05 2740.61,1386.05 2742.3,1386.05 2743.98,1386.05 2745.67,1386.05 2747.36,1386.05 2749.05,1386.05 2750.74,1386.05 2752.43,1386.05 
  2754.11,1386.05 2755.8,1386.05 2757.49,1386.05 2759.18,1386.05 2760.87,1386.05 2762.56,1386.05 2764.24,1386.05 2765.93,1386.05 2767.62,1386.05 2769.31,1386.05 
  2771,1386.05 2772.68,1386.05 2774.37,1386.05 2776.06,1386.05 2777.75,1386.05 2779.44,1386.05 2781.13,1386.05 2782.81,1386.05 2784.5,1386.05 2786.19,1386.05 
  2787.88,1386.05 2789.57,1386.05 2791.26,1386.05 2792.94,1386.05 2794.63,1386.05 2796.32,1386.05 2798.01,1386.05 2799.7,1386.05 2801.39,1386.05 2803.07,1386.05 
  2804.76,1386.05 2806.45,1386.05 2808.14,1386.05 2809.83,1386.05 2811.52,1386.05 2813.2,1386.05 2814.89,1386.05 2816.58,1386.05 2818.27,1386.05 2819.96,1386.05 
  2821.65,1386.05 2823.33,1386.05 2825.02,1386.05 2826.71,1386.05 2828.4,1386.05 2830.09,1386.05 2831.78,1386.05 2833.46,1386.05 2835.15,1386.05 2836.84,1386.05 
  2838.53,1386.05 2840.22,1386.05 2841.91,1386.05 2843.59,1386.05 2845.28,1386.05 2846.97,1386.05 2848.66,1386.05 2850.35,1386.05 2852.04,1386.05 2853.72,1386.05 
  2855.41,1386.05 2857.1,1386.05 2858.79,1386.05 2860.48,1386.05 2862.17,1386.05 2863.85,1386.05 2865.54,1386.05 2867.23,1386.05 2868.92,1386.05 2870.61,1386.05 
  2872.3,1386.05 2873.98,1386.05 2875.67,1386.05 2877.36,1386.05 2879.05,1386.05 2880.74,1386.05 2882.43,1386.05 2884.11,1386.05 2885.8,1386.05 2887.49,1386.05 
  2889.18,1386.05 2890.87,1386.05 2892.55,1386.05 2894.24,1386.05 2895.93,1386.05 2897.62,1386.05 2899.31,1386.05 2901,1386.05 2902.68,1386.05 2904.37,1386.05 
  2906.06,1386.05 2907.75,1386.05 2909.44,1386.05 2911.13,1386.05 2912.81,1386.05 2914.5,1386.05 2916.19,1386.05 2917.88,1386.05 2919.57,1386.05 2921.26,1386.05 
  2922.94,1386.05 2924.63,1386.05 2926.32,1386.05 2928.01,1386.05 2929.7,1386.05 2931.39,1386.05 2933.07,1386.05 2934.76,1386.05 2936.45,1386.05 2938.14,1386.05 
  
  "/>
</svg>
