<?xml version="1.0" encoding="utf-8"?>
<svg xmlns="http://www.w3.org/2000/svg" xmlns:xlink="http://www.w3.org/1999/xlink" width="800" height="500" viewBox="0 0 3200 2000">
<defs>
  <clipPath id="clip6900">
    <rect x="0" y="0" width="3200" height="2000"/>
  </clipPath>
</defs>
<polygon clip-path="url(#clip6900)" points="
0,2000 3200,2000 3200,0 0,0 
  " fill="#ffffff" fill-rule="evenodd" fill-opacity="1"/>
<defs>
  <clipPath id="clip6901">
    <rect x="640" y="0" width="2241" height="2000"/>
  </clipPath>
</defs>
<polygon clip-path="url(#clip6900)" points="
228.963,1825.62 3152.76,1825.62 3152.76,121.456 228.963,121.456 
  " fill="#ffffff" fill-rule="evenodd" fill-opacity="1"/>
<defs>
  <clipPath id="clip6902">
    <rect x="228" y="121" width="2925" height="1705"/>
  </clipPath>
</defs>
<polyline clip-path="url(#clip6902)" style="stroke:#000000; stroke-width:2; stroke-opacity:0.1; fill:none" points="
  309.795,1825.62 309.795,121.456 
  "/>
<polyline clip-path="url(#clip6902)" style="stroke:#000000; stroke-width:2; stroke-opacity:0.1; fill:none" points="
  884.839,1825.62 884.839,121.456 
  "/>
<polyline clip-path="url(#clip6902)" style="stroke:#000000; stroke-width:2; stroke-opacity:0.1; fill:none" points="
  1459.88,1825.62 1459.88,121.456 
  "/>
<polyline clip-path="url(#clip6902)" style="stroke:#000000; stroke-width:2; stroke-opacity:0.1; fill:none" points="
  2034.93,1825.62 2034.93,121.456 
  "/>
<polyline clip-path="url(#clip6902)" style="stroke:#000000; stroke-width:2; stroke-opacity:0.1; fill:none" points="
  2609.97,1825.62 2609.97,121.456 
  "/>
<polyline clip-path="url(#clip6902)" style="stroke:#000000; stroke-width:2; stroke-opacity:0.1; fill:none" points="
  228.963,1547.72 3152.76,1547.72 
  "/>
<polyline clip-path="url(#clip6902)" style="stroke:#000000; stroke-width:2; stroke-opacity:0.1; fill:none" points="
  228.963,1203.21 3152.76,1203.21 
  "/>
<polyline clip-path="url(#clip6902)" style="stroke:#000000; stroke-width:2; stroke-opacity:0.1; fill:none" points="
  228.963,858.702 3152.76,858.702 
  "/>
<polyline clip-path="url(#clip6902)" style="stroke:#000000; stroke-width:2; stroke-opacity:0.1; fill:none" points="
  228.963,514.194 3152.76,514.194 
  "/>
<polyline clip-path="url(#clip6902)" style="stroke:#000000; stroke-width:2; stroke-opacity:0.1; fill:none" points="
  228.963,169.687 3152.76,169.687 
  "/>
<polyline clip-path="url(#clip6900)" style="stroke:#000000; stroke-width:4; stroke-opacity:1; fill:none" points="
  228.963,1825.62 3152.76,1825.62 
  "/>
<polyline clip-path="url(#clip6900)" style="stroke:#000000; stroke-width:4; stroke-opacity:1; fill:none" points="
  228.963,1825.62 228.963,121.456 
  "/>
<polyline clip-path="url(#clip6900)" style="stroke:#000000; stroke-width:4; stroke-opacity:1; fill:none" points="
  309.795,1825.62 309.795,1800.06 
  "/>
<polyline clip-path="url(#clip6900)" style="stroke:#000000; stroke-width:4; stroke-opacity:1; fill:none" points="
  884.839,1825.62 884.839,1800.06 
  "/>
<polyline clip-path="url(#clip6900)" style="stroke:#000000; stroke-width:4; stroke-opacity:1; fill:none" points="
  1459.88,1825.62 1459.88,1800.06 
  "/>
<polyline clip-path="url(#clip6900)" style="stroke:#000000; stroke-width:4; stroke-opacity:1; fill:none" points="
  2034.93,1825.62 2034.93,1800.06 
  "/>
<polyline clip-path="url(#clip6900)" style="stroke:#000000; stroke-width:4; stroke-opacity:1; fill:none" points="
  2609.97,1825.62 2609.97,1800.06 
  "/>
<polyline clip-path="url(#clip6900)" style="stroke:#000000; stroke-width:4; stroke-opacity:1; fill:none" points="
  228.963,1547.72 272.82,1547.72 
  "/>
<polyline clip-path="url(#clip6900)" style="stroke:#000000; stroke-width:4; stroke-opacity:1; fill:none" points="
  228.963,1203.21 272.82,1203.21 
  "/>
<polyline clip-path="url(#clip6900)" style="stroke:#000000; stroke-width:4; stroke-opacity:1; fill:none" points="
  228.963,858.702 272.82,858.702 
  "/>
<polyline clip-path="url(#clip6900)" style="stroke:#000000; stroke-width:4; stroke-opacity:1; fill:none" points="
  228.963,514.194 272.82,514.194 
  "/>
<polyline clip-path="url(#clip6900)" style="stroke:#000000; stroke-width:4; stroke-opacity:1; fill:none" points="
  228.963,169.687 272.82,169.687 
  "/>
<g clip-path="url(#clip6900)">
<text style="fill:#000000; fill-opacity:1; font-family:Arial,Helvetica Neue,Helvetica,sans-serif; font-size:48px; text-anchor:middle;" transform="rotate(0, 309.795, 1883.62)" x="309.795" y="1883.62">0</text>
</g>
<g clip-path="url(#clip6900)">
<text style="fill:#000000; fill-opacity:1; font-family:Arial,Helvetica Neue,Helvetica,sans-serif; font-size:48px; text-anchor:middle;" transform="rotate(0, 884.839, 1883.62)" x="884.839" y="1883.62">300</text>
</g>
<g clip-path="url(#clip6900)">
<text style="fill:#000000; fill-opacity:1; font-family:Arial,Helvetica Neue,Helvetica,sans-serif; font-size:48px; text-anchor:middle;" transform="rotate(0, 1459.88, 1883.62)" x="1459.88" y="1883.62">600</text>
</g>
<g clip-path="url(#clip6900)">
<text style="fill:#000000; fill-opacity:1; font-family:Arial,Helvetica Neue,Helvetica,sans-serif; font-size:48px; text-anchor:middle;" transform="rotate(0, 2034.93, 1883.62)" x="2034.93" y="1883.62">900</text>
</g>
<g clip-path="url(#clip6900)">
<text style="fill:#000000; fill-opacity:1; font-family:Arial,Helvetica Neue,Helvetica,sans-serif; font-size:48px; text-anchor:middle;" transform="rotate(0, 2609.97, 1883.62)" x="2609.97" y="1883.62">1200</text>
</g>
<g clip-path="url(#clip6900)">
<text style="fill:#000000; fill-opacity:1; font-family:Arial,Helvetica Neue,Helvetica,sans-serif; font-size:48px; text-anchor:end;" transform="rotate(0, 196.963, 1565.22)" x="196.963" y="1565.22">20</text>
</g>
<g clip-path="url(#clip6900)">
<text style="fill:#000000; fill-opacity:1; font-family:Arial,Helvetica Neue,Helvetica,sans-serif; font-size:48px; text-anchor:end;" transform="rotate(0, 196.963, 1220.71)" x="196.963" y="1220.71">40</text>
</g>
<g clip-path="url(#clip6900)">
<text style="fill:#000000; fill-opacity:1; font-family:Arial,Helvetica Neue,Helvetica,sans-serif; font-size:48px; text-anchor:end;" transform="rotate(0, 196.963, 876.202)" x="196.963" y="876.202">60</text>
</g>
<g clip-path="url(#clip6900)">
<text style="fill:#000000; fill-opacity:1; font-family:Arial,Helvetica Neue,Helvetica,sans-serif; font-size:48px; text-anchor:end;" transform="rotate(0, 196.963, 531.694)" x="196.963" y="531.694">80</text>
</g>
<g clip-path="url(#clip6900)">
<text style="fill:#000000; fill-opacity:1; font-family:Arial,Helvetica Neue,Helvetica,sans-serif; font-size:48px; text-anchor:end;" transform="rotate(0, 196.963, 187.187)" x="196.963" y="187.187">100</text>
</g>
<g clip-path="url(#clip6900)">
<text style="fill:#000000; fill-opacity:1; font-family:Arial,Helvetica Neue,Helvetica,sans-serif; font-size:82px; text-anchor:start;" transform="rotate(0, 781.26, 74.9952)" x="781.26" y="74.9952">Figure 1: Arrival rate </text>
</g>
<g clip-path="url(#clip6900)">
<text style="fill:#000000; fill-opacity:1; font-family:Symbol; font-size:90px; text-anchor:start;" transform="rotate(0, 1567.67, 74.9952)" x="1567.67" y="74.9952">λ</text>
</g>
<g clip-path="url(#clip6900)">
<text style="fill:#000000; fill-opacity:1; font-family:Arial,Helvetica Neue,Helvetica,sans-serif; font-size:82px; text-anchor:start;" transform="rotate(0, 1617.45, 74.9952)" x="1617.45" y="74.9952"> (t) for US Bank Callcenter</text>
</g>
<g clip-path="url(#clip6900)">
<text style="fill:#000000; fill-opacity:1; font-family:Arial,Helvetica Neue,Helvetica,sans-serif; font-size:66px; text-anchor:middle;" transform="rotate(0, 1690.86, 1967.48)" x="1690.86" y="1967.48">Time (min)</text>
</g>
<g clip-path="url(#clip6900)">
<text style="fill:#000000; fill-opacity:1; font-family:Arial,Helvetica Neue,Helvetica,sans-serif; font-size:66px; text-anchor:start;" transform="rotate(-90, 74.697, 1162.26)" x="74.697" y="1162.26">Arrival rate </text>
</g>
<g clip-path="url(#clip6900)">
<text style="fill:#000000; fill-opacity:1; font-family:Symbol; font-size:72px; text-anchor:start;" transform="rotate(-90, 74.697, 823.928)" x="74.697" y="823.928">λ</text>
</g>
<polyline clip-path="url(#clip6902)" style="stroke:#009af9; stroke-width:4; stroke-opacity:1; fill:none" points="
  311.712,1748.77 313.629,1748.87 315.546,1748.97 317.462,1749.06 319.379,1749.16 321.296,1749.25 323.213,1749.35 325.13,1749.44 327.047,1749.54 328.963,1749.64 
  330.88,1749.73 332.797,1749.83 334.714,1749.92 336.631,1750.02 338.547,1750.11 340.464,1750.21 342.381,1750.31 344.298,1750.4 346.215,1750.5 348.131,1750.59 
  350.048,1750.69 351.965,1750.78 353.882,1750.88 355.799,1750.98 357.716,1751.07 359.632,1751.17 361.549,1751.26 363.466,1751.36 365.383,1751.45 367.3,1751.55 
  369.216,1751.65 371.133,1751.74 373.05,1751.84 374.967,1751.93 376.884,1752.03 378.801,1752.12 380.717,1752.22 382.634,1752.32 384.551,1752.41 386.468,1752.51 
  388.385,1752.6 390.301,1752.7 392.218,1752.79 394.135,1752.89 396.052,1752.99 397.969,1753.08 399.885,1753.18 401.802,1753.27 403.719,1753.37 405.636,1753.46 
  407.553,1753.56 409.47,1753.65 411.386,1753.75 413.303,1753.85 415.22,1753.94 417.137,1754.04 419.054,1754.13 420.97,1754.23 422.887,1754.32 424.804,1754.42 
  426.721,1754.52 428.638,1754.61 430.554,1754.71 432.471,1754.8 434.388,1754.9 436.305,1754.99 438.222,1755.09 440.139,1755.19 442.055,1755.28 443.972,1755.38 
  445.889,1755.47 447.806,1755.57 449.723,1755.66 451.639,1755.76 453.556,1755.86 455.473,1755.95 457.39,1756.05 459.307,1756.14 461.224,1756.24 463.14,1756.33 
  465.057,1756.43 466.974,1756.53 468.891,1756.62 470.808,1756.72 472.724,1756.81 474.641,1756.91 476.558,1757 478.475,1757.1 480.392,1757.2 482.308,1757.29 
  484.225,1757.39 486.142,1757.48 488.059,1757.58 489.976,1757.67 491.893,1757.77 493.809,1757.87 495.726,1757.96 497.643,1758.06 499.56,1758.15 501.477,1758.25 
  503.393,1758.34 505.31,1758.44 507.227,1758.54 509.144,1758.63 511.061,1758.73 512.977,1758.82 514.894,1758.92 516.811,1759.01 518.728,1759.11 520.645,1759.21 
  522.562,1759.3 524.478,1759.4 526.395,1759.49 528.312,1759.59 530.229,1759.68 532.146,1759.78 534.062,1759.88 535.979,1759.97 537.896,1760.07 539.813,1760.16 
  541.73,1760.26 543.646,1760.35 545.563,1760.45 547.48,1760.55 549.397,1760.64 551.314,1760.74 553.231,1760.83 555.147,1760.93 557.064,1761.02 558.981,1761.12 
  560.898,1761.21 562.815,1761.31 564.731,1761.41 566.648,1761.5 568.565,1761.6 570.482,1761.69 572.399,1761.79 574.316,1761.88 576.232,1761.98 578.149,1762.08 
  580.066,1762.17 581.983,1762.27 583.9,1762.36 585.816,1762.46 587.733,1762.55 589.65,1762.65 591.567,1762.75 593.484,1762.84 595.4,1762.94 597.317,1763.03 
  599.234,1763.13 601.151,1763.22 603.068,1763.32 604.985,1763.42 606.901,1763.51 608.818,1763.61 610.735,1763.7 612.652,1763.8 614.569,1763.89 616.485,1763.99 
  618.402,1764.09 620.319,1764.18 622.236,1764.28 624.153,1764.37 626.069,1764.47 627.986,1764.56 629.903,1764.66 631.82,1764.76 633.737,1764.85 635.654,1764.95 
  637.57,1765.04 639.487,1765.14 641.404,1765.23 643.321,1765.33 645.238,1765.43 647.154,1765.52 649.071,1765.62 650.988,1765.71 652.905,1765.81 654.822,1765.9 
  656.739,1766 658.655,1766.1 660.572,1766.19 662.489,1766.29 664.406,1766.38 666.323,1766.48 668.239,1766.57 670.156,1766.67 672.073,1766.77 673.99,1766.86 
  675.907,1766.96 677.823,1767.05 679.74,1767.15 681.657,1767.24 683.574,1767.34 685.491,1767.44 687.408,1767.53 689.324,1767.63 691.241,1767.72 693.158,1767.82 
  695.075,1767.91 696.992,1768.01 698.908,1768.11 700.825,1768.2 702.742,1768.3 704.659,1768.39 706.576,1768.49 708.492,1768.58 710.409,1768.68 712.326,1768.77 
  714.243,1768.87 716.16,1768.97 718.077,1769.06 719.993,1769.16 721.91,1769.25 723.827,1769.35 725.744,1769.44 727.661,1769.54 729.577,1769.64 731.494,1769.73 
  733.411,1769.83 735.328,1769.92 737.245,1770.02 739.162,1770.11 741.078,1770.21 742.995,1770.31 744.912,1770.4 746.829,1770.5 748.746,1770.59 750.662,1770.69 
  752.579,1770.78 754.496,1770.88 756.413,1770.98 758.33,1771.07 760.246,1771.17 762.163,1771.26 764.08,1771.36 765.997,1771.45 767.914,1771.55 769.831,1771.65 
  771.747,1771.74 773.664,1771.84 775.581,1771.93 777.498,1772.03 779.415,1772.12 781.331,1772.22 783.248,1772.32 785.165,1772.41 787.082,1772.51 788.999,1772.6 
  790.915,1772.7 792.832,1772.79 794.749,1772.89 796.666,1772.99 798.583,1773.08 800.5,1773.18 802.416,1773.27 804.333,1773.37 806.25,1773.46 808.167,1773.56 
  810.084,1773.66 812,1773.75 813.917,1773.85 815.834,1773.94 817.751,1774.04 819.668,1774.13 821.584,1774.23 823.501,1774.33 825.418,1774.42 827.335,1774.52 
  829.252,1774.61 831.169,1774.71 833.085,1774.8 835.002,1774.9 836.919,1775 838.836,1775.09 840.753,1775.19 842.669,1775.28 844.586,1775.38 846.503,1775.47 
  848.42,1775.57 850.337,1775.67 852.254,1775.76 854.17,1775.86 856.087,1775.95 858.004,1776.05 859.921,1776.14 861.838,1776.24 863.754,1776.33 865.671,1776.43 
  867.588,1776.53 869.505,1776.62 871.422,1776.72 873.338,1776.81 875.255,1776.91 877.172,1777 879.089,1777.1 881.006,1777.2 882.923,1777.29 884.839,1777.39 
  886.756,1777.15 888.673,1776.91 890.59,1776.67 892.507,1776.43 894.423,1776.19 896.34,1775.95 898.257,1775.71 900.174,1775.47 902.091,1775.23 904.007,1775 
  905.924,1774.76 907.841,1774.52 909.758,1774.28 911.675,1774.04 913.592,1773.8 915.508,1773.56 917.425,1773.32 919.342,1773.08 921.259,1772.84 923.176,1772.6 
  925.092,1772.36 927.009,1772.12 928.926,1771.89 930.843,1771.65 932.76,1771.41 934.677,1771.17 936.593,1770.93 938.51,1770.69 940.427,1770.45 942.344,1770.21 
  944.261,1769.97 946.177,1769.73 948.094,1769.49 950.011,1769.25 951.928,1769.01 953.845,1768.77 955.761,1768.54 957.678,1768.3 959.595,1768.06 961.512,1767.82 
  963.429,1767.58 965.346,1767.34 967.262,1767.1 969.179,1766.86 971.096,1766.62 973.013,1766.38 974.93,1766.14 976.846,1765.9 978.763,1765.66 980.68,1765.43 
  982.597,1765.19 984.514,1764.95 986.43,1764.71 988.347,1764.47 990.264,1764.23 992.181,1763.99 994.098,1763.75 996.015,1763.51 997.931,1763.27 999.848,1763.03 
  1001.76,1762.79 1003.68,1762.55 1005.6,1762.32 1007.52,1762.08 1009.43,1761.84 1011.35,1761.6 1013.27,1761.36 1015.18,1761.12 1017.1,1760.88 1019.02,1760.64 
  1020.93,1760.4 1022.85,1760.16 1024.77,1759.92 1026.68,1759.68 1028.6,1759.44 1030.52,1759.21 1032.43,1758.97 1034.35,1758.73 1036.27,1758.49 1038.18,1758.25 
  1040.1,1758.01 1042.02,1757.77 1043.93,1757.53 1045.85,1757.29 1047.77,1757.05 1049.69,1756.81 1051.6,1756.57 1053.52,1756.33 1055.44,1756.1 1057.35,1755.86 
  1059.27,1755.62 1061.19,1755.38 1063.1,1755.14 1065.02,1754.9 1066.94,1754.66 1068.85,1754.42 1070.77,1754.18 1072.69,1753.94 1074.6,1753.7 1076.52,1753.46 
  1078.44,1753.22 1080.35,1752.99 1082.27,1752.75 1084.19,1752.51 1086.1,1752.27 1088.02,1752.03 1089.94,1751.79 1091.86,1751.55 1093.77,1751.31 1095.69,1751.07 
  1097.61,1750.83 1099.52,1750.59 1101.44,1750.35 1103.36,1750.11 1105.27,1749.87 1107.19,1749.64 1109.11,1749.4 1111.02,1749.16 1112.94,1748.92 1114.86,1748.68 
  1116.77,1739.91 1118.69,1731.13 1120.61,1722.36 1122.52,1713.59 1124.44,1704.82 1126.36,1696.05 1128.27,1687.27 1130.19,1678.5 1132.11,1669.73 1134.03,1660.96 
  1135.94,1652.18 1137.86,1643.41 1139.78,1634.64 1141.69,1625.87 1143.61,1617.1 1145.53,1608.32 1147.44,1599.55 1149.36,1590.78 1151.28,1582.01 1153.19,1573.24 
  1155.11,1564.46 1157.03,1555.69 1158.94,1546.92 1160.86,1538.15 1162.78,1529.37 1164.69,1520.6 1166.61,1511.83 1168.53,1503.06 1170.44,1494.29 1172.36,1485.51 
  1174.28,1476.74 1176.2,1467.97 1178.11,1459.2 1180.03,1450.42 1181.95,1441.65 1183.86,1432.88 1185.78,1424.11 1187.7,1415.34 1189.61,1406.56 1191.53,1397.79 
  1193.45,1389.02 1195.36,1380.25 1197.28,1371.48 1199.2,1362.7 1201.11,1353.93 1203.03,1345.16 1204.95,1336.39 1206.86,1327.61 1208.78,1318.84 1210.7,1310.07 
  1212.61,1301.3 1214.53,1292.53 1216.45,1283.75 1218.36,1274.98 1220.28,1266.21 1222.2,1257.44 1224.12,1248.66 1226.03,1239.89 1227.95,1231.12 1229.87,1222.35 
  1231.78,1213.58 1233.7,1204.8 1235.62,1196.03 1237.53,1187.26 1239.45,1178.49 1241.37,1169.72 1243.28,1160.94 1245.2,1152.17 1247.12,1143.4 1249.03,1134.63 
  1250.95,1125.85 1252.87,1117.08 1254.78,1108.31 1256.7,1099.54 1258.62,1090.77 1260.53,1081.99 1262.45,1073.22 1264.37,1064.45 1266.29,1055.68 1268.2,1046.9 
  1270.12,1038.13 1272.04,1029.36 1273.95,1020.59 1275.87,1011.82 1277.79,1003.04 1279.7,994.272 1281.62,985.499 1283.54,976.727 1285.45,967.955 1287.37,959.183 
  1289.29,950.411 1291.2,941.639 1293.12,932.866 1295.04,924.094 1296.95,915.322 1298.87,906.55 1300.79,897.778 1302.7,889.006 1304.62,880.233 1306.54,871.461 
  1308.46,862.689 1310.37,853.917 1312.29,845.145 1314.21,836.372 1316.12,827.6 1318.04,818.828 1319.96,810.056 1321.87,801.284 1323.79,792.512 1325.71,783.739 
  1327.62,774.967 1329.54,766.195 1331.46,757.423 1333.37,748.651 1335.29,739.879 1337.21,731.106 1339.12,722.334 1341.04,713.562 1342.96,704.79 1344.87,696.018 
  1346.79,687.245 1348.71,678.473 1350.63,669.701 1352.54,660.929 1354.46,652.157 1356.38,643.385 1358.29,634.612 1360.21,625.84 1362.13,617.068 1364.04,608.296 
  1365.96,599.524 1367.88,590.752 1369.79,581.979 1371.71,573.207 1373.63,564.435 1375.54,555.663 1377.46,546.891 1379.38,538.118 1381.29,529.346 1383.21,520.574 
  1385.13,511.802 1387.04,503.03 1388.96,494.258 1390.88,485.485 1392.79,476.713 1394.71,467.941 1396.63,459.169 1398.55,450.397 1400.46,441.625 1402.38,432.852 
  1404.3,424.08 1406.21,415.308 1408.13,406.536 1410.05,397.764 1411.96,388.992 1413.88,380.219 1415.8,371.447 1417.71,362.675 1419.63,353.903 1421.55,345.131 
  1423.46,336.358 1425.38,327.586 1427.3,318.814 1429.21,310.042 1431.13,301.27 1433.05,292.498 1434.96,283.725 1436.88,274.953 1438.8,266.181 1440.72,257.409 
  1442.63,248.637 1444.55,239.865 1446.47,231.092 1448.38,222.32 1450.3,213.548 1452.22,204.776 1454.13,196.004 1456.05,187.231 1457.97,178.459 1459.88,169.687 
  1461.8,170.883 1463.72,172.08 1465.63,173.276 1467.55,174.472 1469.47,175.668 1471.38,176.864 1473.3,178.061 1475.22,179.257 1477.13,180.453 1479.05,181.649 
  1480.97,182.845 1482.89,184.042 1484.8,185.238 1486.72,186.434 1488.64,187.63 1490.55,188.826 1492.47,190.023 1494.39,191.219 1496.3,192.415 1498.22,193.611 
  1500.14,194.807 1502.05,196.004 1503.97,197.2 1505.89,198.396 1507.8,199.592 1509.72,200.788 1511.64,201.985 1513.55,203.181 1515.47,204.377 1517.39,205.573 
  1519.3,206.77 1521.22,207.966 1523.14,209.162 1525.06,210.358 1526.97,211.554 1528.89,212.751 1530.81,213.947 1532.72,215.143 1534.64,216.339 1536.56,217.535 
  1538.47,218.732 1540.39,219.928 1542.31,221.124 1544.22,222.32 1546.14,223.516 1548.06,224.713 1549.97,225.909 1551.89,227.105 1553.81,228.301 1555.72,229.497 
  1557.64,230.694 1559.56,231.89 1561.47,233.086 1563.39,234.282 1565.31,235.478 1567.23,236.675 1569.14,237.871 1571.06,239.067 1572.98,240.263 1574.89,241.459 
  1576.81,242.656 1578.73,243.852 1580.64,245.048 1582.56,246.244 1584.48,247.441 1586.39,248.637 1588.31,249.833 1590.23,251.029 1592.14,252.225 1594.06,253.422 
  1595.98,254.618 1597.89,255.814 1599.81,257.01 1601.73,258.206 1603.64,259.403 1605.56,260.599 1607.48,261.795 1609.39,262.991 1611.31,264.187 1613.23,265.384 
  1615.15,266.58 1617.06,267.776 1618.98,268.972 1620.9,270.168 1622.81,271.365 1624.73,272.561 1626.65,273.757 1628.56,274.953 1630.48,276.149 1632.4,277.346 
  1634.31,278.542 1636.23,279.738 1638.15,280.934 1640.06,282.13 1641.98,283.327 1643.9,284.523 1645.81,285.719 1647.73,286.915 1649.65,288.112 1651.56,289.308 
  1653.48,290.504 1655.4,291.7 1657.32,292.896 1659.23,294.093 1661.15,295.289 1663.07,296.485 1664.98,297.681 1666.9,298.877 1668.82,300.074 1670.73,301.27 
  1672.65,302.466 1674.57,303.662 1676.48,304.858 1678.4,306.055 1680.32,307.251 1682.23,308.447 1684.15,309.643 1686.07,310.839 1687.98,312.036 1689.9,313.232 
  1691.82,314.428 1693.73,315.624 1695.65,316.82 1697.57,318.017 1699.49,319.213 1701.4,320.409 1703.32,321.605 1705.24,322.801 1707.15,323.998 1709.07,325.194 
  1710.99,326.39 1712.9,327.586 1714.82,328.782 1716.74,329.979 1718.65,331.175 1720.57,332.371 1722.49,333.567 1724.4,334.764 1726.32,335.96 1728.24,337.156 
  1730.15,338.352 1732.07,339.548 1733.99,340.745 1735.9,341.941 1737.82,343.137 1739.74,344.333 1741.66,345.529 1743.57,346.726 1745.49,347.922 1747.41,349.118 
  1749.32,350.314 1751.24,351.51 1753.16,352.707 1755.07,353.903 1756.99,355.099 1758.91,356.295 1760.82,357.491 1762.74,358.688 1764.66,359.884 1766.57,361.08 
  1768.49,362.276 1770.41,363.472 1772.32,364.669 1774.24,365.865 1776.16,367.061 1778.07,368.257 1779.99,369.453 1781.91,370.65 1783.83,371.846 1785.74,373.042 
  1787.66,374.238 1789.58,375.435 1791.49,376.631 1793.41,377.827 1795.33,379.023 1797.24,380.219 1799.16,381.416 1801.08,382.612 1802.99,383.808 1804.91,385.004 
  1806.83,386.2 1808.74,387.397 1810.66,388.593 1812.58,389.789 1814.49,390.985 1816.41,392.181 1818.33,393.378 1820.24,394.574 1822.16,395.77 1824.08,396.966 
  1825.99,398.162 1827.91,399.359 1829.83,400.555 1831.75,401.751 1833.66,402.947 1835.58,404.143 1837.5,405.34 1839.41,406.536 1841.33,407.732 1843.25,408.928 
  1845.16,410.124 1847.08,411.321 1849,412.517 1850.91,413.713 1852.83,414.909 1854.75,416.106 1856.66,417.302 1858.58,418.498 1860.5,419.694 1862.41,420.89 
  1864.33,422.087 1866.25,423.283 1868.16,424.479 1870.08,425.675 1872,426.871 1873.92,428.068 1875.83,429.264 1877.75,430.46 1879.67,431.656 1881.58,432.852 
  1883.5,434.049 1885.42,435.245 1887.33,436.441 1889.25,437.637 1891.17,438.833 1893.08,440.03 1895,441.226 1896.92,442.422 1898.83,443.618 1900.75,444.814 
  1902.67,446.011 1904.58,447.207 1906.5,448.403 1908.42,449.599 1910.33,450.795 1912.25,451.992 1914.17,453.188 1916.09,454.384 1918,455.58 1919.92,456.777 
  1921.84,457.973 1923.75,459.169 1925.67,460.365 1927.59,461.561 1929.5,462.758 1931.42,463.954 1933.34,465.15 1935.25,466.346 1937.17,467.542 1939.09,468.739 
  1941,469.935 1942.92,471.131 1944.84,472.327 1946.75,473.523 1948.67,474.72 1950.59,475.916 1952.5,477.112 1954.42,478.308 1956.34,479.504 1958.26,480.701 
  1960.17,481.897 1962.09,483.093 1964.01,484.289 1965.92,485.485 1967.84,486.682 1969.76,487.878 1971.67,489.074 1973.59,490.27 1975.51,491.466 1977.42,492.663 
  1979.34,493.859 1981.26,495.055 1983.17,496.251 1985.09,497.448 1987.01,498.644 1988.92,499.84 1990.84,501.036 1992.76,502.232 1994.67,503.429 1996.59,504.625 
  1998.51,505.821 2000.42,507.017 2002.34,508.213 2004.26,509.41 2006.18,510.606 2008.09,511.802 2010.01,512.998 2011.93,514.194 2013.84,515.391 2015.76,516.587 
  2017.68,517.783 2019.59,518.979 2021.51,520.175 2023.43,521.372 2025.34,522.568 2027.26,523.764 2029.18,524.96 2031.09,526.156 2033.01,527.353 2034.93,528.549 
  2036.84,529.745 2038.76,530.941 2040.68,532.137 2042.59,533.334 2044.51,534.53 2046.43,535.726 2048.35,536.922 2050.26,538.118 2052.18,539.315 2054.1,540.511 
  2056.01,541.707 2057.93,542.903 2059.85,544.1 2061.76,545.296 2063.68,546.492 2065.6,547.688 2067.51,548.884 2069.43,550.081 2071.35,551.277 2073.26,552.473 
  2075.18,553.669 2077.1,554.865 2079.01,556.062 2080.93,557.258 2082.85,558.454 2084.76,559.65 2086.68,560.846 2088.6,562.043 2090.52,563.239 2092.43,564.435 
  2094.35,565.631 2096.27,566.827 2098.18,568.024 2100.1,569.22 2102.02,570.416 2103.93,571.612 2105.85,572.808 2107.77,574.005 2109.68,575.201 2111.6,576.397 
  2113.52,577.593 2115.43,578.789 2117.35,579.986 2119.27,581.182 2121.18,582.378 2123.1,583.574 2125.02,584.771 2126.93,585.967 2128.85,587.163 2130.77,588.359 
  2132.69,589.555 2134.6,590.752 2136.52,591.948 2138.44,593.144 2140.35,594.34 2142.27,595.536 2144.19,596.733 2146.1,597.929 2148.02,599.125 2149.94,600.321 
  2151.85,606.302 2153.77,612.283 2155.69,618.264 2157.6,624.245 2159.52,630.226 2161.44,636.207 2163.35,642.188 2165.27,648.169 2167.19,654.15 2169.1,660.131 
  2171.02,666.113 2172.94,672.094 2174.86,678.075 2176.77,684.056 2178.69,690.037 2180.61,696.018 2182.52,701.999 2184.44,707.98 2186.36,713.961 2188.27,719.942 
  2190.19,725.923 2192.11,731.904 2194.02,737.885 2195.94,743.866 2197.86,749.847 2199.77,755.828 2201.69,761.809 2203.61,767.79 2205.52,773.771 2207.44,779.752 
  2209.36,785.733 2211.27,791.714 2213.19,797.695 2215.11,803.676 2217.02,809.657 2218.94,815.638 2220.86,821.619 2222.78,827.6 2224.69,833.581 2226.61,839.562 
  2228.53,845.543 2230.44,851.524 2232.36,857.505 2234.28,863.486 2236.19,869.467 2238.11,875.449 2240.03,881.43 2241.94,887.411 2243.86,893.392 2245.78,899.373 
  2247.69,905.354 2249.61,911.335 2251.53,917.316 2253.44,923.297 2255.36,929.278 2257.28,935.259 2259.19,941.24 2261.11,947.221 2263.03,953.202 2264.95,959.183 
  2266.86,965.164 2268.78,971.145 2270.7,977.126 2272.61,983.107 2274.53,989.088 2276.45,995.069 2278.36,1001.05 2280.28,1007.03 2282.2,1013.01 2284.11,1018.99 
  2286.03,1024.97 2287.95,1030.96 2289.86,1036.94 2291.78,1042.92 2293.7,1048.9 2295.61,1054.88 2297.53,1060.86 2299.45,1066.84 2301.36,1072.82 2303.28,1078.8 
  2305.2,1084.78 2307.12,1090.77 2309.03,1096.75 2310.95,1102.73 2312.87,1108.71 2314.78,1114.69 2316.7,1120.67 2318.62,1126.65 2320.53,1132.63 2322.45,1138.61 
  2324.37,1144.59 2326.28,1150.58 2328.2,1156.56 2330.12,1162.54 2332.03,1168.52 2333.95,1174.5 2335.87,1180.48 2337.78,1186.46 2339.7,1192.44 2341.62,1198.42 
  2343.53,1204.41 2345.45,1210.39 2347.37,1216.37 2349.29,1222.35 2351.2,1228.33 2353.12,1234.31 2355.04,1240.29 2356.95,1246.27 2358.87,1252.25 2360.79,1258.23 
  2362.7,1264.22 2364.62,1270.2 2366.54,1276.18 2368.45,1282.16 2370.37,1288.14 2372.29,1294.12 2374.2,1300.1 2376.12,1306.08 2378.04,1312.06 2379.95,1318.04 
  2381.87,1319.32 2383.79,1320.6 2385.7,1321.87 2387.62,1323.15 2389.54,1324.42 2391.45,1325.7 2393.37,1326.98 2395.29,1328.25 2397.21,1329.53 2399.12,1330.8 
  2401.04,1332.08 2402.96,1333.36 2404.87,1334.63 2406.79,1335.91 2408.71,1337.18 2410.62,1338.46 2412.54,1339.74 2414.46,1341.01 2416.37,1342.29 2418.29,1343.56 
  2420.21,1344.84 2422.12,1346.12 2424.04,1347.39 2425.96,1348.67 2427.87,1349.94 2429.79,1351.22 2431.71,1352.5 2433.62,1353.77 2435.54,1355.05 2437.46,1356.32 
  2439.38,1357.6 2441.29,1358.88 2443.21,1360.15 2445.13,1361.43 2447.04,1362.7 2448.96,1363.98 2450.88,1365.25 2452.79,1366.53 2454.71,1367.81 2456.63,1369.08 
  2458.54,1370.36 2460.46,1371.63 2462.38,1372.91 2464.29,1374.19 2466.21,1375.46 2468.13,1376.74 2470.04,1378.01 2471.96,1379.29 2473.88,1380.57 2475.79,1381.84 
  2477.71,1383.12 2479.63,1384.39 2481.55,1385.67 2483.46,1386.95 2485.38,1388.22 2487.3,1389.5 2489.21,1390.77 2491.13,1392.05 2493.05,1393.33 2494.96,1394.6 
  2496.88,1395.88 2498.8,1397.15 2500.71,1398.43 2502.63,1399.71 2504.55,1400.98 2506.46,1402.26 2508.38,1403.53 2510.3,1404.81 2512.21,1406.09 2514.13,1407.36 
  2516.05,1408.64 2517.96,1409.91 2519.88,1411.19 2521.8,1412.47 2523.72,1413.74 2525.63,1415.02 2527.55,1416.29 2529.47,1417.57 2531.38,1418.84 2533.3,1420.12 
  2535.22,1421.4 2537.13,1422.67 2539.05,1423.95 2540.97,1425.22 2542.88,1426.5 2544.8,1427.78 2546.72,1429.05 2548.63,1430.33 2550.55,1431.6 2552.47,1432.88 
  2554.38,1434.16 2556.3,1435.43 2558.22,1436.71 2560.13,1437.98 2562.05,1439.26 2563.97,1440.54 2565.89,1441.81 2567.8,1443.09 2569.72,1444.36 2571.64,1445.64 
  2573.55,1446.92 2575.47,1448.19 2577.39,1449.47 2579.3,1450.74 2581.22,1452.02 2583.14,1453.3 2585.05,1454.57 2586.97,1455.85 2588.89,1457.12 2590.8,1458.4 
  2592.72,1459.68 2594.64,1460.95 2596.55,1462.23 2598.47,1463.5 2600.39,1464.78 2602.3,1466.06 2604.22,1467.33 2606.14,1468.61 2608.05,1469.88 2609.97,1471.16 
  2611.89,1472.43 2613.81,1473.71 2615.72,1474.99 2617.64,1476.26 2619.56,1477.54 2621.47,1478.81 2623.39,1480.09 2625.31,1481.37 2627.22,1482.64 2629.14,1483.92 
  2631.06,1485.19 2632.97,1486.47 2634.89,1487.75 2636.81,1489.02 2638.72,1490.3 2640.64,1491.57 2642.56,1492.85 2644.47,1494.13 2646.39,1495.4 2648.31,1496.68 
  2650.22,1497.95 2652.14,1499.23 2654.06,1500.51 2655.98,1501.78 2657.89,1503.06 2659.81,1504.33 2661.73,1505.61 2663.64,1506.89 2665.56,1508.16 2667.48,1509.44 
  2669.39,1510.71 2671.31,1511.99 2673.23,1513.27 2675.14,1514.54 2677.06,1515.82 2678.98,1517.09 2680.89,1518.37 2682.81,1519.65 2684.73,1520.92 2686.64,1522.2 
  2688.56,1523.47 2690.48,1524.75 2692.39,1526.02 2694.31,1527.3 2696.23,1528.58 2698.15,1529.85 2700.06,1531.13 2701.98,1532.4 2703.9,1533.68 2705.81,1534.96 
  2707.73,1536.23 2709.65,1537.51 2711.56,1538.78 2713.48,1540.06 2715.4,1541.34 2717.31,1542.61 2719.23,1543.89 2721.15,1545.16 2723.06,1546.44 2724.98,1547.72 
  2726.9,1548.99 2728.81,1550.27 2730.73,1551.54 2732.65,1552.82 2734.56,1554.1 2736.48,1555.37 2738.4,1556.65 2740.32,1557.92 2742.23,1559.2 2744.15,1560.48 
  2746.07,1561.75 2747.98,1563.03 2749.9,1564.3 2751.82,1565.58 2753.73,1566.86 2755.65,1568.13 2757.57,1569.41 2759.48,1570.68 2761.4,1571.96 2763.32,1573.24 
  2765.23,1574.51 2767.15,1575.79 2769.07,1577.06 2770.98,1578.34 2772.9,1579.61 2774.82,1580.89 2776.73,1582.17 2778.65,1583.44 2780.57,1584.72 2782.48,1585.99 
  2784.4,1587.27 2786.32,1588.55 2788.24,1589.82 2790.15,1591.1 2792.07,1592.37 2793.99,1593.65 2795.9,1594.93 2797.82,1596.2 2799.74,1597.48 2801.65,1598.75 
  2803.57,1600.03 2805.49,1601.31 2807.4,1602.58 2809.32,1603.86 2811.24,1605.13 2813.15,1606.41 2815.07,1607.69 2816.99,1608.96 2818.9,1610.24 2820.82,1611.51 
  2822.74,1612.79 2824.65,1614.07 2826.57,1615.34 2828.49,1616.62 2830.41,1617.89 2832.32,1619.17 2834.24,1620.45 2836.16,1621.72 2838.07,1623 2839.99,1624.27 
  2841.91,1625.55 2843.82,1626.83 2845.74,1628.1 2847.66,1629.38 2849.57,1630.65 2851.49,1631.93 2853.41,1633.2 2855.32,1634.48 2857.24,1635.76 2859.16,1637.03 
  2861.07,1638.31 2862.99,1639.58 2864.91,1640.86 2866.82,1642.14 2868.74,1643.41 2870.66,1644.69 2872.58,1645.96 2874.49,1647.24 2876.41,1648.52 2878.33,1649.79 
  2880.24,1651.07 2882.16,1652.34 2884.08,1653.62 2885.99,1654.9 2887.91,1656.17 2889.83,1657.45 2891.74,1658.72 2893.66,1660 2895.58,1661.28 2897.49,1662.55 
  2899.41,1663.83 2901.33,1665.1 2903.24,1666.38 2905.16,1667.66 2907.08,1668.93 2908.99,1670.21 2910.91,1671.48 2912.83,1672.76 2914.75,1674.04 2916.66,1675.31 
  2918.58,1676.59 2920.5,1677.86 2922.41,1679.14 2924.33,1680.42 2926.25,1681.69 2928.16,1682.97 2930.08,1684.24 2932,1685.52 2933.91,1686.79 2935.83,1688.07 
  2937.75,1689.35 2939.66,1690.62 2941.58,1691.9 2943.5,1693.17 2945.41,1694.45 2947.33,1695.73 2949.25,1697 2951.16,1698.28 2953.08,1699.55 2955,1700.83 
  2956.92,1702.11 2958.83,1703.38 2960.75,1704.66 2962.67,1705.93 2964.58,1707.21 2966.5,1708.49 2968.42,1709.76 2970.33,1711.04 2972.25,1712.31 2974.17,1713.59 
  2976.08,1714.87 2978,1716.14 2979.92,1717.42 2981.83,1718.69 2983.75,1719.97 2985.67,1721.25 2987.58,1722.52 2989.5,1723.8 2991.42,1725.07 2993.33,1726.35 
  2995.25,1727.63 2997.17,1728.9 2999.08,1730.18 3001,1731.45 3002.92,1732.73 3004.84,1734.01 3006.75,1735.28 3008.67,1736.56 3010.59,1737.83 3012.5,1739.11 
  3014.42,1740.38 3016.34,1741.66 3018.25,1742.94 3020.17,1744.21 3022.09,1745.49 3024,1746.76 3025.92,1748.04 3027.84,1749.32 3029.75,1750.59 3031.67,1751.87 
  3033.59,1753.14 3035.5,1754.42 3037.42,1755.7 3039.34,1756.97 3041.25,1758.25 3043.17,1759.52 3045.09,1760.8 3047.01,1762.08 3048.92,1763.35 3050.84,1764.63 
  3052.76,1765.9 3054.67,1767.18 3056.59,1768.46 3058.51,1769.73 3060.42,1771.01 3062.34,1772.28 3064.26,1773.56 3066.17,1774.84 3068.09,1776.11 3070.01,1777.39 
  
  "/>
<polygon clip-path="url(#clip6900)" points="
2649.49,373.936 3056.76,373.936 3056.76,252.976 2649.49,252.976 
  " fill="#ffffff" fill-rule="evenodd" fill-opacity="1"/>
<polyline clip-path="url(#clip6900)" style="stroke:#000000; stroke-width:4; stroke-opacity:1; fill:none" points="
  2649.49,373.936 3056.76,373.936 3056.76,252.976 2649.49,252.976 2649.49,373.936 
  "/>
<polyline clip-path="url(#clip6900)" style="stroke:#009af9; stroke-width:4; stroke-opacity:1; fill:none" points="
  2681.49,313.456 2873.49,313.456 
  "/>
<g clip-path="url(#clip6900)">
<text style="fill:#000000; fill-opacity:1; font-family:Symbol; font-size:52px; text-anchor:start;" transform="rotate(0, 2905.49, 327.107)" x="2905.49" y="327.107">λ</text>
</g>
<g clip-path="url(#clip6900)">
<text style="fill:#000000; fill-opacity:1; font-family:Arial,Helvetica Neue,Helvetica,sans-serif; font-size:48px; text-anchor:start;" transform="rotate(0, 2933.94, 327.107)" x="2933.94" y="327.107"> (t)</text>
</g>
</svg>
