<?xml version="1.0" encoding="utf-8"?>
<svg xmlns="http://www.w3.org/2000/svg" xmlns:xlink="http://www.w3.org/1999/xlink" width="800" height="400" viewBox="0 0 3200 1600">
<defs>
  <clipPath id="clip3500">
    <rect x="0" y="0" width="3200" height="1600"/>
  </clipPath>
</defs>
<polygon clip-path="url(#clip3500)" points="
0,1600 3200,1600 3200,0 0,0 
  " fill="#ffffff" fill-rule="evenodd" fill-opacity="1"/>
<defs>
  <clipPath id="clip3501">
    <rect x="640" y="0" width="2241" height="1600"/>
  </clipPath>
</defs>
<polygon clip-path="url(#clip3500)" points="
647.891,1275.5 3011.02,1275.5 3011.02,188.976 647.891,188.976 
  " fill="#ffffff" fill-rule="evenodd" fill-opacity="1"/>
<defs>
  <clipPath id="clip3502">
    <rect x="647" y="188" width="2364" height="1088"/>
  </clipPath>
</defs>
<polyline clip-path="url(#clip3502)" style="stroke:#000000; stroke-width:2; stroke-opacity:0.1; fill:none" points="
  713.223,1275.5 713.223,188.976 
  "/>
<polyline clip-path="url(#clip3502)" style="stroke:#000000; stroke-width:2; stroke-opacity:0.1; fill:none" points="
  1178,1275.5 1178,188.976 
  "/>
<polyline clip-path="url(#clip3502)" style="stroke:#000000; stroke-width:2; stroke-opacity:0.1; fill:none" points="
  1642.77,1275.5 1642.77,188.976 
  "/>
<polyline clip-path="url(#clip3502)" style="stroke:#000000; stroke-width:2; stroke-opacity:0.1; fill:none" points="
  2107.55,1275.5 2107.55,188.976 
  "/>
<polyline clip-path="url(#clip3502)" style="stroke:#000000; stroke-width:2; stroke-opacity:0.1; fill:none" points="
  2572.32,1275.5 2572.32,188.976 
  "/>
<polyline clip-path="url(#clip3502)" style="stroke:#000000; stroke-width:2; stroke-opacity:0.1; fill:none" points="
  647.891,1244.75 3011.02,1244.75 
  "/>
<polyline clip-path="url(#clip3502)" style="stroke:#000000; stroke-width:2; stroke-opacity:0.1; fill:none" points="
  647.891,956.447 3011.02,956.447 
  "/>
<polyline clip-path="url(#clip3502)" style="stroke:#000000; stroke-width:2; stroke-opacity:0.1; fill:none" points="
  647.891,668.143 3011.02,668.143 
  "/>
<polyline clip-path="url(#clip3502)" style="stroke:#000000; stroke-width:2; stroke-opacity:0.1; fill:none" points="
  647.891,379.838 3011.02,379.838 
  "/>
<polyline clip-path="url(#clip3500)" style="stroke:#000000; stroke-width:4; stroke-opacity:1; fill:none" points="
  647.891,1275.5 3011.02,1275.5 
  "/>
<polyline clip-path="url(#clip3500)" style="stroke:#000000; stroke-width:4; stroke-opacity:1; fill:none" points="
  647.891,1275.5 647.891,188.976 
  "/>
<polyline clip-path="url(#clip3500)" style="stroke:#000000; stroke-width:4; stroke-opacity:1; fill:none" points="
  713.223,1275.5 713.223,1259.21 
  "/>
<polyline clip-path="url(#clip3500)" style="stroke:#000000; stroke-width:4; stroke-opacity:1; fill:none" points="
  1178,1275.5 1178,1259.21 
  "/>
<polyline clip-path="url(#clip3500)" style="stroke:#000000; stroke-width:4; stroke-opacity:1; fill:none" points="
  1642.77,1275.5 1642.77,1259.21 
  "/>
<polyline clip-path="url(#clip3500)" style="stroke:#000000; stroke-width:4; stroke-opacity:1; fill:none" points="
  2107.55,1275.5 2107.55,1259.21 
  "/>
<polyline clip-path="url(#clip3500)" style="stroke:#000000; stroke-width:4; stroke-opacity:1; fill:none" points="
  2572.32,1275.5 2572.32,1259.21 
  "/>
<polyline clip-path="url(#clip3500)" style="stroke:#000000; stroke-width:4; stroke-opacity:1; fill:none" points="
  647.891,1244.75 683.338,1244.75 
  "/>
<polyline clip-path="url(#clip3500)" style="stroke:#000000; stroke-width:4; stroke-opacity:1; fill:none" points="
  647.891,956.447 683.338,956.447 
  "/>
<polyline clip-path="url(#clip3500)" style="stroke:#000000; stroke-width:4; stroke-opacity:1; fill:none" points="
  647.891,668.143 683.338,668.143 
  "/>
<polyline clip-path="url(#clip3500)" style="stroke:#000000; stroke-width:4; stroke-opacity:1; fill:none" points="
  647.891,379.838 683.338,379.838 
  "/>
<g clip-path="url(#clip3500)">
<text style="fill:#000000; fill-opacity:1; font-family:Arial,Helvetica Neue,Helvetica,sans-serif; font-size:71px; text-anchor:middle;" transform="rotate(0, 713.223, 1353.9)" x="713.223" y="1353.9">0</text>
</g>
<g clip-path="url(#clip3500)">
<text style="fill:#000000; fill-opacity:1; font-family:Arial,Helvetica Neue,Helvetica,sans-serif; font-size:71px; text-anchor:middle;" transform="rotate(0, 1178, 1353.9)" x="1178" y="1353.9">300</text>
</g>
<g clip-path="url(#clip3500)">
<text style="fill:#000000; fill-opacity:1; font-family:Arial,Helvetica Neue,Helvetica,sans-serif; font-size:71px; text-anchor:middle;" transform="rotate(0, 1642.77, 1353.9)" x="1642.77" y="1353.9">600</text>
</g>
<g clip-path="url(#clip3500)">
<text style="fill:#000000; fill-opacity:1; font-family:Arial,Helvetica Neue,Helvetica,sans-serif; font-size:71px; text-anchor:middle;" transform="rotate(0, 2107.55, 1353.9)" x="2107.55" y="1353.9">900</text>
</g>
<g clip-path="url(#clip3500)">
<text style="fill:#000000; fill-opacity:1; font-family:Arial,Helvetica Neue,Helvetica,sans-serif; font-size:71px; text-anchor:middle;" transform="rotate(0, 2572.32, 1353.9)" x="2572.32" y="1353.9">1200</text>
</g>
<g clip-path="url(#clip3500)">
<text style="fill:#000000; fill-opacity:1; font-family:Arial,Helvetica Neue,Helvetica,sans-serif; font-size:71px; text-anchor:end;" transform="rotate(0, 615.891, 1270.75)" x="615.891" y="1270.75">0</text>
</g>
<g clip-path="url(#clip3500)">
<text style="fill:#000000; fill-opacity:1; font-family:Arial,Helvetica Neue,Helvetica,sans-serif; font-size:71px; text-anchor:start;" transform="rotate(0, 388.062, 992.039)" x="388.062" y="992.039">2×10</text>
</g>
<g clip-path="url(#clip3500)">
<text style="fill:#000000; fill-opacity:1; font-family:Arial,Helvetica Neue,Helvetica,sans-serif; font-size:58px; text-anchor:start;" transform="rotate(0, 550.658, 950.923)" x="550.658" y="950.923">57</text>
</g>
<g clip-path="url(#clip3500)">
<text style="fill:#000000; fill-opacity:1; font-family:Arial,Helvetica Neue,Helvetica,sans-serif; font-size:71px; text-anchor:start;" transform="rotate(0, 388.062, 703.734)" x="388.062" y="703.734">4×10</text>
</g>
<g clip-path="url(#clip3500)">
<text style="fill:#000000; fill-opacity:1; font-family:Arial,Helvetica Neue,Helvetica,sans-serif; font-size:58px; text-anchor:start;" transform="rotate(0, 550.658, 662.618)" x="550.658" y="662.618">57</text>
</g>
<g clip-path="url(#clip3500)">
<text style="fill:#000000; fill-opacity:1; font-family:Arial,Helvetica Neue,Helvetica,sans-serif; font-size:71px; text-anchor:start;" transform="rotate(0, 388.062, 415.429)" x="388.062" y="415.429">6×10</text>
</g>
<g clip-path="url(#clip3500)">
<text style="fill:#000000; fill-opacity:1; font-family:Arial,Helvetica Neue,Helvetica,sans-serif; font-size:58px; text-anchor:start;" transform="rotate(0, 550.658, 374.314)" x="550.658" y="374.314">57</text>
</g>
<g clip-path="url(#clip3500)">
<text style="fill:#000000; fill-opacity:1; font-family:Arial,Helvetica Neue,Helvetica,sans-serif; font-size:95px; text-anchor:middle;" transform="rotate(0, 1829.46, 1469.75)" x="1829.46" y="1469.75">t</text>
</g>
<g clip-path="url(#clip3500)">
<text style="fill:#000000; fill-opacity:1; font-family:Arial,Helvetica Neue,Helvetica,sans-serif; font-size:95px; text-anchor:middle;" transform="rotate(-90, 220.973, 732.24)" x="220.973" y="732.24">prob_wait: (PSA-NS)/NS</text>
</g>
<polyline clip-path="url(#clip3502)" style="stroke:#009af9; stroke-width:4; stroke-opacity:1; fill:none" points="
  714.772,1244.75 716.321,1244.75 717.87,1244.75 719.42,1244.75 720.969,1244.75 722.518,1244.75 724.067,1244.75 725.617,1244.75 727.166,1244.75 728.715,1244.75 
  730.264,1244.75 731.814,1244.75 733.363,1244.75 734.912,1244.75 736.461,1244.75 738.011,1244.75 739.56,1244.75 741.109,1244.75 742.658,1244.75 744.208,1244.75 
  745.757,1244.75 747.306,1244.75 748.855,1244.75 750.405,1244.75 751.954,1244.75 753.503,1244.75 755.052,1244.75 756.602,1244.75 758.151,1244.75 759.7,1244.75 
  761.249,1244.75 762.799,1244.75 764.348,1244.75 765.897,1244.75 767.446,1244.75 768.996,1244.75 770.545,1244.75 772.094,1244.75 773.643,1244.75 775.193,1244.75 
  776.742,1244.75 778.291,1244.75 779.84,1244.75 781.39,1244.75 782.939,1244.75 784.488,1244.75 786.037,1244.75 787.587,1244.75 789.136,1244.75 790.685,1244.75 
  792.234,1244.75 793.784,1244.75 795.333,1244.75 796.882,1244.75 798.431,1244.75 799.981,1244.75 801.53,1244.75 803.079,1244.75 804.628,1244.75 806.178,1244.75 
  807.727,1244.75 809.276,1244.75 810.825,1244.75 812.375,1244.75 813.924,1244.75 815.473,1244.75 817.022,1244.75 818.572,1244.75 820.121,1244.75 821.67,1244.75 
  823.219,1244.75 824.769,1244.75 826.318,1244.75 827.867,1244.75 829.416,1244.75 830.966,1244.75 832.515,1244.75 834.064,1244.75 835.613,1244.75 837.163,1244.75 
  838.712,1244.75 840.261,1244.75 841.81,1244.75 843.36,1244.75 844.909,1244.75 846.458,1244.75 848.007,1244.75 849.557,1244.75 851.106,1244.75 852.655,1244.75 
  854.204,1244.75 855.754,1244.75 857.303,1244.75 858.852,1244.75 860.401,1244.75 861.951,1244.75 863.5,1244.75 865.049,1244.75 866.598,1244.75 868.148,1244.75 
  869.697,1244.75 871.246,1244.75 872.795,1244.75 874.345,1244.75 875.894,1244.75 877.443,1244.75 878.992,1244.75 880.542,1244.75 882.091,1244.75 883.64,1244.75 
  885.189,1244.75 886.739,1244.75 888.288,1244.75 889.837,1244.75 891.386,1244.75 892.936,1244.75 894.485,1244.75 896.034,1244.75 897.583,1244.75 899.133,1244.75 
  900.682,1244.75 902.231,1244.75 903.78,1244.75 905.33,1244.75 906.879,1244.75 908.428,1244.75 909.977,1244.75 911.527,1244.75 913.076,1244.75 914.625,1244.75 
  916.174,1244.75 917.724,1244.75 919.273,1244.75 920.822,1244.75 922.371,1244.75 923.921,1244.75 925.47,1244.75 927.019,1244.75 928.568,1244.75 930.118,1244.75 
  931.667,1244.75 933.216,1244.75 934.765,1244.75 936.315,1244.75 937.864,1244.75 939.413,1244.75 940.962,1244.75 942.512,1244.75 944.061,1244.75 945.61,1244.75 
  947.159,1244.75 948.709,1244.75 950.258,1244.75 951.807,1244.75 953.356,1244.75 954.906,1244.75 956.455,1244.75 958.004,1244.75 959.553,1244.75 961.103,1244.75 
  962.652,1244.75 964.201,1244.75 965.75,1244.75 967.3,1244.75 968.849,1244.75 970.398,1244.75 971.947,1244.75 973.497,1244.75 975.046,1244.75 976.595,1244.75 
  978.144,1244.75 979.694,1244.75 981.243,1244.75 982.792,1244.75 984.341,1244.75 985.891,1244.75 987.44,1244.75 988.989,1244.75 990.538,1244.75 992.088,1244.75 
  993.637,1244.75 995.186,1244.75 996.735,1244.75 998.285,1244.75 999.834,1244.75 1001.38,1244.75 1002.93,1244.75 1004.48,1244.75 1006.03,1244.75 1007.58,1244.75 
  1009.13,1244.75 1010.68,1244.75 1012.23,1244.75 1013.78,1244.75 1015.33,1244.75 1016.88,1244.75 1018.42,1244.75 1019.97,1244.75 1021.52,1244.75 1023.07,1244.75 
  1024.62,1244.75 1026.17,1244.75 1027.72,1244.75 1029.27,1244.75 1030.82,1244.75 1032.37,1244.75 1033.92,1244.75 1035.47,1244.75 1037.02,1244.75 1038.57,1244.75 
  1040.11,1244.75 1041.66,1244.75 1043.21,1244.75 1044.76,1244.75 1046.31,1244.75 1047.86,1244.75 1049.41,1244.75 1050.96,1244.75 1052.51,1244.75 1054.06,1244.75 
  1055.61,1244.75 1057.16,1244.75 1058.71,1244.75 1060.25,1244.75 1061.8,1244.75 1063.35,1244.75 1064.9,1244.75 1066.45,1244.75 1068,1244.75 1069.55,1244.75 
  1071.1,1244.75 1072.65,1244.75 1074.2,1244.75 1075.75,1244.75 1077.3,1244.75 1078.85,1244.75 1080.39,1244.75 1081.94,1244.75 1083.49,1244.75 1085.04,1244.75 
  1086.59,1244.75 1088.14,1244.75 1089.69,1244.75 1091.24,1244.75 1092.79,1244.75 1094.34,1244.75 1095.89,1244.75 1097.44,1244.75 1098.99,1244.75 1100.54,1244.75 
  1102.08,1244.75 1103.63,1244.75 1105.18,1244.75 1106.73,1244.75 1108.28,1244.75 1109.83,1244.75 1111.38,1244.75 1112.93,1244.75 1114.48,1244.75 1116.03,1244.75 
  1117.58,1244.75 1119.13,1244.75 1120.68,1244.75 1122.22,1244.75 1123.77,1244.75 1125.32,1244.75 1126.87,1244.75 1128.42,1244.75 1129.97,1244.75 1131.52,1244.75 
  1133.07,1244.75 1134.62,1244.75 1136.17,1244.75 1137.72,1244.75 1139.27,1244.75 1140.82,1244.75 1142.36,1244.75 1143.91,1244.75 1145.46,1244.75 1147.01,1244.75 
  1148.56,1244.75 1150.11,1244.75 1151.66,1244.75 1153.21,1244.75 1154.76,1244.75 1156.31,1244.75 1157.86,1244.75 1159.41,1244.75 1160.96,1244.75 1162.51,1244.75 
  1164.05,1244.75 1165.6,1244.75 1167.15,1244.75 1168.7,1244.75 1170.25,1244.75 1171.8,1244.75 1173.35,1244.75 1174.9,1244.75 1176.45,1244.75 1178,1244.75 
  1179.55,1244.75 1181.1,1244.75 1182.65,1244.75 1184.19,1244.75 1185.74,1244.75 1187.29,1244.75 1188.84,1244.75 1190.39,1244.75 1191.94,1244.75 1193.49,1244.75 
  1195.04,1244.75 1196.59,1244.75 1198.14,1244.75 1199.69,1244.75 1201.24,1244.75 1202.79,1244.75 1204.33,1244.75 1205.88,1244.75 1207.43,1244.75 1208.98,1244.75 
  1210.53,1244.75 1212.08,1244.75 1213.63,1244.75 1215.18,1244.75 1216.73,1244.75 1218.28,1244.75 1219.83,1244.75 1221.38,1244.75 1222.93,1244.75 1224.48,1244.75 
  1226.02,1244.75 1227.57,1244.75 1229.12,1244.75 1230.67,1244.75 1232.22,1244.75 1233.77,1244.75 1235.32,1244.75 1236.87,1244.75 1238.42,1244.75 1239.97,1244.75 
  1241.52,1244.75 1243.07,1244.75 1244.62,1244.75 1246.16,1244.75 1247.71,1244.75 1249.26,1244.75 1250.81,1244.75 1252.36,1244.75 1253.91,1244.75 1255.46,1244.75 
  1257.01,1244.75 1258.56,1244.75 1260.11,1244.75 1261.66,1244.75 1263.21,1244.75 1264.76,1244.75 1266.3,1244.75 1267.85,1244.75 1269.4,1244.75 1270.95,1244.75 
  1272.5,1244.75 1274.05,1244.75 1275.6,1244.75 1277.15,1244.75 1278.7,1244.75 1280.25,1244.75 1281.8,1244.75 1283.35,1244.75 1284.9,1244.75 1286.45,1244.75 
  1287.99,1244.75 1289.54,1244.75 1291.09,1244.75 1292.64,1244.75 1294.19,1244.75 1295.74,1244.75 1297.29,1244.75 1298.84,1244.75 1300.39,1244.75 1301.94,1244.75 
  1303.49,1244.75 1305.04,1244.75 1306.59,1244.75 1308.13,1244.75 1309.68,1244.75 1311.23,1244.75 1312.78,1244.75 1314.33,1244.75 1315.88,1244.75 1317.43,1244.75 
  1318.98,1244.75 1320.53,1244.75 1322.08,1244.75 1323.63,1244.75 1325.18,1244.75 1326.73,1244.75 1328.27,1244.75 1329.82,1244.75 1331.37,1244.75 1332.92,1244.75 
  1334.47,1244.75 1336.02,1244.75 1337.57,1244.75 1339.12,1244.75 1340.67,1244.75 1342.22,1244.75 1343.77,1244.75 1345.32,1244.75 1346.87,1244.75 1348.42,1244.75 
  1349.96,1244.75 1351.51,1244.75 1353.06,1244.75 1354.61,1244.75 1356.16,1244.75 1357.71,1244.75 1359.26,1244.75 1360.81,1244.75 1362.36,1244.75 1363.91,1244.75 
  1365.46,1244.75 1367.01,1244.75 1368.56,1244.75 1370.1,1244.75 1371.65,1244.75 1373.2,1244.75 1374.75,1244.75 1376.3,1244.75 1377.85,1244.75 1379.4,1244.75 
  1380.95,1244.75 1382.5,1244.75 1384.05,1244.75 1385.6,219.727 1387.15,1244.75 1388.7,1244.75 1390.24,1244.75 1391.79,1244.75 1393.34,1244.75 1394.89,1244.75 
  1396.44,1244.75 1397.99,1244.75 1399.54,1244.75 1401.09,1244.75 1402.64,1244.75 1404.19,1244.75 1405.74,1244.75 1407.29,1244.75 1408.84,1244.75 1410.39,1244.75 
  1411.93,1244.75 1413.48,1244.75 1415.03,1244.75 1416.58,1244.75 1418.13,1244.75 1419.68,1244.75 1421.23,1244.75 1422.78,1244.75 1424.33,1244.75 1425.88,1244.75 
  1427.43,1244.75 1428.98,1244.75 1430.53,1244.75 1432.07,1244.75 1433.62,1244.75 1435.17,1244.75 1436.72,1244.75 1438.27,1244.75 1439.82,1244.75 1441.37,1244.75 
  1442.92,1244.75 1444.47,1244.75 1446.02,1244.75 1447.57,1244.75 1449.12,1244.75 1450.67,1244.75 1452.21,1244.75 1453.76,1244.75 1455.31,1244.75 1456.86,1244.75 
  1458.41,1244.75 1459.96,1244.75 1461.51,1244.75 1463.06,1244.75 1464.61,1244.75 1466.16,1244.75 1467.71,1244.75 1469.26,1244.75 1470.81,1244.75 1472.36,1244.75 
  1473.9,1244.75 1475.45,1244.75 1477,1244.75 1478.55,1244.75 1480.1,1244.75 1481.65,1244.75 1483.2,1244.75 1484.75,1244.75 1486.3,1244.75 1487.85,1244.75 
  1489.4,1244.75 1490.95,1244.75 1492.5,1244.75 1494.04,1244.75 1495.59,1244.75 1497.14,1244.75 1498.69,1244.75 1500.24,1244.75 1501.79,1244.75 1503.34,1244.75 
  1504.89,1244.75 1506.44,1244.75 1507.99,1244.75 1509.54,1244.75 1511.09,1244.75 1512.64,1244.75 1514.18,1244.75 1515.73,1244.75 1517.28,1244.75 1518.83,1244.75 
  1520.38,1244.75 1521.93,1244.75 1523.48,1244.75 1525.03,1244.75 1526.58,1244.75 1528.13,1244.75 1529.68,1244.75 1531.23,1244.75 1532.78,1244.75 1534.33,1244.75 
  1535.87,1244.75 1537.42,1244.75 1538.97,1244.75 1540.52,1244.75 1542.07,1244.75 1543.62,1244.75 1545.17,1244.75 1546.72,1244.75 1548.27,1244.75 1549.82,1244.75 
  1551.37,1244.75 1552.92,1244.75 1554.47,1244.75 1556.01,1244.75 1557.56,1244.75 1559.11,1244.75 1560.66,1244.75 1562.21,1244.75 1563.76,1244.75 1565.31,1244.75 
  1566.86,1244.75 1568.41,1244.75 1569.96,1244.75 1571.51,1244.75 1573.06,1244.75 1574.61,1244.75 1576.15,1244.75 1577.7,1244.75 1579.25,1244.75 1580.8,1244.75 
  1582.35,1244.75 1583.9,1244.75 1585.45,1244.75 1587,1244.75 1588.55,1244.75 1590.1,1244.75 1591.65,1244.75 1593.2,1244.75 1594.75,1244.75 1596.3,1244.75 
  1597.84,1244.75 1599.39,1244.75 1600.94,1244.75 1602.49,1244.75 1604.04,1244.75 1605.59,1244.75 1607.14,1244.75 1608.69,1244.75 1610.24,1244.75 1611.79,1244.75 
  1613.34,1244.75 1614.89,1244.75 1616.44,1244.75 1617.98,1244.75 1619.53,1244.75 1621.08,1244.75 1622.63,1244.75 1624.18,1244.75 1625.73,1244.75 1627.28,1244.75 
  1628.83,1244.75 1630.38,1244.75 1631.93,1244.75 1633.48,1244.75 1635.03,1244.75 1636.58,1244.75 1638.12,1244.75 1639.67,1244.75 1641.22,1244.75 1642.77,1244.75 
  1644.32,1244.75 1645.87,1244.75 1647.42,1244.75 1648.97,1244.75 1650.52,1244.75 1652.07,1244.75 1653.62,1244.75 1655.17,1244.75 1656.72,1244.75 1658.27,1244.75 
  1659.81,1244.75 1661.36,1244.75 1662.91,1244.75 1664.46,1244.75 1666.01,1244.75 1667.56,1244.75 1669.11,1244.75 1670.66,1244.75 1672.21,1244.75 1673.76,1244.75 
  1675.31,1244.75 1676.86,1244.75 1678.41,1244.75 1679.95,1244.75 1681.5,1244.75 1683.05,1244.75 1684.6,1244.75 1686.15,1244.75 1687.7,1244.75 1689.25,1244.75 
  1690.8,1244.75 1692.35,1244.75 1693.9,1244.75 1695.45,1244.75 1697,1244.75 1698.55,1244.75 1700.09,1244.75 1701.64,1244.75 1703.19,1244.75 1704.74,1244.75 
  1706.29,1244.75 1707.84,1244.75 1709.39,1244.75 1710.94,1244.75 1712.49,1244.75 1714.04,1244.75 1715.59,1244.75 1717.14,1244.75 1718.69,1244.75 1720.24,1244.75 
  1721.78,1244.75 1723.33,1244.75 1724.88,1244.75 1726.43,1244.75 1727.98,1244.75 1729.53,1244.75 1731.08,1244.75 1732.63,1244.75 1734.18,1244.75 1735.73,1244.75 
  1737.28,1244.75 1738.83,1244.75 1740.38,1244.75 1741.92,1244.75 1743.47,1244.75 1745.02,1244.75 1746.57,1244.75 1748.12,1244.75 1749.67,1244.75 1751.22,1244.75 
  1752.77,1244.75 1754.32,1244.75 1755.87,1244.75 1757.42,1244.75 1758.97,1244.75 1760.52,1244.75 1762.06,1244.75 1763.61,1244.75 1765.16,1244.75 1766.71,1244.75 
  1768.26,1244.75 1769.81,1244.75 1771.36,1244.75 1772.91,1244.75 1774.46,1244.75 1776.01,1244.75 1777.56,1244.75 1779.11,1244.75 1780.66,1244.75 1782.21,1244.75 
  1783.75,1244.75 1785.3,1244.75 1786.85,1244.75 1788.4,1244.75 1789.95,1244.75 1791.5,1244.75 1793.05,1244.75 1794.6,1244.75 1796.15,1244.75 1797.7,1244.75 
  1799.25,1244.75 1800.8,1244.75 1802.35,1244.75 1803.89,1244.75 1805.44,1244.75 1806.99,1244.75 1808.54,1244.75 1810.09,1244.75 1811.64,1244.75 1813.19,1244.75 
  1814.74,1244.75 1816.29,1244.75 1817.84,1244.75 1819.39,1244.75 1820.94,1244.75 1822.49,1244.75 1824.03,1244.75 1825.58,1244.75 1827.13,1244.75 1828.68,1244.75 
  1830.23,1244.75 1831.78,1244.75 1833.33,1244.75 1834.88,1244.75 1836.43,1244.75 1837.98,1244.75 1839.53,1244.75 1841.08,1244.75 1842.63,1244.75 1844.18,1244.75 
  1845.72,1244.75 1847.27,1244.75 1848.82,1244.75 1850.37,1244.75 1851.92,1244.75 1853.47,1244.75 1855.02,1244.75 1856.57,1244.75 1858.12,1244.75 1859.67,1244.75 
  1861.22,1244.75 1862.77,1244.75 1864.32,1244.75 1865.86,1244.75 1867.41,1244.75 1868.96,1244.75 1870.51,1244.75 1872.06,1244.75 1873.61,1244.75 1875.16,1244.75 
  1876.71,1244.75 1878.26,1244.75 1879.81,1244.75 1881.36,1244.75 1882.91,1244.75 1884.46,1244.75 1886,1244.75 1887.55,1244.75 1889.1,1244.75 1890.65,1244.75 
  1892.2,1244.75 1893.75,1244.75 1895.3,1244.75 1896.85,1244.75 1898.4,1244.75 1899.95,1244.75 1901.5,1244.75 1903.05,1244.75 1904.6,1244.75 1906.15,1244.75 
  1907.69,1244.75 1909.24,1244.75 1910.79,1244.75 1912.34,1244.75 1913.89,1244.75 1915.44,1244.75 1916.99,1244.75 1918.54,1244.75 1920.09,1244.75 1921.64,1244.75 
  1923.19,1244.75 1924.74,1244.75 1926.29,1244.75 1927.83,1244.75 1929.38,1244.75 1930.93,1244.75 1932.48,1244.75 1934.03,1244.75 1935.58,1244.75 1937.13,1244.75 
  1938.68,1244.75 1940.23,1244.75 1941.78,1244.75 1943.33,1244.75 1944.88,1244.75 1946.43,1244.75 1947.97,1244.75 1949.52,1244.75 1951.07,1244.75 1952.62,1244.75 
  1954.17,1244.75 1955.72,1244.75 1957.27,1244.75 1958.82,1244.75 1960.37,1244.75 1961.92,1244.75 1963.47,1244.75 1965.02,1244.75 1966.57,1244.75 1968.12,1244.75 
  1969.66,1244.75 1971.21,1244.75 1972.76,1244.75 1974.31,1244.75 1975.86,1244.75 1977.41,1244.75 1978.96,1244.75 1980.51,1244.75 1982.06,1244.75 1983.61,1244.75 
  1985.16,1244.75 1986.71,1244.75 1988.26,1244.75 1989.8,1244.75 1991.35,1244.75 1992.9,1244.75 1994.45,1244.75 1996,1244.75 1997.55,1244.75 1999.1,1244.75 
  2000.65,1244.75 2002.2,1244.75 2003.75,1244.75 2005.3,1244.75 2006.85,1244.75 2008.4,1244.75 2009.94,1244.75 2011.49,1244.75 2013.04,1244.75 2014.59,1244.75 
  2016.14,1244.75 2017.69,1244.75 2019.24,1244.75 2020.79,1244.75 2022.34,1244.75 2023.89,1244.75 2025.44,1244.75 2026.99,1244.75 2028.54,1244.75 2030.09,1244.75 
  2031.63,1244.75 2033.18,1244.75 2034.73,1244.75 2036.28,1244.75 2037.83,1244.75 2039.38,1244.75 2040.93,1244.75 2042.48,1244.75 2044.03,1244.75 2045.58,1244.75 
  2047.13,1244.75 2048.68,1244.75 2050.23,1244.75 2051.77,1244.75 2053.32,1244.75 2054.87,1244.75 2056.42,1244.75 2057.97,1244.75 2059.52,1244.75 2061.07,1244.75 
  2062.62,1244.75 2064.17,1244.75 2065.72,1244.75 2067.27,1244.75 2068.82,1244.75 2070.37,1244.75 2071.91,1244.75 2073.46,1244.75 2075.01,1244.75 2076.56,1244.75 
  2078.11,1244.75 2079.66,1244.75 2081.21,1244.75 2082.76,1244.75 2084.31,1244.75 2085.86,1244.75 2087.41,1244.75 2088.96,1244.75 2090.51,1244.75 2092.06,1244.75 
  2093.6,1244.75 2095.15,1244.75 2096.7,1244.75 2098.25,1244.75 2099.8,1244.75 2101.35,1244.75 2102.9,1244.75 2104.45,1244.75 2106,1244.75 2107.55,1244.75 
  2109.1,1244.75 2110.65,1244.75 2112.2,1244.75 2113.74,1244.75 2115.29,1244.75 2116.84,1244.75 2118.39,1244.75 2119.94,1244.75 2121.49,1244.75 2123.04,1244.75 
  2124.59,1244.75 2126.14,1244.75 2127.69,1244.75 2129.24,1244.75 2130.79,1244.75 2132.34,1244.75 2133.88,1244.75 2135.43,1244.75 2136.98,1244.75 2138.53,1244.75 
  2140.08,1244.75 2141.63,1244.75 2143.18,1244.75 2144.73,1244.75 2146.28,1244.75 2147.83,1244.75 2149.38,1244.75 2150.93,1244.75 2152.48,1244.75 2154.03,1244.75 
  2155.57,1244.75 2157.12,1244.75 2158.67,1244.75 2160.22,1244.75 2161.77,1244.75 2163.32,1244.75 2164.87,1244.75 2166.42,1244.75 2167.97,1244.75 2169.52,1244.75 
  2171.07,1244.75 2172.62,1244.75 2174.17,1244.75 2175.71,1244.75 2177.26,1244.75 2178.81,1244.75 2180.36,1244.75 2181.91,1244.75 2183.46,1244.75 2185.01,1244.75 
  2186.56,1244.75 2188.11,1244.75 2189.66,1244.75 2191.21,1244.75 2192.76,1244.75 2194.31,1244.75 2195.85,1244.75 2197.4,1244.75 2198.95,1244.75 2200.5,1244.75 
  2202.05,1244.75 2203.6,1244.75 2205.15,1244.75 2206.7,1244.75 2208.25,1244.75 2209.8,1244.75 2211.35,1244.75 2212.9,1244.75 2214.45,1244.75 2216,1244.75 
  2217.54,1244.75 2219.09,1244.75 2220.64,1244.75 2222.19,1244.75 2223.74,1244.75 2225.29,1244.75 2226.84,1244.75 2228.39,1244.75 2229.94,1244.75 2231.49,1244.75 
  2233.04,1244.75 2234.59,1244.75 2236.14,1244.75 2237.68,1244.75 2239.23,1244.75 2240.78,1244.75 2242.33,1244.75 2243.88,1244.75 2245.43,1244.75 2246.98,1244.75 
  2248.53,1244.75 2250.08,1244.75 2251.63,1244.75 2253.18,1244.75 2254.73,1244.75 2256.28,1244.75 2257.82,1244.75 2259.37,1244.75 2260.92,1244.75 2262.47,1244.75 
  2264.02,1244.75 2265.57,1244.75 2267.12,1244.75 2268.67,1244.75 2270.22,1244.75 2271.77,1244.75 2273.32,1244.75 2274.87,1244.75 2276.42,1244.75 2277.97,1244.75 
  2279.51,1244.75 2281.06,1244.75 2282.61,1244.75 2284.16,1244.75 2285.71,1244.75 2287.26,1244.75 2288.81,1244.75 2290.36,1244.75 2291.91,1244.75 2293.46,1244.75 
  2295.01,1244.75 2296.56,1244.75 2298.11,1244.75 2299.65,1244.75 2301.2,1244.75 2302.75,1244.75 2304.3,1244.75 2305.85,1244.75 2307.4,1244.75 2308.95,1244.75 
  2310.5,1244.75 2312.05,1244.75 2313.6,1244.75 2315.15,1244.75 2316.7,1244.75 2318.25,1244.75 2319.79,1244.75 2321.34,1244.75 2322.89,1244.75 2324.44,1244.75 
  2325.99,1244.75 2327.54,1244.75 2329.09,1244.75 2330.64,1244.75 2332.19,1244.75 2333.74,1244.75 2335.29,1244.75 2336.84,1244.75 2338.39,1244.75 2339.94,1244.75 
  2341.48,1244.75 2343.03,1244.75 2344.58,1244.75 2346.13,1244.75 2347.68,1244.75 2349.23,1244.75 2350.78,1244.75 2352.33,1244.75 2353.88,1244.75 2355.43,1244.75 
  2356.98,1244.75 2358.53,1244.75 2360.08,1244.75 2361.62,1244.75 2363.17,1244.75 2364.72,1244.75 2366.27,1244.75 2367.82,1244.75 2369.37,1244.75 2370.92,1244.75 
  2372.47,1244.75 2374.02,1244.75 2375.57,1244.75 2377.12,1244.75 2378.67,1244.75 2380.22,1244.75 2381.76,1244.75 2383.31,1244.75 2384.86,1244.75 2386.41,1244.75 
  2387.96,1244.75 2389.51,1244.75 2391.06,1244.75 2392.61,1244.75 2394.16,1244.75 2395.71,1244.75 2397.26,1244.75 2398.81,1244.75 2400.36,1244.75 2401.91,1244.75 
  2403.45,1244.75 2405,1244.75 2406.55,1244.75 2408.1,1244.75 2409.65,1244.75 2411.2,1244.75 2412.75,1244.75 2414.3,1244.75 2415.85,1244.75 2417.4,1244.75 
  2418.95,1244.75 2420.5,1244.75 2422.05,1244.75 2423.59,1244.75 2425.14,1244.75 2426.69,1244.75 2428.24,1244.75 2429.79,1244.75 2431.34,1244.75 2432.89,1244.75 
  2434.44,1244.75 2435.99,1244.75 2437.54,1244.75 2439.09,1244.75 2440.64,1244.75 2442.19,1244.75 2443.73,1244.75 2445.28,1244.75 2446.83,1244.75 2448.38,1244.75 
  2449.93,1244.75 2451.48,1244.75 2453.03,1244.75 2454.58,1244.75 2456.13,1244.75 2457.68,1244.75 2459.23,1244.75 2460.78,1244.75 2462.33,1244.75 2463.88,1244.75 
  2465.42,1244.75 2466.97,1244.75 2468.52,1244.75 2470.07,1244.75 2471.62,1244.75 2473.17,1244.75 2474.72,1244.75 2476.27,1244.75 2477.82,1244.75 2479.37,1244.75 
  2480.92,1244.75 2482.47,1244.75 2484.02,1244.75 2485.56,1244.75 2487.11,1244.75 2488.66,1244.75 2490.21,1244.75 2491.76,1244.75 2493.31,1244.75 2494.86,1244.75 
  2496.41,1244.75 2497.96,1244.75 2499.51,1244.75 2501.06,1244.75 2502.61,1244.75 2504.16,1244.75 2505.7,1244.75 2507.25,1244.75 2508.8,1244.75 2510.35,1244.75 
  2511.9,1244.75 2513.45,1244.75 2515,1244.75 2516.55,1244.75 2518.1,1244.75 2519.65,1244.75 2521.2,1244.75 2522.75,1244.75 2524.3,1244.75 2525.85,1244.75 
  2527.39,1244.75 2528.94,1244.75 2530.49,1244.75 2532.04,1244.75 2533.59,1244.75 2535.14,1244.75 2536.69,1244.75 2538.24,1244.75 2539.79,1244.75 2541.34,1244.75 
  2542.89,1244.75 2544.44,1244.75 2545.99,1244.75 2547.53,1244.75 2549.08,1244.75 2550.63,1244.75 2552.18,1244.75 2553.73,1244.75 2555.28,1244.75 2556.83,1244.75 
  2558.38,1244.75 2559.93,1244.75 2561.48,1244.75 2563.03,1244.75 2564.58,1244.75 2566.13,1244.75 2567.67,1244.75 2569.22,1244.75 2570.77,1244.75 2572.32,1244.75 
  2573.87,1244.75 2575.42,1244.75 2576.97,1244.75 2578.52,1244.75 2580.07,1244.75 2581.62,1244.75 2583.17,1244.75 2584.72,1244.75 2586.27,1244.75 2587.82,1244.75 
  2589.36,1244.75 2590.91,1244.75 2592.46,1244.75 2594.01,1244.75 2595.56,1244.75 2597.11,1244.75 2598.66,1244.75 2600.21,1244.75 2601.76,1244.75 2603.31,1244.75 
  2604.86,1244.75 2606.41,1244.75 2607.96,1244.75 2609.5,1244.75 2611.05,1244.75 2612.6,1244.75 2614.15,1244.75 2615.7,1244.75 2617.25,1244.75 2618.8,1244.75 
  2620.35,1244.75 2621.9,1244.75 2623.45,1244.75 2625,1244.75 2626.55,1244.75 2628.1,1244.75 2629.64,1244.75 2631.19,1244.75 2632.74,1244.75 2634.29,1244.75 
  2635.84,1244.75 2637.39,1244.75 2638.94,1244.75 2640.49,1244.75 2642.04,1244.75 2643.59,1244.75 2645.14,1244.75 2646.69,1244.75 2648.24,1244.75 2649.79,1244.75 
  2651.33,1244.75 2652.88,1244.75 2654.43,1244.75 2655.98,1244.75 2657.53,1244.75 2659.08,1244.75 2660.63,1244.75 2662.18,1244.75 2663.73,1244.75 2665.28,1244.75 
  2666.83,1244.75 2668.38,1244.75 2669.93,1244.75 2671.47,1244.75 2673.02,1244.75 2674.57,1244.75 2676.12,1244.75 2677.67,1244.75 2679.22,1244.75 2680.77,1244.75 
  2682.32,1244.75 2683.87,1244.75 2685.42,1244.75 2686.97,1244.75 2688.52,1244.75 2690.07,1244.75 2691.61,1244.75 2693.16,1244.75 2694.71,1244.75 2696.26,1244.75 
  2697.81,1244.75 2699.36,1244.75 2700.91,1244.75 2702.46,1244.75 2704.01,1244.75 2705.56,1244.75 2707.11,1244.75 2708.66,1244.75 2710.21,1244.75 2711.76,1244.75 
  2713.3,1244.75 2714.85,1244.75 2716.4,1244.75 2717.95,1244.75 2719.5,1244.75 2721.05,1244.75 2722.6,1244.75 2724.15,1244.75 2725.7,1244.75 2727.25,1244.75 
  2728.8,1244.75 2730.35,1244.75 2731.9,1244.75 2733.44,1244.75 2734.99,1244.75 2736.54,1244.75 2738.09,1244.75 2739.64,1244.75 2741.19,1244.75 2742.74,1244.75 
  2744.29,1244.75 2745.84,1244.75 2747.39,1244.75 2748.94,1244.75 2750.49,1244.75 2752.04,1244.75 2753.58,1244.75 2755.13,1244.75 2756.68,1244.75 2758.23,1244.75 
  2759.78,1244.75 2761.33,1244.75 2762.88,1244.75 2764.43,1244.75 2765.98,1244.75 2767.53,1244.75 2769.08,1244.75 2770.63,1244.75 2772.18,1244.75 2773.73,1244.75 
  2775.27,1244.75 2776.82,1244.75 2778.37,1244.75 2779.92,1244.75 2781.47,1244.75 2783.02,1244.75 2784.57,1244.75 2786.12,1244.75 2787.67,1244.75 2789.22,1244.75 
  2790.77,1244.75 2792.32,1244.75 2793.87,1244.75 2795.41,1244.75 2796.96,1244.75 2798.51,1244.75 2800.06,1244.75 2801.61,1244.75 2803.16,1244.75 2804.71,1244.75 
  2806.26,1244.75 2807.81,1244.75 2809.36,1244.75 2810.91,1244.75 2812.46,1244.75 2814.01,1244.75 2815.55,1244.75 2817.1,1244.75 2818.65,1244.75 2820.2,1244.75 
  2821.75,1244.75 2823.3,1244.75 2824.85,1244.75 2826.4,1244.75 2827.95,1244.75 2829.5,1244.75 2831.05,1244.75 2832.6,1244.75 2834.15,1244.75 2835.7,1244.75 
  2837.24,1244.75 2838.79,1244.75 2840.34,1244.75 2841.89,1244.75 2843.44,1244.75 2844.99,1244.75 2846.54,1244.75 2848.09,1244.75 2849.64,1244.75 2851.19,1244.75 
  2852.74,1244.75 2854.29,1244.75 2855.84,1244.75 2857.38,1244.75 2858.93,1244.75 2860.48,1244.75 2862.03,1244.75 2863.58,1244.75 2865.13,1244.75 2866.68,1244.75 
  2868.23,1244.75 2869.78,1244.75 2871.33,1244.75 2872.88,1244.75 2874.43,1244.75 2875.98,1244.75 2877.52,1244.75 2879.07,1244.75 2880.62,1244.75 2882.17,1244.75 
  2883.72,1244.75 2885.27,1244.75 2886.82,1244.75 2888.37,1244.75 2889.92,1244.75 2891.47,1244.75 2893.02,1244.75 2894.57,1244.75 2896.12,1244.75 2897.67,1244.75 
  2899.21,1244.75 2900.76,1244.75 2902.31,1244.75 2903.86,1244.75 2905.41,1244.75 2906.96,1244.75 2908.51,1244.75 2910.06,1244.75 2911.61,1244.75 2913.16,1244.75 
  2914.71,1244.75 2916.26,1244.75 2917.81,1244.75 2919.35,1244.75 2920.9,1244.75 2922.45,1244.75 2924,1244.75 2925.55,1244.75 2927.1,1244.75 2928.65,1244.75 
  2930.2,1244.75 2931.75,1244.75 2933.3,1244.75 2934.85,1244.75 2936.4,1244.75 2937.95,1244.75 2939.49,1244.75 2941.04,1244.75 2942.59,1244.75 2944.14,1244.75 
  
  "/>
<circle clip-path="url(#clip3502)" style="fill:#000000; stroke:none; fill-opacity:1" cx="1385.6" cy="219.727" r="18"/>
<circle clip-path="url(#clip3502)" style="fill:#ff0000; stroke:none; fill-opacity:1" cx="1385.6" cy="219.727" r="14"/>
</svg>
