<?xml version="1.0" encoding="utf-8"?>
<svg xmlns="http://www.w3.org/2000/svg" xmlns:xlink="http://www.w3.org/1999/xlink" width="800" height="400" viewBox="0 0 3200 1600">
<defs>
  <clipPath id="clip4100">
    <rect x="0" y="0" width="3200" height="1600"/>
  </clipPath>
</defs>
<polygon clip-path="url(#clip4100)" points="
0,1600 3200,1600 3200,0 0,0 
  " fill="#ffffff" fill-rule="evenodd" fill-opacity="1"/>
<defs>
  <clipPath id="clip4101">
    <rect x="640" y="0" width="2241" height="1600"/>
  </clipPath>
</defs>
<polygon clip-path="url(#clip4100)" points="
600.755,1275.5 3011.02,1275.5 3011.02,188.976 600.755,188.976 
  " fill="#ffffff" fill-rule="evenodd" fill-opacity="1"/>
<defs>
  <clipPath id="clip4102">
    <rect x="600" y="188" width="2411" height="1088"/>
  </clipPath>
</defs>
<polyline clip-path="url(#clip4102)" style="stroke:#000000; stroke-width:2; stroke-opacity:0.1; fill:none" points="
  667.39,1275.5 667.39,188.976 
  "/>
<polyline clip-path="url(#clip4102)" style="stroke:#000000; stroke-width:2; stroke-opacity:0.1; fill:none" points="
  1141.44,1275.5 1141.44,188.976 
  "/>
<polyline clip-path="url(#clip4102)" style="stroke:#000000; stroke-width:2; stroke-opacity:0.1; fill:none" points="
  1615.48,1275.5 1615.48,188.976 
  "/>
<polyline clip-path="url(#clip4102)" style="stroke:#000000; stroke-width:2; stroke-opacity:0.1; fill:none" points="
  2089.53,1275.5 2089.53,188.976 
  "/>
<polyline clip-path="url(#clip4102)" style="stroke:#000000; stroke-width:2; stroke-opacity:0.1; fill:none" points="
  2563.57,1275.5 2563.57,188.976 
  "/>
<polyline clip-path="url(#clip4102)" style="stroke:#000000; stroke-width:2; stroke-opacity:0.1; fill:none" points="
  600.755,1244.75 3011.02,1244.75 
  "/>
<polyline clip-path="url(#clip4102)" style="stroke:#000000; stroke-width:2; stroke-opacity:0.1; fill:none" points="
  600.755,988.496 3011.02,988.496 
  "/>
<polyline clip-path="url(#clip4102)" style="stroke:#000000; stroke-width:2; stroke-opacity:0.1; fill:none" points="
  600.755,732.24 3011.02,732.24 
  "/>
<polyline clip-path="url(#clip4102)" style="stroke:#000000; stroke-width:2; stroke-opacity:0.1; fill:none" points="
  600.755,475.983 3011.02,475.983 
  "/>
<polyline clip-path="url(#clip4102)" style="stroke:#000000; stroke-width:2; stroke-opacity:0.1; fill:none" points="
  600.755,219.727 3011.02,219.727 
  "/>
<polyline clip-path="url(#clip4100)" style="stroke:#000000; stroke-width:4; stroke-opacity:1; fill:none" points="
  600.755,1275.5 3011.02,1275.5 
  "/>
<polyline clip-path="url(#clip4100)" style="stroke:#000000; stroke-width:4; stroke-opacity:1; fill:none" points="
  600.755,1275.5 600.755,188.976 
  "/>
<polyline clip-path="url(#clip4100)" style="stroke:#000000; stroke-width:4; stroke-opacity:1; fill:none" points="
  667.39,1275.5 667.39,1259.21 
  "/>
<polyline clip-path="url(#clip4100)" style="stroke:#000000; stroke-width:4; stroke-opacity:1; fill:none" points="
  1141.44,1275.5 1141.44,1259.21 
  "/>
<polyline clip-path="url(#clip4100)" style="stroke:#000000; stroke-width:4; stroke-opacity:1; fill:none" points="
  1615.48,1275.5 1615.48,1259.21 
  "/>
<polyline clip-path="url(#clip4100)" style="stroke:#000000; stroke-width:4; stroke-opacity:1; fill:none" points="
  2089.53,1275.5 2089.53,1259.21 
  "/>
<polyline clip-path="url(#clip4100)" style="stroke:#000000; stroke-width:4; stroke-opacity:1; fill:none" points="
  2563.57,1275.5 2563.57,1259.21 
  "/>
<polyline clip-path="url(#clip4100)" style="stroke:#000000; stroke-width:4; stroke-opacity:1; fill:none" points="
  600.755,1244.75 636.909,1244.75 
  "/>
<polyline clip-path="url(#clip4100)" style="stroke:#000000; stroke-width:4; stroke-opacity:1; fill:none" points="
  600.755,988.496 636.909,988.496 
  "/>
<polyline clip-path="url(#clip4100)" style="stroke:#000000; stroke-width:4; stroke-opacity:1; fill:none" points="
  600.755,732.24 636.909,732.24 
  "/>
<polyline clip-path="url(#clip4100)" style="stroke:#000000; stroke-width:4; stroke-opacity:1; fill:none" points="
  600.755,475.983 636.909,475.983 
  "/>
<polyline clip-path="url(#clip4100)" style="stroke:#000000; stroke-width:4; stroke-opacity:1; fill:none" points="
  600.755,219.727 636.909,219.727 
  "/>
<g clip-path="url(#clip4100)">
<text style="fill:#000000; fill-opacity:1; font-family:Arial,Helvetica Neue,Helvetica,sans-serif; font-size:71px; text-anchor:middle;" transform="rotate(0, 667.39, 1353.9)" x="667.39" y="1353.9">0</text>
</g>
<g clip-path="url(#clip4100)">
<text style="fill:#000000; fill-opacity:1; font-family:Arial,Helvetica Neue,Helvetica,sans-serif; font-size:71px; text-anchor:middle;" transform="rotate(0, 1141.44, 1353.9)" x="1141.44" y="1353.9">300</text>
</g>
<g clip-path="url(#clip4100)">
<text style="fill:#000000; fill-opacity:1; font-family:Arial,Helvetica Neue,Helvetica,sans-serif; font-size:71px; text-anchor:middle;" transform="rotate(0, 1615.48, 1353.9)" x="1615.48" y="1353.9">600</text>
</g>
<g clip-path="url(#clip4100)">
<text style="fill:#000000; fill-opacity:1; font-family:Arial,Helvetica Neue,Helvetica,sans-serif; font-size:71px; text-anchor:middle;" transform="rotate(0, 2089.53, 1353.9)" x="2089.53" y="1353.9">900</text>
</g>
<g clip-path="url(#clip4100)">
<text style="fill:#000000; fill-opacity:1; font-family:Arial,Helvetica Neue,Helvetica,sans-serif; font-size:71px; text-anchor:middle;" transform="rotate(0, 2563.57, 1353.9)" x="2563.57" y="1353.9">1200</text>
</g>
<g clip-path="url(#clip4100)">
<text style="fill:#000000; fill-opacity:1; font-family:Arial,Helvetica Neue,Helvetica,sans-serif; font-size:71px; text-anchor:end;" transform="rotate(0, 568.755, 1270.75)" x="568.755" y="1270.75">0.00</text>
</g>
<g clip-path="url(#clip4100)">
<text style="fill:#000000; fill-opacity:1; font-family:Arial,Helvetica Neue,Helvetica,sans-serif; font-size:71px; text-anchor:end;" transform="rotate(0, 568.755, 1014.5)" x="568.755" y="1014.5">0.25</text>
</g>
<g clip-path="url(#clip4100)">
<text style="fill:#000000; fill-opacity:1; font-family:Arial,Helvetica Neue,Helvetica,sans-serif; font-size:71px; text-anchor:end;" transform="rotate(0, 568.755, 758.24)" x="568.755" y="758.24">0.50</text>
</g>
<g clip-path="url(#clip4100)">
<text style="fill:#000000; fill-opacity:1; font-family:Arial,Helvetica Neue,Helvetica,sans-serif; font-size:71px; text-anchor:end;" transform="rotate(0, 568.755, 501.983)" x="568.755" y="501.983">0.75</text>
</g>
<g clip-path="url(#clip4100)">
<text style="fill:#000000; fill-opacity:1; font-family:Arial,Helvetica Neue,Helvetica,sans-serif; font-size:71px; text-anchor:end;" transform="rotate(0, 568.755, 245.727)" x="568.755" y="245.727">1.00</text>
</g>
<g clip-path="url(#clip4100)">
<text style="fill:#000000; fill-opacity:1; font-family:Arial,Helvetica Neue,Helvetica,sans-serif; font-size:95px; text-anchor:middle;" transform="rotate(0, 1805.89, 1469.75)" x="1805.89" y="1469.75">Time (min)</text>
</g>
<g clip-path="url(#clip4100)">
<text style="fill:#000000; fill-opacity:1; font-family:Arial,Helvetica Neue,Helvetica,sans-serif; font-size:95px; text-anchor:middle;" transform="rotate(-90, 378.453, 732.24)" x="378.453" y="732.24">Prob of wait (NS)</text>
</g>
<polyline clip-path="url(#clip4102)" style="stroke:#009af9; stroke-width:4; stroke-opacity:1; fill:none" points="
  668.97,1233.37 670.55,1233.48 672.13,1233.59 673.71,1233.71 675.291,1233.82 676.871,1233.93 678.451,1234.04 680.031,1234.14 681.611,1234.25 683.191,1234.36 
  684.771,1234.46 686.352,1234.57 687.932,1234.67 689.512,1234.77 691.092,1234.87 692.672,1234.97 694.252,1235.07 695.832,1235.17 697.413,1235.27 698.993,1235.37 
  700.573,1235.47 702.153,1235.56 703.733,1235.66 705.313,1235.75 706.894,1235.84 708.474,1235.94 710.054,1236.03 711.634,1236.12 713.214,1236.21 714.794,1236.3 
  716.374,1236.38 717.955,1236.47 719.535,1236.56 721.115,1236.64 722.695,1236.73 724.275,1236.81 725.855,1236.9 727.436,1236.98 729.016,1237.06 730.596,1237.14 
  732.176,1237.22 733.756,1237.3 735.336,1237.38 736.916,1237.46 738.497,1237.54 740.077,1237.62 741.657,1237.69 743.237,1237.77 744.817,1237.84 746.397,1237.92 
  747.978,1237.99 749.558,1238.06 751.138,1238.14 752.718,1238.21 754.298,1238.28 755.878,1238.35 757.458,1238.42 759.039,1238.49 760.619,1238.56 762.199,1238.62 
  763.779,1238.69 765.359,1238.76 766.939,1238.82 768.519,1238.89 770.1,1238.95 771.68,1239.02 773.26,1239.08 774.84,1239.14 776.42,1239.2 778,1239.27 
  779.581,1239.33 781.161,1239.39 782.741,1239.45 784.321,1239.51 785.901,1239.56 787.481,1239.62 789.061,1239.68 790.642,1239.74 792.222,1239.79 793.802,1239.85 
  795.382,1239.9 796.962,1239.96 798.542,1240.01 800.123,1240.07 801.703,1240.12 803.283,1240.17 804.863,1240.22 806.443,1240.27 808.023,1240.33 809.603,1240.38 
  811.184,1240.43 812.764,1240.48 814.344,1240.53 815.924,1240.57 817.504,1240.62 819.084,1240.67 820.664,1240.72 822.245,1240.76 823.825,1240.81 825.405,1240.86 
  826.985,1240.9 828.565,1240.95 830.145,1240.99 831.726,1241.03 833.306,1241.08 834.886,1241.12 836.466,1241.16 838.046,1241.2 839.626,1241.25 841.206,1241.29 
  842.787,1241.33 844.367,1241.37 845.947,1241.41 847.527,1241.45 849.107,1241.49 850.687,1241.53 852.268,1241.56 853.848,1241.6 855.428,1241.64 857.008,1241.68 
  858.588,1241.71 860.168,1241.75 861.748,1241.79 863.329,1241.82 864.909,1241.86 866.489,1241.89 868.069,1241.93 869.649,1241.96 871.229,1242 872.81,1242.03 
  874.39,1242.06 875.97,1242.09 877.55,1242.13 879.13,1242.16 880.71,1242.19 882.29,1242.22 883.871,1242.25 885.451,1242.28 887.031,1242.31 888.611,1242.34 
  890.191,1242.37 891.771,1242.4 893.351,1242.43 894.932,1242.46 896.512,1242.49 898.092,1242.52 899.672,1242.55 901.252,1242.57 902.832,1242.6 904.413,1242.63 
  905.993,1242.65 907.573,1242.68 909.153,1242.71 910.733,1242.73 912.313,1242.76 913.893,1242.78 915.474,1242.81 917.054,1242.83 918.634,1242.86 920.214,1242.88 
  921.794,1242.9 923.374,1242.93 924.955,1242.95 926.535,1242.97 928.115,1243 929.695,1243.02 931.275,1243.04 932.855,1243.06 934.435,1243.09 936.016,1243.11 
  937.596,1243.13 939.176,1243.15 940.756,1243.17 942.336,1243.19 943.916,1243.21 945.496,1243.23 947.077,1243.25 948.657,1243.27 950.237,1243.29 951.817,1243.31 
  953.397,1243.33 954.977,1243.35 956.558,1243.37 958.138,1243.38 959.718,1243.4 961.298,1243.42 962.878,1243.44 964.458,1243.46 966.038,1243.47 967.619,1243.49 
  969.199,1243.51 970.779,1243.52 972.359,1243.54 973.939,1243.56 975.519,1243.57 977.1,1243.59 978.68,1243.6 980.26,1243.62 981.84,1243.63 983.42,1243.65 
  985,1243.66 986.58,1243.68 988.161,1243.69 989.741,1243.71 991.321,1243.72 992.901,1243.74 994.481,1243.75 996.061,1243.76 997.642,1243.78 999.222,1243.79 
  1000.8,1243.8 1002.38,1243.82 1003.96,1243.83 1005.54,1243.84 1007.12,1243.86 1008.7,1243.87 1010.28,1243.88 1011.86,1243.89 1013.44,1243.9 1015.02,1243.92 
  1016.6,1243.93 1018.18,1243.94 1019.76,1243.95 1021.34,1243.96 1022.92,1243.97 1024.5,1243.98 1026.08,1243.99 1027.66,1244.01 1029.24,1244.02 1030.82,1244.03 
  1032.4,1244.04 1033.99,1244.05 1035.57,1244.06 1037.15,1244.07 1038.73,1244.08 1040.31,1244.09 1041.89,1244.1 1043.47,1244.11 1045.05,1244.11 1046.63,1244.12 
  1048.21,1244.13 1049.79,1244.14 1051.37,1244.15 1052.95,1244.16 1054.53,1244.17 1056.11,1244.18 1057.69,1244.18 1059.27,1244.19 1060.85,1244.2 1062.43,1244.21 
  1064.01,1244.22 1065.59,1244.23 1067.17,1244.23 1068.75,1244.24 1070.33,1244.25 1071.91,1244.26 1073.49,1244.26 1075.07,1244.27 1076.65,1244.28 1078.23,1244.28 
  1079.81,1244.29 1081.39,1244.3 1082.97,1244.3 1084.55,1244.31 1086.13,1244.32 1087.71,1244.32 1089.29,1244.33 1090.87,1244.34 1092.45,1244.34 1094.03,1244.35 
  1095.61,1244.36 1097.19,1244.36 1098.77,1244.37 1100.35,1244.37 1101.93,1244.38 1103.51,1244.39 1105.09,1244.39 1106.67,1244.4 1108.25,1244.4 1109.83,1244.41 
  1111.41,1244.41 1112.99,1244.42 1114.57,1244.42 1116.15,1244.43 1117.73,1244.43 1119.31,1244.44 1120.89,1244.44 1122.47,1244.45 1124.05,1244.45 1125.63,1244.46 
  1127.21,1244.46 1128.79,1244.47 1130.37,1244.47 1131.95,1244.47 1133.53,1244.48 1135.11,1244.48 1136.69,1244.49 1138.28,1244.49 1139.86,1244.5 1141.44,1244.5 
  1143.02,1244.5 1144.6,1244.49 1146.18,1244.48 1147.76,1244.47 1149.34,1244.46 1150.92,1244.45 1152.5,1244.44 1154.08,1244.43 1155.66,1244.41 1157.24,1244.4 
  1158.82,1244.39 1160.4,1244.37 1161.98,1244.36 1163.56,1244.34 1165.14,1244.32 1166.72,1244.31 1168.3,1244.29 1169.88,1244.27 1171.46,1244.26 1173.04,1244.24 
  1174.62,1244.22 1176.2,1244.2 1177.78,1244.18 1179.36,1244.15 1180.94,1244.13 1182.52,1244.11 1184.1,1244.09 1185.68,1244.06 1187.26,1244.04 1188.84,1244.01 
  1190.42,1243.98 1192,1243.96 1193.58,1243.93 1195.16,1243.9 1196.74,1243.87 1198.32,1243.84 1199.9,1243.8 1201.48,1243.77 1203.06,1243.74 1204.64,1243.7 
  1206.22,1243.66 1207.8,1243.63 1209.38,1243.59 1210.96,1243.55 1212.54,1243.51 1214.12,1243.46 1215.7,1243.42 1217.28,1243.38 1218.86,1243.33 1220.44,1243.28 
  1222.02,1243.23 1223.6,1243.18 1225.18,1243.13 1226.76,1243.08 1228.34,1243.02 1229.92,1242.96 1231.5,1242.9 1233.08,1242.84 1234.66,1242.78 1236.24,1242.72 
  1237.82,1242.65 1239.4,1242.59 1240.98,1242.52 1242.57,1242.45 1244.15,1242.37 1245.73,1242.3 1247.31,1242.22 1248.89,1242.14 1250.47,1242.06 1252.05,1241.98 
  1253.63,1241.89 1255.21,1241.8 1256.79,1241.71 1258.37,1241.62 1259.95,1241.53 1261.53,1241.43 1263.11,1241.33 1264.69,1241.23 1266.27,1241.12 1267.85,1241.01 
  1269.43,1240.9 1271.01,1240.79 1272.59,1240.67 1274.17,1240.55 1275.75,1240.43 1277.33,1240.3 1278.91,1240.17 1280.49,1240.04 1282.07,1239.9 1283.65,1239.76 
  1285.23,1239.62 1286.81,1239.48 1288.39,1239.33 1289.97,1239.17 1291.55,1239.02 1293.13,1238.85 1294.71,1238.69 1296.29,1238.52 1297.87,1238.35 1299.45,1238.17 
  1301.03,1237.99 1302.61,1237.81 1304.19,1237.62 1305.77,1237.42 1307.35,1237.22 1308.93,1237.02 1310.51,1236.81 1312.09,1236.6 1313.67,1236.38 1315.25,1236.16 
  1316.83,1235.94 1318.41,1235.7 1319.99,1235.47 1321.57,1235.22 1323.15,1234.97 1324.73,1234.72 1326.31,1234.46 1327.89,1234.2 1329.47,1233.93 1331.05,1233.65 
  1332.63,1233.37 1334.21,1244.75 1335.79,1244.75 1337.37,1244.75 1338.95,1244.75 1340.53,1244.75 1342.11,1244.75 1343.69,1244.75 1345.27,1244.75 1346.86,1244.75 
  1348.44,1244.75 1350.02,1244.75 1351.6,1244.75 1353.18,1244.75 1354.76,1244.75 1356.34,1244.75 1357.92,1244.75 1359.5,1244.75 1361.08,1244.75 1362.66,1244.75 
  1364.24,1244.75 1365.82,1244.75 1367.4,1244.75 1368.98,1244.75 1370.56,1244.75 1372.14,1244.75 1373.72,1244.75 1375.3,1244.75 1376.88,1244.75 1378.46,1244.75 
  1380.04,1244.75 1381.62,1244.75 1383.2,1244.75 1384.78,1244.75 1386.36,1244.75 1387.94,1244.75 1389.52,1244.75 1391.1,1244.75 1392.68,1244.75 1394.26,1244.75 
  1395.84,1244.75 1397.42,1244.75 1399,1244.75 1400.58,1244.75 1402.16,1244.75 1403.74,1244.75 1405.32,1244.75 1406.9,1244.75 1408.48,1244.75 1410.06,1244.75 
  1411.64,1244.75 1413.22,1244.75 1414.8,1244.75 1416.38,1244.75 1417.96,1244.75 1419.54,1244.75 1421.12,1244.75 1422.7,1244.75 1424.28,1244.75 1425.86,1244.75 
  1427.44,1244.75 1429.02,1244.75 1430.6,1244.75 1432.18,1244.75 1433.76,1244.75 1435.34,1244.75 1436.92,1244.75 1438.5,1244.75 1440.08,1244.75 1441.66,1244.75 
  1443.24,1244.75 1444.82,1244.75 1446.4,1244.75 1447.98,1244.75 1449.56,1244.75 1451.15,1244.75 1452.73,1244.75 1454.31,1244.75 1455.89,1244.75 1457.47,1244.75 
  1459.05,1244.74 1460.63,1244.73 1462.21,1244.71 1463.79,1244.69 1465.37,1244.64 1466.95,1244.57 1468.53,1244.46 1470.11,1244.28 1471.69,1244.01 1473.27,1243.6 
  1474.85,1243 1476.43,1242.12 1478.01,1240.88 1479.59,1239.14 1481.17,1236.74 1482.75,1233.47 1484.33,1229.09 1485.91,1223.3 1487.49,1215.76 1489.07,1206.07 
  1490.65,1193.76 1492.23,1178.32 1493.81,1159.19 1495.39,1135.74 1496.97,1107.32 1498.55,1073.2 1500.13,1032.64 1501.71,984.89 1503.29,929.143 1504.87,864.602 
  1506.45,790.467 1508.03,705.963 1509.61,610.51 1511.19,504.697 1512.77,394.572 1514.35,300.039 1515.93,245.151 1517.51,225.57 1519.09,220.831 1520.67,219.916 
  1522.25,219.758 1523.83,219.732 1525.41,219.728 1526.99,219.727 1528.57,219.727 1530.15,219.727 1531.73,219.727 1533.31,219.727 1534.89,219.727 1536.47,219.727 
  1538.05,219.727 1539.63,219.727 1541.21,219.727 1542.79,219.727 1544.37,219.727 1545.95,219.727 1547.53,219.727 1549.11,219.727 1550.69,219.727 1552.27,219.727 
  1553.85,219.727 1555.44,219.727 1557.02,219.727 1558.6,219.727 1560.18,219.727 1561.76,219.727 1563.34,219.727 1564.92,219.727 1566.5,219.727 1568.08,219.727 
  1569.66,219.727 1571.24,219.727 1572.82,219.727 1574.4,219.727 1575.98,219.727 1577.56,219.727 1579.14,219.727 1580.72,219.727 1582.3,219.727 1583.88,219.727 
  1585.46,219.727 1587.04,219.727 1588.62,219.727 1590.2,219.727 1591.78,219.727 1593.36,219.727 1594.94,219.727 1596.52,219.727 1598.1,219.727 1599.68,219.727 
  1601.26,219.727 1602.84,219.727 1604.42,219.727 1606,219.727 1607.58,219.727 1609.16,219.727 1610.74,219.727 1612.32,219.727 1613.9,219.727 1615.48,219.727 
  1617.06,219.727 1618.64,875.73 1620.22,882.957 1621.8,890.079 1623.38,897.096 1624.96,904.008 1626.54,910.818 1628.12,917.524 1629.7,924.127 1631.28,930.63 
  1632.86,937.031 1634.44,943.332 1636.02,949.534 1637.6,955.638 1639.18,961.644 1640.76,967.553 1642.34,973.367 1643.92,979.086 1645.5,984.71 1647.08,990.242 
  1648.66,995.681 1650.24,1001.03 1651.82,1006.29 1653.4,1011.46 1654.98,1016.54 1656.56,1021.53 1658.14,1026.44 1659.73,1031.26 1661.31,1035.99 1662.89,1040.65 
  1664.47,1045.22 1666.05,1049.71 1667.63,1054.12 1669.21,1058.44 1670.79,1062.69 1672.37,1066.87 1673.95,1070.96 1675.53,1074.98 1677.11,1078.93 1678.69,1082.8 
  1680.27,1086.6 1681.85,1090.33 1683.43,1093.98 1685.01,1097.57 1686.59,1101.08 1688.17,1104.53 1689.75,1107.91 1691.33,1111.23 1692.91,1114.48 1694.49,1117.66 
  1696.07,1120.79 1697.65,1123.84 1699.23,1126.84 1700.81,1129.78 1702.39,1132.66 1703.97,1135.47 1705.55,1138.23 1707.13,1140.93 1708.71,1143.58 1710.29,1146.17 
  1711.87,1148.71 1713.45,1151.19 1715.03,1153.62 1716.61,1155.99 1718.19,1158.32 1719.77,1160.59 1721.35,1162.82 1722.93,1164.99 1724.51,1167.12 1726.09,1169.2 
  1727.67,1171.24 1729.25,1173.22 1730.83,1175.17 1732.41,1177.07 1733.99,1178.92 1735.57,1180.74 1737.15,1182.51 1738.73,1184.24 1740.31,1185.93 1741.89,1187.58 
  1743.47,1189.19 1745.05,1190.76 1746.63,1192.3 1748.21,1193.79 1749.79,1195.26 1751.37,1196.68 1752.95,1198.07 1754.53,1199.43 1756.11,1200.76 1757.69,1202.05 
  1759.27,1203.31 1760.85,1204.53 1762.44,1205.73 1764.02,1206.9 1765.6,1208.03 1767.18,1209.14 1768.76,1210.22 1770.34,1211.27 1771.92,1212.29 1773.5,1213.29 
  1775.08,1214.26 1776.66,1215.2 1778.24,1216.12 1779.82,1217.01 1781.4,1217.89 1782.98,1218.73 1784.56,1219.56 1786.14,1220.36 1787.72,1221.14 1789.3,1221.89 
  1790.88,1222.63 1792.46,1223.35 1794.04,1224.04 1795.62,1224.72 1797.2,1225.38 1798.78,1226.01 1800.36,1226.63 1801.94,1227.24 1803.52,1227.82 1805.1,1228.39 
  1806.68,1228.94 1808.26,1229.47 1809.84,1229.99 1811.42,1230.5 1813,1230.98 1814.58,1231.46 1816.16,1231.92 1817.74,1232.36 1819.32,1232.79 1820.9,1233.21 
  1822.48,1233.62 1824.06,1234.01 1825.64,1234.39 1827.22,1234.76 1828.8,1235.12 1830.38,1235.46 1831.96,1235.8 1833.54,1236.12 1835.12,1236.44 1836.7,1236.74 
  1838.28,1237.03 1839.86,1237.32 1841.44,1237.59 1843.02,1237.86 1844.6,1238.12 1846.18,1238.37 1847.76,1238.61 1849.34,1238.84 1850.92,1239.06 1852.5,1239.28 
  1854.08,1239.49 1855.66,1239.69 1857.24,1239.89 1858.82,1240.07 1860.4,1240.26 1861.98,1240.43 1863.56,1240.6 1865.14,1240.77 1866.73,1240.92 1868.31,1241.07 
  1869.89,1241.22 1871.47,1241.36 1873.05,1241.5 1874.63,1241.63 1876.21,1241.76 1877.79,1241.88 1879.37,1242 1880.95,1242.11 1882.53,1242.22 1884.11,1242.32 
  1885.69,1242.42 1887.27,1242.52 1888.85,1242.61 1890.43,1242.7 1892.01,1242.79 1893.59,1242.87 1895.17,1242.95 1896.75,1243.03 1898.33,1243.1 1899.91,1243.18 
  1901.49,1243.24 1903.07,1243.31 1904.65,1243.37 1906.23,1243.43 1907.81,1243.49 1909.39,1243.55 1910.97,1243.6 1912.55,1243.65 1914.13,1243.7 1915.71,1243.75 
  1917.29,1243.79 1918.87,1243.84 1920.45,1243.88 1922.03,1243.92 1923.61,1243.95 1925.19,1243.99 1926.77,1244.03 1928.35,1244.06 1929.93,1244.09 1931.51,1244.12 
  1933.09,1244.15 1934.67,1244.18 1936.25,1244.21 1937.83,1244.23 1939.41,1244.26 1940.99,1244.28 1942.57,1244.3 1944.15,1244.33 1945.73,1244.35 1947.31,1244.37 
  1948.89,1244.38 1950.47,1244.4 1952.05,1244.42 1953.63,1244.44 1955.21,1244.45 1956.79,1244.47 1958.37,1244.48 1959.95,1244.49 1961.53,1244.51 1963.11,1244.52 
  1964.69,1244.53 1966.27,1244.54 1967.85,1244.55 1969.43,1244.56 1971.02,1244.57 1972.6,1244.58 1974.18,1244.59 1975.76,1244.6 1977.34,1244.61 1978.92,1244.61 
  1980.5,1244.62 1982.08,1244.63 1983.66,1244.64 1985.24,1244.64 1986.82,1244.65 1988.4,1244.65 1989.98,1244.66 1991.56,1244.66 1993.14,1244.67 1994.72,1244.67 
  1996.3,1244.68 1997.88,1244.68 1999.46,1244.68 2001.04,1244.69 2002.62,1244.69 2004.2,1244.7 2005.78,1244.7 2007.36,1244.7 2008.94,1244.7 2010.52,1244.71 
  2012.1,1244.71 2013.68,1244.71 2015.26,1244.71 2016.84,1244.72 2018.42,1244.72 2020,1244.72 2021.58,1244.72 2023.16,1244.72 2024.74,1244.73 2026.32,1244.73 
  2027.9,1244.73 2029.48,1244.73 2031.06,1244.73 2032.64,1244.73 2034.22,1244.73 2035.8,1244.73 2037.38,1244.74 2038.96,1244.74 2040.54,1244.74 2042.12,1244.74 
  2043.7,1244.74 2045.28,1244.74 2046.86,1244.74 2048.44,1244.74 2050.02,1244.74 2051.6,1244.74 2053.18,1244.74 2054.76,1244.74 2056.34,1244.74 2057.92,1244.75 
  2059.5,1244.75 2061.08,1244.75 2062.66,1244.75 2064.24,1244.75 2065.82,1244.75 2067.4,1244.75 2068.98,1244.75 2070.56,1244.75 2072.14,1244.75 2073.72,1244.75 
  2075.31,1244.75 2076.89,1244.75 2078.47,1244.75 2080.05,1244.75 2081.63,1244.75 2083.21,1244.75 2084.79,1244.75 2086.37,1244.75 2087.95,1244.75 2089.53,1244.75 
  2091.11,1244.75 2092.69,1244.75 2094.27,1244.75 2095.85,1244.75 2097.43,1244.75 2099.01,1244.75 2100.59,1244.75 2102.17,1244.75 2103.75,1244.75 2105.33,1244.75 
  2106.91,1244.75 2108.49,1244.75 2110.07,1244.75 2111.65,1244.75 2113.23,1244.75 2114.81,1244.75 2116.39,1244.75 2117.97,1244.75 2119.55,1244.75 2121.13,1244.75 
  2122.71,1244.75 2124.29,1244.75 2125.87,1244.75 2127.45,1244.75 2129.03,1244.75 2130.61,1244.75 2132.19,1244.75 2133.77,1244.75 2135.35,1244.75 2136.93,1244.75 
  2138.51,1244.75 2140.09,1244.75 2141.67,1244.75 2143.25,1244.75 2144.83,1244.75 2146.41,1244.75 2147.99,1244.75 2149.57,1244.75 2151.15,1244.75 2152.73,1244.75 
  2154.31,1244.75 2155.89,1244.75 2157.47,1244.75 2159.05,1244.75 2160.63,1244.75 2162.21,1244.75 2163.79,1244.75 2165.37,1244.75 2166.95,1244.75 2168.53,1244.75 
  2170.11,1244.75 2171.69,1244.75 2173.27,1244.75 2174.85,1244.75 2176.43,1244.75 2178.01,1244.75 2179.6,1244.75 2181.18,1244.75 2182.76,1244.75 2184.34,1244.75 
  2185.92,1244.75 2187.5,219.727 2189.08,219.727 2190.66,219.727 2192.24,219.727 2193.82,219.727 2195.4,219.727 2196.98,219.727 2198.56,219.727 2200.14,219.727 
  2201.72,219.727 2203.3,219.727 2204.88,219.727 2206.46,219.728 2208.04,219.73 2209.62,219.736 2211.2,219.758 2212.78,219.833 2214.36,220.088 2215.94,220.921 
  2217.52,223.49 2219.1,230.722 2220.68,248.379 2222.26,283.649 2223.84,339.208 2225.42,409.291 2227,484.642 2228.58,558.74 2230.16,628.685 2231.74,693.599 
  2233.32,753.385 2234.9,808.2 2236.48,858.271 2238.06,903.848 2239.64,945.185 2241.22,982.535 2242.8,1016.15 2244.38,1046.29 2245.96,1073.2 2247.54,1097.11 
  2249.12,1118.27 2250.7,1136.91 2252.28,1153.25 2253.86,1167.5 2255.44,1179.87 2257.02,1190.54 2258.6,1199.71 2260.18,1207.53 2261.76,1214.17 2263.34,1219.77 
  2264.92,1224.47 2266.5,1228.39 2268.08,1231.63 2269.66,1234.3 2271.24,1236.48 2272.82,1238.25 2274.4,1239.67 2275.98,1240.82 2277.56,1241.72 2279.14,1242.44 
  2280.72,1243 2282.3,1243.43 2283.89,1243.76 2285.47,1244.02 2287.05,1244.21 2288.63,1244.36 2290.21,1244.47 2291.79,1244.55 2293.37,1244.61 2294.95,1244.65 
  2296.53,1244.68 2298.11,1244.7 2299.69,1244.72 2301.27,1244.73 2302.85,1244.74 2304.43,1244.74 2306.01,1244.75 2307.59,1244.75 2309.17,1244.75 2310.75,1244.75 
  2312.33,1244.75 2313.91,1244.75 2315.49,1244.75 2317.07,1244.75 2318.65,1244.75 2320.23,1244.75 2321.81,1244.75 2323.39,1244.75 2324.97,1244.75 2326.55,1244.75 
  2328.13,1244.75 2329.71,1244.75 2331.29,1244.75 2332.87,1244.75 2334.45,1244.75 2336.03,1244.75 2337.61,1244.75 2339.19,1244.75 2340.77,1244.75 2342.35,1244.75 
  2343.93,1244.75 2345.51,1244.75 2347.09,1244.75 2348.67,1244.75 2350.25,1244.75 2351.83,1244.75 2353.41,1244.75 2354.99,1244.75 2356.57,1244.75 2358.15,1244.75 
  2359.73,1244.75 2361.31,1244.75 2362.89,1244.75 2364.47,1244.75 2366.05,1244.75 2367.63,1244.75 2369.21,1244.75 2370.79,1244.75 2372.37,1244.75 2373.95,1244.75 
  2375.53,1244.75 2377.11,219.727 2378.69,219.727 2380.27,219.727 2381.85,219.727 2383.43,219.727 2385.01,219.727 2386.6,219.727 2388.18,219.727 2389.76,219.727 
  2391.34,219.727 2392.92,219.727 2394.5,219.727 2396.08,219.727 2397.66,219.727 2399.24,219.727 2400.82,219.727 2402.4,219.727 2403.98,219.727 2405.56,219.727 
  2407.14,219.727 2408.72,219.727 2410.3,219.727 2411.88,219.727 2413.46,219.727 2415.04,219.727 2416.62,219.727 2418.2,219.727 2419.78,219.727 2421.36,219.727 
  2422.94,219.727 2424.52,219.727 2426.1,219.727 2427.68,219.727 2429.26,219.727 2430.84,219.727 2432.42,219.727 2434,219.727 2435.58,219.727 2437.16,219.727 
  2438.74,219.727 2440.32,219.727 2441.9,219.727 2443.48,219.727 2445.06,219.727 2446.64,219.727 2448.22,219.727 2449.8,219.727 2451.38,219.727 2452.96,219.727 
  2454.54,219.727 2456.12,219.727 2457.7,219.727 2459.28,219.727 2460.86,219.727 2462.44,219.727 2464.02,219.727 2465.6,219.727 2467.18,219.727 2468.76,219.728 
  2470.34,219.729 2471.92,219.732 2473.5,219.739 2475.08,219.755 2476.66,219.797 2478.24,219.896 2479.82,220.13 2481.4,220.666 2482.98,221.85 2484.56,224.325 
  2486.14,229.135 2487.72,237.634 2489.3,251.043 2490.89,269.771 2492.47,293.095 2494.05,319.555 2495.63,347.657 2497.21,376.309 2498.79,404.863 2500.37,432.994 
  2501.95,460.552 2503.53,487.477 2505.11,513.751 2506.69,539.369 2508.27,564.337 2509.85,588.66 2511.43,612.348 2513.01,635.409 2514.59,657.851 2516.17,679.684 
  2517.75,700.916 2519.33,721.557 2520.91,741.616 2522.49,761.101 2524.07,780.022 2525.65,798.389 2527.23,816.21 2528.81,833.495 2530.39,850.254 2531.97,866.495 
  2533.55,882.228 2535.13,897.463 2536.71,912.209 2538.29,926.475 2539.87,940.272 2541.45,953.609 2543.03,966.494 2544.61,978.938 2546.19,990.951 2547.77,1002.54 
  2549.35,1013.72 2550.93,1024.49 2552.51,1034.87 2554.09,1044.87 2555.67,1054.49 2557.25,1063.74 2558.83,1072.64 2560.41,1081.19 2561.99,1089.4 2563.57,1097.28 
  2565.15,1104.85 2566.73,1112.1 2568.31,1119.05 2569.89,1125.7 2571.47,1132.07 2573.05,1138.16 2574.63,1143.99 2576.21,1149.56 2577.79,1154.87 2579.37,1159.94 
  2580.95,1164.78 2582.53,1169.39 2584.11,1173.78 2585.69,1177.96 2587.27,1181.94 2588.85,1185.72 2590.43,1189.31 2592.01,1192.72 2593.59,1195.95 2595.18,1199.01 
  2596.76,1201.92 2598.34,1204.66 2599.92,1207.26 2601.5,1209.72 2603.08,1212.04 2604.66,1214.23 2606.24,1216.29 2607.82,1218.24 2609.4,1220.07 2610.98,1221.79 
  2612.56,1223.42 2614.14,1224.94 2615.72,1226.37 2617.3,1227.71 2618.88,1228.96 2620.46,1230.14 2622.04,1231.23 2623.62,1232.26 2625.2,1233.22 2626.78,1234.12 
  2628.36,1234.95 2629.94,1235.73 2631.52,1236.45 2633.1,1237.12 2634.68,1237.74 2636.26,1238.32 2637.84,1238.86 2639.42,1239.36 2641,1239.82 2642.58,1240.24 
  2644.16,1240.63 2645.74,1241 2647.32,1241.33 2648.9,1241.64 2650.48,1241.92 2652.06,1242.18 2653.64,1242.42 2655.22,1242.63 2656.8,1242.83 2658.38,1243.02 
  2659.96,1243.18 2661.54,1243.34 2663.12,1243.48 2664.7,1243.6 2666.28,1243.72 2667.86,1243.82 2669.44,1243.92 2671.02,1244 2672.6,1244.08 2674.18,1244.15 
  2675.76,1244.22 2677.34,1244.27 2678.92,1244.33 2680.5,1244.37 2682.08,1244.42 2683.66,1244.45 2685.24,1244.49 2686.82,1244.52 2688.4,1244.54 2689.98,1244.57 
  2691.56,1244.59 2693.14,1244.61 2694.72,1244.63 2696.3,1244.64 2697.88,1244.66 2699.47,1244.67 2701.05,1244.68 2702.63,1244.69 2704.21,1244.7 2705.79,1244.7 
  2707.37,1244.71 2708.95,1244.71 2710.53,1244.72 2712.11,1244.72 2713.69,1244.73 2715.27,1244.73 2716.85,1244.73 2718.43,1244.74 2720.01,1244.74 2721.59,1244.74 
  2723.17,1244.74 2724.75,1244.74 2726.33,1244.74 2727.91,1244.75 2729.49,1244.75 2731.07,1244.75 2732.65,1244.75 2734.23,1244.75 2735.81,1244.75 2737.39,1244.75 
  2738.97,1244.75 2740.55,1244.75 2742.13,1244.75 2743.71,1244.75 2745.29,1244.75 2746.87,1244.75 2748.45,1244.75 2750.03,1244.75 2751.61,1244.75 2753.19,1244.75 
  2754.77,1244.75 2756.35,1244.75 2757.93,1244.75 2759.51,1244.75 2761.09,1244.75 2762.67,1244.75 2764.25,1244.75 2765.83,1244.75 2767.41,1244.75 2768.99,1244.75 
  2770.57,1244.75 2772.15,1244.75 2773.73,1244.75 2775.31,1244.75 2776.89,1244.75 2778.47,1244.75 2780.05,1244.75 2781.63,1244.75 2783.21,1244.75 2784.79,1244.75 
  2786.37,1244.75 2787.95,1244.75 2789.53,1244.75 2791.11,1244.75 2792.69,1244.75 2794.27,1244.75 2795.85,1244.75 2797.43,1244.75 2799.01,1244.75 2800.59,1244.75 
  2802.17,1244.75 2803.76,1244.75 2805.34,1244.75 2806.92,1244.75 2808.5,1244.75 2810.08,1244.75 2811.66,1244.75 2813.24,1244.75 2814.82,1244.75 2816.4,1244.75 
  2817.98,1244.75 2819.56,1244.75 2821.14,1244.75 2822.72,1244.75 2824.3,1244.75 2825.88,1244.75 2827.46,1244.75 2829.04,1244.75 2830.62,1244.75 2832.2,1244.75 
  2833.78,1244.75 2835.36,1244.75 2836.94,1244.75 2838.52,1244.75 2840.1,1244.75 2841.68,1244.75 2843.26,1244.75 2844.84,1244.75 2846.42,1244.75 2848,1244.75 
  2849.58,1244.75 2851.16,1244.75 2852.74,1244.75 2854.32,1244.75 2855.9,1244.75 2857.48,1244.75 2859.06,1244.75 2860.64,1244.75 2862.22,1244.75 2863.8,1244.75 
  2865.38,1244.75 2866.96,1244.75 2868.54,1244.75 2870.12,1244.75 2871.7,1244.75 2873.28,1244.75 2874.86,1244.75 2876.44,1244.75 2878.02,1244.75 2879.6,1244.75 
  2881.18,1244.75 2882.76,1244.75 2884.34,1244.75 2885.92,1244.75 2887.5,1244.75 2889.08,1244.75 2890.66,1244.75 2892.24,1244.75 2893.82,1244.75 2895.4,1244.75 
  2896.98,1244.75 2898.56,1244.75 2900.14,1244.75 2901.72,1244.75 2903.3,1244.75 2904.88,1244.75 2906.46,1244.75 2908.05,1244.75 2909.63,1244.75 2911.21,1244.75 
  2912.79,1244.75 2914.37,1244.75 2915.95,1244.75 2917.53,1244.75 2919.11,1244.75 2920.69,1244.75 2922.27,1244.75 2923.85,1244.75 2925.43,1244.75 2927.01,1244.75 
  2928.59,1244.75 2930.17,1244.75 2931.75,1244.75 2933.33,1244.75 2934.91,1244.75 2936.49,1244.75 2938.07,1244.75 2939.65,1244.75 2941.23,1244.75 2942.81,1244.75 
  
  "/>
<polyline clip-path="url(#clip4102)" style="stroke:#e26f46; stroke-width:4; stroke-opacity:1; fill:none" points="
  668.97,1233.37 670.55,1233.38 672.13,1233.42 673.71,1233.48 675.291,1233.55 676.871,1233.63 678.451,1233.72 680.031,1233.82 681.611,1233.92 683.191,1234.02 
  684.771,1234.12 686.352,1234.22 687.932,1234.33 689.512,1234.43 691.092,1234.53 692.672,1234.64 694.252,1234.74 695.832,1234.84 697.413,1234.94 698.993,1235.04 
  700.573,1235.14 702.153,1235.24 703.733,1235.34 705.313,1235.43 706.894,1235.53 708.474,1235.62 710.054,1235.72 711.634,1235.81 713.214,1235.9 714.794,1236 
  716.374,1236.09 717.955,1236.18 719.535,1236.27 721.115,1236.36 722.695,1236.44 724.275,1236.53 725.855,1236.62 727.436,1236.7 729.016,1236.79 730.596,1236.87 
  732.176,1236.95 733.756,1237.04 735.336,1237.12 736.916,1237.2 738.497,1237.28 740.077,1237.36 741.657,1237.44 743.237,1237.52 744.817,1237.59 746.397,1237.67 
  747.978,1237.75 749.558,1237.82 751.138,1237.9 752.718,1237.97 754.298,1238.04 755.878,1238.12 757.458,1238.19 759.039,1238.26 760.619,1238.33 762.199,1238.4 
  763.779,1238.47 765.359,1238.54 766.939,1238.6 768.519,1238.67 770.1,1238.74 771.68,1238.8 773.26,1238.87 774.84,1238.93 776.42,1239 778,1239.06 
  779.581,1239.12 781.161,1239.19 782.741,1239.25 784.321,1239.31 785.901,1239.37 787.481,1239.43 789.061,1239.49 790.642,1239.55 792.222,1239.61 793.802,1239.66 
  795.382,1239.72 796.962,1239.78 798.542,1239.83 800.123,1239.89 801.703,1239.94 803.283,1240 804.863,1240.05 806.443,1240.11 808.023,1240.16 809.603,1240.21 
  811.184,1240.26 812.764,1240.31 814.344,1240.36 815.924,1240.41 817.504,1240.46 819.084,1240.51 820.664,1240.56 822.245,1240.61 823.825,1240.66 825.405,1240.71 
  826.985,1240.75 828.565,1240.8 830.145,1240.84 831.726,1240.89 833.306,1240.93 834.886,1240.98 836.466,1241.02 838.046,1241.07 839.626,1241.11 841.206,1241.15 
  842.787,1241.2 844.367,1241.24 845.947,1241.28 847.527,1241.32 849.107,1241.36 850.687,1241.4 852.268,1241.44 853.848,1241.48 855.428,1241.52 857.008,1241.56 
  858.588,1241.59 860.168,1241.63 861.748,1241.67 863.329,1241.71 864.909,1241.74 866.489,1241.78 868.069,1241.82 869.649,1241.85 871.229,1241.89 872.81,1241.92 
  874.39,1241.95 875.97,1241.99 877.55,1242.02 879.13,1242.06 880.71,1242.09 882.29,1242.12 883.871,1242.15 885.451,1242.18 887.031,1242.22 888.611,1242.25 
  890.191,1242.28 891.771,1242.31 893.351,1242.34 894.932,1242.37 896.512,1242.4 898.092,1242.43 899.672,1242.46 901.252,1242.48 902.832,1242.51 904.413,1242.54 
  905.993,1242.57 907.573,1242.6 909.153,1242.62 910.733,1242.65 912.313,1242.68 913.893,1242.7 915.474,1242.73 917.054,1242.75 918.634,1242.78 920.214,1242.8 
  921.794,1242.83 923.374,1242.85 924.955,1242.88 926.535,1242.9 928.115,1242.92 929.695,1242.95 931.275,1242.97 932.855,1242.99 934.435,1243.02 936.016,1243.04 
  937.596,1243.06 939.176,1243.08 940.756,1243.1 942.336,1243.13 943.916,1243.15 945.496,1243.17 947.077,1243.19 948.657,1243.21 950.237,1243.23 951.817,1243.25 
  953.397,1243.27 954.977,1243.29 956.558,1243.31 958.138,1243.33 959.718,1243.34 961.298,1243.36 962.878,1243.38 964.458,1243.4 966.038,1243.42 967.619,1243.44 
  969.199,1243.45 970.779,1243.47 972.359,1243.49 973.939,1243.5 975.519,1243.52 977.1,1243.54 978.68,1243.55 980.26,1243.57 981.84,1243.59 983.42,1243.6 
  985,1243.62 986.58,1243.63 988.161,1243.65 989.741,1243.66 991.321,1243.68 992.901,1243.69 994.481,1243.71 996.061,1243.72 997.642,1243.73 999.222,1243.75 
  1000.8,1243.76 1002.38,1243.78 1003.96,1243.79 1005.54,1243.8 1007.12,1243.82 1008.7,1243.83 1010.28,1243.84 1011.86,1243.85 1013.44,1243.87 1015.02,1243.88 
  1016.6,1243.89 1018.18,1243.9 1019.76,1243.91 1021.34,1243.93 1022.92,1243.94 1024.5,1243.95 1026.08,1243.96 1027.66,1243.97 1029.24,1243.98 1030.82,1243.99 
  1032.4,1244 1033.99,1244.01 1035.57,1244.03 1037.15,1244.04 1038.73,1244.05 1040.31,1244.06 1041.89,1244.07 1043.47,1244.08 1045.05,1244.09 1046.63,1244.09 
  1048.21,1244.1 1049.79,1244.11 1051.37,1244.12 1052.95,1244.13 1054.53,1244.14 1056.11,1244.15 1057.69,1244.16 1059.27,1244.17 1060.85,1244.18 1062.43,1244.18 
  1064.01,1244.19 1065.59,1244.2 1067.17,1244.21 1068.75,1244.22 1070.33,1244.22 1071.91,1244.23 1073.49,1244.24 1075.07,1244.25 1076.65,1244.25 1078.23,1244.26 
  1079.81,1244.27 1081.39,1244.28 1082.97,1244.28 1084.55,1244.29 1086.13,1244.3 1087.71,1244.3 1089.29,1244.31 1090.87,1244.32 1092.45,1244.32 1094.03,1244.33 
  1095.61,1244.34 1097.19,1244.34 1098.77,1244.35 1100.35,1244.36 1101.93,1244.36 1103.51,1244.37 1105.09,1244.37 1106.67,1244.38 1108.25,1244.38 1109.83,1244.39 
  1111.41,1244.4 1112.99,1244.4 1114.57,1244.41 1116.15,1244.41 1117.73,1244.42 1119.31,1244.42 1120.89,1244.43 1122.47,1244.43 1124.05,1244.44 1125.63,1244.44 
  1127.21,1244.45 1128.79,1244.45 1130.37,1244.46 1131.95,1244.46 1133.53,1244.47 1135.11,1244.47 1136.69,1244.47 1138.28,1244.48 1139.86,1244.48 1141.44,1244.49 
  1143.02,1244.49 1144.6,1244.49 1146.18,1244.49 1147.76,1244.49 1149.34,1244.48 1150.92,1244.48 1152.5,1244.47 1154.08,1244.46 1155.66,1244.45 1157.24,1244.44 
  1158.82,1244.42 1160.4,1244.41 1161.98,1244.4 1163.56,1244.39 1165.14,1244.37 1166.72,1244.36 1168.3,1244.34 1169.88,1244.33 1171.46,1244.31 1173.04,1244.29 
  1174.62,1244.28 1176.2,1244.26 1177.78,1244.24 1179.36,1244.22 1180.94,1244.2 1182.52,1244.18 1184.1,1244.16 1185.68,1244.14 1187.26,1244.11 1188.84,1244.09 
  1190.42,1244.06 1192,1244.04 1193.58,1244.01 1195.16,1243.99 1196.74,1243.96 1198.32,1243.93 1199.9,1243.9 1201.48,1243.87 1203.06,1243.84 1204.64,1243.81 
  1206.22,1243.78 1207.8,1243.74 1209.38,1243.71 1210.96,1243.67 1212.54,1243.63 1214.12,1243.59 1215.7,1243.55 1217.28,1243.51 1218.86,1243.47 1220.44,1243.43 
  1222.02,1243.38 1223.6,1243.34 1225.18,1243.29 1226.76,1243.24 1228.34,1243.19 1229.92,1243.14 1231.5,1243.08 1233.08,1243.03 1234.66,1242.97 1236.24,1242.91 
  1237.82,1242.85 1239.4,1242.79 1240.98,1242.73 1242.57,1242.67 1244.15,1242.6 1245.73,1242.53 1247.31,1242.46 1248.89,1242.39 1250.47,1242.31 1252.05,1242.24 
  1253.63,1242.16 1255.21,1242.08 1256.79,1241.99 1258.37,1241.91 1259.95,1241.82 1261.53,1241.73 1263.11,1241.64 1264.69,1241.55 1266.27,1241.45 1267.85,1241.35 
  1269.43,1241.25 1271.01,1241.14 1272.59,1241.04 1274.17,1240.92 1275.75,1240.81 1277.33,1240.7 1278.91,1240.58 1280.49,1240.45 1282.07,1240.33 1283.65,1240.2 
  1285.23,1240.07 1286.81,1239.94 1288.39,1239.8 1289.97,1239.66 1291.55,1239.51 1293.13,1239.36 1294.71,1239.21 1296.29,1239.06 1297.87,1238.9 1299.45,1238.73 
  1301.03,1238.57 1302.61,1238.4 1304.19,1238.22 1305.77,1238.04 1307.35,1237.86 1308.93,1237.67 1310.51,1237.48 1312.09,1237.28 1313.67,1237.08 1315.25,1236.88 
  1316.83,1236.67 1318.41,1236.45 1319.99,1236.23 1321.57,1236.01 1323.15,1235.78 1324.73,1235.54 1326.31,1235.3 1327.89,1235.06 1329.47,1234.81 1331.05,1234.55 
  1332.63,1234.29 1334.21,1244.75 1335.79,1244.75 1337.37,1244.75 1338.95,1244.75 1340.53,1244.75 1342.11,1244.75 1343.69,1244.75 1345.27,1244.75 1346.86,1244.75 
  1348.44,1244.75 1350.02,1244.75 1351.6,1244.75 1353.18,1244.75 1354.76,1244.75 1356.34,1244.75 1357.92,1244.75 1359.5,1244.75 1361.08,1244.75 1362.66,1244.75 
  1364.24,1244.75 1365.82,1244.75 1367.4,1244.75 1368.98,1244.75 1370.56,1244.75 1372.14,1244.75 1373.72,1244.75 1375.3,1244.75 1376.88,1244.75 1378.46,1244.75 
  1380.04,1244.75 1381.62,1244.75 1383.2,1244.75 1384.78,1244.75 1386.36,1244.75 1387.94,1244.75 1389.52,1244.75 1391.1,1244.75 1392.68,1244.75 1394.26,1244.75 
  1395.84,1244.75 1397.42,1244.75 1399,1244.75 1400.58,1244.75 1402.16,1244.75 1403.74,1244.75 1405.32,1244.75 1406.9,1244.75 1408.48,1244.75 1410.06,1244.75 
  1411.64,1244.75 1413.22,1244.75 1414.8,1244.75 1416.38,1244.75 1417.96,1244.75 1419.54,1244.75 1421.12,1244.75 1422.7,1244.75 1424.28,1244.75 1425.86,1244.75 
  1427.44,1244.75 1429.02,1244.75 1430.6,1244.75 1432.18,1244.75 1433.76,1244.75 1435.34,1244.75 1436.92,1244.75 1438.5,1244.75 1440.08,1244.75 1441.66,1244.75 
  1443.24,1244.75 1444.82,1244.75 1446.4,1244.75 1447.98,1244.75 1449.56,1244.75 1451.15,1244.75 1452.73,1244.75 1454.31,1244.75 1455.89,1244.75 1457.47,1244.75 
  1459.05,1244.75 1460.63,1244.75 1462.21,1244.75 1463.79,1244.74 1465.37,1244.73 1466.95,1244.72 1468.53,1244.69 1470.11,1244.65 1471.69,1244.57 1473.27,1244.46 
  1474.85,1244.29 1476.43,1244.03 1478.01,1243.64 1479.59,1243.06 1481.17,1242.23 1482.75,1241.05 1484.33,1239.41 1485.91,1237.16 1487.49,1234.13 1489.07,1230.11 
  1490.65,1224.86 1492.23,1218.1 1493.81,1209.54 1495.39,1198.85 1496.97,1185.7 1498.55,1169.75 1500.13,1150.68 1501.71,1128.21 1503.29,1102.09 1504.87,1072.15 
  1506.45,1038.31 1508.03,1000.59 1509.61,959.134 1511.19,914.218 1512.77,866.251 1514.35,815.781 1515.93,763.476 1517.51,710.111 1519.09,656.54 1520.67,603.658 
  1522.25,552.362 1523.83,503.507 1525.41,457.859 1526.99,416.055 1528.57,378.568 1530.15,345.687 1531.73,317.507 1533.31,293.936 1534.89,274.717 1536.47,259.46 
  1538.05,247.682 1539.63,238.853 1541.21,232.434 1542.79,227.913 1544.37,224.834 1545.95,222.807 1547.53,221.521 1549.11,220.735 1550.69,220.272 1552.27,220.01 
  1553.85,219.868 1555.44,219.795 1557.02,219.758 1558.6,219.741 1560.18,219.733 1561.76,219.729 1563.34,219.728 1564.92,219.727 1566.5,219.727 1568.08,219.727 
  1569.66,219.727 1571.24,219.727 1572.82,219.727 1574.4,219.727 1575.98,219.727 1577.56,219.727 1579.14,219.727 1580.72,219.727 1582.3,219.727 1583.88,219.727 
  1585.46,219.727 1587.04,219.727 1588.62,219.727 1590.2,219.727 1591.78,219.727 1593.36,219.727 1594.94,219.727 1596.52,219.727 1598.1,219.727 1599.68,219.727 
  1601.26,219.727 1602.84,219.727 1604.42,219.727 1606,219.727 1607.58,219.727 1609.16,219.727 1610.74,219.727 1612.32,219.727 1613.9,219.727 1615.48,219.727 
  1617.06,219.727 1618.64,219.727 1620.22,219.727 1621.8,219.727 1623.38,219.728 1624.96,219.746 1626.54,219.872 1628.12,220.364 1629.7,221.67 1631.28,224.367 
  1632.86,229.052 1634.44,236.239 1636.02,246.298 1637.6,259.431 1639.18,275.677 1640.76,294.939 1642.34,317.005 1643.92,341.588 1645.5,368.348 1647.08,396.919 
  1648.66,426.928 1650.24,458.007 1651.82,489.807 1653.4,522.002 1654.98,554.298 1656.56,586.431 1658.14,618.169 1659.73,649.314 1661.31,679.697 1662.89,709.181 
  1664.47,737.655 1666.05,765.032 1667.63,791.249 1669.21,816.263 1670.79,840.05 1672.37,862.598 1673.95,883.913 1675.53,904.009 1677.11,922.91 1678.69,940.651 
  1680.27,957.27 1681.85,972.81 1683.43,987.321 1685.01,1000.85 1686.59,1013.46 1688.17,1025.18 1689.75,1036.09 1691.33,1046.23 1692.91,1055.66 1694.49,1064.42 
  1696.07,1072.56 1697.65,1080.13 1699.23,1087.18 1700.81,1093.74 1702.39,1099.86 1703.97,1105.58 1705.55,1110.92 1707.13,1115.93 1708.71,1120.63 1710.29,1125.04 
  1711.87,1129.2 1713.45,1133.13 1715.03,1136.84 1716.61,1140.37 1718.19,1143.71 1719.77,1146.9 1721.35,1149.94 1722.93,1152.85 1724.51,1155.64 1726.09,1158.31 
  1727.67,1160.88 1729.25,1163.36 1730.83,1165.74 1732.41,1168.05 1733.99,1170.28 1735.57,1172.44 1737.15,1174.53 1738.73,1176.56 1740.31,1178.53 1741.89,1180.44 
  1743.47,1182.29 1745.05,1184.1 1746.63,1185.86 1748.21,1187.56 1749.79,1189.23 1751.37,1190.85 1752.95,1192.42 1754.53,1193.96 1756.11,1195.45 1757.69,1196.9 
  1759.27,1198.32 1760.85,1199.7 1762.44,1201.04 1764.02,1202.35 1765.6,1203.63 1767.18,1204.87 1768.76,1206.07 1770.34,1207.25 1771.92,1208.4 1773.5,1209.51 
  1775.08,1210.59 1776.66,1211.65 1778.24,1212.68 1779.82,1213.68 1781.4,1214.65 1782.98,1215.59 1784.56,1216.51 1786.14,1217.41 1787.72,1218.28 1789.3,1219.12 
  1790.88,1219.95 1792.46,1220.75 1794.04,1221.52 1795.62,1222.28 1797.2,1223.01 1798.78,1223.72 1800.36,1224.41 1801.94,1225.09 1803.52,1225.74 1805.1,1226.37 
  1806.68,1226.99 1808.26,1227.58 1809.84,1228.16 1811.42,1228.72 1813,1229.27 1814.58,1229.8 1816.16,1230.31 1817.74,1230.81 1819.32,1231.29 1820.9,1231.76 
  1822.48,1232.21 1824.06,1232.65 1825.64,1233.08 1827.22,1233.49 1828.8,1233.89 1830.38,1234.28 1831.96,1234.65 1833.54,1235.01 1835.12,1235.37 1836.7,1235.71 
  1838.28,1236.03 1839.86,1236.35 1841.44,1236.66 1843.02,1236.96 1844.6,1237.25 1846.18,1237.53 1847.76,1237.79 1849.34,1238.06 1850.92,1238.31 1852.5,1238.55 
  1854.08,1238.79 1855.66,1239.01 1857.24,1239.23 1858.82,1239.44 1860.4,1239.65 1861.98,1239.85 1863.56,1240.04 1865.14,1240.22 1866.73,1240.4 1868.31,1240.57 
  1869.89,1240.73 1871.47,1240.89 1873.05,1241.05 1874.63,1241.2 1876.21,1241.34 1877.79,1241.48 1879.37,1241.61 1880.95,1241.74 1882.53,1241.86 1884.11,1241.98 
  1885.69,1242.09 1887.27,1242.2 1888.85,1242.31 1890.43,1242.41 1892.01,1242.51 1893.59,1242.6 1895.17,1242.69 1896.75,1242.78 1898.33,1242.86 1899.91,1242.94 
  1901.49,1243.02 1903.07,1243.09 1904.65,1243.17 1906.23,1243.24 1907.81,1243.3 1909.39,1243.36 1910.97,1243.43 1912.55,1243.48 1914.13,1243.54 1915.71,1243.59 
  1917.29,1243.64 1918.87,1243.69 1920.45,1243.74 1922.03,1243.79 1923.61,1243.83 1925.19,1243.87 1926.77,1243.91 1928.35,1243.95 1929.93,1243.99 1931.51,1244.02 
  1933.09,1244.06 1934.67,1244.09 1936.25,1244.12 1937.83,1244.15 1939.41,1244.18 1940.99,1244.21 1942.57,1244.23 1944.15,1244.26 1945.73,1244.28 1947.31,1244.3 
  1948.89,1244.32 1950.47,1244.34 1952.05,1244.36 1953.63,1244.38 1955.21,1244.4 1956.79,1244.42 1958.37,1244.43 1959.95,1244.45 1961.53,1244.47 1963.11,1244.48 
  1964.69,1244.49 1966.27,1244.51 1967.85,1244.52 1969.43,1244.53 1971.02,1244.54 1972.6,1244.55 1974.18,1244.56 1975.76,1244.57 1977.34,1244.58 1978.92,1244.59 
  1980.5,1244.6 1982.08,1244.61 1983.66,1244.61 1985.24,1244.62 1986.82,1244.63 1988.4,1244.63 1989.98,1244.64 1991.56,1244.65 1993.14,1244.65 1994.72,1244.66 
  1996.3,1244.66 1997.88,1244.67 1999.46,1244.67 2001.04,1244.68 2002.62,1244.68 2004.2,1244.68 2005.78,1244.69 2007.36,1244.69 2008.94,1244.7 2010.52,1244.7 
  2012.1,1244.7 2013.68,1244.7 2015.26,1244.71 2016.84,1244.71 2018.42,1244.71 2020,1244.71 2021.58,1244.72 2023.16,1244.72 2024.74,1244.72 2026.32,1244.72 
  2027.9,1244.72 2029.48,1244.73 2031.06,1244.73 2032.64,1244.73 2034.22,1244.73 2035.8,1244.73 2037.38,1244.73 2038.96,1244.73 2040.54,1244.73 2042.12,1244.74 
  2043.7,1244.74 2045.28,1244.74 2046.86,1244.74 2048.44,1244.74 2050.02,1244.74 2051.6,1244.74 2053.18,1244.74 2054.76,1244.74 2056.34,1244.74 2057.92,1244.74 
  2059.5,1244.74 2061.08,1244.74 2062.66,1244.75 2064.24,1244.75 2065.82,1244.75 2067.4,1244.75 2068.98,1244.75 2070.56,1244.75 2072.14,1244.75 2073.72,1244.75 
  2075.31,1244.75 2076.89,1244.75 2078.47,1244.75 2080.05,1244.75 2081.63,1244.75 2083.21,1244.75 2084.79,1244.75 2086.37,1244.75 2087.95,1244.75 2089.53,1244.75 
  2091.11,1244.75 2092.69,1244.75 2094.27,1244.75 2095.85,1244.75 2097.43,1244.75 2099.01,1244.75 2100.59,1244.75 2102.17,1244.75 2103.75,1244.75 2105.33,1244.75 
  2106.91,1244.75 2108.49,1244.75 2110.07,1244.75 2111.65,1244.75 2113.23,1244.75 2114.81,1244.75 2116.39,1244.75 2117.97,1244.75 2119.55,1244.75 2121.13,1244.75 
  2122.71,1244.75 2124.29,1244.75 2125.87,1244.75 2127.45,1244.75 2129.03,1244.75 2130.61,1244.75 2132.19,1244.75 2133.77,1244.75 2135.35,1244.75 2136.93,1244.75 
  2138.51,1244.75 2140.09,1244.75 2141.67,1244.75 2143.25,1244.75 2144.83,1244.75 2146.41,1244.75 2147.99,1244.75 2149.57,1244.75 2151.15,1244.75 2152.73,1244.75 
  2154.31,1244.75 2155.89,1244.75 2157.47,1244.75 2159.05,1244.75 2160.63,1244.75 2162.21,1244.75 2163.79,1244.75 2165.37,1244.75 2166.95,1244.75 2168.53,1244.75 
  2170.11,1244.75 2171.69,1244.75 2173.27,1244.75 2174.85,1244.75 2176.43,1244.75 2178.01,1244.75 2179.6,1244.75 2181.18,1244.75 2182.76,1244.75 2184.34,1244.75 
  2185.92,1244.75 2187.5,265.086 2189.08,255.774 2190.66,248.414 2192.24,242.938 2193.82,238.917 2195.4,235.964 2196.98,233.789 2198.56,232.186 2200.14,231.011 
  2201.72,230.163 2203.3,229.573 2204.88,229.194 2206.46,228.993 2208.04,228.95 2209.62,229.053 2211.2,229.298 2212.78,229.687 2214.36,230.227 2215.94,230.929 
  2217.52,231.813 2219.1,232.901 2220.68,234.223 2222.26,235.815 2223.84,237.722 2225.42,239.996 2227,242.7 2228.58,245.907 2230.16,249.703 2231.74,254.186 
  2233.32,259.47 2234.9,265.682 2236.48,272.966 2238.06,281.482 2239.64,291.403 2241.22,302.915 2242.8,316.215 2244.38,331.505 2245.96,348.988 2247.54,368.857 
  2249.12,391.291 2250.7,416.44 2252.28,444.417 2253.86,475.282 2255.44,509.03 2257.02,545.583 2258.6,584.776 2260.18,626.35 2261.76,669.956 2263.34,715.149 
  2264.92,761.404 2266.5,808.128 2268.08,854.68 2269.66,900.398 2271.24,944.629 2272.82,986.753 2274.4,1026.22 2275.98,1062.56 2277.56,1095.42 2279.14,1124.58 
  2280.72,1149.93 2282.3,1171.5 2283.89,1189.44 2285.47,1203.98 2287.05,1215.48 2288.63,1224.31 2290.21,1230.89 2291.79,1235.63 2293.37,1238.95 2294.95,1241.18 
  2296.53,1242.62 2298.11,1243.53 2299.69,1244.07 2301.27,1244.38 2302.85,1244.56 2304.43,1244.65 2306.01,1244.7 2307.59,1244.72 2309.17,1244.74 2310.75,1244.74 
  2312.33,1244.75 2313.91,1244.75 2315.49,1244.75 2317.07,1244.75 2318.65,1244.75 2320.23,1244.75 2321.81,1244.75 2323.39,1244.75 2324.97,1244.75 2326.55,1244.75 
  2328.13,1244.75 2329.71,1244.75 2331.29,1244.75 2332.87,1244.75 2334.45,1244.75 2336.03,1244.75 2337.61,1244.75 2339.19,1244.75 2340.77,1244.75 2342.35,1244.75 
  2343.93,1244.75 2345.51,1244.75 2347.09,1244.75 2348.67,1244.75 2350.25,1244.75 2351.83,1244.75 2353.41,1244.75 2354.99,1244.75 2356.57,1244.75 2358.15,1244.75 
  2359.73,1244.75 2361.31,1244.75 2362.89,1244.75 2364.47,1244.75 2366.05,1244.75 2367.63,1244.75 2369.21,1244.75 2370.79,1244.75 2372.37,1244.75 2373.95,1244.75 
  2375.53,1244.75 2377.11,248.569 2378.69,242.994 2380.27,237.809 2381.85,233.632 2383.43,230.42 2385.01,227.989 2386.6,226.156 2388.18,224.772 2389.76,223.722 
  2391.34,222.919 2392.92,222.301 2394.5,221.821 2396.08,221.447 2397.66,221.151 2399.24,220.916 2400.82,220.729 2402.4,220.578 2403.98,220.455 2405.56,220.355 
  2407.14,220.272 2408.72,220.204 2410.3,220.148 2411.88,220.1 2413.46,220.061 2415.04,220.027 2416.62,219.999 2418.2,219.975 2419.78,219.954 2421.36,219.936 
  2422.94,219.921 2424.52,219.908 2426.1,219.897 2427.68,219.888 2429.26,219.879 2430.84,219.872 2432.42,219.866 2434,219.861 2435.58,219.857 2437.16,219.854 
  2438.74,219.851 2440.32,219.849 2441.9,219.847 2443.48,219.846 2445.06,219.846 2446.64,219.846 2448.22,219.846 2449.8,219.847 2451.38,219.849 2452.96,219.851 
  2454.54,219.853 2456.12,219.856 2457.7,219.86 2459.28,219.864 2460.86,219.869 2462.44,219.874 2464.02,219.88 2465.6,219.887 2467.18,219.895 2468.76,219.904 
  2470.34,219.913 2471.92,219.924 2473.5,219.936 2475.08,219.949 2476.66,219.964 2478.24,219.98 2479.82,219.998 2481.4,220.018 2482.98,220.041 2484.56,220.066 
  2486.14,220.093 2487.72,220.124 2489.3,220.158 2490.89,220.196 2492.47,220.238 2494.05,220.285 2495.63,220.337 2497.21,220.396 2498.79,220.461 2500.37,220.533 
  2501.95,220.614 2503.53,220.705 2505.11,220.806 2506.69,220.919 2508.27,221.045 2509.85,221.186 2511.43,221.344 2513.01,221.52 2514.59,221.718 2516.17,221.939 
  2517.75,222.187 2519.33,222.464 2520.91,222.774 2522.49,223.121 2524.07,223.51 2525.65,223.944 2527.23,224.431 2528.81,224.974 2530.39,225.582 2531.97,226.261 
  2533.55,227.019 2535.13,227.865 2536.71,228.81 2538.29,229.862 2539.87,231.035 2541.45,232.341 2543.03,233.794 2544.61,235.408 2546.19,237.201 2547.77,239.189 
  2549.35,241.393 2550.93,243.831 2552.51,246.527 2554.09,249.504 2555.67,252.785 2557.25,256.399 2558.83,260.372 2560.41,264.733 2561.99,269.513 2563.57,274.744 
  2565.15,280.457 2566.73,286.687 2568.31,293.467 2569.89,300.831 2571.47,308.815 2573.05,317.451 2574.63,326.773 2576.21,336.814 2577.79,347.605 2579.37,359.172 
  2580.95,371.544 2582.53,384.742 2584.11,398.785 2585.69,413.688 2587.27,429.46 2588.85,446.106 2590.43,463.624 2592.01,482.004 2593.59,501.232 2595.18,521.285 
  2596.76,542.131 2598.34,563.732 2599.92,586.042 2601.5,609.005 2603.08,632.559 2604.66,656.633 2606.24,681.152 2607.82,706.03 2609.4,731.179 2610.98,756.504 
  2612.56,781.907 2614.14,807.287 2615.72,832.543 2617.3,857.57 2618.88,882.268 2620.46,906.537 2622.04,930.282 2623.62,953.41 2625.2,975.839 2626.78,997.489 
  2628.36,1018.29 2629.94,1038.18 2631.52,1057.12 2633.1,1075.05 2634.68,1091.95 2636.26,1107.79 2637.84,1122.57 2639.42,1136.28 2641,1148.93 2642.58,1160.53 
  2644.16,1171.12 2645.74,1180.73 2647.32,1189.39 2648.9,1197.15 2650.48,1204.05 2652.06,1210.16 2653.64,1215.53 2655.22,1220.21 2656.8,1224.26 2658.38,1227.74 
  2659.96,1230.72 2661.54,1233.24 2663.12,1235.36 2664.7,1237.12 2666.28,1238.59 2667.86,1239.79 2669.44,1240.77 2671.02,1241.56 2672.6,1242.19 2674.18,1242.7 
  2675.76,1243.11 2677.34,1243.43 2678.92,1243.68 2680.5,1243.88 2682.08,1244.04 2683.66,1244.16 2685.24,1244.26 2686.82,1244.34 2688.4,1244.4 2689.98,1244.45 
  2691.56,1244.49 2693.14,1244.53 2694.72,1244.56 2696.3,1244.58 2697.88,1244.6 2699.47,1244.62 2701.05,1244.64 2702.63,1244.65 2704.21,1244.67 2705.79,1244.68 
  2707.37,1244.69 2708.95,1244.69 2710.53,1244.7 2712.11,1244.71 2713.69,1244.71 2715.27,1244.72 2716.85,1244.72 2718.43,1244.73 2720.01,1244.73 2721.59,1244.73 
  2723.17,1244.74 2724.75,1244.74 2726.33,1244.74 2727.91,1244.74 2729.49,1244.74 2731.07,1244.74 2732.65,1244.75 2734.23,1244.75 2735.81,1244.75 2737.39,1244.75 
  2738.97,1244.75 2740.55,1244.75 2742.13,1244.75 2743.71,1244.75 2745.29,1244.75 2746.87,1244.75 2748.45,1244.75 2750.03,1244.75 2751.61,1244.75 2753.19,1244.75 
  2754.77,1244.75 2756.35,1244.75 2757.93,1244.75 2759.51,1244.75 2761.09,1244.75 2762.67,1244.75 2764.25,1244.75 2765.83,1244.75 2767.41,1244.75 2768.99,1244.75 
  2770.57,1244.75 2772.15,1244.75 2773.73,1244.75 2775.31,1244.75 2776.89,1244.75 2778.47,1244.75 2780.05,1244.75 2781.63,1244.75 2783.21,1244.75 2784.79,1244.75 
  2786.37,1244.75 2787.95,1244.75 2789.53,1244.75 2791.11,1244.75 2792.69,1244.75 2794.27,1244.75 2795.85,1244.75 2797.43,1244.75 2799.01,1244.75 2800.59,1244.75 
  2802.17,1244.75 2803.76,1244.75 2805.34,1244.75 2806.92,1244.75 2808.5,1244.75 2810.08,1244.75 2811.66,1244.75 2813.24,1244.75 2814.82,1244.75 2816.4,1244.75 
  2817.98,1244.75 2819.56,1244.75 2821.14,1244.75 2822.72,1244.75 2824.3,1244.75 2825.88,1244.75 2827.46,1244.75 2829.04,1244.75 2830.62,1244.75 2832.2,1244.75 
  2833.78,1244.75 2835.36,1244.75 2836.94,1244.75 2838.52,1244.75 2840.1,1244.75 2841.68,1244.75 2843.26,1244.75 2844.84,1244.75 2846.42,1244.75 2848,1244.75 
  2849.58,1244.75 2851.16,1244.75 2852.74,1244.75 2854.32,1244.75 2855.9,1244.75 2857.48,1244.75 2859.06,1244.75 2860.64,1244.75 2862.22,1244.75 2863.8,1244.75 
  2865.38,1244.75 2866.96,1244.75 2868.54,1244.75 2870.12,1244.75 2871.7,1244.75 2873.28,1244.75 2874.86,1244.75 2876.44,1244.75 2878.02,1244.75 2879.6,1244.75 
  2881.18,1244.75 2882.76,1244.75 2884.34,1244.75 2885.92,1244.75 2887.5,1244.75 2889.08,1244.75 2890.66,1244.75 2892.24,1244.75 2893.82,1244.75 2895.4,1244.75 
  2896.98,1244.75 2898.56,1244.75 2900.14,1244.75 2901.72,1244.75 2903.3,1244.75 2904.88,1244.75 2906.46,1244.75 2908.05,1244.75 2909.63,1244.75 2911.21,1244.75 
  2912.79,1244.75 2914.37,1244.75 2915.95,1244.75 2917.53,1244.75 2919.11,1244.75 2920.69,1244.75 2922.27,1244.75 2923.85,1244.75 2925.43,1244.75 2927.01,1244.75 
  2928.59,1244.75 2930.17,1244.75 2931.75,1244.75 2933.33,1244.75 2934.91,1244.75 2936.49,1244.75 2938.07,1244.75 2939.65,1244.75 2941.23,1244.75 2942.81,1244.75 
  
  "/>
<circle clip-path="url(#clip4102)" style="fill:#000000; stroke:none; fill-opacity:1" cx="1351.6" cy="1244.75" r="18"/>
<circle clip-path="url(#clip4102)" style="fill:#add8e6; stroke:none; fill-opacity:1" cx="1351.6" cy="1244.75" r="14"/>
<circle clip-path="url(#clip4102)" style="fill:#000000; stroke:none; fill-opacity:1" cx="1351.6" cy="1244.75" r="18"/>
<circle clip-path="url(#clip4102)" style="fill:#ffa500; stroke:none; fill-opacity:1" cx="1351.6" cy="1244.75" r="14"/>
<polygon clip-path="url(#clip4100)" points="
696.755,622.896 1245.58,622.896 1245.58,320.496 696.755,320.496 
  " fill="#ffffff" fill-rule="evenodd" fill-opacity="1"/>
<polyline clip-path="url(#clip4100)" style="stroke:#000000; stroke-width:4; stroke-opacity:1; fill:none" points="
  696.755,622.896 1245.58,622.896 1245.58,320.496 696.755,320.496 696.755,622.896 
  "/>
<polyline clip-path="url(#clip4100)" style="stroke:#009af9; stroke-width:4; stroke-opacity:1; fill:none" points="
  728.755,380.976 920.755,380.976 
  "/>
<g clip-path="url(#clip4100)">
<text style="fill:#000000; fill-opacity:1; font-family:Arial,Helvetica Neue,Helvetica,sans-serif; font-size:48px; text-anchor:start;" transform="rotate(0, 952.755, 398.476)" x="952.755" y="398.476">PSA</text>
</g>
<polyline clip-path="url(#clip4100)" style="stroke:#e26f46; stroke-width:4; stroke-opacity:1; fill:none" points="
  728.755,441.456 920.755,441.456 
  "/>
<g clip-path="url(#clip4100)">
<text style="fill:#000000; fill-opacity:1; font-family:Arial,Helvetica Neue,Helvetica,sans-serif; font-size:48px; text-anchor:start;" transform="rotate(0, 952.755, 458.956)" x="952.755" y="458.956">NS</text>
</g>
<circle clip-path="url(#clip4100)" style="fill:#000000; stroke:none; fill-opacity:1" cx="840.755" cy="501.936" r="25"/>
<circle clip-path="url(#clip4100)" style="fill:#add8e6; stroke:none; fill-opacity:1" cx="840.755" cy="501.936" r="21"/>
<g clip-path="url(#clip4100)">
<text style="fill:#000000; fill-opacity:1; font-family:Arial,Helvetica Neue,Helvetica,sans-serif; font-size:48px; text-anchor:start;" transform="rotate(0, 952.755, 519.436)" x="952.755" y="519.436">1.902e-15</text>
</g>
<circle clip-path="url(#clip4100)" style="fill:#000000; stroke:none; fill-opacity:1" cx="840.755" cy="562.416" r="25"/>
<circle clip-path="url(#clip4100)" style="fill:#ffa500; stroke:none; fill-opacity:1" cx="840.755" cy="562.416" r="21"/>
<g clip-path="url(#clip4100)">
<text style="fill:#000000; fill-opacity:1; font-family:Arial,Helvetica Neue,Helvetica,sans-serif; font-size:48px; text-anchor:start;" transform="rotate(0, 952.755, 579.916)" x="952.755" y="579.916">2.674e-73</text>
</g>
</svg>
