<?xml version="1.0" encoding="utf-8"?>
<svg xmlns="http://www.w3.org/2000/svg" xmlns:xlink="http://www.w3.org/1999/xlink" width="800" height="400" viewBox="0 0 3200 1600">
<defs>
  <clipPath id="clip1100">
    <rect x="0" y="0" width="3200" height="1600"/>
  </clipPath>
</defs>
<polygon clip-path="url(#clip1100)" points="
0,1600 3200,1600 3200,0 0,0 
  " fill="#ffffff" fill-rule="evenodd" fill-opacity="1"/>
<defs>
  <clipPath id="clip1101">
    <rect x="640" y="0" width="2241" height="1600"/>
  </clipPath>
</defs>
<polygon clip-path="url(#clip1100)" points="
651.054,1171.48 2853.54,1171.48 2853.54,188.976 651.054,188.976 
  " fill="#ffffff" fill-rule="evenodd" fill-opacity="1"/>
<defs>
  <clipPath id="clip1102">
    <rect x="651" y="188" width="2203" height="984"/>
  </clipPath>
</defs>
<polyline clip-path="url(#clip1102)" style="stroke:#000000; stroke-width:2; stroke-opacity:0.1; fill:none" points="
  711.945,1171.48 711.945,188.976 
  "/>
<polyline clip-path="url(#clip1102)" style="stroke:#000000; stroke-width:2; stroke-opacity:0.1; fill:none" points="
  1058.49,1171.48 1058.49,188.976 
  "/>
<polyline clip-path="url(#clip1102)" style="stroke:#000000; stroke-width:2; stroke-opacity:0.1; fill:none" points="
  1405.03,1171.48 1405.03,188.976 
  "/>
<polyline clip-path="url(#clip1102)" style="stroke:#000000; stroke-width:2; stroke-opacity:0.1; fill:none" points="
  1751.58,1171.48 1751.58,188.976 
  "/>
<polyline clip-path="url(#clip1102)" style="stroke:#000000; stroke-width:2; stroke-opacity:0.1; fill:none" points="
  2098.12,1171.48 2098.12,188.976 
  "/>
<polyline clip-path="url(#clip1102)" style="stroke:#000000; stroke-width:2; stroke-opacity:0.1; fill:none" points="
  2444.66,1171.48 2444.66,188.976 
  "/>
<polyline clip-path="url(#clip1102)" style="stroke:#000000; stroke-width:2; stroke-opacity:0.1; fill:none" points="
  2791.21,1171.48 2791.21,188.976 
  "/>
<polyline clip-path="url(#clip1102)" style="stroke:#000000; stroke-width:2; stroke-opacity:0.1; fill:none" points="
  651.054,1143.67 2853.54,1143.67 
  "/>
<polyline clip-path="url(#clip1102)" style="stroke:#000000; stroke-width:2; stroke-opacity:0.1; fill:none" points="
  651.054,911.95 2853.54,911.95 
  "/>
<polyline clip-path="url(#clip1102)" style="stroke:#000000; stroke-width:2; stroke-opacity:0.1; fill:none" points="
  651.054,680.227 2853.54,680.227 
  "/>
<polyline clip-path="url(#clip1102)" style="stroke:#000000; stroke-width:2; stroke-opacity:0.1; fill:none" points="
  651.054,448.505 2853.54,448.505 
  "/>
<polyline clip-path="url(#clip1102)" style="stroke:#000000; stroke-width:2; stroke-opacity:0.1; fill:none" points="
  651.054,216.783 2853.54,216.783 
  "/>
<polyline clip-path="url(#clip1100)" style="stroke:#000000; stroke-width:4; stroke-opacity:1; fill:none" points="
  651.054,1171.48 2853.54,1171.48 
  "/>
<polyline clip-path="url(#clip1100)" style="stroke:#000000; stroke-width:4; stroke-opacity:1; fill:none" points="
  651.054,1171.48 651.054,188.976 
  "/>
<polyline clip-path="url(#clip1100)" style="stroke:#000000; stroke-width:4; stroke-opacity:1; fill:none" points="
  711.945,1171.48 711.945,1156.74 
  "/>
<polyline clip-path="url(#clip1100)" style="stroke:#000000; stroke-width:4; stroke-opacity:1; fill:none" points="
  1058.49,1171.48 1058.49,1156.74 
  "/>
<polyline clip-path="url(#clip1100)" style="stroke:#000000; stroke-width:4; stroke-opacity:1; fill:none" points="
  1405.03,1171.48 1405.03,1156.74 
  "/>
<polyline clip-path="url(#clip1100)" style="stroke:#000000; stroke-width:4; stroke-opacity:1; fill:none" points="
  1751.58,1171.48 1751.58,1156.74 
  "/>
<polyline clip-path="url(#clip1100)" style="stroke:#000000; stroke-width:4; stroke-opacity:1; fill:none" points="
  2098.12,1171.48 2098.12,1156.74 
  "/>
<polyline clip-path="url(#clip1100)" style="stroke:#000000; stroke-width:4; stroke-opacity:1; fill:none" points="
  2444.66,1171.48 2444.66,1156.74 
  "/>
<polyline clip-path="url(#clip1100)" style="stroke:#000000; stroke-width:4; stroke-opacity:1; fill:none" points="
  2791.21,1171.48 2791.21,1156.74 
  "/>
<polyline clip-path="url(#clip1100)" style="stroke:#000000; stroke-width:4; stroke-opacity:1; fill:none" points="
  651.054,1143.67 684.092,1143.67 
  "/>
<polyline clip-path="url(#clip1100)" style="stroke:#000000; stroke-width:4; stroke-opacity:1; fill:none" points="
  651.054,911.95 684.092,911.95 
  "/>
<polyline clip-path="url(#clip1100)" style="stroke:#000000; stroke-width:4; stroke-opacity:1; fill:none" points="
  651.054,680.227 684.092,680.227 
  "/>
<polyline clip-path="url(#clip1100)" style="stroke:#000000; stroke-width:4; stroke-opacity:1; fill:none" points="
  651.054,448.505 684.092,448.505 
  "/>
<polyline clip-path="url(#clip1100)" style="stroke:#000000; stroke-width:4; stroke-opacity:1; fill:none" points="
  651.054,216.783 684.092,216.783 
  "/>
<g clip-path="url(#clip1100)">
<text style="fill:#000000; fill-opacity:1; font-family:Arial,Helvetica Neue,Helvetica,sans-serif; font-size:71px; text-anchor:middle;" transform="rotate(0, 711.945, 1249.88)" x="711.945" y="1249.88">0</text>
</g>
<g clip-path="url(#clip1100)">
<text style="fill:#000000; fill-opacity:1; font-family:Arial,Helvetica Neue,Helvetica,sans-serif; font-size:71px; text-anchor:middle;" transform="rotate(0, 1058.49, 1249.88)" x="1058.49" y="1249.88">4</text>
</g>
<g clip-path="url(#clip1100)">
<text style="fill:#000000; fill-opacity:1; font-family:Arial,Helvetica Neue,Helvetica,sans-serif; font-size:71px; text-anchor:middle;" transform="rotate(0, 1405.03, 1249.88)" x="1405.03" y="1249.88">8</text>
</g>
<g clip-path="url(#clip1100)">
<text style="fill:#000000; fill-opacity:1; font-family:Arial,Helvetica Neue,Helvetica,sans-serif; font-size:71px; text-anchor:middle;" transform="rotate(0, 1751.58, 1249.88)" x="1751.58" y="1249.88">12</text>
</g>
<g clip-path="url(#clip1100)">
<text style="fill:#000000; fill-opacity:1; font-family:Arial,Helvetica Neue,Helvetica,sans-serif; font-size:71px; text-anchor:middle;" transform="rotate(0, 2098.12, 1249.88)" x="2098.12" y="1249.88">16</text>
</g>
<g clip-path="url(#clip1100)">
<text style="fill:#000000; fill-opacity:1; font-family:Arial,Helvetica Neue,Helvetica,sans-serif; font-size:71px; text-anchor:middle;" transform="rotate(0, 2444.66, 1249.88)" x="2444.66" y="1249.88">20</text>
</g>
<g clip-path="url(#clip1100)">
<text style="fill:#000000; fill-opacity:1; font-family:Arial,Helvetica Neue,Helvetica,sans-serif; font-size:71px; text-anchor:middle;" transform="rotate(0, 2791.21, 1249.88)" x="2791.21" y="1249.88">24</text>
</g>
<g clip-path="url(#clip1100)">
<text style="fill:#000000; fill-opacity:1; font-family:Arial,Helvetica Neue,Helvetica,sans-serif; font-size:71px; text-anchor:end;" transform="rotate(0, 619.054, 1169.67)" x="619.054" y="1169.67">0.00</text>
</g>
<g clip-path="url(#clip1100)">
<text style="fill:#000000; fill-opacity:1; font-family:Arial,Helvetica Neue,Helvetica,sans-serif; font-size:71px; text-anchor:end;" transform="rotate(0, 619.054, 937.95)" x="619.054" y="937.95">0.25</text>
</g>
<g clip-path="url(#clip1100)">
<text style="fill:#000000; fill-opacity:1; font-family:Arial,Helvetica Neue,Helvetica,sans-serif; font-size:71px; text-anchor:end;" transform="rotate(0, 619.054, 706.227)" x="619.054" y="706.227">0.50</text>
</g>
<g clip-path="url(#clip1100)">
<text style="fill:#000000; fill-opacity:1; font-family:Arial,Helvetica Neue,Helvetica,sans-serif; font-size:71px; text-anchor:end;" transform="rotate(0, 619.054, 474.505)" x="619.054" y="474.505">0.75</text>
</g>
<g clip-path="url(#clip1100)">
<text style="fill:#000000; fill-opacity:1; font-family:Arial,Helvetica Neue,Helvetica,sans-serif; font-size:71px; text-anchor:end;" transform="rotate(0, 619.054, 242.783)" x="619.054" y="242.783">1.00</text>
</g>
<g clip-path="url(#clip1100)">
<text style="fill:#000000; fill-opacity:1; font-family:Arial,Helvetica Neue,Helvetica,sans-serif; font-size:95px; text-anchor:middle;" transform="rotate(0, 1752.3, 1365.73)" x="1752.3" y="1365.73">Time (hours)</text>
</g>
<g clip-path="url(#clip1100)">
<text style="fill:#000000; fill-opacity:1; font-family:Arial,Helvetica Neue,Helvetica,sans-serif; font-size:95px; text-anchor:middle;" transform="rotate(-90, 428.753, 680.227)" x="428.753" y="680.227">Probability of Wait </text>
</g>
<polyline clip-path="url(#clip1102)" style="stroke:#009af9; stroke-width:4; stroke-opacity:1; fill:none" points="
  713.389,216.783 714.833,216.783 716.277,216.783 717.721,216.783 719.165,216.783 720.609,216.783 722.053,216.783 723.497,216.783 724.941,216.783 726.384,216.783 
  727.828,216.783 729.272,216.783 730.716,216.783 732.16,216.783 733.604,216.783 735.048,216.783 736.492,216.783 737.936,216.783 739.38,216.783 740.824,216.783 
  742.268,216.783 743.712,216.783 745.156,216.783 746.6,216.783 748.043,216.783 749.487,216.783 750.931,216.783 752.375,216.783 753.819,216.783 755.263,216.783 
  756.707,216.783 758.151,216.783 759.595,216.783 761.039,216.783 762.483,216.783 763.927,216.783 765.371,216.783 766.815,216.783 768.259,216.783 769.702,216.783 
  771.146,216.783 772.59,216.783 774.034,216.783 775.478,216.783 776.922,216.783 778.366,216.783 779.81,216.783 781.254,216.783 782.698,216.783 784.142,216.783 
  785.586,216.783 787.03,216.783 788.474,216.783 789.918,216.783 791.361,216.783 792.805,216.783 794.249,216.783 795.693,216.783 797.137,216.783 798.581,216.783 
  800.025,216.783 801.469,216.789 802.913,216.79 804.357,216.791 805.801,216.792 807.245,216.793 808.689,216.795 810.133,216.796 811.577,216.798 813.02,216.8 
  814.464,216.802 815.908,216.805 817.352,216.808 818.796,216.811 820.24,216.815 821.684,216.819 823.128,216.824 824.572,216.83 826.016,216.836 827.46,216.843 
  828.904,216.851 830.348,216.86 831.792,216.87 833.236,216.882 834.679,216.895 836.123,216.909 837.567,216.926 839.011,216.945 840.455,216.966 841.899,216.99 
  843.343,217.016 844.787,217.047 846.231,217.081 847.675,217.119 849.119,217.162 850.563,217.211 852.007,217.265 853.451,217.326 854.895,217.395 856.338,217.472 
  857.782,217.559 859.226,217.656 860.67,217.765 862.114,217.887 863.558,218.024 865.002,218.177 866.446,218.348 867.89,218.54 869.334,218.754 870.778,218.993 
  872.222,219.26 873.666,219.558 875.11,219.891 876.554,220.261 877.997,220.673 879.441,221.132 880.885,221.643 882.329,222.21 883.773,222.841 885.217,223.54 
  886.661,224.316 888.105,222.59 889.549,222.844 890.993,223.108 892.437,223.384 893.881,223.671 895.325,223.97 896.769,224.282 898.213,224.606 899.656,224.944 
  901.1,225.295 902.544,225.66 903.988,226.041 905.432,226.436 906.876,226.848 908.32,227.277 909.764,227.722 911.208,228.185 912.652,228.667 914.096,229.168 
  915.54,229.689 916.984,230.23 918.428,230.792 919.871,231.377 921.315,231.984 922.759,232.615 924.203,233.271 925.647,233.951 927.091,234.658 928.535,235.392 
  929.979,236.154 931.423,236.945 932.867,237.766 934.311,238.618 935.755,239.502 937.199,240.418 938.643,241.369 940.087,242.356 941.53,243.378 942.974,244.438 
  944.418,245.537 945.862,246.676 947.306,247.856 948.75,249.079 950.194,250.345 951.638,251.657 953.082,253.015 954.526,254.422 955.97,255.877 957.414,257.384 
  958.858,258.943 960.302,260.556 961.746,262.224 963.189,263.949 964.633,265.733 966.077,267.577 967.521,269.483 968.965,271.453 970.409,273.488 971.853,275.59 
  973.297,277.761 974.741,226.98 976.185,227.263 977.629,227.552 979.073,227.85 980.517,228.155 981.961,228.468 983.405,228.789 984.848,229.119 986.292,229.458 
  987.736,229.805 989.18,230.162 990.624,230.528 992.068,230.903 993.512,231.288 994.956,231.683 996.4,232.089 997.844,232.504 999.288,232.931 1000.73,233.369 
  1002.18,233.817 1003.62,234.278 1005.06,234.75 1006.51,235.234 1007.95,235.731 1009.4,236.24 1010.84,236.762 1012.28,237.297 1013.73,237.846 1015.17,238.409 
  1016.62,238.986 1018.06,239.578 1019.5,240.184 1020.95,240.805 1022.39,241.443 1023.83,242.096 1025.28,242.765 1026.72,243.451 1028.17,244.153 1029.61,244.874 
  1031.05,245.611 1032.5,246.368 1033.94,247.142 1035.39,247.936 1036.83,248.749 1038.27,249.581 1039.72,250.434 1041.16,251.308 1042.61,252.203 1044.05,253.119 
  1045.49,254.057 1046.94,255.018 1048.38,256.002 1049.83,257.009 1051.27,258.04 1052.71,259.096 1054.16,260.176 1055.6,261.282 1057.05,262.414 1058.49,263.573 
  1059.93,264.758 1061.38,364.324 1062.82,361.211 1064.26,358.151 1065.71,355.142 1067.15,352.185 1068.6,349.279 1070.04,346.423 1071.48,343.618 1072.93,340.862 
  1074.37,338.154 1075.82,335.496 1077.26,332.885 1078.7,330.321 1080.15,327.805 1081.59,325.335 1083.04,322.91 1084.48,320.531 1085.92,318.196 1087.37,315.906 
  1088.81,313.659 1090.26,311.455 1091.7,309.293 1093.14,307.174 1094.59,305.095 1096.03,303.058 1097.48,301.06 1098.92,299.102 1100.36,297.184 1101.81,295.303 
  1103.25,293.461 1104.69,291.656 1106.14,289.888 1107.58,288.156 1109.03,286.459 1110.47,284.798 1111.91,283.172 1113.36,281.579 1114.8,280.02 1116.25,278.494 
  1117.69,277 1119.13,275.538 1120.58,274.108 1122.02,272.708 1123.47,271.338 1124.91,269.998 1126.35,268.688 1127.8,267.406 1129.24,266.153 1130.69,264.927 
  1132.13,263.728 1133.57,262.556 1135.02,261.41 1136.46,260.29 1137.91,259.196 1139.35,258.126 1140.79,257.08 1142.24,256.058 1143.68,255.06 1145.13,254.085 
  1146.57,253.132 1148.01,267.402 1149.46,258.712 1150.9,251.389 1152.34,245.247 1153.79,240.119 1155.23,235.856 1156.68,232.326 1158.12,229.413 1159.56,227.019 
  1161.01,225.058 1162.45,223.456 1163.9,222.152 1165.34,221.093 1166.78,220.235 1168.23,219.543 1169.67,218.985 1171.12,218.537 1172.56,218.177 1174,217.889 
  1175.45,217.659 1176.89,217.476 1178.34,217.33 1179.78,217.215 1181.22,217.123 1182.67,217.05 1184.11,216.993 1185.56,216.948 1187,216.912 1188.44,216.884 
  1189.89,216.862 1191.33,216.845 1192.77,216.831 1194.22,216.82 1195.66,216.812 1197.11,216.806 1198.55,216.801 1199.99,216.797 1201.44,216.794 1202.88,216.791 
  1204.33,216.789 1205.77,216.788 1207.21,216.787 1208.66,216.786 1210.1,216.785 1211.55,216.785 1212.99,216.784 1214.43,216.784 1215.88,216.784 1217.32,216.784 
  1218.77,216.784 1220.21,216.783 1221.65,216.783 1223.1,216.783 1224.54,216.783 1225.99,216.783 1227.43,216.783 1228.87,216.783 1230.32,216.783 1231.76,216.783 
  1233.2,216.783 1234.65,1141.34 1236.09,1140.24 1237.54,1138.72 1238.98,1136.69 1240.42,1134 1241.87,1130.52 1243.31,1126.08 1244.76,1120.51 1246.2,1113.63 
  1247.64,1105.26 1249.09,1095.23 1250.53,1083.35 1251.98,1069.46 1253.42,1053.44 1254.86,1035.16 1256.31,1014.56 1257.75,991.586 1259.2,966.256 1260.64,938.624 
  1262.08,908.799 1263.53,876.94 1264.97,843.26 1266.42,808.019 1267.86,771.521 1269.3,734.11 1270.75,696.155 1272.19,658.046 1273.64,620.18 1275.08,582.948 
  1276.52,546.725 1277.97,511.857 1279.41,478.651 1280.85,447.366 1282.3,418.207 1283.74,391.322 1285.19,366.8 1286.63,344.672 1288.07,324.916 1289.52,307.465 
  1290.96,292.21 1292.41,279.013 1293.85,267.711 1295.29,258.13 1296.74,250.086 1298.18,243.399 1299.63,237.891 1301.07,233.397 1302.51,229.762 1303.96,226.849 
  1305.4,224.533 1306.85,222.708 1308.29,221.282 1309.73,220.176 1311.18,219.325 1312.62,218.674 1314.07,218.182 1315.51,217.811 1316.95,217.534 1318.4,217.328 
  1319.84,217.176 1321.28,1143.67 1322.73,1143.67 1324.17,1143.67 1325.62,1143.67 1327.06,1143.67 1328.5,1143.67 1329.95,1143.67 1331.39,1143.67 1332.84,1143.67 
  1334.28,1143.67 1335.72,1143.67 1337.17,1143.67 1338.61,1143.67 1340.06,1143.67 1341.5,1143.67 1342.94,1143.67 1344.39,1143.67 1345.83,1143.67 1347.28,1143.67 
  1348.72,1143.67 1350.16,1143.67 1351.61,1143.67 1353.05,1143.67 1354.5,1143.66 1355.94,1143.66 1357.38,1143.65 1358.83,1143.64 1360.27,1143.63 1361.72,1143.61 
  1363.16,1143.58 1364.6,1143.55 1366.05,1143.49 1367.49,1143.43 1368.93,1143.33 1370.38,1143.21 1371.82,1143.04 1373.27,1142.83 1374.71,1142.55 1376.15,1142.2 
  1377.6,1141.74 1379.04,1141.17 1380.49,1140.44 1381.93,1139.55 1383.37,1138.44 1384.82,1137.09 1386.26,1135.44 1387.71,1133.45 1389.15,1131.06 1390.59,1128.23 
  1392.04,1124.88 1393.48,1120.94 1394.93,1116.36 1396.37,1111.04 1397.81,1104.93 1399.26,1097.93 1400.7,1089.98 1402.15,1081 1403.59,1070.91 1405.03,1059.66 
  1406.48,1047.16 1407.92,1143.67 1409.36,1143.67 1410.81,1143.67 1412.25,1143.67 1413.7,1143.67 1415.14,1143.67 1416.58,1143.67 1418.03,1143.67 1419.47,1143.67 
  1420.92,1143.67 1422.36,1143.67 1423.8,1143.67 1425.25,1143.67 1426.69,1143.67 1428.14,1143.67 1429.58,1143.67 1431.02,1143.67 1432.47,1143.67 1433.91,1143.67 
  1435.36,1143.66 1436.8,1143.64 1438.24,1143.61 1439.69,1143.54 1441.13,1143.4 1442.58,1143.14 1444.02,1142.67 1445.46,1141.85 1446.91,1140.49 1448.35,1138.29 
  1449.79,1134.86 1451.24,1129.71 1452.68,1122.19 1454.13,1111.58 1455.57,1097.05 1457.01,1077.75 1458.46,1052.86 1459.9,1021.69 1461.35,983.754 1462.79,938.903 
  1464.23,887.379 1465.68,829.892 1467.12,767.627 1468.57,702.208 1470.01,635.595 1471.45,569.92 1472.9,507.297 1474.34,449.604 1475.79,398.301 1477.23,354.3 
  1478.67,317.927 1480.12,288.955 1481.56,266.722 1483.01,250.283 1484.45,238.568 1485.89,230.517 1487.34,225.179 1488.78,221.761 1490.23,219.647 1491.67,218.382 
  1493.11,217.65 1494.56,1095.84 1496,1085.46 1497.44,1073.42 1498.89,1059.56 1500.33,1043.77 1501.78,1025.93 1503.22,1005.97 1504.66,983.82 1506.11,959.479 
  1507.55,932.968 1509,904.355 1510.44,873.759 1511.88,841.345 1513.33,807.327 1514.77,771.964 1516.22,735.558 1517.66,698.444 1519.1,660.987 1520.55,623.565 
  1521.99,586.564 1523.44,550.365 1524.88,515.328 1526.32,481.785 1527.77,450.026 1529.21,420.294 1530.66,392.774 1532.1,367.594 1533.54,344.822 1534.99,324.466 
  1536.43,306.485 1537.87,290.786 1539.32,277.242 1540.76,265.695 1542.21,255.964 1543.65,247.86 1545.09,241.189 1546.54,235.761 1547.98,231.395 1549.43,227.923 
  1550.87,225.192 1552.31,223.069 1553.76,221.436 1555.2,220.195 1556.65,219.26 1558.09,218.564 1559.53,218.052 1560.98,217.678 1562.42,217.409 1563.87,217.216 
  1565.31,217.08 1566.75,216.985 1568.2,216.919 1569.64,216.874 1571.09,216.843 1572.53,216.822 1573.97,216.809 1575.42,216.8 1576.86,216.794 1578.3,216.79 
  1579.75,216.787 1581.19,218.279 1582.64,218.321 1584.08,218.364 1585.52,218.408 1586.97,218.453 1588.41,218.499 1589.86,218.546 1591.3,218.594 1592.74,218.644 
  1594.19,218.695 1595.63,218.747 1597.08,218.8 1598.52,218.855 1599.96,218.911 1601.41,218.969 1602.85,219.028 1604.3,219.088 1605.74,219.15 1607.18,219.213 
  1608.63,219.278 1610.07,219.345 1611.52,219.413 1612.96,219.482 1614.4,219.554 1615.85,219.627 1617.29,219.701 1618.74,219.778 1620.18,219.856 1621.62,219.937 
  1623.07,220.019 1624.51,220.103 1625.95,220.189 1627.4,220.277 1628.84,220.367 1630.29,220.459 1631.73,220.553 1633.17,220.65 1634.62,220.748 1636.06,220.849 
  1637.51,220.952 1638.95,221.058 1640.39,221.166 1641.84,221.276 1643.28,221.389 1644.73,221.505 1646.17,221.623 1647.61,221.743 1649.06,221.867 1650.5,221.993 
  1651.95,222.121 1653.39,222.253 1654.83,222.388 1656.28,222.525 1657.72,222.665 1659.17,222.809 1660.61,222.956 1662.05,223.105 1663.5,223.258 1664.94,223.415 
  1666.38,223.574 1667.83,223.552 1669.27,223.954 1670.72,224.376 1672.16,224.821 1673.6,225.288 1675.05,225.779 1676.49,226.294 1677.94,226.835 1679.38,227.403 
  1680.82,227.999 1682.27,228.623 1683.71,229.278 1685.16,229.963 1686.6,230.681 1688.04,231.432 1689.49,232.218 1690.93,233.04 1692.38,233.899 1693.82,234.796 
  1695.26,235.733 1696.71,236.711 1698.15,237.731 1699.6,238.795 1701.04,239.904 1702.48,241.06 1703.93,242.263 1705.37,243.516 1706.82,244.82 1708.26,246.175 
  1709.7,247.585 1711.15,249.049 1712.59,250.57 1714.03,252.149 1715.48,253.787 1716.92,255.486 1718.37,257.248 1719.81,259.073 1721.25,260.964 1722.7,262.921 
  1724.14,264.947 1725.59,267.042 1727.03,269.208 1728.47,271.447 1729.92,273.759 1731.36,276.146 1732.81,278.609 1734.25,281.151 1735.69,283.77 1737.14,286.47 
  1738.58,289.251 1740.03,292.115 1741.47,295.061 1742.91,298.092 1744.36,301.209 1745.8,304.412 1747.25,307.702 1748.69,311.08 1750.13,314.547 1751.58,318.103 
  1753.02,321.749 1754.46,281.23 1755.91,284.879 1757.35,288.681 1758.8,292.64 1760.24,296.759 1761.68,301.041 1763.13,305.487 1764.57,310.101 1766.02,314.884 
  1767.46,319.838 1768.9,324.964 1770.35,330.265 1771.79,335.741 1773.24,341.393 1774.68,347.222 1776.12,353.227 1777.57,359.41 1779.01,365.769 1780.46,372.304 
  1781.9,379.013 1783.34,385.897 1784.79,392.952 1786.23,400.178 1787.68,407.572 1789.12,415.131 1790.56,422.853 1792.01,430.734 1793.45,438.772 1794.89,446.961 
  1796.34,455.298 1797.78,463.779 1799.23,472.399 1800.67,481.153 1802.11,490.035 1803.56,499.041 1805,508.164 1806.45,517.399 1807.89,526.739 1809.33,536.178 
  1810.78,545.709 1812.22,555.327 1813.67,565.023 1815.11,574.79 1816.55,584.623 1818,594.512 1819.44,604.452 1820.89,614.434 1822.33,624.451 1823.77,634.496 
  1825.22,644.56 1826.66,654.637 1828.11,664.719 1829.55,674.799 1830.99,684.868 1832.44,694.92 1833.88,704.947 1835.33,714.943 1836.77,724.899 1838.21,734.81 
  1839.66,744.667 1841.1,305.273 1842.54,304.734 1843.99,304.198 1845.43,303.664 1846.88,303.132 1848.32,302.602 1849.76,302.075 1851.21,301.551 1852.65,301.028 
  1854.1,300.508 1855.54,299.991 1856.98,299.475 1858.43,298.963 1859.87,298.452 1861.32,297.944 1862.76,297.438 1864.2,296.934 1865.65,296.433 1867.09,295.934 
  1868.54,295.438 1869.98,294.943 1871.42,294.451 1872.87,293.962 1874.31,293.475 1875.76,292.989 1877.2,292.507 1878.64,292.026 1880.09,291.548 1881.53,291.072 
  1882.97,290.599 1884.42,290.127 1885.86,289.658 1887.31,289.191 1888.75,288.727 1890.19,288.264 1891.64,287.804 1893.08,287.346 1894.53,286.891 1895.97,286.437 
  1897.41,285.986 1898.86,285.537 1900.3,285.09 1901.75,284.646 1903.19,284.203 1904.63,283.763 1906.08,283.325 1907.52,282.89 1908.97,282.456 1910.41,282.024 
  1911.85,281.595 1913.3,281.168 1914.74,280.743 1916.19,280.32 1917.63,279.9 1919.07,279.481 1920.52,279.065 1921.96,278.65 1923.4,278.238 1924.85,277.828 
  1926.29,277.42 1927.74,223.293 1929.18,223.564 1930.62,223.845 1932.07,224.136 1933.51,224.437 1934.96,224.75 1936.4,225.074 1937.84,225.409 1939.29,225.757 
  1940.73,226.116 1942.18,226.488 1943.62,226.873 1945.06,227.272 1946.51,227.684 1947.95,228.11 1949.4,228.551 1950.84,229.006 1952.28,229.477 1953.73,229.963 
  1955.17,230.465 1956.62,230.984 1958.06,231.52 1959.5,232.073 1960.95,232.644 1962.39,233.233 1963.84,233.84 1965.28,234.467 1966.72,235.113 1968.17,235.78 
  1969.61,236.467 1971.05,237.174 1972.5,237.904 1973.94,238.655 1975.39,239.428 1976.83,240.225 1978.27,241.045 1979.72,241.889 1981.16,242.757 1982.61,243.651 
  1984.05,244.569 1985.49,245.514 1986.94,246.485 1988.38,247.483 1989.83,248.509 1991.27,249.563 1992.71,250.645 1994.16,251.757 1995.6,252.898 1997.05,254.069 
  1998.49,255.271 1999.93,256.504 2001.38,257.769 2002.82,259.067 2004.27,260.397 2005.71,261.76 2007.15,263.157 2008.6,264.589 2010.04,266.055 2011.48,267.557 
  2012.93,269.095 2014.37,234.389 2015.82,235.466 2017.26,236.599 2018.7,237.789 2020.15,239.039 2021.59,240.352 2023.04,241.729 2024.48,243.173 2025.92,244.685 
  2027.37,246.269 2028.81,247.927 2030.26,249.661 2031.7,251.473 2033.14,253.365 2034.59,255.342 2036.03,257.403 2037.48,259.553 2038.92,261.792 2040.36,264.125 
  2041.81,266.552 2043.25,269.077 2044.7,271.701 2046.14,274.427 2047.58,277.257 2049.03,280.193 2050.47,283.237 2051.92,286.392 2053.36,289.658 2054.8,293.039 
  2056.25,296.535 2057.69,300.149 2059.13,303.882 2060.58,307.735 2062.02,311.711 2063.47,315.809 2064.91,320.033 2066.35,324.382 2067.8,328.857 2069.24,333.46 
  2070.69,338.191 2072.13,343.05 2073.57,348.038 2075.02,353.155 2076.46,358.402 2077.91,363.777 2079.35,369.282 2080.79,374.915 2082.24,380.676 2083.68,386.564 
  2085.13,392.578 2086.57,398.718 2088.01,404.981 2089.46,411.368 2090.9,417.875 2092.35,424.501 2093.79,431.244 2095.23,438.103 2096.68,445.075 2098.12,452.157 
  2099.56,459.347 2101.01,238.078 2102.45,242.369 2103.9,247.36 2105.34,253.128 2106.78,259.755 2108.23,267.318 2109.67,275.895 2111.12,285.56 2112.56,296.382 
  2114,308.42 2115.45,321.726 2116.89,336.338 2118.34,352.282 2119.78,369.567 2121.22,388.187 2122.67,408.117 2124.11,429.313 2125.56,451.716 2127,475.244 
  2128.44,499.802 2129.89,525.278 2131.33,551.544 2132.78,578.462 2134.22,605.885 2135.66,633.656 2137.11,661.618 2138.55,689.609 2139.99,717.47 2141.44,745.046 
  2142.88,772.188 2144.33,798.757 2145.77,824.624 2147.21,849.67 2148.66,873.794 2150.1,896.906 2151.55,918.932 2152.99,939.815 2154.43,959.509 2155.88,977.988 
  2157.32,995.236 2158.77,1011.25 2160.21,1026.05 2161.65,1039.65 2163.1,1052.08 2164.54,1063.39 2165.99,1073.62 2167.43,1082.83 2168.87,1091.08 2170.32,1098.43 
  2171.76,1104.93 2173.21,1110.67 2174.65,1115.69 2176.09,1120.07 2177.54,1123.87 2178.98,1127.14 2180.43,1129.94 2181.87,1132.33 2183.31,1134.35 2184.76,1136.06 
  2186.2,1137.49 2187.64,242.576 2189.09,246.967 2190.53,251.961 2191.98,257.613 2193.42,263.978 2194.86,271.111 2196.31,279.066 2197.75,287.894 2199.2,297.641 
  2200.64,308.35 2202.08,320.057 2203.53,332.791 2204.97,346.573 2206.42,361.414 2207.86,377.316 2209.3,394.27 2210.75,412.255 2212.19,431.24 2213.64,451.182 
  2215.08,472.025 2216.52,493.704 2217.97,516.144 2219.41,539.258 2220.86,562.954 2222.3,587.13 2223.74,611.681 2225.19,636.495 2226.63,661.461 2228.07,686.463 
  2229.52,711.388 2230.96,736.126 2232.41,760.566 2233.85,784.607 2235.29,808.152 2236.74,831.109 2238.18,853.397 2239.63,874.943 2241.07,895.682 2242.51,915.56 
  2243.96,934.531 2245.4,952.561 2246.85,969.625 2248.29,985.705 2249.73,1000.8 2251.18,1014.9 2252.62,1028.02 2254.07,1040.18 2255.51,1051.4 2256.95,1061.71 
  2258.4,1071.14 2259.84,1079.73 2261.29,1087.52 2262.73,1094.55 2264.17,1100.88 2265.62,1106.54 2267.06,1111.58 2268.5,1116.06 2269.95,1120.01 2271.39,1123.48 
  2272.84,1126.52 2274.28,246.784 2275.72,250.228 2277.17,253.992 2278.61,258.096 2280.06,262.561 2281.5,267.406 2282.94,272.65 2284.39,278.314 2285.83,284.414 
  2287.28,290.969 2288.72,297.996 2290.16,305.509 2291.61,313.522 2293.05,322.048 2294.5,331.096 2295.94,340.674 2297.38,350.789 2298.83,361.443 2300.27,372.637 
  2301.72,384.37 2303.16,396.635 2304.6,409.427 2306.05,422.732 2307.49,436.539 2308.94,450.83 2310.38,465.586 2311.82,480.783 2313.27,496.398 2314.71,512.4 
  2316.15,528.761 2317.6,545.447 2319.04,562.424 2320.49,579.655 2321.93,597.102 2323.37,614.724 2324.82,632.483 2326.26,650.335 2327.71,668.241 2329.15,686.156 
  2330.59,704.041 2332.04,721.853 2333.48,739.552 2334.93,757.098 2336.37,774.453 2337.81,791.58 2339.26,808.443 2340.7,825.009 2342.15,841.247 2343.59,857.128 
  2345.03,872.625 2346.48,887.712 2347.92,902.37 2349.37,916.577 2350.81,930.319 2352.25,943.579 2353.7,956.348 2355.14,968.615 2356.58,980.375 2358.03,991.624 
  2359.47,1002.36 2360.92,250.89 2362.36,253.258 2363.8,255.76 2365.25,258.402 2366.69,261.188 2368.14,264.124 2369.58,267.215 2371.02,270.466 2372.47,273.882 
  2373.91,277.467 2375.36,281.228 2376.8,285.168 2378.24,289.293 2379.69,293.606 2381.13,298.112 2382.58,302.815 2384.02,307.719 2385.46,312.827 2386.91,318.143 
  2388.35,323.671 2389.8,329.412 2391.24,335.368 2392.68,341.543 2394.13,347.938 2395.57,354.554 2397.01,361.392 2398.46,368.452 2399.9,375.735 2401.35,383.239 
  2402.79,390.965 2404.23,398.91 2405.68,407.072 2407.12,415.451 2408.57,424.041 2410.01,432.841 2411.45,441.845 2412.9,451.05 2414.34,460.451 2415.79,470.042 
  2417.23,479.818 2418.67,489.772 2420.12,499.896 2421.56,510.185 2423.01,520.629 2424.45,531.221 2425.89,541.953 2427.34,552.814 2428.78,563.797 2430.23,574.89 
  2431.67,586.085 2433.11,597.37 2434.56,608.736 2436,620.171 2437.45,631.665 2438.89,643.207 2440.33,654.784 2441.78,666.387 2443.22,678.003 2444.66,689.622 
  2446.11,701.231 2447.55,298.94 2449,303.697 2450.44,308.657 2451.88,313.824 2453.33,319.202 2454.77,324.793 2456.22,330.6 2457.66,336.625 2459.1,342.87 
  2460.55,349.338 2461.99,356.029 2463.44,362.944 2464.88,370.083 2466.32,377.447 2467.77,385.034 2469.21,392.844 2470.66,400.876 2472.1,409.126 2473.54,417.593 
  2474.99,426.274 2476.43,435.164 2477.88,444.26 2479.32,453.558 2480.76,463.051 2482.21,472.736 2483.65,482.604 2485.09,492.65 2486.54,502.867 2487.98,513.247 
  2489.43,523.782 2490.87,534.463 2492.31,545.282 2493.76,556.23 2495.2,567.297 2496.65,578.473 2498.09,589.747 2499.53,601.11 2500.98,612.55 2502.42,624.058 
  2503.87,635.62 2505.31,647.227 2506.75,658.866 2508.2,670.527 2509.64,682.197 2511.09,693.866 2512.53,705.521 2513.97,717.151 2515.42,728.745 2516.86,740.292 
  2518.31,751.779 2519.75,763.197 2521.19,774.535 2522.64,785.782 2524.08,796.928 2525.53,807.963 2526.97,818.877 2528.41,829.662 2529.86,840.308 2531.3,850.806 
  2532.74,861.149 2534.19,330.983 2535.63,338.902 2537.08,347.197 2538.52,355.872 2539.96,364.929 2541.41,374.368 2542.85,384.188 2544.3,394.389 2545.74,404.966 
  2547.18,415.915 2548.63,427.229 2550.07,438.9 2551.52,450.92 2552.96,463.277 2554.4,475.958 2555.85,488.951 2557.29,502.24 2558.74,515.808 2560.18,529.638 
  2561.62,543.71 2563.07,558.004 2564.51,572.499 2565.96,587.173 2567.4,602.002 2568.84,616.963 2570.29,632.031 2571.73,647.181 2573.17,662.389 2574.62,677.627 
  2576.06,692.871 2577.51,708.095 2578.95,723.274 2580.39,738.381 2581.84,753.392 2583.28,768.283 2584.73,783.03 2586.17,797.61 2587.61,812 2589.06,826.18 
  2590.5,840.129 2591.95,853.828 2593.39,867.259 2594.83,880.405 2596.28,893.251 2597.72,905.782 2599.17,917.986 2600.61,929.851 2602.05,941.368 2603.5,952.528 
  2604.94,963.323 2606.39,973.747 2607.83,983.797 2609.27,993.47 2610.72,1002.76 2612.16,1011.68 2613.6,1020.21 2615.05,1028.37 2616.49,1036.15 2617.94,1043.56 
  2619.38,1050.61 2620.82,346.003 2622.27,355.266 2623.71,364.97 2625.16,375.118 2626.6,385.71 2628.04,396.743 2629.49,408.212 2630.93,420.113 2632.38,432.436 
  2633.82,445.172 2635.26,458.309 2636.71,471.833 2638.15,485.727 2639.6,499.973 2641.04,514.551 2642.48,529.44 2643.93,544.616 2645.37,560.054 2646.82,575.727 
  2648.26,591.608 2649.7,607.668 2651.15,623.876 2652.59,640.201 2654.04,656.612 2655.48,673.077 2656.92,689.564 2658.37,706.039 2659.81,722.471 2661.25,738.827 
  2662.7,755.076 2664.14,771.187 2665.59,787.129 2667.03,802.874 2668.47,818.392 2669.92,833.658 2671.36,848.646 2672.81,863.332 2674.25,877.693 2675.69,891.709 
  2677.14,905.361 2678.58,918.633 2680.03,931.508 2681.47,943.974 2682.91,956.02 2684.36,967.636 2685.8,978.815 2687.25,989.552 2688.69,999.842 2690.13,1009.69 
  2691.58,1019.08 2693.02,1028.03 2694.47,1036.53 2695.91,1044.6 2697.35,1052.24 2698.8,1059.45 2700.24,1066.24 2701.68,1072.63 2703.13,1078.63 2704.57,1084.24 
  2706.02,1089.48 2707.46,706.945 2708.9,726.2 2710.35,745.347 2711.79,764.335 2713.24,783.115 2714.68,801.638 2716.12,819.859 2717.57,837.734 2719.01,855.221 
  2720.46,872.284 2721.9,888.886 2723.34,904.996 2724.79,920.585 2726.23,935.628 2727.68,950.105 2729.12,963.997 2730.56,977.291 2732.01,989.976 2733.45,1002.05 
  2734.9,1013.5 2736.34,1024.33 2737.78,1034.55 2739.23,1044.16 2740.67,1053.17 2742.11,1061.59 2743.56,1069.44 2745,1076.73 2746.45,1083.49 2747.89,1089.72 
  2749.33,1095.45 2750.78,1100.72 2752.22,1105.52 2753.67,1109.9 2755.11,1113.88 2756.55,1117.48 2758,1120.72 2759.44,1123.63 2760.89,1126.24 2762.33,1128.56 
  2763.77,1130.62 2765.22,1132.45 2766.66,1134.05 2768.11,1135.46 2769.55,1136.7 2770.99,1137.77 2772.44,1138.7 2773.88,1139.5 2775.33,1140.19 2776.77,1140.77 
  2778.21,1141.27 2779.66,1141.7 2781.1,1142.05 2782.55,1142.35 2783.99,1142.6 2785.43,1142.81 2786.88,1142.98 2788.32,1143.12 2789.76,1143.23 2791.21,1143.33 
  
  "/>
<polyline clip-path="url(#clip1102)" style="stroke:#e26f46; stroke-width:4; stroke-opacity:1; fill:none" points="
  713.389,216.783 714.833,216.783 716.277,216.783 717.721,216.783 719.165,216.783 720.609,216.783 722.053,216.783 723.497,216.783 724.941,216.783 726.384,216.783 
  727.828,216.783 729.272,216.783 730.716,216.783 732.16,216.783 733.604,216.783 735.048,216.783 736.492,216.783 737.936,216.783 739.38,216.783 740.824,216.783 
  742.268,216.783 743.712,216.783 745.156,216.783 746.6,216.783 748.043,216.783 749.487,216.783 750.931,216.783 752.375,216.783 753.819,216.783 755.263,216.783 
  756.707,216.783 758.151,216.783 759.595,216.783 761.039,216.783 762.483,216.783 763.927,216.783 765.371,216.783 766.815,216.783 768.259,216.783 769.702,216.783 
  771.146,216.783 772.59,216.783 774.034,216.783 775.478,216.783 776.922,216.783 778.366,216.783 779.81,216.783 781.254,216.783 782.698,216.783 784.142,216.783 
  785.586,216.783 787.03,216.783 788.474,216.783 789.918,216.783 791.361,216.783 792.805,216.783 794.249,216.783 795.693,216.783 797.137,216.783 798.581,216.783 
  800.025,216.783 801.469,216.783 802.913,216.783 804.357,216.783 805.801,216.783 807.245,216.783 808.689,216.783 810.133,216.783 811.577,216.784 813.02,216.784 
  814.464,216.784 815.908,216.785 817.352,216.786 818.796,216.787 820.24,216.788 821.684,216.789 823.128,216.791 824.572,216.793 826.016,216.795 827.46,216.798 
  828.904,216.801 830.348,216.804 831.792,216.808 833.236,216.813 834.679,216.818 836.123,216.824 837.567,216.83 839.011,216.838 840.455,216.846 841.899,216.856 
  843.343,216.867 844.787,216.879 846.231,216.893 847.675,216.909 849.119,216.927 850.563,216.947 852.007,216.97 853.451,216.995 854.895,217.024 856.338,217.057 
  857.782,217.093 859.226,217.134 860.67,217.181 862.114,217.233 863.558,217.291 865.002,217.357 866.446,217.43 867.89,217.513 869.334,217.606 870.778,217.71 
  872.222,217.827 873.666,217.958 875.11,218.104 876.554,218.268 877.997,218.452 879.441,218.657 880.885,218.886 882.329,219.142 883.773,219.428 885.217,219.747 
  886.661,220.103 888.105,220.261 889.549,220.454 890.993,220.671 892.437,220.905 893.881,221.154 895.325,221.413 896.769,221.684 898.213,221.963 899.656,222.252 
  901.1,222.55 902.544,222.857 903.988,223.174 905.432,223.5 906.876,223.836 908.32,224.183 909.764,224.542 911.208,224.912 912.652,225.294 914.096,225.69 
  915.54,226.099 916.984,226.522 918.428,226.961 919.871,227.415 921.315,227.886 922.759,228.374 924.203,228.88 925.647,229.404 927.091,229.949 928.535,230.513 
  929.979,231.099 931.423,231.707 932.867,232.337 934.311,232.992 935.755,233.671 937.199,234.376 938.643,235.107 940.087,235.866 941.53,236.653 942.974,237.47 
  944.418,238.318 945.862,239.197 947.306,240.108 948.75,241.054 950.194,242.035 951.638,243.052 953.082,244.106 954.526,245.199 955.97,246.332 957.414,247.506 
  958.858,248.722 960.302,249.983 961.746,251.288 963.189,252.64 964.633,254.041 966.077,255.49 967.521,256.991 968.965,258.545 970.409,260.153 971.853,261.816 
  973.297,263.537 974.741,231.514 976.185,230.552 977.629,229.898 979.073,229.446 980.517,229.144 981.961,228.955 983.405,228.855 984.848,228.825 986.292,228.851 
  987.736,228.924 989.18,229.037 990.624,229.184 992.068,229.36 993.512,229.562 994.956,229.787 996.4,230.034 997.844,230.301 999.288,230.586 1000.73,230.888 
  1002.18,231.207 1003.62,231.542 1005.06,231.892 1006.51,232.257 1007.95,232.636 1009.4,233.03 1010.84,233.438 1012.28,233.86 1013.73,234.296 1015.17,234.747 
  1016.62,235.211 1018.06,235.689 1019.5,236.181 1020.95,236.688 1022.39,237.209 1023.83,237.745 1025.28,238.296 1026.72,238.861 1028.17,239.442 1029.61,240.039 
  1031.05,240.651 1032.5,241.28 1033.94,241.924 1035.39,242.586 1036.83,243.264 1038.27,243.96 1039.72,244.674 1041.16,245.405 1042.61,246.155 1044.05,246.924 
  1045.49,247.712 1046.94,248.52 1048.38,249.347 1049.83,250.195 1051.27,251.064 1052.71,251.953 1054.16,252.865 1055.6,253.799 1057.05,254.755 1058.49,255.735 
  1059.93,256.738 1061.38,269.862 1062.82,281.414 1064.26,291.38 1065.71,299.855 1067.15,306.956 1068.6,312.809 1070.04,317.542 1071.48,321.28 1072.93,324.142 
  1074.37,326.242 1075.82,327.679 1077.26,328.547 1078.7,328.928 1080.15,328.894 1081.59,328.508 1083.04,327.827 1084.48,326.899 1085.92,325.765 1087.37,324.461 
  1088.81,323.019 1090.26,321.464 1091.7,319.819 1093.14,318.104 1094.59,316.334 1096.03,314.524 1097.48,312.686 1098.92,310.829 1100.36,308.962 1101.81,307.093 
  1103.25,305.226 1104.69,303.367 1106.14,301.521 1107.58,299.691 1109.03,297.879 1110.47,296.089 1111.91,294.321 1113.36,292.578 1114.8,290.861 1116.25,289.171 
  1117.69,287.508 1119.13,285.874 1120.58,284.268 1122.02,282.691 1123.47,281.144 1124.91,279.625 1126.35,278.136 1127.8,276.676 1129.24,275.244 1130.69,273.842 
  1132.13,272.468 1133.57,271.122 1135.02,269.804 1136.46,268.513 1137.91,267.25 1139.35,266.014 1140.79,264.804 1142.24,263.62 1143.68,262.462 1145.13,261.329 
  1146.57,260.221 1148.01,309.019 1149.46,300.297 1150.9,291.627 1152.34,283.317 1153.79,275.477 1155.23,268.173 1156.68,261.451 1158.12,255.335 1159.56,249.835 
  1161.01,244.94 1162.45,240.627 1163.9,236.86 1165.34,233.599 1166.78,230.797 1168.23,228.407 1169.67,226.382 1171.12,224.677 1172.56,223.248 1174,222.059 
  1175.45,221.074 1176.89,220.261 1178.34,219.593 1179.78,219.047 1181.22,218.602 1182.67,218.24 1184.11,217.948 1185.56,217.712 1187,217.522 1188.44,217.37 
  1189.89,217.248 1191.33,217.151 1192.77,217.073 1194.22,217.012 1195.66,216.963 1197.11,216.924 1198.55,216.894 1199.99,216.87 1201.44,216.851 1202.88,216.836 
  1204.33,216.825 1205.77,216.815 1207.21,216.808 1208.66,216.803 1210.1,216.798 1211.55,216.795 1212.99,216.792 1214.43,216.79 1215.88,216.789 1217.32,216.787 
  1218.77,216.786 1220.21,216.786 1221.65,216.785 1223.1,216.785 1224.54,216.784 1225.99,216.784 1227.43,216.784 1228.87,216.784 1230.32,216.783 1231.76,216.783 
  1233.2,216.783 1234.65,941.928 1236.09,1030.47 1237.54,1076.52 1238.98,1100.34 1240.42,1112.71 1241.87,1119 1243.31,1121.82 1244.76,1122.44 1246.2,1121.47 
  1247.64,1119.13 1249.09,1115.5 1250.53,1110.53 1251.98,1104.13 1253.42,1096.18 1254.86,1086.53 1256.31,1075.07 1257.75,1061.67 1259.2,1046.25 1260.64,1028.73 
  1262.08,1009.09 1263.53,987.338 1264.97,963.505 1266.42,937.678 1267.86,909.978 1269.3,880.565 1270.75,849.632 1272.19,817.402 1273.64,784.126 1275.08,750.076 
  1276.52,715.535 1277.97,680.799 1279.41,646.163 1280.85,611.915 1282.3,578.334 1283.74,545.68 1285.19,514.191 1286.63,484.075 1288.07,455.511 1289.52,428.642 
  1290.96,403.579 1292.41,380.393 1293.85,359.123 1295.29,339.775 1296.74,322.322 1298.18,306.712 1299.63,292.869 1301.07,280.696 1302.51,270.084 1303.96,260.911 
  1305.4,253.05 1306.85,246.371 1308.29,240.744 1309.73,236.045 1311.18,232.153 1312.62,228.957 1314.07,226.355 1315.51,224.255 1316.95,222.573 1318.4,221.237 
  1319.84,220.186 1321.28,1143.67 1322.73,1143.67 1324.17,1143.67 1325.62,1143.67 1327.06,1143.67 1328.5,1143.67 1329.95,1143.67 1331.39,1143.67 1332.84,1143.67 
  1334.28,1143.67 1335.72,1143.67 1337.17,1143.67 1338.61,1143.67 1340.06,1143.67 1341.5,1143.67 1342.94,1143.67 1344.39,1143.67 1345.83,1143.67 1347.28,1143.67 
  1348.72,1143.67 1350.16,1143.67 1351.61,1143.67 1353.05,1143.67 1354.5,1143.67 1355.94,1143.67 1357.38,1143.67 1358.83,1143.66 1360.27,1143.66 1361.72,1143.66 
  1363.16,1143.65 1364.6,1143.64 1366.05,1143.62 1367.49,1143.6 1368.93,1143.57 1370.38,1143.52 1371.82,1143.46 1373.27,1143.38 1374.71,1143.28 1376.15,1143.13 
  1377.6,1142.95 1379.04,1142.71 1380.49,1142.4 1381.93,1142 1383.37,1141.49 1384.82,1140.86 1386.26,1140.07 1387.71,1139.09 1389.15,1137.88 1390.59,1136.42 
  1392.04,1134.65 1393.48,1132.52 1394.93,1129.99 1396.37,1127 1397.81,1123.48 1399.26,1119.37 1400.7,1114.61 1402.15,1109.12 1403.59,1102.85 1405.03,1095.71 
  1406.48,1087.66 1407.92,1143.67 1409.36,1143.67 1410.81,1143.67 1412.25,1143.67 1413.7,1143.67 1415.14,1143.67 1416.58,1143.67 1418.03,1143.67 1419.47,1143.67 
  1420.92,1143.67 1422.36,1143.67 1423.8,1143.67 1425.25,1143.67 1426.69,1143.67 1428.14,1143.67 1429.58,1143.67 1431.02,1143.67 1432.47,1143.67 1433.91,1143.67 
  1435.36,1143.67 1436.8,1143.67 1438.24,1143.67 1439.69,1143.67 1441.13,1143.66 1442.58,1143.64 1444.02,1143.61 1445.46,1143.55 1446.91,1143.42 1448.35,1143.17 
  1449.79,1142.73 1451.24,1141.97 1452.68,1140.7 1454.13,1138.64 1455.57,1135.45 1457.01,1130.65 1458.46,1123.69 1459.9,1113.88 1461.35,1100.53 1462.79,1082.88 
  1464.23,1060.27 1465.68,1032.12 1467.12,998.082 1468.57,958.063 1470.01,912.294 1471.45,861.35 1472.9,806.14 1474.34,747.864 1475.79,687.935 1477.23,627.882 
  1478.67,569.237 1480.12,513.422 1481.56,461.655 1483.01,414.872 1484.45,373.685 1485.89,338.37 1487.34,308.89 1488.78,284.939 1490.23,266.01 1491.67,251.463 
  1493.11,240.597 1494.56,1109.73 1496,1109.54 1497.44,1107.08 1498.89,1102.62 1500.33,1096.24 1501.78,1087.98 1503.22,1077.82 1504.66,1065.74 1506.11,1051.71 
  1507.55,1035.67 1509,1017.62 1510.44,997.534 1511.88,975.422 1513.33,951.323 1514.77,925.304 1516.22,897.465 1517.66,867.946 1519.1,836.916 1520.55,804.583 
  1521.99,771.182 1523.44,736.974 1524.88,702.241 1526.32,667.28 1527.77,632.393 1529.21,597.883 1530.66,564.045 1532.1,531.157 1533.54,499.476 1534.99,469.233 
  1536.43,440.622 1537.87,413.802 1539.32,388.895 1540.76,365.979 1542.21,345.094 1543.65,326.243 1545.09,309.392 1546.54,294.476 1547.98,281.404 1549.43,270.062 
  1550.87,260.321 1552.31,252.041 1553.76,245.074 1555.2,239.274 1556.65,234.495 1558.09,230.6 1559.53,227.459 1560.98,224.952 1562.42,222.973 1563.87,221.429 
  1565.31,220.235 1566.75,219.323 1568.2,218.634 1569.64,218.118 1571.09,217.737 1572.53,217.458 1573.97,217.256 1575.42,217.111 1576.86,217.008 1578.3,216.936 
  1579.75,216.886 1581.19,217.583 1582.64,217.667 1584.08,217.748 1585.52,217.824 1586.97,217.896 1588.41,217.964 1589.86,218.03 1591.3,218.093 1592.74,218.155 
  1594.19,218.215 1595.63,218.274 1597.08,218.332 1598.52,218.389 1599.96,218.446 1601.41,218.504 1602.85,218.561 1604.3,218.619 1605.74,218.677 1607.18,218.735 
  1608.63,218.795 1610.07,218.855 1611.52,218.916 1612.96,218.978 1614.4,219.041 1615.85,219.105 1617.29,219.17 1618.74,219.237 1620.18,219.305 1621.62,219.374 
  1623.07,219.445 1624.51,219.517 1625.95,219.591 1627.4,219.666 1628.84,219.744 1630.29,219.822 1631.73,219.903 1633.17,219.985 1634.62,220.069 1636.06,220.155 
  1637.51,220.243 1638.95,220.333 1640.39,220.425 1641.84,220.519 1643.28,220.615 1644.73,220.714 1646.17,220.814 1647.61,220.917 1649.06,221.022 1650.5,221.13 
  1651.95,221.24 1653.39,221.352 1654.83,221.467 1656.28,221.585 1657.72,221.705 1659.17,221.827 1660.61,221.953 1662.05,222.081 1663.5,222.212 1664.94,222.346 
  1666.38,222.483 1667.83,220.41 1669.27,220.777 1670.72,221.138 1672.16,221.502 1673.6,221.875 1675.05,222.258 1676.49,222.655 1677.94,223.067 1679.38,223.496 
  1680.82,223.943 1682.27,224.409 1683.71,224.895 1685.16,225.403 1686.6,225.934 1688.04,226.488 1689.49,227.068 1690.93,227.675 1692.38,228.309 1693.82,228.971 
  1695.26,229.664 1696.71,230.389 1698.15,231.146 1699.6,231.937 1701.04,232.763 1702.48,233.626 1703.93,234.527 1705.37,235.468 1706.82,236.449 1708.26,237.473 
  1709.7,238.54 1711.15,239.652 1712.59,240.811 1714.03,242.018 1715.48,243.275 1716.92,244.583 1718.37,245.943 1719.81,247.358 1721.25,248.829 1722.7,250.356 
  1724.14,251.943 1725.59,253.59 1727.03,255.298 1728.47,257.071 1729.92,258.908 1731.36,260.812 1732.81,262.784 1734.25,264.825 1735.69,266.938 1737.14,269.123 
  1738.58,271.382 1740.03,273.717 1741.47,276.129 1742.91,278.619 1744.36,281.189 1745.8,283.841 1747.25,286.574 1748.69,289.391 1750.13,292.293 1751.58,295.281 
  1753.02,298.356 1754.46,260.435 1755.91,263.594 1757.35,266.629 1758.8,269.662 1760.24,272.755 1761.68,275.947 1763.13,279.26 1764.57,282.713 1766.02,286.315 
  1767.46,290.075 1768.9,294.001 1770.35,298.097 1771.79,302.368 1773.24,306.816 1774.68,311.445 1776.12,316.258 1777.57,321.257 1779.01,326.442 1780.46,331.817 
  1781.9,337.381 1783.34,343.136 1784.79,349.082 1786.23,355.219 1787.68,361.547 1789.12,368.065 1790.56,374.773 1792.01,381.67 1793.45,388.754 1794.89,396.023 
  1796.34,403.474 1797.78,411.106 1799.23,418.916 1800.67,426.9 1802.11,435.054 1803.56,443.375 1805,451.858 1806.45,460.499 1807.89,469.292 1809.33,478.233 
  1810.78,487.315 1812.22,496.533 1813.67,505.881 1815.11,515.351 1816.55,524.938 1818,534.633 1819.44,544.431 1820.89,554.323 1822.33,564.301 1823.77,574.359 
  1825.22,584.487 1826.66,594.678 1828.11,604.923 1829.55,615.215 1830.99,625.544 1832.44,635.903 1833.88,646.282 1835.33,656.674 1836.77,667.07 1838.21,677.461 
  1839.66,687.84 1841.1,512.036 1842.54,470.895 1843.99,439 1845.43,414.081 1846.88,394.405 1848.32,378.688 1849.76,365.986 1851.21,355.607 1852.65,347.04 
  1854.1,339.899 1855.54,333.896 1856.98,328.809 1858.43,324.464 1859.87,320.728 1861.32,317.494 1862.76,314.677 1864.2,312.207 1865.65,310.028 1867.09,308.096 
  1868.54,306.371 1869.98,304.822 1871.42,303.424 1872.87,302.154 1874.31,300.993 1875.76,299.927 1877.2,298.942 1878.64,298.027 1880.09,297.172 1881.53,296.369 
  1882.97,295.611 1884.42,294.892 1885.86,294.208 1887.31,293.553 1888.75,292.924 1890.19,292.317 1891.64,291.731 1893.08,291.161 1894.53,290.608 1895.97,290.067 
  1897.41,289.539 1898.86,289.022 1900.3,288.514 1901.75,288.014 1903.19,287.523 1904.63,287.038 1906.08,286.559 1907.52,286.087 1908.97,285.619 1910.41,285.157 
  1911.85,284.699 1913.3,284.245 1914.74,283.795 1916.19,283.348 1917.63,282.905 1919.07,282.465 1920.52,282.029 1921.96,281.595 1923.4,281.165 1924.85,280.737 
  1926.29,280.311 1927.74,260.824 1929.18,251.801 1930.62,245.53 1932.07,241.066 1933.51,237.821 1934.96,235.42 1936.4,233.619 1937.84,232.257 1939.29,231.221 
  1940.73,230.436 1942.18,229.845 1943.62,229.409 1945.06,229.099 1946.51,228.891 1947.95,228.77 1949.4,228.722 1950.84,228.738 1952.28,228.81 1953.73,228.93 
  1955.17,229.096 1956.62,229.301 1958.06,229.544 1959.5,229.821 1960.95,230.13 1962.39,230.47 1963.84,230.84 1965.28,231.237 1966.72,231.661 1968.17,232.112 
  1969.61,232.589 1971.05,233.09 1972.5,233.617 1973.94,234.168 1975.39,234.744 1976.83,235.345 1978.27,235.97 1979.72,236.619 1981.16,237.293 1982.61,237.992 
  1984.05,238.715 1985.49,239.464 1986.94,240.238 1988.38,241.037 1989.83,241.863 1991.27,242.715 1992.71,243.593 1994.16,244.499 1995.6,245.432 1997.05,246.393 
  1998.49,247.382 1999.93,248.4 2001.38,249.447 2002.82,250.523 2004.27,251.63 2005.71,252.767 2007.15,253.935 2008.6,255.135 2010.04,256.366 2011.48,257.63 
  2012.93,258.928 2014.37,224.726 2015.82,226.012 2017.26,227.178 2018.7,228.295 2020.15,229.398 2021.59,230.507 2023.04,231.637 2024.48,232.796 2025.92,233.992 
  2027.37,235.229 2028.81,236.513 2030.26,237.847 2031.7,239.235 2033.14,240.681 2034.59,242.188 2036.03,243.759 2037.48,245.396 2038.92,247.104 2040.36,248.884 
  2041.81,250.74 2043.25,252.675 2044.7,254.691 2046.14,256.791 2047.58,258.978 2049.03,261.255 2050.47,263.623 2051.92,266.087 2053.36,268.649 2054.8,271.311 
  2056.25,274.075 2057.69,276.945 2059.13,279.922 2060.58,283.01 2062.02,286.21 2063.47,289.524 2064.91,292.955 2066.35,296.505 2067.8,300.175 2069.24,303.968 
  2070.69,307.885 2072.13,311.929 2073.57,316.099 2075.02,320.399 2076.46,324.828 2077.91,329.389 2079.35,334.082 2080.79,338.908 2082.24,343.868 2083.68,348.962 
  2085.13,354.191 2086.57,359.554 2088.01,365.052 2089.46,370.685 2090.9,376.452 2092.35,382.353 2093.79,388.388 2095.23,394.554 2096.68,400.851 2098.12,407.278 
  2099.56,413.834 2101.01,257.217 2102.45,255.412 2103.9,254.441 2105.34,254.282 2106.78,254.877 2108.23,256.185 2109.67,258.193 2111.12,260.906 2112.56,264.35 
  2114,268.565 2115.45,273.603 2116.89,279.528 2118.34,286.408 2119.78,294.319 2121.22,303.336 2122.67,313.536 2124.11,324.992 2125.56,337.769 2127,351.927 
  2128.44,367.509 2129.89,384.547 2131.33,403.053 2132.78,423.021 2134.22,444.422 2135.66,467.204 2137.11,491.293 2138.55,516.589 2139.99,542.971 2141.44,570.297 
  2142.88,598.405 2144.33,627.117 2145.77,656.244 2147.21,685.588 2148.66,714.946 2150.1,744.117 2151.55,772.904 2152.99,801.118 2154.43,828.585 2155.88,855.146 
  2157.32,880.66 2158.77,905.007 2160.21,928.092 2161.65,949.838 2163.1,970.195 2164.54,989.133 2165.99,1006.64 2167.43,1022.73 2168.87,1037.43 2170.32,1050.78 
  2171.76,1062.83 2173.21,1073.65 2174.65,1083.31 2176.09,1091.89 2177.54,1099.45 2178.98,1106.1 2180.43,1111.9 2181.87,1116.94 2183.31,1121.29 2184.76,1125.03 
  2186.2,1128.22 2187.64,262.43 2189.09,262.803 2190.53,263.027 2191.98,263.488 2193.42,264.359 2194.86,265.731 2196.31,267.656 2197.75,270.174 2199.2,273.322 
  2200.64,277.138 2202.08,281.665 2203.53,286.948 2204.97,293.037 2206.42,299.983 2207.86,307.838 2209.3,316.656 2210.75,326.486 2212.19,337.375 2213.64,349.365 
  2215.08,362.491 2216.52,376.777 2217.97,392.24 2219.41,408.883 2220.86,426.697 2222.3,445.658 2223.74,465.728 2225.19,486.855 2226.63,508.971 2228.07,531.994 
  2229.52,555.827 2230.96,580.363 2232.41,605.481 2233.85,631.054 2235.29,656.945 2236.74,683.014 2238.18,709.117 2239.63,735.112 2241.07,760.858 2242.51,786.22 
  2243.96,811.069 2245.4,835.286 2246.85,858.762 2248.29,881.401 2249.73,903.118 2251.18,923.845 2252.62,943.527 2254.07,962.121 2255.51,979.601 2256.95,995.953 
  2258.4,1011.18 2259.84,1025.28 2261.29,1038.28 2262.73,1050.22 2264.17,1061.12 2265.62,1071.03 2267.06,1080 2268.5,1088.08 2269.95,1095.33 2271.39,1101.8 
  2272.84,1107.55 2274.28,270.361 2275.72,270.09 2277.17,269.552 2278.61,269.163 2280.06,269.1 2281.5,269.439 2282.94,270.213 2284.39,271.436 2285.83,273.115 
  2287.28,275.252 2288.72,277.854 2290.16,280.926 2291.61,284.479 2293.05,288.523 2294.5,293.071 2295.94,298.137 2297.38,303.735 2298.83,309.88 2300.27,316.587 
  2301.72,323.87 2303.16,331.74 2304.6,340.21 2306.05,349.289 2307.49,358.983 2308.94,369.298 2310.38,380.235 2311.82,391.792 2313.27,403.966 2314.71,416.748 
  2316.15,430.126 2317.6,444.086 2319.04,458.608 2320.49,473.67 2321.93,489.247 2323.37,505.307 2324.82,521.818 2326.26,538.744 2327.71,556.046 2329.15,573.682 
  2330.59,591.608 2332.04,609.776 2333.48,628.14 2334.93,646.65 2336.37,665.256 2337.81,683.907 2339.26,702.552 2340.7,721.141 2342.15,739.624 2343.59,757.954 
  2345.03,776.082 2346.48,793.964 2347.92,811.557 2349.37,828.82 2350.81,845.717 2352.25,862.212 2353.7,878.274 2355.14,893.874 2356.58,908.988 2358.03,923.594 
  2359.47,937.675 2360.92,425.359 2362.36,387.975 2363.8,360.899 2365.25,341.151 2366.69,326.626 2368.14,315.877 2369.58,307.91 2371.02,302.036 2372.47,297.771 
  2373.91,294.772 2375.36,292.791 2376.8,291.648 2378.24,291.21 2379.69,291.377 2381.13,292.074 2382.58,293.246 2384.02,294.847 2385.46,296.845 2386.91,299.214 
  2388.35,301.933 2389.8,304.988 2391.24,308.365 2392.68,312.055 2394.13,316.05 2395.57,320.344 2397.01,324.931 2398.46,329.807 2399.9,334.97 2401.35,340.415 
  2402.79,346.14 2404.23,352.142 2405.68,358.418 2407.12,364.966 2408.57,371.783 2410.01,378.866 2411.45,386.212 2412.9,393.817 2414.34,401.679 2415.79,409.792 
  2417.23,418.152 2418.67,426.756 2420.12,435.596 2421.56,444.668 2423.01,453.966 2424.45,463.484 2425.89,473.213 2427.34,483.148 2428.78,493.279 2430.23,503.599 
  2431.67,514.099 2433.11,524.77 2434.56,535.602 2436,546.585 2437.45,557.708 2438.89,568.962 2440.33,580.335 2441.78,591.816 2443.22,603.392 2444.66,615.052 
  2446.11,626.784 2447.55,279.221 2449,284.173 2450.44,288.306 2451.88,292.082 2453.33,295.741 2454.77,299.422 2456.22,303.21 2457.66,307.159 2459.1,311.304 
  2460.55,315.67 2461.99,320.273 2463.44,325.123 2464.88,330.228 2466.32,335.593 2467.77,341.221 2469.21,347.115 2470.66,353.275 2472.1,359.701 2473.54,366.393 
  2474.99,373.349 2476.43,380.568 2477.88,388.048 2479.32,395.785 2480.76,403.777 2482.21,412.02 2483.65,420.51 2485.09,429.242 2486.54,438.212 2487.98,447.412 
  2489.43,456.839 2490.87,466.484 2492.31,476.34 2493.76,486.401 2495.2,496.659 2496.65,507.103 2498.09,517.727 2499.53,528.52 2500.98,539.472 2502.42,550.573 
  2503.87,561.813 2505.31,573.18 2506.75,584.664 2508.2,596.252 2509.64,607.932 2511.09,619.693 2512.53,631.521 2513.97,643.405 2515.42,655.331 2516.86,667.287 
  2518.31,679.26 2519.75,691.236 2521.19,703.204 2522.64,715.15 2524.08,727.061 2525.53,738.925 2526.97,750.73 2528.41,762.462 2529.86,774.111 2531.3,785.664 
  2532.74,797.111 2534.19,308.071 2535.63,314.94 2537.08,320.764 2538.52,326.204 2539.96,331.606 2541.41,337.171 2542.85,343.02 2544.3,349.23 2545.74,355.85 
  2547.18,362.914 2548.63,370.44 2550.07,378.442 2551.52,386.926 2552.96,395.894 2554.4,405.344 2555.85,415.273 2557.29,425.674 2558.74,436.537 2560.18,447.851 
  2561.62,459.602 2563.07,471.776 2564.51,484.356 2565.96,497.323 2567.4,510.657 2568.84,524.335 2570.29,538.335 2571.73,552.633 2573.17,567.201 2574.62,582.013 
  2576.06,597.042 2577.51,612.257 2578.95,627.63 2580.39,643.13 2581.84,658.727 2583.28,674.389 2584.73,690.085 2586.17,705.785 2587.61,721.457 2589.06,737.07 
  2590.5,752.596 2591.95,768.004 2593.39,783.267 2594.83,798.356 2596.28,813.245 2597.72,827.909 2599.17,842.324 2600.61,856.469 2602.05,870.321 2603.5,883.862 
  2604.94,897.074 2606.39,909.941 2607.83,922.449 2609.27,934.585 2610.72,946.339 2612.16,957.703 2613.6,968.668 2615.05,979.23 2616.49,989.384 2617.94,999.129 
  2619.38,1008.46 2620.82,345.674 2622.27,350.727 2623.71,354.945 2625.16,359.048 2626.6,363.395 2628.04,368.178 2629.49,373.503 2630.93,379.429 2632.38,385.99 
  2633.82,393.2 2635.26,401.065 2636.71,409.583 2638.15,418.749 2639.6,428.551 2641.04,438.977 2642.48,450.011 2643.93,461.634 2645.37,473.825 2646.82,486.56 
  2648.26,499.815 2649.7,513.562 2651.15,527.772 2652.59,542.412 2654.04,557.449 2655.48,572.848 2656.92,588.572 2658.37,604.584 2659.81,620.843 2661.25,637.31 
  2662.7,653.944 2664.14,670.703 2665.59,687.545 2667.03,704.429 2668.47,721.313 2669.92,738.157 2671.36,754.918 2672.81,771.56 2674.25,788.042 2675.69,804.329 
  2677.14,820.385 2678.58,836.176 2680.03,851.673 2681.47,866.844 2682.91,881.663 2684.36,896.106 2685.8,910.15 2687.25,923.776 2688.69,936.966 2690.13,949.705 
  2691.58,961.982 2693.02,973.787 2694.47,985.112 2695.91,995.953 2697.35,1006.31 2698.8,1016.18 2700.24,1025.56 2701.68,1034.46 2703.13,1042.89 2704.57,1050.85 
  2706.02,1058.35 2707.46,628.347 2708.9,645.262 2710.35,661.312 2711.79,677.241 2713.24,693.342 2714.68,709.727 2716.12,726.421 2717.57,743.4 2719.01,760.613 
  2720.46,777.993 2721.9,795.466 2723.34,812.951 2724.79,830.369 2726.23,847.642 2727.68,864.695 2729.12,881.458 2730.56,897.865 2732.01,913.858 2733.45,929.384 
  2734.9,944.397 2736.34,958.859 2737.78,972.736 2739.23,986.004 2740.67,998.643 2742.11,1010.64 2743.56,1021.98 2745,1032.68 2746.45,1042.72 2747.89,1052.12 
  2749.33,1060.88 2750.78,1069.03 2752.22,1076.58 2753.67,1083.55 2755.11,1089.96 2756.55,1095.84 2758,1101.21 2759.44,1106.09 2760.89,1110.53 2762.33,1114.54 
  2763.77,1118.15 2765.22,1121.39 2766.66,1124.29 2768.11,1126.88 2769.55,1129.17 2770.99,1131.19 2772.44,1132.98 2773.88,1134.54 2775.33,1135.91 2776.77,1137.1 
  2778.21,1138.13 2779.66,1139.02 2781.1,1139.79 2782.55,1140.44 2783.99,1140.99 2785.43,1141.46 2786.88,1141.86 2788.32,1142.19 2789.76,1142.47 2791.21,1142.7 
  
  "/>
<polygon clip-path="url(#clip1100)" points="
747.054,979.479 1163.37,979.479 1163.37,798.039 747.054,798.039 
  " fill="#ffffff" fill-rule="evenodd" fill-opacity="1"/>
<polyline clip-path="url(#clip1100)" style="stroke:#000000; stroke-width:4; stroke-opacity:1; fill:none" points="
  747.054,979.479 1163.37,979.479 1163.37,798.039 747.054,798.039 747.054,979.479 
  "/>
<polyline clip-path="url(#clip1100)" style="stroke:#009af9; stroke-width:4; stroke-opacity:1; fill:none" points="
  779.054,858.519 971.054,858.519 
  "/>
<g clip-path="url(#clip1100)">
<text style="fill:#000000; fill-opacity:1; font-family:Arial,Helvetica Neue,Helvetica,sans-serif; font-size:48px; text-anchor:start;" transform="rotate(0, 1003.05, 876.019)" x="1003.05" y="876.019">PSA</text>
</g>
<polyline clip-path="url(#clip1100)" style="stroke:#e26f46; stroke-width:4; stroke-opacity:1; fill:none" points="
  779.054,918.999 971.054,918.999 
  "/>
<g clip-path="url(#clip1100)">
<text style="fill:#000000; fill-opacity:1; font-family:Arial,Helvetica Neue,Helvetica,sans-serif; font-size:48px; text-anchor:start;" transform="rotate(0, 1003.05, 936.499)" x="1003.05" y="936.499">NS</text>
</g>
</svg>
