<?xml version="1.0" encoding="utf-8"?>
<svg xmlns="http://www.w3.org/2000/svg" xmlns:xlink="http://www.w3.org/1999/xlink" width="1000" height="500" viewBox="0 0 4000 2000">
<defs>
  <clipPath id="clip9800">
    <rect x="0" y="0" width="4000" height="2000"/>
  </clipPath>
</defs>
<polygon clip-path="url(#clip9800)" points="
0,2000 4000,2000 4000,0 0,0 
  " fill="#000000" fill-rule="evenodd" fill-opacity="0"/>
<defs>
  <clipPath id="clip9801">
    <rect x="800" y="0" width="2801" height="2000"/>
  </clipPath>
</defs>
<polygon clip-path="url(#clip9800)" points="
391.059,1671.5 3653.54,1671.5 3653.54,188.976 391.059,188.976 
  " fill="#000000" fill-rule="evenodd" fill-opacity="0"/>
<defs>
  <clipPath id="clip9802">
    <rect x="391" y="188" width="3263" height="1484"/>
  </clipPath>
</defs>
<polyline clip-path="url(#clip9800)" style="stroke:#000000; stroke-width:4; stroke-opacity:1; fill:none" points="
  391.059,1671.5 3653.54,1671.5 
  "/>
<polyline clip-path="url(#clip9800)" style="stroke:#000000; stroke-width:4; stroke-opacity:1; fill:none" points="
  391.059,1671.5 391.059,188.976 
  "/>
<polyline clip-path="url(#clip9800)" style="stroke:#000000; stroke-width:4; stroke-opacity:1; fill:none" points="
  481.255,1671.5 481.255,1649.27 
  "/>
<polyline clip-path="url(#clip9800)" style="stroke:#000000; stroke-width:4; stroke-opacity:1; fill:none" points="
  994.58,1671.5 994.58,1649.27 
  "/>
<polyline clip-path="url(#clip9800)" style="stroke:#000000; stroke-width:4; stroke-opacity:1; fill:none" points="
  1507.91,1671.5 1507.91,1649.27 
  "/>
<polyline clip-path="url(#clip9800)" style="stroke:#000000; stroke-width:4; stroke-opacity:1; fill:none" points="
  2021.23,1671.5 2021.23,1649.27 
  "/>
<polyline clip-path="url(#clip9800)" style="stroke:#000000; stroke-width:4; stroke-opacity:1; fill:none" points="
  2534.56,1671.5 2534.56,1649.27 
  "/>
<polyline clip-path="url(#clip9800)" style="stroke:#000000; stroke-width:4; stroke-opacity:1; fill:none" points="
  3047.88,1671.5 3047.88,1649.27 
  "/>
<polyline clip-path="url(#clip9800)" style="stroke:#000000; stroke-width:4; stroke-opacity:1; fill:none" points="
  3561.21,1671.5 3561.21,1649.27 
  "/>
<polyline clip-path="url(#clip9800)" style="stroke:#000000; stroke-width:4; stroke-opacity:1; fill:none" points="
  391.059,1635.27 439.996,1635.27 
  "/>
<polyline clip-path="url(#clip9800)" style="stroke:#000000; stroke-width:4; stroke-opacity:1; fill:none" points="
  391.059,1241.86 439.996,1241.86 
  "/>
<polyline clip-path="url(#clip9800)" style="stroke:#000000; stroke-width:4; stroke-opacity:1; fill:none" points="
  391.059,848.445 439.996,848.445 
  "/>
<polyline clip-path="url(#clip9800)" style="stroke:#000000; stroke-width:4; stroke-opacity:1; fill:none" points="
  391.059,455.03 439.996,455.03 
  "/>
<g clip-path="url(#clip9800)">
<text style="fill:#000000; fill-opacity:1; font-family:Arial,Helvetica Neue,Helvetica,sans-serif; font-size:71px; text-anchor:middle;" transform="rotate(0, 481.255, 1753.9)" x="481.255" y="1753.9">0</text>
</g>
<g clip-path="url(#clip9800)">
<text style="fill:#000000; fill-opacity:1; font-family:Arial,Helvetica Neue,Helvetica,sans-serif; font-size:71px; text-anchor:middle;" transform="rotate(0, 994.58, 1753.9)" x="994.58" y="1753.9">4</text>
</g>
<g clip-path="url(#clip9800)">
<text style="fill:#000000; fill-opacity:1; font-family:Arial,Helvetica Neue,Helvetica,sans-serif; font-size:71px; text-anchor:middle;" transform="rotate(0, 1507.91, 1753.9)" x="1507.91" y="1753.9">8</text>
</g>
<g clip-path="url(#clip9800)">
<text style="fill:#000000; fill-opacity:1; font-family:Arial,Helvetica Neue,Helvetica,sans-serif; font-size:71px; text-anchor:middle;" transform="rotate(0, 2021.23, 1753.9)" x="2021.23" y="1753.9">12</text>
</g>
<g clip-path="url(#clip9800)">
<text style="fill:#000000; fill-opacity:1; font-family:Arial,Helvetica Neue,Helvetica,sans-serif; font-size:71px; text-anchor:middle;" transform="rotate(0, 2534.56, 1753.9)" x="2534.56" y="1753.9">16</text>
</g>
<g clip-path="url(#clip9800)">
<text style="fill:#000000; fill-opacity:1; font-family:Arial,Helvetica Neue,Helvetica,sans-serif; font-size:71px; text-anchor:middle;" transform="rotate(0, 3047.88, 1753.9)" x="3047.88" y="1753.9">20</text>
</g>
<g clip-path="url(#clip9800)">
<text style="fill:#000000; fill-opacity:1; font-family:Arial,Helvetica Neue,Helvetica,sans-serif; font-size:71px; text-anchor:middle;" transform="rotate(0, 3561.21, 1753.9)" x="3561.21" y="1753.9">24</text>
</g>
<g clip-path="url(#clip9800)">
<text style="fill:#000000; fill-opacity:1; font-family:Arial,Helvetica Neue,Helvetica,sans-serif; font-size:71px; text-anchor:end;" transform="rotate(0, 351.059, 1661.27)" x="351.059" y="1661.27">0</text>
</g>
<g clip-path="url(#clip9800)">
<text style="fill:#000000; fill-opacity:1; font-family:Arial,Helvetica Neue,Helvetica,sans-serif; font-size:71px; text-anchor:end;" transform="rotate(0, 351.059, 1267.86)" x="351.059" y="1267.86">20</text>
</g>
<g clip-path="url(#clip9800)">
<text style="fill:#000000; fill-opacity:1; font-family:Arial,Helvetica Neue,Helvetica,sans-serif; font-size:71px; text-anchor:end;" transform="rotate(0, 351.059, 874.445)" x="351.059" y="874.445">40</text>
</g>
<g clip-path="url(#clip9800)">
<text style="fill:#000000; fill-opacity:1; font-family:Arial,Helvetica Neue,Helvetica,sans-serif; font-size:71px; text-anchor:end;" transform="rotate(0, 351.059, 481.03)" x="351.059" y="481.03">60</text>
</g>
<g clip-path="url(#clip9800)">
<text style="fill:#000000; fill-opacity:1; font-family:Arial,Helvetica Neue,Helvetica,sans-serif; font-size:95px; text-anchor:middle;" transform="rotate(0, 2022.3, 1873.75)" x="2022.3" y="1873.75">Time (hours)</text>
</g>
<g clip-path="url(#clip9800)">
<text style="fill:#000000; fill-opacity:1; font-family:Arial,Helvetica Neue,Helvetica,sans-serif; font-size:95px; text-anchor:middle;" transform="rotate(-90, 212.973, 930.24)" x="212.973" y="930.24">Rate (1/min.)</text>
</g>
<polyline clip-path="url(#clip9802)" style="stroke:#000000; stroke-width:4; stroke-opacity:1; fill:none" points="
  483.394,1536.91 485.532,1537.25 487.671,1537.6 489.81,1537.94 491.949,1538.28 494.088,1538.63 496.227,1538.97 498.366,1539.31 500.504,1539.66 502.643,1540 
  504.782,1540.34 506.921,1540.69 509.06,1541.03 511.199,1541.37 513.338,1541.72 515.476,1542.06 517.615,1542.4 519.754,1542.75 521.893,1543.09 524.032,1543.43 
  526.171,1543.78 528.31,1544.12 530.448,1544.46 532.587,1544.81 534.726,1545.15 536.865,1545.49 539.004,1545.84 541.143,1546.18 543.282,1546.52 545.42,1546.87 
  547.559,1547.21 549.698,1547.55 551.837,1547.9 553.976,1548.24 556.115,1548.58 558.254,1548.93 560.392,1549.27 562.531,1549.61 564.67,1549.96 566.809,1550.3 
  568.948,1550.64 571.087,1550.99 573.226,1551.33 575.364,1551.67 577.503,1552.02 579.642,1552.36 581.781,1552.7 583.92,1553.05 586.059,1553.39 588.198,1553.73 
  590.336,1554.08 592.475,1554.42 594.614,1554.76 596.753,1555.11 598.892,1555.45 601.031,1555.79 603.17,1556.14 605.308,1556.48 607.447,1556.82 609.586,1557.17 
  611.725,1578.19 613.864,1578.61 616.003,1579.03 618.142,1579.45 620.28,1579.87 622.419,1580.29 624.558,1580.71 626.697,1581.13 628.836,1581.55 630.975,1581.97 
  633.114,1582.39 635.252,1582.81 637.391,1583.23 639.53,1583.65 641.669,1584.07 643.808,1584.49 645.947,1584.91 648.086,1585.33 650.224,1585.75 652.363,1586.17 
  654.502,1586.59 656.641,1587.01 658.78,1587.43 660.919,1587.85 663.058,1588.27 665.196,1588.69 667.335,1589.11 669.474,1589.53 671.613,1589.95 673.752,1590.37 
  675.891,1590.79 678.03,1591.21 680.168,1591.64 682.307,1592.06 684.446,1592.48 686.585,1592.9 688.724,1593.32 690.863,1593.74 693.002,1594.16 695.14,1594.58 
  697.279,1595 699.418,1595.42 701.557,1595.84 703.696,1596.26 705.835,1596.68 707.974,1597.1 710.112,1597.52 712.251,1597.94 714.39,1598.36 716.529,1598.78 
  718.668,1599.2 720.807,1599.62 722.946,1600.04 725.084,1600.46 727.223,1600.88 729.362,1601.3 731.501,1601.72 733.64,1602.14 735.779,1602.56 737.918,1602.98 
  740.056,1603.14 742.195,1603.31 744.334,1603.47 746.473,1603.63 748.612,1603.79 750.751,1603.95 752.89,1604.11 755.028,1604.27 757.167,1604.44 759.306,1604.6 
  761.445,1604.76 763.584,1604.92 765.723,1605.08 767.862,1605.24 770,1605.41 772.139,1605.57 774.278,1605.73 776.417,1605.89 778.556,1606.05 780.695,1606.21 
  782.834,1606.37 784.972,1606.54 787.111,1606.7 789.25,1606.86 791.389,1607.02 793.528,1607.18 795.667,1607.34 797.806,1607.5 799.944,1607.67 802.083,1607.83 
  804.222,1607.99 806.361,1608.15 808.5,1608.31 810.639,1608.47 812.778,1608.63 814.916,1608.8 817.055,1608.96 819.194,1609.12 821.333,1609.28 823.472,1609.44 
  825.611,1609.6 827.75,1609.76 829.888,1609.93 832.027,1610.09 834.166,1610.25 836.305,1610.41 838.444,1610.57 840.583,1610.73 842.722,1610.9 844.86,1611.06 
  846.999,1611.22 849.138,1611.38 851.277,1611.54 853.416,1611.7 855.555,1611.86 857.694,1612.03 859.832,1612.19 861.971,1612.35 864.11,1612.51 866.249,1612.67 
  868.388,1612.77 870.527,1612.86 872.666,1612.95 874.804,1613.05 876.943,1613.14 879.082,1613.23 881.221,1613.33 883.36,1613.42 885.499,1613.51 887.638,1613.61 
  889.776,1613.7 891.915,1613.79 894.054,1613.89 896.193,1613.98 898.332,1614.07 900.471,1614.17 902.61,1614.26 904.748,1614.36 906.887,1614.45 909.026,1614.54 
  911.165,1614.64 913.304,1614.73 915.443,1614.82 917.582,1614.92 919.72,1615.01 921.859,1615.1 923.998,1615.2 926.137,1615.29 928.276,1615.38 930.415,1615.48 
  932.554,1615.57 934.692,1615.67 936.831,1615.76 938.97,1615.85 941.109,1615.95 943.248,1616.04 945.387,1616.13 947.526,1616.23 949.664,1616.32 951.803,1616.41 
  953.942,1616.51 956.081,1616.6 958.22,1616.69 960.359,1616.79 962.498,1616.88 964.636,1616.98 966.775,1617.07 968.914,1617.16 971.053,1617.26 973.192,1617.35 
  975.331,1617.44 977.47,1617.54 979.608,1617.63 981.747,1617.72 983.886,1617.82 986.025,1617.91 988.164,1618 990.303,1618.1 992.442,1618.19 994.58,1618.29 
  996.719,1618.18 998.858,1618.07 1001,1617.96 1003.14,1617.85 1005.27,1617.74 1007.41,1617.63 1009.55,1617.52 1011.69,1617.41 1013.83,1617.3 1015.97,1617.19 
  1018.11,1617.08 1020.25,1616.97 1022.39,1616.86 1024.52,1616.75 1026.66,1616.65 1028.8,1616.54 1030.94,1616.43 1033.08,1616.32 1035.22,1616.21 1037.36,1616.1 
  1039.5,1615.99 1041.64,1615.88 1043.77,1615.77 1045.91,1615.66 1048.05,1615.55 1050.19,1615.44 1052.33,1615.33 1054.47,1615.22 1056.61,1615.12 1058.75,1615.01 
  1060.89,1614.9 1063.02,1614.79 1065.16,1614.68 1067.3,1614.57 1069.44,1614.46 1071.58,1614.35 1073.72,1614.24 1075.86,1614.13 1078,1614.02 1080.13,1613.91 
  1082.27,1613.8 1084.41,1613.69 1086.55,1613.59 1088.69,1613.48 1090.83,1613.37 1092.97,1613.26 1095.11,1613.15 1097.25,1613.04 1099.38,1612.93 1101.52,1612.82 
  1103.66,1612.71 1105.8,1612.6 1107.94,1612.49 1110.08,1612.38 1112.22,1612.27 1114.36,1612.16 1116.5,1612.06 1118.63,1611.95 1120.77,1611.84 1122.91,1611.73 
  1125.05,1610.89 1127.19,1610.06 1129.33,1609.23 1131.47,1608.39 1133.61,1607.56 1135.75,1606.73 1137.88,1605.9 1140.02,1605.06 1142.16,1604.23 1144.3,1603.4 
  1146.44,1602.56 1148.58,1601.73 1150.72,1600.9 1152.86,1600.06 1154.99,1599.23 1157.13,1598.4 1159.27,1597.56 1161.41,1596.73 1163.55,1595.9 1165.69,1595.06 
  1167.83,1594.23 1169.97,1593.4 1172.11,1592.56 1174.24,1591.73 1176.38,1590.9 1178.52,1590.07 1180.66,1589.23 1182.8,1588.4 1184.94,1587.57 1187.08,1586.73 
  1189.22,1585.9 1191.36,1585.07 1193.49,1584.23 1195.63,1583.4 1197.77,1582.57 1199.91,1581.73 1202.05,1580.9 1204.19,1580.07 1206.33,1579.23 1208.47,1578.4 
  1210.61,1577.57 1212.74,1576.74 1214.88,1575.9 1217.02,1575.07 1219.16,1574.24 1221.3,1573.4 1223.44,1572.57 1225.58,1571.74 1227.72,1570.9 1229.85,1570.07 
  1231.99,1569.24 1234.13,1568.4 1236.27,1567.57 1238.41,1566.74 1240.55,1565.9 1242.69,1565.07 1244.83,1564.24 1246.97,1563.4 1249.1,1562.57 1251.24,1561.74 
  1253.38,1559.4 1255.52,1557.05 1257.66,1554.71 1259.8,1552.37 1261.94,1550.03 1264.08,1547.69 1266.22,1545.34 1268.35,1543 1270.49,1540.66 1272.63,1538.32 
  1274.77,1535.97 1276.91,1533.63 1279.05,1531.29 1281.19,1528.95 1283.33,1526.61 1285.47,1524.26 1287.6,1521.92 1289.74,1519.58 1291.88,1517.24 1294.02,1514.89 
  1296.16,1512.55 1298.3,1510.21 1300.44,1507.87 1302.58,1505.53 1304.71,1503.18 1306.85,1500.84 1308.99,1498.5 1311.13,1496.16 1313.27,1493.81 1315.41,1491.47 
  1317.55,1489.13 1319.69,1486.79 1321.83,1484.45 1323.96,1482.1 1326.1,1479.76 1328.24,1477.42 1330.38,1475.08 1332.52,1472.73 1334.66,1470.39 1336.8,1468.05 
  1338.94,1465.71 1341.08,1463.37 1343.21,1461.02 1345.35,1458.68 1347.49,1456.34 1349.63,1454 1351.77,1451.66 1353.91,1449.31 1356.05,1446.97 1358.19,1444.63 
  1360.33,1442.29 1362.46,1439.94 1364.6,1437.6 1366.74,1435.26 1368.88,1432.92 1371.02,1430.58 1373.16,1428.23 1375.3,1425.89 1377.44,1423.55 1379.57,1421.21 
  1381.71,1417.72 1383.85,1414.24 1385.99,1410.75 1388.13,1407.27 1390.27,1403.78 1392.41,1400.3 1394.55,1396.81 1396.69,1393.33 1398.82,1389.84 1400.96,1386.36 
  1403.1,1382.87 1405.24,1379.39 1407.38,1375.9 1409.52,1372.42 1411.66,1368.93 1413.8,1365.45 1415.94,1361.96 1418.07,1358.48 1420.21,1354.99 1422.35,1351.5 
  1424.49,1348.02 1426.63,1344.53 1428.77,1341.05 1430.91,1337.56 1433.05,1334.08 1435.19,1330.59 1437.32,1327.11 1439.46,1323.62 1441.6,1320.14 1443.74,1316.65 
  1445.88,1313.17 1448.02,1309.68 1450.16,1306.2 1452.3,1302.71 1454.43,1299.23 1456.57,1295.74 1458.71,1292.26 1460.85,1288.77 1462.99,1285.29 1465.13,1281.8 
  1467.27,1278.32 1469.41,1274.83 1471.55,1271.35 1473.68,1267.86 1475.82,1264.38 1477.96,1260.89 1480.1,1257.41 1482.24,1253.92 1484.38,1250.44 1486.52,1246.95 
  1488.66,1243.47 1490.8,1239.98 1492.93,1236.5 1495.07,1233.01 1497.21,1229.53 1499.35,1226.04 1501.49,1222.56 1503.63,1219.07 1505.77,1215.59 1507.91,1212.1 
  1510.04,1202.13 1512.18,1192.17 1514.32,1182.2 1516.46,1172.23 1518.6,1162.26 1520.74,1152.29 1522.88,1142.33 1525.02,1132.36 1527.16,1122.39 1529.29,1112.42 
  1531.43,1102.45 1533.57,1092.49 1535.71,1082.52 1537.85,1072.55 1539.99,1062.58 1542.13,1052.61 1544.27,1042.65 1546.41,1032.68 1548.54,1022.71 1550.68,1012.74 
  1552.82,1002.77 1554.96,992.806 1557.1,982.838 1559.24,972.87 1561.38,962.902 1563.52,952.934 1565.66,942.966 1567.79,932.998 1569.93,923.03 1572.07,913.062 
  1574.21,903.094 1576.35,893.126 1578.49,883.158 1580.63,873.19 1582.77,863.222 1584.9,853.254 1587.04,843.286 1589.18,833.318 1591.32,823.35 1593.46,813.382 
  1595.6,803.414 1597.74,793.446 1599.88,783.478 1602.02,773.51 1604.15,763.542 1606.29,753.574 1608.43,743.606 1610.57,733.638 1612.71,723.67 1614.85,713.702 
  1616.99,703.734 1619.13,693.766 1621.27,683.798 1623.4,673.83 1625.54,663.862 1627.68,653.894 1629.82,643.926 1631.96,633.958 1634.1,623.99 1636.24,614.022 
  1638.38,607.638 1640.52,601.253 1642.65,594.868 1644.79,588.483 1646.93,582.098 1649.07,575.714 1651.21,569.329 1653.35,562.944 1655.49,556.559 1657.63,550.174 
  1659.76,543.79 1661.9,537.405 1664.04,531.02 1666.18,524.635 1668.32,518.25 1670.46,511.866 1672.6,505.481 1674.74,499.096 1676.88,492.711 1679.01,486.326 
  1681.15,479.942 1683.29,473.557 1685.43,467.172 1687.57,460.787 1689.71,454.402 1691.85,448.018 1693.99,441.633 1696.13,435.248 1698.26,428.863 1700.4,422.479 
  1702.54,416.094 1704.68,409.709 1706.82,403.324 1708.96,396.939 1711.1,390.555 1713.24,384.17 1715.38,377.785 1717.51,371.4 1719.65,365.015 1721.79,358.631 
  1723.93,352.246 1726.07,345.861 1728.21,339.476 1730.35,333.091 1732.49,326.707 1734.62,320.322 1736.76,313.937 1738.9,307.552 1741.04,301.167 1743.18,294.783 
  1745.32,288.398 1747.46,282.013 1749.6,275.628 1751.74,269.243 1753.87,262.859 1756.01,256.474 1758.15,250.089 1760.29,243.704 1762.43,237.319 1764.57,230.935 
  1766.71,231.47 1768.85,232.005 1770.99,232.54 1773.12,233.076 1775.26,233.611 1777.4,234.146 1779.54,234.682 1781.68,235.217 1783.82,235.752 1785.96,236.287 
  1788.1,236.823 1790.24,237.358 1792.37,237.893 1794.51,238.428 1796.65,238.964 1798.79,239.499 1800.93,240.034 1803.07,240.569 1805.21,241.105 1807.35,241.64 
  1809.48,242.175 1811.62,242.71 1813.76,243.246 1815.9,243.781 1818.04,244.316 1820.18,244.852 1822.32,245.387 1824.46,245.922 1826.6,246.457 1828.73,246.993 
  1830.87,247.528 1833.01,248.063 1835.15,248.598 1837.29,249.134 1839.43,249.669 1841.57,250.204 1843.71,250.739 1845.85,251.275 1847.98,251.81 1850.12,252.345 
  1852.26,252.88 1854.4,253.416 1856.54,253.951 1858.68,254.486 1860.82,255.022 1862.96,255.557 1865.1,256.092 1867.23,256.627 1869.37,257.163 1871.51,257.698 
  1873.65,258.233 1875.79,258.768 1877.93,259.304 1880.07,259.839 1882.21,260.374 1884.34,260.909 1886.48,261.445 1888.62,261.98 1890.76,262.515 1892.9,263.05 
  1895.04,264.354 1897.18,265.657 1899.32,266.96 1901.46,268.263 1903.59,269.566 1905.73,270.869 1907.87,272.172 1910.01,273.475 1912.15,274.778 1914.29,276.081 
  1916.43,277.384 1918.57,278.687 1920.71,279.99 1922.84,281.294 1924.98,282.597 1927.12,283.9 1929.26,285.203 1931.4,286.506 1933.54,287.809 1935.68,289.112 
  1937.82,290.415 1939.96,291.718 1942.09,293.021 1944.23,294.324 1946.37,295.627 1948.51,296.93 1950.65,298.234 1952.79,299.537 1954.93,300.84 1957.07,302.143 
  1959.2,303.446 1961.34,304.749 1963.48,306.052 1965.62,307.355 1967.76,308.658 1969.9,309.961 1972.04,311.264 1974.18,312.567 1976.32,313.87 1978.45,315.174 
  1980.59,316.477 1982.73,317.78 1984.87,319.083 1987.01,320.386 1989.15,321.689 1991.29,322.992 1993.43,324.295 1995.57,325.598 1997.7,326.901 1999.84,328.204 
  2001.98,329.507 2004.12,330.81 2006.26,332.114 2008.4,333.417 2010.54,334.72 2012.68,336.023 2014.82,337.326 2016.95,338.629 2019.09,339.932 2021.23,341.235 
  2023.37,343.027 2025.51,344.819 2027.65,346.611 2029.79,348.402 2031.93,350.194 2034.06,351.986 2036.2,353.778 2038.34,355.57 2040.48,357.362 2042.62,359.153 
  2044.76,360.945 2046.9,362.737 2049.04,364.529 2051.18,366.321 2053.31,368.113 2055.45,369.905 2057.59,371.696 2059.73,373.488 2061.87,375.28 2064.01,377.072 
  2066.15,378.864 2068.29,380.656 2070.43,382.447 2072.56,384.239 2074.7,386.031 2076.84,387.823 2078.98,389.615 2081.12,391.407 2083.26,393.198 2085.4,394.99 
  2087.54,396.782 2089.68,398.574 2091.81,400.366 2093.95,402.158 2096.09,403.949 2098.23,405.741 2100.37,407.533 2102.51,409.325 2104.65,411.117 2106.79,412.909 
  2108.92,414.701 2111.06,416.492 2113.2,418.284 2115.34,420.076 2117.48,421.868 2119.62,423.66 2121.76,425.452 2123.9,427.243 2126.04,429.035 2128.17,430.827 
  2130.31,432.619 2132.45,434.411 2134.59,436.203 2136.73,437.994 2138.87,439.786 2141.01,441.578 2143.15,443.37 2145.29,445.162 2147.42,446.954 2149.56,448.746 
  2151.7,448.541 2153.84,448.336 2155.98,448.131 2158.12,447.926 2160.26,447.721 2162.4,447.516 2164.54,447.312 2166.67,447.107 2168.81,446.902 2170.95,446.697 
  2173.09,446.492 2175.23,446.287 2177.37,446.082 2179.51,445.878 2181.65,445.673 2183.78,445.468 2185.92,445.263 2188.06,445.058 2190.2,444.853 2192.34,444.649 
  2194.48,444.444 2196.62,444.239 2198.76,444.034 2200.9,443.829 2203.03,443.624 2205.17,443.419 2207.31,443.215 2209.45,443.01 2211.59,442.805 2213.73,442.6 
  2215.87,442.395 2218.01,442.19 2220.15,441.985 2222.28,441.781 2224.42,441.576 2226.56,441.371 2228.7,441.166 2230.84,440.961 2232.98,440.756 2235.12,440.552 
  2237.26,440.347 2239.4,440.142 2241.53,439.937 2243.67,439.732 2245.81,439.527 2247.95,439.322 2250.09,439.118 2252.23,438.913 2254.37,438.708 2256.51,438.503 
  2258.64,438.298 2260.78,438.093 2262.92,437.889 2265.06,437.684 2267.2,437.479 2269.34,437.274 2271.48,437.069 2273.62,436.864 2275.76,436.659 2277.89,436.455 
  2280.03,437.31 2282.17,438.165 2284.31,439.02 2286.45,439.875 2288.59,440.73 2290.73,441.585 2292.87,442.44 2295.01,443.296 2297.14,444.151 2299.28,445.006 
  2301.42,445.861 2303.56,446.716 2305.7,447.571 2307.84,448.426 2309.98,449.282 2312.12,450.137 2314.26,450.992 2316.39,451.847 2318.53,452.702 2320.67,453.557 
  2322.81,454.412 2324.95,455.267 2327.09,456.123 2329.23,456.978 2331.37,457.833 2333.5,458.688 2335.64,459.543 2337.78,460.398 2339.92,461.253 2342.06,462.108 
  2344.2,462.964 2346.34,463.819 2348.48,464.674 2350.62,465.529 2352.75,466.384 2354.89,467.239 2357.03,468.094 2359.17,468.95 2361.31,469.805 2363.45,470.66 
  2365.59,471.515 2367.73,472.37 2369.87,473.225 2372,474.08 2374.14,474.935 2376.28,475.791 2378.42,476.646 2380.56,477.501 2382.7,478.356 2384.84,479.211 
  2386.98,480.066 2389.12,480.921 2391.25,481.777 2393.39,482.632 2395.53,483.487 2397.67,484.342 2399.81,485.197 2401.95,486.052 2404.09,486.907 2406.23,487.762 
  2408.36,489.163 2410.5,490.564 2412.64,491.965 2414.78,493.366 2416.92,494.767 2419.06,496.167 2421.2,497.568 2423.34,498.969 2425.48,500.37 2427.61,501.771 
  2429.75,503.172 2431.89,504.572 2434.03,505.973 2436.17,507.374 2438.31,508.775 2440.45,510.176 2442.59,511.577 2444.73,512.977 2446.86,514.378 2449,515.779 
  2451.14,517.18 2453.28,518.581 2455.42,519.982 2457.56,521.382 2459.7,522.783 2461.84,524.184 2463.98,525.585 2466.11,526.986 2468.25,528.386 2470.39,529.787 
  2472.53,531.188 2474.67,532.589 2476.81,533.99 2478.95,535.391 2481.09,536.791 2483.22,538.192 2485.36,539.593 2487.5,540.994 2489.64,542.395 2491.78,543.796 
  2493.92,545.196 2496.06,546.597 2498.2,547.998 2500.34,549.399 2502.47,550.8 2504.61,552.201 2506.75,553.601 2508.89,555.002 2511.03,556.403 2513.17,557.804 
  2515.31,559.205 2517.45,560.606 2519.59,562.006 2521.72,563.407 2523.86,564.808 2526,566.209 2528.14,567.61 2530.28,569.011 2532.42,570.411 2534.56,571.812 
  2536.7,576.148 2538.84,580.483 2540.97,584.818 2543.11,589.154 2545.25,593.489 2547.39,597.824 2549.53,602.16 2551.67,606.495 2553.81,610.831 2555.95,615.166 
  2558.08,619.501 2560.22,623.837 2562.36,628.172 2564.5,632.507 2566.64,636.843 2568.78,641.178 2570.92,645.514 2573.06,649.849 2575.2,654.184 2577.33,658.52 
  2579.47,662.855 2581.61,667.191 2583.75,671.526 2585.89,675.861 2588.03,680.197 2590.17,684.532 2592.31,688.867 2594.45,693.203 2596.58,697.538 2598.72,701.874 
  2600.86,706.209 2603,710.544 2605.14,714.88 2607.28,719.215 2609.42,723.55 2611.56,727.886 2613.7,732.221 2615.83,736.557 2617.97,740.892 2620.11,745.227 
  2622.25,749.563 2624.39,753.898 2626.53,758.233 2628.67,762.569 2630.81,766.904 2632.94,771.24 2635.08,775.575 2637.22,779.91 2639.36,784.246 2641.5,788.581 
  2643.64,792.916 2645.78,797.252 2647.92,801.587 2650.06,805.923 2652.19,810.258 2654.33,814.593 2656.47,818.929 2658.61,823.264 2660.75,827.599 2662.89,831.935 
  2665.03,835.269 2667.17,838.603 2669.31,841.937 2671.44,845.271 2673.58,848.605 2675.72,851.939 2677.86,855.273 2680,858.607 2682.14,861.942 2684.28,865.276 
  2686.42,868.61 2688.56,871.944 2690.69,875.278 2692.83,878.612 2694.97,881.946 2697.11,885.28 2699.25,888.614 2701.39,891.948 2703.53,895.282 2705.67,898.616 
  2707.8,901.951 2709.94,905.285 2712.08,908.619 2714.22,911.953 2716.36,915.287 2718.5,918.621 2720.64,921.955 2722.78,925.289 2724.92,928.623 2727.05,931.957 
  2729.19,935.291 2731.33,938.625 2733.47,941.959 2735.61,945.294 2737.75,948.628 2739.89,951.962 2742.03,955.296 2744.17,958.63 2746.3,961.964 2748.44,965.298 
  2750.58,968.632 2752.72,971.966 2754.86,975.3 2757,978.634 2759.14,981.968 2761.28,985.303 2763.42,988.637 2765.55,991.971 2767.69,995.305 2769.83,998.639 
  2771.97,1001.97 2774.11,1005.31 2776.25,1008.64 2778.39,1011.98 2780.53,1015.31 2782.66,1018.64 2784.8,1021.98 2786.94,1025.31 2789.08,1028.65 2791.22,1031.98 
  2793.36,1034.03 2795.5,1036.08 2797.64,1038.13 2799.78,1040.17 2801.91,1042.22 2804.05,1044.27 2806.19,1046.32 2808.33,1048.37 2810.47,1050.42 2812.61,1052.47 
  2814.75,1054.51 2816.89,1056.56 2819.03,1058.61 2821.16,1060.66 2823.3,1062.71 2825.44,1064.76 2827.58,1066.81 2829.72,1068.86 2831.86,1070.9 2834,1072.95 
  2836.14,1075 2838.28,1077.05 2840.41,1079.1 2842.55,1081.15 2844.69,1083.2 2846.83,1085.24 2848.97,1087.29 2851.11,1089.34 2853.25,1091.39 2855.39,1093.44 
  2857.52,1095.49 2859.66,1097.54 2861.8,1099.59 2863.94,1101.63 2866.08,1103.68 2868.22,1105.73 2870.36,1107.78 2872.5,1109.83 2874.64,1111.88 2876.77,1113.93 
  2878.91,1115.97 2881.05,1118.02 2883.19,1120.07 2885.33,1122.12 2887.47,1124.17 2889.61,1126.22 2891.75,1128.27 2893.89,1130.32 2896.02,1132.36 2898.16,1134.41 
  2900.3,1136.46 2902.44,1138.51 2904.58,1140.56 2906.72,1142.61 2908.86,1144.66 2911,1146.7 2913.14,1148.75 2915.27,1150.8 2917.41,1152.85 2919.55,1154.9 
  2921.69,1156.05 2923.83,1157.19 2925.97,1158.34 2928.11,1159.49 2930.25,1160.64 2932.38,1161.79 2934.52,1162.94 2936.66,1164.08 2938.8,1165.23 2940.94,1166.38 
  2943.08,1167.53 2945.22,1168.68 2947.36,1169.82 2949.5,1170.97 2951.63,1172.12 2953.77,1173.27 2955.91,1174.42 2958.05,1175.56 2960.19,1176.71 2962.33,1177.86 
  2964.47,1179.01 2966.61,1180.16 2968.75,1181.3 2970.88,1182.45 2973.02,1183.6 2975.16,1184.75 2977.3,1185.9 2979.44,1187.04 2981.58,1188.19 2983.72,1189.34 
  2985.86,1190.49 2988,1191.64 2990.13,1192.78 2992.27,1193.93 2994.41,1195.08 2996.55,1196.23 2998.69,1197.38 3000.83,1198.53 3002.97,1199.67 3005.11,1200.82 
  3007.24,1201.97 3009.38,1203.12 3011.52,1204.27 3013.66,1205.41 3015.8,1206.56 3017.94,1207.71 3020.08,1208.86 3022.22,1210.01 3024.36,1211.15 3026.49,1212.3 
  3028.63,1213.45 3030.77,1214.6 3032.91,1215.75 3035.05,1216.89 3037.19,1218.04 3039.33,1219.19 3041.47,1220.34 3043.61,1221.49 3045.74,1222.63 3047.88,1223.78 
  3050.02,1224.87 3052.16,1225.96 3054.3,1227.05 3056.44,1228.14 3058.58,1229.23 3060.72,1230.31 3062.86,1231.4 3064.99,1232.49 3067.13,1233.58 3069.27,1234.67 
  3071.41,1235.76 3073.55,1236.85 3075.69,1237.94 3077.83,1239.02 3079.97,1240.11 3082.1,1241.2 3084.24,1242.29 3086.38,1243.38 3088.52,1244.47 3090.66,1245.56 
  3092.8,1246.65 3094.94,1247.73 3097.08,1248.82 3099.22,1249.91 3101.35,1251 3103.49,1252.09 3105.63,1253.18 3107.77,1254.27 3109.91,1255.36 3112.05,1256.44 
  3114.19,1257.53 3116.33,1258.62 3118.47,1259.71 3120.6,1260.8 3122.74,1261.89 3124.88,1262.98 3127.02,1264.07 3129.16,1265.15 3131.3,1266.24 3133.44,1267.33 
  3135.58,1268.42 3137.72,1269.51 3139.85,1270.6 3141.99,1271.69 3144.13,1272.77 3146.27,1273.86 3148.41,1274.95 3150.55,1276.04 3152.69,1277.13 3154.83,1278.22 
  3156.96,1279.31 3159.1,1280.4 3161.24,1281.48 3163.38,1282.57 3165.52,1283.66 3167.66,1284.75 3169.8,1285.84 3171.94,1286.93 3174.08,1288.02 3176.21,1289.11 
  3178.35,1290.42 3180.49,1291.74 3182.63,1293.06 3184.77,1294.38 3186.91,1295.69 3189.05,1297.01 3191.19,1298.33 3193.33,1299.65 3195.46,1300.96 3197.6,1302.28 
  3199.74,1303.6 3201.88,1304.92 3204.02,1306.23 3206.16,1307.55 3208.3,1308.87 3210.44,1310.19 3212.58,1311.5 3214.71,1312.82 3216.85,1314.14 3218.99,1315.46 
  3221.13,1316.77 3223.27,1318.09 3225.41,1319.41 3227.55,1320.73 3229.69,1322.04 3231.82,1323.36 3233.96,1324.68 3236.1,1326 3238.24,1327.31 3240.38,1328.63 
  3242.52,1329.95 3244.66,1331.27 3246.8,1332.58 3248.94,1333.9 3251.07,1335.22 3253.21,1336.54 3255.35,1337.85 3257.49,1339.17 3259.63,1340.49 3261.77,1341.81 
  3263.91,1343.12 3266.05,1344.44 3268.19,1345.76 3270.32,1347.08 3272.46,1348.39 3274.6,1349.71 3276.74,1351.03 3278.88,1352.35 3281.02,1353.66 3283.16,1354.98 
  3285.3,1356.3 3287.44,1357.62 3289.57,1358.94 3291.71,1360.25 3293.85,1361.57 3295.99,1362.89 3298.13,1364.21 3300.27,1365.52 3302.41,1366.84 3304.55,1368.16 
  3306.68,1369.41 3308.82,1370.66 3310.96,1371.9 3313.1,1373.15 3315.24,1374.4 3317.38,1375.65 3319.52,1376.9 3321.66,1378.15 3323.8,1379.4 3325.93,1380.65 
  3328.07,1381.9 3330.21,1383.14 3332.35,1384.39 3334.49,1385.64 3336.63,1386.89 3338.77,1388.14 3340.91,1389.39 3343.05,1390.64 3345.18,1391.89 3347.32,1393.14 
  3349.46,1394.38 3351.6,1395.63 3353.74,1396.88 3355.88,1398.13 3358.02,1399.38 3360.16,1400.63 3362.3,1401.88 3364.43,1403.13 3366.57,1404.38 3368.71,1405.63 
  3370.85,1406.87 3372.99,1408.12 3375.13,1409.37 3377.27,1410.62 3379.41,1411.87 3381.54,1413.12 3383.68,1414.37 3385.82,1415.62 3387.96,1416.87 3390.1,1418.11 
  3392.24,1419.36 3394.38,1420.61 3396.52,1421.86 3398.66,1423.11 3400.79,1424.36 3402.93,1425.61 3405.07,1426.86 3407.21,1428.11 3409.35,1429.35 3411.49,1430.6 
  3413.63,1431.85 3415.77,1433.1 3417.91,1434.35 3420.04,1435.6 3422.18,1436.85 3424.32,1438.1 3426.46,1439.35 3428.6,1440.59 3430.74,1441.84 3432.88,1443.09 
  3435.02,1444.42 3437.16,1445.75 3439.29,1447.08 3441.43,1448.41 3443.57,1449.74 3445.71,1451.07 3447.85,1452.4 3449.99,1453.73 3452.13,1455.06 3454.27,1456.4 
  3456.4,1457.73 3458.54,1459.06 3460.68,1460.39 3462.82,1461.72 3464.96,1463.05 3467.1,1464.38 3469.24,1465.71 3471.38,1467.04 3473.52,1468.37 3475.65,1469.7 
  3477.79,1471.03 3479.93,1472.36 3482.07,1473.69 3484.21,1475.02 3486.35,1476.35 3488.49,1477.68 3490.63,1479.01 3492.77,1480.34 3494.9,1481.67 3497.04,1483 
  3499.18,1484.33 3501.32,1485.66 3503.46,1486.99 3505.6,1488.32 3507.74,1489.65 3509.88,1490.98 3512.02,1492.31 3514.15,1493.64 3516.29,1494.97 3518.43,1496.3 
  3520.57,1497.63 3522.71,1498.96 3524.85,1500.29 3526.99,1501.62 3529.13,1502.95 3531.26,1504.29 3533.4,1505.62 3535.54,1506.95 3537.68,1508.28 3539.82,1509.61 
  3541.96,1510.94 3544.1,1512.27 3546.24,1513.6 3548.38,1514.93 3550.51,1516.26 3552.65,1517.59 3554.79,1518.92 3556.93,1520.25 3559.07,1521.58 3561.21,1522.91 
  
  "/>
<polyline clip-path="url(#clip9802)" style="stroke:#ff0000; stroke-width:4; stroke-opacity:1; fill:none" points="
  483.394,1624.13 485.532,1624.13 487.671,1624.13 489.81,1624.13 491.949,1624.13 494.088,1624.13 496.227,1624.13 498.366,1624.13 500.504,1624.13 502.643,1624.13 
  504.782,1624.13 506.921,1624.13 509.06,1624.13 511.199,1624.13 513.338,1624.13 515.476,1624.13 517.615,1624.13 519.754,1624.13 521.893,1624.13 524.032,1624.13 
  526.171,1624.13 528.31,1624.13 530.448,1624.13 532.587,1624.13 534.726,1624.13 536.865,1624.13 539.004,1624.13 541.143,1624.13 543.282,1624.13 545.42,1624.13 
  547.559,1624.13 549.698,1624.13 551.837,1624.13 553.976,1624.13 556.115,1624.13 558.254,1624.13 560.392,1624.13 562.531,1624.13 564.67,1624.13 566.809,1624.13 
  568.948,1624.13 571.087,1624.13 573.226,1624.13 575.364,1624.13 577.503,1624.13 579.642,1624.13 581.781,1624.13 583.92,1624.13 586.059,1624.13 588.198,1624.13 
  590.336,1624.13 592.475,1624.13 594.614,1624.13 596.753,1624.13 598.892,1624.13 601.031,1624.13 603.17,1624.13 605.308,1624.13 607.447,1624.13 609.586,1624.13 
  611.725,1624.05 613.864,1624.05 616.003,1624.05 618.142,1624.05 620.28,1624.05 622.419,1624.05 624.558,1624.05 626.697,1624.05 628.836,1624.05 630.975,1624.05 
  633.114,1624.05 635.252,1624.05 637.391,1624.05 639.53,1624.05 641.669,1624.05 643.808,1624.05 645.947,1624.05 648.086,1624.05 650.224,1624.05 652.363,1624.05 
  654.502,1624.05 656.641,1624.05 658.78,1624.05 660.919,1624.05 663.058,1624.05 665.196,1624.05 667.335,1624.05 669.474,1624.05 671.613,1624.05 673.752,1624.05 
  675.891,1624.05 678.03,1624.05 680.168,1624.05 682.307,1624.05 684.446,1624.05 686.585,1624.05 688.724,1624.05 690.863,1624.05 693.002,1624.05 695.14,1624.05 
  697.279,1624.05 699.418,1624.05 701.557,1624.05 703.696,1624.05 705.835,1624.05 707.974,1624.05 710.112,1624.05 712.251,1624.05 714.39,1624.05 716.529,1624.05 
  718.668,1624.05 720.807,1624.05 722.946,1624.05 725.084,1624.05 727.223,1624.05 729.362,1624.05 731.501,1624.05 733.64,1624.05 735.779,1624.05 737.918,1624.05 
  740.056,1624.81 742.195,1624.81 744.334,1624.81 746.473,1624.81 748.612,1624.81 750.751,1624.81 752.89,1624.81 755.028,1624.81 757.167,1624.81 759.306,1624.81 
  761.445,1624.81 763.584,1624.81 765.723,1624.81 767.862,1624.81 770,1624.81 772.139,1624.81 774.278,1624.81 776.417,1624.81 778.556,1624.81 780.695,1624.81 
  782.834,1624.81 784.972,1624.81 787.111,1624.81 789.25,1624.81 791.389,1624.81 793.528,1624.81 795.667,1624.81 797.806,1624.81 799.944,1624.81 802.083,1624.81 
  804.222,1624.81 806.361,1624.81 808.5,1624.81 810.639,1624.81 812.778,1624.81 814.916,1624.81 817.055,1624.81 819.194,1624.81 821.333,1624.81 823.472,1624.81 
  825.611,1624.81 827.75,1624.81 829.888,1624.81 832.027,1624.81 834.166,1624.81 836.305,1624.81 838.444,1624.81 840.583,1624.81 842.722,1624.81 844.86,1624.81 
  846.999,1624.81 849.138,1624.81 851.277,1624.81 853.416,1624.81 855.555,1624.81 857.694,1624.81 859.832,1624.81 861.971,1624.81 864.11,1624.81 866.249,1624.81 
  868.388,1629.54 870.527,1629.54 872.666,1629.54 874.804,1629.54 876.943,1629.54 879.082,1629.54 881.221,1629.54 883.36,1629.54 885.499,1629.54 887.638,1629.54 
  889.776,1629.54 891.915,1629.54 894.054,1629.54 896.193,1629.54 898.332,1629.54 900.471,1629.54 902.61,1629.54 904.748,1629.54 906.887,1629.54 909.026,1629.54 
  911.165,1629.54 913.304,1629.54 915.443,1629.54 917.582,1629.54 919.72,1629.54 921.859,1629.54 923.998,1629.54 926.137,1629.54 928.276,1629.54 930.415,1629.54 
  932.554,1629.54 934.692,1629.54 936.831,1629.54 938.97,1629.54 941.109,1629.54 943.248,1629.54 945.387,1629.54 947.526,1629.54 949.664,1629.54 951.803,1629.54 
  953.942,1629.54 956.081,1629.54 958.22,1629.54 960.359,1629.54 962.498,1629.54 964.636,1629.54 966.775,1629.54 968.914,1629.54 971.053,1629.54 973.192,1629.54 
  975.331,1629.54 977.47,1629.54 979.608,1629.54 981.747,1629.54 983.886,1629.54 986.025,1629.54 988.164,1629.54 990.303,1629.54 992.442,1629.54 994.58,1629.54 
  996.719,1625.59 998.858,1625.59 1001,1625.59 1003.14,1625.59 1005.27,1625.59 1007.41,1625.59 1009.55,1625.59 1011.69,1625.59 1013.83,1625.59 1015.97,1625.59 
  1018.11,1625.59 1020.25,1625.59 1022.39,1625.59 1024.52,1625.59 1026.66,1625.59 1028.8,1625.59 1030.94,1625.59 1033.08,1625.59 1035.22,1625.59 1037.36,1625.59 
  1039.5,1625.59 1041.64,1625.59 1043.77,1625.59 1045.91,1625.59 1048.05,1625.59 1050.19,1625.59 1052.33,1625.59 1054.47,1625.59 1056.61,1625.59 1058.75,1625.59 
  1060.89,1625.59 1063.02,1625.59 1065.16,1625.59 1067.3,1625.59 1069.44,1625.59 1071.58,1625.59 1073.72,1625.59 1075.86,1625.59 1078,1625.59 1080.13,1625.59 
  1082.27,1625.59 1084.41,1625.59 1086.55,1625.59 1088.69,1625.59 1090.83,1625.59 1092.97,1625.59 1095.11,1625.59 1097.25,1625.59 1099.38,1625.59 1101.52,1625.59 
  1103.66,1625.59 1105.8,1625.59 1107.94,1625.59 1110.08,1625.59 1112.22,1625.59 1114.36,1625.59 1116.5,1625.59 1118.63,1625.59 1120.77,1625.59 1122.91,1625.59 
  1125.05,1624.08 1127.19,1624.08 1129.33,1624.08 1131.47,1624.08 1133.61,1624.08 1135.75,1624.08 1137.88,1624.08 1140.02,1624.08 1142.16,1624.08 1144.3,1624.08 
  1146.44,1624.08 1148.58,1624.08 1150.72,1624.08 1152.86,1624.08 1154.99,1624.08 1157.13,1624.08 1159.27,1624.08 1161.41,1624.08 1163.55,1624.08 1165.69,1624.08 
  1167.83,1624.08 1169.97,1624.08 1172.11,1624.08 1174.24,1624.08 1176.38,1624.08 1178.52,1624.08 1180.66,1624.08 1182.8,1624.08 1184.94,1624.08 1187.08,1624.08 
  1189.22,1624.08 1191.36,1624.08 1193.49,1624.08 1195.63,1624.08 1197.77,1624.08 1199.91,1624.08 1202.05,1624.08 1204.19,1624.08 1206.33,1624.08 1208.47,1624.08 
  1210.61,1624.08 1212.74,1624.08 1214.88,1624.08 1217.02,1624.08 1219.16,1624.08 1221.3,1624.08 1223.44,1624.08 1225.58,1624.08 1227.72,1624.08 1229.85,1624.08 
  1231.99,1624.08 1234.13,1624.08 1236.27,1624.08 1238.41,1624.08 1240.55,1624.08 1242.69,1624.08 1244.83,1624.08 1246.97,1624.08 1249.1,1624.08 1251.24,1624.08 
  1253.38,1496.86 1255.52,1496.86 1257.66,1496.86 1259.8,1496.86 1261.94,1496.86 1264.08,1496.86 1266.22,1496.86 1268.35,1496.86 1270.49,1496.86 1272.63,1496.86 
  1274.77,1496.86 1276.91,1496.86 1279.05,1496.86 1281.19,1496.86 1283.33,1496.86 1285.47,1496.86 1287.6,1496.86 1289.74,1496.86 1291.88,1496.86 1294.02,1496.86 
  1296.16,1496.86 1298.3,1496.86 1300.44,1496.86 1302.58,1496.86 1304.71,1496.86 1306.85,1496.86 1308.99,1496.86 1311.13,1496.86 1313.27,1496.86 1315.41,1496.86 
  1317.55,1496.86 1319.69,1496.86 1321.83,1496.86 1323.96,1496.86 1326.1,1496.86 1328.24,1496.86 1330.38,1496.86 1332.52,1496.86 1334.66,1496.86 1336.8,1496.86 
  1338.94,1496.86 1341.08,1496.86 1343.21,1496.86 1345.35,1496.86 1347.49,1496.86 1349.63,1496.86 1351.77,1496.86 1353.91,1496.86 1356.05,1496.86 1358.19,1496.86 
  1360.33,1496.86 1362.46,1496.86 1364.6,1496.86 1366.74,1496.86 1368.88,1496.86 1371.02,1496.86 1373.16,1496.86 1375.3,1496.86 1377.44,1496.86 1379.57,1496.86 
  1381.71,1149.07 1383.85,1149.07 1385.99,1149.07 1388.13,1149.07 1390.27,1149.07 1392.41,1149.07 1394.55,1149.07 1396.69,1149.07 1398.82,1149.07 1400.96,1149.07 
  1403.1,1149.07 1405.24,1149.07 1407.38,1149.07 1409.52,1149.07 1411.66,1149.07 1413.8,1149.07 1415.94,1149.07 1418.07,1149.07 1420.21,1149.07 1422.35,1149.07 
  1424.49,1149.07 1426.63,1149.07 1428.77,1149.07 1430.91,1149.07 1433.05,1149.07 1435.19,1149.07 1437.32,1149.07 1439.46,1149.07 1441.6,1149.07 1443.74,1149.07 
  1445.88,1149.07 1448.02,1149.07 1450.16,1149.07 1452.3,1149.07 1454.43,1149.07 1456.57,1149.07 1458.71,1149.07 1460.85,1149.07 1462.99,1149.07 1465.13,1149.07 
  1467.27,1149.07 1469.41,1149.07 1471.55,1149.07 1473.68,1149.07 1475.82,1149.07 1477.96,1149.07 1480.1,1149.07 1482.24,1149.07 1484.38,1149.07 1486.52,1149.07 
  1488.66,1149.07 1490.8,1149.07 1492.93,1149.07 1495.07,1149.07 1497.21,1149.07 1499.35,1149.07 1501.49,1149.07 1503.63,1149.07 1505.77,1149.07 1507.91,1149.07 
  1510.04,772.143 1512.18,772.143 1514.32,772.143 1516.46,772.143 1518.6,772.143 1520.74,772.143 1522.88,772.143 1525.02,772.143 1527.16,772.143 1529.29,772.143 
  1531.43,772.143 1533.57,772.143 1535.71,772.143 1537.85,772.143 1539.99,772.143 1542.13,772.143 1544.27,772.143 1546.41,772.143 1548.54,772.143 1550.68,772.143 
  1552.82,772.143 1554.96,772.143 1557.1,772.143 1559.24,772.143 1561.38,772.143 1563.52,772.143 1565.66,772.143 1567.79,772.143 1569.93,772.143 1572.07,772.143 
  1574.21,772.143 1576.35,772.143 1578.49,772.143 1580.63,772.143 1582.77,772.143 1584.9,772.143 1587.04,772.143 1589.18,772.143 1591.32,772.143 1593.46,772.143 
  1595.6,772.143 1597.74,772.143 1599.88,772.143 1602.02,772.143 1604.15,772.143 1606.29,772.143 1608.43,772.143 1610.57,772.143 1612.71,772.143 1614.85,772.143 
  1616.99,772.143 1619.13,772.143 1621.27,772.143 1623.4,772.143 1625.54,772.143 1627.68,772.143 1629.82,772.143 1631.96,772.143 1634.1,772.143 1636.24,772.143 
  1638.38,493.66 1640.52,493.66 1642.65,493.66 1644.79,493.66 1646.93,493.66 1649.07,493.66 1651.21,493.66 1653.35,493.66 1655.49,493.66 1657.63,493.66 
  1659.76,493.66 1661.9,493.66 1664.04,493.66 1666.18,493.66 1668.32,493.66 1670.46,493.66 1672.6,493.66 1674.74,493.66 1676.88,493.66 1679.01,493.66 
  1681.15,493.66 1683.29,493.66 1685.43,493.66 1687.57,493.66 1689.71,493.66 1691.85,493.66 1693.99,493.66 1696.13,493.66 1698.26,493.66 1700.4,493.66 
  1702.54,493.66 1704.68,493.66 1706.82,493.66 1708.96,493.66 1711.1,493.66 1713.24,493.66 1715.38,493.66 1717.51,493.66 1719.65,493.66 1721.79,493.66 
  1723.93,493.66 1726.07,493.66 1728.21,493.66 1730.35,493.66 1732.49,493.66 1734.62,493.66 1736.76,493.66 1738.9,493.66 1741.04,493.66 1743.18,493.66 
  1745.32,493.66 1747.46,493.66 1749.6,493.66 1751.74,493.66 1753.87,493.66 1756.01,493.66 1758.15,493.66 1760.29,493.66 1762.43,493.66 1764.57,493.66 
  1766.71,407.607 1768.85,407.607 1770.99,407.607 1773.12,407.607 1775.26,407.607 1777.4,407.607 1779.54,407.607 1781.68,407.607 1783.82,407.607 1785.96,407.607 
  1788.1,407.607 1790.24,407.607 1792.37,407.607 1794.51,407.607 1796.65,407.607 1798.79,407.607 1800.93,407.607 1803.07,407.607 1805.21,407.607 1807.35,407.607 
  1809.48,407.607 1811.62,407.607 1813.76,407.607 1815.9,407.607 1818.04,407.607 1820.18,407.607 1822.32,407.607 1824.46,407.607 1826.6,407.607 1828.73,407.607 
  1830.87,407.607 1833.01,407.607 1835.15,407.607 1837.29,407.607 1839.43,407.607 1841.57,407.607 1843.71,407.607 1845.85,407.607 1847.98,407.607 1850.12,407.607 
  1852.26,407.607 1854.4,407.607 1856.54,407.607 1858.68,407.607 1860.82,407.607 1862.96,407.607 1865.1,407.607 1867.23,407.607 1869.37,407.607 1871.51,407.607 
  1873.65,407.607 1875.79,407.607 1877.93,407.607 1880.07,407.607 1882.21,407.607 1884.34,407.607 1886.48,407.607 1888.62,407.607 1890.76,407.607 1892.9,407.607 
  1895.04,408.872 1897.18,408.872 1899.32,408.872 1901.46,408.872 1903.59,408.872 1905.73,408.872 1907.87,408.872 1910.01,408.872 1912.15,408.872 1914.29,408.872 
  1916.43,408.872 1918.57,408.872 1920.71,408.872 1922.84,408.872 1924.98,408.872 1927.12,408.872 1929.26,408.872 1931.4,408.872 1933.54,408.872 1935.68,408.872 
  1937.82,408.872 1939.96,408.872 1942.09,408.872 1944.23,408.872 1946.37,408.872 1948.51,408.872 1950.65,408.872 1952.79,408.872 1954.93,408.872 1957.07,408.872 
  1959.2,408.872 1961.34,408.872 1963.48,408.872 1965.62,408.872 1967.76,408.872 1969.9,408.872 1972.04,408.872 1974.18,408.872 1976.32,408.872 1978.45,408.872 
  1980.59,408.872 1982.73,408.872 1984.87,408.872 1987.01,408.872 1989.15,408.872 1991.29,408.872 1993.43,408.872 1995.57,408.872 1997.7,408.872 1999.84,408.872 
  2001.98,408.872 2004.12,408.872 2006.26,408.872 2008.4,408.872 2010.54,408.872 2012.68,408.872 2014.82,408.872 2016.95,408.872 2019.09,408.872 2021.23,408.872 
  2023.37,426.886 2025.51,426.886 2027.65,426.886 2029.79,426.886 2031.93,426.886 2034.06,426.886 2036.2,426.886 2038.34,426.886 2040.48,426.886 2042.62,426.886 
  2044.76,426.886 2046.9,426.886 2049.04,426.886 2051.18,426.886 2053.31,426.886 2055.45,426.886 2057.59,426.886 2059.73,426.886 2061.87,426.886 2064.01,426.886 
  2066.15,426.886 2068.29,426.886 2070.43,426.886 2072.56,426.886 2074.7,426.886 2076.84,426.886 2078.98,426.886 2081.12,426.886 2083.26,426.886 2085.4,426.886 
  2087.54,426.886 2089.68,426.886 2091.81,426.886 2093.95,426.886 2096.09,426.886 2098.23,426.886 2100.37,426.886 2102.51,426.886 2104.65,426.886 2106.79,426.886 
  2108.92,426.886 2111.06,426.886 2113.2,426.886 2115.34,426.886 2117.48,426.886 2119.62,426.886 2121.76,426.886 2123.9,426.886 2126.04,426.886 2128.17,426.886 
  2130.31,426.886 2132.45,426.886 2134.59,426.886 2136.73,426.886 2138.87,426.886 2141.01,426.886 2143.15,426.886 2145.29,426.886 2147.42,426.886 2149.56,426.886 
  2151.7,519.4 2153.84,519.4 2155.98,519.4 2158.12,519.4 2160.26,519.4 2162.4,519.4 2164.54,519.4 2166.67,519.4 2168.81,519.4 2170.95,519.4 
  2173.09,519.4 2175.23,519.4 2177.37,519.4 2179.51,519.4 2181.65,519.4 2183.78,519.4 2185.92,519.4 2188.06,519.4 2190.2,519.4 2192.34,519.4 
  2194.48,519.4 2196.62,519.4 2198.76,519.4 2200.9,519.4 2203.03,519.4 2205.17,519.4 2207.31,519.4 2209.45,519.4 2211.59,519.4 2213.73,519.4 
  2215.87,519.4 2218.01,519.4 2220.15,519.4 2222.28,519.4 2224.42,519.4 2226.56,519.4 2228.7,519.4 2230.84,519.4 2232.98,519.4 2235.12,519.4 
  2237.26,519.4 2239.4,519.4 2241.53,519.4 2243.67,519.4 2245.81,519.4 2247.95,519.4 2250.09,519.4 2252.23,519.4 2254.37,519.4 2256.51,519.4 
  2258.64,519.4 2260.78,519.4 2262.92,519.4 2265.06,519.4 2267.2,519.4 2269.34,519.4 2271.48,519.4 2273.62,519.4 2275.76,519.4 2277.89,519.4 
  2280.03,573.345 2282.17,573.345 2284.31,573.345 2286.45,573.345 2288.59,573.345 2290.73,573.345 2292.87,573.345 2295.01,573.345 2297.14,573.345 2299.28,573.345 
  2301.42,573.345 2303.56,573.345 2305.7,573.345 2307.84,573.345 2309.98,573.345 2312.12,573.345 2314.26,573.345 2316.39,573.345 2318.53,573.345 2320.67,573.345 
  2322.81,573.345 2324.95,573.345 2327.09,573.345 2329.23,573.345 2331.37,573.345 2333.5,573.345 2335.64,573.345 2337.78,573.345 2339.92,573.345 2342.06,573.345 
  2344.2,573.345 2346.34,573.345 2348.48,573.345 2350.62,573.345 2352.75,573.345 2354.89,573.345 2357.03,573.345 2359.17,573.345 2361.31,573.345 2363.45,573.345 
  2365.59,573.345 2367.73,573.345 2369.87,573.345 2372,573.345 2374.14,573.345 2376.28,573.345 2378.42,573.345 2380.56,573.345 2382.7,573.345 2384.84,573.345 
  2386.98,573.345 2389.12,573.345 2391.25,573.345 2393.39,573.345 2395.53,573.345 2397.67,573.345 2399.81,573.345 2401.95,573.345 2404.09,573.345 2406.23,573.345 
  2408.36,601.515 2410.5,601.515 2412.64,601.515 2414.78,601.515 2416.92,601.515 2419.06,601.515 2421.2,601.515 2423.34,601.515 2425.48,601.515 2427.61,601.515 
  2429.75,601.515 2431.89,601.515 2434.03,601.515 2436.17,601.515 2438.31,601.515 2440.45,601.515 2442.59,601.515 2444.73,601.515 2446.86,601.515 2449,601.515 
  2451.14,601.515 2453.28,601.515 2455.42,601.515 2457.56,601.515 2459.7,601.515 2461.84,601.515 2463.98,601.515 2466.11,601.515 2468.25,601.515 2470.39,601.515 
  2472.53,601.515 2474.67,601.515 2476.81,601.515 2478.95,601.515 2481.09,601.515 2483.22,601.515 2485.36,601.515 2487.5,601.515 2489.64,601.515 2491.78,601.515 
  2493.92,601.515 2496.06,601.515 2498.2,601.515 2500.34,601.515 2502.47,601.515 2504.61,601.515 2506.75,601.515 2508.89,601.515 2511.03,601.515 2513.17,601.515 
  2515.31,601.515 2517.45,601.515 2519.59,601.515 2521.72,601.515 2523.86,601.515 2526,601.515 2528.14,601.515 2530.28,601.515 2532.42,601.515 2534.56,601.515 
  2536.7,680.042 2538.84,680.042 2540.97,680.042 2543.11,680.042 2545.25,680.042 2547.39,680.042 2549.53,680.042 2551.67,680.042 2553.81,680.042 2555.95,680.042 
  2558.08,680.042 2560.22,680.042 2562.36,680.042 2564.5,680.042 2566.64,680.042 2568.78,680.042 2570.92,680.042 2573.06,680.042 2575.2,680.042 2577.33,680.042 
  2579.47,680.042 2581.61,680.042 2583.75,680.042 2585.89,680.042 2588.03,680.042 2590.17,680.042 2592.31,680.042 2594.45,680.042 2596.58,680.042 2598.72,680.042 
  2600.86,680.042 2603,680.042 2605.14,680.042 2607.28,680.042 2609.42,680.042 2611.56,680.042 2613.7,680.042 2615.83,680.042 2617.97,680.042 2620.11,680.042 
  2622.25,680.042 2624.39,680.042 2626.53,680.042 2628.67,680.042 2630.81,680.042 2632.94,680.042 2635.08,680.042 2637.22,680.042 2639.36,680.042 2641.5,680.042 
  2643.64,680.042 2645.78,680.042 2647.92,680.042 2650.06,680.042 2652.19,680.042 2654.33,680.042 2656.47,680.042 2658.61,680.042 2660.75,680.042 2662.89,680.042 
  2665.03,921.884 2667.17,921.884 2669.31,921.884 2671.44,921.884 2673.58,921.884 2675.72,921.884 2677.86,921.884 2680,921.884 2682.14,921.884 2684.28,921.884 
  2686.42,921.884 2688.56,921.884 2690.69,921.884 2692.83,921.884 2694.97,921.884 2697.11,921.884 2699.25,921.884 2701.39,921.884 2703.53,921.884 2705.67,921.884 
  2707.8,921.884 2709.94,921.884 2712.08,921.884 2714.22,921.884 2716.36,921.884 2718.5,921.884 2720.64,921.884 2722.78,921.884 2724.92,921.884 2727.05,921.884 
  2729.19,921.884 2731.33,921.884 2733.47,921.884 2735.61,921.884 2737.75,921.884 2739.89,921.884 2742.03,921.884 2744.17,921.884 2746.3,921.884 2748.44,921.884 
  2750.58,921.884 2752.72,921.884 2754.86,921.884 2757,921.884 2759.14,921.884 2761.28,921.884 2763.42,921.884 2765.55,921.884 2767.69,921.884 2769.83,921.884 
  2771.97,921.884 2774.11,921.884 2776.25,921.884 2778.39,921.884 2780.53,921.884 2782.66,921.884 2784.8,921.884 2786.94,921.884 2789.08,921.884 2791.22,921.884 
  2793.36,1106.57 2795.5,1106.57 2797.64,1106.57 2799.78,1106.57 2801.91,1106.57 2804.05,1106.57 2806.19,1106.57 2808.33,1106.57 2810.47,1106.57 2812.61,1106.57 
  2814.75,1106.57 2816.89,1106.57 2819.03,1106.57 2821.16,1106.57 2823.3,1106.57 2825.44,1106.57 2827.58,1106.57 2829.72,1106.57 2831.86,1106.57 2834,1106.57 
  2836.14,1106.57 2838.28,1106.57 2840.41,1106.57 2842.55,1106.57 2844.69,1106.57 2846.83,1106.57 2848.97,1106.57 2851.11,1106.57 2853.25,1106.57 2855.39,1106.57 
  2857.52,1106.57 2859.66,1106.57 2861.8,1106.57 2863.94,1106.57 2866.08,1106.57 2868.22,1106.57 2870.36,1106.57 2872.5,1106.57 2874.64,1106.57 2876.77,1106.57 
  2878.91,1106.57 2881.05,1106.57 2883.19,1106.57 2885.33,1106.57 2887.47,1106.57 2889.61,1106.57 2891.75,1106.57 2893.89,1106.57 2896.02,1106.57 2898.16,1106.57 
  2900.3,1106.57 2902.44,1106.57 2904.58,1106.57 2906.72,1106.57 2908.86,1106.57 2911,1106.57 2913.14,1106.57 2915.27,1106.57 2917.41,1106.57 2919.55,1106.57 
  2921.69,1219.09 2923.83,1219.09 2925.97,1219.09 2928.11,1219.09 2930.25,1219.09 2932.38,1219.09 2934.52,1219.09 2936.66,1219.09 2938.8,1219.09 2940.94,1219.09 
  2943.08,1219.09 2945.22,1219.09 2947.36,1219.09 2949.5,1219.09 2951.63,1219.09 2953.77,1219.09 2955.91,1219.09 2958.05,1219.09 2960.19,1219.09 2962.33,1219.09 
  2964.47,1219.09 2966.61,1219.09 2968.75,1219.09 2970.88,1219.09 2973.02,1219.09 2975.16,1219.09 2977.3,1219.09 2979.44,1219.09 2981.58,1219.09 2983.72,1219.09 
  2985.86,1219.09 2988,1219.09 2990.13,1219.09 2992.27,1219.09 2994.41,1219.09 2996.55,1219.09 2998.69,1219.09 3000.83,1219.09 3002.97,1219.09 3005.11,1219.09 
  3007.24,1219.09 3009.38,1219.09 3011.52,1219.09 3013.66,1219.09 3015.8,1219.09 3017.94,1219.09 3020.08,1219.09 3022.22,1219.09 3024.36,1219.09 3026.49,1219.09 
  3028.63,1219.09 3030.77,1219.09 3032.91,1219.09 3035.05,1219.09 3037.19,1219.09 3039.33,1219.09 3041.47,1219.09 3043.61,1219.09 3045.74,1219.09 3047.88,1219.09 
  3050.02,1268.87 3052.16,1268.87 3054.3,1268.87 3056.44,1268.87 3058.58,1268.87 3060.72,1268.87 3062.86,1268.87 3064.99,1268.87 3067.13,1268.87 3069.27,1268.87 
  3071.41,1268.87 3073.55,1268.87 3075.69,1268.87 3077.83,1268.87 3079.97,1268.87 3082.1,1268.87 3084.24,1268.87 3086.38,1268.87 3088.52,1268.87 3090.66,1268.87 
  3092.8,1268.87 3094.94,1268.87 3097.08,1268.87 3099.22,1268.87 3101.35,1268.87 3103.49,1268.87 3105.63,1268.87 3107.77,1268.87 3109.91,1268.87 3112.05,1268.87 
  3114.19,1268.87 3116.33,1268.87 3118.47,1268.87 3120.6,1268.87 3122.74,1268.87 3124.88,1268.87 3127.02,1268.87 3129.16,1268.87 3131.3,1268.87 3133.44,1268.87 
  3135.58,1268.87 3137.72,1268.87 3139.85,1268.87 3141.99,1268.87 3144.13,1268.87 3146.27,1268.87 3148.41,1268.87 3150.55,1268.87 3152.69,1268.87 3154.83,1268.87 
  3156.96,1268.87 3159.1,1268.87 3161.24,1268.87 3163.38,1268.87 3165.52,1268.87 3167.66,1268.87 3169.8,1268.87 3171.94,1268.87 3174.08,1268.87 3176.21,1268.87 
  3178.35,1324.98 3180.49,1324.98 3182.63,1324.98 3184.77,1324.98 3186.91,1324.98 3189.05,1324.98 3191.19,1324.98 3193.33,1324.98 3195.46,1324.98 3197.6,1324.98 
  3199.74,1324.98 3201.88,1324.98 3204.02,1324.98 3206.16,1324.98 3208.3,1324.98 3210.44,1324.98 3212.58,1324.98 3214.71,1324.98 3216.85,1324.98 3218.99,1324.98 
  3221.13,1324.98 3223.27,1324.98 3225.41,1324.98 3227.55,1324.98 3229.69,1324.98 3231.82,1324.98 3233.96,1324.98 3236.1,1324.98 3238.24,1324.98 3240.38,1324.98 
  3242.52,1324.98 3244.66,1324.98 3246.8,1324.98 3248.94,1324.98 3251.07,1324.98 3253.21,1324.98 3255.35,1324.98 3257.49,1324.98 3259.63,1324.98 3261.77,1324.98 
  3263.91,1324.98 3266.05,1324.98 3268.19,1324.98 3270.32,1324.98 3272.46,1324.98 3274.6,1324.98 3276.74,1324.98 3278.88,1324.98 3281.02,1324.98 3283.16,1324.98 
  3285.3,1324.98 3287.44,1324.98 3289.57,1324.98 3291.71,1324.98 3293.85,1324.98 3295.99,1324.98 3298.13,1324.98 3300.27,1324.98 3302.41,1324.98 3304.55,1324.98 
  3306.68,1397.83 3308.82,1397.83 3310.96,1397.83 3313.1,1397.83 3315.24,1397.83 3317.38,1397.83 3319.52,1397.83 3321.66,1397.83 3323.8,1397.83 3325.93,1397.83 
  3328.07,1397.83 3330.21,1397.83 3332.35,1397.83 3334.49,1397.83 3336.63,1397.83 3338.77,1397.83 3340.91,1397.83 3343.05,1397.83 3345.18,1397.83 3347.32,1397.83 
  3349.46,1397.83 3351.6,1397.83 3353.74,1397.83 3355.88,1397.83 3358.02,1397.83 3360.16,1397.83 3362.3,1397.83 3364.43,1397.83 3366.57,1397.83 3368.71,1397.83 
  3370.85,1397.83 3372.99,1397.83 3375.13,1397.83 3377.27,1397.83 3379.41,1397.83 3381.54,1397.83 3383.68,1397.83 3385.82,1397.83 3387.96,1397.83 3390.1,1397.83 
  3392.24,1397.83 3394.38,1397.83 3396.52,1397.83 3398.66,1397.83 3400.79,1397.83 3402.93,1397.83 3405.07,1397.83 3407.21,1397.83 3409.35,1397.83 3411.49,1397.83 
  3413.63,1397.83 3415.77,1397.83 3417.91,1397.83 3420.04,1397.83 3422.18,1397.83 3424.32,1397.83 3426.46,1397.83 3428.6,1397.83 3430.74,1397.83 3432.88,1397.83 
  3435.02,1440.71 3437.16,1440.71 3439.29,1440.71 3441.43,1440.71 3443.57,1440.71 3445.71,1440.71 3447.85,1440.71 3449.99,1440.71 3452.13,1440.71 3454.27,1440.71 
  3456.4,1440.71 3458.54,1440.71 3460.68,1440.71 3462.82,1440.71 3464.96,1440.71 3467.1,1440.71 3469.24,1440.71 3471.38,1440.71 3473.52,1440.71 3475.65,1440.71 
  3477.79,1440.71 3479.93,1440.71 3482.07,1440.71 3484.21,1440.71 3486.35,1440.71 3488.49,1440.71 3490.63,1440.71 3492.77,1440.71 3494.9,1440.71 3497.04,1440.71 
  3499.18,1440.71 3501.32,1440.71 3503.46,1440.71 3505.6,1440.71 3507.74,1440.71 3509.88,1440.71 3512.02,1440.71 3514.15,1440.71 3516.29,1440.71 3518.43,1440.71 
  3520.57,1440.71 3522.71,1440.71 3524.85,1440.71 3526.99,1440.71 3529.13,1440.71 3531.26,1440.71 3533.4,1440.71 3535.54,1440.71 3537.68,1440.71 3539.82,1440.71 
  3541.96,1440.71 3544.1,1440.71 3546.24,1440.71 3548.38,1440.71 3550.51,1440.71 3552.65,1440.71 3554.79,1440.71 3556.93,1440.71 3559.07,1440.71 3561.21,1440.71 
  
  "/>
<polygon clip-path="url(#clip9800)" points="
511.059,655.776 1462.73,655.776 1462.73,353.376 511.059,353.376 
  " fill="#000000" fill-rule="evenodd" fill-opacity="0"/>
<polyline clip-path="url(#clip9800)" style="stroke:#000000; stroke-width:4; stroke-opacity:1; fill:none" points="
  511.059,655.776 1462.73,655.776 1462.73,353.376 511.059,353.376 511.059,655.776 
  "/>
<polyline clip-path="url(#clip9800)" style="stroke:#000000; stroke-width:4; stroke-opacity:1; fill:none" points="
  551.059,428.976 791.059,428.976 
  "/>
<g clip-path="url(#clip9800)">
<text style="fill:#000000; fill-opacity:1; font-family:Arial,Helvetica Neue,Helvetica,sans-serif; font-size:59px; text-anchor:start;" transform="rotate(0, 831.059, 450.476)" x="831.059" y="450.476">Arrival Rate</text>
</g>
<polyline clip-path="url(#clip9800)" style="stroke:#ff0000; stroke-width:4; stroke-opacity:1; fill:none" points="
  551.059,504.576 791.059,504.576 
  "/>
<g clip-path="url(#clip9800)">
<text style="fill:#000000; fill-opacity:1; font-family:Arial,Helvetica Neue,Helvetica,sans-serif; font-size:59px; text-anchor:start;" transform="rotate(0, 831.059, 526.076)" x="831.059" y="526.076">Service Completions</text>
</g>
<polyline clip-path="url(#clip9800)" style="stroke:#4682b3; stroke-width:4; stroke-opacity:1; fill:none" points="
  551.059,580.176 791.059,580.176 
  "/>
<g clip-path="url(#clip9800)">
<text style="fill:#000000; fill-opacity:1; font-family:Arial,Helvetica Neue,Helvetica,sans-serif; font-size:59px; text-anchor:start;" transform="rotate(0, 831.059, 601.676)" x="831.059" y="601.676">Number of Servers</text>
</g>
<g clip-path="url(#clip9800)">
<text style="fill:#000000; fill-opacity:1; font-family:Arial,Helvetica Neue,Helvetica,sans-serif; font-size:95px; text-anchor:middle;" transform="rotate(-90, 3980.7, 848.445)" x="3980.7" y="848.445">Number of Servers</text>
</g>
<polygon clip-path="url(#clip9800)" points="
391.059,1671.5 3653.54,1671.5 3653.54,188.976 391.059,188.976 
  " fill="#000000" fill-rule="evenodd" fill-opacity="0"/>
<polyline clip-path="url(#clip9800)" style="stroke:#000000; stroke-width:4; stroke-opacity:1; fill:none" points="
  391.059,1671.5 3653.54,1671.5 
  "/>
<polyline clip-path="url(#clip9800)" style="stroke:#000000; stroke-width:4; stroke-opacity:1; fill:none" points="
  3653.54,1671.5 3653.54,188.976 
  "/>
<polyline clip-path="url(#clip9800)" style="stroke:#000000; stroke-width:4; stroke-opacity:1; fill:none" points="
  481.255,1671.5 481.255,1649.27 
  "/>
<polyline clip-path="url(#clip9800)" style="stroke:#000000; stroke-width:4; stroke-opacity:1; fill:none" points="
  994.58,1671.5 994.58,1649.27 
  "/>
<polyline clip-path="url(#clip9800)" style="stroke:#000000; stroke-width:4; stroke-opacity:1; fill:none" points="
  1507.91,1671.5 1507.91,1649.27 
  "/>
<polyline clip-path="url(#clip9800)" style="stroke:#000000; stroke-width:4; stroke-opacity:1; fill:none" points="
  2021.23,1671.5 2021.23,1649.27 
  "/>
<polyline clip-path="url(#clip9800)" style="stroke:#000000; stroke-width:4; stroke-opacity:1; fill:none" points="
  2534.56,1671.5 2534.56,1649.27 
  "/>
<polyline clip-path="url(#clip9800)" style="stroke:#000000; stroke-width:4; stroke-opacity:1; fill:none" points="
  3047.88,1671.5 3047.88,1649.27 
  "/>
<polyline clip-path="url(#clip9800)" style="stroke:#000000; stroke-width:4; stroke-opacity:1; fill:none" points="
  3561.21,1671.5 3561.21,1649.27 
  "/>
<polyline clip-path="url(#clip9800)" style="stroke:#000000; stroke-width:4; stroke-opacity:1; fill:none" points="
  3653.54,1634.99 3604.61,1634.99 
  "/>
<polyline clip-path="url(#clip9800)" style="stroke:#000000; stroke-width:4; stroke-opacity:1; fill:none" points="
  3653.54,1362.88 3604.61,1362.88 
  "/>
<polyline clip-path="url(#clip9800)" style="stroke:#000000; stroke-width:4; stroke-opacity:1; fill:none" points="
  3653.54,1090.78 3604.61,1090.78 
  "/>
<polyline clip-path="url(#clip9800)" style="stroke:#000000; stroke-width:4; stroke-opacity:1; fill:none" points="
  3653.54,818.677 3604.61,818.677 
  "/>
<polyline clip-path="url(#clip9800)" style="stroke:#000000; stroke-width:4; stroke-opacity:1; fill:none" points="
  3653.54,546.574 3604.61,546.574 
  "/>
<polyline clip-path="url(#clip9800)" style="stroke:#000000; stroke-width:4; stroke-opacity:1; fill:none" points="
  3653.54,274.471 3604.61,274.471 
  "/>
<g clip-path="url(#clip9800)">
<text style="fill:#000000; fill-opacity:1; font-family:Arial,Helvetica Neue,Helvetica,sans-serif; font-size:71px; text-anchor:middle;" transform="rotate(0, 481.255, 1753.9)" x="481.255" y="1753.9">0</text>
</g>
<g clip-path="url(#clip9800)">
<text style="fill:#000000; fill-opacity:1; font-family:Arial,Helvetica Neue,Helvetica,sans-serif; font-size:71px; text-anchor:middle;" transform="rotate(0, 994.58, 1753.9)" x="994.58" y="1753.9">4</text>
</g>
<g clip-path="url(#clip9800)">
<text style="fill:#000000; fill-opacity:1; font-family:Arial,Helvetica Neue,Helvetica,sans-serif; font-size:71px; text-anchor:middle;" transform="rotate(0, 1507.91, 1753.9)" x="1507.91" y="1753.9">8</text>
</g>
<g clip-path="url(#clip9800)">
<text style="fill:#000000; fill-opacity:1; font-family:Arial,Helvetica Neue,Helvetica,sans-serif; font-size:71px; text-anchor:middle;" transform="rotate(0, 2021.23, 1753.9)" x="2021.23" y="1753.9">12</text>
</g>
<g clip-path="url(#clip9800)">
<text style="fill:#000000; fill-opacity:1; font-family:Arial,Helvetica Neue,Helvetica,sans-serif; font-size:71px; text-anchor:middle;" transform="rotate(0, 2534.56, 1753.9)" x="2534.56" y="1753.9">16</text>
</g>
<g clip-path="url(#clip9800)">
<text style="fill:#000000; fill-opacity:1; font-family:Arial,Helvetica Neue,Helvetica,sans-serif; font-size:71px; text-anchor:middle;" transform="rotate(0, 3047.88, 1753.9)" x="3047.88" y="1753.9">20</text>
</g>
<g clip-path="url(#clip9800)">
<text style="fill:#000000; fill-opacity:1; font-family:Arial,Helvetica Neue,Helvetica,sans-serif; font-size:71px; text-anchor:middle;" transform="rotate(0, 3561.21, 1753.9)" x="3561.21" y="1753.9">24</text>
</g>
<g clip-path="url(#clip9800)">
<text style="fill:#000000; fill-opacity:1; font-family:Arial,Helvetica Neue,Helvetica,sans-serif; font-size:71px; text-anchor:start;" transform="rotate(0, 3693.54, 1660.99)" x="3693.54" y="1660.99">0</text>
</g>
<g clip-path="url(#clip9800)">
<text style="fill:#000000; fill-opacity:1; font-family:Arial,Helvetica Neue,Helvetica,sans-serif; font-size:71px; text-anchor:start;" transform="rotate(0, 3693.54, 1388.88)" x="3693.54" y="1388.88">50</text>
</g>
<g clip-path="url(#clip9800)">
<text style="fill:#000000; fill-opacity:1; font-family:Arial,Helvetica Neue,Helvetica,sans-serif; font-size:71px; text-anchor:start;" transform="rotate(0, 3693.54, 1116.78)" x="3693.54" y="1116.78">100</text>
</g>
<g clip-path="url(#clip9800)">
<text style="fill:#000000; fill-opacity:1; font-family:Arial,Helvetica Neue,Helvetica,sans-serif; font-size:71px; text-anchor:start;" transform="rotate(0, 3693.54, 844.677)" x="3693.54" y="844.677">150</text>
</g>
<g clip-path="url(#clip9800)">
<text style="fill:#000000; fill-opacity:1; font-family:Arial,Helvetica Neue,Helvetica,sans-serif; font-size:71px; text-anchor:start;" transform="rotate(0, 3693.54, 572.574)" x="3693.54" y="572.574">200</text>
</g>
<g clip-path="url(#clip9800)">
<text style="fill:#000000; fill-opacity:1; font-family:Arial,Helvetica Neue,Helvetica,sans-serif; font-size:71px; text-anchor:start;" transform="rotate(0, 3693.54, 300.471)" x="3693.54" y="300.471">250</text>
</g>
<polyline clip-path="url(#clip9802)" style="stroke:#4682b3; stroke-width:4; stroke-opacity:1; fill:none" points="
  483.394,1624.1 485.532,1624.1 487.671,1624.1 489.81,1624.1 491.949,1624.1 494.088,1624.1 496.227,1624.1 498.366,1624.1 500.504,1624.1 502.643,1624.1 
  504.782,1624.1 506.921,1624.1 509.06,1624.1 511.199,1624.1 513.338,1624.1 515.476,1624.1 517.615,1624.1 519.754,1624.1 521.893,1624.1 524.032,1624.1 
  526.171,1624.1 528.31,1624.1 530.448,1624.1 532.587,1624.1 534.726,1624.1 536.865,1624.1 539.004,1624.1 541.143,1624.1 543.282,1624.1 545.42,1624.1 
  547.559,1624.1 549.698,1624.1 551.837,1624.1 553.976,1624.1 556.115,1624.1 558.254,1624.1 560.392,1624.1 562.531,1624.1 564.67,1624.1 566.809,1624.1 
  568.948,1624.1 571.087,1624.1 573.226,1624.1 575.364,1624.1 577.503,1624.1 579.642,1624.1 581.781,1624.1 583.92,1624.1 586.059,1624.1 588.198,1624.1 
  590.336,1624.1 592.475,1624.1 594.614,1624.1 596.753,1624.1 598.892,1624.1 601.031,1624.1 603.17,1624.1 605.308,1624.1 607.447,1624.1 609.586,1624.1 
  611.725,1624.1 613.864,1624.1 616.003,1624.1 618.142,1624.1 620.28,1624.1 622.419,1624.1 624.558,1624.1 626.697,1624.1 628.836,1624.1 630.975,1624.1 
  633.114,1624.1 635.252,1624.1 637.391,1624.1 639.53,1624.1 641.669,1624.1 643.808,1624.1 645.947,1624.1 648.086,1624.1 650.224,1624.1 652.363,1624.1 
  654.502,1624.1 656.641,1624.1 658.78,1624.1 660.919,1624.1 663.058,1624.1 665.196,1624.1 667.335,1624.1 669.474,1624.1 671.613,1624.1 673.752,1624.1 
  675.891,1624.1 678.03,1624.1 680.168,1624.1 682.307,1624.1 684.446,1624.1 686.585,1624.1 688.724,1624.1 690.863,1624.1 693.002,1624.1 695.14,1624.1 
  697.279,1624.1 699.418,1624.1 701.557,1624.1 703.696,1624.1 705.835,1624.1 707.974,1624.1 710.112,1624.1 712.251,1624.1 714.39,1624.1 716.529,1624.1 
  718.668,1624.1 720.807,1624.1 722.946,1624.1 725.084,1624.1 727.223,1624.1 729.362,1624.1 731.501,1624.1 733.64,1624.1 735.779,1624.1 737.918,1624.1 
  740.056,1624.1 742.195,1624.1 744.334,1624.1 746.473,1624.1 748.612,1624.1 750.751,1624.1 752.89,1624.1 755.028,1624.1 757.167,1624.1 759.306,1624.1 
  761.445,1624.1 763.584,1624.1 765.723,1624.1 767.862,1624.1 770,1624.1 772.139,1624.1 774.278,1624.1 776.417,1624.1 778.556,1624.1 780.695,1624.1 
  782.834,1624.1 784.972,1624.1 787.111,1624.1 789.25,1624.1 791.389,1624.1 793.528,1624.1 795.667,1624.1 797.806,1624.1 799.944,1624.1 802.083,1624.1 
  804.222,1624.1 806.361,1624.1 808.5,1624.1 810.639,1624.1 812.778,1624.1 814.916,1624.1 817.055,1624.1 819.194,1624.1 821.333,1624.1 823.472,1624.1 
  825.611,1624.1 827.75,1624.1 829.888,1624.1 832.027,1624.1 834.166,1624.1 836.305,1624.1 838.444,1624.1 840.583,1624.1 842.722,1624.1 844.86,1624.1 
  846.999,1624.1 849.138,1624.1 851.277,1624.1 853.416,1624.1 855.555,1624.1 857.694,1624.1 859.832,1624.1 861.971,1624.1 864.11,1624.1 866.249,1624.1 
  868.388,1629.54 870.527,1629.54 872.666,1629.54 874.804,1629.54 876.943,1629.54 879.082,1629.54 881.221,1629.54 883.36,1629.54 885.499,1629.54 887.638,1629.54 
  889.776,1629.54 891.915,1629.54 894.054,1629.54 896.193,1629.54 898.332,1629.54 900.471,1629.54 902.61,1629.54 904.748,1629.54 906.887,1629.54 909.026,1629.54 
  911.165,1629.54 913.304,1629.54 915.443,1629.54 917.582,1629.54 919.72,1629.54 921.859,1629.54 923.998,1629.54 926.137,1629.54 928.276,1629.54 930.415,1629.54 
  932.554,1629.54 934.692,1629.54 936.831,1629.54 938.97,1629.54 941.109,1629.54 943.248,1629.54 945.387,1629.54 947.526,1629.54 949.664,1629.54 951.803,1629.54 
  953.942,1629.54 956.081,1629.54 958.22,1629.54 960.359,1629.54 962.498,1629.54 964.636,1629.54 966.775,1629.54 968.914,1629.54 971.053,1629.54 973.192,1629.54 
  975.331,1629.54 977.47,1629.54 979.608,1629.54 981.747,1629.54 983.886,1629.54 986.025,1629.54 988.164,1629.54 990.303,1629.54 992.442,1629.54 994.58,1629.54 
  996.719,1629.54 998.858,1629.54 1001,1629.54 1003.14,1629.54 1005.27,1629.54 1007.41,1629.54 1009.55,1629.54 1011.69,1629.54 1013.83,1629.54 1015.97,1629.54 
  1018.11,1629.54 1020.25,1629.54 1022.39,1629.54 1024.52,1629.54 1026.66,1629.54 1028.8,1629.54 1030.94,1629.54 1033.08,1629.54 1035.22,1629.54 1037.36,1629.54 
  1039.5,1629.54 1041.64,1629.54 1043.77,1629.54 1045.91,1629.54 1048.05,1629.54 1050.19,1629.54 1052.33,1629.54 1054.47,1629.54 1056.61,1629.54 1058.75,1629.54 
  1060.89,1629.54 1063.02,1629.54 1065.16,1629.54 1067.3,1629.54 1069.44,1629.54 1071.58,1629.54 1073.72,1629.54 1075.86,1629.54 1078,1629.54 1080.13,1629.54 
  1082.27,1629.54 1084.41,1629.54 1086.55,1629.54 1088.69,1629.54 1090.83,1629.54 1092.97,1629.54 1095.11,1629.54 1097.25,1629.54 1099.38,1629.54 1101.52,1629.54 
  1103.66,1629.54 1105.8,1629.54 1107.94,1629.54 1110.08,1629.54 1112.22,1629.54 1114.36,1629.54 1116.5,1629.54 1118.63,1629.54 1120.77,1629.54 1122.91,1629.54 
  1125.05,1624.1 1127.19,1624.1 1129.33,1624.1 1131.47,1624.1 1133.61,1624.1 1135.75,1624.1 1137.88,1624.1 1140.02,1624.1 1142.16,1624.1 1144.3,1624.1 
  1146.44,1624.1 1148.58,1624.1 1150.72,1624.1 1152.86,1624.1 1154.99,1624.1 1157.13,1624.1 1159.27,1624.1 1161.41,1624.1 1163.55,1624.1 1165.69,1624.1 
  1167.83,1624.1 1169.97,1624.1 1172.11,1624.1 1174.24,1624.1 1176.38,1624.1 1178.52,1624.1 1180.66,1624.1 1182.8,1624.1 1184.94,1624.1 1187.08,1624.1 
  1189.22,1624.1 1191.36,1624.1 1193.49,1624.1 1195.63,1624.1 1197.77,1624.1 1199.91,1624.1 1202.05,1624.1 1204.19,1624.1 1206.33,1624.1 1208.47,1624.1 
  1210.61,1624.1 1212.74,1624.1 1214.88,1624.1 1217.02,1624.1 1219.16,1624.1 1221.3,1624.1 1223.44,1624.1 1225.58,1624.1 1227.72,1624.1 1229.85,1624.1 
  1231.99,1624.1 1234.13,1624.1 1236.27,1624.1 1238.41,1624.1 1240.55,1624.1 1242.69,1624.1 1244.83,1624.1 1246.97,1624.1 1249.1,1624.1 1251.24,1624.1 
  1253.38,1504.38 1255.52,1504.38 1257.66,1504.38 1259.8,1504.38 1261.94,1504.38 1264.08,1504.38 1266.22,1504.38 1268.35,1504.38 1270.49,1504.38 1272.63,1504.38 
  1274.77,1504.38 1276.91,1504.38 1279.05,1504.38 1281.19,1504.38 1283.33,1504.38 1285.47,1504.38 1287.6,1504.38 1289.74,1504.38 1291.88,1504.38 1294.02,1504.38 
  1296.16,1504.38 1298.3,1504.38 1300.44,1504.38 1302.58,1504.38 1304.71,1504.38 1306.85,1504.38 1308.99,1504.38 1311.13,1504.38 1313.27,1504.38 1315.41,1504.38 
  1317.55,1504.38 1319.69,1504.38 1321.83,1504.38 1323.96,1504.38 1326.1,1504.38 1328.24,1504.38 1330.38,1504.38 1332.52,1504.38 1334.66,1504.38 1336.8,1504.38 
  1338.94,1504.38 1341.08,1504.38 1343.21,1504.38 1345.35,1504.38 1347.49,1504.38 1349.63,1504.38 1351.77,1504.38 1353.91,1504.38 1356.05,1504.38 1358.19,1504.38 
  1360.33,1504.38 1362.46,1504.38 1364.6,1504.38 1366.74,1504.38 1368.88,1504.38 1371.02,1504.38 1373.16,1504.38 1375.3,1504.38 1377.44,1504.38 1379.57,1504.38 
  1381.71,1166.97 1383.85,1166.97 1385.99,1166.97 1388.13,1166.97 1390.27,1166.97 1392.41,1166.97 1394.55,1166.97 1396.69,1166.97 1398.82,1166.97 1400.96,1166.97 
  1403.1,1166.97 1405.24,1166.97 1407.38,1166.97 1409.52,1166.97 1411.66,1166.97 1413.8,1166.97 1415.94,1166.97 1418.07,1166.97 1420.21,1166.97 1422.35,1166.97 
  1424.49,1166.97 1426.63,1166.97 1428.77,1166.97 1430.91,1166.97 1433.05,1166.97 1435.19,1166.97 1437.32,1166.97 1439.46,1166.97 1441.6,1166.97 1443.74,1166.97 
  1445.88,1166.97 1448.02,1166.97 1450.16,1166.97 1452.3,1166.97 1454.43,1166.97 1456.57,1166.97 1458.71,1166.97 1460.85,1166.97 1462.99,1166.97 1465.13,1166.97 
  1467.27,1166.97 1469.41,1166.97 1471.55,1166.97 1473.68,1166.97 1475.82,1166.97 1477.96,1166.97 1480.1,1166.97 1482.24,1166.97 1484.38,1166.97 1486.52,1166.97 
  1488.66,1166.97 1490.8,1166.97 1492.93,1166.97 1495.07,1166.97 1497.21,1166.97 1499.35,1166.97 1501.49,1166.97 1503.63,1166.97 1505.77,1166.97 1507.91,1166.97 
  1510.04,660.858 1512.18,660.858 1514.32,660.858 1516.46,660.858 1518.6,660.858 1520.74,660.858 1522.88,660.858 1525.02,660.858 1527.16,660.858 1529.29,660.858 
  1531.43,660.858 1533.57,660.858 1535.71,660.858 1537.85,660.858 1539.99,660.858 1542.13,660.858 1544.27,660.858 1546.41,660.858 1548.54,660.858 1550.68,660.858 
  1552.82,660.858 1554.96,660.858 1557.1,660.858 1559.24,660.858 1561.38,660.858 1563.52,660.858 1565.66,660.858 1567.79,660.858 1569.93,660.858 1572.07,660.858 
  1574.21,660.858 1576.35,660.858 1578.49,660.858 1580.63,660.858 1582.77,660.858 1584.9,660.858 1587.04,660.858 1589.18,660.858 1591.32,660.858 1593.46,660.858 
  1595.6,660.858 1597.74,660.858 1599.88,660.858 1602.02,660.858 1604.15,660.858 1606.29,660.858 1608.43,660.858 1610.57,660.858 1612.71,660.858 1614.85,660.858 
  1616.99,660.858 1619.13,660.858 1621.27,660.858 1623.4,660.858 1625.54,660.858 1627.68,660.858 1629.82,660.858 1631.96,660.858 1634.1,660.858 1636.24,660.858 
  1638.38,290.797 1640.52,290.797 1642.65,290.797 1644.79,290.797 1646.93,290.797 1649.07,290.797 1651.21,290.797 1653.35,290.797 1655.49,290.797 1657.63,290.797 
  1659.76,290.797 1661.9,290.797 1664.04,290.797 1666.18,290.797 1668.32,290.797 1670.46,290.797 1672.6,290.797 1674.74,290.797 1676.88,290.797 1679.01,290.797 
  1681.15,290.797 1683.29,290.797 1685.43,290.797 1687.57,290.797 1689.71,290.797 1691.85,290.797 1693.99,290.797 1696.13,290.797 1698.26,290.797 1700.4,290.797 
  1702.54,290.797 1704.68,290.797 1706.82,290.797 1708.96,290.797 1711.1,290.797 1713.24,290.797 1715.38,290.797 1717.51,290.797 1719.65,290.797 1721.79,290.797 
  1723.93,290.797 1726.07,290.797 1728.21,290.797 1730.35,290.797 1732.49,290.797 1734.62,290.797 1736.76,290.797 1738.9,290.797 1741.04,290.797 1743.18,290.797 
  1745.32,290.797 1747.46,290.797 1749.6,290.797 1751.74,290.797 1753.87,290.797 1756.01,290.797 1758.15,290.797 1760.29,290.797 1762.43,290.797 1764.57,290.797 
  1766.71,230.935 1768.85,230.935 1770.99,230.935 1773.12,230.935 1775.26,230.935 1777.4,230.935 1779.54,230.935 1781.68,230.935 1783.82,230.935 1785.96,230.935 
  1788.1,230.935 1790.24,230.935 1792.37,230.935 1794.51,230.935 1796.65,230.935 1798.79,230.935 1800.93,230.935 1803.07,230.935 1805.21,230.935 1807.35,230.935 
  1809.48,230.935 1811.62,230.935 1813.76,230.935 1815.9,230.935 1818.04,230.935 1820.18,230.935 1822.32,230.935 1824.46,230.935 1826.6,230.935 1828.73,230.935 
  1830.87,230.935 1833.01,230.935 1835.15,230.935 1837.29,230.935 1839.43,230.935 1841.57,230.935 1843.71,230.935 1845.85,230.935 1847.98,230.935 1850.12,230.935 
  1852.26,230.935 1854.4,230.935 1856.54,230.935 1858.68,230.935 1860.82,230.935 1862.96,230.935 1865.1,230.935 1867.23,230.935 1869.37,230.935 1871.51,230.935 
  1873.65,230.935 1875.79,230.935 1877.93,230.935 1880.07,230.935 1882.21,230.935 1884.34,230.935 1886.48,230.935 1888.62,230.935 1890.76,230.935 1892.9,230.935 
  1895.04,252.703 1897.18,252.703 1899.32,252.703 1901.46,252.703 1903.59,252.703 1905.73,252.703 1907.87,252.703 1910.01,252.703 1912.15,252.703 1914.29,252.703 
  1916.43,252.703 1918.57,252.703 1920.71,252.703 1922.84,252.703 1924.98,252.703 1927.12,252.703 1929.26,252.703 1931.4,252.703 1933.54,252.703 1935.68,252.703 
  1937.82,252.703 1939.96,252.703 1942.09,252.703 1944.23,252.703 1946.37,252.703 1948.51,252.703 1950.65,252.703 1952.79,252.703 1954.93,252.703 1957.07,252.703 
  1959.2,252.703 1961.34,252.703 1963.48,252.703 1965.62,252.703 1967.76,252.703 1969.9,252.703 1972.04,252.703 1974.18,252.703 1976.32,252.703 1978.45,252.703 
  1980.59,252.703 1982.73,252.703 1984.87,252.703 1987.01,252.703 1989.15,252.703 1991.29,252.703 1993.43,252.703 1995.57,252.703 1997.7,252.703 1999.84,252.703 
  2001.98,252.703 2004.12,252.703 2006.26,252.703 2008.4,252.703 2010.54,252.703 2012.68,252.703 2014.82,252.703 2016.95,252.703 2019.09,252.703 2021.23,252.703 
  2023.37,290.797 2025.51,290.797 2027.65,290.797 2029.79,290.797 2031.93,290.797 2034.06,290.797 2036.2,290.797 2038.34,290.797 2040.48,290.797 2042.62,290.797 
  2044.76,290.797 2046.9,290.797 2049.04,290.797 2051.18,290.797 2053.31,290.797 2055.45,290.797 2057.59,290.797 2059.73,290.797 2061.87,290.797 2064.01,290.797 
  2066.15,290.797 2068.29,290.797 2070.43,290.797 2072.56,290.797 2074.7,290.797 2076.84,290.797 2078.98,290.797 2081.12,290.797 2083.26,290.797 2085.4,290.797 
  2087.54,290.797 2089.68,290.797 2091.81,290.797 2093.95,290.797 2096.09,290.797 2098.23,290.797 2100.37,290.797 2102.51,290.797 2104.65,290.797 2106.79,290.797 
  2108.92,290.797 2111.06,290.797 2113.2,290.797 2115.34,290.797 2117.48,290.797 2119.62,290.797 2121.76,290.797 2123.9,290.797 2126.04,290.797 2128.17,290.797 
  2130.31,290.797 2132.45,290.797 2134.59,290.797 2136.73,290.797 2138.87,290.797 2141.01,290.797 2143.15,290.797 2145.29,290.797 2147.42,290.797 2149.56,290.797 
  2151.7,323.45 2153.84,323.45 2155.98,323.45 2158.12,323.45 2160.26,323.45 2162.4,323.45 2164.54,323.45 2166.67,323.45 2168.81,323.45 2170.95,323.45 
  2173.09,323.45 2175.23,323.45 2177.37,323.45 2179.51,323.45 2181.65,323.45 2183.78,323.45 2185.92,323.45 2188.06,323.45 2190.2,323.45 2192.34,323.45 
  2194.48,323.45 2196.62,323.45 2198.76,323.45 2200.9,323.45 2203.03,323.45 2205.17,323.45 2207.31,323.45 2209.45,323.45 2211.59,323.45 2213.73,323.45 
  2215.87,323.45 2218.01,323.45 2220.15,323.45 2222.28,323.45 2224.42,323.45 2226.56,323.45 2228.7,323.45 2230.84,323.45 2232.98,323.45 2235.12,323.45 
  2237.26,323.45 2239.4,323.45 2241.53,323.45 2243.67,323.45 2245.81,323.45 2247.95,323.45 2250.09,323.45 2252.23,323.45 2254.37,323.45 2256.51,323.45 
  2258.64,323.45 2260.78,323.45 2262.92,323.45 2265.06,323.45 2267.2,323.45 2269.34,323.45 2271.48,323.45 2273.62,323.45 2275.76,323.45 2277.89,323.45 
  2280.03,328.892 2282.17,328.892 2284.31,328.892 2286.45,328.892 2288.59,328.892 2290.73,328.892 2292.87,328.892 2295.01,328.892 2297.14,328.892 2299.28,328.892 
  2301.42,328.892 2303.56,328.892 2305.7,328.892 2307.84,328.892 2309.98,328.892 2312.12,328.892 2314.26,328.892 2316.39,328.892 2318.53,328.892 2320.67,328.892 
  2322.81,328.892 2324.95,328.892 2327.09,328.892 2329.23,328.892 2331.37,328.892 2333.5,328.892 2335.64,328.892 2337.78,328.892 2339.92,328.892 2342.06,328.892 
  2344.2,328.892 2346.34,328.892 2348.48,328.892 2350.62,328.892 2352.75,328.892 2354.89,328.892 2357.03,328.892 2359.17,328.892 2361.31,328.892 2363.45,328.892 
  2365.59,328.892 2367.73,328.892 2369.87,328.892 2372,328.892 2374.14,328.892 2376.28,328.892 2378.42,328.892 2380.56,328.892 2382.7,328.892 2384.84,328.892 
  2386.98,328.892 2389.12,328.892 2391.25,328.892 2393.39,328.892 2395.53,328.892 2397.67,328.892 2399.81,328.892 2401.95,328.892 2404.09,328.892 2406.23,328.892 
  2408.36,405.081 2410.5,405.081 2412.64,405.081 2414.78,405.081 2416.92,405.081 2419.06,405.081 2421.2,405.081 2423.34,405.081 2425.48,405.081 2427.61,405.081 
  2429.75,405.081 2431.89,405.081 2434.03,405.081 2436.17,405.081 2438.31,405.081 2440.45,405.081 2442.59,405.081 2444.73,405.081 2446.86,405.081 2449,405.081 
  2451.14,405.081 2453.28,405.081 2455.42,405.081 2457.56,405.081 2459.7,405.081 2461.84,405.081 2463.98,405.081 2466.11,405.081 2468.25,405.081 2470.39,405.081 
  2472.53,405.081 2474.67,405.081 2476.81,405.081 2478.95,405.081 2481.09,405.081 2483.22,405.081 2485.36,405.081 2487.5,405.081 2489.64,405.081 2491.78,405.081 
  2493.92,405.081 2496.06,405.081 2498.2,405.081 2500.34,405.081 2502.47,405.081 2504.61,405.081 2506.75,405.081 2508.89,405.081 2511.03,405.081 2513.17,405.081 
  2515.31,405.081 2517.45,405.081 2519.59,405.081 2521.72,405.081 2523.86,405.081 2526,405.081 2528.14,405.081 2530.28,405.081 2532.42,405.081 2534.56,405.081 
  2536.7,486.712 2538.84,486.712 2540.97,486.712 2543.11,486.712 2545.25,486.712 2547.39,486.712 2549.53,486.712 2551.67,486.712 2553.81,486.712 2555.95,486.712 
  2558.08,486.712 2560.22,486.712 2562.36,486.712 2564.5,486.712 2566.64,486.712 2568.78,486.712 2570.92,486.712 2573.06,486.712 2575.2,486.712 2577.33,486.712 
  2579.47,486.712 2581.61,486.712 2583.75,486.712 2585.89,486.712 2588.03,486.712 2590.17,486.712 2592.31,486.712 2594.45,486.712 2596.58,486.712 2598.72,486.712 
  2600.86,486.712 2603,486.712 2605.14,486.712 2607.28,486.712 2609.42,486.712 2611.56,486.712 2613.7,486.712 2615.83,486.712 2617.97,486.712 2620.11,486.712 
  2622.25,486.712 2624.39,486.712 2626.53,486.712 2628.67,486.712 2630.81,486.712 2632.94,486.712 2635.08,486.712 2637.22,486.712 2639.36,486.712 2641.5,486.712 
  2643.64,486.712 2645.78,486.712 2647.92,486.712 2650.06,486.712 2652.19,486.712 2654.33,486.712 2656.47,486.712 2658.61,486.712 2660.75,486.712 2662.89,486.712 
  2665.03,769.699 2667.17,769.699 2669.31,769.699 2671.44,769.699 2673.58,769.699 2675.72,769.699 2677.86,769.699 2680,769.699 2682.14,769.699 2684.28,769.699 
  2686.42,769.699 2688.56,769.699 2690.69,769.699 2692.83,769.699 2694.97,769.699 2697.11,769.699 2699.25,769.699 2701.39,769.699 2703.53,769.699 2705.67,769.699 
  2707.8,769.699 2709.94,769.699 2712.08,769.699 2714.22,769.699 2716.36,769.699 2718.5,769.699 2720.64,769.699 2722.78,769.699 2724.92,769.699 2727.05,769.699 
  2729.19,769.699 2731.33,769.699 2733.47,769.699 2735.61,769.699 2737.75,769.699 2739.89,769.699 2742.03,769.699 2744.17,769.699 2746.3,769.699 2748.44,769.699 
  2750.58,769.699 2752.72,769.699 2754.86,769.699 2757,769.699 2759.14,769.699 2761.28,769.699 2763.42,769.699 2765.55,769.699 2767.69,769.699 2769.83,769.699 
  2771.97,769.699 2774.11,769.699 2776.25,769.699 2778.39,769.699 2780.53,769.699 2782.66,769.699 2784.8,769.699 2786.94,769.699 2789.08,769.699 2791.22,769.699 
  2793.36,987.381 2795.5,987.381 2797.64,987.381 2799.78,987.381 2801.91,987.381 2804.05,987.381 2806.19,987.381 2808.33,987.381 2810.47,987.381 2812.61,987.381 
  2814.75,987.381 2816.89,987.381 2819.03,987.381 2821.16,987.381 2823.3,987.381 2825.44,987.381 2827.58,987.381 2829.72,987.381 2831.86,987.381 2834,987.381 
  2836.14,987.381 2838.28,987.381 2840.41,987.381 2842.55,987.381 2844.69,987.381 2846.83,987.381 2848.97,987.381 2851.11,987.381 2853.25,987.381 2855.39,987.381 
  2857.52,987.381 2859.66,987.381 2861.8,987.381 2863.94,987.381 2866.08,987.381 2868.22,987.381 2870.36,987.381 2872.5,987.381 2874.64,987.381 2876.77,987.381 
  2878.91,987.381 2881.05,987.381 2883.19,987.381 2885.33,987.381 2887.47,987.381 2889.61,987.381 2891.75,987.381 2893.89,987.381 2896.02,987.381 2898.16,987.381 
  2900.3,987.381 2902.44,987.381 2904.58,987.381 2906.72,987.381 2908.86,987.381 2911,987.381 2913.14,987.381 2915.27,987.381 2917.41,987.381 2919.55,987.381 
  2921.69,1069.01 2923.83,1069.01 2925.97,1069.01 2928.11,1069.01 2930.25,1069.01 2932.38,1069.01 2934.52,1069.01 2936.66,1069.01 2938.8,1069.01 2940.94,1069.01 
  2943.08,1069.01 2945.22,1069.01 2947.36,1069.01 2949.5,1069.01 2951.63,1069.01 2953.77,1069.01 2955.91,1069.01 2958.05,1069.01 2960.19,1069.01 2962.33,1069.01 
  2964.47,1069.01 2966.61,1069.01 2968.75,1069.01 2970.88,1069.01 2973.02,1069.01 2975.16,1069.01 2977.3,1069.01 2979.44,1069.01 2981.58,1069.01 2983.72,1069.01 
  2985.86,1069.01 2988,1069.01 2990.13,1069.01 2992.27,1069.01 2994.41,1069.01 2996.55,1069.01 2998.69,1069.01 3000.83,1069.01 3002.97,1069.01 3005.11,1069.01 
  3007.24,1069.01 3009.38,1069.01 3011.52,1069.01 3013.66,1069.01 3015.8,1069.01 3017.94,1069.01 3020.08,1069.01 3022.22,1069.01 3024.36,1069.01 3026.49,1069.01 
  3028.63,1069.01 3030.77,1069.01 3032.91,1069.01 3035.05,1069.01 3037.19,1069.01 3039.33,1069.01 3041.47,1069.01 3043.61,1069.01 3045.74,1069.01 3047.88,1069.01 
  3050.02,1150.64 3052.16,1150.64 3054.3,1150.64 3056.44,1150.64 3058.58,1150.64 3060.72,1150.64 3062.86,1150.64 3064.99,1150.64 3067.13,1150.64 3069.27,1150.64 
  3071.41,1150.64 3073.55,1150.64 3075.69,1150.64 3077.83,1150.64 3079.97,1150.64 3082.1,1150.64 3084.24,1150.64 3086.38,1150.64 3088.52,1150.64 3090.66,1150.64 
  3092.8,1150.64 3094.94,1150.64 3097.08,1150.64 3099.22,1150.64 3101.35,1150.64 3103.49,1150.64 3105.63,1150.64 3107.77,1150.64 3109.91,1150.64 3112.05,1150.64 
  3114.19,1150.64 3116.33,1150.64 3118.47,1150.64 3120.6,1150.64 3122.74,1150.64 3124.88,1150.64 3127.02,1150.64 3129.16,1150.64 3131.3,1150.64 3133.44,1150.64 
  3135.58,1150.64 3137.72,1150.64 3139.85,1150.64 3141.99,1150.64 3144.13,1150.64 3146.27,1150.64 3148.41,1150.64 3150.55,1150.64 3152.69,1150.64 3154.83,1150.64 
  3156.96,1150.64 3159.1,1150.64 3161.24,1150.64 3163.38,1150.64 3165.52,1150.64 3167.66,1150.64 3169.8,1150.64 3171.94,1150.64 3174.08,1150.64 3176.21,1150.64 
  3178.35,1237.72 3180.49,1237.72 3182.63,1237.72 3184.77,1237.72 3186.91,1237.72 3189.05,1237.72 3191.19,1237.72 3193.33,1237.72 3195.46,1237.72 3197.6,1237.72 
  3199.74,1237.72 3201.88,1237.72 3204.02,1237.72 3206.16,1237.72 3208.3,1237.72 3210.44,1237.72 3212.58,1237.72 3214.71,1237.72 3216.85,1237.72 3218.99,1237.72 
  3221.13,1237.72 3223.27,1237.72 3225.41,1237.72 3227.55,1237.72 3229.69,1237.72 3231.82,1237.72 3233.96,1237.72 3236.1,1237.72 3238.24,1237.72 3240.38,1237.72 
  3242.52,1237.72 3244.66,1237.72 3246.8,1237.72 3248.94,1237.72 3251.07,1237.72 3253.21,1237.72 3255.35,1237.72 3257.49,1237.72 3259.63,1237.72 3261.77,1237.72 
  3263.91,1237.72 3266.05,1237.72 3268.19,1237.72 3270.32,1237.72 3272.46,1237.72 3274.6,1237.72 3276.74,1237.72 3278.88,1237.72 3281.02,1237.72 3283.16,1237.72 
  3285.3,1237.72 3287.44,1237.72 3289.57,1237.72 3291.71,1237.72 3293.85,1237.72 3295.99,1237.72 3298.13,1237.72 3300.27,1237.72 3302.41,1237.72 3304.55,1237.72 
  3306.68,1335.67 3308.82,1335.67 3310.96,1335.67 3313.1,1335.67 3315.24,1335.67 3317.38,1335.67 3319.52,1335.67 3321.66,1335.67 3323.8,1335.67 3325.93,1335.67 
  3328.07,1335.67 3330.21,1335.67 3332.35,1335.67 3334.49,1335.67 3336.63,1335.67 3338.77,1335.67 3340.91,1335.67 3343.05,1335.67 3345.18,1335.67 3347.32,1335.67 
  3349.46,1335.67 3351.6,1335.67 3353.74,1335.67 3355.88,1335.67 3358.02,1335.67 3360.16,1335.67 3362.3,1335.67 3364.43,1335.67 3366.57,1335.67 3368.71,1335.67 
  3370.85,1335.67 3372.99,1335.67 3375.13,1335.67 3377.27,1335.67 3379.41,1335.67 3381.54,1335.67 3383.68,1335.67 3385.82,1335.67 3387.96,1335.67 3390.1,1335.67 
  3392.24,1335.67 3394.38,1335.67 3396.52,1335.67 3398.66,1335.67 3400.79,1335.67 3402.93,1335.67 3405.07,1335.67 3407.21,1335.67 3409.35,1335.67 3411.49,1335.67 
  3413.63,1335.67 3415.77,1335.67 3417.91,1335.67 3420.04,1335.67 3422.18,1335.67 3424.32,1335.67 3426.46,1335.67 3428.6,1335.67 3430.74,1335.67 3432.88,1335.67 
  3435.02,1395.54 3437.16,1395.54 3439.29,1395.54 3441.43,1395.54 3443.57,1395.54 3445.71,1395.54 3447.85,1395.54 3449.99,1395.54 3452.13,1395.54 3454.27,1395.54 
  3456.4,1395.54 3458.54,1395.54 3460.68,1395.54 3462.82,1395.54 3464.96,1395.54 3467.1,1395.54 3469.24,1395.54 3471.38,1395.54 3473.52,1395.54 3475.65,1395.54 
  3477.79,1395.54 3479.93,1395.54 3482.07,1395.54 3484.21,1395.54 3486.35,1395.54 3488.49,1395.54 3490.63,1395.54 3492.77,1395.54 3494.9,1395.54 3497.04,1395.54 
  3499.18,1395.54 3501.32,1395.54 3503.46,1395.54 3505.6,1395.54 3507.74,1395.54 3509.88,1395.54 3512.02,1395.54 3514.15,1395.54 3516.29,1395.54 3518.43,1395.54 
  3520.57,1395.54 3522.71,1395.54 3524.85,1395.54 3526.99,1395.54 3529.13,1395.54 3531.26,1395.54 3533.4,1395.54 3535.54,1395.54 3537.68,1395.54 3539.82,1395.54 
  3541.96,1395.54 3544.1,1395.54 3546.24,1395.54 3548.38,1395.54 3550.51,1395.54 3552.65,1395.54 3554.79,1395.54 3556.93,1395.54 3559.07,1395.54 3561.21,1395.54 
  
  "/>
</svg>
