<?xml version="1.0" encoding="utf-8"?>
<svg xmlns="http://www.w3.org/2000/svg" xmlns:xlink="http://www.w3.org/1999/xlink" width="800" height="400" viewBox="0 0 3200 1600">
<defs>
  <clipPath id="clip8900">
    <rect x="0" y="0" width="3200" height="1600"/>
  </clipPath>
</defs>
<polygon clip-path="url(#clip8900)" points="
0,1600 3200,1600 3200,0 0,0 
  " fill="#ffffff" fill-rule="evenodd" fill-opacity="1"/>
<defs>
  <clipPath id="clip8901">
    <rect x="640" y="0" width="2241" height="1600"/>
  </clipPath>
</defs>
<polygon clip-path="url(#clip8900)" points="
577.458,1155.48 2853.54,1155.48 2853.54,188.976 577.458,188.976 
  " fill="#ffffff" fill-rule="evenodd" fill-opacity="1"/>
<defs>
  <clipPath id="clip8902">
    <rect x="577" y="188" width="2277" height="968"/>
  </clipPath>
</defs>
<polyline clip-path="url(#clip8902)" style="stroke:#000000; stroke-width:2; stroke-opacity:0.1; fill:none" points="
  640.383,1155.48 640.383,188.976 
  "/>
<polyline clip-path="url(#clip8902)" style="stroke:#000000; stroke-width:2; stroke-opacity:0.1; fill:none" points="
  1088.04,1155.48 1088.04,188.976 
  "/>
<polyline clip-path="url(#clip8902)" style="stroke:#000000; stroke-width:2; stroke-opacity:0.1; fill:none" points="
  1535.69,1155.48 1535.69,188.976 
  "/>
<polyline clip-path="url(#clip8902)" style="stroke:#000000; stroke-width:2; stroke-opacity:0.1; fill:none" points="
  1983.35,1155.48 1983.35,188.976 
  "/>
<polyline clip-path="url(#clip8902)" style="stroke:#000000; stroke-width:2; stroke-opacity:0.1; fill:none" points="
  2431,1155.48 2431,188.976 
  "/>
<polyline clip-path="url(#clip8902)" style="stroke:#000000; stroke-width:2; stroke-opacity:0.1; fill:none" points="
  577.458,1128.12 2853.54,1128.12 
  "/>
<polyline clip-path="url(#clip8902)" style="stroke:#000000; stroke-width:2; stroke-opacity:0.1; fill:none" points="
  577.458,984.661 2853.54,984.661 
  "/>
<polyline clip-path="url(#clip8902)" style="stroke:#000000; stroke-width:2; stroke-opacity:0.1; fill:none" points="
  577.458,841.198 2853.54,841.198 
  "/>
<polyline clip-path="url(#clip8902)" style="stroke:#000000; stroke-width:2; stroke-opacity:0.1; fill:none" points="
  577.458,697.734 2853.54,697.734 
  "/>
<polyline clip-path="url(#clip8902)" style="stroke:#000000; stroke-width:2; stroke-opacity:0.1; fill:none" points="
  577.458,554.271 2853.54,554.271 
  "/>
<polyline clip-path="url(#clip8902)" style="stroke:#000000; stroke-width:2; stroke-opacity:0.1; fill:none" points="
  577.458,410.807 2853.54,410.807 
  "/>
<polyline clip-path="url(#clip8902)" style="stroke:#000000; stroke-width:2; stroke-opacity:0.1; fill:none" points="
  577.458,267.344 2853.54,267.344 
  "/>
<polyline clip-path="url(#clip8900)" style="stroke:#000000; stroke-width:4; stroke-opacity:1; fill:none" points="
  577.458,1155.48 2853.54,1155.48 
  "/>
<polyline clip-path="url(#clip8900)" style="stroke:#000000; stroke-width:4; stroke-opacity:1; fill:none" points="
  577.458,1155.48 577.458,188.976 
  "/>
<polyline clip-path="url(#clip8900)" style="stroke:#000000; stroke-width:4; stroke-opacity:1; fill:none" points="
  640.383,1155.48 640.383,1140.98 
  "/>
<polyline clip-path="url(#clip8900)" style="stroke:#000000; stroke-width:4; stroke-opacity:1; fill:none" points="
  1088.04,1155.48 1088.04,1140.98 
  "/>
<polyline clip-path="url(#clip8900)" style="stroke:#000000; stroke-width:4; stroke-opacity:1; fill:none" points="
  1535.69,1155.48 1535.69,1140.98 
  "/>
<polyline clip-path="url(#clip8900)" style="stroke:#000000; stroke-width:4; stroke-opacity:1; fill:none" points="
  1983.35,1155.48 1983.35,1140.98 
  "/>
<polyline clip-path="url(#clip8900)" style="stroke:#000000; stroke-width:4; stroke-opacity:1; fill:none" points="
  2431,1155.48 2431,1140.98 
  "/>
<polyline clip-path="url(#clip8900)" style="stroke:#000000; stroke-width:4; stroke-opacity:1; fill:none" points="
  577.458,1128.12 611.599,1128.12 
  "/>
<polyline clip-path="url(#clip8900)" style="stroke:#000000; stroke-width:4; stroke-opacity:1; fill:none" points="
  577.458,984.661 611.599,984.661 
  "/>
<polyline clip-path="url(#clip8900)" style="stroke:#000000; stroke-width:4; stroke-opacity:1; fill:none" points="
  577.458,841.198 611.599,841.198 
  "/>
<polyline clip-path="url(#clip8900)" style="stroke:#000000; stroke-width:4; stroke-opacity:1; fill:none" points="
  577.458,697.734 611.599,697.734 
  "/>
<polyline clip-path="url(#clip8900)" style="stroke:#000000; stroke-width:4; stroke-opacity:1; fill:none" points="
  577.458,554.271 611.599,554.271 
  "/>
<polyline clip-path="url(#clip8900)" style="stroke:#000000; stroke-width:4; stroke-opacity:1; fill:none" points="
  577.458,410.807 611.599,410.807 
  "/>
<polyline clip-path="url(#clip8900)" style="stroke:#000000; stroke-width:4; stroke-opacity:1; fill:none" points="
  577.458,267.344 611.599,267.344 
  "/>
<g clip-path="url(#clip8900)">
<text style="fill:#000000; fill-opacity:1; font-family:Arial,Helvetica Neue,Helvetica,sans-serif; font-size:71px; text-anchor:middle;" transform="rotate(0, 640.383, 1233.88)" x="640.383" y="1233.88">0</text>
</g>
<g clip-path="url(#clip8900)">
<text style="fill:#000000; fill-opacity:1; font-family:Arial,Helvetica Neue,Helvetica,sans-serif; font-size:71px; text-anchor:middle;" transform="rotate(0, 1088.04, 1233.88)" x="1088.04" y="1233.88">5</text>
</g>
<g clip-path="url(#clip8900)">
<text style="fill:#000000; fill-opacity:1; font-family:Arial,Helvetica Neue,Helvetica,sans-serif; font-size:71px; text-anchor:middle;" transform="rotate(0, 1535.69, 1233.88)" x="1535.69" y="1233.88">10</text>
</g>
<g clip-path="url(#clip8900)">
<text style="fill:#000000; fill-opacity:1; font-family:Arial,Helvetica Neue,Helvetica,sans-serif; font-size:71px; text-anchor:middle;" transform="rotate(0, 1983.35, 1233.88)" x="1983.35" y="1233.88">15</text>
</g>
<g clip-path="url(#clip8900)">
<text style="fill:#000000; fill-opacity:1; font-family:Arial,Helvetica Neue,Helvetica,sans-serif; font-size:71px; text-anchor:middle;" transform="rotate(0, 2431, 1233.88)" x="2431" y="1233.88">20</text>
</g>
<g clip-path="url(#clip8900)">
<text style="fill:#000000; fill-opacity:1; font-family:Arial,Helvetica Neue,Helvetica,sans-serif; font-size:71px; text-anchor:end;" transform="rotate(0, 545.458, 1154.12)" x="545.458" y="1154.12">0.0</text>
</g>
<g clip-path="url(#clip8900)">
<text style="fill:#000000; fill-opacity:1; font-family:Arial,Helvetica Neue,Helvetica,sans-serif; font-size:71px; text-anchor:end;" transform="rotate(0, 545.458, 1010.66)" x="545.458" y="1010.66">0.1</text>
</g>
<g clip-path="url(#clip8900)">
<text style="fill:#000000; fill-opacity:1; font-family:Arial,Helvetica Neue,Helvetica,sans-serif; font-size:71px; text-anchor:end;" transform="rotate(0, 545.458, 867.198)" x="545.458" y="867.198">0.2</text>
</g>
<g clip-path="url(#clip8900)">
<text style="fill:#000000; fill-opacity:1; font-family:Arial,Helvetica Neue,Helvetica,sans-serif; font-size:71px; text-anchor:end;" transform="rotate(0, 545.458, 723.734)" x="545.458" y="723.734">0.3</text>
</g>
<g clip-path="url(#clip8900)">
<text style="fill:#000000; fill-opacity:1; font-family:Arial,Helvetica Neue,Helvetica,sans-serif; font-size:71px; text-anchor:end;" transform="rotate(0, 545.458, 580.271)" x="545.458" y="580.271">0.4</text>
</g>
<g clip-path="url(#clip8900)">
<text style="fill:#000000; fill-opacity:1; font-family:Arial,Helvetica Neue,Helvetica,sans-serif; font-size:71px; text-anchor:end;" transform="rotate(0, 545.458, 436.807)" x="545.458" y="436.807">0.5</text>
</g>
<g clip-path="url(#clip8900)">
<text style="fill:#000000; fill-opacity:1; font-family:Arial,Helvetica Neue,Helvetica,sans-serif; font-size:71px; text-anchor:end;" transform="rotate(0, 545.458, 293.344)" x="545.458" y="293.344">0.6</text>
</g>
<g clip-path="url(#clip8900)">
<text style="fill:#000000; fill-opacity:1; font-family:Arial,Helvetica Neue,Helvetica,sans-serif; font-size:95px; text-anchor:middle;" transform="rotate(0, 1715.5, 1349.73)" x="1715.5" y="1349.73">Time (hours)</text>
</g>
<g clip-path="url(#clip8900)">
<text style="fill:#000000; fill-opacity:1; font-family:Arial,Helvetica Neue,Helvetica,sans-serif; font-size:95px; text-anchor:middle;" transform="rotate(-90, 395.3, 672.227)" x="395.3" y="672.227">TV Error</text>
</g>
<polyline clip-path="url(#clip8902)" style="stroke:#009af9; stroke-width:4; stroke-opacity:1; fill:none" points="
  641.876,1128.12 643.368,1116.72 644.86,1106.74 646.352,1098 647.844,1090.29 649.336,1083.5 650.829,1077.54 652.321,1072.3 653.813,1067.71 655.305,1063.68 
  656.797,1060.17 658.29,1057.1 659.782,1054.43 661.274,1051.97 662.766,1049.72 664.258,1047.74 665.75,1046.01 667.243,1044.5 668.735,1043.19 670.227,1042.07 
  671.719,1041.12 673.211,1040.16 674.704,1039.18 676.196,1038.32 677.688,1037.57 679.18,1036.94 680.672,1036.4 682.164,1035.95 683.657,1035.6 685.149,1035.09 
  686.641,1034.55 688.133,1034.08 689.625,1033.68 691.118,1033.35 692.61,1033.08 694.102,1032.88 695.594,1032.74 697.086,1032.32 698.578,1031.93 700.071,1031.59 
  701.563,1031.32 703.055,1031.1 704.547,1030.93 706.039,1030.82 707.532,1030.68 709.024,1030.29 710.516,1029.95 712.008,1029.67 713.5,1029.44 714.992,1029.26 
  716.485,1029.14 717.977,1029.08 719.469,1028.84 720.961,1028.47 722.453,1028.15 723.946,1027.89 725.438,1027.68 726.93,1027.52 728.422,1027.43 729.914,1027.39 
  731.406,1027.02 732.899,319.197 734.391,383.011 735.883,446.189 737.375,500.862 738.867,553.282 740.36,600.454 741.852,641.725 743.344,681.072 744.836,714.666 
  746.328,744.095 747.82,771.558 749.313,796.562 750.805,816.273 752.297,834.498 753.789,851.258 755.281,866.611 756.774,878.434 758.266,888.924 759.758,898.546 
  761.25,907.372 762.742,915.479 764.234,921.188 765.727,926.216 767.219,930.862 768.711,935.178 770.203,939.216 771.695,942.442 773.188,944.355 774.68,946.173 
  776.172,947.931 777.664,949.66 779.156,951.39 780.649,952.44 782.141,952.585 783.633,952.815 785.125,953.152 786.617,953.616 788.109,954.226 789.602,954.448 
  791.094,953.668 792.586,953.068 794.078,952.664 795.57,952.473 797.063,952.506 798.555,952.551 800.047,951.22 801.539,950.125 803.031,949.28 804.523,948.7 
  806.016,948.397 807.508,948.382 809,946.882 810.492,945.425 811.984,944.258 813.477,943.395 814.969,942.852 816.461,942.639 817.953,941.378 819.445,939.594 
  820.937,938.135 822.43,992.101 823.922,999.275 825.414,1005.65 826.906,1011.3 828.398,1016.32 829.891,1020.76 831.383,1024.7 832.875,1028.18 834.367,1031.28 
  835.859,1033.81 837.351,1035.71 838.844,1037.36 840.336,1038.82 841.828,1040.09 843.32,1041.21 844.812,1042.18 846.305,1043.04 847.797,1043.8 849.289,1044.47 
  850.781,1045.07 852.273,1045.61 853.765,1046.09 855.258,1046.54 856.75,1046.95 858.242,1047.27 859.734,1047.18 861.226,1047.07 862.719,1046.95 864.211,1046.84 
  865.703,1046.72 867.195,1046.6 868.687,1046.49 870.179,1046.39 871.672,1046.3 873.164,1046.22 874.656,1046.16 876.148,1046.12 877.64,1046.1 879.133,1046.1 
  880.625,1046.13 882.117,1046.17 883.609,1045.85 885.101,1045.44 886.593,1045.06 888.086,1044.7 889.578,1044.36 891.07,1044.06 892.562,1043.78 894.054,1043.52 
  895.547,1043.3 897.039,1043.11 898.531,1042.95 900.023,1042.82 901.515,1042.73 903.007,1042.67 904.5,1042.64 905.992,1042.65 907.484,1042.58 908.976,1042.08 
  910.468,1041.61 911.961,1074.95 913.453,1088 914.945,1099.54 916.437,1109.64 917.929,1117.47 919.421,1122.21 920.914,1120.97 922.406,1115.87 923.898,1110.83 
  925.39,1106.42 926.882,1102.56 928.375,1099.19 929.867,1096.24 931.359,1093.66 932.851,1091.41 934.343,1089.27 935.835,1087.37 937.328,1085.69 938.82,1084.19 
  940.312,1082.87 941.804,1081.69 943.296,1080.63 944.789,1079.7 946.281,1078.86 947.773,1078.12 949.265,1077.45 950.757,1076.85 952.249,1076.32 953.742,1075.85 
  955.234,1075.42 956.726,1075.05 958.218,1074.71 959.71,1074.41 961.203,1074.14 962.695,1073.91 964.187,1073.71 965.679,1073.53 967.171,1073.37 968.663,1073.24 
  970.156,1073.13 971.648,1073.04 973.14,1072.96 974.632,1072.91 976.124,1072.75 977.617,1072.46 979.109,1072.17 980.601,1071.9 982.093,1071.64 983.585,1071.39 
  985.077,1071.16 986.57,1070.93 988.062,1070.72 989.554,1070.51 991.046,1070.32 992.538,1070.14 994.031,1069.97 995.523,1069.81 997.015,1069.66 998.507,1069.52 
  999.999,1069.4 1001.49,812.563 1002.98,862.365 1004.48,905.838 1005.97,943.703 1007.46,976.621 1008.95,1005.2 1010.44,1029.98 1011.94,1051.46 1013.43,1070.06 
  1014.92,1086.15 1016.41,1100.07 1017.91,1112.1 1019.4,1122.49 1020.89,1124.78 1022.38,1117.03 1023.87,1110.35 1025.37,1104.59 1026.86,1099.63 1028.35,1095.36 
  1029.84,1091.7 1031.34,1088.55 1032.83,1085.86 1034.32,1083.56 1035.81,1081.6 1037.3,1079.93 1038.8,1078.52 1040.29,1077.34 1041.78,1076.35 1043.27,1075.53 
  1044.76,1074.76 1046.26,1073.94 1047.75,1073.23 1049.24,1072.61 1050.73,1072.08 1052.23,1071.63 1053.72,1071.24 1055.21,1070.91 1056.7,1070.63 1058.19,1070.41 
  1059.69,1070.22 1061.18,1070.08 1062.67,1069.97 1064.16,1069.9 1065.66,1069.85 1067.15,1069.83 1068.64,1069.84 1070.13,1069.87 1071.62,1069.93 1073.12,1070 
  1074.61,1070.09 1076.1,1070.2 1077.59,1070.33 1079.08,1070.47 1080.58,1070.63 1082.07,1070.8 1083.56,1070.88 1085.05,1070.81 1086.55,1070.76 1088.04,1070.72 
  1089.53,1070.69 1091.02,950.278 1092.51,919.11 1094.01,895.052 1095.5,872.057 1096.99,852.969 1098.48,839.104 1099.98,829.408 1101.47,817.023 1102.96,808.768 
  1104.45,804.491 1105.94,799.413 1107.44,794.237 1108.93,792.442 1110.42,792.687 1111.91,789.219 1113.41,788.717 1114.9,791.03 1116.39,789.836 1117.88,789.965 
  1119.37,792.615 1120.87,793.724 1122.36,794.111 1123.85,796.779 1125.34,799.437 1126.83,799.872 1128.33,802.387 1129.82,806.093 1131.31,806.458 1132.8,808.732 
  1134.3,812.805 1135.79,813.387 1137.28,815.381 1138.77,819.042 1140.26,820.368 1141.76,822.072 1143.25,825.326 1144.74,827.23 1146.23,828.649 1147.73,831.517 
  1149.22,833.879 1150.71,835.027 1152.2,837.533 1153.69,840.263 1155.19,841.161 1156.68,843.332 1158.17,846.364 1159.66,847.03 1161.15,848.895 1162.65,851.905 
  1164.14,852.632 1165.63,854.218 1167.12,856.889 1168.62,857.972 1170.11,859.304 1171.6,861.667 1173.09,863.061 1174.58,864.163 1176.08,866.244 1177.57,867.912 
  1179.06,868.805 1180.55,216.33 1182.05,433.445 1183.54,627.177 1185.03,789.816 1186.52,920.652 1188.01,1022.31 1189.51,1099.03 1191,1098.91 1192.49,1056.39 
  1193.98,1024.29 1195.48,1001.26 1196.97,983.922 1198.46,970.721 1199.95,962.036 1201.44,953.42 1202.94,947.868 1204.43,942.2 1205.92,937.624 1207.41,932.878 
  1208.9,928.171 1210.4,923.052 1211.89,917.691 1213.38,911.431 1214.87,905.272 1216.37,897.516 1217.86,890.574 1219.35,881.475 1220.84,873.141 1222.33,863.966 
  1223.83,854.524 1225.32,845.798 1226.81,835.562 1228.3,826.306 1229.8,817.186 1231.29,807.543 1232.78,798.908 1234.27,790.625 1235.76,781.966 1237.26,774.319 
  1238.75,767.633 1240.24,760.554 1241.73,754.12 1243.22,748.6 1244.72,743.934 1246.21,739.273 1247.7,734.926 1249.19,731.344 1250.69,728.464 1252.18,726.227 
  1253.67,724.155 1255.16,722.104 1256.65,720.595 1258.15,719.576 1259.64,718.999 1261.13,718.82 1262.62,718.997 1264.12,718.796 1265.61,718.891 1267.1,719.275 
  1268.59,719.916 1270.08,658.78 1271.58,805.703 1273.07,926.227 1274.56,1021.84 1276.05,1094.65 1277.55,1103.94 1279.04,1063.23 1280.53,1032.82 1282.02,1010.15 
  1283.51,993.727 1285.01,981.749 1286.5,973.047 1287.99,967.203 1289.48,962.629 1290.97,960.037 1292.47,957.959 1293.96,956.85 1295.45,956.529 1296.94,956.09 
  1298.44,956.487 1299.93,956.728 1301.42,957.201 1302.91,958.182 1304.4,958.56 1305.9,959.481 1307.39,960.317 1308.88,961.016 1310.37,962.185 1311.87,962.78 
  1313.36,963.683 1314.85,964.705 1316.34,965.339 1317.83,966.387 1319.33,967.119 1320.82,967.896 1322.31,968.997 1323.8,969.51 1325.3,970.401 1326.79,971.211 
  1328.28,971.84 1329.77,972.819 1331.26,973.351 1332.76,974.067 1334.25,974.914 1335.74,975.366 1337.23,976.131 1338.72,976.687 1340.22,977.172 1341.71,977.931 
  1343.2,978.185 1344.69,978.631 1346.19,979.12 1347.68,979.229 1349.17,979.538 1350.66,979.657 1352.15,979.561 1353.65,979.596 1355.14,979.29 1356.63,978.829 
  1358.12,978.415 1359.62,349.837 1361.11,413.419 1362.6,466.15 1364.09,507.559 1365.58,541.987 1367.08,569.857 1368.57,592.107 1370.06,610.604 1371.55,626.056 
  1373.04,639.06 1374.54,650.109 1376.03,659.119 1377.52,666.962 1379.01,673.874 1380.51,680.039 1382,685.607 1383.49,690.693 1384.98,695.388 1386.47,699.764 
  1387.97,703.879 1389.46,707.776 1390.95,711.491 1392.44,714.956 1393.94,718.178 1395.43,721.293 1396.92,724.311 1398.41,727.238 1399.9,730.075 1401.4,732.814 
  1402.89,735.44 1404.38,737.926 1405.87,740.229 1407.37,742.286 1408.86,744.011 1410.35,745.288 1411.84,745.711 1413.33,745.254 1414.83,743.739 1416.32,740.918 
  1417.81,736.474 1419.3,729.536 1420.79,720.521 1422.29,708.615 1423.78,694.313 1425.27,677.051 1426.76,658.003 1428.26,637.733 1429.75,616.643 1431.24,595.329 
  1432.73,574.462 1434.22,554.462 1435.72,535.671 1437.21,518.353 1438.7,502.322 1440.19,487.976 1441.69,475.386 1443.18,464.196 1444.67,454.449 1446.16,446.167 
  1447.65,438.931 1449.15,882.164 1450.64,888.845 1452.13,892.073 1453.62,893.689 1455.11,894.412 1456.61,894.643 1458.1,894.242 1459.59,893.434 1461.08,892.259 
  1462.58,890.374 1464.07,888.058 1465.56,885.202 1467.05,881.641 1468.54,877.578 1470.04,872.879 1471.53,867.463 1473.02,861.508 1474.51,855.03 1476.01,847.945 
  1477.5,840.397 1478.99,832.533 1480.48,824.427 1481.97,816.152 1483.47,807.718 1484.96,799.222 1486.45,790.793 1487.94,782.498 1489.44,774.401 1490.93,766.56 
  1492.42,759.027 1493.91,751.85 1495.4,745.066 1496.9,738.711 1498.39,732.77 1499.88,727.199 1501.37,722.092 1502.86,717.458 1504.36,713.299 1505.85,709.551 
  1507.34,706.105 1508.83,703.103 1510.33,700.536 1511.82,698.197 1513.31,696.185 1514.8,694.556 1516.29,693.105 1517.79,691.901 1519.28,691.031 1520.77,690.219 
  1522.26,689.658 1523.76,689.33 1525.25,689.009 1526.74,688.947 1528.23,688.94 1529.72,689.038 1531.22,689.333 1532.71,689.546 1534.2,689.966 1535.69,690.381 
  1537.18,690.865 1538.68,1041.92 1540.17,1048.2 1541.66,1053.63 1543.15,1058.35 1544.65,1062.44 1546.14,1066 1547.63,1069.11 1549.12,1071.81 1550.61,1074.16 
  1552.11,1076.22 1553.6,1078.01 1555.09,1079.58 1556.58,1080.96 1558.08,1082.16 1559.57,1083.2 1561.06,1084.11 1562.55,1084.9 1564.04,1085.6 1565.54,1086.22 
  1567.03,1086.74 1568.52,1087.2 1570.01,1087.61 1571.51,1087.96 1573,1088.28 1574.49,1088.54 1575.98,1088.77 1577.47,1088.98 1578.97,1089.16 1580.46,1089.32 
  1581.95,1089.45 1583.44,1089.56 1584.93,1089.66 1586.43,1089.76 1587.92,1089.84 1589.41,1089.9 1590.9,1089.95 1592.4,1090 1593.89,1090.05 1595.38,1090.09 
  1596.87,1090.12 1598.36,1090.14 1599.86,1090.17 1601.35,1090.19 1602.84,1090.21 1604.33,1090.22 1605.83,1090.23 1607.32,1090.24 1608.81,1090.25 1610.3,1090.26 
  1611.79,1090.26 1613.29,1090.26 1614.78,1090.26 1616.27,1090.27 1617.76,1090.27 1619.25,1090.27 1620.75,1090.27 1622.24,1090.27 1623.73,1090.27 1625.22,1090.27 
  1626.72,1090.26 1628.21,1006.45 1629.7,1010.1 1631.19,1013.33 1632.68,1016.11 1634.18,1018.59 1635.67,1020.71 1637.16,1022.61 1638.65,1024.24 1640.15,1025.69 
  1641.64,1026.93 1643.13,1028.05 1644.62,1028.99 1646.11,1029.84 1647.61,1030.56 1649.1,1031.22 1650.59,1031.76 1652.08,1032.27 1653.58,1032.69 1655.07,1033.09 
  1656.56,1033.4 1658.05,1033.71 1659.54,1033.95 1661.04,1034.2 1662.53,1034.38 1664.02,1034.58 1665.51,1034.73 1667,1034.89 1668.5,1035.01 1669.99,1035.14 
  1671.48,1035.24 1672.97,1035.36 1674.47,1035.44 1675.96,1035.55 1677.45,1035.63 1678.94,1035.72 1680.43,1035.8 1681.93,1035.89 1683.42,1035.97 1684.91,1036.05 
  1686.4,1036.14 1687.9,1036.23 1689.39,1036.32 1690.88,1036.41 1692.37,1036.52 1693.86,1036.6 1695.36,1036.72 1696.85,1036.81 1698.34,1036.94 1699.83,1037.03 
  1701.32,1037.17 1702.82,1037.28 1704.31,1037.42 1705.8,1037.55 1707.29,1037.69 1708.79,1037.84 1710.28,1037.99 1711.77,1038.16 1713.26,1038.31 1714.75,1038.51 
  1716.25,1038.66 1717.74,1024.94 1719.23,1021.64 1720.72,1018.96 1722.22,1016.78 1723.71,1015 1725.2,1013.53 1726.69,1012.32 1728.18,1011.34 1729.68,1010.52 
  1731.17,1009.9 1732.66,1009.36 1734.15,1008.99 1735.65,1008.72 1737.14,1008.53 1738.63,1008.47 1740.12,1008.43 1741.61,1008.5 1743.11,1008.64 1744.6,1008.82 
  1746.09,1009.09 1747.58,1009.37 1749.07,1009.72 1750.57,1010.12 1752.06,1010.54 1753.55,1011.04 1755.04,1011.51 1756.54,1012.07 1758.03,1012.64 1759.52,1013.24 
  1761.01,1013.88 1762.5,1014.52 1764,1015.24 1765.49,1015.92 1766.98,1016.67 1768.47,1017.41 1769.97,1018.19 1771.46,1018.99 1772.95,1019.79 1774.44,1020.64 
  1775.93,1021.47 1777.43,1022.36 1778.92,1023.21 1780.41,1024.12 1781.9,1025 1783.39,1025.93 1784.89,1026.83 1786.38,1027.77 1787.87,1028.7 1789.36,1029.65 
  1790.86,1030.59 1792.35,1031.55 1793.84,1032.5 1795.33,1033.46 1796.82,1034.42 1798.32,1035.37 1799.81,1036.33 1801.3,1037.28 1802.79,1038.23 1804.29,1039.17 
  1805.78,1040.11 1807.27,630.846 1808.76,696.158 1810.25,752.815 1811.75,801.846 1813.24,844.162 1814.73,880.673 1816.22,912.186 1817.72,939.27 1819.21,962.727 
  1820.7,982.894 1822.19,1000.37 1823.68,1015.45 1825.18,1028.48 1826.67,1039.77 1828.16,1049.55 1829.65,1058.01 1831.14,1065.33 1832.64,1071.68 1834.13,1077.19 
  1835.62,1081.96 1837.11,1086.11 1838.61,1089.71 1840.1,1092.82 1841.59,1095.52 1843.08,1097.87 1844.57,1099.91 1846.07,1101.68 1847.56,1103.21 1849.05,1104.55 
  1850.54,1105.71 1852.04,1106.71 1853.53,1107.59 1855.02,1108.35 1856.51,1109 1858,1109.58 1859.5,1110.07 1860.99,1110.5 1862.48,1110.87 1863.97,1111.2 
  1865.46,1111.48 1866.96,1111.72 1868.45,1111.93 1869.94,1112.12 1871.43,1112.27 1872.93,1112.41 1874.42,1112.53 1875.91,1112.64 1877.4,1112.73 1878.89,1112.8 
  1880.39,1112.87 1881.88,1112.93 1883.37,1112.97 1884.86,1113.02 1886.36,1113.05 1887.85,1113.08 1889.34,1113.11 1890.83,1113.13 1892.32,1113.15 1893.82,1113.17 
  1895.31,1113.18 1896.8,680.948 1898.29,742.513 1899.79,797.483 1901.28,846.312 1902.77,889.427 1904.26,927.374 1905.75,960.683 1907.25,989.91 1908.74,1015.5 
  1910.23,1037.87 1911.72,1057.43 1913.21,1074.53 1914.71,1089.48 1916.2,1102.54 1917.69,1113.96 1919.18,1123.93 1920.68,1123.6 1922.17,1115.98 1923.66,1109.32 
  1925.15,1103.5 1926.64,1098.41 1928.14,1093.97 1929.63,1090.08 1931.12,1086.69 1932.61,1083.71 1934.11,1081.11 1935.6,1078.85 1937.09,1076.87 1938.58,1075.13 
  1940.07,1073.61 1941.57,1072.3 1943.06,1071.13 1944.55,1070.12 1946.04,1069.24 1947.54,1068.47 1949.03,1067.79 1950.52,1067.21 1952.01,1066.7 1953.5,1066.25 
  1955,1065.86 1956.49,1065.54 1957.98,1065.23 1959.47,1064.97 1960.96,1064.77 1962.46,1064.57 1963.95,1064.4 1965.44,1064.27 1966.93,1064.15 1968.43,1064.04 
  1969.92,1063.96 1971.41,1063.89 1972.9,1063.82 1974.39,1063.78 1975.89,1063.75 1977.38,1063.71 1978.87,1063.69 1980.36,1063.69 1981.86,1063.67 1983.35,1063.67 
  1984.84,1063.69 1986.33,976.459 1987.82,981.626 1989.32,986.261 1990.81,990.349 1992.3,994.007 1993.79,997.23 1995.28,1000.09 1996.78,1002.6 1998.27,1004.81 
  1999.76,1006.77 2001.25,1008.47 2002.75,1010 2004.24,1011.3 2005.73,1012.5 2007.22,1013.5 2008.71,1014.44 2010.21,1015.21 2011.7,1015.95 2013.19,1016.57 
  2014.68,1017.16 2016.18,1017.65 2017.67,1018.13 2019.16,1018.53 2020.65,1018.93 2022.14,1019.27 2023.64,1019.61 2025.13,1019.91 2026.62,1020.21 2028.11,1020.48 
  2029.61,1020.75 2031.1,1021.01 2032.59,1021.26 2034.08,1021.51 2035.57,1021.76 2037.07,1022.01 2038.56,1022.26 2040.05,1022.51 2041.54,1022.77 2043.03,1023.02 
  2044.53,1023.29 2046.02,1023.55 2047.51,1023.85 2049,1024.12 2050.5,1024.43 2051.99,1024.72 2053.48,1025.05 2054.97,1025.35 2056.46,1025.71 2057.96,1026.02 
  2059.45,1026.41 2060.94,1026.74 2062.43,1027.13 2063.93,1027.5 2065.42,1027.91 2066.91,1028.3 2068.4,1028.72 2069.89,1029.15 2071.39,1029.59 2072.88,1030.05 
  2074.37,1030.49 2075.86,916.388 2077.35,988.09 2078.85,1050.71 2080.34,1104.96 2081.83,1103.33 2083.32,1062.47 2084.82,1026.88 2086.31,996.002 2087.8,969.261 
  2089.29,946.151 2090.78,926.243 2092.28,909.061 2093.77,894.367 2095.26,881.922 2096.75,871.462 2098.25,862.667 2099.74,855.542 2101.23,849.89 2102.72,845.441 
  2104.21,842.287 2105.71,840.242 2107.2,839.113 2108.69,839.006 2110.18,839.766 2111.68,841.187 2113.17,843.395 2114.66,846.311 2116.15,849.624 2117.64,853.468 
  2119.14,857.785 2120.63,862.461 2122.12,867.242 2123.61,872.251 2125.1,877.406 2126.6,882.629 2128.09,887.647 2129.58,892.62 2131.07,897.496 2132.57,902.231 
  2134.06,906.75 2135.55,910.935 2137.04,914.901 2138.53,918.63 2140.03,922.111 2141.52,925.335 2143.01,928.3 2144.5,931.006 2146,933.4 2147.49,935.536 
  2148.98,937.444 2150.47,939.134 2151.96,940.616 2153.46,941.904 2154.95,943.009 2156.44,943.945 2157.93,944.725 2159.42,945.362 2160.92,945.868 2162.41,946.255 
  2163.9,946.534 2165.39,802.763 2166.89,890.478 2168.38,963.871 2169.87,1025.68 2171.36,1076.71 2172.85,1104.18 2174.35,1085.43 2175.84,1053.42 2177.33,1024.65 
  2178.82,999.558 2180.32,977.689 2181.81,958.824 2183.3,942.582 2184.79,928.609 2186.28,916.651 2187.78,906.517 2189.27,898.012 2190.76,890.965 2192.25,885.229 
  2193.75,880.678 2195.24,877.199 2196.73,874.693 2198.22,873.072 2199.71,872.256 2201.21,872.171 2202.7,872.751 2204.19,873.931 2205.68,875.65 2207.17,877.849 
  2208.67,880.473 2210.16,883.464 2211.65,886.767 2213.14,890.326 2214.64,894.088 2216.13,897.995 2217.62,901.994 2219.11,906.034 2220.6,910.069 2222.1,914.062 
  2223.59,917.978 2225.08,921.79 2226.57,925.474 2228.07,929.012 2229.56,932.391 2231.05,935.601 2232.54,938.638 2234.03,941.426 2235.53,943.967 2237.02,946.327 
  2238.51,948.511 2240,950.53 2241.49,952.392 2242.99,954.109 2244.48,955.531 2245.97,956.777 2247.46,957.908 2248.96,958.936 2250.45,959.876 2251.94,960.583 
  2253.43,961.129 2254.92,810.007 2256.42,885.166 2257.91,947.84 2259.4,1000.73 2260.89,1045.69 2262.39,1083.7 2263.88,1110.18 2265.37,1104.49 2266.86,1081.45 
  2268.35,1060.26 2269.85,1041.64 2271.34,1025.42 2272.83,1011.32 2274.32,999.038 2275.82,988.462 2277.31,979.27 2278.8,971.379 2280.29,964.661 2281.78,958.829 
  2283.28,953.994 2284.77,949.881 2286.26,946.447 2287.75,943.751 2289.24,941.487 2290.74,939.758 2292.23,938.6 2293.72,937.672 2295.21,937.192 2296.71,937.164 
  2298.2,937.218 2299.69,937.675 2301.18,938.437 2302.67,939.268 2304.17,940.444 2305.66,941.764 2307.15,943.192 2308.64,944.921 2310.14,946.608 2311.63,948.49 
  2313.12,950.548 2314.61,952.523 2316.1,954.734 2317.6,956.889 2319.09,959.109 2320.58,961.468 2322.07,963.643 2323.56,965.994 2325.06,968.221 2326.55,970.452 
  2328.04,972.743 2329.53,974.817 2331.03,977.028 2332.52,979.012 2334.01,981.029 2335.5,982.98 2336.99,984.787 2338.49,986.676 2339.98,988.264 2341.47,989.987 
  2342.96,991.436 2344.46,492.057 2345.95,589.696 2347.44,675.629 2348.93,751.251 2350.42,817.089 2351.92,874.638 2353.41,924.862 2354.9,968.599 2356.39,1006.66 
  2357.89,1039.77 2359.38,1068.58 2360.87,1093.62 2362.36,1115.35 2363.85,1121.35 2365.35,1105.04 2366.84,1090.66 2368.33,1078.13 2369.82,1067.21 2371.31,1057.73 
  2372.81,1049.47 2374.3,1042.26 2375.79,1036.04 2377.28,1030.65 2378.78,1025.92 2380.27,1021.9 2381.76,1018.41 2383.25,1015.37 2384.74,1012.84 2386.24,1010.6 
  2387.73,1008.73 2389.22,1007.23 2390.71,1005.83 2392.21,1004.78 2393.7,1003.9 2395.19,1003.16 2396.68,1002.69 2398.17,1002.22 2399.67,1001.95 2401.16,1001.84 
  2402.65,1001.71 2404.14,1001.78 2405.63,1001.88 2407.13,1002.04 2408.62,1002.38 2410.11,1002.6 2411.6,1002.99 2413.1,1003.44 2414.59,1003.84 2416.08,1004.4 
  2417.57,1004.92 2419.06,1005.46 2420.56,1006.16 2422.05,1006.71 2423.54,1007.38 2425.03,1008.12 2426.53,1008.75 2428.02,1009.5 2429.51,1010.26 2431,1010.95 
  2432.49,1011.78 2433.99,1086.75 2435.48,1078.61 2436.97,1068.55 2438.46,1058.96 2439.96,1050.49 2441.45,1043.07 2442.94,1036.64 2444.43,1031.04 2445.92,1026.18 
  2447.42,1022.01 2448.91,1018.46 2450.4,1015.35 2451.89,1012.66 2453.38,1010.43 2454.88,1008.5 2456.37,1006.82 2457.86,1005.51 2459.35,1004.36 2460.85,1003.41 
  2462.34,1002.75 2463.83,1002.12 2465.32,1001.69 2466.81,1001.49 2468.31,1001.22 2469.8,1001.17 2471.29,1001.25 2472.78,1001.29 2474.28,1001.52 2475.77,1001.79 
  2477.26,1002.06 2478.75,1002.51 2480.24,1002.92 2481.74,1003.37 2483.23,1003.98 2484.72,1004.49 2486.21,1005.07 2487.7,1005.81 2489.2,1006.39 2490.69,1007.08 
  2492.18,1007.91 2493.67,1008.54 2495.17,1009.31 2496.66,1010.19 2498.15,1010.88 2499.64,1011.7 2501.13,1012.61 2502.63,1013.34 2504.12,1014.2 2505.61,1015.13 
  2507.1,1015.88 2508.6,1016.74 2510.09,1017.68 2511.58,1018.43 2513.07,1019.29 2514.56,1020.23 2516.06,1020.96 2517.55,1021.79 2519.04,1022.71 2520.53,1023.41 
  2522.03,1024.2 2523.52,1075.18 2525.01,1081.5 2526.5,1069.84 2527.99,1056.37 2529.49,1043.67 2530.98,1032.35 2532.47,1022.43 2533.96,1013.84 2535.45,1006.34 
  2536.95,999.924 2538.44,994.539 2539.93,989.829 2541.42,985.86 2542.92,982.704 2544.41,979.815 2545.9,977.623 2547.39,975.838 2548.88,974.382 2550.38,973.5 
  2551.87,972.603 2553.36,972.22 2554.85,971.997 2556.35,971.982 2557.84,972.338 2559.33,972.589 2560.82,973.243 2562.31,973.882 2563.81,974.687 2565.3,975.733 
  2566.79,976.624 2568.28,977.843 2569.78,978.957 2571.27,980.186 2572.76,981.602 2574.25,982.795 2575.74,984.265 2577.24,985.603 2578.73,986.98 2580.22,988.544 
  2581.71,989.794 2583.2,991.28 2584.7,992.658 2586.19,993.975 2587.68,995.508 2589.17,996.66 2590.67,997.992 2592.16,999.313 2593.65,1000.43 2595.14,1001.73 
  2596.63,1002.8 2598.13,1003.87 2599.62,1005.11 2601.11,1005.93 2602.6,1006.93 2604.1,1007.93 2605.59,1008.66 2607.08,1009.57 2608.57,1010.35 2610.06,1010.98 
  2611.56,1011.78 2613.05,1027.81 2614.54,1065.72 2616.03,1089.59 2617.52,1095.97 2619.02,1083.64 2620.51,1066.62 2622,1051.07 2623.49,1037.29 2624.99,1025.36 
  2626.48,1015.12 2627.97,1006.13 2629.46,998.483 2630.95,992.1 2632.45,986.647 2633.94,981.974 2635.43,978.288 2636.92,975.148 2638.42,972.592 2639.91,970.83 
  2641.4,969.205 2642.89,968.173 2644.38,967.663 2645.88,967.151 2647.37,967.217 2648.86,967.443 2650.35,967.803 2651.85,968.656 2653.34,969.323 2654.83,970.299 
  2656.32,971.593 2657.81,972.596 2659.31,973.989 2660.8,975.403 2662.29,976.71 2663.78,978.362 2665.27,979.749 2666.77,981.223 2668.26,983.003 2669.75,984.26 
  2671.24,985.793 2672.74,987.414 2674.23,988.662 2675.72,990.171 2677.21,991.58 2678.7,992.761 2680.2,994.183 2681.69,995.364 2683.18,996.429 2684.67,997.72 
  2686.17,998.679 2687.66,999.592 2689.15,1000.72 2690.64,1001.48 2692.13,1002.22 2693.63,1003.17 2695.12,1003.76 2696.61,1004.31 2698.1,1005.07 2699.59,1005.54 
  2701.09,1005.89 2702.58,1003.67 2704.07,1001.4 2705.56,997.232 2707.06,992.627 2708.55,988.265 2710.04,984.493 2711.53,981.49 2713.02,979.272 2714.52,977.138 
  2716.01,975.802 2717.5,975.258 2718.99,974.493 2720.49,974.369 2721.98,974.831 2723.47,974.876 2724.96,975.515 2726.45,976.385 2727.95,976.926 2729.44,977.968 
  2730.93,978.906 2732.42,979.659 2733.92,980.847 2735.41,981.66 2736.9,982.431 2738.39,983.591 2739.88,984.191 2741.38,984.853 2742.87,985.877 2744.36,986.247 
  2745.85,986.725 2747.34,987.551 2748.84,987.719 2750.33,987.97 2751.82,988.567 2753.31,988.587 2754.81,988.594 2756.3,988.949 2757.79,988.889 2759.28,988.644 
  2760.77,988.756 2762.27,988.69 2763.76,988.193 2765.25,988.066 2766.74,988.065 2768.24,987.319 2769.73,986.958 2771.22,986.993 2772.71,986.099 2774.2,985.507 
  2775.7,985.328 2777.19,984.602 2778.68,983.777 2780.17,983.387 2781.66,982.885 2783.16,981.825 2784.65,981.219 2786.14,980.997 2787.63,979.693 2789.13,978.863 
  
  "/>
</svg>
