<?xml version="1.0" encoding="utf-8"?>
<svg xmlns="http://www.w3.org/2000/svg" xmlns:xlink="http://www.w3.org/1999/xlink" width="800" height="500" viewBox="0 0 3200 2000">
<defs>
  <clipPath id="clip2500">
    <rect x="0" y="0" width="3200" height="2000"/>
  </clipPath>
</defs>
<polygon clip-path="url(#clip2500)" points="
0,2000 3200,2000 3200,0 0,0 
  " fill="#ffffff" fill-rule="evenodd" fill-opacity="1"/>
<defs>
  <clipPath id="clip2501">
    <rect x="640" y="0" width="2241" height="2000"/>
  </clipPath>
</defs>
<polygon clip-path="url(#clip2500)" points="
435.778,1649.5 2853.54,1649.5 2853.54,259.74 435.778,259.74 
  " fill="#ffffff" fill-rule="evenodd" fill-opacity="1"/>
<defs>
  <clipPath id="clip2502">
    <rect x="435" y="259" width="2419" height="1391"/>
  </clipPath>
</defs>
<polyline clip-path="url(#clip2502)" style="stroke:#000000; stroke-width:2; stroke-opacity:0.1; fill:none" points="
  502.62,1649.5 502.62,259.74 
  "/>
<polyline clip-path="url(#clip2502)" style="stroke:#000000; stroke-width:2; stroke-opacity:0.1; fill:none" points="
  978.14,1649.5 978.14,259.74 
  "/>
<polyline clip-path="url(#clip2502)" style="stroke:#000000; stroke-width:2; stroke-opacity:0.1; fill:none" points="
  1453.66,1649.5 1453.66,259.74 
  "/>
<polyline clip-path="url(#clip2502)" style="stroke:#000000; stroke-width:2; stroke-opacity:0.1; fill:none" points="
  1929.18,1649.5 1929.18,259.74 
  "/>
<polyline clip-path="url(#clip2502)" style="stroke:#000000; stroke-width:2; stroke-opacity:0.1; fill:none" points="
  2404.7,1649.5 2404.7,259.74 
  "/>
<polyline clip-path="url(#clip2502)" style="stroke:#000000; stroke-width:2; stroke-opacity:0.1; fill:none" points="
  435.778,1422.87 2853.54,1422.87 
  "/>
<polyline clip-path="url(#clip2502)" style="stroke:#000000; stroke-width:2; stroke-opacity:0.1; fill:none" points="
  435.778,1141.92 2853.54,1141.92 
  "/>
<polyline clip-path="url(#clip2502)" style="stroke:#000000; stroke-width:2; stroke-opacity:0.1; fill:none" points="
  435.778,860.969 2853.54,860.969 
  "/>
<polyline clip-path="url(#clip2502)" style="stroke:#000000; stroke-width:2; stroke-opacity:0.1; fill:none" points="
  435.778,580.021 2853.54,580.021 
  "/>
<polyline clip-path="url(#clip2502)" style="stroke:#000000; stroke-width:2; stroke-opacity:0.1; fill:none" points="
  435.778,299.072 2853.54,299.072 
  "/>
<polyline clip-path="url(#clip2500)" style="stroke:#000000; stroke-width:4; stroke-opacity:1; fill:none" points="
  435.778,1649.5 2853.54,1649.5 
  "/>
<polyline clip-path="url(#clip2500)" style="stroke:#000000; stroke-width:4; stroke-opacity:1; fill:none" points="
  435.778,1649.5 435.778,259.74 
  "/>
<polyline clip-path="url(#clip2500)" style="stroke:#000000; stroke-width:4; stroke-opacity:1; fill:none" points="
  502.62,1649.5 502.62,1628.65 
  "/>
<polyline clip-path="url(#clip2500)" style="stroke:#000000; stroke-width:4; stroke-opacity:1; fill:none" points="
  978.14,1649.5 978.14,1628.65 
  "/>
<polyline clip-path="url(#clip2500)" style="stroke:#000000; stroke-width:4; stroke-opacity:1; fill:none" points="
  1453.66,1649.5 1453.66,1628.65 
  "/>
<polyline clip-path="url(#clip2500)" style="stroke:#000000; stroke-width:4; stroke-opacity:1; fill:none" points="
  1929.18,1649.5 1929.18,1628.65 
  "/>
<polyline clip-path="url(#clip2500)" style="stroke:#000000; stroke-width:4; stroke-opacity:1; fill:none" points="
  2404.7,1649.5 2404.7,1628.65 
  "/>
<polyline clip-path="url(#clip2500)" style="stroke:#000000; stroke-width:4; stroke-opacity:1; fill:none" points="
  435.778,1422.87 472.044,1422.87 
  "/>
<polyline clip-path="url(#clip2500)" style="stroke:#000000; stroke-width:4; stroke-opacity:1; fill:none" points="
  435.778,1141.92 472.044,1141.92 
  "/>
<polyline clip-path="url(#clip2500)" style="stroke:#000000; stroke-width:4; stroke-opacity:1; fill:none" points="
  435.778,860.969 472.044,860.969 
  "/>
<polyline clip-path="url(#clip2500)" style="stroke:#000000; stroke-width:4; stroke-opacity:1; fill:none" points="
  435.778,580.021 472.044,580.021 
  "/>
<polyline clip-path="url(#clip2500)" style="stroke:#000000; stroke-width:4; stroke-opacity:1; fill:none" points="
  435.778,299.072 472.044,299.072 
  "/>
<g clip-path="url(#clip2500)">
<text style="fill:#000000; fill-opacity:1; font-family:Arial,Helvetica Neue,Helvetica,sans-serif; font-size:71px; text-anchor:middle;" transform="rotate(0, 502.62, 1727.9)" x="502.62" y="1727.9">0</text>
</g>
<g clip-path="url(#clip2500)">
<text style="fill:#000000; fill-opacity:1; font-family:Arial,Helvetica Neue,Helvetica,sans-serif; font-size:71px; text-anchor:middle;" transform="rotate(0, 978.14, 1727.9)" x="978.14" y="1727.9">300</text>
</g>
<g clip-path="url(#clip2500)">
<text style="fill:#000000; fill-opacity:1; font-family:Arial,Helvetica Neue,Helvetica,sans-serif; font-size:71px; text-anchor:middle;" transform="rotate(0, 1453.66, 1727.9)" x="1453.66" y="1727.9">600</text>
</g>
<g clip-path="url(#clip2500)">
<text style="fill:#000000; fill-opacity:1; font-family:Arial,Helvetica Neue,Helvetica,sans-serif; font-size:71px; text-anchor:middle;" transform="rotate(0, 1929.18, 1727.9)" x="1929.18" y="1727.9">900</text>
</g>
<g clip-path="url(#clip2500)">
<text style="fill:#000000; fill-opacity:1; font-family:Arial,Helvetica Neue,Helvetica,sans-serif; font-size:71px; text-anchor:middle;" transform="rotate(0, 2404.7, 1727.9)" x="2404.7" y="1727.9">1200</text>
</g>
<g clip-path="url(#clip2500)">
<text style="fill:#000000; fill-opacity:1; font-family:Arial,Helvetica Neue,Helvetica,sans-serif; font-size:71px; text-anchor:end;" transform="rotate(0, 403.778, 1448.87)" x="403.778" y="1448.87">20</text>
</g>
<g clip-path="url(#clip2500)">
<text style="fill:#000000; fill-opacity:1; font-family:Arial,Helvetica Neue,Helvetica,sans-serif; font-size:71px; text-anchor:end;" transform="rotate(0, 403.778, 1167.92)" x="403.778" y="1167.92">40</text>
</g>
<g clip-path="url(#clip2500)">
<text style="fill:#000000; fill-opacity:1; font-family:Arial,Helvetica Neue,Helvetica,sans-serif; font-size:71px; text-anchor:end;" transform="rotate(0, 403.778, 886.969)" x="403.778" y="886.969">60</text>
</g>
<g clip-path="url(#clip2500)">
<text style="fill:#000000; fill-opacity:1; font-family:Arial,Helvetica Neue,Helvetica,sans-serif; font-size:71px; text-anchor:end;" transform="rotate(0, 403.778, 606.021)" x="403.778" y="606.021">80</text>
</g>
<g clip-path="url(#clip2500)">
<text style="fill:#000000; fill-opacity:1; font-family:Arial,Helvetica Neue,Helvetica,sans-serif; font-size:71px; text-anchor:end;" transform="rotate(0, 403.778, 325.072)" x="403.778" y="325.072">100</text>
</g>
<g clip-path="url(#clip2500)">
<text style="fill:#000000; fill-opacity:1; font-family:Arial,Helvetica Neue,Helvetica,sans-serif; font-size:82px; text-anchor:middle;" transform="rotate(0, 1644.66, 72)" x="1644.66" y="72">Figure 1: Arrival rate for US Bank Callcenter</text>
</g>
<g clip-path="url(#clip2500)">
<text style="fill:#000000; fill-opacity:1; font-family:Arial,Helvetica Neue,Helvetica,sans-serif; font-size:95px; text-anchor:middle;" transform="rotate(0, 1644.66, 1843.75)" x="1644.66" y="1843.75">Time (min.)</text>
</g>
<g clip-path="url(#clip2500)">
<text style="fill:#000000; fill-opacity:1; font-family:Arial,Helvetica Neue,Helvetica,sans-serif; font-size:95px; text-anchor:middle;" transform="rotate(-90, 233.548, 954.618)" x="233.548" y="954.618">Arrival rate (1/min.)</text>
</g>
<polyline clip-path="url(#clip2502)" style="stroke:#009af9; stroke-width:4; stroke-opacity:1; fill:none" points="
  504.205,1586.83 505.79,1586.91 507.375,1586.99 508.96,1587.06 510.545,1587.14 512.13,1587.22 513.715,1587.3 515.3,1587.38 516.885,1587.45 518.471,1587.53 
  520.056,1587.61 521.641,1587.69 523.226,1587.77 524.811,1587.84 526.396,1587.92 527.981,1588 529.566,1588.08 531.151,1588.16 532.736,1588.23 534.321,1588.31 
  535.906,1588.39 537.491,1588.47 539.076,1588.55 540.661,1588.62 542.247,1588.7 543.832,1588.78 545.417,1588.86 547.002,1588.94 548.587,1589.02 550.172,1589.09 
  551.757,1589.17 553.342,1589.25 554.927,1589.33 556.512,1589.41 558.097,1589.48 559.682,1589.56 561.267,1589.64 562.852,1589.72 564.437,1589.8 566.023,1589.87 
  567.608,1589.95 569.193,1590.03 570.778,1590.11 572.363,1590.19 573.948,1590.26 575.533,1590.34 577.118,1590.42 578.703,1590.5 580.288,1590.58 581.873,1590.65 
  583.458,1590.73 585.043,1590.81 586.628,1590.89 588.213,1590.97 589.799,1591.04 591.384,1591.12 592.969,1591.2 594.554,1591.28 596.139,1591.36 597.724,1591.43 
  599.309,1591.51 600.894,1591.59 602.479,1591.67 604.064,1591.75 605.649,1591.82 607.234,1591.9 608.819,1591.98 610.404,1592.06 611.989,1592.14 613.575,1592.21 
  615.16,1592.29 616.745,1592.37 618.33,1592.45 619.915,1592.53 621.5,1592.6 623.085,1592.68 624.67,1592.76 626.255,1592.84 627.84,1592.92 629.425,1593 
  631.01,1593.07 632.595,1593.15 634.18,1593.23 635.765,1593.31 637.351,1593.39 638.936,1593.46 640.521,1593.54 642.106,1593.62 643.691,1593.7 645.276,1593.78 
  646.861,1593.85 648.446,1593.93 650.031,1594.01 651.616,1594.09 653.201,1594.17 654.786,1594.24 656.371,1594.32 657.956,1594.4 659.541,1594.48 661.127,1594.56 
  662.712,1594.63 664.297,1594.71 665.882,1594.79 667.467,1594.87 669.052,1594.95 670.637,1595.02 672.222,1595.1 673.807,1595.18 675.392,1595.26 676.977,1595.34 
  678.562,1595.41 680.147,1595.49 681.732,1595.57 683.317,1595.65 684.903,1595.73 686.488,1595.8 688.073,1595.88 689.658,1595.96 691.243,1596.04 692.828,1596.12 
  694.413,1596.19 695.998,1596.27 697.583,1596.35 699.168,1596.43 700.753,1596.51 702.338,1596.59 703.923,1596.66 705.508,1596.74 707.093,1596.82 708.679,1596.9 
  710.264,1596.98 711.849,1597.05 713.434,1597.13 715.019,1597.21 716.604,1597.29 718.189,1597.37 719.774,1597.44 721.359,1597.52 722.944,1597.6 724.529,1597.68 
  726.114,1597.76 727.699,1597.83 729.284,1597.91 730.869,1597.99 732.455,1598.07 734.04,1598.15 735.625,1598.22 737.21,1598.3 738.795,1598.38 740.38,1598.46 
  741.965,1598.54 743.55,1598.61 745.135,1598.69 746.72,1598.77 748.305,1598.85 749.89,1598.93 751.475,1599 753.06,1599.08 754.645,1599.16 756.231,1599.24 
  757.816,1599.32 759.401,1599.39 760.986,1599.47 762.571,1599.55 764.156,1599.63 765.741,1599.71 767.326,1599.78 768.911,1599.86 770.496,1599.94 772.081,1600.02 
  773.666,1600.1 775.251,1600.17 776.836,1600.25 778.421,1600.33 780.007,1600.41 781.592,1600.49 783.177,1600.57 784.762,1600.64 786.347,1600.72 787.932,1600.8 
  789.517,1600.88 791.102,1600.96 792.687,1601.03 794.272,1601.11 795.857,1601.19 797.442,1601.27 799.027,1601.35 800.612,1601.42 802.197,1601.5 803.783,1601.58 
  805.368,1601.66 806.953,1601.74 808.538,1601.81 810.123,1601.89 811.708,1601.97 813.293,1602.05 814.878,1602.13 816.463,1602.2 818.048,1602.28 819.633,1602.36 
  821.218,1602.44 822.803,1602.52 824.388,1602.59 825.973,1602.67 827.559,1602.75 829.144,1602.83 830.729,1602.91 832.314,1602.98 833.899,1603.06 835.484,1603.14 
  837.069,1603.22 838.654,1603.3 840.239,1603.37 841.824,1603.45 843.409,1603.53 844.994,1603.61 846.579,1603.69 848.164,1603.76 849.749,1603.84 851.335,1603.92 
  852.92,1604 854.505,1604.08 856.09,1604.15 857.675,1604.23 859.26,1604.31 860.845,1604.39 862.43,1604.47 864.015,1604.55 865.6,1604.62 867.185,1604.7 
  868.77,1604.78 870.355,1604.86 871.94,1604.94 873.526,1605.01 875.111,1605.09 876.696,1605.17 878.281,1605.25 879.866,1605.33 881.451,1605.4 883.036,1605.48 
  884.621,1605.56 886.206,1605.64 887.791,1605.72 889.376,1605.79 890.961,1605.87 892.546,1605.95 894.131,1606.03 895.716,1606.11 897.302,1606.18 898.887,1606.26 
  900.472,1606.34 902.057,1606.42 903.642,1606.5 905.227,1606.57 906.812,1606.65 908.397,1606.73 909.982,1606.81 911.567,1606.89 913.152,1606.96 914.737,1607.04 
  916.322,1607.12 917.907,1607.2 919.492,1607.28 921.078,1607.35 922.663,1607.43 924.248,1607.51 925.833,1607.59 927.418,1607.67 929.003,1607.74 930.588,1607.82 
  932.173,1607.9 933.758,1607.98 935.343,1608.06 936.928,1608.14 938.513,1608.21 940.098,1608.29 941.683,1608.37 943.268,1608.45 944.854,1608.53 946.439,1608.6 
  948.024,1608.68 949.609,1608.76 951.194,1608.84 952.779,1608.92 954.364,1608.99 955.949,1609.07 957.534,1609.15 959.119,1609.23 960.704,1609.31 962.289,1609.38 
  963.874,1609.46 965.459,1609.54 967.044,1609.62 968.63,1609.7 970.215,1609.77 971.8,1609.85 973.385,1609.93 974.97,1610.01 976.555,1610.09 978.14,1610.16 
  979.725,1609.97 981.31,1609.77 982.895,1609.58 984.48,1609.38 986.065,1609.19 987.65,1608.99 989.235,1608.8 990.82,1608.6 992.406,1608.41 993.991,1608.21 
  995.576,1608.02 997.161,1607.82 998.746,1607.63 1000.33,1607.43 1001.92,1607.24 1003.5,1607.04 1005.09,1606.85 1006.67,1606.65 1008.26,1606.46 1009.84,1606.26 
  1011.43,1606.07 1013.01,1605.87 1014.6,1605.68 1016.18,1605.48 1017.77,1605.29 1019.35,1605.09 1020.94,1604.9 1022.52,1604.7 1024.11,1604.51 1025.69,1604.31 
  1027.28,1604.12 1028.86,1603.92 1030.45,1603.73 1032.03,1603.53 1033.62,1603.34 1035.2,1603.14 1036.79,1602.95 1038.37,1602.75 1039.96,1602.56 1041.54,1602.36 
  1043.13,1602.16 1044.71,1601.97 1046.3,1601.77 1047.88,1601.58 1049.47,1601.38 1051.05,1601.19 1052.64,1600.99 1054.22,1600.8 1055.81,1600.6 1057.39,1600.41 
  1058.98,1600.21 1060.56,1600.02 1062.15,1599.82 1063.73,1599.63 1065.32,1599.43 1066.9,1599.24 1068.49,1599.04 1070.07,1598.85 1071.66,1598.65 1073.24,1598.46 
  1074.83,1598.26 1076.41,1598.07 1078,1597.87 1079.58,1597.68 1081.17,1597.48 1082.75,1597.29 1084.34,1597.09 1085.92,1596.9 1087.51,1596.7 1089.09,1596.51 
  1090.68,1596.31 1092.26,1596.12 1093.85,1595.92 1095.43,1595.73 1097.02,1595.53 1098.6,1595.34 1100.19,1595.14 1101.78,1594.95 1103.36,1594.75 1104.95,1594.56 
  1106.53,1594.36 1108.12,1594.17 1109.7,1593.97 1111.29,1593.78 1112.87,1593.58 1114.46,1593.39 1116.04,1593.19 1117.63,1593 1119.21,1592.8 1120.8,1592.6 
  1122.38,1592.41 1123.97,1592.21 1125.55,1592.02 1127.14,1591.82 1128.72,1591.63 1130.31,1591.43 1131.89,1591.24 1133.48,1591.04 1135.06,1590.85 1136.65,1590.65 
  1138.23,1590.46 1139.82,1590.26 1141.4,1590.07 1142.99,1589.87 1144.57,1589.68 1146.16,1589.48 1147.74,1589.29 1149.33,1589.09 1150.91,1588.9 1152.5,1588.7 
  1154.08,1588.51 1155.67,1588.31 1157.25,1588.12 1158.84,1587.92 1160.42,1587.73 1162.01,1587.53 1163.59,1587.34 1165.18,1587.14 1166.76,1586.95 1168.35,1586.75 
  1169.93,1579.6 1171.52,1572.44 1173.1,1565.29 1174.69,1558.14 1176.27,1550.98 1177.86,1543.83 1179.44,1536.68 1181.03,1529.52 1182.61,1522.37 1184.2,1515.21 
  1185.78,1508.06 1187.37,1500.91 1188.95,1493.75 1190.54,1486.6 1192.12,1479.45 1193.71,1472.29 1195.29,1465.14 1196.88,1457.98 1198.46,1450.83 1200.05,1443.68 
  1201.63,1436.52 1203.22,1429.37 1204.8,1422.22 1206.39,1415.06 1207.97,1407.91 1209.56,1400.75 1211.14,1393.6 1212.73,1386.45 1214.31,1379.29 1215.9,1372.14 
  1217.48,1364.98 1219.07,1357.83 1220.66,1350.68 1222.24,1343.52 1223.83,1336.37 1225.41,1329.22 1227,1322.06 1228.58,1314.91 1230.17,1307.75 1231.75,1300.6 
  1233.34,1293.45 1234.92,1286.29 1236.51,1279.14 1238.09,1271.99 1239.68,1264.83 1241.26,1257.68 1242.85,1250.52 1244.43,1243.37 1246.02,1236.22 1247.6,1229.06 
  1249.19,1221.91 1250.77,1214.76 1252.36,1207.6 1253.94,1200.45 1255.53,1193.29 1257.11,1186.14 1258.7,1178.99 1260.28,1171.83 1261.87,1164.68 1263.45,1157.53 
  1265.04,1150.37 1266.62,1143.22 1268.21,1136.06 1269.79,1128.91 1271.38,1121.76 1272.96,1114.6 1274.55,1107.45 1276.13,1100.3 1277.72,1093.14 1279.3,1085.99 
  1280.89,1078.83 1282.47,1071.68 1284.06,1064.53 1285.64,1057.37 1287.23,1050.22 1288.81,1043.06 1290.4,1035.91 1291.98,1028.76 1293.57,1021.6 1295.15,1014.45 
  1296.74,1007.3 1298.32,1000.14 1299.91,992.989 1301.49,985.835 1303.08,978.681 1304.66,971.527 1306.25,964.373 1307.83,957.22 1309.42,950.066 1311,942.912 
  1312.59,935.758 1314.17,928.605 1315.76,921.451 1317.34,914.297 1318.93,907.143 1320.51,899.99 1322.1,892.836 1323.68,885.682 1325.27,878.528 1326.85,871.374 
  1328.44,864.221 1330.02,857.067 1331.61,849.913 1333.19,842.759 1334.78,835.606 1336.36,828.452 1337.95,821.298 1339.54,814.144 1341.12,806.99 1342.71,799.837 
  1344.29,792.683 1345.88,785.529 1347.46,778.375 1349.05,771.222 1350.63,764.068 1352.22,756.914 1353.8,749.76 1355.39,742.606 1356.97,735.453 1358.56,728.299 
  1360.14,721.145 1361.73,713.991 1363.31,706.838 1364.9,699.684 1366.48,692.53 1368.07,685.376 1369.65,678.223 1371.24,671.069 1372.82,663.915 1374.41,656.761 
  1375.99,649.607 1377.58,642.454 1379.16,635.3 1380.75,628.146 1382.33,620.992 1383.92,613.839 1385.5,606.685 1387.09,599.531 1388.67,592.377 1390.26,585.223 
  1391.84,578.07 1393.43,570.916 1395.01,563.762 1396.6,556.608 1398.18,549.455 1399.77,542.301 1401.35,535.147 1402.94,527.993 1404.52,520.839 1406.11,513.686 
  1407.69,506.532 1409.28,499.378 1410.86,492.224 1412.45,485.071 1414.03,477.917 1415.62,470.763 1417.2,463.609 1418.79,456.456 1420.37,449.302 1421.96,442.148 
  1423.54,434.994 1425.13,427.84 1426.71,420.687 1428.3,413.533 1429.88,406.379 1431.47,399.225 1433.05,392.072 1434.64,384.918 1436.22,377.764 1437.81,370.61 
  1439.39,363.456 1440.98,356.303 1442.56,349.149 1444.15,341.995 1445.73,334.841 1447.32,327.688 1448.9,320.534 1450.49,313.38 1452.07,306.226 1453.66,299.072 
  1455.24,300.048 1456.83,301.024 1458.42,301.999 1460,302.975 1461.59,303.95 1463.17,304.926 1464.76,305.901 1466.34,306.877 1467.93,307.852 1469.51,308.828 
  1471.1,309.803 1472.68,310.779 1474.27,311.754 1475.85,312.73 1477.44,313.705 1479.02,314.681 1480.61,315.656 1482.19,316.632 1483.78,317.607 1485.36,318.583 
  1486.95,319.558 1488.53,320.534 1490.12,321.509 1491.7,322.485 1493.29,323.46 1494.87,324.436 1496.46,325.411 1498.04,326.387 1499.63,327.362 1501.21,328.338 
  1502.8,329.313 1504.38,330.289 1505.97,331.264 1507.55,332.24 1509.14,333.215 1510.72,334.191 1512.31,335.167 1513.89,336.142 1515.48,337.118 1517.06,338.093 
  1518.65,339.069 1520.23,340.044 1521.82,341.02 1523.4,341.995 1524.99,342.971 1526.57,343.946 1528.16,344.922 1529.74,345.897 1531.33,346.873 1532.91,347.848 
  1534.5,348.824 1536.08,349.799 1537.67,350.775 1539.25,351.75 1540.84,352.726 1542.42,353.701 1544.01,354.677 1545.59,355.652 1547.18,356.628 1548.76,357.603 
  1550.35,358.579 1551.93,359.554 1553.52,360.53 1555.1,361.505 1556.69,362.481 1558.27,363.456 1559.86,364.432 1561.44,365.407 1563.03,366.383 1564.61,367.359 
  1566.2,368.334 1567.78,369.31 1569.37,370.285 1570.95,371.261 1572.54,372.236 1574.12,373.212 1575.71,374.187 1577.3,375.163 1578.88,376.138 1580.47,377.114 
  1582.05,378.089 1583.64,379.065 1585.22,380.04 1586.81,381.016 1588.39,381.991 1589.98,382.967 1591.56,383.942 1593.15,384.918 1594.73,385.893 1596.32,386.869 
  1597.9,387.844 1599.49,388.82 1601.07,389.795 1602.66,390.771 1604.24,391.746 1605.83,392.722 1607.41,393.697 1609,394.673 1610.58,395.648 1612.17,396.624 
  1613.75,397.599 1615.34,398.575 1616.92,399.55 1618.51,400.526 1620.09,401.502 1621.68,402.477 1623.26,403.453 1624.85,404.428 1626.43,405.404 1628.02,406.379 
  1629.6,407.355 1631.19,408.33 1632.77,409.306 1634.36,410.281 1635.94,411.257 1637.53,412.232 1639.11,413.208 1640.7,414.183 1642.28,415.159 1643.87,416.134 
  1645.45,417.11 1647.04,418.085 1648.62,419.061 1650.21,420.036 1651.79,421.012 1653.38,421.987 1654.96,422.963 1656.55,423.938 1658.13,424.914 1659.72,425.889 
  1661.3,426.865 1662.89,427.84 1664.47,428.816 1666.06,429.791 1667.64,430.767 1669.23,431.742 1670.81,432.718 1672.4,433.694 1673.98,434.669 1675.57,435.645 
  1677.15,436.62 1678.74,437.596 1680.32,438.571 1681.91,439.547 1683.49,440.522 1685.08,441.498 1686.66,442.473 1688.25,443.449 1689.83,444.424 1691.42,445.4 
  1693,446.375 1694.59,447.351 1696.18,448.326 1697.76,449.302 1699.35,450.277 1700.93,451.253 1702.52,452.228 1704.1,453.204 1705.69,454.179 1707.27,455.155 
  1708.86,456.13 1710.44,457.106 1712.03,458.081 1713.61,459.057 1715.2,460.032 1716.78,461.008 1718.37,461.983 1719.95,462.959 1721.54,463.934 1723.12,464.91 
  1724.71,465.885 1726.29,466.861 1727.88,467.837 1729.46,468.812 1731.05,469.788 1732.63,470.763 1734.22,471.739 1735.8,472.714 1737.39,473.69 1738.97,474.665 
  1740.56,475.641 1742.14,476.616 1743.73,477.592 1745.31,478.567 1746.9,479.543 1748.48,480.518 1750.07,481.494 1751.65,482.469 1753.24,483.445 1754.82,484.42 
  1756.41,485.396 1757.99,486.371 1759.58,487.347 1761.16,488.322 1762.75,489.298 1764.33,490.273 1765.92,491.249 1767.5,492.224 1769.09,493.2 1770.67,494.175 
  1772.26,495.151 1773.84,496.126 1775.43,497.102 1777.01,498.077 1778.6,499.053 1780.18,500.028 1781.77,501.004 1783.35,501.98 1784.94,502.955 1786.52,503.931 
  1788.11,504.906 1789.69,505.882 1791.28,506.857 1792.86,507.833 1794.45,508.808 1796.03,509.784 1797.62,510.759 1799.2,511.735 1800.79,512.71 1802.37,513.686 
  1803.96,514.661 1805.54,515.637 1807.13,516.612 1808.71,517.588 1810.3,518.563 1811.89,519.539 1813.47,520.514 1815.06,521.49 1816.64,522.465 1818.23,523.441 
  1819.81,524.416 1821.4,525.392 1822.98,526.367 1824.57,527.343 1826.15,528.318 1827.74,529.294 1829.32,530.269 1830.91,531.245 1832.49,532.22 1834.08,533.196 
  1835.66,534.172 1837.25,535.147 1838.83,536.123 1840.42,537.098 1842,538.074 1843.59,539.049 1845.17,540.025 1846.76,541 1848.34,541.976 1849.93,542.951 
  1851.51,543.927 1853.1,544.902 1854.68,545.878 1856.27,546.853 1857.85,547.829 1859.44,548.804 1861.02,549.78 1862.61,550.755 1864.19,551.731 1865.78,552.706 
  1867.36,553.682 1868.95,554.657 1870.53,555.633 1872.12,556.608 1873.7,557.584 1875.29,558.559 1876.87,559.535 1878.46,560.51 1880.04,561.486 1881.63,562.461 
  1883.21,563.437 1884.8,564.412 1886.38,565.388 1887.97,566.363 1889.55,567.339 1891.14,568.315 1892.72,569.29 1894.31,570.266 1895.89,571.241 1897.48,572.217 
  1899.06,573.192 1900.65,574.168 1902.23,575.143 1903.82,576.119 1905.4,577.094 1906.99,578.07 1908.57,579.045 1910.16,580.021 1911.74,580.996 1913.33,581.972 
  1914.91,582.947 1916.5,583.923 1918.08,584.898 1919.67,585.874 1921.25,586.849 1922.84,587.825 1924.42,588.8 1926.01,589.776 1927.59,590.751 1929.18,591.727 
  1930.77,592.702 1932.35,593.678 1933.94,594.653 1935.52,595.629 1937.11,596.604 1938.69,597.58 1940.28,598.555 1941.86,599.531 1943.45,600.507 1945.03,601.482 
  1946.62,602.458 1948.2,603.433 1949.79,604.409 1951.37,605.384 1952.96,606.36 1954.54,607.335 1956.13,608.311 1957.71,609.286 1959.3,610.262 1960.88,611.237 
  1962.47,612.213 1964.05,613.188 1965.64,614.164 1967.22,615.139 1968.81,616.115 1970.39,617.09 1971.98,618.066 1973.56,619.041 1975.15,620.017 1976.73,620.992 
  1978.32,621.968 1979.9,622.943 1981.49,623.919 1983.07,624.894 1984.66,625.87 1986.24,626.845 1987.83,627.821 1989.41,628.796 1991,629.772 1992.58,630.747 
  1994.17,631.723 1995.75,632.698 1997.34,633.674 1998.92,634.65 2000.51,635.625 2002.09,636.601 2003.68,637.576 2005.26,638.552 2006.85,639.527 2008.43,640.503 
  2010.02,641.478 2011.6,642.454 2013.19,643.429 2014.77,644.405 2016.36,645.38 2017.94,646.356 2019.53,647.331 2021.11,648.307 2022.7,649.282 2024.28,650.258 
  2025.87,655.135 2027.45,660.013 2029.04,664.89 2030.62,669.768 2032.21,674.646 2033.79,679.523 2035.38,684.401 2036.96,689.278 2038.55,694.156 2040.13,699.033 
  2041.72,703.911 2043.3,708.789 2044.89,713.666 2046.47,718.544 2048.06,723.421 2049.65,728.299 2051.23,733.176 2052.82,738.054 2054.4,742.932 2055.99,747.809 
  2057.57,752.687 2059.16,757.564 2060.74,762.442 2062.33,767.32 2063.91,772.197 2065.5,777.075 2067.08,781.952 2068.67,786.83 2070.25,791.707 2071.84,796.585 
  2073.42,801.463 2075.01,806.34 2076.59,811.218 2078.18,816.095 2079.76,820.973 2081.35,825.85 2082.93,830.728 2084.52,835.606 2086.1,840.483 2087.69,845.361 
  2089.27,850.238 2090.86,855.116 2092.44,859.993 2094.03,864.871 2095.61,869.749 2097.2,874.626 2098.78,879.504 2100.37,884.381 2101.95,889.259 2103.54,894.136 
  2105.12,899.014 2106.71,903.892 2108.29,908.769 2109.88,913.647 2111.46,918.524 2113.05,923.402 2114.63,928.279 2116.22,933.157 2117.8,938.035 2119.39,942.912 
  2120.97,947.79 2122.56,952.667 2124.14,957.545 2125.73,962.422 2127.31,967.3 2128.9,972.178 2130.48,977.055 2132.07,981.933 2133.65,986.81 2135.24,991.688 
  2136.82,996.565 2138.41,1001.44 2139.99,1006.32 2141.58,1011.2 2143.16,1016.08 2144.75,1020.95 2146.33,1025.83 2147.92,1030.71 2149.5,1035.59 2151.09,1040.46 
  2152.67,1045.34 2154.26,1050.22 2155.84,1055.1 2157.43,1059.97 2159.01,1064.85 2160.6,1069.73 2162.18,1074.61 2163.77,1079.48 2165.35,1084.36 2166.94,1089.24 
  2168.53,1094.12 2170.11,1098.99 2171.7,1103.87 2173.28,1108.75 2174.87,1113.63 2176.45,1118.5 2178.04,1123.38 2179.62,1128.26 2181.21,1133.14 2182.79,1138.02 
  2184.38,1142.89 2185.96,1147.77 2187.55,1152.65 2189.13,1157.53 2190.72,1162.4 2192.3,1167.28 2193.89,1172.16 2195.47,1177.04 2197.06,1181.91 2198.64,1186.79 
  2200.23,1191.67 2201.81,1196.55 2203.4,1201.42 2204.98,1206.3 2206.57,1211.18 2208.15,1216.06 2209.74,1220.93 2211.32,1225.81 2212.91,1230.69 2214.49,1235.57 
  2216.08,1236.61 2217.66,1237.65 2219.25,1238.69 2220.83,1239.73 2222.42,1240.77 2224,1241.81 2225.59,1242.85 2227.17,1243.89 2228.76,1244.93 2230.34,1245.97 
  2231.93,1247.01 2233.51,1248.05 2235.1,1249.09 2236.68,1250.13 2238.27,1251.17 2239.85,1252.22 2241.44,1253.26 2243.02,1254.3 2244.61,1255.34 2246.19,1256.38 
  2247.78,1257.42 2249.36,1258.46 2250.95,1259.5 2252.53,1260.54 2254.12,1261.58 2255.7,1262.62 2257.29,1263.66 2258.87,1264.7 2260.46,1265.74 2262.04,1266.78 
  2263.63,1267.82 2265.21,1268.86 2266.8,1269.9 2268.38,1270.95 2269.97,1271.99 2271.55,1273.03 2273.14,1274.07 2274.72,1275.11 2276.31,1276.15 2277.89,1277.19 
  2279.48,1278.23 2281.06,1279.27 2282.65,1280.31 2284.23,1281.35 2285.82,1282.39 2287.41,1283.43 2288.99,1284.47 2290.58,1285.51 2292.16,1286.55 2293.75,1287.59 
  2295.33,1288.63 2296.92,1289.68 2298.5,1290.72 2300.09,1291.76 2301.67,1292.8 2303.26,1293.84 2304.84,1294.88 2306.43,1295.92 2308.01,1296.96 2309.6,1298 
  2311.18,1299.04 2312.77,1300.08 2314.35,1301.12 2315.94,1302.16 2317.52,1303.2 2319.11,1304.24 2320.69,1305.28 2322.28,1306.32 2323.86,1307.36 2325.45,1308.4 
  2327.03,1309.45 2328.62,1310.49 2330.2,1311.53 2331.79,1312.57 2333.37,1313.61 2334.96,1314.65 2336.54,1315.69 2338.13,1316.73 2339.71,1317.77 2341.3,1318.81 
  2342.88,1319.85 2344.47,1320.89 2346.05,1321.93 2347.64,1322.97 2349.22,1324.01 2350.81,1325.05 2352.39,1326.09 2353.98,1327.13 2355.56,1328.18 2357.15,1329.22 
  2358.73,1330.26 2360.32,1331.3 2361.9,1332.34 2363.49,1333.38 2365.07,1334.42 2366.66,1335.46 2368.24,1336.5 2369.83,1337.54 2371.41,1338.58 2373,1339.62 
  2374.58,1340.66 2376.17,1341.7 2377.75,1342.74 2379.34,1343.78 2380.92,1344.82 2382.51,1345.86 2384.09,1346.91 2385.68,1347.95 2387.26,1348.99 2388.85,1350.03 
  2390.43,1351.07 2392.02,1352.11 2393.6,1353.15 2395.19,1354.19 2396.77,1355.23 2398.36,1356.27 2399.94,1357.31 2401.53,1358.35 2403.11,1359.39 2404.7,1360.43 
  2406.29,1361.47 2407.87,1362.51 2409.46,1363.55 2411.04,1364.59 2412.63,1365.64 2414.21,1366.68 2415.8,1367.72 2417.38,1368.76 2418.97,1369.8 2420.55,1370.84 
  2422.14,1371.88 2423.72,1372.92 2425.31,1373.96 2426.89,1375 2428.48,1376.04 2430.06,1377.08 2431.65,1378.12 2433.23,1379.16 2434.82,1380.2 2436.4,1381.24 
  2437.99,1382.28 2439.57,1383.32 2441.16,1384.37 2442.74,1385.41 2444.33,1386.45 2445.91,1387.49 2447.5,1388.53 2449.08,1389.57 2450.67,1390.61 2452.25,1391.65 
  2453.84,1392.69 2455.42,1393.73 2457.01,1394.77 2458.59,1395.81 2460.18,1396.85 2461.76,1397.89 2463.35,1398.93 2464.93,1399.97 2466.52,1401.01 2468.1,1402.05 
  2469.69,1403.09 2471.27,1404.14 2472.86,1405.18 2474.44,1406.22 2476.03,1407.26 2477.61,1408.3 2479.2,1409.34 2480.78,1410.38 2482.37,1411.42 2483.95,1412.46 
  2485.54,1413.5 2487.12,1414.54 2488.71,1415.58 2490.29,1416.62 2491.88,1417.66 2493.46,1418.7 2495.05,1419.74 2496.63,1420.78 2498.22,1421.82 2499.8,1422.87 
  2501.39,1423.91 2502.97,1424.95 2504.56,1425.99 2506.14,1427.03 2507.73,1428.07 2509.31,1429.11 2510.9,1430.15 2512.48,1431.19 2514.07,1432.23 2515.65,1433.27 
  2517.24,1434.31 2518.82,1435.35 2520.41,1436.39 2521.99,1437.43 2523.58,1438.47 2525.17,1439.51 2526.75,1440.55 2528.34,1441.6 2529.92,1442.64 2531.51,1443.68 
  2533.09,1444.72 2534.68,1445.76 2536.26,1446.8 2537.85,1447.84 2539.43,1448.88 2541.02,1449.92 2542.6,1450.96 2544.19,1452 2545.77,1453.04 2547.36,1454.08 
  2548.94,1455.12 2550.53,1456.16 2552.11,1457.2 2553.7,1458.24 2555.28,1459.28 2556.87,1460.33 2558.45,1461.37 2560.04,1462.41 2561.62,1463.45 2563.21,1464.49 
  2564.79,1465.53 2566.38,1466.57 2567.96,1467.61 2569.55,1468.65 2571.13,1469.69 2572.72,1470.73 2574.3,1471.77 2575.89,1472.81 2577.47,1473.85 2579.06,1474.89 
  2580.64,1475.93 2582.23,1476.97 2583.81,1478.01 2585.4,1479.05 2586.98,1480.1 2588.57,1481.14 2590.15,1482.18 2591.74,1483.22 2593.32,1484.26 2594.91,1485.3 
  2596.49,1486.34 2598.08,1487.38 2599.66,1488.42 2601.25,1489.46 2602.83,1490.5 2604.42,1491.54 2606,1492.58 2607.59,1493.62 2609.17,1494.66 2610.76,1495.7 
  2612.34,1496.74 2613.93,1497.78 2615.51,1498.83 2617.1,1499.87 2618.68,1500.91 2620.27,1501.95 2621.85,1502.99 2623.44,1504.03 2625.02,1505.07 2626.61,1506.11 
  2628.19,1507.15 2629.78,1508.19 2631.36,1509.23 2632.95,1510.27 2634.53,1511.31 2636.12,1512.35 2637.7,1513.39 2639.29,1514.43 2640.87,1515.47 2642.46,1516.51 
  2644.05,1517.56 2645.63,1518.6 2647.22,1519.64 2648.8,1520.68 2650.39,1521.72 2651.97,1522.76 2653.56,1523.8 2655.14,1524.84 2656.73,1525.88 2658.31,1526.92 
  2659.9,1527.96 2661.48,1529 2663.07,1530.04 2664.65,1531.08 2666.24,1532.12 2667.82,1533.16 2669.41,1534.2 2670.99,1535.24 2672.58,1536.29 2674.16,1537.33 
  2675.75,1538.37 2677.33,1539.41 2678.92,1540.45 2680.5,1541.49 2682.09,1542.53 2683.67,1543.57 2685.26,1544.61 2686.84,1545.65 2688.43,1546.69 2690.01,1547.73 
  2691.6,1548.77 2693.18,1549.81 2694.77,1550.85 2696.35,1551.89 2697.94,1552.93 2699.52,1553.97 2701.11,1555.02 2702.69,1556.06 2704.28,1557.1 2705.86,1558.14 
  2707.45,1559.18 2709.03,1560.22 2710.62,1561.26 2712.2,1562.3 2713.79,1563.34 2715.37,1564.38 2716.96,1565.42 2718.54,1566.46 2720.13,1567.5 2721.71,1568.54 
  2723.3,1569.58 2724.88,1570.62 2726.47,1571.66 2728.05,1572.7 2729.64,1573.74 2731.22,1574.79 2732.81,1575.83 2734.39,1576.87 2735.98,1577.91 2737.56,1578.95 
  2739.15,1579.99 2740.73,1581.03 2742.32,1582.07 2743.9,1583.11 2745.49,1584.15 2747.07,1585.19 2748.66,1586.23 2750.24,1587.27 2751.83,1588.31 2753.41,1589.35 
  2755,1590.39 2756.58,1591.43 2758.17,1592.47 2759.75,1593.52 2761.34,1594.56 2762.93,1595.6 2764.51,1596.64 2766.1,1597.68 2767.68,1598.72 2769.27,1599.76 
  2770.85,1600.8 2772.44,1601.84 2774.02,1602.88 2775.61,1603.92 2777.19,1604.96 2778.78,1606 2780.36,1607.04 2781.95,1608.08 2783.53,1609.12 2785.12,1610.16 
  
  "/>
<polygon clip-path="url(#clip2500)" points="
531.778,572.7 1255.67,572.7 1255.67,391.26 531.778,391.26 
  " fill="#ffffff" fill-rule="evenodd" fill-opacity="1"/>
<polyline clip-path="url(#clip2500)" style="stroke:#000000; stroke-width:4; stroke-opacity:1; fill:none" points="
  531.778,572.7 1255.67,572.7 1255.67,391.26 531.778,391.26 531.778,572.7 
  "/>
<polyline clip-path="url(#clip2500)" style="stroke:#009af9; stroke-width:4; stroke-opacity:1; fill:none" points="
  563.778,451.74 755.778,451.74 
  "/>
<g clip-path="url(#clip2500)">
<text style="fill:#000000; fill-opacity:1; font-family:Arial,Helvetica Neue,Helvetica,sans-serif; font-size:48px; text-anchor:start;" transform="rotate(0, 787.778, 469.24)" x="787.778" y="469.24">Arrival Rate</text>
</g>
<polyline clip-path="url(#clip2500)" style="stroke:#e26f46; stroke-width:4; stroke-opacity:1; fill:none" points="
  563.778,512.22 755.778,512.22 
  "/>
<g clip-path="url(#clip2500)">
<text style="fill:#000000; fill-opacity:1; font-family:Arial,Helvetica Neue,Helvetica,sans-serif; font-size:48px; text-anchor:start;" transform="rotate(0, 787.778, 529.72)" x="787.778" y="529.72">Number of Servers</text>
</g>
<g clip-path="url(#clip2500)">
<text style="fill:#000000; fill-opacity:1; font-family:Arial,Helvetica Neue,Helvetica,sans-serif; font-size:95px; text-anchor:middle;" transform="rotate(-90, 3136.63, 973.348)" x="3136.63" y="973.348">Number of Servers</text>
</g>
<polygon clip-path="url(#clip2500)" points="
435.778,1649.5 2853.54,1649.5 2853.54,259.74 435.778,259.74 
  " fill="#000000" fill-rule="evenodd" fill-opacity="0"/>
<polyline clip-path="url(#clip2502)" style="stroke:#000000; stroke-width:2; stroke-opacity:0.1; fill:none" points="
  502.62,1649.5 502.62,259.74 
  "/>
<polyline clip-path="url(#clip2502)" style="stroke:#000000; stroke-width:2; stroke-opacity:0.1; fill:none" points="
  978.14,1649.5 978.14,259.74 
  "/>
<polyline clip-path="url(#clip2502)" style="stroke:#000000; stroke-width:2; stroke-opacity:0.1; fill:none" points="
  1453.66,1649.5 1453.66,259.74 
  "/>
<polyline clip-path="url(#clip2502)" style="stroke:#000000; stroke-width:2; stroke-opacity:0.1; fill:none" points="
  1929.18,1649.5 1929.18,259.74 
  "/>
<polyline clip-path="url(#clip2502)" style="stroke:#000000; stroke-width:2; stroke-opacity:0.1; fill:none" points="
  2404.7,1649.5 2404.7,259.74 
  "/>
<polyline clip-path="url(#clip2502)" style="stroke:#000000; stroke-width:2; stroke-opacity:0.1; fill:none" points="
  435.778,1548.19 2853.54,1548.19 
  "/>
<polyline clip-path="url(#clip2502)" style="stroke:#000000; stroke-width:2; stroke-opacity:0.1; fill:none" points="
  435.778,1309.8 2853.54,1309.8 
  "/>
<polyline clip-path="url(#clip2502)" style="stroke:#000000; stroke-width:2; stroke-opacity:0.1; fill:none" points="
  435.778,1071.42 2853.54,1071.42 
  "/>
<polyline clip-path="url(#clip2502)" style="stroke:#000000; stroke-width:2; stroke-opacity:0.1; fill:none" points="
  435.778,833.044 2853.54,833.044 
  "/>
<polyline clip-path="url(#clip2502)" style="stroke:#000000; stroke-width:2; stroke-opacity:0.1; fill:none" points="
  435.778,594.664 2853.54,594.664 
  "/>
<polyline clip-path="url(#clip2502)" style="stroke:#000000; stroke-width:2; stroke-opacity:0.1; fill:none" points="
  435.778,356.284 2853.54,356.284 
  "/>
<polyline clip-path="url(#clip2500)" style="stroke:#000000; stroke-width:4; stroke-opacity:1; fill:none" points="
  435.778,1649.5 2853.54,1649.5 
  "/>
<polyline clip-path="url(#clip2500)" style="stroke:#000000; stroke-width:4; stroke-opacity:1; fill:none" points="
  2853.54,1649.5 2853.54,259.74 
  "/>
<polyline clip-path="url(#clip2500)" style="stroke:#000000; stroke-width:4; stroke-opacity:1; fill:none" points="
  502.62,1649.5 502.62,1628.65 
  "/>
<polyline clip-path="url(#clip2500)" style="stroke:#000000; stroke-width:4; stroke-opacity:1; fill:none" points="
  978.14,1649.5 978.14,1628.65 
  "/>
<polyline clip-path="url(#clip2500)" style="stroke:#000000; stroke-width:4; stroke-opacity:1; fill:none" points="
  1453.66,1649.5 1453.66,1628.65 
  "/>
<polyline clip-path="url(#clip2500)" style="stroke:#000000; stroke-width:4; stroke-opacity:1; fill:none" points="
  1929.18,1649.5 1929.18,1628.65 
  "/>
<polyline clip-path="url(#clip2500)" style="stroke:#000000; stroke-width:4; stroke-opacity:1; fill:none" points="
  2404.7,1649.5 2404.7,1628.65 
  "/>
<polyline clip-path="url(#clip2500)" style="stroke:#000000; stroke-width:4; stroke-opacity:1; fill:none" points="
  2853.54,1548.19 2817.28,1548.19 
  "/>
<polyline clip-path="url(#clip2500)" style="stroke:#000000; stroke-width:4; stroke-opacity:1; fill:none" points="
  2853.54,1309.8 2817.28,1309.8 
  "/>
<polyline clip-path="url(#clip2500)" style="stroke:#000000; stroke-width:4; stroke-opacity:1; fill:none" points="
  2853.54,1071.42 2817.28,1071.42 
  "/>
<polyline clip-path="url(#clip2500)" style="stroke:#000000; stroke-width:4; stroke-opacity:1; fill:none" points="
  2853.54,833.044 2817.28,833.044 
  "/>
<polyline clip-path="url(#clip2500)" style="stroke:#000000; stroke-width:4; stroke-opacity:1; fill:none" points="
  2853.54,594.664 2817.28,594.664 
  "/>
<polyline clip-path="url(#clip2500)" style="stroke:#000000; stroke-width:4; stroke-opacity:1; fill:none" points="
  2853.54,356.284 2817.28,356.284 
  "/>
<g clip-path="url(#clip2500)">
<text style="fill:#000000; fill-opacity:1; font-family:Arial,Helvetica Neue,Helvetica,sans-serif; font-size:71px; text-anchor:middle;" transform="rotate(0, 502.62, 1727.9)" x="502.62" y="1727.9">0</text>
</g>
<g clip-path="url(#clip2500)">
<text style="fill:#000000; fill-opacity:1; font-family:Arial,Helvetica Neue,Helvetica,sans-serif; font-size:71px; text-anchor:middle;" transform="rotate(0, 978.14, 1727.9)" x="978.14" y="1727.9">300</text>
</g>
<g clip-path="url(#clip2500)">
<text style="fill:#000000; fill-opacity:1; font-family:Arial,Helvetica Neue,Helvetica,sans-serif; font-size:71px; text-anchor:middle;" transform="rotate(0, 1453.66, 1727.9)" x="1453.66" y="1727.9">600</text>
</g>
<g clip-path="url(#clip2500)">
<text style="fill:#000000; fill-opacity:1; font-family:Arial,Helvetica Neue,Helvetica,sans-serif; font-size:71px; text-anchor:middle;" transform="rotate(0, 1929.18, 1727.9)" x="1929.18" y="1727.9">900</text>
</g>
<g clip-path="url(#clip2500)">
<text style="fill:#000000; fill-opacity:1; font-family:Arial,Helvetica Neue,Helvetica,sans-serif; font-size:71px; text-anchor:middle;" transform="rotate(0, 2404.7, 1727.9)" x="2404.7" y="1727.9">1200</text>
</g>
<g clip-path="url(#clip2500)">
<text style="fill:#000000; fill-opacity:1; font-family:Arial,Helvetica Neue,Helvetica,sans-serif; font-size:71px; text-anchor:start;" transform="rotate(0, 2885.54, 1574.19)" x="2885.54" y="1574.19">50</text>
</g>
<g clip-path="url(#clip2500)">
<text style="fill:#000000; fill-opacity:1; font-family:Arial,Helvetica Neue,Helvetica,sans-serif; font-size:71px; text-anchor:start;" transform="rotate(0, 2885.54, 1335.8)" x="2885.54" y="1335.8">100</text>
</g>
<g clip-path="url(#clip2500)">
<text style="fill:#000000; fill-opacity:1; font-family:Arial,Helvetica Neue,Helvetica,sans-serif; font-size:71px; text-anchor:start;" transform="rotate(0, 2885.54, 1097.42)" x="2885.54" y="1097.42">150</text>
</g>
<g clip-path="url(#clip2500)">
<text style="fill:#000000; fill-opacity:1; font-family:Arial,Helvetica Neue,Helvetica,sans-serif; font-size:71px; text-anchor:start;" transform="rotate(0, 2885.54, 859.044)" x="2885.54" y="859.044">200</text>
</g>
<g clip-path="url(#clip2500)">
<text style="fill:#000000; fill-opacity:1; font-family:Arial,Helvetica Neue,Helvetica,sans-serif; font-size:71px; text-anchor:start;" transform="rotate(0, 2885.54, 620.664)" x="2885.54" y="620.664">250</text>
</g>
<g clip-path="url(#clip2500)">
<text style="fill:#000000; fill-opacity:1; font-family:Arial,Helvetica Neue,Helvetica,sans-serif; font-size:71px; text-anchor:start;" transform="rotate(0, 2885.54, 382.284)" x="2885.54" y="382.284">300</text>
</g>
<polyline clip-path="url(#clip2502)" style="stroke:#ff0000; stroke-width:4; stroke-opacity:1; fill:none" points="
  504.205,1610.16 505.79,1610.16 507.375,1610.16 508.96,1610.16 510.545,1610.16 512.13,1610.16 513.715,1610.16 515.3,1610.16 516.885,1610.16 518.471,1610.16 
  520.056,1610.16 521.641,1610.16 523.226,1610.16 524.811,1610.16 526.396,1610.16 527.981,1610.16 529.566,1610.16 531.151,1610.16 532.736,1610.16 534.321,1610.16 
  535.906,1610.16 537.491,1610.16 539.076,1610.16 540.661,1610.16 542.247,1610.16 543.832,1610.16 545.417,1610.16 547.002,1610.16 548.587,1610.16 550.172,1610.16 
  551.757,1610.16 553.342,1610.16 554.927,1610.16 556.512,1610.16 558.097,1610.16 559.682,1610.16 561.267,1610.16 562.852,1610.16 564.437,1610.16 566.023,1610.16 
  567.608,1610.16 569.193,1610.16 570.778,1610.16 572.363,1610.16 573.948,1610.16 575.533,1610.16 577.118,1610.16 578.703,1610.16 580.288,1610.16 581.873,1610.16 
  583.458,1610.16 585.043,1610.16 586.628,1610.16 588.213,1610.16 589.799,1610.16 591.384,1610.16 592.969,1610.16 594.554,1610.16 596.139,1610.16 597.724,1610.16 
  599.309,1610.16 600.894,1610.16 602.479,1610.16 604.064,1610.16 605.649,1610.16 607.234,1610.16 608.819,1610.16 610.404,1610.16 611.989,1610.16 613.575,1610.16 
  615.16,1610.16 616.745,1610.16 618.33,1610.16 619.915,1610.16 621.5,1610.16 623.085,1610.16 624.67,1610.16 626.255,1610.16 627.84,1610.16 629.425,1610.16 
  631.01,1610.16 632.595,1610.16 634.18,1610.16 635.765,1610.16 637.351,1610.16 638.936,1610.16 640.521,1610.16 642.106,1610.16 643.691,1610.16 645.276,1610.16 
  646.861,1610.16 648.446,1610.16 650.031,1610.16 651.616,1610.16 653.201,1610.16 654.786,1610.16 656.371,1610.16 657.956,1610.16 659.541,1610.16 661.127,1610.16 
  662.712,1610.16 664.297,1610.16 665.882,1610.16 667.467,1610.16 669.052,1610.16 670.637,1610.16 672.222,1610.16 673.807,1610.16 675.392,1610.16 676.977,1610.16 
  678.562,1610.16 680.147,1610.16 681.732,1610.16 683.317,1610.16 684.903,1610.16 686.488,1610.16 688.073,1610.16 689.658,1610.16 691.243,1610.16 692.828,1610.16 
  694.413,1610.16 695.998,1610.16 697.583,1610.16 699.168,1610.16 700.753,1610.16 702.338,1610.16 703.923,1610.16 705.508,1610.16 707.093,1610.16 708.679,1610.16 
  710.264,1610.16 711.849,1610.16 713.434,1610.16 715.019,1610.16 716.604,1610.16 718.189,1610.16 719.774,1610.16 721.359,1610.16 722.944,1610.16 724.529,1610.16 
  726.114,1610.16 727.699,1610.16 729.284,1610.16 730.869,1610.16 732.455,1610.16 734.04,1610.16 735.625,1610.16 737.21,1610.16 738.795,1610.16 740.38,1610.16 
  741.965,1610.16 743.55,1610.16 745.135,1610.16 746.72,1610.16 748.305,1610.16 749.89,1610.16 751.475,1610.16 753.06,1610.16 754.645,1610.16 756.231,1610.16 
  757.816,1610.16 759.401,1610.16 760.986,1610.16 762.571,1610.16 764.156,1610.16 765.741,1610.16 767.326,1610.16 768.911,1610.16 770.496,1610.16 772.081,1610.16 
  773.666,1610.16 775.251,1610.16 776.836,1610.16 778.421,1610.16 780.007,1610.16 781.592,1610.16 783.177,1610.16 784.762,1610.16 786.347,1610.16 787.932,1610.16 
  789.517,1610.16 791.102,1610.16 792.687,1610.16 794.272,1610.16 795.857,1610.16 797.442,1610.16 799.027,1610.16 800.612,1610.16 802.197,1610.16 803.783,1610.16 
  805.368,1610.16 806.953,1610.16 808.538,1610.16 810.123,1610.16 811.708,1610.16 813.293,1610.16 814.878,1610.16 816.463,1610.16 818.048,1610.16 819.633,1610.16 
  821.218,1610.16 822.803,1610.16 824.388,1610.16 825.973,1610.16 827.559,1610.16 829.144,1610.16 830.729,1610.16 832.314,1610.16 833.899,1610.16 835.484,1610.16 
  837.069,1610.16 838.654,1610.16 840.239,1610.16 841.824,1610.16 843.409,1610.16 844.994,1610.16 846.579,1610.16 848.164,1610.16 849.749,1610.16 851.335,1610.16 
  852.92,1610.16 854.505,1610.16 856.09,1610.16 857.675,1610.16 859.26,1610.16 860.845,1610.16 862.43,1610.16 864.015,1610.16 865.6,1610.16 867.185,1610.16 
  868.77,1610.16 870.355,1610.16 871.94,1610.16 873.526,1610.16 875.111,1610.16 876.696,1610.16 878.281,1610.16 879.866,1610.16 881.451,1610.16 883.036,1610.16 
  884.621,1610.16 886.206,1610.16 887.791,1610.16 889.376,1610.16 890.961,1610.16 892.546,1610.16 894.131,1610.16 895.716,1610.16 897.302,1610.16 898.887,1610.16 
  900.472,1610.16 902.057,1610.16 903.642,1610.16 905.227,1610.16 906.812,1610.16 908.397,1610.16 909.982,1610.16 911.567,1610.16 913.152,1610.16 914.737,1610.16 
  916.322,1610.16 917.907,1610.16 919.492,1610.16 921.078,1610.16 922.663,1610.16 924.248,1610.16 925.833,1610.16 927.418,1610.16 929.003,1610.16 930.588,1610.16 
  932.173,1610.16 933.758,1610.16 935.343,1610.16 936.928,1610.16 938.513,1610.16 940.098,1610.16 941.683,1610.16 943.268,1610.16 944.854,1610.16 946.439,1610.16 
  948.024,1610.16 949.609,1610.16 951.194,1610.16 952.779,1610.16 954.364,1610.16 955.949,1610.16 957.534,1610.16 959.119,1610.16 960.704,1610.16 962.289,1610.16 
  963.874,1610.16 965.459,1610.16 967.044,1610.16 968.63,1610.16 970.215,1610.16 971.8,1610.16 973.385,1610.16 974.97,1610.16 976.555,1610.16 978.14,1610.16 
  979.725,1610.16 981.31,1610.16 982.895,1610.16 984.48,1610.16 986.065,1610.16 987.65,1610.16 989.235,1610.16 990.82,1610.16 992.406,1610.16 993.991,1610.16 
  995.576,1610.16 997.161,1610.16 998.746,1610.16 1000.33,1610.16 1001.92,1610.16 1003.5,1610.16 1005.09,1610.16 1006.67,1610.16 1008.26,1610.16 1009.84,1610.16 
  1011.43,1610.16 1013.01,1610.16 1014.6,1610.16 1016.18,1610.16 1017.77,1610.16 1019.35,1610.16 1020.94,1610.16 1022.52,1610.16 1024.11,1610.16 1025.69,1610.16 
  1027.28,1610.16 1028.86,1610.16 1030.45,1610.16 1032.03,1610.16 1033.62,1610.16 1035.2,1610.16 1036.79,1610.16 1038.37,1610.16 1039.96,1610.16 1041.54,1610.16 
  1043.13,1610.16 1044.71,1610.16 1046.3,1610.16 1047.88,1610.16 1049.47,1610.16 1051.05,1610.16 1052.64,1610.16 1054.22,1610.16 1055.81,1610.16 1057.39,1610.16 
  1058.98,1610.16 1060.56,1610.16 1062.15,1610.16 1063.73,1610.16 1065.32,1610.16 1066.9,1610.16 1068.49,1610.16 1070.07,1610.16 1071.66,1610.16 1073.24,1610.16 
  1074.83,1610.16 1076.41,1610.16 1078,1610.16 1079.58,1610.16 1081.17,1610.16 1082.75,1610.16 1084.34,1610.16 1085.92,1610.16 1087.51,1610.16 1089.09,1610.16 
  1090.68,1610.16 1092.26,1610.16 1093.85,1610.16 1095.43,1610.16 1097.02,1610.16 1098.6,1610.16 1100.19,1610.16 1101.78,1610.16 1103.36,1610.16 1104.95,1610.16 
  1106.53,1610.16 1108.12,1610.16 1109.7,1610.16 1111.29,1610.16 1112.87,1610.16 1114.46,1610.16 1116.04,1610.16 1117.63,1610.16 1119.21,1610.16 1120.8,1610.16 
  1122.38,1610.16 1123.97,1610.16 1125.55,1610.16 1127.14,1610.16 1128.72,1610.16 1130.31,1610.16 1131.89,1610.16 1133.48,1610.16 1135.06,1610.16 1136.65,1610.16 
  1138.23,1610.16 1139.82,1610.16 1141.4,1610.16 1142.99,1610.16 1144.57,1610.16 1146.16,1610.16 1147.74,1610.16 1149.33,1610.16 1150.91,1610.16 1152.5,1610.16 
  1154.08,1610.16 1155.67,1610.16 1157.25,1610.16 1158.84,1610.16 1160.42,1610.16 1162.01,1610.16 1163.59,1610.16 1165.18,1610.16 1166.76,1610.16 1168.35,1610.16 
  1169.93,828.277 1171.52,828.277 1173.1,828.277 1174.69,828.277 1176.27,828.277 1177.86,828.277 1179.44,828.277 1181.03,828.277 1182.61,828.277 1184.2,828.277 
  1185.78,828.277 1187.37,828.277 1188.95,828.277 1190.54,828.277 1192.12,828.277 1193.71,828.277 1195.29,828.277 1196.88,828.277 1198.46,828.277 1200.05,828.277 
  1201.63,828.277 1203.22,828.277 1204.8,828.277 1206.39,828.277 1207.97,828.277 1209.56,828.277 1211.14,828.277 1212.73,828.277 1214.31,828.277 1215.9,828.277 
  1217.48,828.277 1219.07,828.277 1220.66,828.277 1222.24,828.277 1223.83,828.277 1225.41,828.277 1227,828.277 1228.58,828.277 1230.17,828.277 1231.75,828.277 
  1233.34,828.277 1234.92,828.277 1236.51,828.277 1238.09,828.277 1239.68,828.277 1241.26,828.277 1242.85,828.277 1244.43,828.277 1246.02,828.277 1247.6,828.277 
  1249.19,828.277 1250.77,828.277 1252.36,828.277 1253.94,828.277 1255.53,828.277 1257.11,828.277 1258.7,828.277 1260.28,828.277 1261.87,828.277 1263.45,828.277 
  1265.04,828.277 1266.62,828.277 1268.21,828.277 1269.79,828.277 1271.38,828.277 1272.96,828.277 1274.55,828.277 1276.13,828.277 1277.72,828.277 1279.3,828.277 
  1280.89,828.277 1282.47,828.277 1284.06,828.277 1285.64,828.277 1287.23,828.277 1288.81,828.277 1290.4,828.277 1291.98,828.277 1293.57,828.277 1295.15,828.277 
  1296.74,828.277 1298.32,828.277 1299.91,828.277 1301.49,828.277 1303.08,828.277 1304.66,828.277 1306.25,828.277 1307.83,828.277 1309.42,828.277 1311,828.277 
  1312.59,828.277 1314.17,828.277 1315.76,828.277 1317.34,828.277 1318.93,828.277 1320.51,828.277 1322.1,828.277 1323.68,828.277 1325.27,828.277 1326.85,828.277 
  1328.44,828.277 1330.02,828.277 1331.61,828.277 1333.19,828.277 1334.78,828.277 1336.36,828.277 1337.95,828.277 1339.54,828.277 1341.12,828.277 1342.71,828.277 
  1344.29,828.277 1345.88,828.277 1347.46,828.277 1349.05,828.277 1350.63,828.277 1352.22,828.277 1353.8,828.277 1355.39,828.277 1356.97,828.277 1358.56,828.277 
  1360.14,828.277 1361.73,828.277 1363.31,828.277 1364.9,828.277 1366.48,828.277 1368.07,828.277 1369.65,828.277 1371.24,828.277 1372.82,828.277 1374.41,828.277 
  1375.99,828.277 1377.58,828.277 1379.16,828.277 1380.75,828.277 1382.33,828.277 1383.92,828.277 1385.5,828.277 1387.09,828.277 1388.67,828.277 1390.26,828.277 
  1391.84,828.277 1393.43,828.277 1395.01,828.277 1396.6,828.277 1398.18,828.277 1399.77,828.277 1401.35,828.277 1402.94,828.277 1404.52,828.277 1406.11,828.277 
  1407.69,828.277 1409.28,828.277 1410.86,828.277 1412.45,828.277 1414.03,828.277 1415.62,828.277 1417.2,828.277 1418.79,828.277 1420.37,828.277 1421.96,828.277 
  1423.54,828.277 1425.13,828.277 1426.71,828.277 1428.3,828.277 1429.88,828.277 1431.47,828.277 1433.05,828.277 1434.64,828.277 1436.22,828.277 1437.81,828.277 
  1439.39,828.277 1440.98,828.277 1442.56,828.277 1444.15,828.277 1445.73,828.277 1447.32,828.277 1448.9,828.277 1450.49,828.277 1452.07,828.277 1453.66,828.277 
  1455.24,299.072 1456.83,299.072 1458.42,299.072 1460,299.072 1461.59,299.072 1463.17,299.072 1464.76,299.072 1466.34,299.072 1467.93,299.072 1469.51,299.072 
  1471.1,299.072 1472.68,299.072 1474.27,299.072 1475.85,299.072 1477.44,299.072 1479.02,299.072 1480.61,299.072 1482.19,299.072 1483.78,299.072 1485.36,299.072 
  1486.95,299.072 1488.53,299.072 1490.12,299.072 1491.7,299.072 1493.29,299.072 1494.87,299.072 1496.46,299.072 1498.04,299.072 1499.63,299.072 1501.21,299.072 
  1502.8,299.072 1504.38,299.072 1505.97,299.072 1507.55,299.072 1509.14,299.072 1510.72,299.072 1512.31,299.072 1513.89,299.072 1515.48,299.072 1517.06,299.072 
  1518.65,299.072 1520.23,299.072 1521.82,299.072 1523.4,299.072 1524.99,299.072 1526.57,299.072 1528.16,299.072 1529.74,299.072 1531.33,299.072 1532.91,299.072 
  1534.5,299.072 1536.08,299.072 1537.67,299.072 1539.25,299.072 1540.84,299.072 1542.42,299.072 1544.01,299.072 1545.59,299.072 1547.18,299.072 1548.76,299.072 
  1550.35,299.072 1551.93,299.072 1553.52,299.072 1555.1,299.072 1556.69,299.072 1558.27,299.072 1559.86,299.072 1561.44,299.072 1563.03,299.072 1564.61,299.072 
  1566.2,299.072 1567.78,299.072 1569.37,299.072 1570.95,299.072 1572.54,299.072 1574.12,299.072 1575.71,299.072 1577.3,299.072 1578.88,299.072 1580.47,299.072 
  1582.05,299.072 1583.64,299.072 1585.22,299.072 1586.81,299.072 1588.39,299.072 1589.98,299.072 1591.56,299.072 1593.15,299.072 1594.73,299.072 1596.32,299.072 
  1597.9,299.072 1599.49,299.072 1601.07,299.072 1602.66,299.072 1604.24,299.072 1605.83,299.072 1607.41,299.072 1609,299.072 1610.58,299.072 1612.17,299.072 
  1613.75,299.072 1615.34,299.072 1616.92,299.072 1618.51,299.072 1620.09,299.072 1621.68,299.072 1623.26,299.072 1624.85,299.072 1626.43,299.072 1628.02,299.072 
  1629.6,299.072 1631.19,299.072 1632.77,299.072 1634.36,299.072 1635.94,299.072 1637.53,299.072 1639.11,299.072 1640.7,299.072 1642.28,299.072 1643.87,299.072 
  1645.45,299.072 1647.04,299.072 1648.62,299.072 1650.21,299.072 1651.79,299.072 1653.38,299.072 1654.96,299.072 1656.55,299.072 1658.13,299.072 1659.72,299.072 
  1661.3,299.072 1662.89,299.072 1664.47,299.072 1666.06,299.072 1667.64,299.072 1669.23,299.072 1670.81,299.072 1672.4,299.072 1673.98,299.072 1675.57,299.072 
  1677.15,299.072 1678.74,299.072 1680.32,299.072 1681.91,299.072 1683.49,299.072 1685.08,299.072 1686.66,299.072 1688.25,299.072 1689.83,299.072 1691.42,299.072 
  1693,299.072 1694.59,299.072 1696.18,299.072 1697.76,299.072 1699.35,299.072 1700.93,299.072 1702.52,299.072 1704.1,299.072 1705.69,299.072 1707.27,299.072 
  1708.86,299.072 1710.44,299.072 1712.03,299.072 1713.61,299.072 1715.2,299.072 1716.78,299.072 1718.37,299.072 1719.95,299.072 1721.54,299.072 1723.12,299.072 
  1724.71,299.072 1726.29,299.072 1727.88,299.072 1729.46,299.072 1731.05,299.072 1732.63,299.072 1734.22,299.072 1735.8,299.072 1737.39,299.072 1738.97,299.072 
  1740.56,299.072 1742.14,299.072 1743.73,299.072 1745.31,299.072 1746.9,299.072 1748.48,299.072 1750.07,299.072 1751.65,299.072 1753.24,299.072 1754.82,299.072 
  1756.41,299.072 1757.99,299.072 1759.58,299.072 1761.16,299.072 1762.75,299.072 1764.33,299.072 1765.92,299.072 1767.5,299.072 1769.09,299.072 1770.67,299.072 
  1772.26,299.072 1773.84,299.072 1775.43,299.072 1777.01,299.072 1778.6,299.072 1780.18,299.072 1781.77,299.072 1783.35,299.072 1784.94,299.072 1786.52,299.072 
  1788.11,299.072 1789.69,299.072 1791.28,299.072 1792.86,299.072 1794.45,299.072 1796.03,299.072 1797.62,299.072 1799.2,299.072 1800.79,299.072 1802.37,299.072 
  1803.96,299.072 1805.54,299.072 1807.13,299.072 1808.71,299.072 1810.3,299.072 1811.89,299.072 1813.47,299.072 1815.06,299.072 1816.64,299.072 1818.23,299.072 
  1819.81,299.072 1821.4,299.072 1822.98,299.072 1824.57,299.072 1826.15,299.072 1827.74,299.072 1829.32,299.072 1830.91,299.072 1832.49,299.072 1834.08,299.072 
  1835.66,299.072 1837.25,299.072 1838.83,299.072 1840.42,299.072 1842,299.072 1843.59,299.072 1845.17,299.072 1846.76,299.072 1848.34,299.072 1849.93,299.072 
  1851.51,299.072 1853.1,299.072 1854.68,299.072 1856.27,299.072 1857.85,299.072 1859.44,299.072 1861.02,299.072 1862.61,299.072 1864.19,299.072 1865.78,299.072 
  1867.36,299.072 1868.95,299.072 1870.53,299.072 1872.12,299.072 1873.7,299.072 1875.29,299.072 1876.87,299.072 1878.46,299.072 1880.04,299.072 1881.63,299.072 
  1883.21,299.072 1884.8,299.072 1886.38,299.072 1887.97,299.072 1889.55,299.072 1891.14,299.072 1892.72,299.072 1894.31,299.072 1895.89,299.072 1897.48,299.072 
  1899.06,299.072 1900.65,299.072 1902.23,299.072 1903.82,299.072 1905.4,299.072 1906.99,299.072 1908.57,299.072 1910.16,299.072 1911.74,299.072 1913.33,299.072 
  1914.91,299.072 1916.5,299.072 1918.08,299.072 1919.67,299.072 1921.25,299.072 1922.84,299.072 1924.42,299.072 1926.01,299.072 1927.59,299.072 1929.18,299.072 
  1930.77,299.072 1932.35,299.072 1933.94,299.072 1935.52,299.072 1937.11,299.072 1938.69,299.072 1940.28,299.072 1941.86,299.072 1943.45,299.072 1945.03,299.072 
  1946.62,299.072 1948.2,299.072 1949.79,299.072 1951.37,299.072 1952.96,299.072 1954.54,299.072 1956.13,299.072 1957.71,299.072 1959.3,299.072 1960.88,299.072 
  1962.47,299.072 1964.05,299.072 1965.64,299.072 1967.22,299.072 1968.81,299.072 1970.39,299.072 1971.98,299.072 1973.56,299.072 1975.15,299.072 1976.73,299.072 
  1978.32,299.072 1979.9,299.072 1981.49,299.072 1983.07,299.072 1984.66,299.072 1986.24,299.072 1987.83,299.072 1989.41,299.072 1991,299.072 1992.58,299.072 
  1994.17,299.072 1995.75,299.072 1997.34,299.072 1998.92,299.072 2000.51,299.072 2002.09,299.072 2003.68,299.072 2005.26,299.072 2006.85,299.072 2008.43,299.072 
  2010.02,299.072 2011.6,299.072 2013.19,299.072 2014.77,299.072 2016.36,299.072 2017.94,299.072 2019.53,299.072 2021.11,299.072 2022.7,299.072 2024.28,299.072 
  2025.87,828.277 2027.45,828.277 2029.04,828.277 2030.62,828.277 2032.21,828.277 2033.79,828.277 2035.38,828.277 2036.96,828.277 2038.55,828.277 2040.13,828.277 
  2041.72,828.277 2043.3,828.277 2044.89,828.277 2046.47,828.277 2048.06,828.277 2049.65,828.277 2051.23,828.277 2052.82,828.277 2054.4,828.277 2055.99,828.277 
  2057.57,828.277 2059.16,828.277 2060.74,828.277 2062.33,828.277 2063.91,828.277 2065.5,828.277 2067.08,828.277 2068.67,828.277 2070.25,828.277 2071.84,828.277 
  2073.42,828.277 2075.01,828.277 2076.59,828.277 2078.18,828.277 2079.76,828.277 2081.35,828.277 2082.93,828.277 2084.52,828.277 2086.1,828.277 2087.69,828.277 
  2089.27,828.277 2090.86,828.277 2092.44,828.277 2094.03,828.277 2095.61,828.277 2097.2,828.277 2098.78,828.277 2100.37,828.277 2101.95,828.277 2103.54,828.277 
  2105.12,828.277 2106.71,828.277 2108.29,828.277 2109.88,828.277 2111.46,828.277 2113.05,828.277 2114.63,828.277 2116.22,828.277 2117.8,828.277 2119.39,828.277 
  2120.97,828.277 2122.56,828.277 2124.14,828.277 2125.73,828.277 2127.31,828.277 2128.9,828.277 2130.48,828.277 2132.07,828.277 2133.65,828.277 2135.24,828.277 
  2136.82,828.277 2138.41,828.277 2139.99,828.277 2141.58,828.277 2143.16,828.277 2144.75,828.277 2146.33,828.277 2147.92,828.277 2149.5,828.277 2151.09,828.277 
  2152.67,828.277 2154.26,828.277 2155.84,828.277 2157.43,828.277 2159.01,828.277 2160.6,828.277 2162.18,828.277 2163.77,828.277 2165.35,828.277 2166.94,828.277 
  2168.53,828.277 2170.11,828.277 2171.7,828.277 2173.28,828.277 2174.87,828.277 2176.45,828.277 2178.04,828.277 2179.62,828.277 2181.21,828.277 2182.79,828.277 
  2184.38,828.277 2185.96,828.277 2187.55,828.277 2189.13,828.277 2190.72,828.277 2192.3,828.277 2193.89,828.277 2195.47,828.277 2197.06,828.277 2198.64,828.277 
  2200.23,828.277 2201.81,828.277 2203.4,828.277 2204.98,828.277 2206.57,828.277 2208.15,828.277 2209.74,828.277 2211.32,828.277 2212.91,828.277 2214.49,828.277 
  2216.08,1386.09 2217.66,1386.09 2219.25,1386.09 2220.83,1386.09 2222.42,1386.09 2224,1386.09 2225.59,1386.09 2227.17,1386.09 2228.76,1386.09 2230.34,1386.09 
  2231.93,1386.09 2233.51,1386.09 2235.1,1386.09 2236.68,1386.09 2238.27,1386.09 2239.85,1386.09 2241.44,1386.09 2243.02,1386.09 2244.61,1386.09 2246.19,1386.09 
  2247.78,1386.09 2249.36,1386.09 2250.95,1386.09 2252.53,1386.09 2254.12,1386.09 2255.7,1386.09 2257.29,1386.09 2258.87,1386.09 2260.46,1386.09 2262.04,1386.09 
  2263.63,1386.09 2265.21,1386.09 2266.8,1386.09 2268.38,1386.09 2269.97,1386.09 2271.55,1386.09 2273.14,1386.09 2274.72,1386.09 2276.31,1386.09 2277.89,1386.09 
  2279.48,1386.09 2281.06,1386.09 2282.65,1386.09 2284.23,1386.09 2285.82,1386.09 2287.41,1386.09 2288.99,1386.09 2290.58,1386.09 2292.16,1386.09 2293.75,1386.09 
  2295.33,1386.09 2296.92,1386.09 2298.5,1386.09 2300.09,1386.09 2301.67,1386.09 2303.26,1386.09 2304.84,1386.09 2306.43,1386.09 2308.01,1386.09 2309.6,1386.09 
  2311.18,1386.09 2312.77,1386.09 2314.35,1386.09 2315.94,1386.09 2317.52,1386.09 2319.11,1386.09 2320.69,1386.09 2322.28,1386.09 2323.86,1386.09 2325.45,1386.09 
  2327.03,1386.09 2328.62,1386.09 2330.2,1386.09 2331.79,1386.09 2333.37,1386.09 2334.96,1386.09 2336.54,1386.09 2338.13,1386.09 2339.71,1386.09 2341.3,1386.09 
  2342.88,1386.09 2344.47,1386.09 2346.05,1386.09 2347.64,1386.09 2349.22,1386.09 2350.81,1386.09 2352.39,1386.09 2353.98,1386.09 2355.56,1386.09 2357.15,1386.09 
  2358.73,1386.09 2360.32,1386.09 2361.9,1386.09 2363.49,1386.09 2365.07,1386.09 2366.66,1386.09 2368.24,1386.09 2369.83,1386.09 2371.41,1386.09 2373,1386.09 
  2374.58,1386.09 2376.17,1386.09 2377.75,1386.09 2379.34,1386.09 2380.92,1386.09 2382.51,1386.09 2384.09,1386.09 2385.68,1386.09 2387.26,1386.09 2388.85,1386.09 
  2390.43,1386.09 2392.02,1386.09 2393.6,1386.09 2395.19,1386.09 2396.77,1386.09 2398.36,1386.09 2399.94,1386.09 2401.53,1386.09 2403.11,1386.09 2404.7,1386.09 
  2406.29,1386.09 2407.87,1386.09 2409.46,1386.09 2411.04,1386.09 2412.63,1386.09 2414.21,1386.09 2415.8,1386.09 2417.38,1386.09 2418.97,1386.09 2420.55,1386.09 
  2422.14,1386.09 2423.72,1386.09 2425.31,1386.09 2426.89,1386.09 2428.48,1386.09 2430.06,1386.09 2431.65,1386.09 2433.23,1386.09 2434.82,1386.09 2436.4,1386.09 
  2437.99,1386.09 2439.57,1386.09 2441.16,1386.09 2442.74,1386.09 2444.33,1386.09 2445.91,1386.09 2447.5,1386.09 2449.08,1386.09 2450.67,1386.09 2452.25,1386.09 
  2453.84,1386.09 2455.42,1386.09 2457.01,1386.09 2458.59,1386.09 2460.18,1386.09 2461.76,1386.09 2463.35,1386.09 2464.93,1386.09 2466.52,1386.09 2468.1,1386.09 
  2469.69,1386.09 2471.27,1386.09 2472.86,1386.09 2474.44,1386.09 2476.03,1386.09 2477.61,1386.09 2479.2,1386.09 2480.78,1386.09 2482.37,1386.09 2483.95,1386.09 
  2485.54,1386.09 2487.12,1386.09 2488.71,1386.09 2490.29,1386.09 2491.88,1386.09 2493.46,1386.09 2495.05,1386.09 2496.63,1386.09 2498.22,1386.09 2499.8,1386.09 
  2501.39,1386.09 2502.97,1386.09 2504.56,1386.09 2506.14,1386.09 2507.73,1386.09 2509.31,1386.09 2510.9,1386.09 2512.48,1386.09 2514.07,1386.09 2515.65,1386.09 
  2517.24,1386.09 2518.82,1386.09 2520.41,1386.09 2521.99,1386.09 2523.58,1386.09 2525.17,1386.09 2526.75,1386.09 2528.34,1386.09 2529.92,1386.09 2531.51,1386.09 
  2533.09,1386.09 2534.68,1386.09 2536.26,1386.09 2537.85,1386.09 2539.43,1386.09 2541.02,1386.09 2542.6,1386.09 2544.19,1386.09 2545.77,1386.09 2547.36,1386.09 
  2548.94,1386.09 2550.53,1386.09 2552.11,1386.09 2553.7,1386.09 2555.28,1386.09 2556.87,1386.09 2558.45,1386.09 2560.04,1386.09 2561.62,1386.09 2563.21,1386.09 
  2564.79,1386.09 2566.38,1386.09 2567.96,1386.09 2569.55,1386.09 2571.13,1386.09 2572.72,1386.09 2574.3,1386.09 2575.89,1386.09 2577.47,1386.09 2579.06,1386.09 
  2580.64,1386.09 2582.23,1386.09 2583.81,1386.09 2585.4,1386.09 2586.98,1386.09 2588.57,1386.09 2590.15,1386.09 2591.74,1386.09 2593.32,1386.09 2594.91,1386.09 
  2596.49,1386.09 2598.08,1386.09 2599.66,1386.09 2601.25,1386.09 2602.83,1386.09 2604.42,1386.09 2606,1386.09 2607.59,1386.09 2609.17,1386.09 2610.76,1386.09 
  2612.34,1386.09 2613.93,1386.09 2615.51,1386.09 2617.1,1386.09 2618.68,1386.09 2620.27,1386.09 2621.85,1386.09 2623.44,1386.09 2625.02,1386.09 2626.61,1386.09 
  2628.19,1386.09 2629.78,1386.09 2631.36,1386.09 2632.95,1386.09 2634.53,1386.09 2636.12,1386.09 2637.7,1386.09 2639.29,1386.09 2640.87,1386.09 2642.46,1386.09 
  2644.05,1386.09 2645.63,1386.09 2647.22,1386.09 2648.8,1386.09 2650.39,1386.09 2651.97,1386.09 2653.56,1386.09 2655.14,1386.09 2656.73,1386.09 2658.31,1386.09 
  2659.9,1386.09 2661.48,1386.09 2663.07,1386.09 2664.65,1386.09 2666.24,1386.09 2667.82,1386.09 2669.41,1386.09 2670.99,1386.09 2672.58,1386.09 2674.16,1386.09 
  2675.75,1386.09 2677.33,1386.09 2678.92,1386.09 2680.5,1386.09 2682.09,1386.09 2683.67,1386.09 2685.26,1386.09 2686.84,1386.09 2688.43,1386.09 2690.01,1386.09 
  2691.6,1386.09 2693.18,1386.09 2694.77,1386.09 2696.35,1386.09 2697.94,1386.09 2699.52,1386.09 2701.11,1386.09 2702.69,1386.09 2704.28,1386.09 2705.86,1386.09 
  2707.45,1386.09 2709.03,1386.09 2710.62,1386.09 2712.2,1386.09 2713.79,1386.09 2715.37,1386.09 2716.96,1386.09 2718.54,1386.09 2720.13,1386.09 2721.71,1386.09 
  2723.3,1386.09 2724.88,1386.09 2726.47,1386.09 2728.05,1386.09 2729.64,1386.09 2731.22,1386.09 2732.81,1386.09 2734.39,1386.09 2735.98,1386.09 2737.56,1386.09 
  2739.15,1386.09 2740.73,1386.09 2742.32,1386.09 2743.9,1386.09 2745.49,1386.09 2747.07,1386.09 2748.66,1386.09 2750.24,1386.09 2751.83,1386.09 2753.41,1386.09 
  2755,1386.09 2756.58,1386.09 2758.17,1386.09 2759.75,1386.09 2761.34,1386.09 2762.93,1386.09 2764.51,1386.09 2766.1,1386.09 2767.68,1386.09 2769.27,1386.09 
  2770.85,1386.09 2772.44,1386.09 2774.02,1386.09 2775.61,1386.09 2777.19,1386.09 2778.78,1386.09 2780.36,1386.09 2781.95,1386.09 2783.53,1386.09 2785.12,1386.09 
  
  "/>
</svg>
