<?xml version="1.0" encoding="utf-8"?>
<svg xmlns="http://www.w3.org/2000/svg" xmlns:xlink="http://www.w3.org/1999/xlink" width="600" height="400" viewBox="0 0 2400 1600">
<defs>
  <clipPath id="clip5200">
    <rect x="0" y="0" width="2400" height="1600"/>
  </clipPath>
</defs>
<polygon clip-path="url(#clip5200)" points="
0,1600 2400,1600 2400,0 0,0 
  " fill="#ffffff" fill-rule="evenodd" fill-opacity="1"/>
<defs>
  <clipPath id="clip5201">
    <rect x="480" y="0" width="1681" height="1600"/>
  </clipPath>
</defs>
<polygon clip-path="url(#clip5200)" points="
228.963,1425.62 2352.76,1425.62 2352.76,121.456 228.963,121.456 
  " fill="#ffffff" fill-rule="evenodd" fill-opacity="1"/>
<defs>
  <clipPath id="clip5202">
    <rect x="228" y="121" width="2125" height="1305"/>
  </clipPath>
</defs>
<polyline clip-path="url(#clip5202)" style="stroke:#000000; stroke-width:2; stroke-opacity:0.1; fill:none" points="
  287.678,1425.62 287.678,121.456 
  "/>
<polyline clip-path="url(#clip5202)" style="stroke:#000000; stroke-width:2; stroke-opacity:0.1; fill:none" points="
  705.38,1425.62 705.38,121.456 
  "/>
<polyline clip-path="url(#clip5202)" style="stroke:#000000; stroke-width:2; stroke-opacity:0.1; fill:none" points="
  1123.08,1425.62 1123.08,121.456 
  "/>
<polyline clip-path="url(#clip5202)" style="stroke:#000000; stroke-width:2; stroke-opacity:0.1; fill:none" points="
  1540.78,1425.62 1540.78,121.456 
  "/>
<polyline clip-path="url(#clip5202)" style="stroke:#000000; stroke-width:2; stroke-opacity:0.1; fill:none" points="
  1958.49,1425.62 1958.49,121.456 
  "/>
<polyline clip-path="url(#clip5202)" style="stroke:#000000; stroke-width:2; stroke-opacity:0.1; fill:none" points="
  228.963,1212.95 2352.76,1212.95 
  "/>
<polyline clip-path="url(#clip5202)" style="stroke:#000000; stroke-width:2; stroke-opacity:0.1; fill:none" points="
  228.963,949.301 2352.76,949.301 
  "/>
<polyline clip-path="url(#clip5202)" style="stroke:#000000; stroke-width:2; stroke-opacity:0.1; fill:none" points="
  228.963,685.656 2352.76,685.656 
  "/>
<polyline clip-path="url(#clip5202)" style="stroke:#000000; stroke-width:2; stroke-opacity:0.1; fill:none" points="
  228.963,422.011 2352.76,422.011 
  "/>
<polyline clip-path="url(#clip5202)" style="stroke:#000000; stroke-width:2; stroke-opacity:0.1; fill:none" points="
  228.963,158.366 2352.76,158.366 
  "/>
<polyline clip-path="url(#clip5200)" style="stroke:#000000; stroke-width:4; stroke-opacity:1; fill:none" points="
  228.963,1425.62 2352.76,1425.62 
  "/>
<polyline clip-path="url(#clip5200)" style="stroke:#000000; stroke-width:4; stroke-opacity:1; fill:none" points="
  228.963,1425.62 228.963,121.456 
  "/>
<polyline clip-path="url(#clip5200)" style="stroke:#000000; stroke-width:4; stroke-opacity:1; fill:none" points="
  287.678,1425.62 287.678,1406.06 
  "/>
<polyline clip-path="url(#clip5200)" style="stroke:#000000; stroke-width:4; stroke-opacity:1; fill:none" points="
  705.38,1425.62 705.38,1406.06 
  "/>
<polyline clip-path="url(#clip5200)" style="stroke:#000000; stroke-width:4; stroke-opacity:1; fill:none" points="
  1123.08,1425.62 1123.08,1406.06 
  "/>
<polyline clip-path="url(#clip5200)" style="stroke:#000000; stroke-width:4; stroke-opacity:1; fill:none" points="
  1540.78,1425.62 1540.78,1406.06 
  "/>
<polyline clip-path="url(#clip5200)" style="stroke:#000000; stroke-width:4; stroke-opacity:1; fill:none" points="
  1958.49,1425.62 1958.49,1406.06 
  "/>
<polyline clip-path="url(#clip5200)" style="stroke:#000000; stroke-width:4; stroke-opacity:1; fill:none" points="
  228.963,1212.95 260.82,1212.95 
  "/>
<polyline clip-path="url(#clip5200)" style="stroke:#000000; stroke-width:4; stroke-opacity:1; fill:none" points="
  228.963,949.301 260.82,949.301 
  "/>
<polyline clip-path="url(#clip5200)" style="stroke:#000000; stroke-width:4; stroke-opacity:1; fill:none" points="
  228.963,685.656 260.82,685.656 
  "/>
<polyline clip-path="url(#clip5200)" style="stroke:#000000; stroke-width:4; stroke-opacity:1; fill:none" points="
  228.963,422.011 260.82,422.011 
  "/>
<polyline clip-path="url(#clip5200)" style="stroke:#000000; stroke-width:4; stroke-opacity:1; fill:none" points="
  228.963,158.366 260.82,158.366 
  "/>
<g clip-path="url(#clip5200)">
<text style="fill:#000000; fill-opacity:1; font-family:Arial,Helvetica Neue,Helvetica,sans-serif; font-size:48px; text-anchor:middle;" transform="rotate(0, 287.678, 1479.62)" x="287.678" y="1479.62">0</text>
</g>
<g clip-path="url(#clip5200)">
<text style="fill:#000000; fill-opacity:1; font-family:Arial,Helvetica Neue,Helvetica,sans-serif; font-size:48px; text-anchor:middle;" transform="rotate(0, 705.38, 1479.62)" x="705.38" y="1479.62">300</text>
</g>
<g clip-path="url(#clip5200)">
<text style="fill:#000000; fill-opacity:1; font-family:Arial,Helvetica Neue,Helvetica,sans-serif; font-size:48px; text-anchor:middle;" transform="rotate(0, 1123.08, 1479.62)" x="1123.08" y="1479.62">600</text>
</g>
<g clip-path="url(#clip5200)">
<text style="fill:#000000; fill-opacity:1; font-family:Arial,Helvetica Neue,Helvetica,sans-serif; font-size:48px; text-anchor:middle;" transform="rotate(0, 1540.78, 1479.62)" x="1540.78" y="1479.62">900</text>
</g>
<g clip-path="url(#clip5200)">
<text style="fill:#000000; fill-opacity:1; font-family:Arial,Helvetica Neue,Helvetica,sans-serif; font-size:48px; text-anchor:middle;" transform="rotate(0, 1958.49, 1479.62)" x="1958.49" y="1479.62">1200</text>
</g>
<g clip-path="url(#clip5200)">
<text style="fill:#000000; fill-opacity:1; font-family:Arial,Helvetica Neue,Helvetica,sans-serif; font-size:48px; text-anchor:end;" transform="rotate(0, 204.963, 1230.45)" x="204.963" y="1230.45">20</text>
</g>
<g clip-path="url(#clip5200)">
<text style="fill:#000000; fill-opacity:1; font-family:Arial,Helvetica Neue,Helvetica,sans-serif; font-size:48px; text-anchor:end;" transform="rotate(0, 204.963, 966.801)" x="204.963" y="966.801">40</text>
</g>
<g clip-path="url(#clip5200)">
<text style="fill:#000000; fill-opacity:1; font-family:Arial,Helvetica Neue,Helvetica,sans-serif; font-size:48px; text-anchor:end;" transform="rotate(0, 204.963, 703.156)" x="204.963" y="703.156">60</text>
</g>
<g clip-path="url(#clip5200)">
<text style="fill:#000000; fill-opacity:1; font-family:Arial,Helvetica Neue,Helvetica,sans-serif; font-size:48px; text-anchor:end;" transform="rotate(0, 204.963, 439.511)" x="204.963" y="439.511">80</text>
</g>
<g clip-path="url(#clip5200)">
<text style="fill:#000000; fill-opacity:1; font-family:Arial,Helvetica Neue,Helvetica,sans-serif; font-size:48px; text-anchor:end;" transform="rotate(0, 204.963, 175.866)" x="204.963" y="175.866">100</text>
</g>
<g clip-path="url(#clip5200)">
<text style="fill:#000000; fill-opacity:1; font-family:Arial,Helvetica Neue,Helvetica,sans-serif; font-size:84px; text-anchor:start;" transform="rotate(0, 559.162, 74.9952)" x="559.162" y="74.9952">Arrival rate </text>
</g>
<g clip-path="url(#clip5200)">
<text style="fill:#000000; fill-opacity:1; font-family:Symbol; font-size:91px; text-anchor:start;" transform="rotate(0, 989.766, 74.9952)" x="989.766" y="74.9952">λ</text>
</g>
<g clip-path="url(#clip5200)">
<text style="fill:#000000; fill-opacity:1; font-family:Arial,Helvetica Neue,Helvetica,sans-serif; font-size:84px; text-anchor:start;" transform="rotate(0, 1039.55, 74.9952)" x="1039.55" y="74.9952"> (t) for US Bank Callcenter</text>
</g>
<g clip-path="url(#clip5200)">
<text style="fill:#000000; fill-opacity:1; font-family:Arial,Helvetica Neue,Helvetica,sans-serif; font-size:66px; text-anchor:middle;" transform="rotate(0, 1290.86, 1559.48)" x="1290.86" y="1559.48">Time (min)</text>
</g>
<g clip-path="url(#clip5200)">
<text style="fill:#000000; fill-opacity:1; font-family:Arial,Helvetica Neue,Helvetica,sans-serif; font-size:66px; text-anchor:start;" transform="rotate(-90, 90.697, 962.26)" x="90.697" y="962.26">Arrival rate </text>
</g>
<g clip-path="url(#clip5200)">
<text style="fill:#000000; fill-opacity:1; font-family:Symbol; font-size:72px; text-anchor:start;" transform="rotate(-90, 90.697, 623.928)" x="90.697" y="623.928">λ</text>
</g>
<polyline clip-path="url(#clip5202)" style="stroke:#009af9; stroke-width:4; stroke-opacity:1; fill:none" points="
  289.071,1366.81 290.463,1366.88 291.855,1366.96 293.248,1367.03 294.64,1367.1 296.032,1367.18 297.425,1367.25 298.817,1367.32 300.209,1367.4 301.602,1367.47 
  302.994,1367.54 304.386,1367.62 305.779,1367.69 307.171,1367.76 308.563,1367.84 309.956,1367.91 311.348,1367.98 312.74,1368.06 314.133,1368.13 315.525,1368.2 
  316.917,1368.28 318.31,1368.35 319.702,1368.42 321.094,1368.5 322.487,1368.57 323.879,1368.64 325.271,1368.72 326.664,1368.79 328.056,1368.86 329.448,1368.94 
  330.841,1369.01 332.233,1369.08 333.625,1369.15 335.018,1369.23 336.41,1369.3 337.802,1369.37 339.195,1369.45 340.587,1369.52 341.979,1369.59 343.372,1369.67 
  344.764,1369.74 346.156,1369.81 347.549,1369.89 348.941,1369.96 350.334,1370.03 351.726,1370.11 353.118,1370.18 354.511,1370.25 355.903,1370.33 357.295,1370.4 
  358.688,1370.47 360.08,1370.55 361.472,1370.62 362.865,1370.69 364.257,1370.77 365.649,1370.84 367.042,1370.91 368.434,1370.99 369.826,1371.06 371.219,1371.13 
  372.611,1371.21 374.003,1371.28 375.396,1371.35 376.788,1371.42 378.18,1371.5 379.573,1371.57 380.965,1371.64 382.357,1371.72 383.75,1371.79 385.142,1371.86 
  386.534,1371.94 387.927,1372.01 389.319,1372.08 390.711,1372.16 392.104,1372.23 393.496,1372.3 394.888,1372.38 396.281,1372.45 397.673,1372.52 399.065,1372.6 
  400.458,1372.67 401.85,1372.74 403.242,1372.82 404.635,1372.89 406.027,1372.96 407.419,1373.04 408.812,1373.11 410.204,1373.18 411.596,1373.26 412.989,1373.33 
  414.381,1373.4 415.774,1373.48 417.166,1373.55 418.558,1373.62 419.951,1373.7 421.343,1373.77 422.735,1373.84 424.128,1373.91 425.52,1373.99 426.912,1374.06 
  428.305,1374.13 429.697,1374.21 431.089,1374.28 432.482,1374.35 433.874,1374.43 435.266,1374.5 436.659,1374.57 438.051,1374.65 439.443,1374.72 440.836,1374.79 
  442.228,1374.87 443.62,1374.94 445.013,1375.01 446.405,1375.09 447.797,1375.16 449.19,1375.23 450.582,1375.31 451.974,1375.38 453.367,1375.45 454.759,1375.53 
  456.151,1375.6 457.544,1375.67 458.936,1375.75 460.328,1375.82 461.721,1375.89 463.113,1375.97 464.505,1376.04 465.898,1376.11 467.29,1376.19 468.682,1376.26 
  470.075,1376.33 471.467,1376.4 472.859,1376.48 474.252,1376.55 475.644,1376.62 477.036,1376.7 478.429,1376.77 479.821,1376.84 481.214,1376.92 482.606,1376.99 
  483.998,1377.06 485.391,1377.14 486.783,1377.21 488.175,1377.28 489.568,1377.36 490.96,1377.43 492.352,1377.5 493.745,1377.58 495.137,1377.65 496.529,1377.72 
  497.922,1377.8 499.314,1377.87 500.706,1377.94 502.099,1378.02 503.491,1378.09 504.883,1378.16 506.276,1378.24 507.668,1378.31 509.06,1378.38 510.453,1378.46 
  511.845,1378.53 513.237,1378.6 514.63,1378.68 516.022,1378.75 517.414,1378.82 518.807,1378.89 520.199,1378.97 521.591,1379.04 522.984,1379.11 524.376,1379.19 
  525.768,1379.26 527.161,1379.33 528.553,1379.41 529.945,1379.48 531.338,1379.55 532.73,1379.63 534.122,1379.7 535.515,1379.77 536.907,1379.85 538.299,1379.92 
  539.692,1379.99 541.084,1380.07 542.476,1380.14 543.869,1380.21 545.261,1380.29 546.654,1380.36 548.046,1380.43 549.438,1380.51 550.831,1380.58 552.223,1380.65 
  553.615,1380.73 555.008,1380.8 556.4,1380.87 557.792,1380.95 559.185,1381.02 560.577,1381.09 561.969,1381.17 563.362,1381.24 564.754,1381.31 566.146,1381.38 
  567.539,1381.46 568.931,1381.53 570.323,1381.6 571.716,1381.68 573.108,1381.75 574.5,1381.82 575.893,1381.9 577.285,1381.97 578.677,1382.04 580.07,1382.12 
  581.462,1382.19 582.854,1382.26 584.247,1382.34 585.639,1382.41 587.031,1382.48 588.424,1382.56 589.816,1382.63 591.208,1382.7 592.601,1382.78 593.993,1382.85 
  595.385,1382.92 596.778,1383 598.17,1383.07 599.562,1383.14 600.955,1383.22 602.347,1383.29 603.739,1383.36 605.132,1383.44 606.524,1383.51 607.917,1383.58 
  609.309,1383.66 610.701,1383.73 612.094,1383.8 613.486,1383.87 614.878,1383.95 616.271,1384.02 617.663,1384.09 619.055,1384.17 620.448,1384.24 621.84,1384.31 
  623.232,1384.39 624.625,1384.46 626.017,1384.53 627.409,1384.61 628.802,1384.68 630.194,1384.75 631.586,1384.83 632.979,1384.9 634.371,1384.97 635.763,1385.05 
  637.156,1385.12 638.548,1385.19 639.94,1385.27 641.333,1385.34 642.725,1385.41 644.117,1385.49 645.51,1385.56 646.902,1385.63 648.294,1385.71 649.687,1385.78 
  651.079,1385.85 652.471,1385.93 653.864,1386 655.256,1386.07 656.648,1386.15 658.041,1386.22 659.433,1386.29 660.825,1386.36 662.218,1386.44 663.61,1386.51 
  665.002,1386.58 666.395,1386.66 667.787,1386.73 669.179,1386.8 670.572,1386.88 671.964,1386.95 673.357,1387.02 674.749,1387.1 676.141,1387.17 677.534,1387.24 
  678.926,1387.32 680.318,1387.39 681.711,1387.46 683.103,1387.54 684.495,1387.61 685.888,1387.68 687.28,1387.76 688.672,1387.83 690.065,1387.9 691.457,1387.98 
  692.849,1388.05 694.242,1388.12 695.634,1388.2 697.026,1388.27 698.419,1388.34 699.811,1388.42 701.203,1388.49 702.596,1388.56 703.988,1388.64 705.38,1388.71 
  706.773,1388.53 708.165,1388.34 709.557,1388.16 710.95,1387.98 712.342,1387.79 713.734,1387.61 715.127,1387.43 716.519,1387.24 717.911,1387.06 719.304,1386.88 
  720.696,1386.69 722.088,1386.51 723.481,1386.33 724.873,1386.15 726.265,1385.96 727.658,1385.78 729.05,1385.6 730.442,1385.41 731.835,1385.23 733.227,1385.05 
  734.619,1384.86 736.012,1384.68 737.404,1384.5 738.797,1384.31 740.189,1384.13 741.581,1383.95 742.974,1383.77 744.366,1383.58 745.758,1383.4 747.151,1383.22 
  748.543,1383.03 749.935,1382.85 751.328,1382.67 752.72,1382.48 754.112,1382.3 755.505,1382.12 756.897,1381.93 758.289,1381.75 759.682,1381.57 761.074,1381.38 
  762.466,1381.2 763.859,1381.02 765.251,1380.84 766.643,1380.65 768.036,1380.47 769.428,1380.29 770.82,1380.1 772.213,1379.92 773.605,1379.74 774.997,1379.55 
  776.39,1379.37 777.782,1379.19 779.174,1379 780.567,1378.82 781.959,1378.64 783.351,1378.46 784.744,1378.27 786.136,1378.09 787.528,1377.91 788.921,1377.72 
  790.313,1377.54 791.705,1377.36 793.098,1377.17 794.49,1376.99 795.882,1376.81 797.275,1376.62 798.667,1376.44 800.059,1376.26 801.452,1376.08 802.844,1375.89 
  804.237,1375.71 805.629,1375.53 807.021,1375.34 808.414,1375.16 809.806,1374.98 811.198,1374.79 812.591,1374.61 813.983,1374.43 815.375,1374.24 816.768,1374.06 
  818.16,1373.88 819.552,1373.7 820.945,1373.51 822.337,1373.33 823.729,1373.15 825.122,1372.96 826.514,1372.78 827.906,1372.6 829.299,1372.41 830.691,1372.23 
  832.083,1372.05 833.476,1371.86 834.868,1371.68 836.26,1371.5 837.653,1371.32 839.045,1371.13 840.437,1370.95 841.83,1370.77 843.222,1370.58 844.614,1370.4 
  846.007,1370.22 847.399,1370.03 848.791,1369.85 850.184,1369.67 851.576,1369.48 852.968,1369.3 854.361,1369.12 855.753,1368.94 857.145,1368.75 858.538,1368.57 
  859.93,1368.39 861.322,1368.2 862.715,1368.02 864.107,1367.84 865.5,1367.65 866.892,1367.47 868.284,1367.29 869.677,1367.1 871.069,1366.92 872.461,1366.74 
  873.854,1360.02 875.246,1353.31 876.638,1346.6 878.031,1339.89 879.423,1333.17 880.815,1326.46 882.208,1319.75 883.6,1313.03 884.992,1306.32 886.385,1299.61 
  887.777,1292.89 889.169,1286.18 890.562,1279.47 891.954,1272.75 893.346,1266.04 894.739,1259.33 896.131,1252.61 897.523,1245.9 898.916,1239.19 900.308,1232.47 
  901.7,1225.76 903.093,1219.05 904.485,1212.33 905.877,1205.62 907.27,1198.91 908.662,1192.2 910.054,1185.48 911.447,1178.77 912.839,1172.06 914.231,1165.34 
  915.624,1158.63 917.016,1151.92 918.408,1145.2 919.801,1138.49 921.193,1131.78 922.585,1125.06 923.978,1118.35 925.37,1111.64 926.762,1104.92 928.155,1098.21 
  929.547,1091.5 930.94,1084.78 932.332,1078.07 933.724,1071.36 935.117,1064.65 936.509,1057.93 937.901,1051.22 939.294,1044.51 940.686,1037.79 942.078,1031.08 
  943.471,1024.37 944.863,1017.65 946.255,1010.94 947.648,1004.23 949.04,997.513 950.432,990.8 951.825,984.087 953.217,977.374 954.609,970.661 956.002,963.947 
  957.394,957.234 958.786,950.521 960.179,943.808 961.571,937.095 962.963,930.382 964.356,923.668 965.748,916.955 967.14,910.242 968.533,903.529 969.925,896.816 
  971.317,890.103 972.71,883.389 974.102,876.676 975.494,869.963 976.887,863.25 978.279,856.537 979.671,849.823 981.064,843.11 982.456,836.397 983.848,829.684 
  985.241,822.971 986.633,816.258 988.025,809.544 989.418,802.831 990.81,796.118 992.202,789.405 993.595,782.692 994.987,775.979 996.38,769.265 997.772,762.552 
  999.164,755.839 1000.56,749.126 1001.95,742.413 1003.34,735.699 1004.73,728.986 1006.13,722.273 1007.52,715.56 1008.91,708.847 1010.3,702.134 1011.7,695.42 
  1013.09,688.707 1014.48,681.994 1015.87,675.281 1017.26,668.568 1018.66,661.855 1020.05,655.141 1021.44,648.428 1022.83,641.715 1024.23,635.002 1025.62,628.289 
  1027.01,621.575 1028.4,614.862 1029.8,608.149 1031.19,601.436 1032.58,594.723 1033.97,588.01 1035.37,581.296 1036.76,574.583 1038.15,567.87 1039.54,561.157 
  1040.93,554.444 1042.33,547.731 1043.72,541.017 1045.11,534.304 1046.5,527.591 1047.9,520.878 1049.29,514.165 1050.68,507.452 1052.07,500.738 1053.47,494.025 
  1054.86,487.312 1056.25,480.599 1057.64,473.886 1059.03,467.172 1060.43,460.459 1061.82,453.746 1063.21,447.033 1064.6,440.32 1066,433.607 1067.39,426.893 
  1068.78,420.18 1070.17,413.467 1071.57,406.754 1072.96,400.041 1074.35,393.328 1075.74,386.614 1077.14,379.901 1078.53,373.188 1079.92,366.475 1081.31,359.762 
  1082.7,353.048 1084.1,346.335 1085.49,339.622 1086.88,332.909 1088.27,326.196 1089.67,319.483 1091.06,312.769 1092.45,306.056 1093.84,299.343 1095.24,292.63 
  1096.63,285.917 1098.02,279.204 1099.41,272.49 1100.81,265.777 1102.2,259.064 1103.59,252.351 1104.98,245.638 1106.37,238.924 1107.77,232.211 1109.16,225.498 
  1110.55,218.785 1111.94,212.072 1113.34,205.359 1114.73,198.645 1116.12,191.932 1117.51,185.219 1118.91,178.506 1120.3,171.793 1121.69,165.08 1123.08,158.366 
  1124.47,159.282 1125.87,160.197 1127.26,161.113 1128.65,162.028 1130.04,162.944 1131.44,163.859 1132.83,164.774 1134.22,165.69 1135.61,166.605 1137.01,167.521 
  1138.4,168.436 1139.79,169.352 1141.18,170.267 1142.58,171.182 1143.97,172.098 1145.36,173.013 1146.75,173.929 1148.14,174.844 1149.54,175.76 1150.93,176.675 
  1152.32,177.59 1153.71,178.506 1155.11,179.421 1156.5,180.337 1157.89,181.252 1159.28,182.168 1160.68,183.083 1162.07,183.999 1163.46,184.914 1164.85,185.829 
  1166.25,186.745 1167.64,187.66 1169.03,188.576 1170.42,189.491 1171.81,190.407 1173.21,191.322 1174.6,192.237 1175.99,193.153 1177.38,194.068 1178.78,194.984 
  1180.17,195.899 1181.56,196.815 1182.95,197.73 1184.35,198.645 1185.74,199.561 1187.13,200.476 1188.52,201.392 1189.91,202.307 1191.31,203.223 1192.7,204.138 
  1194.09,205.053 1195.48,205.969 1196.88,206.884 1198.27,207.8 1199.66,208.715 1201.05,209.631 1202.45,210.546 1203.84,211.462 1205.23,212.377 1206.62,213.292 
  1208.02,214.208 1209.41,215.123 1210.8,216.039 1212.19,216.954 1213.58,217.87 1214.98,218.785 1216.37,219.7 1217.76,220.616 1219.15,221.531 1220.55,222.447 
  1221.94,223.362 1223.33,224.278 1224.72,225.193 1226.12,226.108 1227.51,227.024 1228.9,227.939 1230.29,228.855 1231.69,229.77 1233.08,230.686 1234.47,231.601 
  1235.86,232.516 1237.25,233.432 1238.65,234.347 1240.04,235.263 1241.43,236.178 1242.82,237.094 1244.22,238.009 1245.61,238.924 1247,239.84 1248.39,240.755 
  1249.79,241.671 1251.18,242.586 1252.57,243.502 1253.96,244.417 1255.35,245.333 1256.75,246.248 1258.14,247.163 1259.53,248.079 1260.92,248.994 1262.32,249.91 
  1263.71,250.825 1265.1,251.741 1266.49,252.656 1267.89,253.571 1269.28,254.487 1270.67,255.402 1272.06,256.318 1273.46,257.233 1274.85,258.149 1276.24,259.064 
  1277.63,259.979 1279.02,260.895 1280.42,261.81 1281.81,262.726 1283.2,263.641 1284.59,264.557 1285.99,265.472 1287.38,266.387 1288.77,267.303 1290.16,268.218 
  1291.56,269.134 1292.95,270.049 1294.34,270.965 1295.73,271.88 1297.13,272.796 1298.52,273.711 1299.91,274.626 1301.3,275.542 1302.69,276.457 1304.09,277.373 
  1305.48,278.288 1306.87,279.204 1308.26,280.119 1309.66,281.034 1311.05,281.95 1312.44,282.865 1313.83,283.781 1315.23,284.696 1316.62,285.612 1318.01,286.527 
  1319.4,287.442 1320.79,288.358 1322.19,289.273 1323.58,290.189 1324.97,291.104 1326.36,292.02 1327.76,292.935 1329.15,293.85 1330.54,294.766 1331.93,295.681 
  1333.33,296.597 1334.72,297.512 1336.11,298.428 1337.5,299.343 1338.9,300.259 1340.29,301.174 1341.68,302.089 1343.07,303.005 1344.46,303.92 1345.86,304.836 
  1347.25,305.751 1348.64,306.667 1350.03,307.582 1351.43,308.497 1352.82,309.413 1354.21,310.328 1355.6,311.244 1357,312.159 1358.39,313.075 1359.78,313.99 
  1361.17,314.905 1362.57,315.821 1363.96,316.736 1365.35,317.652 1366.74,318.567 1368.13,319.483 1369.53,320.398 1370.92,321.313 1372.31,322.229 1373.7,323.144 
  1375.1,324.06 1376.49,324.975 1377.88,325.891 1379.27,326.806 1380.67,327.721 1382.06,328.637 1383.45,329.552 1384.84,330.468 1386.23,331.383 1387.63,332.299 
  1389.02,333.214 1390.41,334.13 1391.8,335.045 1393.2,335.96 1394.59,336.876 1395.98,337.791 1397.37,338.707 1398.77,339.622 1400.16,340.538 1401.55,341.453 
  1402.94,342.368 1404.34,343.284 1405.73,344.199 1407.12,345.115 1408.51,346.03 1409.9,346.946 1411.3,347.861 1412.69,348.776 1414.08,349.692 1415.47,350.607 
  1416.87,351.523 1418.26,352.438 1419.65,353.354 1421.04,354.269 1422.44,355.184 1423.83,356.1 1425.22,357.015 1426.61,357.931 1428.01,358.846 1429.4,359.762 
  1430.79,360.677 1432.18,361.593 1433.57,362.508 1434.97,363.423 1436.36,364.339 1437.75,365.254 1439.14,366.17 1440.54,367.085 1441.93,368.001 1443.32,368.916 
  1444.71,369.831 1446.11,370.747 1447.5,371.662 1448.89,372.578 1450.28,373.493 1451.67,374.409 1453.07,375.324 1454.46,376.239 1455.85,377.155 1457.24,378.07 
  1458.64,378.986 1460.03,379.901 1461.42,380.817 1462.81,381.732 1464.21,382.647 1465.6,383.563 1466.99,384.478 1468.38,385.394 1469.78,386.309 1471.17,387.225 
  1472.56,388.14 1473.95,389.056 1475.34,389.971 1476.74,390.886 1478.13,391.802 1479.52,392.717 1480.91,393.633 1482.31,394.548 1483.7,395.464 1485.09,396.379 
  1486.48,397.294 1487.88,398.21 1489.27,399.125 1490.66,400.041 1492.05,400.956 1493.45,401.872 1494.84,402.787 1496.23,403.702 1497.62,404.618 1499.01,405.533 
  1500.41,406.449 1501.8,407.364 1503.19,408.28 1504.58,409.195 1505.98,410.11 1507.37,411.026 1508.76,411.941 1510.15,412.857 1511.55,413.772 1512.94,414.688 
  1514.33,415.603 1515.72,416.518 1517.11,417.434 1518.51,418.349 1519.9,419.265 1521.29,420.18 1522.68,421.096 1524.08,422.011 1525.47,422.927 1526.86,423.842 
  1528.25,424.757 1529.65,425.673 1531.04,426.588 1532.43,427.504 1533.82,428.419 1535.22,429.335 1536.61,430.25 1538,431.165 1539.39,432.081 1540.78,432.996 
  1542.18,433.912 1543.57,434.827 1544.96,435.743 1546.35,436.658 1547.75,437.573 1549.14,438.489 1550.53,439.404 1551.92,440.32 1553.32,441.235 1554.71,442.151 
  1556.1,443.066 1557.49,443.981 1558.89,444.897 1560.28,445.812 1561.67,446.728 1563.06,447.643 1564.45,448.559 1565.85,449.474 1567.24,450.39 1568.63,451.305 
  1570.02,452.22 1571.42,453.136 1572.81,454.051 1574.2,454.967 1575.59,455.882 1576.99,456.798 1578.38,457.713 1579.77,458.628 1581.16,459.544 1582.55,460.459 
  1583.95,461.375 1585.34,462.29 1586.73,463.206 1588.12,464.121 1589.52,465.036 1590.91,465.952 1592.3,466.867 1593.69,467.783 1595.09,468.698 1596.48,469.614 
  1597.87,470.529 1599.26,471.444 1600.66,472.36 1602.05,473.275 1603.44,474.191 1604.83,475.106 1606.22,476.022 1607.62,476.937 1609.01,477.853 1610.4,478.768 
  1611.79,479.683 1613.19,480.599 1614.58,481.514 1615.97,482.43 1617.36,483.345 1618.76,484.261 1620.15,485.176 1621.54,486.091 1622.93,487.007 1624.33,487.922 
  1625.72,492.499 1627.11,497.077 1628.5,501.654 1629.89,506.231 1631.29,510.808 1632.68,515.385 1634.07,519.962 1635.46,524.54 1636.86,529.117 1638.25,533.694 
  1639.64,538.271 1641.03,542.848 1642.43,547.425 1643.82,552.003 1645.21,556.58 1646.6,561.157 1647.99,565.734 1649.39,570.311 1650.78,574.888 1652.17,579.466 
  1653.56,584.043 1654.96,588.62 1656.35,593.197 1657.74,597.774 1659.13,602.351 1660.53,606.929 1661.92,611.506 1663.31,616.083 1664.7,620.66 1666.1,625.237 
  1667.49,629.814 1668.88,634.392 1670.27,638.969 1671.66,643.546 1673.06,648.123 1674.45,652.7 1675.84,657.277 1677.23,661.855 1678.63,666.432 1680.02,671.009 
  1681.41,675.586 1682.8,680.163 1684.2,684.74 1685.59,689.318 1686.98,693.895 1688.37,698.472 1689.77,703.049 1691.16,707.626 1692.55,712.203 1693.94,716.781 
  1695.33,721.358 1696.73,725.935 1698.12,730.512 1699.51,735.089 1700.9,739.666 1702.3,744.244 1703.69,748.821 1705.08,753.398 1706.47,757.975 1707.87,762.552 
  1709.26,767.129 1710.65,771.707 1712.04,776.284 1713.43,780.861 1714.83,785.438 1716.22,790.015 1717.61,794.592 1719,799.169 1720.4,803.747 1721.79,808.324 
  1723.18,812.901 1724.57,817.478 1725.97,822.055 1727.36,826.632 1728.75,831.21 1730.14,835.787 1731.54,840.364 1732.93,844.941 1734.32,849.518 1735.71,854.095 
  1737.1,858.673 1738.5,863.25 1739.89,867.827 1741.28,872.404 1742.67,876.981 1744.07,881.558 1745.46,886.136 1746.85,890.713 1748.24,895.29 1749.64,899.867 
  1751.03,904.444 1752.42,909.021 1753.81,913.599 1755.21,918.176 1756.6,922.753 1757.99,927.33 1759.38,931.907 1760.77,936.484 1762.17,941.062 1763.56,945.639 
  1764.95,950.216 1766.34,954.793 1767.74,959.37 1769.13,963.947 1770.52,968.525 1771.91,973.102 1773.31,977.679 1774.7,982.256 1776.09,986.833 1777.48,991.41 
  1778.87,995.988 1780.27,1000.56 1781.66,1005.14 1783.05,1009.72 1784.44,1014.3 1785.84,1018.87 1787.23,1023.45 1788.62,1028.03 1790.01,1032.6 1791.41,1037.18 
  1792.8,1038.16 1794.19,1039.14 1795.58,1040.11 1796.98,1041.09 1798.37,1042.06 1799.76,1043.04 1801.15,1044.02 1802.54,1044.99 1803.94,1045.97 1805.33,1046.95 
  1806.72,1047.92 1808.11,1048.9 1809.51,1049.88 1810.9,1050.85 1812.29,1051.83 1813.68,1052.81 1815.08,1053.78 1816.47,1054.76 1817.86,1055.73 1819.25,1056.71 
  1820.65,1057.69 1822.04,1058.66 1823.43,1059.64 1824.82,1060.62 1826.21,1061.59 1827.61,1062.57 1829,1063.55 1830.39,1064.52 1831.78,1065.5 1833.18,1066.48 
  1834.57,1067.45 1835.96,1068.43 1837.35,1069.41 1838.75,1070.38 1840.14,1071.36 1841.53,1072.33 1842.92,1073.31 1844.31,1074.29 1845.71,1075.26 1847.1,1076.24 
  1848.49,1077.22 1849.88,1078.19 1851.28,1079.17 1852.67,1080.15 1854.06,1081.12 1855.45,1082.1 1856.85,1083.08 1858.24,1084.05 1859.63,1085.03 1861.02,1086.01 
  1862.42,1086.98 1863.81,1087.96 1865.2,1088.93 1866.59,1089.91 1867.98,1090.89 1869.38,1091.86 1870.77,1092.84 1872.16,1093.82 1873.55,1094.79 1874.95,1095.77 
  1876.34,1096.75 1877.73,1097.72 1879.12,1098.7 1880.52,1099.68 1881.91,1100.65 1883.3,1101.63 1884.69,1102.61 1886.09,1103.58 1887.48,1104.56 1888.87,1105.53 
  1890.26,1106.51 1891.65,1107.49 1893.05,1108.46 1894.44,1109.44 1895.83,1110.42 1897.22,1111.39 1898.62,1112.37 1900.01,1113.35 1901.4,1114.32 1902.79,1115.3 
  1904.19,1116.28 1905.58,1117.25 1906.97,1118.23 1908.36,1119.2 1909.75,1120.18 1911.15,1121.16 1912.54,1122.13 1913.93,1123.11 1915.32,1124.09 1916.72,1125.06 
  1918.11,1126.04 1919.5,1127.02 1920.89,1127.99 1922.29,1128.97 1923.68,1129.95 1925.07,1130.92 1926.46,1131.9 1927.86,1132.88 1929.25,1133.85 1930.64,1134.83 
  1932.03,1135.8 1933.42,1136.78 1934.82,1137.76 1936.21,1138.73 1937.6,1139.71 1938.99,1140.69 1940.39,1141.66 1941.78,1142.64 1943.17,1143.62 1944.56,1144.59 
  1945.96,1145.57 1947.35,1146.55 1948.74,1147.52 1950.13,1148.5 1951.53,1149.48 1952.92,1150.45 1954.31,1151.43 1955.7,1152.4 1957.09,1153.38 1958.49,1154.36 
  1959.88,1155.33 1961.27,1156.31 1962.66,1157.29 1964.06,1158.26 1965.45,1159.24 1966.84,1160.22 1968.23,1161.19 1969.63,1162.17 1971.02,1163.15 1972.41,1164.12 
  1973.8,1165.1 1975.19,1166.08 1976.59,1167.05 1977.98,1168.03 1979.37,1169 1980.76,1169.98 1982.16,1170.96 1983.55,1171.93 1984.94,1172.91 1986.33,1173.89 
  1987.73,1174.86 1989.12,1175.84 1990.51,1176.82 1991.9,1177.79 1993.3,1178.77 1994.69,1179.75 1996.08,1180.72 1997.47,1181.7 1998.86,1182.67 2000.26,1183.65 
  2001.65,1184.63 2003.04,1185.6 2004.43,1186.58 2005.83,1187.56 2007.22,1188.53 2008.61,1189.51 2010,1190.49 2011.4,1191.46 2012.79,1192.44 2014.18,1193.42 
  2015.57,1194.39 2016.97,1195.37 2018.36,1196.35 2019.75,1197.32 2021.14,1198.3 2022.53,1199.27 2023.93,1200.25 2025.32,1201.23 2026.71,1202.2 2028.1,1203.18 
  2029.5,1204.16 2030.89,1205.13 2032.28,1206.11 2033.67,1207.09 2035.07,1208.06 2036.46,1209.04 2037.85,1210.02 2039.24,1210.99 2040.63,1211.97 2042.03,1212.95 
  2043.42,1213.92 2044.81,1214.9 2046.2,1215.87 2047.6,1216.85 2048.99,1217.83 2050.38,1218.8 2051.77,1219.78 2053.17,1220.76 2054.56,1221.73 2055.95,1222.71 
  2057.34,1223.69 2058.74,1224.66 2060.13,1225.64 2061.52,1226.62 2062.91,1227.59 2064.3,1228.57 2065.7,1229.55 2067.09,1230.52 2068.48,1231.5 2069.87,1232.47 
  2071.27,1233.45 2072.66,1234.43 2074.05,1235.4 2075.44,1236.38 2076.84,1237.36 2078.23,1238.33 2079.62,1239.31 2081.01,1240.29 2082.41,1241.26 2083.8,1242.24 
  2085.19,1243.22 2086.58,1244.19 2087.97,1245.17 2089.37,1246.14 2090.76,1247.12 2092.15,1248.1 2093.54,1249.07 2094.94,1250.05 2096.33,1251.03 2097.72,1252 
  2099.11,1252.98 2100.51,1253.96 2101.9,1254.93 2103.29,1255.91 2104.68,1256.89 2106.07,1257.86 2107.47,1258.84 2108.86,1259.82 2110.25,1260.79 2111.64,1261.77 
  2113.04,1262.74 2114.43,1263.72 2115.82,1264.7 2117.21,1265.67 2118.61,1266.65 2120,1267.63 2121.39,1268.6 2122.78,1269.58 2124.18,1270.56 2125.57,1271.53 
  2126.96,1272.51 2128.35,1273.49 2129.74,1274.46 2131.14,1275.44 2132.53,1276.42 2133.92,1277.39 2135.31,1278.37 2136.71,1279.34 2138.1,1280.32 2139.49,1281.3 
  2140.88,1282.27 2142.28,1283.25 2143.67,1284.23 2145.06,1285.2 2146.45,1286.18 2147.85,1287.16 2149.24,1288.13 2150.63,1289.11 2152.02,1290.09 2153.41,1291.06 
  2154.81,1292.04 2156.2,1293.02 2157.59,1293.99 2158.98,1294.97 2160.38,1295.94 2161.77,1296.92 2163.16,1297.9 2164.55,1298.87 2165.95,1299.85 2167.34,1300.83 
  2168.73,1301.8 2170.12,1302.78 2171.51,1303.76 2172.91,1304.73 2174.3,1305.71 2175.69,1306.69 2177.08,1307.66 2178.48,1308.64 2179.87,1309.61 2181.26,1310.59 
  2182.65,1311.57 2184.05,1312.54 2185.44,1313.52 2186.83,1314.5 2188.22,1315.47 2189.62,1316.45 2191.01,1317.43 2192.4,1318.4 2193.79,1319.38 2195.18,1320.36 
  2196.58,1321.33 2197.97,1322.31 2199.36,1323.29 2200.75,1324.26 2202.15,1325.24 2203.54,1326.21 2204.93,1327.19 2206.32,1328.17 2207.72,1329.14 2209.11,1330.12 
  2210.5,1331.1 2211.89,1332.07 2213.29,1333.05 2214.68,1334.03 2216.07,1335 2217.46,1335.98 2218.85,1336.96 2220.25,1337.93 2221.64,1338.91 2223.03,1339.89 
  2224.42,1340.86 2225.82,1341.84 2227.21,1342.81 2228.6,1343.79 2229.99,1344.77 2231.39,1345.74 2232.78,1346.72 2234.17,1347.7 2235.56,1348.67 2236.95,1349.65 
  2238.35,1350.63 2239.74,1351.6 2241.13,1352.58 2242.52,1353.56 2243.92,1354.53 2245.31,1355.51 2246.7,1356.49 2248.09,1357.46 2249.49,1358.44 2250.88,1359.41 
  2252.27,1360.39 2253.66,1361.37 2255.06,1362.34 2256.45,1363.32 2257.84,1364.3 2259.23,1365.27 2260.62,1366.25 2262.02,1367.23 2263.41,1368.2 2264.8,1369.18 
  2266.19,1370.16 2267.59,1371.13 2268.98,1372.11 2270.37,1373.08 2271.76,1374.06 2273.16,1375.04 2274.55,1376.01 2275.94,1376.99 2277.33,1377.97 2278.73,1378.94 
  2280.12,1379.92 2281.51,1380.9 2282.9,1381.87 2284.29,1382.85 2285.69,1383.83 2287.08,1384.8 2288.47,1385.78 2289.86,1386.76 2291.26,1387.73 2292.65,1388.71 
  
  "/>
<polygon clip-path="url(#clip5200)" points="
1953.49,325.936 2280.76,325.936 2280.76,204.976 1953.49,204.976 
  " fill="#ffffff" fill-rule="evenodd" fill-opacity="1"/>
<polyline clip-path="url(#clip5200)" style="stroke:#000000; stroke-width:4; stroke-opacity:1; fill:none" points="
  1953.49,325.936 2280.76,325.936 2280.76,204.976 1953.49,204.976 1953.49,325.936 
  "/>
<polyline clip-path="url(#clip5200)" style="stroke:#009af9; stroke-width:4; stroke-opacity:1; fill:none" points="
  1977.49,265.456 2121.49,265.456 
  "/>
<g clip-path="url(#clip5200)">
<text style="fill:#000000; fill-opacity:1; font-family:Symbol; font-size:52px; text-anchor:start;" transform="rotate(0, 2145.49, 279.107)" x="2145.49" y="279.107">λ</text>
</g>
<g clip-path="url(#clip5200)">
<text style="fill:#000000; fill-opacity:1; font-family:Arial,Helvetica Neue,Helvetica,sans-serif; font-size:48px; text-anchor:start;" transform="rotate(0, 2173.94, 279.107)" x="2173.94" y="279.107"> (t)</text>
</g>
</svg>
