<?xml version="1.0" encoding="utf-8"?>
<svg xmlns="http://www.w3.org/2000/svg" xmlns:xlink="http://www.w3.org/1999/xlink" width="800" height="400" viewBox="0 0 3200 1600">
<defs>
  <clipPath id="clip5800">
    <rect x="0" y="0" width="3200" height="1600"/>
  </clipPath>
</defs>
<polygon clip-path="url(#clip5800)" points="
0,1600 3200,1600 3200,0 0,0 
  " fill="#ffffff" fill-rule="evenodd" fill-opacity="1"/>
<defs>
  <clipPath id="clip5801">
    <rect x="640" y="0" width="2241" height="1600"/>
  </clipPath>
</defs>
<polygon clip-path="url(#clip5800)" points="
552.61,1275.5 2853.54,1275.5 2853.54,188.976 552.61,188.976 
  " fill="#ffffff" fill-rule="evenodd" fill-opacity="1"/>
<defs>
  <clipPath id="clip5802">
    <rect x="552" y="188" width="2302" height="1088"/>
  </clipPath>
</defs>
<polyline clip-path="url(#clip5802)" style="stroke:#000000; stroke-width:2; stroke-opacity:0.1; fill:none" points="
  614.712,1275.5 614.712,188.976 
  "/>
<polyline clip-path="url(#clip5802)" style="stroke:#000000; stroke-width:2; stroke-opacity:0.1; fill:none" points="
  976.997,1275.5 976.997,188.976 
  "/>
<polyline clip-path="url(#clip5802)" style="stroke:#000000; stroke-width:2; stroke-opacity:0.1; fill:none" points="
  1339.28,1275.5 1339.28,188.976 
  "/>
<polyline clip-path="url(#clip5802)" style="stroke:#000000; stroke-width:2; stroke-opacity:0.1; fill:none" points="
  1701.57,1275.5 1701.57,188.976 
  "/>
<polyline clip-path="url(#clip5802)" style="stroke:#000000; stroke-width:2; stroke-opacity:0.1; fill:none" points="
  2063.85,1275.5 2063.85,188.976 
  "/>
<polyline clip-path="url(#clip5802)" style="stroke:#000000; stroke-width:2; stroke-opacity:0.1; fill:none" points="
  2426.14,1275.5 2426.14,188.976 
  "/>
<polyline clip-path="url(#clip5802)" style="stroke:#000000; stroke-width:2; stroke-opacity:0.1; fill:none" points="
  2788.42,1275.5 2788.42,188.976 
  "/>
<polyline clip-path="url(#clip5802)" style="stroke:#000000; stroke-width:2; stroke-opacity:0.1; fill:none" points="
  552.61,1192.78 2853.54,1192.78 
  "/>
<polyline clip-path="url(#clip5802)" style="stroke:#000000; stroke-width:2; stroke-opacity:0.1; fill:none" points="
  552.61,953.871 2853.54,953.871 
  "/>
<polyline clip-path="url(#clip5802)" style="stroke:#000000; stroke-width:2; stroke-opacity:0.1; fill:none" points="
  552.61,714.961 2853.54,714.961 
  "/>
<polyline clip-path="url(#clip5802)" style="stroke:#000000; stroke-width:2; stroke-opacity:0.1; fill:none" points="
  552.61,476.051 2853.54,476.051 
  "/>
<polyline clip-path="url(#clip5802)" style="stroke:#000000; stroke-width:2; stroke-opacity:0.1; fill:none" points="
  552.61,237.141 2853.54,237.141 
  "/>
<polyline clip-path="url(#clip5800)" style="stroke:#000000; stroke-width:4; stroke-opacity:1; fill:none" points="
  552.61,1275.5 2853.54,1275.5 
  "/>
<polyline clip-path="url(#clip5800)" style="stroke:#000000; stroke-width:4; stroke-opacity:1; fill:none" points="
  552.61,1275.5 552.61,188.976 
  "/>
<polyline clip-path="url(#clip5800)" style="stroke:#000000; stroke-width:4; stroke-opacity:1; fill:none" points="
  614.712,1275.5 614.712,1259.21 
  "/>
<polyline clip-path="url(#clip5800)" style="stroke:#000000; stroke-width:4; stroke-opacity:1; fill:none" points="
  976.997,1275.5 976.997,1259.21 
  "/>
<polyline clip-path="url(#clip5800)" style="stroke:#000000; stroke-width:4; stroke-opacity:1; fill:none" points="
  1339.28,1275.5 1339.28,1259.21 
  "/>
<polyline clip-path="url(#clip5800)" style="stroke:#000000; stroke-width:4; stroke-opacity:1; fill:none" points="
  1701.57,1275.5 1701.57,1259.21 
  "/>
<polyline clip-path="url(#clip5800)" style="stroke:#000000; stroke-width:4; stroke-opacity:1; fill:none" points="
  2063.85,1275.5 2063.85,1259.21 
  "/>
<polyline clip-path="url(#clip5800)" style="stroke:#000000; stroke-width:4; stroke-opacity:1; fill:none" points="
  2426.14,1275.5 2426.14,1259.21 
  "/>
<polyline clip-path="url(#clip5800)" style="stroke:#000000; stroke-width:4; stroke-opacity:1; fill:none" points="
  2788.42,1275.5 2788.42,1259.21 
  "/>
<polyline clip-path="url(#clip5800)" style="stroke:#000000; stroke-width:4; stroke-opacity:1; fill:none" points="
  552.61,1192.78 587.124,1192.78 
  "/>
<polyline clip-path="url(#clip5800)" style="stroke:#000000; stroke-width:4; stroke-opacity:1; fill:none" points="
  552.61,953.871 587.124,953.871 
  "/>
<polyline clip-path="url(#clip5800)" style="stroke:#000000; stroke-width:4; stroke-opacity:1; fill:none" points="
  552.61,714.961 587.124,714.961 
  "/>
<polyline clip-path="url(#clip5800)" style="stroke:#000000; stroke-width:4; stroke-opacity:1; fill:none" points="
  552.61,476.051 587.124,476.051 
  "/>
<polyline clip-path="url(#clip5800)" style="stroke:#000000; stroke-width:4; stroke-opacity:1; fill:none" points="
  552.61,237.141 587.124,237.141 
  "/>
<g clip-path="url(#clip5800)">
<text style="fill:#000000; fill-opacity:1; font-family:Arial,Helvetica Neue,Helvetica,sans-serif; font-size:71px; text-anchor:middle;" transform="rotate(0, 614.712, 1353.9)" x="614.712" y="1353.9">0</text>
</g>
<g clip-path="url(#clip5800)">
<text style="fill:#000000; fill-opacity:1; font-family:Arial,Helvetica Neue,Helvetica,sans-serif; font-size:71px; text-anchor:middle;" transform="rotate(0, 976.997, 1353.9)" x="976.997" y="1353.9">4</text>
</g>
<g clip-path="url(#clip5800)">
<text style="fill:#000000; fill-opacity:1; font-family:Arial,Helvetica Neue,Helvetica,sans-serif; font-size:71px; text-anchor:middle;" transform="rotate(0, 1339.28, 1353.9)" x="1339.28" y="1353.9">8</text>
</g>
<g clip-path="url(#clip5800)">
<text style="fill:#000000; fill-opacity:1; font-family:Arial,Helvetica Neue,Helvetica,sans-serif; font-size:71px; text-anchor:middle;" transform="rotate(0, 1701.57, 1353.9)" x="1701.57" y="1353.9">12</text>
</g>
<g clip-path="url(#clip5800)">
<text style="fill:#000000; fill-opacity:1; font-family:Arial,Helvetica Neue,Helvetica,sans-serif; font-size:71px; text-anchor:middle;" transform="rotate(0, 2063.85, 1353.9)" x="2063.85" y="1353.9">16</text>
</g>
<g clip-path="url(#clip5800)">
<text style="fill:#000000; fill-opacity:1; font-family:Arial,Helvetica Neue,Helvetica,sans-serif; font-size:71px; text-anchor:middle;" transform="rotate(0, 2426.14, 1353.9)" x="2426.14" y="1353.9">20</text>
</g>
<g clip-path="url(#clip5800)">
<text style="fill:#000000; fill-opacity:1; font-family:Arial,Helvetica Neue,Helvetica,sans-serif; font-size:71px; text-anchor:middle;" transform="rotate(0, 2788.42, 1353.9)" x="2788.42" y="1353.9">24</text>
</g>
<g clip-path="url(#clip5800)">
<text style="fill:#000000; fill-opacity:1; font-family:Arial,Helvetica Neue,Helvetica,sans-serif; font-size:71px; text-anchor:start;" transform="rotate(0, 357.139, 1228.37)" x="357.139" y="1228.37">10</text>
</g>
<g clip-path="url(#clip5800)">
<text style="fill:#000000; fill-opacity:1; font-family:Arial,Helvetica Neue,Helvetica,sans-serif; font-size:58px; text-anchor:start;" transform="rotate(0, 437.426, 1187.26)" x="437.426" y="1187.26">-</text>
</g>
<g clip-path="url(#clip5800)">
<text style="fill:#000000; fill-opacity:1; font-family:Arial,Helvetica Neue,Helvetica,sans-serif; font-size:58px; text-anchor:start;" transform="rotate(0, 471.685, 1187.26)" x="471.685" y="1187.26">4 </text>
</g>
<g clip-path="url(#clip5800)">
<text style="fill:#000000; fill-opacity:1; font-family:Arial,Helvetica Neue,Helvetica,sans-serif; font-size:71px; text-anchor:start;" transform="rotate(0, 357.139, 989.462)" x="357.139" y="989.462">10</text>
</g>
<g clip-path="url(#clip5800)">
<text style="fill:#000000; fill-opacity:1; font-family:Arial,Helvetica Neue,Helvetica,sans-serif; font-size:58px; text-anchor:start;" transform="rotate(0, 437.426, 948.347)" x="437.426" y="948.347">-</text>
</g>
<g clip-path="url(#clip5800)">
<text style="fill:#000000; fill-opacity:1; font-family:Arial,Helvetica Neue,Helvetica,sans-serif; font-size:58px; text-anchor:start;" transform="rotate(0, 471.685, 948.347)" x="471.685" y="948.347">2 </text>
</g>
<g clip-path="url(#clip5800)">
<text style="fill:#000000; fill-opacity:1; font-family:Arial,Helvetica Neue,Helvetica,sans-serif; font-size:71px; text-anchor:start;" transform="rotate(0, 391.398, 750.552)" x="391.398" y="750.552">10</text>
</g>
<g clip-path="url(#clip5800)">
<text style="fill:#000000; fill-opacity:1; font-family:Arial,Helvetica Neue,Helvetica,sans-serif; font-size:58px; text-anchor:start;" transform="rotate(0, 471.685, 709.437)" x="471.685" y="709.437">0 </text>
</g>
<g clip-path="url(#clip5800)">
<text style="fill:#000000; fill-opacity:1; font-family:Arial,Helvetica Neue,Helvetica,sans-serif; font-size:71px; text-anchor:start;" transform="rotate(0, 391.398, 511.642)" x="391.398" y="511.642">10</text>
</g>
<g clip-path="url(#clip5800)">
<text style="fill:#000000; fill-opacity:1; font-family:Arial,Helvetica Neue,Helvetica,sans-serif; font-size:58px; text-anchor:start;" transform="rotate(0, 471.685, 470.526)" x="471.685" y="470.526">2 </text>
</g>
<g clip-path="url(#clip5800)">
<text style="fill:#000000; fill-opacity:1; font-family:Arial,Helvetica Neue,Helvetica,sans-serif; font-size:71px; text-anchor:start;" transform="rotate(0, 391.398, 272.732)" x="391.398" y="272.732">10</text>
</g>
<g clip-path="url(#clip5800)">
<text style="fill:#000000; fill-opacity:1; font-family:Arial,Helvetica Neue,Helvetica,sans-serif; font-size:58px; text-anchor:start;" transform="rotate(0, 471.685, 231.616)" x="471.685" y="231.616">4 </text>
</g>
<g clip-path="url(#clip5800)">
<text style="fill:#000000; fill-opacity:1; font-family:Arial,Helvetica Neue,Helvetica,sans-serif; font-size:95px; text-anchor:middle;" transform="rotate(0, 1703.08, 1469.75)" x="1703.08" y="1469.75">Time (hours)</text>
</g>
<g clip-path="url(#clip5800)">
<text style="fill:#000000; fill-opacity:1; font-family:Arial,Helvetica Neue,Helvetica,sans-serif; font-size:95px; text-anchor:middle;" transform="rotate(-90, 167.592, 732.24)" x="167.592" y="732.24">Expected Waiting Time:</text>
</g>
<g clip-path="url(#clip5800)">
<text style="fill:#000000; fill-opacity:1; font-family:Arial,Helvetica Neue,Helvetica,sans-serif; font-size:95px; text-anchor:middle;" transform="rotate(-90, 271.272, 732.24)" x="271.272" y="732.24"> Relative Error: |(PSA-NS)/NS|</text>
</g>
<polyline clip-path="url(#clip5802)" style="stroke:#009af9; stroke-width:4; stroke-opacity:1; fill:none" points="
  617.731,1005.86 619.24,973.227 620.75,955.416 622.259,943.621 623.769,935.081 625.279,928.568 626.788,923.429 628.298,919.275 629.807,915.854 631.317,912.997 
  632.826,910.582 634.336,908.522 635.845,906.748 637.355,905.209 638.864,903.865 640.374,902.684 641.883,901.639 643.393,900.709 644.902,899.877 646.412,899.128 
  647.921,898.451 649.431,897.834 650.94,897.269 652.45,896.749 653.959,896.268 655.469,895.82 656.978,895.401 658.488,895.006 659.998,894.633 661.507,894.278 
  663.017,893.94 664.526,893.614 666.036,893.301 667.545,892.998 669.055,892.704 670.564,892.417 672.074,892.136 673.583,891.861 675.093,891.591 676.602,891.324 
  678.112,891.06 679.621,890.8 681.131,890.541 682.64,890.284 684.15,890.029 685.659,889.775 687.169,889.521 688.678,889.269 690.188,889.016 691.697,888.764 
  693.207,888.511 694.716,888.258 696.226,888.005 697.736,887.752 699.245,887.498 700.755,887.243 702.264,886.988 703.774,886.732 705.283,886.475 706.793,886.217 
  708.302,775.527 709.812,779.277 711.321,783.043 712.831,786.801 714.34,790.531 715.85,794.209 717.359,797.815 718.869,801.328 720.378,804.728 721.888,807.998 
  723.397,811.122 724.907,814.085 726.416,816.876 727.926,819.486 729.435,821.908 730.945,824.139 732.455,826.177 733.964,828.022 735.474,829.678 736.983,831.15 
  738.493,832.445 740.002,833.569 741.512,834.533 743.021,835.344 744.531,836.014 746.04,836.552 747.55,836.969 749.059,837.273 750.569,837.474 752.078,837.582 
  753.588,837.605 755.097,837.55 756.607,837.424 758.116,837.235 759.626,836.988 761.135,836.688 762.645,836.342 764.154,835.952 765.664,835.523 767.174,835.058 
  768.683,834.561 770.193,834.033 771.702,833.478 773.212,832.898 774.721,832.294 776.231,831.668 777.74,831.021 779.25,830.354 780.759,829.669 782.269,828.966 
  783.778,828.245 785.288,827.509 786.797,826.756 788.307,825.987 789.816,825.203 791.326,824.404 792.835,823.59 794.345,822.761 795.854,821.917 797.364,821.058 
  798.873,838.002 800.383,840.47 801.893,842.739 803.402,844.81 804.912,846.688 806.421,848.378 807.931,849.887 809.44,851.224 810.95,852.398 812.459,853.42 
  813.969,854.3 815.478,855.048 816.988,855.675 818.497,856.191 820.007,856.606 821.516,856.929 823.026,857.169 824.535,857.334 826.045,857.432 827.554,857.469 
  829.064,857.452 830.573,857.386 832.083,857.277 833.592,857.129 835.102,856.947 836.611,856.734 838.121,856.493 839.631,856.228 841.14,855.941 842.65,855.635 
  844.159,855.31 845.669,854.97 847.178,854.616 848.688,854.249 850.197,853.871 851.707,853.482 853.216,853.083 854.726,852.676 856.235,852.26 857.745,851.838 
  859.254,851.408 860.764,850.973 862.273,850.531 863.783,850.084 865.292,849.632 866.802,849.175 868.311,848.713 869.821,848.247 871.33,847.776 872.84,847.302 
  874.35,846.824 875.859,846.342 877.369,845.856 878.878,845.367 880.388,844.874 881.897,844.378 883.407,843.879 884.916,843.376 886.426,842.87 887.935,842.361 
  889.445,880.557 890.954,896.244 892.464,915.134 893.973,940.024 895.483,979.821 896.992,1244.75 898.502,986.128 900.011,953.652 901.521,935.883 903.03,924.093 
  904.54,915.539 906.049,909.002 907.559,903.829 909.069,899.634 910.578,896.167 912.088,893.258 913.597,890.787 915.107,888.667 916.616,886.83 918.126,885.225 
  919.635,883.813 921.145,882.56 922.654,881.442 924.164,880.438 925.673,879.529 927.183,878.701 928.692,877.944 930.202,877.245 931.711,876.598 933.221,875.994 
  934.73,875.427 936.24,874.893 937.749,874.387 939.259,873.904 940.768,873.442 942.278,872.997 943.788,872.568 945.297,872.151 946.807,871.745 948.316,871.349 
  949.826,870.961 951.335,870.579 952.845,870.203 954.354,869.832 955.864,869.465 957.373,869.101 958.883,868.74 960.392,868.381 961.902,868.024 963.411,867.667 
  964.921,867.312 966.43,866.957 967.94,866.602 969.449,866.247 970.959,865.892 972.468,865.537 973.978,865.181 975.487,864.824 976.997,864.466 978.507,864.108 
  980.016,776.669 981.526,783.597 983.035,791.11 984.545,799.263 986.054,808.137 987.564,817.853 989.073,828.587 990.583,840.62 992.092,854.41 993.602,870.777 
  995.111,891.373 996.621,920.381 998.13,975.638 999.64,997.519 1001.15,937.335 1002.66,913.167 1004.17,898.734 1005.68,888.911 1007.19,881.77 1008.7,876.374 
  1010.21,872.194 1011.72,868.902 1013.23,866.283 1014.74,864.186 1016.24,862.501 1017.75,861.148 1019.26,860.064 1020.77,859.2 1022.28,858.52 1023.79,857.991 
  1025.3,857.591 1026.81,857.297 1028.32,857.095 1029.83,856.968 1031.34,856.908 1032.85,856.902 1034.36,856.944 1035.87,857.027 1037.38,857.144 1038.89,857.291 
  1040.4,857.463 1041.91,857.657 1043.42,857.87 1044.93,858.099 1046.43,858.341 1047.94,858.596 1049.45,858.86 1050.96,859.133 1052.47,859.414 1053.98,859.701 
  1055.49,859.993 1057,860.29 1058.51,860.59 1060.02,860.894 1061.53,861.201 1063.04,861.51 1064.55,861.82 1066.06,862.132 1067.57,862.446 1069.08,862.76 
  1070.59,794.989 1072.1,787.271 1073.61,782.081 1075.12,778.578 1076.63,776.27 1078.13,774.84 1079.64,774.071 1081.15,773.81 1082.66,773.94 1084.17,774.376 
  1085.68,775.049 1087.19,775.909 1088.7,776.914 1090.21,778.03 1091.72,779.232 1093.23,780.499 1094.74,781.813 1096.25,783.161 1097.76,784.532 1099.27,785.915 
  1100.78,787.305 1102.29,788.695 1103.8,790.08 1105.31,791.456 1106.82,792.82 1108.33,794.17 1109.83,795.504 1111.34,796.82 1112.85,798.118 1114.36,799.395 
  1115.87,800.653 1117.38,801.89 1118.89,803.107 1120.4,804.303 1121.91,805.478 1123.42,806.632 1124.93,807.766 1126.44,808.88 1127.95,809.974 1129.46,811.049 
  1130.97,812.105 1132.48,813.142 1133.99,814.162 1135.5,815.163 1137.01,816.147 1138.52,817.115 1140.03,818.065 1141.53,819 1143.04,819.92 1144.55,820.824 
  1146.06,821.713 1147.57,822.588 1149.08,823.45 1150.59,824.297 1152.1,825.132 1153.61,825.954 1155.12,826.763 1156.63,827.56 1158.14,828.345 1159.65,829.119 
  1161.16,715.287 1162.67,715.939 1164.18,717.647 1165.69,721.67 1167.2,730.299 1168.71,747.99 1170.22,788.628 1171.73,844.196 1173.23,762.633 1174.74,735.649 
  1176.25,721.432 1177.76,713.272 1179.27,708.598 1180.78,706.098 1182.29,705.009 1183.8,704.852 1185.31,705.311 1186.82,706.177 1188.33,707.306 1189.84,708.602 
  1191.35,709.998 1192.86,711.45 1194.37,712.93 1195.88,714.422 1197.39,715.915 1198.9,717.408 1200.41,718.9 1201.92,720.394 1203.43,721.896 1204.93,723.412 
  1206.44,724.946 1207.95,726.507 1209.46,728.098 1210.97,729.725 1212.48,731.391 1213.99,733.098 1215.5,734.849 1217.01,736.644 1218.52,738.48 1220.03,740.358 
  1221.54,742.273 1223.05,744.222 1224.56,746.201 1226.07,748.205 1227.58,750.228 1229.09,752.265 1230.6,754.311 1232.11,756.361 1233.62,758.408 1235.13,760.448 
  1236.63,762.476 1238.14,764.487 1239.65,766.479 1241.16,768.447 1242.67,770.389 1244.18,772.301 1245.69,774.182 1247.2,776.03 1248.71,777.844 1250.22,779.623 
  1251.73,714.962 1253.24,714.989 1254.75,715.379 1256.26,718.357 1257.77,732.387 1259.28,805.216 1260.79,732.298 1262.3,683.784 1263.81,659.001 1265.32,644.308 
  1266.83,635.399 1268.33,630.162 1269.84,627.369 1271.35,626.242 1272.86,626.267 1274.37,627.095 1275.88,628.485 1277.39,630.264 1278.9,632.314 1280.41,634.547 
  1281.92,636.903 1283.43,639.336 1284.94,641.814 1286.45,644.315 1287.96,646.823 1289.47,649.325 1290.98,651.813 1292.49,654.282 1294,656.727 1295.51,659.146 
  1297.02,661.537 1298.53,663.898 1300.03,666.229 1301.54,668.53 1303.05,670.8 1304.56,673.039 1306.07,675.247 1307.58,677.425 1309.09,679.571 1310.6,681.686 
  1312.11,683.769 1313.62,685.821 1315.13,687.841 1316.64,689.828 1318.15,691.783 1319.66,693.704 1321.17,695.591 1322.68,697.443 1324.19,699.259 1325.7,701.039 
  1327.21,702.781 1328.72,704.485 1330.22,706.15 1331.73,707.774 1333.24,709.358 1334.75,710.9 1336.26,712.4 1337.77,713.857 1339.28,715.271 1340.79,716.642 
  1342.3,430.061 1343.81,303.882 1345.32,238.765 1346.83,219.727 1348.34,230.517 1349.85,255.935 1351.36,285.164 1352.87,313.193 1354.38,338.57 1355.89,361.231 
  1357.4,381.515 1358.91,399.817 1360.42,416.49 1361.92,431.823 1363.43,446.046 1364.94,459.339 1366.45,471.843 1367.96,483.668 1369.47,494.902 1370.98,505.614 
  1372.49,515.86 1374,525.684 1375.51,535.122 1377.02,544.204 1378.53,552.954 1380.04,561.392 1381.55,569.534 1383.06,577.393 1384.57,584.978 1386.08,592.299 
  1387.59,599.362 1389.1,606.169 1390.61,612.724 1392.12,619.03 1393.62,625.089 1395.13,630.903 1396.64,636.477 1398.15,641.817 1399.66,646.932 1401.17,651.835 
  1402.68,656.545 1404.19,661.082 1405.7,665.473 1407.21,669.747 1408.72,673.934 1410.23,678.064 1411.74,682.165 1413.25,686.26 1414.76,690.366 1416.27,694.491 
  1417.78,698.637 1419.29,702.796 1420.8,706.957 1422.31,711.101 1423.82,715.209 1425.32,719.26 1426.83,723.234 1428.34,727.114 1429.85,730.886 1431.36,734.54 
  1432.87,771.536 1434.38,732.46 1435.89,713.372 1437.4,703.005 1438.91,697.58 1440.42,695.139 1441.93,694.511 1443.44,694.968 1444.95,696.062 1446.46,697.519 
  1447.97,699.175 1449.48,700.934 1450.99,702.739 1452.5,704.561 1454.01,706.383 1455.52,708.199 1457.02,710.008 1458.53,711.812 1460.04,713.615 1461.55,715.422 
  1463.06,717.238 1464.57,719.069 1466.08,720.92 1467.59,722.795 1469.1,724.7 1470.61,726.635 1472.12,728.605 1473.63,730.609 1475.14,732.649 1476.65,734.723 
  1478.16,736.829 1479.67,738.965 1481.18,741.128 1482.69,743.311 1484.2,745.512 1485.71,747.724 1487.22,749.942 1488.72,752.161 1490.23,754.375 1491.74,756.577 
  1493.25,758.764 1494.76,760.93 1496.27,763.071 1497.78,765.183 1499.29,767.262 1500.8,769.306 1502.31,771.312 1503.82,773.279 1505.33,775.206 1506.84,777.09 
  1508.35,778.933 1509.86,780.733 1511.37,782.492 1512.88,784.208 1514.39,785.884 1515.9,787.519 1517.41,789.115 1518.92,790.673 1520.42,792.193 1521.93,793.677 
  1523.44,871.589 1524.95,875.042 1526.46,878.283 1527.97,881.309 1529.48,884.12 1530.99,886.717 1532.5,889.103 1534.01,891.285 1535.52,893.27 1537.03,895.066 
  1538.54,896.683 1540.05,898.132 1541.56,899.423 1543.07,900.569 1544.58,901.58 1546.09,902.467 1547.6,903.242 1549.11,903.914 1550.62,904.494 1552.12,904.99 
  1553.63,905.41 1555.14,905.764 1556.65,906.057 1558.16,906.297 1559.67,906.489 1561.18,906.639 1562.69,906.752 1564.2,906.831 1565.71,906.881 1567.22,906.905 
  1568.73,906.906 1570.24,906.887 1571.75,906.85 1573.26,906.797 1574.77,906.731 1576.28,906.653 1577.79,906.563 1579.3,906.465 1580.81,906.358 1582.32,906.243 
  1583.82,906.123 1585.33,905.996 1586.84,905.865 1588.35,905.729 1589.86,905.589 1591.37,905.445 1592.88,905.299 1594.39,905.15 1595.9,904.998 1597.41,904.845 
  1598.92,904.689 1600.43,904.531 1601.94,904.372 1603.45,904.212 1604.96,904.05 1606.47,903.888 1607.98,903.724 1609.49,903.559 1611,903.393 1612.51,903.227 
  1614.01,845.414 1615.52,846.5 1617.03,847.44 1618.54,848.243 1620.05,848.92 1621.56,849.48 1623.07,849.934 1624.58,850.29 1626.09,850.559 1627.6,850.749 
  1629.11,850.867 1630.62,850.922 1632.13,850.919 1633.64,850.865 1635.15,850.766 1636.66,850.626 1638.17,850.45 1639.68,850.243 1641.19,850.007 1642.7,849.747 
  1644.21,849.464 1645.71,849.162 1647.22,848.843 1648.73,848.509 1650.24,848.162 1651.75,847.803 1653.26,847.433 1654.77,847.055 1656.28,846.669 1657.79,846.276 
  1659.3,845.877 1660.81,845.473 1662.32,845.065 1663.83,844.652 1665.34,844.236 1666.85,843.818 1668.36,843.397 1669.87,842.974 1671.38,842.55 1672.89,842.125 
  1674.4,841.698 1675.91,841.271 1677.41,840.844 1678.92,840.417 1680.43,839.989 1681.94,839.562 1683.45,839.136 1684.96,838.71 1686.47,838.285 1687.98,837.861 
  1689.49,837.438 1691,837.016 1692.51,836.596 1694.02,836.177 1695.53,835.76 1697.04,835.345 1698.55,834.932 1700.06,834.521 1701.57,834.112 1703.08,833.705 
  1704.59,832.859 1706.1,830.932 1707.61,829.232 1709.11,827.71 1710.62,826.332 1712.13,825.072 1713.64,823.913 1715.15,822.839 1716.66,821.837 1718.17,820.898 
  1719.68,820.014 1721.19,819.178 1722.7,818.383 1724.21,817.625 1725.72,816.9 1727.23,816.205 1728.74,815.536 1730.25,814.89 1731.76,814.267 1733.27,813.663 
  1734.78,813.077 1736.29,812.508 1737.8,811.954 1739.31,811.416 1740.81,810.891 1742.32,810.379 1743.83,809.879 1745.34,809.391 1746.85,808.915 1748.36,808.45 
  1749.87,807.995 1751.38,807.55 1752.89,807.116 1754.4,806.691 1755.91,806.276 1757.42,805.87 1758.93,805.474 1760.44,805.086 1761.95,804.708 1763.46,804.338 
  1764.97,803.976 1766.48,803.623 1767.99,803.279 1769.5,802.942 1771.01,802.613 1772.51,802.293 1774.02,801.98 1775.53,801.674 1777.04,801.376 1778.55,801.085 
  1780.06,800.802 1781.57,800.525 1783.08,800.255 1784.59,799.991 1786.1,799.733 1787.61,799.482 1789.12,799.237 1790.63,798.997 1792.14,798.763 1793.65,798.535 
  1795.16,709.216 1796.67,722.237 1798.18,734.128 1799.69,745.119 1801.2,755.382 1802.71,765.049 1804.21,774.216 1805.72,782.957 1807.23,791.327 1808.74,799.368 
  1810.25,807.111 1811.76,814.577 1813.27,821.781 1814.78,828.733 1816.29,835.438 1817.8,841.899 1819.31,848.112 1820.82,854.077 1822.33,859.787 1823.84,865.239 
  1825.35,870.426 1826.86,875.344 1828.37,879.989 1829.88,884.358 1831.39,888.449 1832.9,892.265 1834.41,895.808 1835.91,899.083 1837.42,902.097 1838.93,904.86 
  1840.44,907.382 1841.95,909.675 1843.46,911.754 1844.97,913.632 1846.48,915.323 1847.99,916.842 1849.5,918.204 1851.01,919.422 1852.52,920.51 1854.03,921.481 
  1855.54,922.346 1857.05,923.117 1858.56,923.804 1860.07,924.416 1861.58,924.962 1863.09,925.449 1864.6,925.885 1866.11,926.275 1867.61,926.625 1869.12,926.939 
  1870.63,927.223 1872.14,927.48 1873.65,927.713 1875.16,927.926 1876.67,928.12 1878.18,928.299 1879.69,928.464 1881.2,928.617 1882.71,928.759 1884.22,928.892 
  1885.73,753.875 1887.24,764.771 1888.75,775.348 1890.26,785.735 1891.77,796.051 1893.28,806.416 1894.79,816.952 1896.3,827.805 1897.8,839.149 1899.31,851.221 
  1900.82,864.357 1902.33,879.085 1903.84,896.326 1905.35,917.942 1906.86,948.792 1908.37,1012.41 1909.88,1007.43 1911.39,956.505 1912.9,933.832 1914.41,919.78 
  1915.92,909.935 1917.43,902.567 1918.94,896.82 1920.45,892.206 1921.96,888.421 1923.47,885.265 1924.98,882.596 1926.49,880.315 1928,878.345 1929.5,876.63 
  1931.01,875.123 1932.52,873.791 1934.03,872.604 1935.54,871.539 1937.05,870.579 1938.56,869.707 1940.07,868.91 1941.58,868.177 1943.09,867.5 1944.6,866.87 
  1946.11,866.282 1947.62,865.728 1949.13,865.206 1950.64,864.709 1952.15,864.236 1953.66,863.783 1955.17,863.347 1956.68,862.926 1958.19,862.518 1959.7,862.122 
  1961.2,861.736 1962.71,861.358 1964.22,860.988 1965.73,860.625 1967.24,860.267 1968.75,859.915 1970.26,859.567 1971.77,859.223 1973.28,858.883 1974.79,858.546 
  1976.3,827.679 1977.81,828.924 1979.32,830.014 1980.83,830.955 1982.34,831.755 1983.85,832.423 1985.36,832.97 1986.87,833.403 1988.38,833.734 1989.89,833.971 
  1991.4,834.124 1992.9,834.2 1994.41,834.207 1995.92,834.153 1997.43,834.045 1998.94,833.887 2000.45,833.686 2001.96,833.447 2003.47,833.175 2004.98,832.872 
  2006.49,832.544 2008,832.193 2009.51,831.822 2011.02,831.434 2012.53,831.031 2014.04,830.616 2015.55,830.189 2017.06,829.753 2018.57,829.309 2020.08,828.859 
  2021.59,828.403 2023.1,827.943 2024.6,827.479 2026.11,827.013 2027.62,826.545 2029.13,826.076 2030.64,825.607 2032.15,825.137 2033.66,824.668 2035.17,824.199 
  2036.68,823.732 2038.19,823.267 2039.7,822.804 2041.21,822.343 2042.72,821.885 2044.23,821.429 2045.74,820.977 2047.25,820.528 2048.76,820.083 2050.27,819.641 
  2051.78,819.203 2053.29,818.769 2054.8,818.339 2056.3,817.914 2057.81,817.493 2059.32,817.076 2060.83,816.664 2062.34,816.257 2063.85,815.854 2065.36,815.456 
  2066.87,795.384 2068.38,818.343 2069.89,850.268 2071.4,915.625 2072.91,907.765 2074.42,857.84 2075.93,835.27 2077.44,821.065 2078.95,810.91 2080.46,803.117 
  2081.97,796.854 2083.48,791.652 2084.99,787.225 2086.5,783.383 2088,779.999 2089.51,776.982 2091.02,774.264 2092.53,771.797 2094.04,769.542 2095.55,767.471 
  2097.06,765.561 2098.57,763.794 2100.08,762.155 2101.59,760.631 2103.1,759.213 2104.61,757.892 2106.12,756.661 2107.63,755.513 2109.14,754.443 2110.65,753.445 
  2112.16,752.513 2113.67,751.645 2115.18,750.834 2116.69,750.077 2118.2,749.37 2119.7,748.709 2121.21,748.089 2122.72,747.507 2124.23,746.959 2125.74,746.44 
  2127.25,745.948 2128.76,745.478 2130.27,745.027 2131.78,744.59 2133.29,744.166 2134.8,743.75 2136.31,743.339 2137.82,742.931 2139.33,742.524 2140.84,742.114 
  2142.35,741.701 2143.86,741.282 2145.37,740.857 2146.88,740.424 2148.39,739.983 2149.9,739.533 2151.4,739.076 2152.91,738.61 2154.42,738.136 2155.93,737.655 
  2157.44,768.253 2158.95,786.001 2160.46,806.309 2161.97,831.974 2163.48,871.407 2164.99,1043.93 2166.5,883.431 2168.01,849.824 2169.52,831.603 2171.03,819.437 
  2172.54,810.483 2174.05,803.497 2175.56,797.825 2177.07,793.087 2178.58,789.039 2180.09,785.521 2181.59,782.419 2183.1,779.652 2184.61,777.161 2186.12,774.9 
  2187.63,772.835 2189.14,770.938 2190.65,769.187 2192.16,767.566 2193.67,766.061 2195.18,764.659 2196.69,763.351 2198.2,762.129 2199.71,760.985 2201.22,759.915 
  2202.73,758.911 2204.24,757.969 2205.75,757.085 2207.26,756.255 2208.77,755.474 2210.28,754.739 2211.79,754.047 2213.29,753.394 2214.8,752.777 2216.31,752.192 
  2217.82,751.636 2219.33,751.107 2220.84,750.601 2222.35,750.115 2223.86,749.647 2225.37,749.193 2226.88,748.751 2228.39,748.318 2229.9,747.892 2231.41,747.47 
  2232.92,747.051 2234.43,746.632 2235.94,746.212 2237.45,745.79 2238.96,745.363 2240.47,744.931 2241.98,744.493 2243.49,744.048 2244.99,743.596 2246.5,743.138 
  2248.01,767.559 2249.52,782.932 2251.03,799.504 2252.54,818.398 2254.05,841.794 2255.56,875.538 2257.07,953.915 2258.58,916.997 2260.09,873.875 2261.6,853 
  2263.11,839.658 2264.62,830.098 2266.13,822.788 2267.64,816.955 2269.15,812.155 2270.66,808.111 2272.17,804.641 2273.68,801.616 2275.19,798.945 2276.69,796.561 
  2278.2,794.413 2279.71,792.46 2281.22,790.672 2282.73,789.026 2284.24,787.5 2285.75,786.08 2287.26,784.752 2288.77,783.505 2290.28,782.331 2291.79,781.222 
  2293.3,780.173 2294.81,779.176 2296.32,778.229 2297.83,777.327 2299.34,776.466 2300.85,775.645 2302.36,774.859 2303.87,774.107 2305.38,773.387 2306.89,772.697 
  2308.39,772.035 2309.9,771.399 2311.41,770.789 2312.92,770.201 2314.43,769.636 2315.94,769.091 2317.45,768.565 2318.96,768.058 2320.47,767.567 2321.98,767.092 
  2323.49,766.631 2325,766.183 2326.51,765.748 2328.02,765.323 2329.53,764.907 2331.04,764.5 2332.55,764.1 2334.06,763.707 2335.57,763.319 2337.08,762.935 
  2338.59,703.256 2340.09,718.804 2341.6,733.109 2343.11,746.659 2344.62,759.828 2346.13,772.947 2347.64,786.35 2349.15,800.431 2350.66,815.731 2352.17,833.113 
  2353.68,854.208 2355.19,882.948 2356.7,934.937 2358.21,972.402 2359.72,905.168 2361.23,879.68 2362.74,864.455 2364.25,853.936 2365.76,846.099 2367.27,839.977 
  2368.78,835.035 2370.29,830.947 2371.79,827.499 2373.3,824.544 2374.81,821.977 2376.32,819.723 2377.83,817.721 2379.34,815.928 2380.85,814.308 2382.36,812.833 
  2383.87,811.481 2385.38,810.233 2386.89,809.074 2388.4,807.993 2389.91,806.978 2391.42,806.02 2392.93,805.114 2394.44,804.251 2395.95,803.428 2397.46,802.64 
  2398.97,801.883 2400.48,801.153 2401.99,800.448 2403.49,799.766 2405,799.105 2406.51,798.462 2408.02,797.837 2409.53,797.227 2411.04,796.632 2412.55,796.051 
  2414.06,795.483 2415.57,794.926 2417.08,794.381 2418.59,793.847 2420.1,793.322 2421.61,792.808 2423.12,792.302 2424.63,791.806 2426.14,791.318 2427.65,790.837 
  2429.16,889.21 2430.67,870.024 2432.18,857.658 2433.69,848.794 2435.19,842.038 2436.7,836.676 2438.21,832.293 2439.72,828.63 2441.23,825.513 2442.74,822.823 
  2444.25,820.47 2445.76,818.39 2447.27,816.533 2448.78,814.861 2450.29,813.343 2451.8,811.955 2453.31,810.677 2454.82,809.493 2456.33,808.389 2457.84,807.356 
  2459.35,806.383 2460.86,805.463 2462.37,804.59 2463.88,803.757 2465.38,802.961 2466.89,802.197 2468.4,801.462 2469.91,800.754 2471.42,800.068 2472.93,799.404 
  2474.44,798.76 2475.95,798.134 2477.46,797.524 2478.97,796.929 2480.48,796.349 2481.99,795.782 2483.5,795.228 2485.01,794.685 2486.52,794.154 2488.03,793.633 
  2489.54,793.122 2491.05,792.621 2492.56,792.129 2494.07,791.646 2495.58,791.172 2497.08,790.705 2498.59,790.246 2500.1,789.795 2501.61,789.35 2503.12,788.913 
  2504.63,788.482 2506.14,788.058 2507.65,787.64 2509.16,787.227 2510.67,786.82 2512.18,786.419 2513.69,786.022 2515.2,785.63 2516.71,785.243 2518.22,784.86 
  2519.73,955.549 2521.24,885.003 2522.75,859.388 2524.26,844.261 2525.77,833.861 2527.28,826.124 2528.78,820.075 2530.29,815.182 2531.8,811.119 2533.31,807.679 
  2534.82,804.718 2536.33,802.134 2537.84,799.852 2539.35,797.818 2540.86,795.987 2542.37,794.326 2543.88,792.81 2545.39,791.415 2546.9,790.126 2548.41,788.928 
  2549.92,787.809 2551.43,786.76 2552.94,785.772 2554.45,784.838 2555.96,783.953 2557.47,783.111 2558.98,782.309 2560.48,781.542 2561.99,780.807 2563.5,780.102 
  2565.01,779.423 2566.52,778.77 2568.03,778.139 2569.54,777.53 2571.05,776.94 2572.56,776.367 2574.07,775.812 2575.58,775.272 2577.09,774.746 2578.6,774.234 
  2580.11,773.734 2581.62,773.245 2583.13,772.766 2584.64,772.298 2586.15,771.837 2587.66,771.385 2589.17,770.94 2590.68,770.501 2592.18,770.068 2593.69,769.64 
  2595.2,769.216 2596.71,768.796 2598.22,768.379 2599.73,767.965 2601.24,767.552 2602.75,767.141 2604.26,766.731 2605.77,766.321 2607.28,765.911 2608.79,765.501 
  2610.3,826.151 2611.81,857.86 2613.32,919.577 2614.83,923.927 2616.34,870.921 2617.85,848.127 2619.36,834.129 2620.87,824.332 2622.38,816.967 2623.88,811.173 
  2625.39,806.465 2626.9,802.545 2628.41,799.219 2629.92,796.351 2631.43,793.847 2632.94,791.635 2634.45,789.663 2635.96,787.889 2637.47,786.282 2638.98,784.815 
  2640.49,783.469 2642,782.226 2643.51,781.073 2645.02,779.999 2646.53,778.994 2648.04,778.049 2649.55,777.159 2651.06,776.317 2652.57,775.518 2654.08,774.757 
  2655.58,774.032 2657.09,773.338 2658.6,772.673 2660.11,772.033 2661.62,771.417 2663.13,770.823 2664.64,770.248 2666.15,769.69 2667.66,769.148 2669.17,768.62 
  2670.68,768.105 2672.19,767.602 2673.7,767.109 2675.21,766.624 2676.72,766.148 2678.23,765.678 2679.74,765.214 2681.25,764.755 2682.76,764.3 2684.27,763.848 
  2685.78,763.398 2687.28,762.949 2688.79,762.501 2690.3,762.053 2691.81,761.605 2693.32,761.155 2694.83,760.704 2696.34,760.25 2697.85,759.795 2699.36,759.336 
  2700.87,806.931 2702.38,797.036 2703.89,790.112 2705.4,784.926 2706.91,780.863 2708.42,777.576 2709.93,774.851 2711.44,772.549 2712.95,770.572 2714.46,768.854 
  2715.97,767.342 2717.48,765.999 2718.98,764.794 2720.49,763.704 2722,762.711 2723.51,761.798 2725.02,760.953 2726.53,760.166 2728.04,759.427 2729.55,758.729 
  2731.06,758.064 2732.57,757.428 2734.08,756.815 2735.59,756.222 2737.1,755.644 2738.61,755.078 2740.12,754.521 2741.63,753.97 2743.14,753.424 2744.65,752.881 
  2746.16,752.339 2747.67,751.797 2749.18,751.252 2750.68,750.706 2752.19,750.156 2753.7,749.603 2755.21,749.045 2756.72,748.482 2758.23,747.915 2759.74,747.343 
  2761.25,746.766 2762.76,746.185 2764.27,745.598 2765.78,745.008 2767.29,744.414 2768.8,743.816 2770.31,743.215 2771.82,742.611 2773.33,742.005 2774.84,741.397 
  2776.35,740.787 2777.86,740.177 2779.37,739.567 2780.87,738.957 2782.38,738.347 2783.89,737.739 2785.4,737.132 2786.91,736.528 2788.42,735.926 
  "/>
</svg>
