<?xml version="1.0" encoding="utf-8"?>
<svg xmlns="http://www.w3.org/2000/svg" xmlns:xlink="http://www.w3.org/1999/xlink" width="800" height="400" viewBox="0 0 3200 1600">
<defs>
  <clipPath id="clip8100">
    <rect x="0" y="0" width="3200" height="1600"/>
  </clipPath>
</defs>
<polygon clip-path="url(#clip8100)" points="
0,1600 3200,1600 3200,0 0,0 
  " fill="#ffffff" fill-rule="evenodd" fill-opacity="1"/>
<defs>
  <clipPath id="clip8101">
    <rect x="640" y="0" width="2241" height="1600"/>
  </clipPath>
</defs>
<polygon clip-path="url(#clip8100)" points="
644.353,1275.5 2853.54,1275.5 2853.54,188.976 644.353,188.976 
  " fill="#ffffff" fill-rule="evenodd" fill-opacity="1"/>
<defs>
  <clipPath id="clip8102">
    <rect x="644" y="188" width="2210" height="1088"/>
  </clipPath>
</defs>
<polyline clip-path="url(#clip8102)" style="stroke:#000000; stroke-width:2; stroke-opacity:0.1; fill:none" points="
  705.429,1275.5 705.429,188.976 
  "/>
<polyline clip-path="url(#clip8102)" style="stroke:#000000; stroke-width:2; stroke-opacity:0.1; fill:none" points="
  1053.03,1275.5 1053.03,188.976 
  "/>
<polyline clip-path="url(#clip8102)" style="stroke:#000000; stroke-width:2; stroke-opacity:0.1; fill:none" points="
  1400.63,1275.5 1400.63,188.976 
  "/>
<polyline clip-path="url(#clip8102)" style="stroke:#000000; stroke-width:2; stroke-opacity:0.1; fill:none" points="
  1748.22,1275.5 1748.22,188.976 
  "/>
<polyline clip-path="url(#clip8102)" style="stroke:#000000; stroke-width:2; stroke-opacity:0.1; fill:none" points="
  2095.82,1275.5 2095.82,188.976 
  "/>
<polyline clip-path="url(#clip8102)" style="stroke:#000000; stroke-width:2; stroke-opacity:0.1; fill:none" points="
  2443.42,1275.5 2443.42,188.976 
  "/>
<polyline clip-path="url(#clip8102)" style="stroke:#000000; stroke-width:2; stroke-opacity:0.1; fill:none" points="
  2791.02,1275.5 2791.02,188.976 
  "/>
<polyline clip-path="url(#clip8102)" style="stroke:#000000; stroke-width:2; stroke-opacity:0.1; fill:none" points="
  644.353,1244.68 2853.54,1244.68 
  "/>
<polyline clip-path="url(#clip8102)" style="stroke:#000000; stroke-width:2; stroke-opacity:0.1; fill:none" points="
  644.353,1061.5 2853.54,1061.5 
  "/>
<polyline clip-path="url(#clip8102)" style="stroke:#000000; stroke-width:2; stroke-opacity:0.1; fill:none" points="
  644.353,878.327 2853.54,878.327 
  "/>
<polyline clip-path="url(#clip8102)" style="stroke:#000000; stroke-width:2; stroke-opacity:0.1; fill:none" points="
  644.353,695.15 2853.54,695.15 
  "/>
<polyline clip-path="url(#clip8102)" style="stroke:#000000; stroke-width:2; stroke-opacity:0.1; fill:none" points="
  644.353,511.974 2853.54,511.974 
  "/>
<polyline clip-path="url(#clip8102)" style="stroke:#000000; stroke-width:2; stroke-opacity:0.1; fill:none" points="
  644.353,328.798 2853.54,328.798 
  "/>
<polyline clip-path="url(#clip8100)" style="stroke:#000000; stroke-width:4; stroke-opacity:1; fill:none" points="
  644.353,1275.5 2853.54,1275.5 
  "/>
<polyline clip-path="url(#clip8100)" style="stroke:#000000; stroke-width:4; stroke-opacity:1; fill:none" points="
  644.353,1275.5 644.353,188.976 
  "/>
<polyline clip-path="url(#clip8100)" style="stroke:#000000; stroke-width:4; stroke-opacity:1; fill:none" points="
  705.429,1275.5 705.429,1259.21 
  "/>
<polyline clip-path="url(#clip8100)" style="stroke:#000000; stroke-width:4; stroke-opacity:1; fill:none" points="
  1053.03,1275.5 1053.03,1259.21 
  "/>
<polyline clip-path="url(#clip8100)" style="stroke:#000000; stroke-width:4; stroke-opacity:1; fill:none" points="
  1400.63,1275.5 1400.63,1259.21 
  "/>
<polyline clip-path="url(#clip8100)" style="stroke:#000000; stroke-width:4; stroke-opacity:1; fill:none" points="
  1748.22,1275.5 1748.22,1259.21 
  "/>
<polyline clip-path="url(#clip8100)" style="stroke:#000000; stroke-width:4; stroke-opacity:1; fill:none" points="
  2095.82,1275.5 2095.82,1259.21 
  "/>
<polyline clip-path="url(#clip8100)" style="stroke:#000000; stroke-width:4; stroke-opacity:1; fill:none" points="
  2443.42,1275.5 2443.42,1259.21 
  "/>
<polyline clip-path="url(#clip8100)" style="stroke:#000000; stroke-width:4; stroke-opacity:1; fill:none" points="
  2791.02,1275.5 2791.02,1259.21 
  "/>
<polyline clip-path="url(#clip8100)" style="stroke:#000000; stroke-width:4; stroke-opacity:1; fill:none" points="
  644.353,1244.68 677.491,1244.68 
  "/>
<polyline clip-path="url(#clip8100)" style="stroke:#000000; stroke-width:4; stroke-opacity:1; fill:none" points="
  644.353,1061.5 677.491,1061.5 
  "/>
<polyline clip-path="url(#clip8100)" style="stroke:#000000; stroke-width:4; stroke-opacity:1; fill:none" points="
  644.353,878.327 677.491,878.327 
  "/>
<polyline clip-path="url(#clip8100)" style="stroke:#000000; stroke-width:4; stroke-opacity:1; fill:none" points="
  644.353,695.15 677.491,695.15 
  "/>
<polyline clip-path="url(#clip8100)" style="stroke:#000000; stroke-width:4; stroke-opacity:1; fill:none" points="
  644.353,511.974 677.491,511.974 
  "/>
<polyline clip-path="url(#clip8100)" style="stroke:#000000; stroke-width:4; stroke-opacity:1; fill:none" points="
  644.353,328.798 677.491,328.798 
  "/>
<g clip-path="url(#clip8100)">
<text style="fill:#000000; fill-opacity:1; font-family:Arial,Helvetica Neue,Helvetica,sans-serif; font-size:71px; text-anchor:middle;" transform="rotate(0, 705.429, 1353.9)" x="705.429" y="1353.9">0</text>
</g>
<g clip-path="url(#clip8100)">
<text style="fill:#000000; fill-opacity:1; font-family:Arial,Helvetica Neue,Helvetica,sans-serif; font-size:71px; text-anchor:middle;" transform="rotate(0, 1053.03, 1353.9)" x="1053.03" y="1353.9">4</text>
</g>
<g clip-path="url(#clip8100)">
<text style="fill:#000000; fill-opacity:1; font-family:Arial,Helvetica Neue,Helvetica,sans-serif; font-size:71px; text-anchor:middle;" transform="rotate(0, 1400.63, 1353.9)" x="1400.63" y="1353.9">8</text>
</g>
<g clip-path="url(#clip8100)">
<text style="fill:#000000; fill-opacity:1; font-family:Arial,Helvetica Neue,Helvetica,sans-serif; font-size:71px; text-anchor:middle;" transform="rotate(0, 1748.22, 1353.9)" x="1748.22" y="1353.9">12</text>
</g>
<g clip-path="url(#clip8100)">
<text style="fill:#000000; fill-opacity:1; font-family:Arial,Helvetica Neue,Helvetica,sans-serif; font-size:71px; text-anchor:middle;" transform="rotate(0, 2095.82, 1353.9)" x="2095.82" y="1353.9">16</text>
</g>
<g clip-path="url(#clip8100)">
<text style="fill:#000000; fill-opacity:1; font-family:Arial,Helvetica Neue,Helvetica,sans-serif; font-size:71px; text-anchor:middle;" transform="rotate(0, 2443.42, 1353.9)" x="2443.42" y="1353.9">20</text>
</g>
<g clip-path="url(#clip8100)">
<text style="fill:#000000; fill-opacity:1; font-family:Arial,Helvetica Neue,Helvetica,sans-serif; font-size:71px; text-anchor:middle;" transform="rotate(0, 2791.02, 1353.9)" x="2791.02" y="1353.9">24</text>
</g>
<g clip-path="url(#clip8100)">
<text style="fill:#000000; fill-opacity:1; font-family:Arial,Helvetica Neue,Helvetica,sans-serif; font-size:71px; text-anchor:end;" transform="rotate(0, 612.353, 1270.68)" x="612.353" y="1270.68">0</text>
</g>
<g clip-path="url(#clip8100)">
<text style="fill:#000000; fill-opacity:1; font-family:Arial,Helvetica Neue,Helvetica,sans-serif; font-size:71px; text-anchor:start;" transform="rotate(0, 316.782, 1097.09)" x="316.782" y="1097.09">2.50×10</text>
</g>
<g clip-path="url(#clip8100)">
<text style="fill:#000000; fill-opacity:1; font-family:Arial,Helvetica Neue,Helvetica,sans-serif; font-size:58px; text-anchor:start;" transform="rotate(0, 579.736, 1055.98)" x="579.736" y="1055.98">3</text>
</g>
<g clip-path="url(#clip8100)">
<text style="fill:#000000; fill-opacity:1; font-family:Arial,Helvetica Neue,Helvetica,sans-serif; font-size:71px; text-anchor:start;" transform="rotate(0, 316.782, 913.918)" x="316.782" y="913.918">5.00×10</text>
</g>
<g clip-path="url(#clip8100)">
<text style="fill:#000000; fill-opacity:1; font-family:Arial,Helvetica Neue,Helvetica,sans-serif; font-size:58px; text-anchor:start;" transform="rotate(0, 579.736, 872.802)" x="579.736" y="872.802">3</text>
</g>
<g clip-path="url(#clip8100)">
<text style="fill:#000000; fill-opacity:1; font-family:Arial,Helvetica Neue,Helvetica,sans-serif; font-size:71px; text-anchor:start;" transform="rotate(0, 316.782, 730.742)" x="316.782" y="730.742">7.50×10</text>
</g>
<g clip-path="url(#clip8100)">
<text style="fill:#000000; fill-opacity:1; font-family:Arial,Helvetica Neue,Helvetica,sans-serif; font-size:58px; text-anchor:start;" transform="rotate(0, 579.736, 689.626)" x="579.736" y="689.626">3</text>
</g>
<g clip-path="url(#clip8100)">
<text style="fill:#000000; fill-opacity:1; font-family:Arial,Helvetica Neue,Helvetica,sans-serif; font-size:71px; text-anchor:start;" transform="rotate(0, 316.782, 547.566)" x="316.782" y="547.566">1.00×10</text>
</g>
<g clip-path="url(#clip8100)">
<text style="fill:#000000; fill-opacity:1; font-family:Arial,Helvetica Neue,Helvetica,sans-serif; font-size:58px; text-anchor:start;" transform="rotate(0, 579.736, 506.45)" x="579.736" y="506.45">4</text>
</g>
<g clip-path="url(#clip8100)">
<text style="fill:#000000; fill-opacity:1; font-family:Arial,Helvetica Neue,Helvetica,sans-serif; font-size:71px; text-anchor:start;" transform="rotate(0, 316.782, 364.39)" x="316.782" y="364.39">1.25×10</text>
</g>
<g clip-path="url(#clip8100)">
<text style="fill:#000000; fill-opacity:1; font-family:Arial,Helvetica Neue,Helvetica,sans-serif; font-size:58px; text-anchor:start;" transform="rotate(0, 579.736, 323.274)" x="579.736" y="323.274">4</text>
</g>
<g clip-path="url(#clip8100)">
<text style="fill:#000000; fill-opacity:1; font-family:Arial,Helvetica Neue,Helvetica,sans-serif; font-size:95px; text-anchor:middle;" transform="rotate(0, 1748.95, 1469.75)" x="1748.95" y="1469.75">Time (hours)</text>
</g>
<g clip-path="url(#clip8100)">
<text style="fill:#000000; fill-opacity:1; font-family:Arial,Helvetica Neue,Helvetica,sans-serif; font-size:95px; text-anchor:middle;" transform="rotate(-90, 220.973, 732.24)" x="220.973" y="732.24">exp_wait: (PSA-NS)/NS</text>
</g>
<polyline clip-path="url(#clip8102)" style="stroke:#009af9; stroke-width:4; stroke-opacity:1; fill:none" points="
  706.877,1244.68 708.326,1244.68 709.774,1244.68 711.222,1244.68 712.671,1244.68 714.119,1244.68 715.567,1244.68 717.016,1244.68 718.464,1244.68 719.912,1244.68 
  721.361,1244.68 722.809,1244.68 724.257,1244.68 725.705,1244.68 727.154,1244.68 728.602,1244.68 730.05,1244.68 731.499,1244.68 732.947,1244.68 734.395,1244.68 
  735.844,1244.68 737.292,1244.68 738.74,1244.68 740.189,1244.68 741.637,1244.68 743.085,1244.68 744.534,1244.68 745.982,1244.68 747.43,1244.68 748.879,1244.68 
  750.327,1244.68 751.775,1244.68 753.224,1244.68 754.672,1244.68 756.12,1244.68 757.569,1244.68 759.017,1244.68 760.465,1244.68 761.914,1244.68 763.362,1244.68 
  764.81,1244.68 766.259,1244.68 767.707,1244.68 769.155,1244.68 770.604,1244.68 772.052,1244.68 773.5,1244.68 774.949,1244.68 776.397,1244.68 777.845,1244.68 
  779.294,1244.68 780.742,1244.68 782.19,1244.68 783.639,1244.68 785.087,1244.68 786.535,1244.68 787.984,1244.68 789.432,1244.68 790.88,1244.68 792.329,1244.68 
  793.777,1244.68 795.225,1244.7 796.673,1244.7 798.122,1244.7 799.57,1244.7 801.018,1244.7 802.467,1244.69 803.915,1244.69 805.363,1244.69 806.812,1244.69 
  808.26,1244.69 809.708,1244.69 811.157,1244.69 812.605,1244.69 814.053,1244.69 815.502,1244.69 816.95,1244.69 818.398,1244.69 819.847,1244.69 821.295,1244.69 
  822.743,1244.69 824.192,1244.69 825.64,1244.69 827.088,1244.69 828.537,1244.69 829.985,1244.69 831.433,1244.69 832.882,1244.69 834.33,1244.69 835.778,1244.69 
  837.227,1244.69 838.675,1244.69 840.123,1244.69 841.572,1244.69 843.02,1244.69 844.468,1244.69 845.917,1244.69 847.365,1244.69 848.813,1244.69 850.262,1244.69 
  851.71,1244.69 853.158,1244.69 854.607,1244.69 856.055,1244.69 857.503,1244.69 858.952,1244.69 860.4,1244.69 861.848,1244.69 863.297,1244.69 864.745,1244.69 
  866.193,1244.69 867.641,1244.69 869.09,1244.69 870.538,1244.69 871.986,1244.69 873.435,1244.69 874.883,1244.69 876.331,1244.69 877.78,1244.69 879.228,1244.69 
  880.676,1244.69 882.125,1244.69 883.573,1244.69 885.021,1244.69 886.47,1244.69 887.918,1244.68 889.366,1244.68 890.815,1244.68 892.263,1244.68 893.711,1244.68 
  895.16,1244.68 896.608,1244.68 898.056,1244.68 899.505,1244.68 900.953,1244.68 902.401,1244.68 903.85,1244.68 905.298,1244.68 906.746,1244.68 908.195,1244.68 
  909.643,1244.68 911.091,1244.68 912.54,1244.68 913.988,1244.68 915.436,1244.68 916.885,1244.68 918.333,1244.68 919.781,1244.68 921.23,1244.68 922.678,1244.68 
  924.126,1244.68 925.575,1244.68 927.023,1244.68 928.471,1244.68 929.92,1244.68 931.368,1244.68 932.816,1244.68 934.265,1244.68 935.713,1244.68 937.161,1244.68 
  938.609,1244.68 940.058,1244.68 941.506,1244.68 942.954,1244.68 944.403,1244.68 945.851,1244.68 947.299,1244.68 948.748,1244.68 950.196,1244.68 951.644,1244.68 
  953.093,1244.68 954.541,1244.68 955.989,1244.68 957.438,1244.68 958.886,1244.68 960.334,1244.69 961.783,1244.69 963.231,1244.69 964.679,1244.69 966.128,1244.69 
  967.576,1244.69 969.024,1244.68 970.473,1244.68 971.921,1244.68 973.369,1244.68 974.818,1244.68 976.266,1244.68 977.714,1244.68 979.163,1244.68 980.611,1244.68 
  982.059,1244.68 983.508,1244.68 984.956,1244.68 986.404,1244.68 987.853,1244.68 989.301,1244.68 990.749,1244.68 992.198,1244.68 993.646,1244.68 995.094,1244.68 
  996.543,1244.68 997.991,1244.68 999.439,1244.68 1000.89,1244.68 1002.34,1244.68 1003.78,1244.68 1005.23,1244.68 1006.68,1244.68 1008.13,1244.68 1009.58,1244.68 
  1011.03,1244.68 1012.47,1244.68 1013.92,1244.68 1015.37,1244.68 1016.82,1244.68 1018.27,1244.68 1019.72,1244.68 1021.16,1244.68 1022.61,1244.68 1024.06,1244.68 
  1025.51,1244.68 1026.96,1244.68 1028.41,1244.68 1029.85,1244.68 1031.3,1244.68 1032.75,1244.68 1034.2,1244.68 1035.65,1244.68 1037.1,1244.68 1038.54,1244.68 
  1039.99,1244.68 1041.44,1244.68 1042.89,1244.68 1044.34,1244.68 1045.79,1244.68 1047.23,1244.68 1048.68,1244.68 1050.13,1244.68 1051.58,1244.68 1053.03,1244.68 
  1054.48,1244.68 1055.92,1244.7 1057.37,1244.7 1058.82,1244.7 1060.27,1244.69 1061.72,1244.69 1063.17,1244.69 1064.61,1244.69 1066.06,1244.69 1067.51,1244.68 
  1068.96,1244.68 1070.41,1244.68 1071.86,1244.68 1073.3,1244.68 1074.75,1244.68 1076.2,1244.68 1077.65,1244.68 1079.1,1244.68 1080.55,1244.68 1081.99,1244.68 
  1083.44,1244.68 1084.89,1244.68 1086.34,1244.68 1087.79,1244.68 1089.24,1244.67 1090.68,1244.67 1092.13,1244.67 1093.58,1244.67 1095.03,1244.67 1096.48,1244.67 
  1097.93,1244.67 1099.37,1244.67 1100.82,1244.67 1102.27,1244.67 1103.72,1244.67 1105.17,1244.67 1106.62,1244.67 1108.06,1244.67 1109.51,1244.67 1110.96,1244.67 
  1112.41,1244.67 1113.86,1244.67 1115.31,1244.67 1116.75,1244.67 1118.2,1244.67 1119.65,1244.67 1121.1,1244.67 1122.55,1244.67 1124,1244.67 1125.44,1244.67 
  1126.89,1244.67 1128.34,1244.67 1129.79,1244.67 1131.24,1244.67 1132.69,1244.67 1134.13,1244.67 1135.58,1244.67 1137.03,1244.67 1138.48,1244.67 1139.93,1244.67 
  1141.38,1244.67 1142.82,1244.66 1144.27,1244.66 1145.72,1244.66 1147.17,1244.66 1148.62,1244.66 1150.07,1244.66 1151.51,1244.66 1152.96,1244.66 1154.41,1244.66 
  1155.86,1244.66 1157.31,1244.66 1158.76,1244.66 1160.2,1244.66 1161.65,1244.66 1163.1,1244.66 1164.55,1244.66 1166,1244.66 1167.45,1244.66 1168.89,1244.66 
  1170.34,1244.66 1171.79,1244.66 1173.24,1244.66 1174.69,1244.66 1176.14,1244.66 1177.58,1244.66 1179.03,1244.66 1180.48,1244.66 1181.93,1244.66 1183.38,1244.66 
  1184.82,1244.66 1186.27,1244.66 1187.72,1244.67 1189.17,1244.67 1190.62,1244.67 1192.07,1244.67 1193.51,1244.67 1194.96,1244.67 1196.41,1244.67 1197.86,1244.67 
  1199.31,1244.67 1200.76,1244.67 1202.2,1244.67 1203.65,1244.67 1205.1,1244.67 1206.55,1244.67 1208,1244.67 1209.45,1244.67 1210.89,1244.67 1212.34,1244.67 
  1213.79,1244.67 1215.24,1244.67 1216.69,1244.67 1218.14,1244.67 1219.58,1244.67 1221.03,1244.67 1222.48,1244.67 1223.93,1244.67 1225.38,1244.67 1226.83,1244.67 
  1228.27,1244.67 1229.72,1244.75 1231.17,1244.75 1232.62,1244.75 1234.07,1244.74 1235.52,1244.73 1236.96,1244.72 1238.41,1244.7 1239.86,1244.67 1241.31,1244.65 
  1242.76,1244.63 1244.21,1244.61 1245.65,1244.6 1247.1,1244.6 1248.55,1244.59 1250,1244.59 1251.45,1244.59 1252.9,1244.59 1254.34,1244.59 1255.79,1244.59 
  1257.24,1244.6 1258.69,1244.6 1260.14,1244.6 1261.59,1244.6 1263.03,1244.6 1264.48,1244.61 1265.93,1244.61 1267.38,1244.61 1268.83,1244.61 1270.28,1244.61 
  1271.72,1244.62 1273.17,1244.62 1274.62,1244.62 1276.07,1244.62 1277.52,1244.62 1278.97,1244.63 1280.41,1244.63 1281.86,1244.63 1283.31,1244.63 1284.76,1244.63 
  1286.21,1244.63 1287.66,1244.64 1289.1,1244.64 1290.55,1244.64 1292,1244.64 1293.45,1244.64 1294.9,1244.64 1296.35,1244.64 1297.79,1244.65 1299.24,1244.65 
  1300.69,1244.65 1302.14,1244.65 1303.59,1244.65 1305.04,1244.65 1306.48,1244.65 1307.93,1244.65 1309.38,1244.65 1310.83,1244.66 1312.28,1244.66 1313.73,1244.66 
  1315.17,1244.66 1316.62,1244.75 1318.07,1244.75 1319.52,1244.75 1320.97,1244.75 1322.42,1244.73 1323.86,1244.69 1325.31,1244.63 1326.76,1244.55 1328.21,1244.46 
  1329.66,1244.39 1331.11,1244.34 1332.55,1244.3 1334,1244.28 1335.45,1244.27 1336.9,1244.27 1338.35,1244.28 1339.8,1244.29 1341.24,1244.3 1342.69,1244.32 
  1344.14,1244.33 1345.59,1244.35 1347.04,1244.36 1348.49,1244.38 1349.93,1244.39 1351.38,1244.41 1352.83,1244.42 1354.28,1244.43 1355.73,1244.44 1357.18,1244.45 
  1358.62,1244.46 1360.07,1244.47 1361.52,1244.48 1362.97,1244.49 1364.42,1244.5 1365.87,1244.51 1367.31,1244.51 1368.76,1244.52 1370.21,1244.53 1371.66,1244.53 
  1373.11,1244.54 1374.56,1244.55 1376,1244.55 1377.45,1244.56 1378.9,1244.56 1380.35,1244.56 1381.8,1244.57 1383.25,1244.57 1384.69,1244.58 1386.14,1244.58 
  1387.59,1244.58 1389.04,1244.59 1390.49,1244.59 1391.94,1244.59 1393.38,1244.59 1394.83,1244.6 1396.28,1244.6 1397.73,1244.6 1399.18,1244.6 1400.63,1244.61 
  1402.07,1244.61 1403.52,1226.9 1404.97,1042.28 1406.42,534.566 1407.87,219.727 1409.32,412.192 1410.76,734.645 1412.21,954.335 1413.66,1075.53 1415.11,1140.97 
  1416.56,1177.67 1418.01,1199.36 1419.45,1212.83 1420.9,1221.58 1422.35,1227.49 1423.8,1231.61 1425.25,1234.57 1426.7,1236.73 1428.14,1238.35 1429.59,1239.58 
  1431.04,1240.53 1432.49,1241.28 1433.94,1241.86 1435.39,1242.33 1436.83,1242.71 1438.28,1243.02 1439.73,1243.26 1441.18,1243.47 1442.63,1243.64 1444.08,1243.78 
  1445.52,1243.9 1446.97,1244 1448.42,1244.08 1449.87,1244.15 1451.32,1244.21 1452.77,1244.26 1454.21,1244.31 1455.66,1244.35 1457.11,1244.38 1458.56,1244.41 
  1460.01,1244.43 1461.46,1244.45 1462.9,1244.47 1464.35,1244.49 1465.8,1244.5 1467.25,1244.52 1468.7,1244.53 1470.15,1244.54 1471.59,1244.55 1473.04,1244.56 
  1474.49,1244.57 1475.94,1244.58 1477.39,1244.59 1478.84,1244.59 1480.28,1244.6 1481.73,1244.61 1483.18,1244.61 1484.63,1244.62 1486.08,1244.62 1487.53,1244.63 
  1488.97,1244.63 1490.42,1244.65 1491.87,1244.63 1493.32,1244.6 1494.77,1244.59 1496.22,1244.58 1497.66,1244.57 1499.11,1244.57 1500.56,1244.57 1502.01,1244.57 
  1503.46,1244.58 1504.91,1244.58 1506.35,1244.58 1507.8,1244.59 1509.25,1244.59 1510.7,1244.59 1512.15,1244.6 1513.6,1244.6 1515.04,1244.6 1516.49,1244.6 
  1517.94,1244.61 1519.39,1244.61 1520.84,1244.61 1522.29,1244.61 1523.73,1244.62 1525.18,1244.62 1526.63,1244.62 1528.08,1244.62 1529.53,1244.62 1530.98,1244.63 
  1532.42,1244.63 1533.87,1244.63 1535.32,1244.63 1536.77,1244.63 1538.22,1244.64 1539.66,1244.64 1541.11,1244.64 1542.56,1244.64 1544.01,1244.64 1545.46,1244.64 
  1546.91,1244.65 1548.35,1244.65 1549.8,1244.65 1551.25,1244.65 1552.7,1244.65 1554.15,1244.65 1555.6,1244.65 1557.04,1244.65 1558.49,1244.66 1559.94,1244.66 
  1561.39,1244.66 1562.84,1244.66 1564.29,1244.66 1565.73,1244.66 1567.18,1244.66 1568.63,1244.66 1570.08,1244.66 1571.53,1244.66 1572.98,1244.66 1574.42,1244.66 
  1575.87,1244.66 1577.32,1244.68 1578.77,1244.68 1580.22,1244.68 1581.67,1244.68 1583.11,1244.68 1584.56,1244.68 1586.01,1244.68 1587.46,1244.68 1588.91,1244.68 
  1590.36,1244.68 1591.8,1244.68 1593.25,1244.68 1594.7,1244.68 1596.15,1244.68 1597.6,1244.68 1599.05,1244.68 1600.49,1244.68 1601.94,1244.68 1603.39,1244.68 
  1604.84,1244.68 1606.29,1244.68 1607.74,1244.68 1609.18,1244.68 1610.63,1244.68 1612.08,1244.68 1613.53,1244.68 1614.98,1244.68 1616.43,1244.68 1617.87,1244.68 
  1619.32,1244.68 1620.77,1244.68 1622.22,1244.68 1623.67,1244.68 1625.12,1244.68 1626.56,1244.68 1628.01,1244.68 1629.46,1244.68 1630.91,1244.68 1632.36,1244.68 
  1633.81,1244.68 1635.25,1244.68 1636.7,1244.68 1638.15,1244.68 1639.6,1244.68 1641.05,1244.68 1642.5,1244.68 1643.94,1244.68 1645.39,1244.68 1646.84,1244.68 
  1648.29,1244.68 1649.74,1244.68 1651.19,1244.68 1652.63,1244.68 1654.08,1244.68 1655.53,1244.68 1656.98,1244.68 1658.43,1244.68 1659.88,1244.68 1661.32,1244.68 
  1662.77,1244.68 1664.22,1244.68 1665.67,1244.68 1667.12,1244.68 1668.57,1244.68 1670.01,1244.68 1671.46,1244.68 1672.91,1244.68 1674.36,1244.68 1675.81,1244.68 
  1677.26,1244.68 1678.7,1244.68 1680.15,1244.68 1681.6,1244.68 1683.05,1244.68 1684.5,1244.68 1685.95,1244.68 1687.39,1244.68 1688.84,1244.68 1690.29,1244.68 
  1691.74,1244.68 1693.19,1244.68 1694.64,1244.68 1696.08,1244.68 1697.53,1244.68 1698.98,1244.68 1700.43,1244.68 1701.88,1244.68 1703.33,1244.68 1704.77,1244.68 
  1706.22,1244.68 1707.67,1244.68 1709.12,1244.68 1710.57,1244.68 1712.02,1244.69 1713.46,1244.69 1714.91,1244.69 1716.36,1244.69 1717.81,1244.69 1719.26,1244.69 
  1720.71,1244.69 1722.15,1244.69 1723.6,1244.69 1725.05,1244.69 1726.5,1244.69 1727.95,1244.69 1729.4,1244.69 1730.84,1244.69 1732.29,1244.69 1733.74,1244.69 
  1735.19,1244.69 1736.64,1244.69 1738.09,1244.69 1739.53,1244.69 1740.98,1244.69 1742.43,1244.69 1743.88,1244.69 1745.33,1244.69 1746.78,1244.69 1748.22,1244.69 
  1749.67,1244.69 1751.12,1244.69 1752.57,1244.69 1754.02,1244.69 1755.47,1244.69 1756.91,1244.69 1758.36,1244.69 1759.81,1244.69 1761.26,1244.69 1762.71,1244.69 
  1764.16,1244.69 1765.6,1244.69 1767.05,1244.69 1768.5,1244.69 1769.95,1244.69 1771.4,1244.69 1772.85,1244.69 1774.29,1244.69 1775.74,1244.69 1777.19,1244.69 
  1778.64,1244.69 1780.09,1244.69 1781.54,1244.69 1782.98,1244.69 1784.43,1244.69 1785.88,1244.69 1787.33,1244.69 1788.78,1244.69 1790.23,1244.69 1791.67,1244.69 
  1793.12,1244.69 1794.57,1244.69 1796.02,1244.69 1797.47,1244.69 1798.92,1244.69 1800.36,1244.69 1801.81,1244.69 1803.26,1244.69 1804.71,1244.69 1806.16,1244.69 
  1807.61,1244.69 1809.05,1244.69 1810.5,1244.69 1811.95,1244.69 1813.4,1244.69 1814.85,1244.69 1816.3,1244.69 1817.74,1244.69 1819.19,1244.69 1820.64,1244.69 
  1822.09,1244.69 1823.54,1244.69 1824.99,1244.69 1826.43,1244.69 1827.88,1244.69 1829.33,1244.69 1830.78,1244.69 1832.23,1244.69 1833.68,1244.69 1835.12,1244.69 
  1836.57,1244.69 1838.02,1244.6 1839.47,1244.62 1840.92,1244.63 1842.37,1244.64 1843.81,1244.65 1845.26,1244.65 1846.71,1244.66 1848.16,1244.66 1849.61,1244.66 
  1851.06,1244.66 1852.5,1244.67 1853.95,1244.67 1855.4,1244.67 1856.85,1244.67 1858.3,1244.67 1859.75,1244.67 1861.19,1244.67 1862.64,1244.67 1864.09,1244.67 
  1865.54,1244.67 1866.99,1244.68 1868.44,1244.68 1869.88,1244.68 1871.33,1244.68 1872.78,1244.68 1874.23,1244.68 1875.68,1244.68 1877.13,1244.68 1878.57,1244.68 
  1880.02,1244.68 1881.47,1244.68 1882.92,1244.68 1884.37,1244.68 1885.82,1244.68 1887.26,1244.68 1888.71,1244.68 1890.16,1244.68 1891.61,1244.68 1893.06,1244.68 
  1894.5,1244.68 1895.95,1244.68 1897.4,1244.68 1898.85,1244.68 1900.3,1244.68 1901.75,1244.68 1903.19,1244.68 1904.64,1244.68 1906.09,1244.68 1907.54,1244.68 
  1908.99,1244.68 1910.44,1244.68 1911.88,1244.68 1913.33,1244.68 1914.78,1244.68 1916.23,1244.68 1917.68,1244.68 1919.13,1244.68 1920.57,1244.68 1922.02,1244.68 
  1923.47,1244.68 1924.92,1244.64 1926.37,1244.65 1927.82,1244.66 1929.26,1244.66 1930.71,1244.66 1932.16,1244.67 1933.61,1244.67 1935.06,1244.67 1936.51,1244.67 
  1937.95,1244.67 1939.4,1244.67 1940.85,1244.68 1942.3,1244.68 1943.75,1244.68 1945.2,1244.68 1946.64,1244.68 1948.09,1244.68 1949.54,1244.68 1950.99,1244.68 
  1952.44,1244.68 1953.89,1244.68 1955.33,1244.68 1956.78,1244.68 1958.23,1244.68 1959.68,1244.68 1961.13,1244.68 1962.58,1244.68 1964.02,1244.68 1965.47,1244.68 
  1966.92,1244.68 1968.37,1244.68 1969.82,1244.68 1971.27,1244.68 1972.71,1244.68 1974.16,1244.68 1975.61,1244.68 1977.06,1244.68 1978.51,1244.68 1979.96,1244.68 
  1981.4,1244.68 1982.85,1244.68 1984.3,1244.68 1985.75,1244.68 1987.2,1244.68 1988.65,1244.68 1990.09,1244.68 1991.54,1244.68 1992.99,1244.68 1994.44,1244.68 
  1995.89,1244.68 1997.34,1244.68 1998.78,1244.68 2000.23,1244.68 2001.68,1244.68 2003.13,1244.68 2004.58,1244.68 2006.03,1244.68 2007.47,1244.68 2008.92,1244.68 
  2010.37,1244.68 2011.82,1244.69 2013.27,1244.69 2014.72,1244.69 2016.16,1244.69 2017.61,1244.69 2019.06,1244.69 2020.51,1244.69 2021.96,1244.69 2023.41,1244.69 
  2024.85,1244.69 2026.3,1244.69 2027.75,1244.69 2029.2,1244.69 2030.65,1244.69 2032.1,1244.69 2033.54,1244.69 2034.99,1244.69 2036.44,1244.69 2037.89,1244.69 
  2039.34,1244.69 2040.79,1244.69 2042.23,1244.69 2043.68,1244.69 2045.13,1244.69 2046.58,1244.69 2048.03,1244.69 2049.48,1244.69 2050.92,1244.69 2052.37,1244.69 
  2053.82,1244.69 2055.27,1244.69 2056.72,1244.69 2058.17,1244.69 2059.61,1244.69 2061.06,1244.69 2062.51,1244.69 2063.96,1244.69 2065.41,1244.69 2066.86,1244.69 
  2068.3,1244.69 2069.75,1244.69 2071.2,1244.69 2072.65,1244.69 2074.1,1244.69 2075.55,1244.69 2076.99,1244.69 2078.44,1244.69 2079.89,1244.69 2081.34,1244.69 
  2082.79,1244.69 2084.24,1244.69 2085.68,1244.69 2087.13,1244.69 2088.58,1244.69 2090.03,1244.69 2091.48,1244.69 2092.93,1244.69 2094.37,1244.69 2095.82,1244.69 
  2097.27,1244.69 2098.72,1244.66 2100.17,1244.67 2101.62,1244.67 2103.06,1244.68 2104.51,1244.68 2105.96,1244.68 2107.41,1244.69 2108.86,1244.69 2110.31,1244.69 
  2111.75,1244.69 2113.2,1244.69 2114.65,1244.7 2116.1,1244.7 2117.55,1244.7 2119,1244.7 2120.44,1244.7 2121.89,1244.7 2123.34,1244.7 2124.79,1244.7 
  2126.24,1244.71 2127.69,1244.71 2129.13,1244.71 2130.58,1244.71 2132.03,1244.71 2133.48,1244.71 2134.93,1244.71 2136.38,1244.71 2137.82,1244.71 2139.27,1244.71 
  2140.72,1244.71 2142.17,1244.71 2143.62,1244.72 2145.07,1244.72 2146.51,1244.72 2147.96,1244.72 2149.41,1244.72 2150.86,1244.72 2152.31,1244.72 2153.76,1244.72 
  2155.2,1244.72 2156.65,1244.72 2158.1,1244.72 2159.55,1244.72 2161,1244.72 2162.45,1244.72 2163.89,1244.72 2165.34,1244.72 2166.79,1244.72 2168.24,1244.72 
  2169.69,1244.72 2171.14,1244.72 2172.58,1244.72 2174.03,1244.72 2175.48,1244.72 2176.93,1244.72 2178.38,1244.72 2179.83,1244.73 2181.27,1244.73 2182.72,1244.73 
  2184.17,1244.73 2185.62,1244.65 2187.07,1244.66 2188.52,1244.67 2189.96,1244.67 2191.41,1244.68 2192.86,1244.68 2194.31,1244.68 2195.76,1244.68 2197.21,1244.69 
  2198.65,1244.69 2200.1,1244.69 2201.55,1244.69 2203,1244.69 2204.45,1244.7 2205.9,1244.7 2207.34,1244.7 2208.79,1244.7 2210.24,1244.7 2211.69,1244.7 
  2213.14,1244.7 2214.59,1244.7 2216.03,1244.7 2217.48,1244.7 2218.93,1244.71 2220.38,1244.71 2221.83,1244.71 2223.28,1244.71 2224.72,1244.71 2226.17,1244.71 
  2227.62,1244.71 2229.07,1244.71 2230.52,1244.71 2231.97,1244.71 2233.41,1244.71 2234.86,1244.71 2236.31,1244.71 2237.76,1244.71 2239.21,1244.71 2240.65,1244.71 
  2242.1,1244.71 2243.55,1244.72 2245,1244.72 2246.45,1244.72 2247.9,1244.72 2249.34,1244.72 2250.79,1244.72 2252.24,1244.72 2253.69,1244.72 2255.14,1244.72 
  2256.59,1244.72 2258.03,1244.72 2259.48,1244.72 2260.93,1244.72 2262.38,1244.72 2263.83,1244.72 2265.28,1244.72 2266.72,1244.72 2268.17,1244.72 2269.62,1244.72 
  2271.07,1244.72 2272.52,1244.65 2273.97,1244.66 2275.41,1244.66 2276.86,1244.67 2278.31,1244.67 2279.76,1244.68 2281.21,1244.68 2282.66,1244.68 2284.1,1244.68 
  2285.55,1244.68 2287,1244.69 2288.45,1244.69 2289.9,1244.69 2291.35,1244.69 2292.79,1244.69 2294.24,1244.69 2295.69,1244.69 2297.14,1244.69 2298.59,1244.69 
  2300.04,1244.69 2301.48,1244.69 2302.93,1244.7 2304.38,1244.7 2305.83,1244.7 2307.28,1244.7 2308.73,1244.7 2310.17,1244.7 2311.62,1244.7 2313.07,1244.7 
  2314.52,1244.7 2315.97,1244.7 2317.42,1244.7 2318.86,1244.7 2320.31,1244.7 2321.76,1244.7 2323.21,1244.7 2324.66,1244.7 2326.11,1244.7 2327.55,1244.7 
  2329,1244.7 2330.45,1244.7 2331.9,1244.7 2333.35,1244.7 2334.8,1244.7 2336.24,1244.7 2337.69,1244.7 2339.14,1244.71 2340.59,1244.71 2342.04,1244.71 
  2343.49,1244.71 2344.93,1244.71 2346.38,1244.71 2347.83,1244.71 2349.28,1244.71 2350.73,1244.71 2352.18,1244.71 2353.62,1244.71 2355.07,1244.71 2356.52,1244.71 
  2357.97,1244.71 2359.42,1244.59 2360.87,1244.61 2362.31,1244.63 2363.76,1244.64 2365.21,1244.65 2366.66,1244.66 2368.11,1244.66 2369.56,1244.66 2371,1244.67 
  2372.45,1244.67 2373.9,1244.67 2375.35,1244.68 2376.8,1244.68 2378.25,1244.68 2379.69,1244.68 2381.14,1244.68 2382.59,1244.68 2384.04,1244.68 2385.49,1244.68 
  2386.94,1244.69 2388.38,1244.69 2389.83,1244.69 2391.28,1244.69 2392.73,1244.69 2394.18,1244.69 2395.63,1244.69 2397.07,1244.69 2398.52,1244.69 2399.97,1244.69 
  2401.42,1244.69 2402.87,1244.69 2404.32,1244.69 2405.76,1244.69 2407.21,1244.69 2408.66,1244.69 2410.11,1244.69 2411.56,1244.69 2413.01,1244.69 2414.45,1244.69 
  2415.9,1244.69 2417.35,1244.69 2418.8,1244.69 2420.25,1244.69 2421.7,1244.69 2423.14,1244.69 2424.59,1244.69 2426.04,1244.69 2427.49,1244.69 2428.94,1244.69 
  2430.39,1244.69 2431.83,1244.69 2433.28,1244.69 2434.73,1244.69 2436.18,1244.7 2437.63,1244.7 2439.08,1244.7 2440.52,1244.7 2441.97,1244.7 2443.42,1244.7 
  2444.87,1244.7 2446.32,1244.68 2447.77,1244.68 2449.21,1244.68 2450.66,1244.68 2452.11,1244.69 2453.56,1244.69 2455.01,1244.69 2456.46,1244.69 2457.9,1244.69 
  2459.35,1244.69 2460.8,1244.69 2462.25,1244.69 2463.7,1244.69 2465.15,1244.69 2466.59,1244.69 2468.04,1244.69 2469.49,1244.69 2470.94,1244.69 2472.39,1244.69 
  2473.84,1244.69 2475.28,1244.69 2476.73,1244.69 2478.18,1244.69 2479.63,1244.69 2481.08,1244.69 2482.53,1244.69 2483.97,1244.69 2485.42,1244.69 2486.87,1244.69 
  2488.32,1244.69 2489.77,1244.69 2491.22,1244.69 2492.66,1244.69 2494.11,1244.69 2495.56,1244.69 2497.01,1244.69 2498.46,1244.69 2499.91,1244.69 2501.35,1244.69 
  2502.8,1244.7 2504.25,1244.7 2505.7,1244.7 2507.15,1244.7 2508.6,1244.7 2510.04,1244.7 2511.49,1244.7 2512.94,1244.7 2514.39,1244.7 2515.84,1244.7 
  2517.29,1244.7 2518.73,1244.7 2520.18,1244.7 2521.63,1244.7 2523.08,1244.7 2524.53,1244.7 2525.98,1244.7 2527.42,1244.7 2528.87,1244.7 2530.32,1244.7 
  2531.77,1244.7 2533.22,1244.68 2534.67,1244.68 2536.11,1244.68 2537.56,1244.69 2539.01,1244.69 2540.46,1244.69 2541.91,1244.69 2543.36,1244.69 2544.8,1244.69 
  2546.25,1244.69 2547.7,1244.69 2549.15,1244.69 2550.6,1244.69 2552.05,1244.69 2553.49,1244.69 2554.94,1244.69 2556.39,1244.7 2557.84,1244.7 2559.29,1244.7 
  2560.74,1244.7 2562.18,1244.7 2563.63,1244.7 2565.08,1244.7 2566.53,1244.7 2567.98,1244.7 2569.43,1244.7 2570.87,1244.7 2572.32,1244.7 2573.77,1244.7 
  2575.22,1244.7 2576.67,1244.7 2578.12,1244.7 2579.56,1244.7 2581.01,1244.7 2582.46,1244.7 2583.91,1244.7 2585.36,1244.7 2586.81,1244.7 2588.25,1244.7 
  2589.7,1244.7 2591.15,1244.7 2592.6,1244.7 2594.05,1244.7 2595.49,1244.7 2596.94,1244.7 2598.39,1244.7 2599.84,1244.7 2601.29,1244.7 2602.74,1244.7 
  2604.18,1244.7 2605.63,1244.7 2607.08,1244.7 2608.53,1244.71 2609.98,1244.71 2611.43,1244.71 2612.87,1244.71 2614.32,1244.71 2615.77,1244.71 2617.22,1244.71 
  2618.67,1244.71 2620.12,1244.67 2621.56,1244.67 2623.01,1244.68 2624.46,1244.68 2625.91,1244.68 2627.36,1244.68 2628.81,1244.69 2630.25,1244.69 2631.7,1244.69 
  2633.15,1244.69 2634.6,1244.69 2636.05,1244.69 2637.5,1244.69 2638.94,1244.69 2640.39,1244.7 2641.84,1244.7 2643.29,1244.7 2644.74,1244.7 2646.19,1244.7 
  2647.63,1244.7 2649.08,1244.7 2650.53,1244.7 2651.98,1244.7 2653.43,1244.7 2654.88,1244.7 2656.32,1244.7 2657.77,1244.7 2659.22,1244.7 2660.67,1244.7 
  2662.12,1244.7 2663.57,1244.7 2665.01,1244.7 2666.46,1244.7 2667.91,1244.7 2669.36,1244.7 2670.81,1244.7 2672.26,1244.7 2673.7,1244.7 2675.15,1244.7 
  2676.6,1244.71 2678.05,1244.71 2679.5,1244.71 2680.95,1244.71 2682.39,1244.71 2683.84,1244.71 2685.29,1244.71 2686.74,1244.71 2688.19,1244.71 2689.64,1244.71 
  2691.08,1244.71 2692.53,1244.71 2693.98,1244.71 2695.43,1244.71 2696.88,1244.71 2698.33,1244.71 2699.77,1244.71 2701.22,1244.71 2702.67,1244.71 2704.12,1244.71 
  2705.57,1244.71 2707.02,1244.69 2708.46,1244.69 2709.91,1244.7 2711.36,1244.7 2712.81,1244.7 2714.26,1244.7 2715.71,1244.7 2717.15,1244.7 2718.6,1244.7 
  2720.05,1244.7 2721.5,1244.71 2722.95,1244.71 2724.4,1244.71 2725.84,1244.71 2727.29,1244.71 2728.74,1244.71 2730.19,1244.71 2731.64,1244.71 2733.09,1244.71 
  2734.53,1244.71 2735.98,1244.71 2737.43,1244.71 2738.88,1244.71 2740.33,1244.71 2741.78,1244.71 2743.22,1244.71 2744.67,1244.71 2746.12,1244.71 2747.57,1244.71 
  2749.02,1244.71 2750.47,1244.71 2751.91,1244.72 2753.36,1244.72 2754.81,1244.72 2756.26,1244.72 2757.71,1244.72 2759.16,1244.72 2760.6,1244.72 2762.05,1244.72 
  2763.5,1244.72 2764.95,1244.72 2766.4,1244.72 2767.85,1244.72 2769.29,1244.72 2770.74,1244.72 2772.19,1244.72 2773.64,1244.72 2775.09,1244.72 2776.54,1244.72 
  2777.98,1244.72 2779.43,1244.72 2780.88,1244.72 2782.33,1244.72 2783.78,1244.73 2785.23,1244.73 2786.67,1244.73 2788.12,1244.73 2789.57,1244.73 2791.02,1244.73 
  
  "/>
</svg>
