<?xml version="1.0" encoding="utf-8"?>
<svg xmlns="http://www.w3.org/2000/svg" xmlns:xlink="http://www.w3.org/1999/xlink" width="800" height="400" viewBox="0 0 3200 1600">
<defs>
  <clipPath id="clip1300">
    <rect x="0" y="0" width="3200" height="1600"/>
  </clipPath>
</defs>
<polygon clip-path="url(#clip1300)" points="
0,1600 3200,1600 3200,0 0,0 
  " fill="#ffffff" fill-rule="evenodd" fill-opacity="1"/>
<defs>
  <clipPath id="clip1301">
    <rect x="640" y="0" width="2241" height="1600"/>
  </clipPath>
</defs>
<polygon clip-path="url(#clip1300)" points="
438.461,1275.5 2853.54,1275.5 2853.54,188.976 438.461,188.976 
  " fill="#ffffff" fill-rule="evenodd" fill-opacity="1"/>
<defs>
  <clipPath id="clip1302">
    <rect x="438" y="188" width="2416" height="1088"/>
  </clipPath>
</defs>
<polyline clip-path="url(#clip1302)" style="stroke:#000000; stroke-width:2; stroke-opacity:0.1; fill:none" points="
  505.229,1275.5 505.229,188.976 
  "/>
<polyline clip-path="url(#clip1302)" style="stroke:#000000; stroke-width:2; stroke-opacity:0.1; fill:none" points="
  885.223,1275.5 885.223,188.976 
  "/>
<polyline clip-path="url(#clip1302)" style="stroke:#000000; stroke-width:2; stroke-opacity:0.1; fill:none" points="
  1265.22,1275.5 1265.22,188.976 
  "/>
<polyline clip-path="url(#clip1302)" style="stroke:#000000; stroke-width:2; stroke-opacity:0.1; fill:none" points="
  1645.21,1275.5 1645.21,188.976 
  "/>
<polyline clip-path="url(#clip1302)" style="stroke:#000000; stroke-width:2; stroke-opacity:0.1; fill:none" points="
  2025.2,1275.5 2025.2,188.976 
  "/>
<polyline clip-path="url(#clip1302)" style="stroke:#000000; stroke-width:2; stroke-opacity:0.1; fill:none" points="
  2405.2,1275.5 2405.2,188.976 
  "/>
<polyline clip-path="url(#clip1302)" style="stroke:#000000; stroke-width:2; stroke-opacity:0.1; fill:none" points="
  2785.19,1275.5 2785.19,188.976 
  "/>
<polyline clip-path="url(#clip1302)" style="stroke:#000000; stroke-width:2; stroke-opacity:0.1; fill:none" points="
  438.461,1153.9 2853.54,1153.9 
  "/>
<polyline clip-path="url(#clip1302)" style="stroke:#000000; stroke-width:2; stroke-opacity:0.1; fill:none" points="
  438.461,995.045 2853.54,995.045 
  "/>
<polyline clip-path="url(#clip1302)" style="stroke:#000000; stroke-width:2; stroke-opacity:0.1; fill:none" points="
  438.461,836.189 2853.54,836.189 
  "/>
<polyline clip-path="url(#clip1302)" style="stroke:#000000; stroke-width:2; stroke-opacity:0.1; fill:none" points="
  438.461,677.333 2853.54,677.333 
  "/>
<polyline clip-path="url(#clip1302)" style="stroke:#000000; stroke-width:2; stroke-opacity:0.1; fill:none" points="
  438.461,518.476 2853.54,518.476 
  "/>
<polyline clip-path="url(#clip1302)" style="stroke:#000000; stroke-width:2; stroke-opacity:0.1; fill:none" points="
  438.461,359.62 2853.54,359.62 
  "/>
<polyline clip-path="url(#clip1302)" style="stroke:#000000; stroke-width:2; stroke-opacity:0.1; fill:none" points="
  438.461,200.764 2853.54,200.764 
  "/>
<polyline clip-path="url(#clip1300)" style="stroke:#000000; stroke-width:4; stroke-opacity:1; fill:none" points="
  438.461,1275.5 2853.54,1275.5 
  "/>
<polyline clip-path="url(#clip1300)" style="stroke:#000000; stroke-width:4; stroke-opacity:1; fill:none" points="
  438.461,1275.5 438.461,188.976 
  "/>
<polyline clip-path="url(#clip1300)" style="stroke:#000000; stroke-width:4; stroke-opacity:1; fill:none" points="
  505.229,1275.5 505.229,1259.21 
  "/>
<polyline clip-path="url(#clip1300)" style="stroke:#000000; stroke-width:4; stroke-opacity:1; fill:none" points="
  885.223,1275.5 885.223,1259.21 
  "/>
<polyline clip-path="url(#clip1300)" style="stroke:#000000; stroke-width:4; stroke-opacity:1; fill:none" points="
  1265.22,1275.5 1265.22,1259.21 
  "/>
<polyline clip-path="url(#clip1300)" style="stroke:#000000; stroke-width:4; stroke-opacity:1; fill:none" points="
  1645.21,1275.5 1645.21,1259.21 
  "/>
<polyline clip-path="url(#clip1300)" style="stroke:#000000; stroke-width:4; stroke-opacity:1; fill:none" points="
  2025.2,1275.5 2025.2,1259.21 
  "/>
<polyline clip-path="url(#clip1300)" style="stroke:#000000; stroke-width:4; stroke-opacity:1; fill:none" points="
  2405.2,1275.5 2405.2,1259.21 
  "/>
<polyline clip-path="url(#clip1300)" style="stroke:#000000; stroke-width:4; stroke-opacity:1; fill:none" points="
  2785.19,1275.5 2785.19,1259.21 
  "/>
<polyline clip-path="url(#clip1300)" style="stroke:#000000; stroke-width:4; stroke-opacity:1; fill:none" points="
  438.461,1153.9 474.687,1153.9 
  "/>
<polyline clip-path="url(#clip1300)" style="stroke:#000000; stroke-width:4; stroke-opacity:1; fill:none" points="
  438.461,995.045 474.687,995.045 
  "/>
<polyline clip-path="url(#clip1300)" style="stroke:#000000; stroke-width:4; stroke-opacity:1; fill:none" points="
  438.461,836.189 474.687,836.189 
  "/>
<polyline clip-path="url(#clip1300)" style="stroke:#000000; stroke-width:4; stroke-opacity:1; fill:none" points="
  438.461,677.333 474.687,677.333 
  "/>
<polyline clip-path="url(#clip1300)" style="stroke:#000000; stroke-width:4; stroke-opacity:1; fill:none" points="
  438.461,518.476 474.687,518.476 
  "/>
<polyline clip-path="url(#clip1300)" style="stroke:#000000; stroke-width:4; stroke-opacity:1; fill:none" points="
  438.461,359.62 474.687,359.62 
  "/>
<polyline clip-path="url(#clip1300)" style="stroke:#000000; stroke-width:4; stroke-opacity:1; fill:none" points="
  438.461,200.764 474.687,200.764 
  "/>
<g clip-path="url(#clip1300)">
<text style="fill:#000000; fill-opacity:1; font-family:Arial,Helvetica Neue,Helvetica,sans-serif; font-size:71px; text-anchor:middle;" transform="rotate(0, 505.229, 1353.9)" x="505.229" y="1353.9">0</text>
</g>
<g clip-path="url(#clip1300)">
<text style="fill:#000000; fill-opacity:1; font-family:Arial,Helvetica Neue,Helvetica,sans-serif; font-size:71px; text-anchor:middle;" transform="rotate(0, 885.223, 1353.9)" x="885.223" y="1353.9">4</text>
</g>
<g clip-path="url(#clip1300)">
<text style="fill:#000000; fill-opacity:1; font-family:Arial,Helvetica Neue,Helvetica,sans-serif; font-size:71px; text-anchor:middle;" transform="rotate(0, 1265.22, 1353.9)" x="1265.22" y="1353.9">8</text>
</g>
<g clip-path="url(#clip1300)">
<text style="fill:#000000; fill-opacity:1; font-family:Arial,Helvetica Neue,Helvetica,sans-serif; font-size:71px; text-anchor:middle;" transform="rotate(0, 1645.21, 1353.9)" x="1645.21" y="1353.9">12</text>
</g>
<g clip-path="url(#clip1300)">
<text style="fill:#000000; fill-opacity:1; font-family:Arial,Helvetica Neue,Helvetica,sans-serif; font-size:71px; text-anchor:middle;" transform="rotate(0, 2025.2, 1353.9)" x="2025.2" y="1353.9">16</text>
</g>
<g clip-path="url(#clip1300)">
<text style="fill:#000000; fill-opacity:1; font-family:Arial,Helvetica Neue,Helvetica,sans-serif; font-size:71px; text-anchor:middle;" transform="rotate(0, 2405.2, 1353.9)" x="2405.2" y="1353.9">20</text>
</g>
<g clip-path="url(#clip1300)">
<text style="fill:#000000; fill-opacity:1; font-family:Arial,Helvetica Neue,Helvetica,sans-serif; font-size:71px; text-anchor:middle;" transform="rotate(0, 2785.19, 1353.9)" x="2785.19" y="1353.9">24</text>
</g>
<g clip-path="url(#clip1300)">
<text style="fill:#000000; fill-opacity:1; font-family:Arial,Helvetica Neue,Helvetica,sans-serif; font-size:71px; text-anchor:end;" transform="rotate(0, 406.461, 1179.9)" x="406.461" y="1179.9">-5</text>
</g>
<g clip-path="url(#clip1300)">
<text style="fill:#000000; fill-opacity:1; font-family:Arial,Helvetica Neue,Helvetica,sans-serif; font-size:71px; text-anchor:end;" transform="rotate(0, 406.461, 1021.04)" x="406.461" y="1021.04">0</text>
</g>
<g clip-path="url(#clip1300)">
<text style="fill:#000000; fill-opacity:1; font-family:Arial,Helvetica Neue,Helvetica,sans-serif; font-size:71px; text-anchor:end;" transform="rotate(0, 406.461, 862.189)" x="406.461" y="862.189">5</text>
</g>
<g clip-path="url(#clip1300)">
<text style="fill:#000000; fill-opacity:1; font-family:Arial,Helvetica Neue,Helvetica,sans-serif; font-size:71px; text-anchor:end;" transform="rotate(0, 406.461, 703.333)" x="406.461" y="703.333">10</text>
</g>
<g clip-path="url(#clip1300)">
<text style="fill:#000000; fill-opacity:1; font-family:Arial,Helvetica Neue,Helvetica,sans-serif; font-size:71px; text-anchor:end;" transform="rotate(0, 406.461, 544.476)" x="406.461" y="544.476">15</text>
</g>
<g clip-path="url(#clip1300)">
<text style="fill:#000000; fill-opacity:1; font-family:Arial,Helvetica Neue,Helvetica,sans-serif; font-size:71px; text-anchor:end;" transform="rotate(0, 406.461, 385.62)" x="406.461" y="385.62">20</text>
</g>
<g clip-path="url(#clip1300)">
<text style="fill:#000000; fill-opacity:1; font-family:Arial,Helvetica Neue,Helvetica,sans-serif; font-size:71px; text-anchor:end;" transform="rotate(0, 406.461, 226.764)" x="406.461" y="226.764">25</text>
</g>
<g clip-path="url(#clip1300)">
<text style="fill:#000000; fill-opacity:1; font-family:Arial,Helvetica Neue,Helvetica,sans-serif; font-size:95px; text-anchor:middle;" transform="rotate(0, 1646, 1469.75)" x="1646" y="1469.75">Time (hours)</text>
</g>
<g clip-path="url(#clip1300)">
<text style="fill:#000000; fill-opacity:1; font-family:Arial,Helvetica Neue,Helvetica,sans-serif; font-size:95px; text-anchor:middle;" transform="rotate(-90, 167.592, 732.24)" x="167.592" y="732.24">Expected Waiting Time </text>
</g>
<g clip-path="url(#clip1300)">
<text style="fill:#000000; fill-opacity:1; font-family:Arial,Helvetica Neue,Helvetica,sans-serif; font-size:95px; text-anchor:middle;" transform="rotate(-90, 271.272, 732.24)" x="271.272" y="732.24"> Absolute Error: PSA-NS</text>
</g>
<polyline clip-path="url(#clip1302)" style="stroke:#009af9; stroke-width:4; stroke-opacity:1; fill:none" points="
  506.812,995.045 508.396,998.918 509.979,1002.31 511.562,1005.27 513.146,1007.86 514.729,1010.12 516.312,1012.11 517.896,1013.84 519.479,1015.36 521.062,1016.68 
  522.646,1017.84 524.229,1018.86 525.812,1019.74 527.395,1020.52 528.979,1021.2 530.562,1021.79 532.145,1022.31 533.729,1022.76 535.312,1023.16 536.895,1023.51 
  538.479,1023.81 540.062,1024.08 541.645,1024.31 543.229,1024.51 544.812,1024.69 546.395,1024.84 547.978,1024.98 549.562,1025.1 551.145,1025.2 552.728,1025.29 
  554.312,1025.37 555.895,1025.44 557.478,1025.5 559.062,1025.56 560.645,1025.6 562.228,1025.64 563.812,1025.68 565.395,1025.71 566.978,1025.74 568.561,1025.76 
  570.145,1025.78 571.728,1025.8 573.311,1025.82 574.895,1025.83 576.478,1025.84 578.061,1025.85 579.645,1025.86 581.228,1025.87 582.811,1025.88 584.395,1025.88 
  585.978,1025.89 587.561,1025.89 589.144,1025.9 590.728,1025.9 592.311,1025.91 593.894,1025.91 595.478,1025.91 597.061,1025.91 598.644,1025.91 600.228,1025.92 
  601.811,1025.92 603.394,1244.75 604.978,1218.18 606.561,1194.94 608.144,1174.61 609.727,1156.83 611.311,1141.28 612.894,1127.68 614.477,1115.79 616.061,1105.39 
  617.644,1096.29 619.227,1088.34 620.811,1081.38 622.394,1075.29 623.977,1069.97 625.561,1065.31 627.144,1061.24 628.727,1057.68 630.31,1054.57 631.894,1051.84 
  633.477,1049.46 635.06,1047.38 636.644,1045.56 638.227,1043.96 639.81,1042.57 641.394,1041.35 642.977,1040.28 644.56,1039.35 646.144,1038.53 647.727,1037.82 
  649.31,1037.2 650.893,1036.65 652.477,1036.17 654.06,1035.76 655.643,1035.39 657.227,1035.07 658.81,1034.79 660.393,1034.55 661.977,1034.33 663.56,1034.14 
  665.143,1033.98 666.727,1033.83 668.31,1033.71 669.893,1033.6 671.476,1033.5 673.06,1033.41 674.643,1033.34 676.226,1033.27 677.81,1033.21 679.393,1033.16 
  680.976,1033.11 682.56,1033.07 684.143,1033.03 685.726,1032.99 687.31,1032.96 688.893,1032.93 690.476,1032.9 692.059,1032.88 693.643,1032.85 695.226,1032.83 
  696.809,1032.8 698.393,1021.93 699.976,1020.37 701.559,1019.01 703.143,1017.81 704.726,1016.77 706.309,1015.85 707.893,1015.05 709.476,1014.35 711.059,1013.74 
  712.642,1013.21 714.226,1012.74 715.809,1012.32 717.392,1011.96 718.976,1011.65 720.559,1011.37 722.142,1011.13 723.726,1010.92 725.309,1010.73 726.892,1010.57 
  728.476,1010.42 730.059,1010.3 731.642,1010.18 733.225,1010.08 734.809,1010 736.392,1009.92 737.975,1009.85 739.559,1009.79 741.142,1009.74 742.725,1009.69 
  744.309,1009.64 745.892,1009.6 747.475,1009.57 749.059,1009.53 750.642,1009.5 752.225,1009.48 753.808,1009.45 755.392,1009.43 756.975,1009.4 758.558,1009.38 
  760.142,1009.36 761.725,1009.34 763.308,1009.32 764.892,1009.3 766.475,1009.28 768.058,1009.26 769.642,1009.24 771.225,1009.22 772.808,1009.21 774.391,1009.19 
  775.975,1009.17 777.558,1009.15 779.141,1009.13 780.725,1009.11 782.308,1009.08 783.891,1009.06 785.475,1009.04 787.058,1009.02 788.641,1008.99 790.224,1008.97 
  791.808,1008.94 793.391,987.056 794.974,989.112 796.558,990.909 798.141,992.479 799.724,993.852 801.308,995.052 802.891,996.101 804.474,997.018 806.058,997.82 
  807.641,998.521 809.224,999.133 810.807,999.668 812.391,1000.14 813.974,1000.54 815.557,1000.9 817.141,1001.21 818.724,1001.49 820.307,1001.72 821.891,1001.93 
  823.474,1002.11 825.057,1002.27 826.641,1002.41 828.224,1002.53 829.807,1002.63 831.39,1002.72 832.974,1002.8 834.557,1002.87 836.14,1002.93 837.724,1002.98 
  839.307,1003.03 840.89,1003.07 842.474,1003.1 844.057,1003.13 845.64,1003.15 847.224,1003.17 848.807,1003.19 850.39,1003.21 851.973,1003.22 853.557,1003.23 
  855.14,1003.24 856.723,1003.24 858.307,1003.25 859.89,1003.25 861.473,1003.26 863.057,1003.26 864.64,1003.26 866.223,1003.26 867.807,1003.26 869.39,1003.26 
  870.973,1003.26 872.556,1003.25 874.14,1003.25 875.723,1003.25 877.306,1003.24 878.89,1003.24 880.473,1003.24 882.056,1003.23 883.64,1003.23 885.223,1003.22 
  886.806,1003.21 888.39,1037.09 889.973,1030.34 891.556,1024.51 893.139,1019.45 894.723,1015.08 896.306,1011.3 897.889,1008.03 899.473,1005.19 901.056,1002.74 
  902.639,1000.61 904.223,998.763 905.806,997.162 907.389,995.773 908.973,994.567 910.556,993.519 912.139,992.607 913.722,991.813 915.306,991.122 916.889,990.518 
  918.472,989.992 920.056,989.532 921.639,989.129 923.222,988.776 924.806,988.466 926.389,988.194 927.972,987.954 929.556,987.743 931.139,987.556 932.722,987.39 
  934.305,987.243 935.889,987.112 937.472,986.995 939.055,986.891 940.639,986.797 942.222,986.712 943.805,986.636 945.389,986.566 946.972,986.503 948.555,986.446 
  950.139,986.393 951.722,986.344 953.305,986.3 954.888,986.258 956.472,986.22 958.055,986.184 959.638,986.15 961.222,986.119 962.805,986.089 964.388,986.061 
  965.972,986.034 967.555,986.009 969.138,985.985 970.722,985.962 972.305,985.94 973.888,985.919 975.471,985.899 977.055,985.88 978.638,985.861 980.221,985.843 
  981.805,985.825 983.388,966.768 984.971,961.199 986.555,956.297 988.138,951.973 989.721,948.155 991.305,944.783 992.888,941.806 994.471,939.179 996.054,936.862 
  997.638,934.821 999.221,933.022 1000.8,931.439 1002.39,930.047 1003.97,928.823 1005.55,927.747 1007.14,926.802 1008.72,925.972 1010.3,925.244 1011.89,924.606 
  1013.47,924.046 1015.05,923.555 1016.64,923.125 1018.22,922.748 1019.8,922.418 1021.39,922.129 1022.97,921.876 1024.55,921.654 1026.14,921.46 1027.72,921.29 
  1029.3,921.142 1030.89,921.012 1032.47,920.898 1034.05,920.798 1035.64,920.711 1037.22,920.635 1038.8,920.568 1040.39,920.51 1041.97,920.459 1043.55,920.414 
  1045.14,920.375 1046.72,920.341 1048.3,920.311 1049.89,920.285 1051.47,920.262 1053.05,920.242 1054.64,920.224 1056.22,920.209 1057.8,920.196 1059.39,920.184 
  1060.97,920.174 1062.55,920.165 1064.14,920.157 1065.72,920.15 1067.3,920.144 1068.89,920.139 1070.47,920.134 1072.05,920.13 1073.64,920.127 1075.22,920.124 
  1076.8,920.121 1078.39,1020.9 1079.97,1008.06 1081.55,1001.97 1083.14,998.928 1084.72,997.275 1086.3,996.257 1087.89,995.521 1089.47,994.889 1091.05,994.264 
  1092.64,993.586 1094.22,992.814 1095.8,991.915 1097.39,990.862 1098.97,989.628 1100.55,988.189 1102.14,986.519 1103.72,984.596 1105.3,982.395 1106.89,979.894 
  1108.47,977.069 1110.05,973.903 1111.64,970.376 1113.22,966.475 1114.8,962.19 1116.39,957.517 1117.97,952.456 1119.55,947.016 1121.14,941.213 1122.72,935.07 
  1124.3,928.619 1125.89,921.898 1127.47,914.953 1129.05,907.838 1130.64,900.607 1132.22,893.321 1133.8,886.042 1135.39,878.83 1136.97,871.744 1138.55,864.838 
  1140.14,858.161 1141.72,851.757 1143.3,845.661 1144.89,839.9 1146.47,834.495 1148.05,829.457 1149.64,824.792 1151.22,820.499 1152.8,816.569 1154.39,812.992 
  1155.97,809.752 1157.55,806.83 1159.14,804.207 1160.72,801.86 1162.3,799.768 1163.89,797.909 1165.47,796.261 1167.05,794.804 1168.63,793.518 1170.22,792.385 
  1171.8,791.389 1173.38,995.045 1174.97,995.045 1176.55,995.045 1178.13,995.045 1179.72,995.045 1181.3,995.045 1182.88,995.045 1184.47,995.045 1186.05,995.045 
  1187.63,995.045 1189.22,995.045 1190.8,995.045 1192.38,995.045 1193.97,995.045 1195.55,995.045 1197.13,995.045 1198.72,995.045 1200.3,995.045 1201.88,995.045 
  1203.47,995.045 1205.05,995.045 1206.63,995.045 1208.22,995.044 1209.8,995.044 1211.38,995.044 1212.97,995.043 1214.55,995.043 1216.13,995.042 1217.72,995.041 
  1219.3,995.039 1220.88,995.036 1222.47,995.032 1224.05,995.027 1225.63,995.02 1227.22,995.011 1228.8,994.999 1230.38,994.983 1231.97,994.962 1233.55,994.934 
  1235.13,994.899 1236.72,994.854 1238.3,994.798 1239.88,994.726 1241.47,994.637 1243.05,994.527 1244.63,994.391 1246.22,994.225 1247.8,994.024 1249.38,993.781 
  1250.97,993.49 1252.55,993.142 1254.13,992.73 1255.72,992.244 1257.3,991.674 1258.88,991.009 1260.47,990.236 1262.05,989.343 1263.63,988.316 1265.22,987.139 
  1266.8,985.797 1268.38,995.045 1269.97,995.045 1271.55,995.045 1273.13,995.045 1274.72,995.045 1276.3,995.045 1277.88,995.045 1279.47,995.045 1281.05,995.045 
  1282.63,995.045 1284.22,995.045 1285.8,995.045 1287.38,995.045 1288.97,995.045 1290.55,995.045 1292.13,995.045 1293.72,995.045 1295.3,995.045 1296.88,995.044 
  1298.47,995.043 1300.05,995.041 1301.63,995.037 1303.22,995.028 1304.8,995.009 1306.38,994.971 1307.97,994.902 1309.55,994.776 1311.13,994.556 1312.72,994.185 
  1314.3,993.579 1315.88,992.621 1317.47,991.151 1319.05,988.962 1320.63,985.791 1322.22,981.32 1323.8,975.174 1325.38,966.932 1326.97,956.14 1328.55,942.327 
  1330.13,925.041 1331.72,903.879 1333.3,878.53 1334.88,848.824 1336.47,814.773 1338.05,776.609 1339.63,734.801 1341.22,690.052 1342.8,643.263 1344.38,595.47 
  1345.97,547.762 1347.55,501.188 1349.13,456.674 1350.72,414.957 1352.3,376.552 1353.88,341.749 1355.47,310.631 1357.05,283.113 1358.63,258.987 1360.22,237.966 
  1361.8,219.727 1363.38,991.839 1364.97,988.349 1366.55,984.826 1368.13,981.098 1369.72,977.036 1371.3,972.534 1372.88,967.494 1374.46,961.828 1376.05,955.45 
  1377.63,948.284 1379.21,940.258 1380.8,931.308 1382.38,921.381 1383.96,910.435 1385.55,898.442 1387.13,885.388 1388.71,871.277 1390.3,856.133 1391.88,840.001 
  1393.46,822.946 1395.05,805.055 1396.63,786.437 1398.21,767.219 1399.8,747.546 1401.38,727.576 1402.96,707.478 1404.55,687.425 1406.13,667.587 1407.71,648.132 
  1409.3,629.216 1410.88,610.979 1412.46,593.544 1414.05,577.013 1415.63,561.462 1417.21,546.947 1418.8,533.499 1420.38,521.127 1421.96,509.822 1423.55,499.558 
  1425.13,490.292 1426.71,481.973 1428.3,474.541 1429.88,467.931 1431.46,462.076 1433.05,456.906 1434.63,452.356 1436.21,448.36 1437.8,444.859 1439.38,441.796 
  1440.96,439.119 1442.55,436.782 1444.13,434.743 1445.71,432.964 1447.3,431.413 1448.88,430.06 1450.46,428.88 1452.05,427.851 1453.63,426.952 1455.21,426.168 
  1456.8,425.483 1458.38,1104.09 1459.96,1096.43 1461.55,1089.72 1463.13,1083.86 1464.71,1078.73 1466.3,1074.25 1467.88,1070.33 1469.46,1066.9 1471.05,1063.9 
  1472.63,1061.27 1474.21,1058.98 1475.8,1056.97 1477.38,1055.21 1478.96,1053.68 1480.55,1052.33 1482.13,1051.15 1483.71,1050.12 1485.3,1049.22 1486.88,1048.43 
  1488.46,1047.74 1490.05,1047.14 1491.63,1046.61 1493.21,1046.15 1494.8,1045.74 1496.38,1045.38 1497.96,1045.07 1499.55,1044.8 1501.13,1044.55 1502.71,1044.34 
  1504.3,1044.16 1505.88,1043.99 1507.46,1043.85 1509.05,1043.72 1510.63,1043.61 1512.21,1043.51 1513.8,1043.42 1515.38,1043.34 1516.96,1043.27 1518.55,1043.21 
  1520.13,1043.16 1521.71,1043.11 1523.3,1043.06 1524.88,1043.02 1526.46,1042.98 1528.05,1042.95 1529.63,1042.92 1531.21,1042.89 1532.8,1042.86 1534.38,1042.84 
  1535.96,1042.81 1537.55,1042.79 1539.13,1042.77 1540.71,1042.75 1542.3,1042.73 1543.88,1042.71 1545.46,1042.69 1547.05,1042.68 1548.63,1042.66 1550.21,1042.64 
  1551.8,1042.62 1553.38,1148.59 1554.96,1143.8 1556.55,1139.59 1558.13,1135.9 1559.71,1132.66 1561.3,1129.8 1562.88,1127.3 1564.46,1125.09 1566.05,1123.14 
  1567.63,1121.42 1569.21,1119.9 1570.8,1118.55 1572.38,1117.34 1573.96,1116.27 1575.55,1115.31 1577.13,1114.45 1578.71,1113.67 1580.29,1112.97 1581.88,1112.32 
  1583.46,1111.73 1585.04,1111.19 1586.63,1110.68 1588.21,1110.21 1589.79,1109.76 1591.38,1109.34 1592.96,1108.93 1594.54,1108.54 1596.13,1108.16 1597.71,1107.79 
  1599.29,1107.42 1600.88,1107.06 1602.46,1106.7 1604.04,1106.34 1605.63,1105.98 1607.21,1105.61 1608.79,1105.24 1610.38,1104.87 1611.96,1104.48 1613.54,1104.1 
  1615.13,1103.7 1616.71,1103.29 1618.29,1102.88 1619.88,1102.45 1621.46,1102.02 1623.04,1101.57 1624.63,1101.11 1626.21,1100.64 1627.79,1100.16 1629.38,1099.66 
  1630.96,1099.15 1632.54,1098.63 1634.13,1098.1 1635.71,1097.55 1637.29,1096.99 1638.88,1096.41 1640.46,1095.82 1642.04,1095.21 1643.63,1094.6 1645.21,1093.96 
  1646.79,1093.32 1648.38,1114.8 1649.96,1117.53 1651.54,1119.71 1653.13,1121.42 1654.71,1122.74 1656.29,1123.71 1657.88,1124.38 1659.46,1124.79 1661.04,1124.97 
  1662.63,1124.94 1664.21,1124.72 1665.79,1124.33 1667.38,1123.8 1668.96,1123.13 1670.54,1122.33 1672.13,1121.43 1673.71,1120.42 1675.29,1119.33 1676.88,1118.15 
  1678.46,1116.89 1680.04,1115.56 1681.63,1114.16 1683.21,1112.71 1684.79,1111.2 1686.38,1109.64 1687.96,1108.04 1689.54,1106.39 1691.13,1104.7 1692.71,1102.97 
  1694.29,1101.22 1695.88,1099.43 1697.46,1097.62 1699.04,1095.78 1700.63,1093.92 1702.21,1092.04 1703.79,1090.15 1705.38,1088.24 1706.96,1086.32 1708.54,1084.39 
  1710.13,1082.46 1711.71,1080.52 1713.29,1078.58 1714.88,1076.63 1716.46,1074.69 1718.04,1072.76 1719.63,1070.83 1721.21,1068.91 1722.79,1067 1724.38,1065.1 
  1725.96,1063.22 1727.54,1061.35 1729.13,1059.5 1730.71,1057.66 1732.29,1055.85 1733.88,1054.06 1735.46,1052.29 1737.04,1050.55 1738.63,1048.83 1740.21,1047.14 
  1741.79,1045.48 1743.38,522.138 1744.96,577.291 1746.54,627.004 1748.13,671.292 1749.71,710.446 1751.29,744.884 1752.88,775.074 1754.46,801.476 1756.04,824.528 
  1757.63,844.633 1759.21,862.151 1760.79,877.407 1762.38,890.687 1763.96,902.242 1765.54,912.293 1767.13,921.035 1768.71,928.637 1770.29,935.247 1771.88,940.993 
  1773.46,945.987 1775.04,950.328 1776.63,954.101 1778.21,957.38 1779.79,960.229 1781.37,962.704 1782.96,964.855 1784.54,966.723 1786.12,968.345 1787.71,969.754 
  1789.29,970.977 1790.87,972.039 1792.46,972.96 1794.04,973.76 1795.62,974.453 1797.21,975.054 1798.79,975.575 1800.37,976.026 1801.96,976.417 1803.54,976.755 
  1805.12,977.047 1806.71,977.299 1808.29,977.516 1809.87,977.704 1811.46,977.865 1813.04,978.003 1814.62,978.122 1816.21,978.223 1817.79,978.309 1819.37,978.383 
  1820.96,978.445 1822.54,978.497 1824.12,978.54 1825.71,978.577 1827.29,978.606 1828.87,978.63 1830.46,978.65 1832.04,978.665 1833.62,978.676 1835.21,978.684 
  1836.79,978.689 1838.37,468.356 1839.96,543.337 1841.54,609.256 1843.12,667.083 1844.71,717.748 1846.29,762.103 1847.87,800.912 1849.46,834.857 1851.04,864.541 
  1852.62,890.492 1854.21,913.176 1855.79,933.002 1857.37,950.328 1858.96,965.466 1860.54,978.691 1862.12,990.242 1863.71,1000.33 1865.29,1009.14 1866.87,1016.83 
  1868.46,1023.54 1870.04,1029.4 1871.62,1034.51 1873.21,1038.96 1874.79,1042.84 1876.37,1046.22 1877.96,1049.16 1879.54,1051.72 1881.12,1053.95 1882.71,1055.88 
  1884.29,1057.56 1885.87,1059.01 1887.46,1060.26 1889.04,1061.34 1890.62,1062.28 1892.21,1063.08 1893.79,1063.76 1895.37,1064.34 1896.96,1064.83 1898.54,1065.25 
  1900.12,1065.59 1901.71,1065.88 1903.29,1066.11 1904.87,1066.29 1906.46,1066.43 1908.04,1066.54 1909.62,1066.61 1911.21,1066.66 1912.79,1066.68 1914.37,1066.67 
  1915.96,1066.65 1917.54,1066.6 1919.12,1066.54 1920.71,1066.47 1922.29,1066.38 1923.87,1066.28 1925.46,1066.17 1927.04,1066.04 1928.62,1065.91 1930.21,1065.77 
  1931.79,1065.62 1933.37,1169.88 1934.96,1163.16 1936.54,1157.23 1938.12,1152 1939.71,1147.39 1941.29,1143.32 1942.87,1139.72 1944.46,1136.53 1946.04,1133.7 
  1947.62,1131.18 1949.21,1128.93 1950.79,1126.91 1952.37,1125.1 1953.96,1123.45 1955.54,1121.96 1957.12,1120.6 1958.71,1119.35 1960.29,1118.19 1961.87,1117.11 
  1963.46,1116.1 1965.04,1115.14 1966.62,1114.23 1968.21,1113.36 1969.79,1112.51 1971.37,1111.7 1972.96,1110.89 1974.54,1110.11 1976.12,1109.33 1977.71,1108.55 
  1979.29,1107.78 1980.87,1107 1982.46,1106.22 1984.04,1105.44 1985.62,1104.64 1987.2,1103.84 1988.79,1103.02 1990.37,1102.19 1991.95,1101.34 1993.54,1100.48 
  1995.12,1099.61 1996.7,1098.72 1998.29,1097.81 1999.87,1096.88 2001.45,1095.94 2003.04,1094.98 2004.62,1094 2006.2,1093.01 2007.79,1091.99 2009.37,1090.96 
  2010.95,1089.91 2012.54,1088.85 2014.12,1087.76 2015.7,1086.67 2017.29,1085.55 2018.87,1084.42 2020.45,1083.27 2022.04,1082.12 2023.62,1080.94 2025.2,1079.76 
  2026.79,1078.56 2028.37,774.514 2029.95,849.98 2031.54,915.518 2033.12,972.336 2034.7,1021.46 2036.29,1063.78 2037.87,1100.07 2039.45,1130.97 2041.04,1157.08 
  2042.62,1178.89 2044.2,1196.84 2045.79,1211.3 2047.37,1222.61 2048.95,1231.07 2050.54,1236.93 2052.12,1240.43 2053.7,1241.79 2055.29,1241.2 2056.87,1238.87 
  2058.45,1234.95 2060.04,1229.63 2061.62,1223.07 2063.2,1215.44 2064.79,1206.88 2066.37,1197.56 2067.95,1187.63 2069.54,1177.24 2071.12,1166.51 2072.7,1155.6 
  2074.29,1144.62 2075.87,1133.7 2077.45,1122.93 2079.04,1112.41 2080.62,1102.23 2082.2,1092.45 2083.79,1083.14 2085.37,1074.34 2086.95,1066.08 2088.54,1058.38 
  2090.12,1051.26 2091.7,1044.71 2093.29,1038.73 2094.87,1033.3 2096.45,1028.4 2098.04,1024 2099.62,1020.07 2101.2,1016.59 2102.79,1013.52 2104.37,1010.82 
  2105.95,1008.46 2107.54,1006.4 2109.12,1004.63 2110.7,1003.09 2112.29,1001.78 2113.87,1000.66 2115.45,999.703 2117.04,998.894 2118.62,998.212 2120.2,997.64 
  2121.79,997.162 2123.37,717.744 2124.95,789.635 2126.54,852.045 2128.12,906.173 2129.7,953.042 2131.29,993.529 2132.87,1028.39 2134.45,1058.29 2136.04,1083.78 
  2137.62,1105.36 2139.2,1123.46 2140.79,1138.46 2142.37,1150.68 2143.95,1160.41 2145.54,1167.91 2147.12,1173.39 2148.7,1177.07 2150.29,1179.12 2151.87,1179.71 
  2153.45,1178.98 2155.04,1177.08 2156.62,1174.14 2158.2,1170.28 2159.79,1165.61 2161.37,1160.25 2162.95,1154.3 2164.54,1147.86 2166.12,1141.03 2167.7,1133.9 
  2169.29,1126.55 2170.87,1119.06 2172.45,1111.52 2174.04,1103.99 2175.62,1096.53 2177.2,1089.2 2178.79,1082.06 2180.37,1075.14 2181.95,1068.48 2183.54,1062.12 
  2185.12,1056.08 2186.7,1050.37 2188.29,1045.01 2189.87,1040.01 2191.45,1035.36 2193.03,1031.06 2194.62,1027.1 2196.2,1023.48 2197.78,1020.19 2199.37,1017.19 
  2200.95,1014.49 2202.53,1012.06 2204.12,1009.89 2205.7,1007.95 2207.28,1006.22 2208.87,1004.7 2210.45,1003.35 2212.03,1002.17 2213.62,1001.14 2215.2,1000.24 
  2216.78,999.453 2218.37,760.158 2219.95,812.623 2221.53,858.189 2223.12,897.762 2224.7,932.115 2226.28,961.905 2227.87,987.701 2229.45,1010 2231.03,1029.21 
  2232.62,1045.73 2234.2,1059.87 2235.78,1071.9 2237.37,1082.09 2238.95,1090.64 2240.53,1097.75 2242.12,1103.57 2243.7,1108.25 2245.28,1111.92 2246.87,1114.69 
  2248.45,1116.66 2250.03,1117.92 2251.62,1118.53 2253.2,1118.58 2254.78,1118.11 2256.37,1117.2 2257.95,1115.87 2259.53,1114.19 2261.12,1112.19 2262.7,1109.9 
  2264.28,1107.37 2265.87,1104.61 2267.45,1101.68 2269.03,1098.58 2270.62,1095.34 2272.2,1092 2273.78,1088.57 2275.37,1085.07 2276.95,1081.53 2278.53,1077.95 
  2280.12,1074.37 2281.7,1070.79 2283.28,1067.23 2284.87,1063.7 2286.45,1060.22 2288.03,1056.8 2289.62,1053.45 2291.2,1050.18 2292.78,1046.99 2294.37,1043.9 
  2295.95,1040.9 2297.53,1038.02 2299.12,1035.24 2300.7,1032.57 2302.28,1030.02 2303.87,1027.59 2305.45,1025.27 2307.03,1023.07 2308.62,1020.98 2310.2,1019.01 
  2311.78,1017.15 2313.37,568.32 2314.95,631.997 2316.53,688.777 2318.12,739.038 2319.7,783.313 2321.28,822.185 2322.87,856.23 2324.45,885.992 2326.03,911.972 
  2327.62,934.619 2329.2,954.335 2330.78,971.477 2332.37,986.361 2333.95,999.265 2335.53,1010.43 2337.12,1020.08 2338.7,1028.39 2340.28,1035.53 2341.87,1041.65 
  2343.45,1046.87 2345.03,1051.3 2346.62,1055.03 2348.2,1058.17 2349.78,1060.76 2351.37,1062.89 2352.95,1064.6 2354.53,1065.96 2356.12,1066.99 2357.7,1067.74 
  2359.28,1068.24 2360.87,1068.52 2362.45,1068.61 2364.03,1068.52 2365.62,1068.28 2367.2,1067.9 2368.78,1067.41 2370.37,1066.81 2371.95,1066.11 2373.53,1065.32 
  2375.12,1064.47 2376.7,1063.54 2378.28,1062.55 2379.87,1061.52 2381.45,1060.43 2383.03,1059.3 2384.62,1058.14 2386.2,1056.94 2387.78,1055.71 2389.37,1054.46 
  2390.95,1053.19 2392.53,1051.9 2394.11,1050.6 2395.7,1049.29 2397.28,1047.96 2398.86,1046.63 2400.45,1045.3 2402.03,1043.96 2403.61,1042.63 2405.2,1041.29 
  2406.78,1039.96 2408.36,1014.86 2409.95,1023.57 2411.53,1030.98 2413.11,1037.27 2414.7,1042.6 2416.28,1047.12 2417.86,1050.92 2419.45,1054.11 2421.03,1056.75 
  2422.61,1058.92 2424.2,1060.68 2425.78,1062.08 2427.36,1063.15 2428.95,1063.95 2430.53,1064.5 2432.11,1064.83 2433.7,1064.96 2435.28,1064.93 2436.86,1064.74 
  2438.45,1064.42 2440.03,1063.98 2441.61,1063.43 2443.2,1062.79 2444.78,1062.07 2446.36,1061.27 2447.95,1060.4 2449.53,1059.48 2451.11,1058.5 2452.7,1057.47 
  2454.28,1056.4 2455.86,1055.3 2457.45,1054.17 2459.03,1053 2460.61,1051.81 2462.2,1050.6 2463.78,1049.37 2465.36,1048.13 2466.95,1046.88 2468.53,1045.61 
  2470.11,1044.34 2471.7,1043.07 2473.28,1041.79 2474.86,1040.51 2476.45,1039.24 2478.03,1037.96 2479.61,1036.7 2481.2,1035.44 2482.78,1034.19 2484.36,1032.95 
  2485.95,1031.72 2487.53,1030.51 2489.11,1029.31 2490.7,1028.13 2492.28,1026.97 2493.86,1025.82 2495.45,1024.69 2497.03,1023.58 2498.61,1022.5 2500.2,1021.43 
  2501.78,1020.39 2503.36,999.381 2504.95,1011.9 2506.53,1022.48 2508.11,1031.4 2509.7,1038.91 2511.28,1045.18 2512.86,1050.38 2514.45,1054.65 2516.03,1058.11 
  2517.61,1060.85 2519.2,1062.97 2520.78,1064.54 2522.36,1065.63 2523.95,1066.29 2525.53,1066.58 2527.11,1066.55 2528.7,1066.23 2530.28,1065.66 2531.86,1064.87 
  2533.45,1063.88 2535.03,1062.74 2536.61,1061.44 2538.2,1060.03 2539.78,1058.5 2541.36,1056.89 2542.95,1055.2 2544.53,1053.46 2546.11,1051.66 2547.7,1049.82 
  2549.28,1047.96 2550.86,1046.08 2552.45,1044.18 2554.03,1042.29 2555.61,1040.4 2557.2,1038.52 2558.78,1036.66 2560.36,1034.82 2561.95,1033.01 2563.53,1031.23 
  2565.11,1029.48 2566.7,1027.78 2568.28,1026.11 2569.86,1024.49 2571.45,1022.92 2573.03,1021.39 2574.61,1019.92 2576.2,1018.49 2577.78,1017.12 2579.36,1015.8 
  2580.95,1014.54 2582.53,1013.32 2584.11,1012.16 2585.7,1011.05 2587.28,1010 2588.86,1008.99 2590.45,1008.04 2592.03,1007.13 2593.61,1006.27 2595.2,1005.46 
  2596.78,1004.7 2598.36,956.214 2599.94,973.665 2601.53,988.493 2603.11,1001.07 2604.69,1011.72 2606.28,1020.7 2607.86,1028.22 2609.44,1034.48 2611.03,1039.63 
  2612.61,1043.82 2614.19,1047.16 2615.78,1049.76 2617.36,1051.72 2618.94,1053.12 2620.53,1054.01 2622.11,1054.48 2623.69,1054.57 2625.28,1054.34 2626.86,1053.82 
  2628.44,1053.06 2630.03,1052.09 2631.61,1050.94 2633.19,1049.64 2634.78,1048.21 2636.36,1046.67 2637.94,1045.05 2639.53,1043.37 2641.11,1041.63 2642.69,1039.85 
  2644.28,1038.05 2645.86,1036.23 2647.44,1034.41 2649.03,1032.6 2650.61,1030.81 2652.19,1029.03 2653.78,1027.29 2655.36,1025.58 2656.94,1023.91 2658.53,1022.28 
  2660.11,1020.7 2661.69,1019.17 2663.28,1017.7 2664.86,1016.27 2666.44,1014.91 2668.03,1013.6 2669.61,1012.34 2671.19,1011.15 2672.78,1010.01 2674.36,1008.93 
  2675.94,1007.91 2677.53,1006.95 2679.11,1006.03 2680.69,1005.17 2682.28,1004.37 2683.86,1003.61 2685.44,1002.9 2687.03,1002.24 2688.61,1001.62 2690.19,1001.04 
  2691.78,1000.51 2693.36,1015.85 2694.94,1019.55 2696.53,1022.1 2698.11,1023.74 2699.69,1024.66 2701.28,1025.02 2702.86,1024.91 2704.44,1024.45 2706.03,1023.71 
  2707.61,1022.76 2709.19,1021.64 2710.78,1020.4 2712.36,1019.09 2713.94,1017.72 2715.53,1016.34 2717.11,1014.95 2718.69,1013.58 2720.28,1012.23 2721.86,1010.93 
  2723.44,1009.68 2725.03,1008.48 2726.61,1007.34 2728.19,1006.27 2729.78,1005.25 2731.36,1004.3 2732.94,1003.42 2734.53,1002.6 2736.11,1001.84 2737.69,1001.14 
  2739.28,1000.5 2740.86,999.912 2742.44,999.375 2744.03,998.887 2745.61,998.444 2747.19,998.044 2748.78,997.684 2750.36,997.36 2751.94,997.07 2753.53,996.81 
  2755.11,996.58 2756.69,996.375 2758.28,996.194 2759.86,996.034 2761.44,995.894 2763.03,995.771 2764.61,995.663 2766.19,995.57 2767.78,995.489 2769.36,995.419 
  2770.94,995.359 2772.53,995.307 2774.11,995.263 2775.69,995.226 2777.28,995.194 2778.86,995.167 2780.44,995.145 2782.03,995.126 2783.61,995.111 2785.19,995.098 
  
  "/>
</svg>
