<?xml version="1.0" encoding="utf-8"?>
<svg xmlns="http://www.w3.org/2000/svg" xmlns:xlink="http://www.w3.org/1999/xlink" width="800" height="400" viewBox="0 0 3200 1600">
<defs>
  <clipPath id="clip7700">
    <rect x="0" y="0" width="3200" height="1600"/>
  </clipPath>
</defs>
<polygon clip-path="url(#clip7700)" points="
0,1600 3200,1600 3200,0 0,0 
  " fill="#ffffff" fill-rule="evenodd" fill-opacity="1"/>
<defs>
  <clipPath id="clip7701">
    <rect x="640" y="0" width="2241" height="1600"/>
  </clipPath>
</defs>
<polygon clip-path="url(#clip7700)" points="
580.683,1275.5 2853.54,1275.5 2853.54,188.976 580.683,188.976 
  " fill="#ffffff" fill-rule="evenodd" fill-opacity="1"/>
<defs>
  <clipPath id="clip7702">
    <rect x="580" y="188" width="2274" height="1088"/>
  </clipPath>
</defs>
<polyline clip-path="url(#clip7702)" style="stroke:#000000; stroke-width:2; stroke-opacity:0.1; fill:none" points="
  643.519,1275.5 643.519,188.976 
  "/>
<polyline clip-path="url(#clip7702)" style="stroke:#000000; stroke-width:2; stroke-opacity:0.1; fill:none" points="
  1001.14,1275.5 1001.14,188.976 
  "/>
<polyline clip-path="url(#clip7702)" style="stroke:#000000; stroke-width:2; stroke-opacity:0.1; fill:none" points="
  1358.75,1275.5 1358.75,188.976 
  "/>
<polyline clip-path="url(#clip7702)" style="stroke:#000000; stroke-width:2; stroke-opacity:0.1; fill:none" points="
  1716.37,1275.5 1716.37,188.976 
  "/>
<polyline clip-path="url(#clip7702)" style="stroke:#000000; stroke-width:2; stroke-opacity:0.1; fill:none" points="
  2073.98,1275.5 2073.98,188.976 
  "/>
<polyline clip-path="url(#clip7702)" style="stroke:#000000; stroke-width:2; stroke-opacity:0.1; fill:none" points="
  2431.6,1275.5 2431.6,188.976 
  "/>
<polyline clip-path="url(#clip7702)" style="stroke:#000000; stroke-width:2; stroke-opacity:0.1; fill:none" points="
  2789.22,1275.5 2789.22,188.976 
  "/>
<polyline clip-path="url(#clip7702)" style="stroke:#000000; stroke-width:2; stroke-opacity:0.1; fill:none" points="
  580.683,1244.75 2853.54,1244.75 
  "/>
<polyline clip-path="url(#clip7702)" style="stroke:#000000; stroke-width:2; stroke-opacity:0.1; fill:none" points="
  580.683,901.956 2853.54,901.956 
  "/>
<polyline clip-path="url(#clip7702)" style="stroke:#000000; stroke-width:2; stroke-opacity:0.1; fill:none" points="
  580.683,559.159 2853.54,559.159 
  "/>
<polyline clip-path="url(#clip7702)" style="stroke:#000000; stroke-width:2; stroke-opacity:0.1; fill:none" points="
  580.683,216.363 2853.54,216.363 
  "/>
<polyline clip-path="url(#clip7700)" style="stroke:#000000; stroke-width:4; stroke-opacity:1; fill:none" points="
  580.683,1275.5 2853.54,1275.5 
  "/>
<polyline clip-path="url(#clip7700)" style="stroke:#000000; stroke-width:4; stroke-opacity:1; fill:none" points="
  580.683,1275.5 580.683,188.976 
  "/>
<polyline clip-path="url(#clip7700)" style="stroke:#000000; stroke-width:4; stroke-opacity:1; fill:none" points="
  643.519,1275.5 643.519,1259.21 
  "/>
<polyline clip-path="url(#clip7700)" style="stroke:#000000; stroke-width:4; stroke-opacity:1; fill:none" points="
  1001.14,1275.5 1001.14,1259.21 
  "/>
<polyline clip-path="url(#clip7700)" style="stroke:#000000; stroke-width:4; stroke-opacity:1; fill:none" points="
  1358.75,1275.5 1358.75,1259.21 
  "/>
<polyline clip-path="url(#clip7700)" style="stroke:#000000; stroke-width:4; stroke-opacity:1; fill:none" points="
  1716.37,1275.5 1716.37,1259.21 
  "/>
<polyline clip-path="url(#clip7700)" style="stroke:#000000; stroke-width:4; stroke-opacity:1; fill:none" points="
  2073.98,1275.5 2073.98,1259.21 
  "/>
<polyline clip-path="url(#clip7700)" style="stroke:#000000; stroke-width:4; stroke-opacity:1; fill:none" points="
  2431.6,1275.5 2431.6,1259.21 
  "/>
<polyline clip-path="url(#clip7700)" style="stroke:#000000; stroke-width:4; stroke-opacity:1; fill:none" points="
  2789.22,1275.5 2789.22,1259.21 
  "/>
<polyline clip-path="url(#clip7700)" style="stroke:#000000; stroke-width:4; stroke-opacity:1; fill:none" points="
  580.683,1244.75 614.776,1244.75 
  "/>
<polyline clip-path="url(#clip7700)" style="stroke:#000000; stroke-width:4; stroke-opacity:1; fill:none" points="
  580.683,901.956 614.776,901.956 
  "/>
<polyline clip-path="url(#clip7700)" style="stroke:#000000; stroke-width:4; stroke-opacity:1; fill:none" points="
  580.683,559.159 614.776,559.159 
  "/>
<polyline clip-path="url(#clip7700)" style="stroke:#000000; stroke-width:4; stroke-opacity:1; fill:none" points="
  580.683,216.363 614.776,216.363 
  "/>
<g clip-path="url(#clip7700)">
<text style="fill:#000000; fill-opacity:1; font-family:Arial,Helvetica Neue,Helvetica,sans-serif; font-size:71px; text-anchor:middle;" transform="rotate(0, 643.519, 1353.9)" x="643.519" y="1353.9">0</text>
</g>
<g clip-path="url(#clip7700)">
<text style="fill:#000000; fill-opacity:1; font-family:Arial,Helvetica Neue,Helvetica,sans-serif; font-size:71px; text-anchor:middle;" transform="rotate(0, 1001.14, 1353.9)" x="1001.14" y="1353.9">4</text>
</g>
<g clip-path="url(#clip7700)">
<text style="fill:#000000; fill-opacity:1; font-family:Arial,Helvetica Neue,Helvetica,sans-serif; font-size:71px; text-anchor:middle;" transform="rotate(0, 1358.75, 1353.9)" x="1358.75" y="1353.9">8</text>
</g>
<g clip-path="url(#clip7700)">
<text style="fill:#000000; fill-opacity:1; font-family:Arial,Helvetica Neue,Helvetica,sans-serif; font-size:71px; text-anchor:middle;" transform="rotate(0, 1716.37, 1353.9)" x="1716.37" y="1353.9">12</text>
</g>
<g clip-path="url(#clip7700)">
<text style="fill:#000000; fill-opacity:1; font-family:Arial,Helvetica Neue,Helvetica,sans-serif; font-size:71px; text-anchor:middle;" transform="rotate(0, 2073.98, 1353.9)" x="2073.98" y="1353.9">16</text>
</g>
<g clip-path="url(#clip7700)">
<text style="fill:#000000; fill-opacity:1; font-family:Arial,Helvetica Neue,Helvetica,sans-serif; font-size:71px; text-anchor:middle;" transform="rotate(0, 2431.6, 1353.9)" x="2431.6" y="1353.9">20</text>
</g>
<g clip-path="url(#clip7700)">
<text style="fill:#000000; fill-opacity:1; font-family:Arial,Helvetica Neue,Helvetica,sans-serif; font-size:71px; text-anchor:middle;" transform="rotate(0, 2789.22, 1353.9)" x="2789.22" y="1353.9">24</text>
</g>
<g clip-path="url(#clip7700)">
<text style="fill:#000000; fill-opacity:1; font-family:Arial,Helvetica Neue,Helvetica,sans-serif; font-size:71px; text-anchor:end;" transform="rotate(0, 548.683, 1270.75)" x="548.683" y="1270.75">0</text>
</g>
<g clip-path="url(#clip7700)">
<text style="fill:#000000; fill-opacity:1; font-family:Arial,Helvetica Neue,Helvetica,sans-serif; font-size:71px; text-anchor:end;" transform="rotate(0, 548.683, 927.956)" x="548.683" y="927.956">100</text>
</g>
<g clip-path="url(#clip7700)">
<text style="fill:#000000; fill-opacity:1; font-family:Arial,Helvetica Neue,Helvetica,sans-serif; font-size:71px; text-anchor:end;" transform="rotate(0, 548.683, 585.159)" x="548.683" y="585.159">200</text>
</g>
<g clip-path="url(#clip7700)">
<text style="fill:#000000; fill-opacity:1; font-family:Arial,Helvetica Neue,Helvetica,sans-serif; font-size:71px; text-anchor:end;" transform="rotate(0, 548.683, 242.363)" x="548.683" y="242.363">300</text>
</g>
<g clip-path="url(#clip7700)">
<text style="fill:#000000; fill-opacity:1; font-family:Arial,Helvetica Neue,Helvetica,sans-serif; font-size:95px; text-anchor:middle;" transform="rotate(0, 1717.11, 1469.75)" x="1717.11" y="1469.75">Time (hours)</text>
</g>
<g clip-path="url(#clip7700)">
<text style="fill:#000000; fill-opacity:1; font-family:Arial,Helvetica Neue,Helvetica,sans-serif; font-size:95px; text-anchor:middle;" transform="rotate(-90, 378.453, 732.24)" x="378.453" y="732.24">Expected Waiting Time</text>
</g>
<polyline clip-path="url(#clip7702)" style="stroke:#009af9; stroke-width:4; stroke-opacity:1; fill:none" points="
  645.009,903.139 646.499,904.478 647.989,905.818 649.479,907.157 650.97,908.497 652.46,909.836 653.95,911.176 655.44,912.515 656.93,913.855 658.42,915.194 
  659.91,916.534 661.4,917.873 662.89,919.213 664.38,920.552 665.87,921.892 667.36,923.231 668.85,924.571 670.34,925.91 671.83,927.25 673.321,928.59 
  674.811,929.929 676.301,931.269 677.791,932.608 679.281,933.948 680.771,935.287 682.261,936.627 683.751,937.966 685.241,939.306 686.731,940.645 688.221,941.985 
  689.711,943.324 691.201,944.664 692.691,946.003 694.181,947.343 695.672,948.682 697.162,950.022 698.652,951.361 700.142,952.701 701.632,954.04 703.122,955.38 
  704.612,956.719 706.102,958.059 707.592,959.398 709.082,960.738 710.572,962.077 712.062,963.417 713.552,964.756 715.042,966.096 716.533,967.435 718.023,968.775 
  719.513,970.114 721.003,971.454 722.493,972.793 723.983,974.133 725.473,975.472 726.963,976.812 728.453,978.151 729.943,979.491 731.433,980.83 732.923,982.17 
  734.413,983.509 735.903,1065.82 737.393,1067.46 738.884,1069.1 740.374,1070.74 741.864,1072.38 743.354,1074.02 744.844,1075.66 746.334,1077.3 747.824,1078.94 
  749.314,1080.58 750.804,1082.22 752.294,1083.86 753.784,1085.49 755.274,1087.13 756.764,1088.77 758.254,1090.41 759.744,1092.05 761.235,1093.69 762.725,1095.33 
  764.215,1096.97 765.705,1098.61 767.195,1100.25 768.685,1101.89 770.175,1103.53 771.665,1105.17 773.155,1106.81 774.645,1108.45 776.135,1110.09 777.625,1111.73 
  779.115,1113.37 780.605,1115.01 782.095,1116.65 783.586,1118.29 785.076,1119.93 786.566,1121.57 788.056,1123.21 789.546,1124.85 791.036,1126.49 792.526,1128.12 
  794.016,1129.76 795.506,1131.4 796.996,1133.04 798.486,1134.68 799.976,1136.32 801.466,1137.96 802.956,1139.6 804.447,1141.24 805.937,1142.87 807.427,1144.51 
  808.917,1146.15 810.407,1147.79 811.897,1149.42 813.387,1151.06 814.877,1152.7 816.367,1154.33 817.857,1155.97 819.347,1157.6 820.837,1159.24 822.327,1160.87 
  823.817,1162.5 825.307,1160.19 826.798,1160.82 828.288,1161.45 829.778,1162.08 831.268,1162.7 832.758,1163.33 834.248,1163.96 835.738,1164.59 837.228,1165.21 
  838.718,1165.84 840.208,1166.47 841.698,1167.1 843.188,1167.72 844.678,1168.35 846.168,1168.98 847.658,1169.6 849.149,1170.23 850.639,1170.85 852.129,1171.48 
  853.619,1172.11 855.109,1172.73 856.599,1173.36 858.089,1173.98 859.579,1174.61 861.069,1175.23 862.559,1175.85 864.049,1176.48 865.539,1177.1 867.029,1177.73 
  868.519,1178.35 870.01,1178.97 871.5,1179.59 872.99,1180.22 874.48,1180.84 875.97,1181.46 877.46,1182.08 878.95,1182.7 880.44,1183.32 881.93,1183.94 
  883.42,1184.56 884.91,1185.18 886.4,1185.8 887.89,1186.42 889.38,1187.03 890.87,1187.65 892.361,1188.27 893.851,1188.88 895.341,1189.5 896.831,1190.11 
  898.321,1190.73 899.811,1191.34 901.301,1191.95 902.791,1192.56 904.281,1193.17 905.771,1193.78 907.261,1194.39 908.751,1195 910.241,1195.61 911.731,1196.22 
  913.221,1196.82 914.712,1179.24 916.202,1179.6 917.692,1179.96 919.182,1180.33 920.672,1180.69 922.162,1181.05 923.652,1181.42 925.142,1181.78 926.632,1182.14 
  928.122,1182.51 929.612,1182.87 931.102,1183.23 932.592,1183.59 934.082,1183.96 935.572,1184.32 937.063,1184.68 938.553,1185.05 940.043,1185.41 941.533,1185.77 
  943.023,1186.13 944.513,1186.5 946.003,1186.86 947.493,1187.22 948.983,1187.58 950.473,1187.94 951.963,1188.31 953.453,1188.67 954.943,1189.03 956.433,1189.39 
  957.924,1189.75 959.414,1190.11 960.904,1190.47 962.394,1190.84 963.884,1191.2 965.374,1191.56 966.864,1191.92 968.354,1192.28 969.844,1192.64 971.334,1193 
  972.824,1193.36 974.314,1193.72 975.804,1194.08 977.294,1194.44 978.784,1194.8 980.275,1195.16 981.765,1195.52 983.255,1195.88 984.745,1196.24 986.235,1196.6 
  987.725,1196.95 989.215,1197.31 990.705,1197.67 992.195,1198.03 993.685,1198.39 995.175,1198.75 996.665,1199.1 998.155,1199.46 999.645,1199.82 1001.14,1200.17 
  1002.63,1200.53 1004.12,1213.65 1005.61,1213.28 1007.1,1212.9 1008.59,1212.53 1010.08,1212.15 1011.57,1211.78 1013.06,1211.4 1014.55,1211.02 1016.04,1210.64 
  1017.53,1210.26 1019.02,1209.88 1020.51,1209.5 1022,1209.11 1023.49,1208.73 1024.98,1208.34 1026.47,1207.95 1027.96,1207.57 1029.45,1207.18 1030.94,1206.79 
  1032.43,1206.4 1033.92,1206 1035.41,1205.61 1036.9,1205.22 1038.39,1204.83 1039.88,1204.43 1041.37,1204.04 1042.86,1203.64 1044.35,1203.24 1045.84,1202.84 
  1047.33,1202.45 1048.82,1202.05 1050.31,1201.65 1051.8,1201.25 1053.29,1200.85 1054.78,1200.44 1056.27,1200.04 1057.76,1199.64 1059.25,1199.24 1060.74,1198.83 
  1062.23,1198.43 1063.72,1198.02 1065.21,1197.62 1066.7,1197.21 1068.19,1196.8 1069.68,1196.4 1071.17,1195.99 1072.66,1195.58 1074.15,1195.17 1075.64,1194.76 
  1077.13,1194.35 1078.62,1193.94 1080.11,1193.53 1081.6,1193.12 1083.09,1192.71 1084.58,1192.3 1086.07,1191.89 1087.56,1191.47 1089.05,1191.06 1090.54,1190.65 
  1092.03,1190.23 1093.52,1192.79 1095.01,1189.64 1096.5,1186.47 1097.99,1183.29 1099.48,1180.09 1100.97,1176.89 1102.46,1173.67 1103.95,1170.45 1105.44,1167.22 
  1106.93,1163.98 1108.42,1160.75 1109.91,1157.51 1111.4,1154.27 1112.89,1151.02 1114.38,1147.78 1115.87,1144.53 1117.36,1141.28 1118.85,1138.04 1120.34,1134.79 
  1121.83,1131.54 1123.32,1128.29 1124.81,1125.04 1126.3,1121.79 1127.79,1118.54 1129.28,1115.29 1130.77,1112.04 1132.26,1108.79 1133.75,1105.54 1135.24,1102.29 
  1136.73,1099.04 1138.22,1095.79 1139.71,1092.54 1141.2,1089.29 1142.69,1086.04 1144.18,1082.79 1145.67,1079.54 1147.16,1076.29 1148.65,1073.03 1150.14,1069.78 
  1151.63,1066.53 1153.12,1063.28 1154.61,1060.03 1156.1,1056.78 1157.59,1053.53 1159.08,1050.28 1160.57,1047.03 1162.06,1043.78 1163.55,1040.53 1165.04,1037.28 
  1166.53,1034.03 1168.02,1030.78 1169.51,1027.53 1171,1024.28 1172.49,1021.03 1173.98,1017.78 1175.47,1014.53 1176.96,1011.27 1178.45,1008.02 1179.94,1004.77 
  1181.43,1001.52 1182.92,1244.7 1184.41,1244.67 1185.9,1244.63 1187.39,1244.58 1188.88,1244.5 1190.37,1244.4 1191.86,1244.27 1193.35,1244.09 1194.84,1243.87 
  1196.33,1243.58 1197.82,1243.21 1199.31,1242.76 1200.8,1242.2 1202.29,1241.52 1203.78,1240.7 1205.27,1239.72 1206.76,1238.56 1208.25,1237.2 1209.75,1235.62 
  1211.24,1233.79 1212.73,1231.69 1214.22,1229.3 1215.71,1226.61 1217.2,1223.59 1218.69,1220.23 1220.18,1216.52 1221.67,1212.43 1223.16,1207.98 1224.65,1203.15 
  1226.14,1197.95 1227.63,1192.37 1229.12,1186.44 1230.61,1180.16 1232.1,1173.55 1233.59,1166.63 1235.08,1159.42 1236.57,1151.94 1238.06,1144.22 1239.55,1136.29 
  1241.04,1128.15 1242.53,1119.85 1244.02,1111.41 1245.51,1102.83 1247,1094.15 1248.49,1085.38 1249.98,1076.53 1251.47,1067.63 1252.96,1058.67 1254.45,1049.67 
  1255.94,1040.64 1257.43,1031.59 1258.92,1022.51 1260.41,1013.42 1261.9,1004.32 1263.39,995.206 1264.88,986.088 1266.37,976.964 1267.86,967.836 1269.35,958.706 
  1270.84,949.573 1272.33,1244.75 1273.82,1244.75 1275.31,1244.75 1276.8,1244.75 1278.29,1244.75 1279.78,1244.75 1281.27,1244.75 1282.76,1244.75 1284.25,1244.75 
  1285.74,1244.75 1287.23,1244.75 1288.72,1244.75 1290.21,1244.75 1291.7,1244.75 1293.19,1244.75 1294.68,1244.75 1296.17,1244.75 1297.66,1244.75 1299.15,1244.75 
  1300.64,1244.75 1302.13,1244.75 1303.62,1244.75 1305.11,1244.75 1306.6,1244.75 1308.09,1244.75 1309.58,1244.75 1311.07,1244.75 1312.56,1244.75 1314.05,1244.75 
  1315.54,1244.75 1317.03,1244.75 1318.52,1244.75 1320.01,1244.74 1321.5,1244.74 1322.99,1244.74 1324.48,1244.73 1325.97,1244.72 1327.46,1244.71 1328.95,1244.7 
  1330.44,1244.68 1331.93,1244.66 1333.42,1244.63 1334.91,1244.59 1336.4,1244.54 1337.89,1244.48 1339.38,1244.4 1340.87,1244.3 1342.36,1244.19 1343.85,1244.04 
  1345.34,1243.86 1346.83,1243.65 1348.32,1243.39 1349.81,1243.08 1351.3,1242.71 1352.79,1242.27 1354.28,1241.76 1355.77,1241.15 1357.26,1240.44 1358.75,1239.62 
  1360.24,1238.67 1361.73,1244.75 1363.22,1244.75 1364.71,1244.75 1366.2,1244.75 1367.69,1244.75 1369.18,1244.75 1370.67,1244.75 1372.16,1244.75 1373.65,1244.75 
  1375.14,1244.75 1376.63,1244.75 1378.12,1244.75 1379.61,1244.75 1381.1,1244.75 1382.59,1244.75 1384.08,1244.75 1385.57,1244.75 1387.06,1244.75 1388.55,1244.75 
  1390.04,1244.75 1391.53,1244.75 1393.02,1244.75 1394.51,1244.75 1396,1244.74 1397.49,1244.73 1398.98,1244.7 1400.47,1244.66 1401.96,1244.58 1403.45,1244.45 
  1404.94,1244.23 1406.43,1243.88 1407.92,1243.34 1409.41,1242.51 1410.9,1241.29 1412.39,1239.52 1413.88,1237.05 1415.37,1233.65 1416.86,1229.08 1418.35,1223.09 
  1419.84,1215.38 1421.33,1205.67 1422.82,1193.69 1424.31,1179.19 1425.8,1161.99 1427.29,1141.99 1428.79,1119.15 1430.28,1093.57 1431.77,1065.4 1433.26,1034.91 
  1434.75,1002.4 1436.24,968.198 1437.73,932.65 1439.22,896.064 1440.71,858.711 1442.2,820.812 1443.69,782.542 1445.18,744.027 1446.67,705.357 1448.16,666.592 
  1449.65,627.77 1451.14,1240.63 1452.63,1239.55 1454.12,1238.24 1455.61,1236.65 1457.1,1234.75 1458.59,1232.49 1460.08,1229.82 1461.57,1226.69 1463.06,1223.03 
  1464.55,1218.8 1466.04,1213.94 1467.53,1208.38 1469.02,1202.07 1470.51,1194.95 1472,1186.98 1473.49,1178.1 1474.98,1168.28 1476.47,1157.47 1477.96,1145.67 
  1479.45,1132.84 1480.94,1119 1482.43,1104.14 1483.92,1088.29 1485.41,1071.47 1486.9,1053.72 1488.39,1035.1 1489.88,1015.65 1491.37,995.448 1492.86,974.548 
  1494.35,953.022 1495.84,930.94 1497.33,908.368 1498.82,885.371 1500.31,862.01 1501.8,838.342 1503.29,814.417 1504.78,790.28 1506.27,765.97 1507.76,741.522 
  1509.25,716.962 1510.74,692.317 1512.23,667.604 1513.72,642.839 1515.21,618.035 1516.7,593.201 1518.19,568.346 1519.68,543.475 1521.17,518.592 1522.66,493.701 
  1524.15,468.804 1525.64,443.902 1527.13,418.998 1528.62,394.092 1530.11,369.184 1531.6,344.276 1533.09,319.366 1534.58,294.457 1536.07,269.547 1537.56,244.637 
  1539.05,219.727 1540.54,557.392 1542.03,559.476 1543.52,561.559 1545.01,563.642 1546.5,565.726 1547.99,567.809 1549.48,569.891 1550.97,571.974 1552.46,574.057 
  1553.95,576.139 1555.44,578.221 1556.93,580.303 1558.42,582.385 1559.91,584.467 1561.4,586.549 1562.89,588.63 1564.38,590.711 1565.87,592.792 1567.36,594.873 
  1568.85,596.954 1570.34,599.034 1571.83,601.114 1573.32,603.194 1574.81,605.274 1576.3,607.354 1577.79,609.433 1579.28,611.512 1580.77,613.591 1582.26,615.669 
  1583.75,617.748 1585.24,619.826 1586.73,621.903 1588.22,623.981 1589.71,626.058 1591.2,628.135 1592.69,630.212 1594.18,632.288 1595.67,634.364 1597.16,636.44 
  1598.65,638.516 1600.14,640.591 1601.63,642.665 1603.12,644.74 1604.61,646.814 1606.1,648.888 1607.59,650.961 1609.08,653.034 1610.57,655.107 1612.06,657.179 
  1613.55,659.251 1615.04,661.322 1616.53,663.393 1618.02,665.464 1619.51,667.534 1621,669.604 1622.49,671.673 1623.98,673.742 1625.47,675.81 1626.96,677.878 
  1628.45,679.946 1629.94,680.089 1631.43,685.12 1632.92,690.147 1634.41,695.171 1635.9,700.192 1637.39,705.209 1638.88,710.222 1640.37,715.231 1641.86,720.236 
  1643.35,725.237 1644.84,730.233 1646.33,735.224 1647.82,740.21 1649.32,745.191 1650.81,750.167 1652.3,755.136 1653.79,760.1 1655.28,765.057 1656.77,770.008 
  1658.26,774.952 1659.75,779.889 1661.24,784.818 1662.73,789.74 1664.22,794.653 1665.71,799.558 1667.2,804.455 1668.69,809.342 1670.18,814.22 1671.67,819.089 
  1673.16,823.947 1674.65,828.794 1676.14,833.631 1677.63,838.456 1679.12,843.27 1680.61,848.072 1682.1,852.861 1683.59,857.637 1685.08,862.399 1686.57,867.148 
  1688.06,871.882 1689.55,876.602 1691.04,881.306 1692.53,885.994 1694.02,890.667 1695.51,895.322 1697,899.961 1698.49,904.581 1699.98,909.184 1701.47,913.768 
  1702.96,918.332 1704.45,922.877 1705.94,927.401 1707.43,931.904 1708.92,936.387 1710.41,940.847 1711.9,945.285 1713.39,949.699 1714.88,954.09 1716.37,958.458 
  1717.86,962.8 1719.35,907.352 1720.84,913.67 1722.33,919.952 1723.82,926.197 1725.31,932.402 1726.8,938.567 1728.29,944.69 1729.78,950.77 1731.27,956.805 
  1732.76,962.794 1734.25,968.735 1735.74,974.628 1737.23,980.47 1738.72,986.26 1740.21,991.997 1741.7,997.679 1743.19,1003.31 1744.68,1008.87 1746.17,1014.39 
  1747.66,1019.84 1749.15,1025.23 1750.64,1030.55 1752.13,1035.82 1753.62,1041.01 1755.11,1046.15 1756.6,1051.21 1758.09,1056.21 1759.58,1061.14 1761.07,1066 
  1762.56,1070.78 1764.05,1075.5 1765.54,1080.14 1767.03,1084.71 1768.52,1089.21 1770.01,1093.63 1771.5,1097.97 1772.99,1102.24 1774.48,1106.44 1775.97,1110.55 
  1777.46,1114.59 1778.95,1118.56 1780.44,1122.44 1781.93,1126.25 1783.42,1129.98 1784.91,1133.64 1786.4,1137.22 1787.89,1140.71 1789.38,1144.14 1790.87,1147.48 
  1792.36,1150.75 1793.85,1153.94 1795.34,1157.06 1796.83,1160.1 1798.32,1163.07 1799.81,1165.96 1801.3,1168.78 1802.79,1171.52 1804.28,1174.2 1805.77,1176.8 
  1807.26,1179.33 1808.75,954.652 1810.24,953.95 1811.73,953.248 1813.22,952.545 1814.71,951.842 1816.2,951.138 1817.69,950.434 1819.18,949.729 1820.67,949.024 
  1822.16,948.318 1823.65,947.611 1825.14,946.904 1826.63,946.196 1828.12,945.488 1829.61,944.779 1831.1,944.07 1832.59,943.36 1834.08,942.65 1835.57,941.939 
  1837.06,941.227 1838.55,940.516 1840.04,939.803 1841.53,939.09 1843.02,938.376 1844.51,937.662 1846,936.948 1847.49,936.233 1848.98,935.517 1850.47,934.801 
  1851.96,934.084 1853.45,933.367 1854.94,932.649 1856.43,931.931 1857.92,931.213 1859.41,930.493 1860.9,929.774 1862.39,929.054 1863.88,928.333 1865.37,927.612 
  1866.86,926.89 1868.36,926.168 1869.85,925.445 1871.34,924.722 1872.83,923.999 1874.32,923.275 1875.81,922.55 1877.3,921.825 1878.79,921.1 1880.28,920.374 
  1881.77,919.647 1883.26,918.921 1884.75,918.193 1886.24,917.465 1887.73,916.737 1889.22,916.009 1890.71,915.279 1892.2,914.55 1893.69,913.82 1895.18,913.089 
  1896.67,912.358 1898.16,713.327 1899.65,716.632 1901.14,719.936 1902.63,723.239 1904.12,726.54 1905.61,729.84 1907.1,733.138 1908.59,736.435 1910.08,739.73 
  1911.57,743.023 1913.06,746.315 1914.55,749.605 1916.04,752.894 1917.53,756.18 1919.02,759.464 1920.51,762.747 1922,766.027 1923.49,769.306 1924.98,772.582 
  1926.47,775.855 1927.96,779.127 1929.45,782.396 1930.94,785.662 1932.43,788.926 1933.92,792.187 1935.41,795.446 1936.9,798.701 1938.39,801.954 1939.88,805.203 
  1941.37,808.45 1942.86,811.693 1944.35,814.933 1945.84,818.17 1947.33,821.403 1948.82,824.633 1950.31,827.859 1951.8,831.081 1953.29,834.299 1954.78,837.513 
  1956.27,840.723 1957.76,843.929 1959.25,847.13 1960.74,850.327 1962.23,853.52 1963.72,856.707 1965.21,859.89 1966.7,863.068 1968.19,866.241 1969.68,869.408 
  1971.17,872.57 1972.66,875.727 1974.15,878.878 1975.64,882.023 1977.13,885.163 1978.62,888.296 1980.11,891.423 1981.6,894.544 1983.09,897.659 1984.58,900.766 
  1986.07,903.867 1987.56,804.348 1989.05,809.672 1990.54,814.988 1992.03,820.295 1993.52,825.593 1995.01,830.88 1996.5,836.158 1997.99,841.425 1999.48,846.681 
  2000.97,851.924 2002.46,857.156 2003.95,862.375 2005.44,867.58 2006.93,872.771 2008.42,877.948 2009.91,883.11 2011.4,888.256 2012.89,893.385 2014.38,898.497 
  2015.87,903.592 2017.36,908.668 2018.85,913.725 2020.34,918.762 2021.83,923.779 2023.32,928.775 2024.81,933.748 2026.3,938.699 2027.79,943.626 2029.28,948.529 
  2030.77,953.407 2032.26,958.26 2033.75,963.085 2035.24,967.883 2036.73,972.653 2038.22,977.395 2039.71,982.106 2041.2,986.786 2042.69,991.436 2044.18,996.053 
  2045.67,1000.64 2047.16,1005.19 2048.65,1009.7 2050.14,1014.18 2051.63,1018.63 2053.12,1023.03 2054.61,1027.4 2056.1,1031.74 2057.59,1036.03 2059.08,1040.28 
  2060.57,1044.49 2062.06,1048.66 2063.55,1052.79 2065.04,1056.87 2066.53,1060.91 2068.02,1064.91 2069.51,1068.86 2071,1072.77 2072.49,1076.63 2073.98,1080.45 
  2075.47,1084.22 2076.96,836.981 2078.45,853.341 2079.94,869.594 2081.43,885.721 2082.92,901.706 2084.41,917.528 2085.9,933.167 2087.4,948.599 2088.89,963.8 
  2090.38,978.748 2091.87,993.415 2093.36,1007.78 2094.85,1021.81 2096.34,1035.48 2097.83,1048.77 2099.32,1061.66 2100.81,1074.11 2102.3,1086.13 2103.79,1097.67 
  2105.28,1108.73 2106.77,1119.3 2108.26,1129.37 2109.75,1138.92 2111.24,1147.96 2112.73,1156.48 2114.22,1164.48 2115.71,1171.98 2117.2,1178.97 2118.69,1185.48 
  2120.18,1191.51 2121.67,1197.07 2123.16,1202.19 2124.65,1206.89 2126.14,1211.18 2127.63,1215.08 2129.12,1218.62 2130.61,1221.81 2132.1,1224.69 2133.59,1227.26 
  2135.08,1229.57 2136.57,1231.61 2138.06,1233.43 2139.55,1235.03 2141.04,1236.44 2142.53,1237.67 2144.02,1238.74 2145.51,1239.67 2147,1240.48 2148.49,1241.17 
  2149.98,1241.77 2151.47,1242.27 2152.96,1242.7 2154.45,1243.07 2155.94,1243.37 2157.43,1243.63 2158.92,1243.84 2160.41,1244.02 2161.9,1244.16 2163.39,1244.28 
  2164.88,1244.38 2166.37,904.265 2167.86,916.778 2169.35,929.209 2170.84,941.547 2172.33,953.78 2173.82,965.898 2175.31,977.886 2176.8,989.731 2178.29,1001.42 
  2179.78,1012.93 2181.27,1024.26 2182.76,1035.38 2184.25,1046.29 2185.74,1056.96 2187.23,1067.38 2188.72,1077.54 2190.21,1087.41 2191.7,1097 2193.19,1106.28 
  2194.68,1115.25 2196.17,1123.89 2197.66,1132.19 2199.15,1140.15 2200.64,1147.77 2202.13,1155.03 2203.62,1161.94 2205.11,1168.5 2206.6,1174.71 2208.09,1180.56 
  2209.58,1186.07 2211.07,1191.24 2212.56,1196.08 2214.05,1200.59 2215.54,1204.79 2217.03,1208.68 2218.52,1212.28 2220.01,1215.61 2221.5,1218.66 2222.99,1221.46 
  2224.48,1224.02 2225.97,1226.35 2227.46,1228.46 2228.95,1230.38 2230.44,1232.11 2231.93,1233.66 2233.42,1235.06 2234.91,1236.3 2236.4,1237.41 2237.89,1238.4 
  2239.38,1239.27 2240.87,1240.04 2242.36,1240.71 2243.85,1241.3 2245.34,1241.82 2246.83,1242.26 2248.32,1242.65 2249.81,1242.98 2251.3,1243.27 2252.79,1243.51 
  2254.28,1243.72 2255.77,959.165 2257.26,966.823 2258.75,974.443 2260.24,982.022 2261.73,989.556 2263.22,997.042 2264.71,1004.48 2266.2,1011.85 2267.69,1019.17 
  2269.18,1026.42 2270.67,1033.61 2272.16,1040.71 2273.65,1047.74 2275.14,1054.69 2276.63,1061.55 2278.12,1068.31 2279.61,1074.98 2281.1,1081.55 2282.59,1088 
  2284.08,1094.35 2285.57,1100.58 2287.06,1106.68 2288.55,1112.66 2290.04,1118.52 2291.53,1124.23 2293.02,1129.82 2294.51,1135.26 2296,1140.55 2297.49,1145.7 
  2298.98,1150.71 2300.47,1155.56 2301.96,1160.26 2303.45,1164.8 2304.94,1169.2 2306.44,1173.43 2307.93,1177.51 2309.42,1181.44 2310.91,1185.21 2312.4,1188.83 
  2313.89,1192.29 2315.38,1195.61 2316.87,1198.77 2318.36,1201.79 2319.85,1204.66 2321.34,1207.4 2322.83,1209.99 2324.32,1212.45 2325.81,1214.78 2327.3,1216.97 
  2328.79,1219.05 2330.28,1221 2331.77,1222.84 2333.26,1224.57 2334.75,1226.19 2336.24,1227.7 2337.73,1229.12 2339.22,1230.44 2340.71,1231.67 2342.2,1232.81 
  2343.69,1233.87 2345.18,996.402 2346.67,1000.69 2348.16,1004.96 2349.65,1009.23 2351.14,1013.47 2352.63,1017.7 2354.12,1021.92 2355.61,1026.11 2357.1,1030.29 
  2358.59,1034.45 2360.08,1038.59 2361.57,1042.71 2363.06,1046.81 2364.55,1050.89 2366.04,1054.94 2367.53,1058.97 2369.02,1062.97 2370.51,1066.94 2372,1070.89 
  2373.49,1074.81 2374.98,1078.69 2376.47,1082.55 2377.96,1086.38 2379.45,1090.17 2380.94,1093.92 2382.43,1097.65 2383.92,1101.33 2385.41,1104.98 2386.9,1108.59 
  2388.39,1112.16 2389.88,1115.68 2391.37,1119.17 2392.86,1122.61 2394.35,1126.01 2395.84,1129.37 2397.33,1132.68 2398.82,1135.94 2400.31,1139.15 2401.8,1142.32 
  2403.29,1145.43 2404.78,1148.5 2406.27,1151.51 2407.76,1154.48 2409.25,1157.39 2410.74,1160.25 2412.23,1163.05 2413.72,1165.8 2415.21,1168.5 2416.7,1171.14 
  2418.19,1173.73 2419.68,1176.26 2421.17,1178.74 2422.66,1181.16 2424.15,1183.52 2425.64,1185.83 2427.13,1188.08 2428.62,1190.27 2430.11,1192.41 2431.6,1194.5 
  2433.09,1196.52 2434.58,1066.74 2436.07,1070.56 2437.56,1074.34 2439.05,1078.1 2440.54,1081.84 2442.03,1085.54 2443.52,1089.22 2445.01,1092.87 2446.5,1096.48 
  2447.99,1100.07 2449.48,1103.62 2450.97,1107.14 2452.46,1110.62 2453.95,1114.06 2455.44,1117.47 2456.93,1120.84 2458.42,1124.17 2459.91,1127.46 2461.4,1130.71 
  2462.89,1133.92 2464.38,1137.08 2465.87,1140.2 2467.36,1143.28 2468.85,1146.31 2470.34,1149.29 2471.83,1152.22 2473.32,1155.11 2474.81,1157.95 2476.3,1160.74 
  2477.79,1163.48 2479.28,1166.16 2480.77,1168.8 2482.26,1171.38 2483.75,1173.92 2485.24,1176.4 2486.73,1178.83 2488.22,1181.2 2489.71,1183.52 2491.2,1185.79 
  2492.69,1188.01 2494.18,1190.17 2495.67,1192.28 2497.16,1194.33 2498.65,1196.33 2500.14,1198.28 2501.63,1200.18 2503.12,1202.02 2504.61,1203.81 2506.1,1205.55 
  2507.59,1207.24 2509.08,1208.87 2510.57,1210.46 2512.06,1211.99 2513.55,1213.48 2515.04,1214.91 2516.53,1216.3 2518.02,1217.64 2519.51,1218.94 2521,1220.19 
  2522.49,1221.39 2523.98,1101.18 2525.48,1105.58 2526.97,1109.94 2528.46,1114.24 2529.95,1118.48 2531.44,1122.67 2532.93,1126.8 2534.42,1130.88 2535.91,1134.88 
  2537.4,1138.83 2538.89,1142.71 2540.38,1146.51 2541.87,1150.25 2543.36,1153.92 2544.85,1157.51 2546.34,1161.03 2547.83,1164.47 2549.32,1167.83 2550.81,1171.11 
  2552.3,1174.32 2553.79,1177.44 2555.28,1180.47 2556.77,1183.43 2558.26,1186.3 2559.75,1189.09 2561.24,1191.79 2562.73,1194.41 2564.22,1196.95 2565.71,1199.39 
  2567.2,1201.76 2568.69,1204.04 2570.18,1206.24 2571.67,1208.36 2573.16,1210.39 2574.65,1212.35 2576.14,1214.22 2577.63,1216.02 2579.12,1217.74 2580.61,1219.39 
  2582.1,1220.96 2583.59,1222.45 2585.08,1223.88 2586.57,1225.24 2588.06,1226.53 2589.55,1227.75 2591.04,1228.91 2592.53,1230.01 2594.02,1231.05 2595.51,1232.03 
  2597,1232.96 2598.49,1233.83 2599.98,1234.65 2601.47,1235.42 2602.96,1236.15 2604.45,1236.83 2605.94,1237.46 2607.43,1238.05 2608.92,1238.61 2610.41,1239.12 
  2611.9,1239.6 2613.39,1125 2614.88,1129.09 2616.37,1133.13 2617.86,1137.11 2619.35,1141.03 2620.84,1144.9 2622.33,1148.69 2623.82,1152.42 2625.31,1156.08 
  2626.8,1159.68 2628.29,1163.2 2629.78,1166.64 2631.27,1170.01 2632.76,1173.3 2634.25,1176.52 2635.74,1179.65 2637.23,1182.7 2638.72,1185.66 2640.21,1188.55 
  2641.7,1191.35 2643.19,1194.06 2644.68,1196.68 2646.17,1199.22 2647.66,1201.68 2649.15,1204.04 2650.64,1206.33 2652.13,1208.52 2653.62,1210.63 2655.11,1212.66 
  2656.6,1214.6 2658.09,1216.46 2659.58,1218.23 2661.07,1219.93 2662.56,1221.55 2664.05,1223.09 2665.54,1224.55 2667.03,1225.94 2668.52,1227.26 2670.01,1228.51 
  2671.5,1229.69 2672.99,1230.81 2674.48,1231.86 2675.97,1232.85 2677.46,1233.78 2678.95,1234.65 2680.44,1235.47 2681.93,1236.23 2683.42,1236.95 2684.91,1237.61 
  2686.4,1238.23 2687.89,1238.81 2689.38,1239.34 2690.87,1239.83 2692.36,1240.29 2693.85,1240.71 2695.34,1241.1 2696.83,1241.46 2698.32,1241.79 2699.81,1242.09 
  2701.3,1242.36 2702.79,1211.85 2704.28,1214.09 2705.77,1216.23 2707.26,1218.26 2708.75,1220.19 2710.24,1222.02 2711.73,1223.75 2713.22,1225.39 2714.71,1226.93 
  2716.2,1228.37 2717.69,1229.73 2719.18,1231.01 2720.67,1232.2 2722.16,1233.31 2723.65,1234.34 2725.14,1235.3 2726.63,1236.19 2728.12,1237.02 2729.61,1237.78 
  2731.1,1238.48 2732.59,1239.12 2734.08,1239.71 2735.57,1240.25 2737.06,1240.74 2738.55,1241.18 2740.04,1241.59 2741.53,1241.96 2743.02,1242.29 2744.52,1242.58 
  2746.01,1242.85 2747.5,1243.09 2748.99,1243.3 2750.48,1243.49 2751.97,1243.66 2753.46,1243.81 2754.95,1243.94 2756.44,1244.06 2757.93,1244.16 2759.42,1244.25 
  2760.91,1244.32 2762.4,1244.39 2763.89,1244.45 2765.38,1244.49 2766.87,1244.54 2768.36,1244.57 2769.85,1244.6 2771.34,1244.63 2772.83,1244.65 2774.32,1244.67 
  2775.81,1244.68 2777.3,1244.7 2778.79,1244.71 2780.28,1244.72 2781.77,1244.72 2783.26,1244.73 2784.75,1244.73 2786.24,1244.74 2787.73,1244.74 2789.22,1244.74 
  
  "/>
<polyline clip-path="url(#clip7702)" style="stroke:#e26f46; stroke-width:4; stroke-opacity:1; fill:none" points="
  645.009,903.139 646.499,903.225 647.989,903.468 649.479,903.848 650.97,904.349 652.46,904.955 653.95,905.653 655.44,906.432 656.93,907.281 658.42,908.191 
  659.91,909.155 661.4,910.166 662.89,911.219 664.38,912.307 665.87,913.427 667.36,914.575 668.85,915.746 670.34,916.939 671.83,918.15 673.321,919.377 
  674.811,920.618 676.301,921.872 677.791,923.136 679.281,924.41 680.771,925.692 682.261,926.981 683.751,928.276 685.241,929.578 686.731,930.883 688.221,932.193 
  689.711,933.507 691.201,934.824 692.691,936.144 694.181,937.466 695.672,938.791 697.162,940.117 698.652,941.445 700.142,942.775 701.632,944.105 703.122,945.437 
  704.612,946.77 706.102,948.103 707.592,949.438 709.082,950.773 710.572,952.108 712.062,953.444 713.552,954.781 715.042,956.118 716.533,957.455 718.023,958.792 
  719.513,960.13 721.003,961.468 722.493,962.806 723.983,964.145 725.473,965.483 726.963,966.822 728.453,968.16 729.943,969.499 731.433,970.838 732.923,972.177 
  734.413,973.516 735.903,984.991 737.393,995.233 738.884,1004.4 740.374,1012.62 741.864,1020.01 743.354,1026.68 744.844,1032.72 746.334,1038.21 747.824,1043.22 
  749.314,1047.8 750.804,1052.02 752.294,1055.91 753.784,1059.52 755.274,1062.88 756.764,1066.03 758.254,1068.99 759.744,1071.78 761.235,1074.43 762.725,1076.95 
  764.215,1079.36 765.705,1081.67 767.195,1083.9 768.685,1086.06 770.175,1088.15 771.665,1090.18 773.155,1092.17 774.645,1094.11 776.135,1096.01 777.625,1097.88 
  779.115,1099.73 780.605,1101.54 782.095,1103.34 783.586,1105.11 785.076,1106.87 786.566,1108.61 788.056,1110.34 789.546,1112.06 791.036,1113.77 792.526,1115.47 
  794.016,1117.16 795.506,1118.85 796.996,1120.53 798.486,1122.2 799.976,1123.87 801.466,1125.54 802.956,1127.2 804.447,1128.86 805.937,1130.52 807.427,1132.17 
  808.917,1133.83 810.407,1135.48 811.897,1137.13 813.387,1138.78 814.877,1140.42 816.367,1142.07 817.857,1143.71 819.347,1145.36 820.837,1147 822.327,1148.64 
  823.817,1150.28 825.307,1151.49 826.798,1152.62 828.288,1153.69 829.778,1154.71 831.268,1155.67 832.758,1156.6 834.248,1157.48 835.738,1158.34 837.228,1159.16 
  838.718,1159.96 840.208,1160.74 841.698,1161.5 843.188,1162.25 844.678,1162.97 846.168,1163.69 847.658,1164.4 849.149,1165.09 850.639,1165.78 852.129,1166.46 
  853.619,1167.13 855.109,1167.79 856.599,1168.46 858.089,1169.11 859.579,1169.77 861.069,1170.41 862.559,1171.06 864.049,1171.71 865.539,1172.35 867.029,1172.99 
  868.519,1173.62 870.01,1174.26 871.5,1174.89 872.99,1175.53 874.48,1176.16 875.97,1176.79 877.46,1177.42 878.95,1178.05 880.44,1178.67 881.93,1179.3 
  883.42,1179.93 884.91,1180.55 886.4,1181.18 887.89,1181.8 889.38,1182.43 890.87,1183.05 892.361,1183.67 893.851,1184.29 895.341,1184.91 896.831,1185.53 
  898.321,1186.15 899.811,1186.77 901.301,1187.39 902.791,1188.01 904.281,1188.63 905.771,1189.25 907.261,1189.86 908.751,1190.48 910.241,1191.1 911.731,1191.71 
  913.221,1192.32 914.712,1181.82 916.202,1181.52 917.692,1181.3 919.182,1181.16 920.672,1181.08 922.162,1181.05 923.652,1181.07 925.142,1181.14 926.632,1181.24 
  928.122,1181.38 929.612,1181.55 931.102,1181.74 932.592,1181.95 934.082,1182.18 935.572,1182.42 937.063,1182.69 938.553,1182.96 940.043,1183.25 941.533,1183.54 
  943.023,1183.85 944.513,1184.16 946.003,1184.47 947.493,1184.8 948.983,1185.13 950.473,1185.46 951.963,1185.79 953.453,1186.13 954.943,1186.48 956.433,1186.82 
  957.924,1187.17 959.414,1187.52 960.904,1187.87 962.394,1188.22 963.884,1188.57 965.374,1188.93 966.864,1189.28 968.354,1189.64 969.844,1189.99 971.334,1190.35 
  972.824,1190.71 974.314,1191.07 975.804,1191.42 977.294,1191.78 978.784,1192.14 980.275,1192.5 981.765,1192.86 983.255,1193.22 984.745,1193.58 986.235,1193.94 
  987.725,1194.3 989.215,1194.66 990.705,1195.02 992.195,1195.37 993.685,1195.73 995.175,1196.09 996.665,1196.45 998.155,1196.81 999.645,1197.17 1001.14,1197.53 
  1002.63,1197.89 1004.12,1200.04 1005.61,1201.85 1007.1,1203.37 1008.59,1204.63 1010.08,1205.67 1011.57,1206.52 1013.06,1207.2 1014.55,1207.74 1016.04,1208.15 
  1017.53,1208.46 1019.02,1208.67 1020.51,1208.81 1022,1208.88 1023.49,1208.88 1024.98,1208.83 1026.47,1208.74 1027.96,1208.61 1029.45,1208.45 1030.94,1208.25 
  1032.43,1208.03 1033.92,1207.79 1035.41,1207.53 1036.9,1207.25 1038.39,1206.96 1039.88,1206.65 1041.37,1206.33 1042.86,1206 1044.35,1205.67 1045.84,1205.32 
  1047.33,1204.97 1048.82,1204.62 1050.31,1204.25 1051.8,1203.89 1053.29,1203.52 1054.78,1203.14 1056.27,1202.76 1057.76,1202.38 1059.25,1202 1060.74,1201.62 
  1062.23,1201.23 1063.72,1200.84 1065.21,1200.45 1066.7,1200.05 1068.19,1199.66 1069.68,1199.26 1071.17,1198.87 1072.66,1198.47 1074.15,1198.07 1075.64,1197.67 
  1077.13,1197.27 1078.62,1196.87 1080.11,1196.46 1081.6,1196.06 1083.09,1195.66 1084.58,1195.25 1086.07,1194.85 1087.56,1194.44 1089.05,1194.03 1090.54,1193.62 
  1092.03,1193.22 1093.52,1201.95 1095.01,1200.6 1096.5,1199.02 1097.99,1197.23 1099.48,1195.27 1100.97,1193.15 1102.46,1190.9 1103.95,1188.53 1105.44,1186.05 
  1106.93,1183.48 1108.42,1180.82 1109.91,1178.1 1111.4,1175.31 1112.89,1172.46 1114.38,1169.56 1115.87,1166.62 1117.36,1163.64 1118.85,1160.63 1120.34,1157.59 
  1121.83,1154.52 1123.32,1151.43 1124.81,1148.32 1126.3,1145.19 1127.79,1142.05 1129.28,1138.89 1130.77,1135.72 1132.26,1132.55 1133.75,1129.36 1135.24,1126.16 
  1136.73,1122.96 1138.22,1119.75 1139.71,1116.54 1141.2,1113.32 1142.69,1110.1 1144.18,1106.87 1145.67,1103.64 1147.16,1100.41 1148.65,1097.18 1150.14,1093.94 
  1151.63,1090.7 1153.12,1087.46 1154.61,1084.22 1156.1,1080.98 1157.59,1077.74 1159.08,1074.49 1160.57,1071.25 1162.06,1068 1163.55,1064.76 1165.04,1061.51 
  1166.53,1058.26 1168.02,1055.02 1169.51,1051.77 1171,1048.52 1172.49,1045.27 1173.98,1042.02 1175.47,1038.77 1176.96,1035.52 1178.45,1032.27 1179.94,1029.02 
  1181.43,1025.77 1182.92,1236.33 1184.41,1240.46 1185.9,1242.39 1187.39,1243.32 1188.88,1243.78 1190.37,1244.01 1191.86,1244.11 1193.35,1244.14 1194.84,1244.12 
  1196.33,1244.05 1197.82,1243.93 1199.31,1243.77 1200.8,1243.55 1202.29,1243.27 1203.78,1242.92 1205.27,1242.48 1206.76,1241.94 1208.25,1241.3 1209.75,1240.52 
  1211.24,1239.61 1212.73,1238.53 1214.22,1237.29 1215.71,1235.86 1217.2,1234.23 1218.69,1232.38 1220.18,1230.3 1221.67,1227.98 1223.16,1225.4 1224.65,1222.56 
  1226.14,1219.45 1227.63,1216.05 1229.12,1212.37 1230.61,1208.39 1232.1,1204.12 1233.59,1199.56 1235.08,1194.7 1236.57,1189.56 1238.06,1184.13 1239.55,1178.43 
  1241.04,1172.46 1242.53,1166.23 1244.02,1159.76 1245.51,1153.05 1247,1146.12 1248.49,1138.98 1249.98,1131.64 1251.47,1124.12 1252.96,1116.44 1254.45,1108.6 
  1255.94,1100.62 1257.43,1092.51 1258.92,1084.28 1260.41,1075.95 1261.9,1067.53 1263.39,1059.02 1264.88,1050.43 1266.37,1041.78 1267.86,1033.07 1269.35,1024.3 
  1270.84,1015.49 1272.33,1244.75 1273.82,1244.75 1275.31,1244.75 1276.8,1244.75 1278.29,1244.75 1279.78,1244.75 1281.27,1244.75 1282.76,1244.75 1284.25,1244.75 
  1285.74,1244.75 1287.23,1244.75 1288.72,1244.75 1290.21,1244.75 1291.7,1244.75 1293.19,1244.75 1294.68,1244.75 1296.17,1244.75 1297.66,1244.75 1299.15,1244.75 
  1300.64,1244.75 1302.13,1244.75 1303.62,1244.75 1305.11,1244.75 1306.6,1244.75 1308.09,1244.75 1309.58,1244.75 1311.07,1244.75 1312.56,1244.75 1314.05,1244.75 
  1315.54,1244.75 1317.03,1244.75 1318.52,1244.75 1320.01,1244.75 1321.5,1244.75 1322.99,1244.75 1324.48,1244.75 1325.97,1244.74 1327.46,1244.74 1328.95,1244.73 
  1330.44,1244.73 1331.93,1244.72 1333.42,1244.71 1334.91,1244.69 1336.4,1244.67 1337.89,1244.65 1339.38,1244.61 1340.87,1244.57 1342.36,1244.52 1343.85,1244.45 
  1345.34,1244.37 1346.83,1244.27 1348.32,1244.14 1349.81,1243.99 1351.3,1243.8 1352.79,1243.58 1354.28,1243.31 1355.77,1243 1357.26,1242.62 1358.75,1242.18 
  1360.24,1241.66 1361.73,1244.75 1363.22,1244.75 1364.71,1244.75 1366.2,1244.75 1367.69,1244.75 1369.18,1244.75 1370.67,1244.75 1372.16,1244.75 1373.65,1244.75 
  1375.14,1244.75 1376.63,1244.75 1378.12,1244.75 1379.61,1244.75 1381.1,1244.75 1382.59,1244.75 1384.08,1244.75 1385.57,1244.75 1387.06,1244.75 1388.55,1244.75 
  1390.04,1244.75 1391.53,1244.75 1393.02,1244.75 1394.51,1244.75 1396,1244.75 1397.49,1244.75 1398.98,1244.75 1400.47,1244.75 1401.96,1244.74 1403.45,1244.73 
  1404.94,1244.71 1406.43,1244.67 1407.92,1244.6 1409.41,1244.48 1410.9,1244.28 1412.39,1243.97 1413.88,1243.48 1415.37,1242.75 1416.86,1241.68 1418.35,1240.15 
  1419.84,1238.04 1421.33,1235.18 1422.82,1231.4 1424.31,1226.52 1425.8,1220.34 1427.29,1212.69 1428.79,1203.39 1430.28,1192.29 1431.77,1179.27 1433.26,1164.25 
  1434.75,1147.18 1436.24,1128.05 1437.73,1106.91 1439.22,1083.83 1440.71,1058.91 1442.2,1032.27 1443.69,1004.08 1445.18,974.469 1446.67,943.608 1448.16,911.647 
  1449.65,878.73 1451.14,1241.66 1452.63,1241.72 1454.12,1241.54 1455.61,1241.17 1457.1,1240.58 1458.59,1239.78 1460.08,1238.74 1461.57,1237.44 1463.06,1235.85 
  1464.55,1233.94 1466.04,1231.67 1467.53,1229.01 1469.02,1225.91 1470.51,1222.34 1472,1218.25 1473.49,1213.6 1474.98,1208.34 1476.47,1202.44 1477.96,1195.85 
  1479.45,1188.55 1480.94,1180.5 1482.43,1171.66 1483.92,1162.03 1485.41,1151.58 1486.9,1140.3 1488.39,1128.18 1489.88,1115.23 1491.37,1101.44 1492.86,1086.84 
  1494.35,1071.44 1495.84,1055.26 1497.33,1038.33 1498.82,1020.68 1500.31,1002.35 1501.8,983.385 1503.29,963.813 1504.78,943.68 1506.27,923.03 1507.76,901.904 
  1509.25,880.344 1510.74,858.391 1512.23,836.083 1513.72,813.458 1515.21,790.549 1516.7,767.389 1518.19,744.007 1519.68,720.429 1521.17,696.679 1522.66,672.78 
  1524.15,648.749 1525.64,624.604 1527.13,600.36 1528.62,576.029 1530.11,551.624 1531.6,527.153 1533.09,502.626 1534.58,478.05 1536.07,453.431 1537.56,428.774 
  1539.05,404.086 1540.54,522.095 1542.03,526.66 1543.52,530.913 1545.01,534.894 1546.5,538.637 1547.99,542.171 1549.48,545.524 1550.97,548.717 1552.46,551.77 
  1553.95,554.702 1555.44,557.528 1556.93,560.26 1558.42,562.91 1559.91,565.489 1561.4,568.006 1562.89,570.468 1564.38,572.883 1565.87,575.255 1567.36,577.591 
  1568.85,579.896 1570.34,582.172 1571.83,584.423 1573.32,586.654 1574.81,588.865 1576.3,591.06 1577.79,593.24 1579.28,595.408 1580.77,597.565 1582.26,599.712 
  1583.75,601.851 1585.24,603.982 1586.73,606.106 1588.22,608.225 1589.71,610.339 1591.2,612.448 1592.69,614.553 1594.18,616.655 1595.67,618.753 1597.16,620.849 
  1598.65,622.943 1600.14,625.034 1601.63,627.124 1603.12,629.211 1604.61,631.297 1606.1,633.382 1607.59,635.466 1609.08,637.548 1610.57,639.629 1612.06,641.709 
  1613.55,643.789 1615.04,645.867 1616.53,647.945 1618.02,650.022 1619.51,652.099 1621,654.175 1622.49,656.25 1623.98,658.325 1625.47,660.399 1626.96,662.472 
  1628.45,664.545 1629.94,630.389 1631.43,636.971 1632.92,643.36 1634.41,649.579 1635.9,655.649 1637.39,661.589 1638.88,667.414 1640.37,673.138 1641.86,678.774 
  1643.35,684.331 1644.84,689.82 1646.33,695.249 1647.82,700.624 1649.32,705.952 1650.81,711.237 1652.3,716.486 1653.79,721.701 1655.28,726.887 1656.77,732.046 
  1658.26,737.181 1659.75,742.294 1661.24,747.387 1662.73,752.462 1664.22,757.521 1665.71,762.563 1667.2,767.591 1668.69,772.606 1670.18,777.607 1671.67,782.595 
  1673.16,787.572 1674.65,792.537 1676.14,797.49 1677.63,802.432 1679.12,807.363 1680.61,812.283 1682.1,817.192 1683.59,822.089 1685.08,826.975 1686.57,831.85 
  1688.06,836.712 1689.55,841.563 1691.04,846.402 1692.53,851.228 1694.02,856.042 1695.51,860.842 1697,865.629 1698.49,870.402 1699.98,875.161 1701.47,879.905 
  1702.96,884.634 1704.45,889.347 1705.94,894.045 1707.43,898.726 1708.92,903.39 1710.41,908.037 1711.9,912.666 1713.39,917.276 1714.88,921.867 1716.37,926.439 
  1717.86,930.991 1719.35,868.59 1720.84,874.022 1722.33,879.6 1723.82,885.291 1725.31,891.07 1726.8,896.92 1728.29,902.824 1729.78,908.772 1731.27,914.75 
  1732.76,920.749 1734.25,926.762 1735.74,932.779 1737.23,938.794 1738.72,944.802 1740.21,950.795 1741.7,956.771 1743.19,962.722 1744.68,968.647 1746.17,974.54 
  1747.66,980.397 1749.15,986.217 1750.64,991.995 1752.13,997.729 1753.62,1003.42 1755.11,1009.05 1756.6,1014.64 1758.09,1020.17 1759.58,1025.64 1761.07,1031.06 
  1762.56,1036.42 1764.05,1041.71 1765.54,1046.94 1767.03,1052.1 1768.52,1057.2 1770.01,1062.23 1771.5,1067.19 1772.99,1072.08 1774.48,1076.89 1775.97,1081.63 
  1777.46,1086.3 1778.95,1090.89 1780.44,1095.41 1781.93,1099.84 1783.42,1104.2 1784.91,1108.48 1786.4,1112.68 1787.89,1116.81 1789.38,1120.85 1790.87,1124.81 
  1792.36,1128.68 1793.85,1132.48 1795.34,1136.2 1796.83,1139.83 1798.32,1143.39 1799.81,1146.86 1801.3,1150.25 1802.79,1153.56 1804.28,1156.79 1805.77,1159.94 
  1807.26,1163.01 1808.75,1107.72 1810.24,1089.17 1811.73,1072.38 1813.22,1057.34 1814.71,1043.96 1816.2,1032.11 1817.69,1021.64 1819.18,1012.38 1820.67,1004.22 
  1822.16,997.004 1823.65,990.627 1825.14,984.982 1826.63,979.976 1828.12,975.527 1829.61,971.565 1831.1,968.026 1832.59,964.855 1834.08,962.006 1835.57,959.435 
  1837.06,957.107 1838.55,954.99 1840.04,953.056 1841.53,951.282 1843.02,949.646 1844.51,948.13 1846,946.72 1847.49,945.4 1848.98,944.159 1850.47,942.987 
  1851.96,941.875 1853.45,940.814 1854.94,939.798 1856.43,938.821 1857.92,937.878 1859.41,936.964 1860.9,936.076 1862.39,935.21 1863.88,934.363 1865.37,933.532 
  1866.86,932.716 1868.36,931.912 1869.85,931.119 1871.34,930.335 1872.83,929.56 1874.32,928.791 1875.81,928.028 1877.3,927.27 1878.79,926.517 1880.28,925.767 
  1881.77,925.021 1883.26,924.277 1884.75,923.536 1886.24,922.796 1887.73,922.058 1889.22,921.322 1890.71,920.586 1892.2,919.852 1893.69,919.118 1895.18,918.385 
  1896.67,917.652 1898.16,883.808 1899.65,862.843 1901.14,844.81 1902.63,829.395 1904.12,816.297 1905.61,805.24 1907.1,795.976 1908.59,788.285 1910.08,781.972 
  1911.57,776.866 1913.06,772.815 1914.55,769.688 1916.04,767.368 1917.53,765.754 1919.02,764.758 1920.51,764.301 1922,764.316 1923.49,764.743 1924.98,765.53 
  1926.47,766.631 1927.96,768.007 1929.45,769.623 1930.94,771.447 1932.43,773.455 1933.92,775.622 1935.41,777.928 1936.9,780.355 1938.39,782.887 1939.88,785.511 
  1941.37,788.216 1942.86,790.989 1944.35,793.823 1945.84,796.71 1947.33,799.641 1948.82,802.612 1950.31,805.617 1951.8,808.651 1953.29,811.71 1954.78,814.79 
  1956.27,817.888 1957.76,821.002 1959.25,824.128 1960.74,827.265 1962.23,830.412 1963.72,833.565 1965.21,836.724 1966.7,839.888 1968.19,843.054 1969.68,846.223 
  1971.17,849.394 1972.66,852.564 1974.15,855.735 1975.64,858.904 1977.13,862.072 1978.62,865.238 1980.11,868.402 1981.6,871.563 1983.09,874.72 1984.58,877.874 
  1986.07,881.023 1987.56,747.757 1989.05,755.257 1990.54,762.492 1992.03,769.49 1993.52,776.28 1995.01,782.886 1996.5,789.328 1997.99,795.627 1999.48,801.799 
  2000.97,807.859 2002.46,813.819 2003.95,819.691 2005.44,825.484 2006.93,831.207 2008.42,836.867 2009.91,842.469 2011.4,848.02 2012.89,853.525 2014.38,858.987 
  2015.87,864.409 2017.36,869.795 2018.85,875.147 2020.34,880.466 2021.83,885.756 2023.32,891.017 2024.81,896.249 2026.3,901.455 2027.79,906.635 2029.28,911.789 
  2030.77,916.917 2032.26,922.021 2033.75,927.099 2035.24,932.151 2036.73,937.179 2038.22,942.181 2039.71,947.156 2041.2,952.106 2042.69,957.028 2044.18,961.923 
  2045.67,966.791 2047.16,971.63 2048.65,976.439 2050.14,981.219 2051.63,985.968 2053.12,990.687 2054.61,995.373 2056.1,1000.03 2057.59,1004.65 2059.08,1009.23 
  2060.57,1013.78 2062.06,1018.3 2063.55,1022.78 2065.04,1027.22 2066.53,1031.62 2068.02,1035.98 2069.51,1040.31 2071,1044.59 2072.49,1048.83 2073.98,1053.03 
  2075.47,1057.19 2076.96,908.363 2078.45,900.297 2079.94,895.335 2081.43,893.072 2082.92,893.155 2084.41,895.279 2085.9,899.173 2087.4,904.601 2088.89,911.351 
  2090.38,919.239 2091.87,928.097 2093.36,937.777 2094.85,948.145 2096.34,959.081 2097.83,970.476 2099.32,982.228 2100.81,994.247 2102.3,1006.45 2103.79,1018.75 
  2105.28,1031.08 2106.77,1043.37 2108.26,1055.56 2109.75,1067.58 2111.24,1079.39 2112.73,1090.92 2114.22,1102.14 2115.71,1113.01 2117.2,1123.47 2118.69,1133.51 
  2120.18,1143.09 2121.67,1152.2 2123.16,1160.8 2124.65,1168.9 2126.14,1176.48 2127.63,1183.55 2129.12,1190.1 2130.61,1196.14 2132.1,1201.69 2133.59,1206.76 
  2135.08,1211.37 2136.57,1215.54 2138.06,1219.29 2139.55,1222.65 2141.04,1225.64 2142.53,1228.3 2144.02,1230.64 2145.51,1232.7 2147,1234.5 2148.49,1236.07 
  2149.98,1237.43 2151.47,1238.6 2152.96,1239.6 2154.45,1240.46 2155.94,1241.19 2157.43,1241.81 2158.92,1242.33 2160.41,1242.77 2161.9,1243.13 2163.39,1243.44 
  2164.88,1243.69 2166.37,994.024 2167.86,983.266 2169.35,975.496 2170.84,970.313 2172.33,967.376 2173.82,966.389 2175.31,967.092 2176.8,969.261 2178.29,972.697 
  2179.78,977.225 2181.27,982.693 2182.76,988.962 2184.25,995.911 2185.74,1003.43 2187.23,1011.43 2188.72,1019.81 2190.21,1028.49 2191.7,1037.42 2193.19,1046.51 
  2194.68,1055.71 2196.17,1064.96 2197.66,1074.22 2199.15,1083.43 2200.64,1092.56 2202.13,1101.56 2203.62,1110.4 2205.11,1119.04 2206.6,1127.45 2208.09,1135.62 
  2209.58,1143.5 2211.07,1151.1 2212.56,1158.38 2214.05,1165.33 2215.54,1171.94 2217.03,1178.21 2218.52,1184.12 2220.01,1189.68 2221.5,1194.89 2222.99,1199.75 
  2224.48,1204.26 2225.97,1208.44 2227.46,1212.29 2228.95,1215.82 2230.44,1219.06 2231.93,1222 2233.42,1224.68 2234.91,1227.1 2236.4,1229.27 2237.89,1231.23 
  2239.38,1232.97 2240.87,1234.53 2242.36,1235.91 2243.85,1237.12 2245.34,1238.2 2246.83,1239.14 2248.32,1239.96 2249.81,1240.68 2251.3,1241.3 2252.79,1241.83 
  2254.28,1242.3 2255.77,1035.19 2257.26,1025.87 2258.75,1018.74 2260.24,1013.51 2261.73,1009.93 2263.22,1007.77 2264.71,1006.85 2266.2,1007.01 2267.69,1008.11 
  2269.18,1010.02 2270.67,1012.62 2272.16,1015.84 2273.65,1019.57 2275.14,1023.75 2276.63,1028.31 2278.12,1033.19 2279.61,1038.34 2281.1,1043.71 2282.59,1049.28 
  2284.08,1054.98 2285.57,1060.8 2287.06,1066.71 2288.55,1072.68 2290.04,1078.68 2291.53,1084.7 2293.02,1090.71 2294.51,1096.69 2296,1102.64 2297.49,1108.53 
  2298.98,1114.35 2300.47,1120.09 2301.96,1125.74 2303.45,1131.29 2304.94,1136.73 2306.44,1142.05 2307.93,1147.24 2309.42,1152.3 2310.91,1157.22 2312.4,1161.99 
  2313.89,1166.62 2315.38,1171.09 2316.87,1175.41 2318.36,1179.57 2319.85,1183.57 2321.34,1187.41 2322.83,1191.08 2324.32,1194.6 2325.81,1197.96 2327.3,1201.16 
  2328.79,1204.2 2330.28,1207.09 2331.77,1209.83 2333.26,1212.42 2334.75,1214.86 2336.24,1217.17 2337.73,1219.33 2339.22,1221.37 2340.71,1223.27 2342.2,1225.05 
  2343.69,1226.72 2345.18,1134.53 2346.67,1118.2 2348.16,1104.1 2349.65,1092.09 2351.14,1082.01 2352.63,1073.65 2354.12,1066.85 2355.61,1061.41 2357.1,1057.18 
  2358.59,1054.01 2360.08,1051.77 2361.57,1050.34 2363.06,1049.62 2364.55,1049.52 2366.04,1049.96 2367.53,1050.86 2369.02,1052.17 2370.51,1053.84 2372,1055.8 
  2373.49,1058.03 2374.98,1060.49 2376.47,1063.13 2377.96,1065.94 2379.45,1068.9 2380.94,1071.96 2382.43,1075.13 2383.92,1078.38 2385.41,1081.69 2386.9,1085.06 
  2388.39,1088.46 2389.88,1091.9 2391.37,1095.36 2392.86,1098.83 2394.35,1102.31 2395.84,1105.78 2397.33,1109.25 2398.82,1112.71 2400.31,1116.15 2401.8,1119.57 
  2403.29,1122.96 2404.78,1126.33 2406.27,1129.66 2407.76,1132.96 2409.25,1136.23 2410.74,1139.45 2412.23,1142.63 2413.72,1145.77 2415.21,1148.86 2416.7,1151.91 
  2418.19,1154.91 2419.68,1157.86 2421.17,1160.75 2422.66,1163.6 2424.15,1166.39 2425.64,1169.13 2427.13,1171.81 2428.62,1174.44 2430.11,1177.01 2431.6,1179.53 
  2433.09,1181.98 2434.58,1060.33 2436.07,1061.32 2437.56,1062.71 2439.05,1064.44 2440.54,1066.44 2442.03,1068.69 2443.52,1071.13 2445.01,1073.75 2446.5,1076.51 
  2447.99,1079.39 2449.48,1082.37 2450.97,1085.44 2452.46,1088.57 2453.95,1091.76 2455.44,1094.99 2456.93,1098.26 2458.42,1101.54 2459.91,1104.84 2461.4,1108.15 
  2462.89,1111.46 2464.38,1114.77 2465.87,1118.07 2467.36,1121.35 2468.85,1124.61 2470.34,1127.85 2471.83,1131.07 2473.32,1134.25 2474.81,1137.41 2476.3,1140.53 
  2477.79,1143.61 2479.28,1146.66 2480.77,1149.66 2482.26,1152.63 2483.75,1155.54 2485.24,1158.42 2486.73,1161.24 2488.22,1164.02 2489.71,1166.75 2491.2,1169.42 
  2492.69,1172.05 2494.18,1174.62 2495.67,1177.15 2497.16,1179.62 2498.65,1182.03 2500.14,1184.39 2501.63,1186.69 2503.12,1188.95 2504.61,1191.14 2506.1,1193.28 
  2507.59,1195.36 2509.08,1197.39 2510.57,1199.37 2512.06,1201.28 2513.55,1203.15 2515.04,1204.95 2516.53,1206.71 2518.02,1208.41 2519.51,1210.05 2521,1211.65 
  2522.49,1213.19 2523.98,1099.78 2525.48,1100.13 2526.97,1101.06 2528.46,1102.47 2529.95,1104.28 2531.44,1106.44 2532.93,1108.89 2534.42,1111.58 2535.91,1114.47 
  2537.4,1117.53 2538.89,1120.72 2540.38,1124.02 2541.87,1127.41 2543.36,1130.86 2544.85,1134.36 2546.34,1137.88 2547.83,1141.43 2549.32,1144.97 2550.81,1148.51 
  2552.3,1152.03 2553.79,1155.53 2555.28,1158.98 2556.77,1162.4 2558.26,1165.76 2559.75,1169.07 2561.24,1172.32 2562.73,1175.5 2564.22,1178.62 2565.71,1181.66 
  2567.2,1184.63 2568.69,1187.52 2570.18,1190.34 2571.67,1193.07 2573.16,1195.71 2574.65,1198.28 2576.14,1200.75 2577.63,1203.15 2579.12,1205.45 2580.61,1207.67 
  2582.1,1209.81 2583.59,1211.86 2585.08,1213.82 2586.57,1215.71 2588.06,1217.51 2589.55,1219.22 2591.04,1220.86 2592.53,1222.42 2594.02,1223.91 2595.51,1225.32 
  2597,1226.65 2598.49,1227.92 2599.98,1229.11 2601.47,1230.24 2602.96,1231.31 2604.45,1232.31 2605.94,1233.25 2607.43,1234.14 2608.92,1234.97 2610.41,1235.75 
  2611.9,1236.48 2613.39,1137.57 2614.88,1136.01 2616.37,1135.25 2617.86,1135.16 2619.35,1135.64 2620.84,1136.59 2622.33,1137.95 2623.82,1139.66 2625.31,1141.65 
  2626.8,1143.89 2628.29,1146.33 2629.78,1148.93 2631.27,1151.67 2632.76,1154.51 2634.25,1157.43 2635.74,1160.41 2637.23,1163.43 2638.72,1166.47 2640.21,1169.52 
  2641.7,1172.57 2643.19,1175.59 2644.68,1178.59 2646.17,1181.55 2647.66,1184.47 2649.15,1187.33 2650.64,1190.14 2652.13,1192.88 2653.62,1195.55 2655.11,1198.15 
  2656.6,1200.68 2658.09,1203.12 2659.58,1205.49 2661.07,1207.77 2662.56,1209.97 2664.05,1212.09 2665.54,1214.12 2667.03,1216.06 2668.52,1217.92 2670.01,1219.7 
  2671.5,1221.39 2672.99,1223 2674.48,1224.53 2675.97,1225.98 2677.46,1227.35 2678.95,1228.65 2680.44,1229.87 2681.93,1231.02 2683.42,1232.1 2684.91,1233.11 
  2686.4,1234.07 2687.89,1234.95 2689.38,1235.78 2690.87,1236.56 2692.36,1237.27 2693.85,1237.94 2695.34,1238.56 2696.83,1239.13 2698.32,1239.66 2699.81,1240.15 
  2701.3,1240.59 2702.79,1205.11 2704.28,1206.16 2705.77,1207.47 2707.26,1208.97 2708.75,1210.6 2710.24,1212.32 2711.73,1214.08 2713.22,1215.87 2714.71,1217.65 
  2716.2,1219.4 2717.69,1221.13 2719.18,1222.8 2720.67,1224.42 2722.16,1225.97 2723.65,1227.45 2725.14,1228.86 2726.63,1230.19 2728.12,1231.45 2729.61,1232.63 
  2731.1,1233.74 2732.59,1234.77 2734.08,1235.73 2735.57,1236.61 2737.06,1237.43 2738.55,1238.19 2740.04,1238.88 2741.53,1239.51 2743.02,1240.09 2744.52,1240.61 
  2746.01,1241.08 2747.5,1241.51 2748.99,1241.9 2750.48,1242.25 2751.97,1242.56 2753.46,1242.84 2754.95,1243.09 2756.44,1243.31 2757.93,1243.5 2759.42,1243.67 
  2760.91,1243.82 2762.4,1243.96 2763.89,1244.07 2765.38,1244.17 2766.87,1244.26 2768.36,1244.34 2769.85,1244.4 2771.34,1244.46 2772.83,1244.51 2774.32,1244.55 
  2775.81,1244.58 2777.3,1244.61 2778.79,1244.64 2780.28,1244.66 2781.77,1244.68 2783.26,1244.69 2784.75,1244.7 2786.24,1244.71 2787.73,1244.72 2789.22,1244.73 
  
  "/>
</svg>
