<?xml version="1.0" encoding="utf-8"?>
<svg xmlns="http://www.w3.org/2000/svg" xmlns:xlink="http://www.w3.org/1999/xlink" width="800" height="400" viewBox="0 0 3200 1600">
<defs>
  <clipPath id="clip1300">
    <rect x="0" y="0" width="3200" height="1600"/>
  </clipPath>
</defs>
<polygon clip-path="url(#clip1300)" points="
0,1600 3200,1600 3200,0 0,0 
  " fill="#ffffff" fill-rule="evenodd" fill-opacity="1"/>
<defs>
  <clipPath id="clip1301">
    <rect x="640" y="0" width="2241" height="1600"/>
  </clipPath>
</defs>
<polygon clip-path="url(#clip1300)" points="
604.22,1155.48 2853.54,1155.48 2853.54,188.976 604.22,188.976 
  " fill="#ffffff" fill-rule="evenodd" fill-opacity="1"/>
<defs>
  <clipPath id="clip1302">
    <rect x="604" y="188" width="2250" height="968"/>
  </clipPath>
</defs>
<polyline clip-path="url(#clip1302)" style="stroke:#000000; stroke-width:2; stroke-opacity:0.1; fill:none" points="
  666.406,1155.48 666.406,188.976 
  "/>
<polyline clip-path="url(#clip1302)" style="stroke:#000000; stroke-width:2; stroke-opacity:0.1; fill:none" points="
  1020.32,1155.48 1020.32,188.976 
  "/>
<polyline clip-path="url(#clip1302)" style="stroke:#000000; stroke-width:2; stroke-opacity:0.1; fill:none" points="
  1374.23,1155.48 1374.23,188.976 
  "/>
<polyline clip-path="url(#clip1302)" style="stroke:#000000; stroke-width:2; stroke-opacity:0.1; fill:none" points="
  1728.14,1155.48 1728.14,188.976 
  "/>
<polyline clip-path="url(#clip1302)" style="stroke:#000000; stroke-width:2; stroke-opacity:0.1; fill:none" points="
  2082.06,1155.48 2082.06,188.976 
  "/>
<polyline clip-path="url(#clip1302)" style="stroke:#000000; stroke-width:2; stroke-opacity:0.1; fill:none" points="
  2435.97,1155.48 2435.97,188.976 
  "/>
<polyline clip-path="url(#clip1302)" style="stroke:#000000; stroke-width:2; stroke-opacity:0.1; fill:none" points="
  2789.88,1155.48 2789.88,188.976 
  "/>
<polyline clip-path="url(#clip1302)" style="stroke:#000000; stroke-width:2; stroke-opacity:0.1; fill:none" points="
  604.22,1128.12 2853.54,1128.12 
  "/>
<polyline clip-path="url(#clip1302)" style="stroke:#000000; stroke-width:2; stroke-opacity:0.1; fill:none" points="
  604.22,900.176 2853.54,900.176 
  "/>
<polyline clip-path="url(#clip1302)" style="stroke:#000000; stroke-width:2; stroke-opacity:0.1; fill:none" points="
  604.22,672.227 2853.54,672.227 
  "/>
<polyline clip-path="url(#clip1302)" style="stroke:#000000; stroke-width:2; stroke-opacity:0.1; fill:none" points="
  604.22,444.279 2853.54,444.279 
  "/>
<polyline clip-path="url(#clip1302)" style="stroke:#000000; stroke-width:2; stroke-opacity:0.1; fill:none" points="
  604.22,216.33 2853.54,216.33 
  "/>
<polyline clip-path="url(#clip1300)" style="stroke:#000000; stroke-width:4; stroke-opacity:1; fill:none" points="
  604.22,1155.48 2853.54,1155.48 
  "/>
<polyline clip-path="url(#clip1300)" style="stroke:#000000; stroke-width:4; stroke-opacity:1; fill:none" points="
  604.22,1155.48 604.22,188.976 
  "/>
<polyline clip-path="url(#clip1300)" style="stroke:#000000; stroke-width:4; stroke-opacity:1; fill:none" points="
  666.406,1155.48 666.406,1140.98 
  "/>
<polyline clip-path="url(#clip1300)" style="stroke:#000000; stroke-width:4; stroke-opacity:1; fill:none" points="
  1020.32,1155.48 1020.32,1140.98 
  "/>
<polyline clip-path="url(#clip1300)" style="stroke:#000000; stroke-width:4; stroke-opacity:1; fill:none" points="
  1374.23,1155.48 1374.23,1140.98 
  "/>
<polyline clip-path="url(#clip1300)" style="stroke:#000000; stroke-width:4; stroke-opacity:1; fill:none" points="
  1728.14,1155.48 1728.14,1140.98 
  "/>
<polyline clip-path="url(#clip1300)" style="stroke:#000000; stroke-width:4; stroke-opacity:1; fill:none" points="
  2082.06,1155.48 2082.06,1140.98 
  "/>
<polyline clip-path="url(#clip1300)" style="stroke:#000000; stroke-width:4; stroke-opacity:1; fill:none" points="
  2435.97,1155.48 2435.97,1140.98 
  "/>
<polyline clip-path="url(#clip1300)" style="stroke:#000000; stroke-width:4; stroke-opacity:1; fill:none" points="
  2789.88,1155.48 2789.88,1140.98 
  "/>
<polyline clip-path="url(#clip1300)" style="stroke:#000000; stroke-width:4; stroke-opacity:1; fill:none" points="
  604.22,1128.12 637.96,1128.12 
  "/>
<polyline clip-path="url(#clip1300)" style="stroke:#000000; stroke-width:4; stroke-opacity:1; fill:none" points="
  604.22,900.176 637.96,900.176 
  "/>
<polyline clip-path="url(#clip1300)" style="stroke:#000000; stroke-width:4; stroke-opacity:1; fill:none" points="
  604.22,672.227 637.96,672.227 
  "/>
<polyline clip-path="url(#clip1300)" style="stroke:#000000; stroke-width:4; stroke-opacity:1; fill:none" points="
  604.22,444.279 637.96,444.279 
  "/>
<polyline clip-path="url(#clip1300)" style="stroke:#000000; stroke-width:4; stroke-opacity:1; fill:none" points="
  604.22,216.33 637.96,216.33 
  "/>
<g clip-path="url(#clip1300)">
<text style="fill:#000000; fill-opacity:1; font-family:Arial,Helvetica Neue,Helvetica,sans-serif; font-size:71px; text-anchor:middle;" transform="rotate(0, 666.406, 1233.88)" x="666.406" y="1233.88">0</text>
</g>
<g clip-path="url(#clip1300)">
<text style="fill:#000000; fill-opacity:1; font-family:Arial,Helvetica Neue,Helvetica,sans-serif; font-size:71px; text-anchor:middle;" transform="rotate(0, 1020.32, 1233.88)" x="1020.32" y="1233.88">4</text>
</g>
<g clip-path="url(#clip1300)">
<text style="fill:#000000; fill-opacity:1; font-family:Arial,Helvetica Neue,Helvetica,sans-serif; font-size:71px; text-anchor:middle;" transform="rotate(0, 1374.23, 1233.88)" x="1374.23" y="1233.88">8</text>
</g>
<g clip-path="url(#clip1300)">
<text style="fill:#000000; fill-opacity:1; font-family:Arial,Helvetica Neue,Helvetica,sans-serif; font-size:71px; text-anchor:middle;" transform="rotate(0, 1728.14, 1233.88)" x="1728.14" y="1233.88">12</text>
</g>
<g clip-path="url(#clip1300)">
<text style="fill:#000000; fill-opacity:1; font-family:Arial,Helvetica Neue,Helvetica,sans-serif; font-size:71px; text-anchor:middle;" transform="rotate(0, 2082.06, 1233.88)" x="2082.06" y="1233.88">16</text>
</g>
<g clip-path="url(#clip1300)">
<text style="fill:#000000; fill-opacity:1; font-family:Arial,Helvetica Neue,Helvetica,sans-serif; font-size:71px; text-anchor:middle;" transform="rotate(0, 2435.97, 1233.88)" x="2435.97" y="1233.88">20</text>
</g>
<g clip-path="url(#clip1300)">
<text style="fill:#000000; fill-opacity:1; font-family:Arial,Helvetica Neue,Helvetica,sans-serif; font-size:71px; text-anchor:middle;" transform="rotate(0, 2789.88, 1233.88)" x="2789.88" y="1233.88">24</text>
</g>
<g clip-path="url(#clip1300)">
<text style="fill:#000000; fill-opacity:1; font-family:Arial,Helvetica Neue,Helvetica,sans-serif; font-size:71px; text-anchor:end;" transform="rotate(0, 572.22, 1154.12)" x="572.22" y="1154.12">0.00</text>
</g>
<g clip-path="url(#clip1300)">
<text style="fill:#000000; fill-opacity:1; font-family:Arial,Helvetica Neue,Helvetica,sans-serif; font-size:71px; text-anchor:end;" transform="rotate(0, 572.22, 926.176)" x="572.22" y="926.176">0.25</text>
</g>
<g clip-path="url(#clip1300)">
<text style="fill:#000000; fill-opacity:1; font-family:Arial,Helvetica Neue,Helvetica,sans-serif; font-size:71px; text-anchor:end;" transform="rotate(0, 572.22, 698.227)" x="572.22" y="698.227">0.50</text>
</g>
<g clip-path="url(#clip1300)">
<text style="fill:#000000; fill-opacity:1; font-family:Arial,Helvetica Neue,Helvetica,sans-serif; font-size:71px; text-anchor:end;" transform="rotate(0, 572.22, 470.279)" x="572.22" y="470.279">0.75</text>
</g>
<g clip-path="url(#clip1300)">
<text style="fill:#000000; fill-opacity:1; font-family:Arial,Helvetica Neue,Helvetica,sans-serif; font-size:71px; text-anchor:end;" transform="rotate(0, 572.22, 242.33)" x="572.22" y="242.33">1.00</text>
</g>
<g clip-path="url(#clip1300)">
<text style="fill:#000000; fill-opacity:1; font-family:Arial,Helvetica Neue,Helvetica,sans-serif; font-size:95px; text-anchor:middle;" transform="rotate(0, 1728.88, 1349.73)" x="1728.88" y="1349.73">Time (hours)</text>
</g>
<g clip-path="url(#clip1300)">
<text style="fill:#000000; fill-opacity:1; font-family:Arial,Helvetica Neue,Helvetica,sans-serif; font-size:95px; text-anchor:middle;" transform="rotate(-90, 381.919, 672.227)" x="381.919" y="672.227">Prob of wait (NS)</text>
</g>
<polyline clip-path="url(#clip1302)" style="stroke:#009af9; stroke-width:4; stroke-opacity:1; fill:none" points="
  667.88,216.33 669.355,216.33 670.83,216.33 672.304,216.33 673.779,216.33 675.254,216.33 676.728,216.33 678.203,216.33 679.678,216.33 681.152,216.33 
  682.627,216.33 684.101,216.33 685.576,216.33 687.051,216.33 688.525,216.33 690,216.33 691.475,216.33 692.949,216.33 694.424,216.33 695.899,216.33 
  697.373,216.33 698.848,216.33 700.322,216.33 701.797,216.33 703.272,216.33 704.746,216.33 706.221,216.33 707.696,216.33 709.17,216.33 710.645,216.33 
  712.12,216.33 713.594,216.33 715.069,216.33 716.543,216.33 718.018,216.33 719.493,216.33 720.967,216.33 722.442,216.33 723.917,216.33 725.391,216.33 
  726.866,216.33 728.341,216.33 729.815,216.33 731.29,216.33 732.765,216.33 734.239,216.33 735.714,216.33 737.188,216.33 738.663,216.33 740.138,216.33 
  741.612,216.33 743.087,216.33 744.562,216.33 746.036,216.33 747.511,216.33 748.986,216.33 750.46,216.33 751.935,216.33 753.409,216.33 754.884,216.33 
  756.359,216.33 757.833,216.336 759.308,216.337 760.783,216.338 762.257,216.339 763.732,216.34 765.207,216.342 766.681,216.343 768.156,216.345 769.63,216.347 
  771.105,216.349 772.58,216.352 774.054,216.355 775.529,216.358 777.004,216.362 778.478,216.366 779.953,216.371 781.428,216.376 782.902,216.382 784.377,216.389 
  785.851,216.397 787.326,216.406 788.801,216.416 790.275,216.427 791.75,216.44 793.225,216.455 794.699,216.471 796.174,216.489 797.649,216.51 799.123,216.533 
  800.598,216.56 802.072,216.59 803.547,216.623 805.022,216.661 806.496,216.703 807.971,216.751 809.446,216.804 810.92,216.865 812.395,216.932 813.87,217.008 
  815.344,217.093 816.819,217.189 818.293,217.296 819.768,217.416 821.243,217.551 822.717,217.701 824.192,217.87 825.667,218.058 827.141,218.269 828.616,218.504 
  830.091,218.767 831.565,219.06 833.04,219.387 834.514,219.752 835.989,220.157 837.464,220.609 838.938,221.111 840.413,221.669 841.888,222.289 843.362,222.977 
  844.837,223.741 846.312,222.042 847.786,222.292 849.261,222.553 850.735,222.824 852.21,223.106 853.685,223.401 855.159,223.707 856.634,224.026 858.109,224.358 
  859.583,224.703 861.058,225.063 862.533,225.437 864.007,225.826 865.482,226.231 866.956,226.653 868.431,227.091 869.906,227.547 871.38,228.021 872.855,228.513 
  874.33,229.026 875.804,229.558 877.279,230.111 878.754,230.686 880.228,231.284 881.703,231.905 883.177,232.549 884.652,233.219 886.127,233.914 887.601,234.636 
  889.076,235.386 890.551,236.164 892.025,236.971 893.5,237.809 894.975,238.679 896.449,239.581 897.924,240.516 899.398,241.486 900.873,242.492 902.348,243.535 
  903.822,244.616 905.297,245.736 906.772,246.897 908.246,248.1 909.721,249.346 911.196,250.636 912.67,251.972 914.145,253.356 915.619,254.788 917.094,256.27 
  918.569,257.803 920.043,259.39 921.518,261.031 922.993,262.728 924.467,264.483 925.942,266.297 927.417,268.172 928.891,270.11 930.366,272.112 931.841,274.18 
  933.315,276.315 934.79,226.361 936.264,226.639 937.739,226.924 939.214,227.216 940.688,227.517 942.163,227.825 943.638,228.141 945.112,228.466 946.587,228.799 
  948.062,229.14 949.536,229.491 951.011,229.851 952.485,230.22 953.96,230.599 955.435,230.988 956.909,231.387 958.384,231.796 959.859,232.215 961.333,232.646 
  962.808,233.087 964.283,233.54 965.757,234.004 967.232,234.481 968.706,234.969 970.181,235.47 971.656,235.984 973.13,236.51 974.605,237.05 976.08,237.604 
  977.554,238.172 979.029,238.754 980.504,239.35 981.978,239.961 983.453,240.588 984.927,241.23 986.402,241.889 987.877,242.563 989.351,243.255 990.826,243.963 
  992.301,244.689 993.775,245.433 995.25,246.195 996.725,246.976 998.199,247.775 999.674,248.594 1001.15,249.433 1002.62,250.293 1004.1,251.173 1005.57,252.074 
  1007.05,252.997 1008.52,253.943 1010,254.91 1011.47,255.901 1012.95,256.915 1014.42,257.954 1015.89,259.017 1017.37,260.105 1018.84,261.218 1020.32,262.358 
  1021.79,263.524 1023.27,361.468 1024.74,358.406 1026.22,355.396 1027.69,352.436 1029.17,349.527 1030.64,346.668 1032.12,343.859 1033.59,341.099 1035.07,338.388 
  1036.54,335.725 1038.01,333.11 1039.49,330.541 1040.96,328.02 1042.44,325.544 1043.91,323.114 1045.39,320.729 1046.86,318.388 1048.34,316.092 1049.81,313.839 
  1051.29,311.628 1052.76,309.46 1054.24,307.334 1055.71,305.249 1057.18,303.204 1058.66,301.2 1060.13,299.235 1061.61,297.309 1063.08,295.421 1064.56,293.572 
  1066.03,291.759 1067.51,289.984 1068.98,288.244 1070.46,286.541 1071.93,284.872 1073.41,283.238 1074.88,281.638 1076.35,280.071 1077.83,278.537 1079.3,277.036 
  1080.78,275.567 1082.25,274.128 1083.73,272.721 1085.2,271.344 1086.68,269.997 1088.15,268.679 1089.63,267.39 1091.1,266.129 1092.58,264.896 1094.05,263.69 
  1095.53,262.511 1097,261.358 1098.47,260.231 1099.95,259.129 1101.42,258.052 1102.9,257 1104.37,255.971 1105.85,254.966 1107.32,253.984 1108.8,253.025 
  1110.27,252.087 1111.75,266.125 1113.22,257.576 1114.7,250.372 1116.17,244.331 1117.64,239.286 1119.12,235.093 1120.59,231.62 1122.07,228.755 1123.54,226.4 
  1125.02,224.47 1126.49,222.894 1127.97,221.611 1129.44,220.57 1130.92,219.726 1132.39,219.045 1133.87,218.496 1135.34,218.055 1136.82,217.701 1138.29,217.418 
  1139.76,217.192 1141.24,217.012 1142.71,216.869 1144.19,216.755 1145.66,216.665 1147.14,216.593 1148.61,216.537 1150.09,216.492 1151.56,216.457 1153.04,216.43 
  1154.51,216.408 1155.99,216.391 1157.46,216.377 1158.93,216.367 1160.41,216.359 1161.88,216.352 1163.36,216.348 1164.83,216.344 1166.31,216.341 1167.78,216.338 
  1169.26,216.336 1170.73,216.335 1172.21,216.334 1173.68,216.333 1175.16,216.332 1176.63,216.332 1178.1,216.332 1179.58,216.331 1181.05,216.331 1182.53,216.331 
  1184,216.331 1185.48,216.331 1186.95,216.33 1188.43,216.33 1189.9,216.33 1191.38,216.33 1192.85,216.33 1194.33,216.33 1195.8,216.33 1197.28,216.33 
  1198.75,216.33 1200.22,1125.83 1201.7,1124.75 1203.17,1123.26 1204.65,1121.26 1206.12,1118.61 1207.6,1115.18 1209.07,1110.81 1210.55,1105.34 1212.02,1098.57 
  1213.5,1090.34 1214.97,1080.47 1216.45,1068.78 1217.92,1055.13 1219.39,1039.36 1220.87,1021.38 1222.34,1001.11 1223.82,978.515 1225.29,953.598 1226.77,926.416 
  1228.24,897.077 1229.72,865.737 1231.19,832.605 1232.67,797.938 1234.14,762.035 1235.62,725.232 1237.09,687.896 1238.57,650.408 1240.04,613.158 1241.51,576.533 
  1242.99,540.899 1244.46,506.599 1245.94,473.934 1247.41,443.158 1248.89,414.474 1250.36,388.027 1251.84,363.904 1253.31,342.136 1254.79,322.702 1256.26,305.535 
  1257.74,290.529 1259.21,277.546 1260.68,266.429 1262.16,257.004 1263.63,249.091 1265.11,242.513 1266.58,237.095 1268.06,232.673 1269.53,229.098 1271.01,226.232 
  1272.48,223.954 1273.96,222.159 1275.43,220.756 1276.91,219.668 1278.38,218.83 1279.85,218.191 1281.33,217.706 1282.8,217.341 1284.28,217.069 1285.75,216.866 
  1287.23,216.717 1288.7,1128.12 1290.18,1128.12 1291.65,1128.12 1293.13,1128.12 1294.6,1128.12 1296.08,1128.12 1297.55,1128.12 1299.03,1128.12 1300.5,1128.12 
  1301.97,1128.12 1303.45,1128.12 1304.92,1128.12 1306.4,1128.12 1307.87,1128.12 1309.35,1128.12 1310.82,1128.12 1312.3,1128.12 1313.77,1128.12 1315.25,1128.12 
  1316.72,1128.12 1318.2,1128.12 1319.67,1128.12 1321.14,1128.12 1322.62,1128.12 1324.09,1128.11 1325.57,1128.11 1327.04,1128.1 1328.52,1128.08 1329.99,1128.06 
  1331.47,1128.04 1332.94,1128 1334.42,1127.95 1335.89,1127.88 1337.37,1127.79 1338.84,1127.67 1340.31,1127.51 1341.79,1127.3 1343.26,1127.02 1344.74,1126.67 
  1346.21,1126.22 1347.69,1125.66 1349.16,1124.95 1350.64,1124.07 1352.11,1122.98 1353.59,1121.65 1355.06,1120.02 1356.54,1118.07 1358.01,1115.72 1359.49,1112.93 
  1360.96,1109.64 1362.43,1105.77 1363.91,1101.25 1365.38,1096.03 1366.86,1090.01 1368.33,1083.13 1369.81,1075.31 1371.28,1066.47 1372.76,1056.55 1374.23,1045.48 
  1375.71,1033.19 1377.18,1128.12 1378.66,1128.12 1380.13,1128.12 1381.6,1128.12 1383.08,1128.12 1384.55,1128.12 1386.03,1128.12 1387.5,1128.12 1388.98,1128.12 
  1390.45,1128.12 1391.93,1128.12 1393.4,1128.12 1394.88,1128.12 1396.35,1128.12 1397.83,1128.12 1399.3,1128.12 1400.78,1128.12 1402.25,1128.12 1403.72,1128.12 
  1405.2,1128.11 1406.67,1128.1 1408.15,1128.06 1409.62,1127.99 1411.1,1127.85 1412.57,1127.6 1414.05,1127.13 1415.52,1126.33 1417,1124.99 1418.47,1122.83 
  1419.95,1119.46 1421.42,1114.39 1422.89,1106.99 1424.37,1096.55 1425.84,1082.26 1427.32,1063.27 1428.79,1038.79 1430.27,1008.13 1431.74,970.812 1433.22,926.69 
  1434.69,876.006 1436.17,819.454 1437.64,758.204 1439.12,693.85 1440.59,628.321 1442.06,563.717 1443.54,502.113 1445.01,445.36 1446.49,394.892 1447.96,351.608 
  1449.44,315.827 1450.91,287.326 1452.39,265.456 1453.86,249.285 1455.34,237.76 1456.81,229.841 1458.29,224.589 1459.76,221.227 1461.24,219.147 1462.71,217.903 
  1464.18,217.183 1465.66,1081.07 1467.13,1070.86 1468.61,1059.01 1470.08,1045.38 1471.56,1029.85 1473.03,1012.3 1474.51,992.66 1475.98,970.876 1477.46,946.931 
  1478.93,920.852 1480.41,892.705 1481.88,862.608 1483.35,830.722 1484.83,797.257 1486.3,762.47 1487.78,726.657 1489.25,690.148 1490.73,653.3 1492.2,616.487 
  1493.68,580.09 1495.15,544.48 1496.63,510.014 1498.1,477.017 1499.58,445.775 1501.05,416.527 1502.53,389.455 1504,364.685 1505.47,342.284 1506.95,322.26 
  1508.42,304.571 1509.9,289.128 1511.37,275.805 1512.85,264.445 1514.32,254.873 1515.8,246.901 1517.27,240.338 1518.75,234.999 1520.22,230.704 1521.7,227.288 
  1523.17,224.602 1524.64,222.514 1526.12,220.908 1527.59,219.686 1529.07,218.767 1530.54,218.083 1532.02,217.578 1533.49,217.211 1534.97,216.946 1536.44,216.756 
  1537.92,216.623 1539.39,216.529 1540.87,216.464 1542.34,216.42 1543.81,216.389 1545.29,216.369 1546.76,216.355 1548.24,216.346 1549.71,216.341 1551.19,216.337 
  1552.66,216.334 1554.14,217.802 1555.61,217.843 1557.09,217.885 1558.56,217.928 1560.04,217.973 1561.51,218.018 1562.99,218.064 1564.46,218.112 1565.93,218.161 
  1567.41,218.211 1568.88,218.262 1570.36,218.315 1571.83,218.369 1573.31,218.424 1574.78,218.48 1576.26,218.538 1577.73,218.598 1579.21,218.659 1580.68,218.721 
  1582.16,218.785 1583.63,218.85 1585.1,218.917 1586.58,218.985 1588.05,219.056 1589.53,219.127 1591,219.201 1592.48,219.276 1593.95,219.353 1595.43,219.432 
  1596.9,219.513 1598.38,219.596 1599.85,219.68 1601.33,219.767 1602.8,219.856 1604.28,219.946 1605.75,220.039 1607.22,220.134 1608.7,220.231 1610.17,220.33 
  1611.65,220.432 1613.12,220.536 1614.6,220.642 1616.07,220.75 1617.55,220.861 1619.02,220.975 1620.5,221.091 1621.97,221.21 1623.45,221.331 1624.92,221.455 
  1626.39,221.582 1627.87,221.711 1629.34,221.843 1630.82,221.979 1632.29,222.117 1633.77,222.258 1635.24,222.402 1636.72,222.55 1638.19,222.7 1639.67,222.854 
  1641.14,223.011 1642.62,222.989 1644.09,223.384 1645.56,223.8 1647.04,224.237 1648.51,224.696 1649.99,225.179 1651.46,225.686 1652.94,226.219 1654.41,226.777 
  1655.89,227.363 1657.36,227.978 1658.84,228.621 1660.31,229.296 1661.79,230.002 1663.26,230.741 1664.74,231.514 1666.21,232.322 1667.68,233.167 1669.16,234.05 
  1670.63,234.971 1672.11,235.933 1673.58,236.937 1675.06,237.984 1676.53,239.075 1678.01,240.212 1679.48,241.396 1680.96,242.628 1682.43,243.91 1683.91,245.244 
  1685.38,246.63 1686.85,248.071 1688.33,249.567 1689.8,251.12 1691.28,252.732 1692.75,254.403 1694.23,256.136 1695.7,257.932 1697.18,259.792 1698.65,261.717 
  1700.13,263.71 1701.6,265.771 1703.08,267.902 1704.55,270.104 1706.02,272.378 1707.5,274.727 1708.97,277.15 1710.45,279.649 1711.92,282.227 1713.4,284.883 
  1714.87,287.618 1716.35,290.435 1717.82,293.334 1719.3,296.315 1720.77,299.381 1722.25,302.532 1723.72,305.768 1725.2,309.091 1726.67,312.502 1728.14,316 
  1729.62,319.587 1731.09,279.728 1732.57,283.317 1734.04,287.057 1735.52,290.952 1736.99,295.004 1738.47,299.216 1739.94,303.59 1741.42,308.128 1742.89,312.833 
  1744.37,317.707 1745.84,322.75 1747.31,327.964 1748.79,333.351 1750.26,338.911 1751.74,344.645 1753.21,350.553 1754.69,356.634 1756.16,362.89 1757.64,369.318 
  1759.11,375.919 1760.59,382.69 1762.06,389.631 1763.54,396.739 1765.01,404.012 1766.49,411.448 1767.96,419.044 1769.43,426.797 1770.91,434.704 1772.38,442.76 
  1773.86,450.961 1775.33,459.304 1776.81,467.783 1778.28,476.394 1779.76,485.132 1781.23,493.991 1782.71,502.966 1784.18,512.05 1785.66,521.238 1787.13,530.524 
  1788.6,539.9 1790.08,549.361 1791.55,558.899 1793.03,568.507 1794.5,578.18 1795.98,587.908 1797.45,597.686 1798.93,607.505 1800.4,617.359 1801.88,627.24 
  1803.35,637.141 1804.83,647.054 1806.3,656.972 1807.77,666.887 1809.25,676.792 1810.72,686.681 1812.2,696.545 1813.67,706.377 1815.15,716.172 1816.62,725.921 
  1818.1,735.618 1819.57,303.38 1821.05,302.849 1822.52,302.321 1824,301.796 1825.47,301.273 1826.95,300.752 1828.42,300.233 1829.89,299.717 1831.37,299.203 
  1832.84,298.692 1834.32,298.183 1835.79,297.676 1837.27,297.171 1838.74,296.669 1840.22,296.169 1841.69,295.672 1843.17,295.176 1844.64,294.683 1846.12,294.192 
  1847.59,293.704 1849.06,293.218 1850.54,292.734 1852.01,292.252 1853.49,291.773 1854.96,291.296 1856.44,290.821 1857.91,290.348 1859.39,289.878 1860.86,289.41 
  1862.34,288.944 1863.81,288.48 1865.29,288.019 1866.76,287.559 1868.24,287.102 1869.71,286.647 1871.18,286.195 1872.66,285.744 1874.13,285.296 1875.61,284.85 
  1877.08,284.406 1878.56,283.965 1880.03,283.525 1881.51,283.088 1882.98,282.653 1884.46,282.22 1885.93,281.789 1887.41,281.36 1888.88,280.934 1890.35,280.509 
  1891.83,280.087 1893.3,279.667 1894.78,279.249 1896.25,278.833 1897.73,278.419 1899.2,278.007 1900.68,277.598 1902.15,277.19 1903.63,276.785 1905.1,276.381 
  1906.58,275.98 1908.05,222.734 1909.52,223 1911,223.277 1912.47,223.563 1913.95,223.86 1915.42,224.168 1916.9,224.486 1918.37,224.816 1919.85,225.158 
  1921.32,225.511 1922.8,225.878 1924.27,226.256 1925.75,226.648 1927.22,227.054 1928.7,227.473 1930.17,227.906 1931.64,228.354 1933.12,228.817 1934.59,229.296 
  1936.07,229.79 1937.54,230.3 1939.02,230.827 1940.49,231.371 1941.97,231.933 1943.44,232.512 1944.92,233.11 1946.39,233.726 1947.87,234.362 1949.34,235.018 
  1950.81,235.693 1952.29,236.389 1953.76,237.107 1955.24,237.846 1956.71,238.607 1958.19,239.39 1959.66,240.197 1961.14,241.027 1962.61,241.881 1964.09,242.76 
  1965.56,243.664 1967.04,244.593 1968.51,245.549 1969.99,246.531 1971.46,247.54 1972.93,248.576 1974.41,249.641 1975.88,250.734 1977.36,251.857 1978.83,253.009 
  1980.31,254.192 1981.78,255.405 1983.26,256.649 1984.73,257.925 1986.21,259.233 1987.68,260.575 1989.16,261.949 1990.63,263.357 1992.1,264.8 1993.58,266.277 
  1995.05,267.79 1996.53,233.649 1998,234.709 1999.48,235.823 2000.95,236.994 2002.43,238.224 2003.9,239.515 2005.38,240.87 2006.85,242.29 2008.33,243.778 
  2009.8,245.336 2011.27,246.967 2012.75,248.672 2014.22,250.455 2015.7,252.317 2017.17,254.261 2018.65,256.289 2020.12,258.403 2021.6,260.607 2023.07,262.901 
  2024.55,265.289 2026.02,267.773 2027.5,270.354 2028.97,273.036 2030.45,275.82 2031.92,278.708 2033.39,281.702 2034.87,284.805 2036.34,288.019 2037.82,291.344 
  2039.29,294.783 2040.77,298.338 2042.24,302.01 2043.72,305.801 2045.19,309.712 2046.67,313.744 2048.14,317.899 2049.62,322.177 2051.09,326.579 2052.56,331.107 
  2054.04,335.761 2055.51,340.541 2056.99,345.448 2058.46,350.482 2059.94,355.643 2061.41,360.931 2062.89,366.346 2064.36,371.887 2065.84,377.554 2067.31,383.346 
  2068.79,389.263 2070.26,395.302 2071.73,401.464 2073.21,407.746 2074.68,414.147 2076.16,420.665 2077.63,427.299 2079.11,434.046 2080.58,440.904 2082.06,447.871 
  2083.53,454.944 2085.01,237.278 2086.48,241.499 2087.96,246.409 2089.43,252.084 2090.91,258.602 2092.38,266.042 2093.85,274.48 2095.33,283.988 2096.8,294.633 
  2098.28,306.475 2099.75,319.564 2101.23,333.938 2102.7,349.622 2104.18,366.626 2105.65,384.943 2107.13,404.548 2108.6,425.399 2110.08,447.437 2111.55,470.582 
  2113.02,494.741 2114.5,519.801 2115.97,545.64 2117.45,572.12 2118.92,599.096 2120.4,626.415 2121.87,653.921 2123.35,681.456 2124.82,708.863 2126.3,735.99 
  2127.77,762.691 2129.25,788.827 2130.72,814.272 2132.2,838.911 2133.67,862.642 2135.14,885.377 2136.62,907.045 2138.09,927.587 2139.57,946.961 2141.04,965.139 
  2142.52,982.106 2143.99,997.861 2145.47,1012.42 2146.94,1025.79 2148.42,1038.02 2149.89,1049.15 2151.37,1059.22 2152.84,1068.28 2154.31,1076.39 2155.79,1083.61 
  2157.26,1090.02 2158.74,1095.66 2160.21,1100.6 2161.69,1104.91 2163.16,1108.64 2164.64,1111.86 2166.11,1114.62 2167.59,1116.97 2169.06,1118.96 2170.54,1120.64 
  2172.01,1122.04 2173.48,241.703 2174.96,246.023 2176.43,250.935 2177.91,256.495 2179.38,262.756 2180.86,269.773 2182.33,277.599 2183.81,286.283 2185.28,295.871 
  2186.76,306.406 2188.23,317.922 2189.71,330.449 2191.18,344.006 2192.66,358.605 2194.13,374.249 2195.6,390.926 2197.08,408.619 2198.55,427.295 2200.03,446.912 
  2201.5,467.416 2202.98,488.742 2204.45,510.816 2205.93,533.554 2207.4,556.863 2208.88,580.646 2210.35,604.797 2211.83,629.207 2213.3,653.766 2214.77,678.361 
  2216.25,702.881 2217.72,727.215 2219.2,751.258 2220.67,774.907 2222.15,798.068 2223.62,820.652 2225.1,842.577 2226.57,863.772 2228.05,884.173 2229.52,903.727 
  2231,922.39 2232.47,940.126 2233.95,956.912 2235.42,972.731 2236.89,987.575 2238.37,1001.45 2239.84,1014.36 2241.32,1026.32 2242.79,1037.36 2244.27,1047.5 
  2245.74,1056.77 2247.22,1065.22 2248.69,1072.89 2250.17,1079.81 2251.64,1086.03 2253.12,1091.6 2254.59,1096.56 2256.06,1100.96 2257.54,1104.85 2259.01,1108.26 
  2260.49,1111.25 2261.96,245.842 2263.44,249.23 2264.91,252.933 2266.39,256.971 2267.86,261.363 2269.34,266.129 2270.81,271.288 2272.29,276.859 2273.76,282.86 
  2275.23,289.308 2276.71,296.22 2278.18,303.611 2279.66,311.494 2281.13,319.881 2282.61,328.781 2284.08,338.204 2285.56,348.154 2287.03,358.634 2288.51,369.646 
  2289.98,381.188 2291.46,393.254 2292.93,405.837 2294.41,418.926 2295.88,432.508 2297.35,446.566 2298.83,461.081 2300.3,476.031 2301.78,491.391 2303.25,507.133 
  2304.73,523.228 2306.2,539.642 2307.68,556.343 2309.15,573.293 2310.63,590.455 2312.1,607.791 2313.58,625.26 2315.05,642.822 2316.52,660.436 2318,678.06 
  2319.47,695.653 2320.95,713.175 2322.42,730.586 2323.9,747.847 2325.37,764.919 2326.85,781.767 2328.32,798.355 2329.8,814.652 2331.27,830.625 2332.75,846.247 
  2334.22,861.491 2335.7,876.334 2337.17,890.752 2338.64,904.728 2340.12,918.246 2341.59,931.29 2343.07,943.851 2344.54,955.919 2346.02,967.487 2347.49,978.553 
  2348.97,989.114 2350.44,249.882 2351.92,252.211 2353.39,254.673 2354.87,257.272 2356.34,260.012 2357.81,262.901 2359.29,265.941 2360.76,269.139 2362.24,272.499 
  2363.71,276.026 2365.19,279.726 2366.66,283.602 2368.14,287.659 2369.61,291.902 2371.09,296.334 2372.56,300.961 2374.04,305.785 2375.51,310.81 2376.98,316.04 
  2378.46,321.477 2379.93,327.125 2381.41,332.984 2382.88,339.059 2384.36,345.35 2385.83,351.858 2387.31,358.584 2388.78,365.529 2390.26,372.693 2391.73,380.076 
  2393.21,387.675 2394.68,395.491 2396.16,403.521 2397.63,411.762 2399.1,420.213 2400.58,428.869 2402.05,437.727 2403.53,446.782 2405,456.03 2406.48,465.465 
  2407.95,475.082 2409.43,484.873 2410.9,494.833 2412.38,504.954 2413.85,515.228 2415.33,525.648 2416.8,536.205 2418.27,546.889 2419.75,557.693 2421.22,568.606 
  2422.7,579.618 2424.17,590.72 2425.65,601.9 2427.12,613.149 2428.6,624.456 2430.07,635.81 2431.55,647.199 2433.02,658.612 2434.5,670.039 2435.97,681.469 
  2437.44,692.889 2438.92,297.149 2440.39,301.828 2441.87,306.708 2443.34,311.791 2444.82,317.081 2446.29,322.581 2447.77,328.293 2449.24,334.22 2450.72,340.364 
  2452.19,346.727 2453.67,353.309 2455.14,360.111 2456.62,367.134 2458.09,374.378 2459.56,381.841 2461.04,389.524 2462.51,397.425 2463.99,405.541 2465.46,413.87 
  2466.94,422.409 2468.41,431.155 2469.89,440.103 2471.36,449.249 2472.84,458.588 2474.31,468.115 2475.79,477.822 2477.26,487.705 2478.73,497.755 2480.21,507.966 
  2481.68,518.329 2483.16,528.837 2484.63,539.48 2486.11,550.249 2487.58,561.136 2489.06,572.13 2490.53,583.221 2492.01,594.398 2493.48,605.653 2494.96,616.972 
  2496.43,628.346 2497.91,639.764 2499.38,651.214 2500.85,662.685 2502.33,674.165 2503.8,685.644 2505.28,697.109 2506.75,708.55 2508.23,719.955 2509.7,731.313 
  2511.18,742.614 2512.65,753.846 2514.13,764.999 2515.6,776.063 2517.08,787.028 2518.55,797.883 2520.02,808.619 2521.5,819.228 2522.97,829.701 2524.45,840.028 
  2525.92,850.203 2527.4,328.671 2528.87,336.461 2530.35,344.621 2531.82,353.154 2533.3,362.063 2534.77,371.348 2536.25,381.009 2537.72,391.044 2539.19,401.449 
  2540.67,412.219 2542.14,423.349 2543.62,434.83 2545.09,446.654 2546.57,458.81 2548.04,471.285 2549.52,484.066 2550.99,497.138 2552.47,510.486 2553.94,524.09 
  2555.42,537.933 2556.89,551.994 2558.37,566.253 2559.84,580.688 2561.31,595.276 2562.79,609.993 2564.26,624.816 2565.74,639.72 2567.21,654.679 2568.69,669.67 
  2570.16,684.665 2571.64,699.641 2573.11,714.573 2574.59,729.434 2576.06,744.201 2577.54,758.849 2579.01,773.356 2580.48,787.698 2581.96,801.854 2583.43,815.803 
  2584.91,829.525 2586.38,843.001 2587.86,856.213 2589.33,869.145 2590.81,881.781 2592.28,894.109 2593.76,906.114 2595.23,917.786 2596.71,929.115 2598.18,940.093 
  2599.66,950.712 2601.13,960.967 2602.6,970.854 2604.08,980.368 2605.55,989.51 2607.03,998.278 2608.5,1006.67 2609.98,1014.7 2611.45,1022.35 2612.93,1029.64 
  2614.4,1036.57 2615.88,343.446 2617.35,352.558 2618.83,362.104 2620.3,372.087 2621.77,382.506 2623.25,393.359 2624.72,404.642 2626.2,416.349 2627.67,428.472 
  2629.15,441 2630.62,453.923 2632.1,467.226 2633.57,480.894 2635.05,494.908 2636.52,509.249 2638,523.896 2639.47,538.824 2640.94,554.011 2642.42,569.429 
  2643.89,585.052 2645.37,600.849 2646.84,616.793 2648.32,632.853 2649.79,648.997 2651.27,665.194 2652.74,681.412 2654.22,697.619 2655.69,713.783 2657.17,729.873 
  2658.64,745.857 2660.12,761.706 2661.59,777.388 2663.06,792.876 2664.54,808.142 2666.01,823.16 2667.49,837.903 2668.96,852.35 2670.44,866.477 2671.91,880.265 
  2673.39,893.695 2674.86,906.75 2676.34,919.416 2677.81,931.679 2679.29,943.529 2680.76,954.956 2682.23,965.953 2683.71,976.515 2685.18,986.637 2686.66,996.32 
  2688.13,1005.56 2689.61,1014.36 2691.08,1022.73 2692.56,1030.67 2694.03,1038.18 2695.51,1045.27 2696.98,1051.96 2698.46,1058.24 2699.93,1064.14 2701.4,1069.66 
  2702.88,1074.82 2704.35,698.51 2705.83,717.451 2707.3,736.286 2708.78,754.965 2710.25,773.439 2711.73,791.661 2713.2,809.585 2714.68,827.169 2716.15,844.372 
  2717.63,861.156 2719.1,877.488 2720.58,893.335 2722.05,908.67 2723.52,923.469 2725,937.71 2726.47,951.376 2727.95,964.453 2729.42,976.932 2730.9,988.805 
  2732.37,1000.07 2733.85,1010.73 2735.32,1020.78 2736.8,1030.23 2738.27,1039.1 2739.75,1047.38 2741.22,1055.1 2742.69,1062.28 2744.17,1068.92 2745.64,1075.05 
  2747.12,1080.69 2748.59,1085.87 2750.07,1090.6 2751.54,1094.91 2753.02,1098.82 2754.49,1102.36 2755.97,1105.55 2757.44,1108.41 2758.92,1110.97 2760.39,1113.26 
  2761.87,1115.29 2763.34,1117.08 2764.81,1118.66 2766.29,1120.05 2767.76,1121.26 2769.24,1122.32 2770.71,1123.23 2772.19,1124.02 2773.66,1124.7 2775.14,1125.27 
  2776.61,1125.77 2778.09,1126.18 2779.56,1126.53 2781.04,1126.83 2782.51,1127.07 2783.98,1127.28 2785.46,1127.44 2786.93,1127.58 2788.41,1127.69 2789.88,1127.78 
  
  "/>
<polyline clip-path="url(#clip1302)" style="stroke:#e26f46; stroke-width:4; stroke-opacity:1; fill:none" points="
  667.88,216.33 669.355,216.33 670.83,216.33 672.304,216.33 673.779,216.33 675.254,216.33 676.728,216.33 678.203,216.33 679.678,216.33 681.152,216.33 
  682.627,216.33 684.101,216.33 685.576,216.33 687.051,216.33 688.525,216.33 690,216.33 691.475,216.33 692.949,216.33 694.424,216.33 695.899,216.33 
  697.373,216.33 698.848,216.33 700.322,216.33 701.797,216.33 703.272,216.33 704.746,216.33 706.221,216.33 707.696,216.33 709.17,216.33 710.645,216.33 
  712.12,216.33 713.594,216.33 715.069,216.33 716.543,216.33 718.018,216.33 719.493,216.33 720.967,216.33 722.442,216.33 723.917,216.33 725.391,216.33 
  726.866,216.33 728.341,216.33 729.815,216.33 731.29,216.33 732.765,216.33 734.239,216.33 735.714,216.33 737.188,216.33 738.663,216.33 740.138,216.33 
  741.612,216.33 743.087,216.33 744.562,216.33 746.036,216.33 747.511,216.33 748.986,216.33 750.46,216.33 751.935,216.33 753.409,216.33 754.884,216.33 
  756.359,216.33 757.833,216.33 759.308,216.33 760.783,216.33 762.257,216.33 763.732,216.33 765.207,216.33 766.681,216.331 768.156,216.331 769.63,216.331 
  771.105,216.332 772.58,216.332 774.054,216.333 775.529,216.334 777.004,216.335 778.478,216.336 779.953,216.338 781.428,216.34 782.902,216.342 784.377,216.345 
  785.851,216.347 787.326,216.351 788.801,216.355 790.275,216.359 791.75,216.364 793.225,216.37 794.699,216.377 796.174,216.384 797.649,216.392 799.123,216.402 
  800.598,216.413 802.072,216.425 803.547,216.439 805.022,216.454 806.496,216.472 807.971,216.492 809.446,216.514 810.92,216.539 812.395,216.568 813.87,216.599 
  815.344,216.635 816.819,216.676 818.293,216.721 819.768,216.772 821.243,216.83 822.717,216.895 824.192,216.967 825.667,217.048 827.141,217.14 828.616,217.242 
  830.091,217.357 831.565,217.486 833.04,217.63 834.514,217.791 835.989,217.972 837.464,218.173 838.938,218.399 840.413,218.651 841.888,218.932 843.362,219.246 
  844.837,219.596 846.312,219.752 847.786,219.941 849.261,220.155 850.735,220.385 852.21,220.63 853.685,220.885 855.159,221.151 856.634,221.426 858.109,221.71 
  859.583,222.003 861.058,222.306 862.533,222.617 864.007,222.938 865.482,223.269 866.956,223.61 868.431,223.963 869.906,224.327 871.38,224.703 872.855,225.092 
  874.33,225.494 875.804,225.911 877.279,226.342 878.754,226.789 880.228,227.252 881.703,227.732 883.177,228.23 884.652,228.746 886.127,229.281 887.601,229.837 
  889.076,230.413 890.551,231.011 892.025,231.631 893.5,232.275 894.975,232.943 896.449,233.636 897.924,234.356 899.398,235.102 900.873,235.877 902.348,236.68 
  903.822,237.514 905.297,238.379 906.772,239.276 908.246,240.206 909.721,241.171 911.196,242.171 912.67,243.208 914.145,244.283 915.619,245.398 917.094,246.553 
  918.569,247.749 920.043,248.989 921.518,250.273 922.993,251.604 924.467,252.981 925.942,254.407 927.417,255.884 928.891,257.412 930.366,258.993 931.841,260.63 
  933.315,262.323 934.79,230.821 936.264,229.875 937.739,229.231 939.214,228.787 940.688,228.49 942.163,228.304 943.638,228.206 945.112,228.176 946.587,228.202 
  948.062,228.274 949.536,228.385 951.011,228.529 952.485,228.702 953.96,228.901 955.435,229.123 956.909,229.365 958.384,229.628 959.859,229.908 961.333,230.206 
  962.808,230.519 964.283,230.849 965.757,231.193 967.232,231.552 968.706,231.925 970.181,232.313 971.656,232.714 973.13,233.129 974.605,233.558 976.08,234.001 
  977.554,234.458 979.029,234.928 980.504,235.412 981.978,235.911 983.453,236.424 984.927,236.951 986.402,237.492 987.877,238.049 989.351,238.62 990.826,239.207 
  992.301,239.81 993.775,240.428 995.25,241.062 996.725,241.713 998.199,242.38 999.674,243.065 1001.15,243.767 1002.62,244.486 1004.1,245.224 1005.57,245.98 
  1007.05,246.756 1008.52,247.55 1010,248.364 1011.47,249.198 1012.95,250.052 1014.42,250.928 1015.89,251.825 1017.37,252.743 1018.84,253.684 1020.32,254.648 
  1021.79,255.634 1023.27,268.545 1024.74,279.909 1026.22,289.712 1027.69,298.049 1029.17,305.035 1030.64,310.792 1032.12,315.448 1033.59,319.125 1035.07,321.941 
  1036.54,324.006 1038.01,325.42 1039.49,326.274 1040.96,326.649 1042.44,326.615 1043.91,326.236 1045.39,325.566 1046.86,324.653 1048.34,323.538 1049.81,322.255 
  1051.29,320.836 1052.76,319.306 1054.24,317.688 1055.71,316.001 1057.18,314.26 1058.66,312.48 1060.13,310.671 1061.61,308.845 1063.08,307.008 1064.56,305.169 
  1066.03,303.333 1067.51,301.505 1068.98,299.688 1070.46,297.888 1071.93,296.106 1073.41,294.344 1074.88,292.605 1076.35,290.891 1077.83,289.202 1079.3,287.539 
  1080.78,285.903 1082.25,284.296 1083.73,282.716 1085.2,281.165 1086.68,279.643 1088.15,278.149 1089.63,276.684 1091.1,275.247 1092.58,273.839 1094.05,272.46 
  1095.53,271.108 1097,269.784 1098.47,268.487 1099.95,267.218 1101.42,265.975 1102.9,264.759 1104.37,263.569 1105.85,262.404 1107.32,261.265 1108.8,260.151 
  1110.27,259.061 1111.75,307.064 1113.22,298.484 1114.7,289.955 1116.17,281.78 1117.64,274.068 1119.12,266.884 1120.59,260.27 1122.07,254.255 1123.54,248.844 
  1125.02,244.029 1126.49,239.786 1127.97,236.081 1129.44,232.873 1130.92,230.116 1132.39,227.765 1133.87,225.773 1135.34,224.095 1136.82,222.69 1138.29,221.52 
  1139.76,220.551 1141.24,219.751 1142.71,219.094 1144.19,218.557 1145.66,218.119 1147.14,217.764 1148.61,217.476 1150.09,217.244 1151.56,217.057 1153.04,216.907 
  1154.51,216.788 1155.99,216.692 1157.46,216.616 1158.93,216.555 1160.41,216.507 1161.88,216.469 1163.36,216.439 1164.83,216.416 1166.31,216.397 1167.78,216.382 
  1169.26,216.371 1170.73,216.362 1172.21,216.355 1173.68,216.349 1175.16,216.345 1176.63,216.342 1178.1,216.339 1179.58,216.337 1181.05,216.336 1182.53,216.334 
  1184,216.333 1185.48,216.333 1186.95,216.332 1188.43,216.332 1189.9,216.331 1191.38,216.331 1192.85,216.331 1194.33,216.331 1195.8,216.331 1197.28,216.331 
  1198.75,216.33 1200.22,929.666 1201.7,1016.77 1203.17,1062.07 1204.65,1085.5 1206.12,1097.67 1207.6,1103.85 1209.07,1106.63 1210.55,1107.24 1212.02,1106.28 
  1213.5,1103.98 1214.97,1100.41 1216.45,1095.52 1217.92,1089.23 1219.39,1081.4 1220.87,1071.91 1222.34,1060.64 1223.82,1047.46 1225.29,1032.29 1226.77,1015.06 
  1228.24,995.739 1229.72,974.336 1231.19,950.891 1232.67,925.485 1234.14,898.237 1235.62,869.303 1237.09,838.873 1238.57,807.168 1240.04,774.434 1241.51,740.938 
  1242.99,706.96 1244.46,672.79 1245.94,638.717 1247.41,605.027 1248.89,571.993 1250.36,539.872 1251.84,508.895 1253.31,479.269 1254.79,451.17 1256.26,424.74 
  1257.74,400.084 1259.21,377.276 1260.68,356.353 1262.16,337.319 1263.63,320.151 1265.11,304.795 1266.58,291.177 1268.06,279.203 1269.53,268.763 1271.01,259.74 
  1272.48,252.007 1273.96,245.436 1275.43,239.901 1276.91,235.278 1278.38,231.45 1279.85,228.306 1281.33,225.747 1282.8,223.68 1284.28,222.026 1285.75,220.712 
  1287.23,219.677 1288.7,1128.12 1290.18,1128.12 1291.65,1128.12 1293.13,1128.12 1294.6,1128.12 1296.08,1128.12 1297.55,1128.12 1299.03,1128.12 1300.5,1128.12 
  1301.97,1128.12 1303.45,1128.12 1304.92,1128.12 1306.4,1128.12 1307.87,1128.12 1309.35,1128.12 1310.82,1128.12 1312.3,1128.12 1313.77,1128.12 1315.25,1128.12 
  1316.72,1128.12 1318.2,1128.12 1319.67,1128.12 1321.14,1128.12 1322.62,1128.12 1324.09,1128.12 1325.57,1128.12 1327.04,1128.12 1328.52,1128.11 1329.99,1128.11 
  1331.47,1128.1 1332.94,1128.09 1334.42,1128.07 1335.89,1128.05 1337.37,1128.02 1338.84,1127.98 1340.31,1127.92 1341.79,1127.84 1343.26,1127.74 1344.74,1127.6 
  1346.21,1127.41 1347.69,1127.18 1349.16,1126.87 1350.64,1126.48 1352.11,1125.98 1353.59,1125.36 1355.06,1124.58 1356.54,1123.61 1358.01,1122.43 1359.49,1120.99 
  1360.96,1119.25 1362.43,1117.16 1363.91,1114.67 1365.38,1111.72 1366.86,1108.26 1368.33,1104.22 1369.81,1099.53 1371.28,1094.14 1372.76,1087.97 1374.23,1080.95 
  1375.71,1073.02 1377.18,1128.12 1378.66,1128.12 1380.13,1128.12 1381.6,1128.12 1383.08,1128.12 1384.55,1128.12 1386.03,1128.12 1387.5,1128.12 1388.98,1128.12 
  1390.45,1128.12 1391.93,1128.12 1393.4,1128.12 1394.88,1128.12 1396.35,1128.12 1397.83,1128.12 1399.3,1128.12 1400.78,1128.12 1402.25,1128.12 1403.72,1128.12 
  1405.2,1128.12 1406.67,1128.12 1408.15,1128.12 1409.62,1128.12 1411.1,1128.11 1412.57,1128.1 1414.05,1128.07 1415.52,1128 1417,1127.87 1418.47,1127.63 
  1419.95,1127.2 1421.42,1126.45 1422.89,1125.2 1424.37,1123.18 1425.84,1120.04 1427.32,1115.32 1428.79,1108.46 1430.27,1098.82 1431.74,1085.68 1433.22,1068.33 
  1434.69,1046.08 1436.17,1018.39 1437.64,984.906 1439.12,945.539 1440.59,900.515 1442.06,850.4 1443.54,796.089 1445.01,738.762 1446.49,679.809 1447.96,620.735 
  1449.44,563.044 1450.91,508.138 1452.39,457.214 1453.86,411.193 1455.34,370.677 1456.81,335.937 1458.29,306.937 1459.76,283.376 1461.24,264.756 1462.71,250.445 
  1464.18,239.756 1465.66,1094.73 1467.13,1094.54 1468.61,1092.13 1470.08,1087.74 1471.56,1081.47 1473.03,1073.34 1474.51,1063.35 1475.98,1051.47 1477.46,1037.66 
  1478.93,1021.88 1480.41,1004.13 1481.88,984.366 1483.35,962.615 1484.83,938.908 1486.3,913.312 1487.78,885.928 1489.25,856.889 1490.73,826.365 1492.2,794.558 
  1493.68,761.7 1495.15,728.049 1496.63,693.882 1498.1,659.491 1499.58,625.172 1501.05,591.224 1502.53,557.937 1504,525.584 1505.47,494.42 1506.95,464.669 
  1508.42,436.524 1509.9,410.141 1511.37,385.639 1512.85,363.096 1514.32,342.552 1515.8,324.008 1517.27,307.431 1518.75,292.758 1520.22,279.899 1521.7,268.742 
  1523.17,259.16 1524.64,251.014 1526.12,244.161 1527.59,238.455 1529.07,233.754 1530.54,229.922 1532.02,226.832 1533.49,224.366 1534.97,222.42 1536.44,220.9 
  1537.92,219.726 1539.39,218.829 1540.87,218.151 1542.34,217.644 1543.81,217.269 1545.29,216.994 1546.76,216.795 1548.24,216.653 1549.71,216.552 1551.19,216.481 
  1552.66,216.432 1554.14,217.117 1555.61,217.2 1557.09,217.279 1558.56,217.354 1560.04,217.425 1561.51,217.492 1562.99,217.557 1564.46,217.619 1565.93,217.68 
  1567.41,217.739 1568.88,217.796 1570.36,217.854 1571.83,217.91 1573.31,217.966 1574.78,218.023 1576.26,218.079 1577.73,218.136 1579.21,218.193 1580.68,218.251 
  1582.16,218.309 1583.63,218.368 1585.1,218.428 1586.58,218.489 1588.05,218.551 1589.53,218.614 1591,218.679 1592.48,218.744 1593.95,218.811 1595.43,218.879 
  1596.9,218.949 1598.38,219.02 1599.85,219.092 1601.33,219.167 1602.8,219.242 1604.28,219.32 1605.75,219.399 1607.22,219.48 1608.7,219.563 1610.17,219.648 
  1611.65,219.734 1613.12,219.823 1614.6,219.913 1616.07,220.006 1617.55,220.1 1619.02,220.197 1620.5,220.296 1621.97,220.397 1623.45,220.501 1624.92,220.606 
  1626.39,220.714 1627.87,220.825 1629.34,220.938 1630.82,221.054 1632.29,221.172 1633.77,221.292 1635.24,221.416 1636.72,221.542 1638.19,221.671 1639.67,221.803 
  1641.14,221.937 1642.62,219.898 1644.09,220.259 1645.56,220.614 1647.04,220.972 1648.51,221.339 1649.99,221.716 1651.46,222.107 1652.94,222.512 1654.41,222.934 
  1655.89,223.373 1657.36,223.832 1658.84,224.31 1660.31,224.81 1661.79,225.332 1663.26,225.877 1664.74,226.448 1666.21,227.044 1667.68,227.668 1669.16,228.32 
  1670.63,229.002 1672.11,229.714 1673.58,230.459 1675.06,231.237 1676.53,232.05 1678.01,232.899 1679.48,233.786 1680.96,234.711 1682.43,235.676 1683.91,236.683 
  1685.38,237.733 1686.85,238.827 1688.33,239.967 1689.8,241.155 1691.28,242.391 1692.75,243.677 1694.23,245.016 1695.7,246.407 1697.18,247.854 1698.65,249.357 
  1700.13,250.917 1701.6,252.537 1703.08,254.218 1704.55,255.962 1706.02,257.769 1707.5,259.642 1708.97,261.582 1710.45,263.59 1711.92,265.668 1713.4,267.818 
  1714.87,270.04 1716.35,272.337 1717.82,274.71 1719.3,277.16 1720.77,279.688 1722.25,282.296 1723.72,284.985 1725.2,287.756 1726.67,290.611 1728.14,293.55 
  1729.62,296.575 1731.09,259.271 1732.57,262.379 1734.04,265.365 1735.52,268.348 1736.99,271.391 1738.47,274.53 1739.94,277.79 1741.42,281.186 1742.89,284.73 
  1744.37,288.429 1745.84,292.291 1747.31,296.32 1748.79,300.521 1750.26,304.897 1751.74,309.451 1753.21,314.186 1754.69,319.103 1756.16,324.204 1757.64,329.491 
  1759.11,334.964 1760.59,340.625 1762.06,346.474 1763.54,352.511 1765.01,358.736 1766.49,365.149 1767.96,371.748 1769.43,378.532 1770.91,385.5 1772.38,392.651 
  1773.86,399.981 1775.33,407.489 1776.81,415.171 1778.28,423.025 1779.76,431.047 1781.23,439.232 1782.71,447.577 1784.18,456.077 1785.66,464.727 1787.13,473.523 
  1788.6,482.457 1790.08,491.525 1791.55,500.72 1793.03,510.036 1794.5,519.467 1795.98,529.004 1797.45,538.642 1798.93,548.373 1800.4,558.189 1801.88,568.083 
  1803.35,578.046 1804.83,588.071 1806.3,598.15 1807.77,608.274 1809.25,618.435 1810.72,628.625 1812.2,638.835 1813.67,649.058 1815.15,659.284 1816.62,669.506 
  1818.1,679.716 1819.57,506.775 1821.05,466.304 1822.52,434.928 1824,410.415 1825.47,391.06 1826.95,375.598 1828.42,363.103 1829.89,352.894 1831.37,344.465 
  1832.84,337.441 1834.32,331.536 1835.79,326.531 1837.27,322.258 1838.74,318.583 1840.22,315.402 1841.69,312.63 1843.17,310.2 1844.64,308.057 1846.12,306.156 
  1847.59,304.459 1849.06,302.936 1850.54,301.56 1852.01,300.311 1853.49,299.169 1854.96,298.12 1856.44,297.151 1857.91,296.251 1859.39,295.41 1860.86,294.62 
  1862.34,293.874 1863.81,293.167 1865.29,292.494 1866.76,291.85 1868.24,291.231 1869.71,290.634 1871.18,290.057 1872.66,289.497 1874.13,288.953 1875.61,288.421 
  1877.08,287.902 1878.56,287.393 1880.03,286.893 1881.51,286.402 1882.98,285.918 1884.46,285.441 1885.93,284.97 1887.41,284.505 1888.88,284.045 1890.35,283.59 
  1891.83,283.14 1893.3,282.693 1894.78,282.25 1896.25,281.811 1897.73,281.376 1899.2,280.943 1900.68,280.514 1902.15,280.087 1903.63,279.663 1905.1,279.242 
  1906.58,278.824 1908.05,259.654 1909.52,250.778 1911,244.609 1912.47,240.218 1913.95,237.025 1915.42,234.663 1916.9,232.892 1918.37,231.552 1919.85,230.533 
  1921.32,229.761 1922.8,229.18 1924.27,228.751 1925.75,228.445 1927.22,228.241 1928.7,228.122 1930.17,228.075 1931.64,228.091 1933.12,228.161 1934.59,228.28 
  1936.07,228.442 1937.54,228.644 1939.02,228.883 1940.49,229.156 1941.97,229.46 1943.44,229.795 1944.92,230.158 1946.39,230.549 1947.87,230.966 1949.34,231.41 
  1950.81,231.878 1952.29,232.372 1953.76,232.89 1955.24,233.432 1956.71,233.999 1958.19,234.59 1959.66,235.204 1961.14,235.843 1962.61,236.506 1964.09,237.193 
  1965.56,237.905 1967.04,238.642 1968.51,239.403 1969.99,240.19 1971.46,241.002 1972.93,241.84 1974.41,242.704 1975.88,243.595 1977.36,244.513 1978.83,245.458 
  1980.31,246.431 1981.78,247.432 1983.26,248.462 1984.73,249.521 1986.21,250.609 1987.68,251.728 1989.16,252.877 1990.63,254.057 1992.1,255.269 1993.58,256.512 
  1995.05,257.788 1996.53,224.144 1998,225.409 1999.48,226.556 2000.95,227.654 2002.43,228.739 2003.9,229.831 2005.38,230.942 2006.85,232.083 2008.33,233.258 
  2009.8,234.476 2011.27,235.738 2012.75,237.051 2014.22,238.417 2015.7,239.839 2017.17,241.322 2018.65,242.867 2020.12,244.478 2021.6,246.157 2023.07,247.909 
  2024.55,249.735 2026.02,251.638 2027.5,253.621 2028.97,255.687 2030.45,257.838 2031.92,260.078 2033.39,262.408 2034.87,264.832 2036.34,267.352 2037.82,269.97 
  2039.29,272.689 2040.77,275.512 2042.24,278.441 2043.72,281.479 2045.19,284.626 2046.67,287.887 2048.14,291.262 2049.62,294.754 2051.09,298.364 2052.56,302.096 
  2054.04,305.949 2055.51,309.926 2056.99,314.029 2058.46,318.259 2059.94,322.616 2061.41,327.103 2062.89,331.719 2064.36,336.467 2065.84,341.346 2067.31,346.357 
  2068.79,351.5 2070.26,356.776 2071.73,362.185 2073.21,367.726 2074.68,373.399 2076.16,379.204 2077.63,385.14 2079.11,391.206 2080.58,397.401 2082.06,403.723 
  2083.53,410.172 2085.01,256.106 2086.48,254.33 2087.96,253.375 2089.43,253.218 2090.91,253.803 2092.38,255.091 2093.85,257.066 2095.33,259.735 2096.8,263.123 
  2098.28,267.269 2099.75,272.225 2101.23,278.053 2102.7,284.822 2104.18,292.603 2105.65,301.474 2107.13,311.508 2108.6,322.777 2110.08,335.346 2111.55,349.273 
  2113.02,364.602 2114.5,381.362 2115.97,399.567 2117.45,419.21 2118.92,440.262 2120.4,462.673 2121.87,486.37 2123.35,511.254 2124.82,537.207 2126.3,564.087 
  2127.77,591.737 2129.25,619.982 2130.72,648.635 2132.2,677.501 2133.67,706.381 2135.14,735.077 2136.62,763.395 2138.09,791.15 2139.57,818.169 2141.04,844.297 
  2142.52,869.396 2143.99,893.347 2145.47,916.055 2146.94,937.448 2148.42,957.473 2149.89,976.102 2151.37,993.326 2152.84,1009.15 2154.31,1023.61 2155.79,1036.75 
  2157.26,1048.6 2158.74,1059.25 2160.21,1068.75 2161.69,1077.18 2163.16,1084.63 2164.64,1091.16 2166.11,1096.87 2167.59,1101.83 2169.06,1106.11 2170.54,1109.78 
  2172.01,1112.92 2173.48,261.234 2174.96,261.601 2176.43,261.821 2177.91,262.274 2179.38,263.132 2180.86,264.481 2182.33,266.375 2183.81,268.852 2185.28,271.949 
  2186.76,275.703 2188.23,280.156 2189.71,285.353 2191.18,291.342 2192.66,298.175 2194.13,305.903 2195.6,314.576 2197.08,324.246 2198.55,334.958 2200.03,346.753 
  2201.5,359.665 2202.98,373.719 2204.45,388.93 2205.93,405.302 2207.4,422.826 2208.88,441.478 2210.35,461.221 2211.83,482.004 2213.3,503.76 2214.77,526.408 
  2216.25,549.853 2217.72,573.989 2219.2,598.699 2220.67,623.855 2222.15,649.324 2223.62,674.968 2225.1,700.646 2226.57,726.218 2228.05,751.545 2229.52,776.494 
  2231,800.939 2232.47,824.761 2233.95,847.855 2235.42,870.125 2236.89,891.489 2238.37,911.878 2239.84,931.239 2241.32,949.53 2242.79,966.726 2244.27,982.811 
  2245.74,997.786 2247.22,1011.66 2248.69,1024.45 2250.17,1036.19 2251.64,1046.91 2253.12,1056.66 2254.59,1065.49 2256.06,1073.44 2257.54,1080.57 2259.01,1086.93 
  2260.49,1092.59 2261.96,269.036 2263.44,268.769 2264.91,268.24 2266.39,267.857 2267.86,267.795 2269.34,268.128 2270.81,268.89 2272.29,270.094 2273.76,271.745 
  2275.23,273.847 2276.71,276.406 2278.18,279.429 2279.66,282.924 2281.13,286.902 2282.61,291.376 2284.08,296.359 2285.56,301.866 2287.03,307.911 2288.51,314.509 
  2289.98,321.673 2291.46,329.415 2292.93,337.748 2294.41,346.678 2295.88,356.215 2297.35,366.362 2298.83,377.12 2300.3,388.49 2301.78,400.465 2303.25,413.039 
  2304.73,426.199 2306.2,439.931 2307.68,454.217 2309.15,469.034 2310.63,484.357 2312.1,500.155 2313.58,516.398 2315.05,533.048 2316.52,550.069 2318,567.417 
  2319.47,585.051 2320.95,602.924 2322.42,620.988 2323.9,639.197 2325.37,657.5 2326.85,675.847 2328.32,694.188 2329.8,712.475 2331.27,730.657 2332.75,748.688 
  2334.22,766.521 2335.7,784.112 2337.17,801.418 2338.64,818.401 2340.12,835.022 2341.59,851.248 2343.07,867.048 2344.54,882.395 2346.02,897.262 2347.49,911.631 
  2348.97,925.482 2350.44,421.51 2351.92,384.734 2353.39,358.099 2354.87,338.673 2356.34,324.384 2357.81,313.811 2359.29,305.973 2360.76,300.195 2362.24,295.999 
  2363.71,293.049 2365.19,291.1 2366.66,289.976 2368.14,289.545 2369.61,289.709 2371.09,290.395 2372.56,291.547 2374.04,293.123 2375.51,295.088 2376.98,297.419 
  2378.46,300.094 2379.93,303.099 2381.41,306.421 2382.88,310.051 2384.36,313.981 2385.83,318.204 2387.31,322.717 2388.78,327.514 2390.26,332.592 2391.73,337.949 
  2393.21,343.58 2394.68,349.484 2396.16,355.659 2397.63,362.1 2399.1,368.806 2400.58,375.774 2402.05,383 2403.53,390.482 2405,398.215 2406.48,406.196 
  2407.95,414.42 2409.43,422.883 2410.9,431.58 2412.38,440.504 2413.85,449.651 2415.33,459.013 2416.8,468.584 2418.27,478.357 2419.75,488.323 2421.22,498.475 
  2422.7,508.804 2424.17,519.301 2425.65,529.957 2427.12,540.761 2428.6,551.704 2430.07,562.774 2431.55,573.962 2433.02,585.255 2434.5,596.643 2435.97,608.113 
  2437.44,619.654 2438.92,277.751 2440.39,282.622 2441.87,286.688 2443.34,290.403 2444.82,294.003 2446.29,297.624 2447.77,301.35 2449.24,305.234 2450.72,309.312 
  2452.19,313.607 2453.67,318.135 2455.14,322.906 2456.62,327.928 2458.09,333.205 2459.56,338.742 2461.04,344.54 2462.51,350.599 2463.99,356.921 2465.46,363.503 
  2466.94,370.346 2468.41,377.448 2469.89,384.806 2471.36,392.417 2472.84,400.279 2474.31,408.388 2475.79,416.74 2477.26,425.33 2478.73,434.153 2480.21,443.204 
  2481.68,452.476 2483.16,461.964 2484.63,471.661 2486.11,481.558 2487.58,491.648 2489.06,501.923 2490.53,512.373 2492.01,522.99 2493.48,533.764 2494.96,544.685 
  2496.43,555.741 2497.91,566.924 2499.38,578.22 2500.85,589.619 2502.33,601.109 2503.8,612.678 2505.28,624.314 2506.75,636.004 2508.23,647.736 2509.7,659.498 
  2511.18,671.276 2512.65,683.057 2514.13,694.83 2515.6,706.581 2517.08,718.299 2518.55,729.969 2520.02,741.582 2521.5,753.123 2522.97,764.582 2524.45,775.947 
  2525.92,787.207 2527.4,306.131 2528.87,312.888 2530.35,318.618 2531.82,323.969 2533.3,329.284 2534.77,334.758 2536.25,340.511 2537.72,346.62 2539.19,353.133 
  2540.67,360.081 2542.14,367.485 2543.62,375.356 2545.09,383.702 2546.57,392.524 2548.04,401.821 2549.52,411.588 2550.99,421.819 2552.47,432.505 2553.94,443.635 
  2555.42,455.195 2556.89,467.171 2558.37,479.546 2559.84,492.302 2561.31,505.418 2562.79,518.874 2564.26,532.646 2565.74,546.71 2567.21,561.042 2568.69,575.613 
  2570.16,590.396 2571.64,605.364 2573.11,620.487 2574.59,635.734 2576.06,651.077 2577.54,666.484 2579.01,681.925 2580.48,697.369 2581.96,712.785 2583.43,728.145 
  2584.91,743.418 2586.38,758.575 2587.86,773.589 2589.33,788.432 2590.81,803.079 2592.28,817.504 2593.76,831.685 2595.23,845.599 2596.71,859.225 2598.18,872.545 
  2599.66,885.542 2601.13,898.2 2602.6,910.504 2604.08,922.443 2605.55,934.006 2607.03,945.184 2608.5,955.971 2609.98,966.361 2611.45,976.349 2612.93,985.936 
  2614.4,995.118 2615.88,343.122 2617.35,348.093 2618.83,352.242 2620.3,356.279 2621.77,360.555 2623.25,365.26 2624.72,370.498 2626.2,376.328 2627.67,382.781 
  2629.15,389.874 2630.62,397.611 2632.1,405.991 2633.57,415.007 2635.05,424.65 2636.52,434.906 2638,445.76 2639.47,457.194 2640.94,469.186 2642.42,481.714 
  2643.89,494.753 2645.37,508.276 2646.84,522.254 2648.32,536.656 2649.79,551.448 2651.27,566.596 2652.74,582.065 2654.22,597.815 2655.69,613.81 2657.17,630.009 
  2658.64,646.372 2660.12,662.858 2661.59,679.426 2663.06,696.035 2664.54,712.644 2666.01,729.213 2667.49,745.702 2668.96,762.072 2670.44,778.286 2671.91,794.308 
  2673.39,810.102 2674.86,825.637 2676.34,840.881 2677.81,855.805 2679.29,870.383 2680.76,884.591 2682.23,898.406 2683.71,911.81 2685.18,924.785 2686.66,937.317 
  2688.13,949.394 2689.61,961.006 2691.08,972.147 2692.56,982.812 2694.03,992.998 2695.51,1002.7 2696.98,1011.93 2698.46,1020.69 2699.93,1028.98 2701.4,1036.81 
  2702.88,1044.19 2704.35,621.192 2705.83,637.832 2707.3,653.62 2708.78,669.29 2710.25,685.128 2711.73,701.247 2713.2,717.669 2714.68,734.371 2716.15,751.304 
  2717.63,768.401 2719.1,785.589 2720.58,802.789 2722.05,819.924 2723.52,836.916 2725,853.691 2726.47,870.181 2727.95,886.321 2729.42,902.053 2730.9,917.326 
  2732.37,932.095 2733.85,946.321 2735.32,959.973 2736.8,973.025 2738.27,985.457 2739.75,997.258 2741.22,1008.42 2742.69,1018.94 2744.17,1028.82 2745.64,1038.06 
  2747.12,1046.68 2748.59,1054.7 2750.07,1062.12 2751.54,1068.98 2753.02,1075.29 2754.49,1081.07 2755.97,1086.35 2757.44,1091.16 2758.92,1095.52 2760.39,1099.47 
  2761.87,1103.02 2763.34,1106.21 2764.81,1109.06 2766.29,1111.6 2767.76,1113.86 2769.24,1115.85 2770.71,1117.61 2772.19,1119.15 2773.66,1120.49 2775.14,1121.66 
  2776.61,1122.68 2778.09,1123.55 2779.56,1124.3 2781.04,1124.94 2782.51,1125.49 2783.98,1125.95 2785.46,1126.34 2786.93,1126.67 2788.41,1126.94 2789.88,1127.17 
  
  "/>
<polygon clip-path="url(#clip1300)" points="
700.22,501.936 1116.54,501.936 1116.54,320.496 700.22,320.496 
  " fill="#ffffff" fill-rule="evenodd" fill-opacity="1"/>
<polyline clip-path="url(#clip1300)" style="stroke:#000000; stroke-width:4; stroke-opacity:1; fill:none" points="
  700.22,501.936 1116.54,501.936 1116.54,320.496 700.22,320.496 700.22,501.936 
  "/>
<polyline clip-path="url(#clip1300)" style="stroke:#009af9; stroke-width:4; stroke-opacity:1; fill:none" points="
  732.22,380.976 924.22,380.976 
  "/>
<g clip-path="url(#clip1300)">
<text style="fill:#000000; fill-opacity:1; font-family:Arial,Helvetica Neue,Helvetica,sans-serif; font-size:48px; text-anchor:start;" transform="rotate(0, 956.22, 398.476)" x="956.22" y="398.476">PSA</text>
</g>
<polyline clip-path="url(#clip1300)" style="stroke:#e26f46; stroke-width:4; stroke-opacity:1; fill:none" points="
  732.22,441.456 924.22,441.456 
  "/>
<g clip-path="url(#clip1300)">
<text style="fill:#000000; fill-opacity:1; font-family:Arial,Helvetica Neue,Helvetica,sans-serif; font-size:48px; text-anchor:start;" transform="rotate(0, 956.22, 458.956)" x="956.22" y="458.956">NS</text>
</g>
</svg>
