<?xml version="1.0" encoding="utf-8"?>
<svg xmlns="http://www.w3.org/2000/svg" xmlns:xlink="http://www.w3.org/1999/xlink" width="800" height="400" viewBox="0 0 3200 1600">
<defs>
  <clipPath id="clip7300">
    <rect x="0" y="0" width="3200" height="1600"/>
  </clipPath>
</defs>
<polygon clip-path="url(#clip7300)" points="
0,1600 3200,1600 3200,0 0,0 
  " fill="#ffffff" fill-rule="evenodd" fill-opacity="1"/>
<defs>
  <clipPath id="clip7301">
    <rect x="640" y="0" width="2241" height="1600"/>
  </clipPath>
</defs>
<polygon clip-path="url(#clip7300)" points="
761.69,1275.5 2853.54,1275.5 2853.54,188.976 761.69,188.976 
  " fill="#ffffff" fill-rule="evenodd" fill-opacity="1"/>
<defs>
  <clipPath id="clip7302">
    <rect x="761" y="188" width="2093" height="1088"/>
  </clipPath>
</defs>
<polyline clip-path="url(#clip7302)" style="stroke:#000000; stroke-width:2; stroke-opacity:0.1; fill:none" points="
  819.522,1275.5 819.522,188.976 
  "/>
<polyline clip-path="url(#clip7302)" style="stroke:#000000; stroke-width:2; stroke-opacity:0.1; fill:none" points="
  1148.66,1275.5 1148.66,188.976 
  "/>
<polyline clip-path="url(#clip7302)" style="stroke:#000000; stroke-width:2; stroke-opacity:0.1; fill:none" points="
  1477.79,1275.5 1477.79,188.976 
  "/>
<polyline clip-path="url(#clip7302)" style="stroke:#000000; stroke-width:2; stroke-opacity:0.1; fill:none" points="
  1806.93,1275.5 1806.93,188.976 
  "/>
<polyline clip-path="url(#clip7302)" style="stroke:#000000; stroke-width:2; stroke-opacity:0.1; fill:none" points="
  2136.07,1275.5 2136.07,188.976 
  "/>
<polyline clip-path="url(#clip7302)" style="stroke:#000000; stroke-width:2; stroke-opacity:0.1; fill:none" points="
  2465.2,1275.5 2465.2,188.976 
  "/>
<polyline clip-path="url(#clip7302)" style="stroke:#000000; stroke-width:2; stroke-opacity:0.1; fill:none" points="
  2794.34,1275.5 2794.34,188.976 
  "/>
<polyline clip-path="url(#clip7302)" style="stroke:#000000; stroke-width:2; stroke-opacity:0.1; fill:none" points="
  761.69,1244.67 2853.54,1244.67 
  "/>
<polyline clip-path="url(#clip7302)" style="stroke:#000000; stroke-width:2; stroke-opacity:0.1; fill:none" points="
  761.69,1085.99 2853.54,1085.99 
  "/>
<polyline clip-path="url(#clip7302)" style="stroke:#000000; stroke-width:2; stroke-opacity:0.1; fill:none" points="
  761.69,927.301 2853.54,927.301 
  "/>
<polyline clip-path="url(#clip7302)" style="stroke:#000000; stroke-width:2; stroke-opacity:0.1; fill:none" points="
  761.69,768.615 2853.54,768.615 
  "/>
<polyline clip-path="url(#clip7302)" style="stroke:#000000; stroke-width:2; stroke-opacity:0.1; fill:none" points="
  761.69,609.928 2853.54,609.928 
  "/>
<polyline clip-path="url(#clip7302)" style="stroke:#000000; stroke-width:2; stroke-opacity:0.1; fill:none" points="
  761.69,451.242 2853.54,451.242 
  "/>
<polyline clip-path="url(#clip7302)" style="stroke:#000000; stroke-width:2; stroke-opacity:0.1; fill:none" points="
  761.69,292.556 2853.54,292.556 
  "/>
<polyline clip-path="url(#clip7300)" style="stroke:#000000; stroke-width:4; stroke-opacity:1; fill:none" points="
  761.69,1275.5 2853.54,1275.5 
  "/>
<polyline clip-path="url(#clip7300)" style="stroke:#000000; stroke-width:4; stroke-opacity:1; fill:none" points="
  761.69,1275.5 761.69,188.976 
  "/>
<polyline clip-path="url(#clip7300)" style="stroke:#000000; stroke-width:4; stroke-opacity:1; fill:none" points="
  819.522,1275.5 819.522,1259.21 
  "/>
<polyline clip-path="url(#clip7300)" style="stroke:#000000; stroke-width:4; stroke-opacity:1; fill:none" points="
  1148.66,1275.5 1148.66,1259.21 
  "/>
<polyline clip-path="url(#clip7300)" style="stroke:#000000; stroke-width:4; stroke-opacity:1; fill:none" points="
  1477.79,1275.5 1477.79,1259.21 
  "/>
<polyline clip-path="url(#clip7300)" style="stroke:#000000; stroke-width:4; stroke-opacity:1; fill:none" points="
  1806.93,1275.5 1806.93,1259.21 
  "/>
<polyline clip-path="url(#clip7300)" style="stroke:#000000; stroke-width:4; stroke-opacity:1; fill:none" points="
  2136.07,1275.5 2136.07,1259.21 
  "/>
<polyline clip-path="url(#clip7300)" style="stroke:#000000; stroke-width:4; stroke-opacity:1; fill:none" points="
  2465.2,1275.5 2465.2,1259.21 
  "/>
<polyline clip-path="url(#clip7300)" style="stroke:#000000; stroke-width:4; stroke-opacity:1; fill:none" points="
  2794.34,1275.5 2794.34,1259.21 
  "/>
<polyline clip-path="url(#clip7300)" style="stroke:#000000; stroke-width:4; stroke-opacity:1; fill:none" points="
  761.69,1244.67 793.068,1244.67 
  "/>
<polyline clip-path="url(#clip7300)" style="stroke:#000000; stroke-width:4; stroke-opacity:1; fill:none" points="
  761.69,1085.99 793.068,1085.99 
  "/>
<polyline clip-path="url(#clip7300)" style="stroke:#000000; stroke-width:4; stroke-opacity:1; fill:none" points="
  761.69,927.301 793.068,927.301 
  "/>
<polyline clip-path="url(#clip7300)" style="stroke:#000000; stroke-width:4; stroke-opacity:1; fill:none" points="
  761.69,768.615 793.068,768.615 
  "/>
<polyline clip-path="url(#clip7300)" style="stroke:#000000; stroke-width:4; stroke-opacity:1; fill:none" points="
  761.69,609.928 793.068,609.928 
  "/>
<polyline clip-path="url(#clip7300)" style="stroke:#000000; stroke-width:4; stroke-opacity:1; fill:none" points="
  761.69,451.242 793.068,451.242 
  "/>
<polyline clip-path="url(#clip7300)" style="stroke:#000000; stroke-width:4; stroke-opacity:1; fill:none" points="
  761.69,292.556 793.068,292.556 
  "/>
<g clip-path="url(#clip7300)">
<text style="fill:#000000; fill-opacity:1; font-family:Arial,Helvetica Neue,Helvetica,sans-serif; font-size:71px; text-anchor:middle;" transform="rotate(0, 819.522, 1353.9)" x="819.522" y="1353.9">0</text>
</g>
<g clip-path="url(#clip7300)">
<text style="fill:#000000; fill-opacity:1; font-family:Arial,Helvetica Neue,Helvetica,sans-serif; font-size:71px; text-anchor:middle;" transform="rotate(0, 1148.66, 1353.9)" x="1148.66" y="1353.9">4</text>
</g>
<g clip-path="url(#clip7300)">
<text style="fill:#000000; fill-opacity:1; font-family:Arial,Helvetica Neue,Helvetica,sans-serif; font-size:71px; text-anchor:middle;" transform="rotate(0, 1477.79, 1353.9)" x="1477.79" y="1353.9">8</text>
</g>
<g clip-path="url(#clip7300)">
<text style="fill:#000000; fill-opacity:1; font-family:Arial,Helvetica Neue,Helvetica,sans-serif; font-size:71px; text-anchor:middle;" transform="rotate(0, 1806.93, 1353.9)" x="1806.93" y="1353.9">12</text>
</g>
<g clip-path="url(#clip7300)">
<text style="fill:#000000; fill-opacity:1; font-family:Arial,Helvetica Neue,Helvetica,sans-serif; font-size:71px; text-anchor:middle;" transform="rotate(0, 2136.07, 1353.9)" x="2136.07" y="1353.9">16</text>
</g>
<g clip-path="url(#clip7300)">
<text style="fill:#000000; fill-opacity:1; font-family:Arial,Helvetica Neue,Helvetica,sans-serif; font-size:71px; text-anchor:middle;" transform="rotate(0, 2465.2, 1353.9)" x="2465.2" y="1353.9">20</text>
</g>
<g clip-path="url(#clip7300)">
<text style="fill:#000000; fill-opacity:1; font-family:Arial,Helvetica Neue,Helvetica,sans-serif; font-size:71px; text-anchor:middle;" transform="rotate(0, 2794.34, 1353.9)" x="2794.34" y="1353.9">24</text>
</g>
<g clip-path="url(#clip7300)">
<text style="fill:#000000; fill-opacity:1; font-family:Arial,Helvetica Neue,Helvetica,sans-serif; font-size:71px; text-anchor:end;" transform="rotate(0, 729.69, 1270.67)" x="729.69" y="1270.67">0</text>
</g>
<g clip-path="url(#clip7300)">
<text style="fill:#000000; fill-opacity:1; font-family:Arial,Helvetica Neue,Helvetica,sans-serif; font-size:71px; text-anchor:start;" transform="rotate(0, 474.262, 1121.58)" x="474.262" y="1121.58">2.0×10</text>
</g>
<g clip-path="url(#clip7300)">
<text style="fill:#000000; fill-opacity:1; font-family:Arial,Helvetica Neue,Helvetica,sans-serif; font-size:58px; text-anchor:start;" transform="rotate(0, 697.073, 1080.46)" x="697.073" y="1080.46">3</text>
</g>
<g clip-path="url(#clip7300)">
<text style="fill:#000000; fill-opacity:1; font-family:Arial,Helvetica Neue,Helvetica,sans-serif; font-size:71px; text-anchor:start;" transform="rotate(0, 474.262, 962.892)" x="474.262" y="962.892">4.0×10</text>
</g>
<g clip-path="url(#clip7300)">
<text style="fill:#000000; fill-opacity:1; font-family:Arial,Helvetica Neue,Helvetica,sans-serif; font-size:58px; text-anchor:start;" transform="rotate(0, 697.073, 921.776)" x="697.073" y="921.776">3</text>
</g>
<g clip-path="url(#clip7300)">
<text style="fill:#000000; fill-opacity:1; font-family:Arial,Helvetica Neue,Helvetica,sans-serif; font-size:71px; text-anchor:start;" transform="rotate(0, 474.262, 804.206)" x="474.262" y="804.206">6.0×10</text>
</g>
<g clip-path="url(#clip7300)">
<text style="fill:#000000; fill-opacity:1; font-family:Arial,Helvetica Neue,Helvetica,sans-serif; font-size:58px; text-anchor:start;" transform="rotate(0, 697.073, 763.09)" x="697.073" y="763.09">3</text>
</g>
<g clip-path="url(#clip7300)">
<text style="fill:#000000; fill-opacity:1; font-family:Arial,Helvetica Neue,Helvetica,sans-serif; font-size:71px; text-anchor:start;" transform="rotate(0, 474.262, 645.52)" x="474.262" y="645.52">8.0×10</text>
</g>
<g clip-path="url(#clip7300)">
<text style="fill:#000000; fill-opacity:1; font-family:Arial,Helvetica Neue,Helvetica,sans-serif; font-size:58px; text-anchor:start;" transform="rotate(0, 697.073, 604.404)" x="697.073" y="604.404">3</text>
</g>
<g clip-path="url(#clip7300)">
<text style="fill:#000000; fill-opacity:1; font-family:Arial,Helvetica Neue,Helvetica,sans-serif; font-size:71px; text-anchor:start;" transform="rotate(0, 474.262, 486.834)" x="474.262" y="486.834">1.0×10</text>
</g>
<g clip-path="url(#clip7300)">
<text style="fill:#000000; fill-opacity:1; font-family:Arial,Helvetica Neue,Helvetica,sans-serif; font-size:58px; text-anchor:start;" transform="rotate(0, 697.073, 445.718)" x="697.073" y="445.718">4</text>
</g>
<g clip-path="url(#clip7300)">
<text style="fill:#000000; fill-opacity:1; font-family:Arial,Helvetica Neue,Helvetica,sans-serif; font-size:71px; text-anchor:start;" transform="rotate(0, 474.262, 328.148)" x="474.262" y="328.148">1.2×10</text>
</g>
<g clip-path="url(#clip7300)">
<text style="fill:#000000; fill-opacity:1; font-family:Arial,Helvetica Neue,Helvetica,sans-serif; font-size:58px; text-anchor:start;" transform="rotate(0, 697.073, 287.032)" x="697.073" y="287.032">4</text>
</g>
<g clip-path="url(#clip7300)">
<text style="fill:#000000; fill-opacity:1; font-family:Arial,Helvetica Neue,Helvetica,sans-serif; font-size:95px; text-anchor:middle;" transform="rotate(0, 1807.62, 1469.75)" x="1807.62" y="1469.75">Time (hours)</text>
</g>
<g clip-path="url(#clip7300)">
<text style="fill:#000000; fill-opacity:1; font-family:Arial,Helvetica Neue,Helvetica,sans-serif; font-size:95px; text-anchor:middle;" transform="rotate(-90, 378.453, 732.24)" x="378.453" y="732.24">prob_wait_hours: (PSA-NS)/NS</text>
</g>
<polyline clip-path="url(#clip7302)" style="stroke:#009af9; stroke-width:4; stroke-opacity:1; fill:none" points="
  820.893,1244.67 822.265,1244.67 823.636,1244.67 825.007,1244.67 826.379,1244.67 827.75,1244.67 829.122,1244.67 830.493,1244.67 831.864,1244.67 833.236,1244.67 
  834.607,1244.67 835.979,1244.67 837.35,1244.67 838.721,1244.67 840.093,1244.67 841.464,1244.67 842.836,1244.67 844.207,1244.67 845.578,1244.67 846.95,1244.67 
  848.321,1244.67 849.693,1244.67 851.064,1244.67 852.435,1244.67 853.807,1244.67 855.178,1244.67 856.55,1244.67 857.921,1244.67 859.292,1244.67 860.664,1244.67 
  862.035,1244.67 863.407,1244.67 864.778,1244.67 866.149,1244.67 867.521,1244.67 868.892,1244.67 870.264,1244.67 871.635,1244.67 873.006,1244.67 874.378,1244.67 
  875.749,1244.67 877.121,1244.67 878.492,1244.67 879.863,1244.67 881.235,1244.67 882.606,1244.67 883.978,1244.67 885.349,1244.67 886.72,1244.67 888.092,1244.67 
  889.463,1244.67 890.835,1244.67 892.206,1244.67 893.577,1244.67 894.949,1244.67 896.32,1244.67 897.692,1244.67 899.063,1244.67 900.434,1244.67 901.806,1244.67 
  903.177,1244.67 904.549,1244.67 905.92,1244.67 907.291,1244.67 908.663,1244.67 910.034,1244.67 911.406,1244.67 912.777,1244.67 914.149,1244.67 915.52,1244.67 
  916.891,1244.67 918.263,1244.67 919.634,1244.67 921.006,1244.67 922.377,1244.67 923.748,1244.67 925.12,1244.67 926.491,1244.67 927.863,1244.67 929.234,1244.67 
  930.605,1244.67 931.977,1244.67 933.348,1244.67 934.72,1244.67 936.091,1244.67 937.462,1244.67 938.834,1244.67 940.205,1244.67 941.577,1244.67 942.948,1244.67 
  944.319,1244.67 945.691,1244.67 947.062,1244.67 948.434,1244.67 949.805,1244.67 951.176,1244.67 952.548,1244.67 953.919,1244.67 955.291,1244.67 956.662,1244.67 
  958.033,1244.67 959.405,1244.67 960.776,1244.67 962.148,1244.67 963.519,1244.67 964.89,1244.67 966.262,1244.67 967.633,1244.67 969.005,1244.67 970.376,1244.67 
  971.747,1244.67 973.119,1244.67 974.49,1244.67 975.862,1244.67 977.233,1244.67 978.604,1244.67 979.976,1244.67 981.347,1244.67 982.719,1244.67 984.09,1244.67 
  985.461,1244.67 986.833,1244.67 988.204,1244.67 989.576,1244.67 990.947,1244.67 992.318,1244.67 993.69,1244.67 995.061,1244.67 996.433,1244.67 997.804,1244.67 
  999.175,1244.67 1000.55,1244.67 1001.92,1244.67 1003.29,1244.67 1004.66,1244.67 1006.03,1244.67 1007.4,1244.67 1008.78,1244.67 1010.15,1244.67 1011.52,1244.67 
  1012.89,1244.67 1014.26,1244.67 1015.63,1244.67 1017,1244.67 1018.38,1244.67 1019.75,1244.67 1021.12,1244.67 1022.49,1244.67 1023.86,1244.67 1025.23,1244.67 
  1026.6,1244.67 1027.97,1244.67 1029.35,1244.67 1030.72,1244.67 1032.09,1244.67 1033.46,1244.67 1034.83,1244.67 1036.2,1244.67 1037.57,1244.67 1038.95,1244.67 
  1040.32,1244.67 1041.69,1244.67 1043.06,1244.67 1044.43,1244.67 1045.8,1244.67 1047.17,1244.67 1048.55,1244.67 1049.92,1244.67 1051.29,1244.67 1052.66,1244.67 
  1054.03,1244.67 1055.4,1244.67 1056.77,1244.67 1058.15,1244.67 1059.52,1244.67 1060.89,1244.67 1062.26,1244.67 1063.63,1244.67 1065,1244.67 1066.37,1244.67 
  1067.75,1244.67 1069.12,1244.67 1070.49,1244.67 1071.86,1244.67 1073.23,1244.67 1074.6,1244.67 1075.97,1244.67 1077.35,1244.67 1078.72,1244.67 1080.09,1244.67 
  1081.46,1244.67 1082.83,1244.67 1084.2,1244.67 1085.57,1244.67 1086.95,1244.67 1088.32,1244.67 1089.69,1244.67 1091.06,1244.67 1092.43,1244.67 1093.8,1244.67 
  1095.17,1244.67 1096.54,1244.67 1097.92,1244.67 1099.29,1244.67 1100.66,1244.67 1102.03,1244.67 1103.4,1244.67 1104.77,1244.67 1106.14,1244.67 1107.52,1244.67 
  1108.89,1244.67 1110.26,1244.67 1111.63,1244.67 1113,1244.67 1114.37,1244.67 1115.74,1244.67 1117.12,1244.67 1118.49,1244.67 1119.86,1244.67 1121.23,1244.67 
  1122.6,1244.67 1123.97,1244.67 1125.34,1244.67 1126.72,1244.67 1128.09,1244.67 1129.46,1244.67 1130.83,1244.67 1132.2,1244.67 1133.57,1244.67 1134.94,1244.67 
  1136.32,1244.67 1137.69,1244.67 1139.06,1244.67 1140.43,1244.67 1141.8,1244.67 1143.17,1244.67 1144.54,1244.67 1145.92,1244.67 1147.29,1244.67 1148.66,1244.67 
  1150.03,1244.67 1151.4,1244.68 1152.77,1244.68 1154.14,1244.68 1155.52,1244.68 1156.89,1244.68 1158.26,1244.68 1159.63,1244.68 1161,1244.68 1162.37,1244.67 
  1163.74,1244.67 1165.11,1244.67 1166.49,1244.67 1167.86,1244.67 1169.23,1244.67 1170.6,1244.67 1171.97,1244.67 1173.34,1244.67 1174.71,1244.67 1176.09,1244.67 
  1177.46,1244.67 1178.83,1244.67 1180.2,1244.67 1181.57,1244.67 1182.94,1244.67 1184.31,1244.67 1185.69,1244.67 1187.06,1244.67 1188.43,1244.67 1189.8,1244.67 
  1191.17,1244.67 1192.54,1244.67 1193.91,1244.67 1195.29,1244.67 1196.66,1244.67 1198.03,1244.67 1199.4,1244.67 1200.77,1244.67 1202.14,1244.67 1203.51,1244.67 
  1204.89,1244.67 1206.26,1244.67 1207.63,1244.67 1209,1244.67 1210.37,1244.67 1211.74,1244.67 1213.11,1244.67 1214.49,1244.67 1215.86,1244.67 1217.23,1244.67 
  1218.6,1244.67 1219.97,1244.67 1221.34,1244.67 1222.71,1244.67 1224.09,1244.67 1225.46,1244.67 1226.83,1244.67 1228.2,1244.67 1229.57,1244.67 1230.94,1244.67 
  1232.31,1244.67 1233.69,1244.67 1235.06,1244.67 1236.43,1244.67 1237.8,1244.67 1239.17,1244.67 1240.54,1244.67 1241.91,1244.67 1243.28,1244.67 1244.66,1244.67 
  1246.03,1244.67 1247.4,1244.67 1248.77,1244.67 1250.14,1244.67 1251.51,1244.67 1252.88,1244.67 1254.26,1244.67 1255.63,1244.67 1257,1244.67 1258.37,1244.67 
  1259.74,1244.67 1261.11,1244.67 1262.48,1244.67 1263.86,1244.67 1265.23,1244.67 1266.6,1244.67 1267.97,1244.67 1269.34,1244.67 1270.71,1244.67 1272.08,1244.67 
  1273.46,1244.67 1274.83,1244.67 1276.2,1244.67 1277.57,1244.67 1278.94,1244.67 1280.31,1244.67 1281.68,1244.67 1283.06,1244.67 1284.43,1244.67 1285.8,1244.67 
  1287.17,1244.67 1288.54,1244.67 1289.91,1244.67 1291.28,1244.67 1292.66,1244.67 1294.03,1244.67 1295.4,1244.67 1296.77,1244.67 1298.14,1244.67 1299.51,1244.67 
  1300.88,1244.67 1302.26,1244.67 1303.63,1244.67 1305,1244.67 1306.37,1244.67 1307.74,1244.67 1309.11,1244.67 1310.48,1244.67 1311.85,1244.67 1313.23,1244.67 
  1314.6,1244.67 1315.97,1244.75 1317.34,1244.75 1318.71,1244.75 1320.08,1244.74 1321.45,1244.73 1322.83,1244.71 1324.2,1244.69 1325.57,1244.67 1326.94,1244.64 
  1328.31,1244.63 1329.68,1244.62 1331.05,1244.61 1332.43,1244.6 1333.8,1244.6 1335.17,1244.6 1336.54,1244.6 1337.91,1244.61 1339.28,1244.61 1340.65,1244.61 
  1342.03,1244.61 1343.4,1244.62 1344.77,1244.62 1346.14,1244.62 1347.51,1244.63 1348.88,1244.63 1350.25,1244.63 1351.63,1244.63 1353,1244.64 1354.37,1244.64 
  1355.74,1244.64 1357.11,1244.64 1358.48,1244.65 1359.85,1244.65 1361.23,1244.65 1362.6,1244.65 1363.97,1244.65 1365.34,1244.66 1366.71,1244.66 1368.08,1244.66 
  1369.45,1244.66 1370.83,1244.66 1372.2,1244.66 1373.57,1244.66 1374.94,1244.67 1376.31,1244.67 1377.68,1244.67 1379.05,1244.67 1380.43,1244.67 1381.8,1244.67 
  1383.17,1244.67 1384.54,1244.67 1385.91,1244.67 1387.28,1244.67 1388.65,1244.67 1390.02,1244.67 1391.4,1244.67 1392.77,1244.67 1394.14,1244.67 1395.51,1244.67 
  1396.88,1244.67 1398.25,1244.75 1399.62,1244.75 1401,1244.75 1402.37,1244.75 1403.74,1244.73 1405.11,1244.69 1406.48,1244.62 1407.85,1244.53 1409.22,1244.45 
  1410.6,1244.38 1411.97,1244.32 1413.34,1244.29 1414.71,1244.27 1416.08,1244.26 1417.45,1244.26 1418.82,1244.27 1420.2,1244.28 1421.57,1244.29 1422.94,1244.31 
  1424.31,1244.32 1425.68,1244.34 1427.05,1244.36 1428.42,1244.37 1429.8,1244.39 1431.17,1244.4 1432.54,1244.41 1433.91,1244.43 1435.28,1244.44 1436.65,1244.45 
  1438.02,1244.46 1439.4,1244.47 1440.77,1244.48 1442.14,1244.49 1443.51,1244.5 1444.88,1244.51 1446.25,1244.51 1447.62,1244.52 1449,1244.53 1450.37,1244.53 
  1451.74,1244.54 1453.11,1244.55 1454.48,1244.55 1455.85,1244.56 1457.22,1244.56 1458.59,1244.57 1459.97,1244.57 1461.34,1244.58 1462.71,1244.58 1464.08,1244.58 
  1465.45,1244.59 1466.82,1244.59 1468.19,1244.59 1469.57,1244.6 1470.94,1244.6 1472.31,1244.6 1473.68,1244.61 1475.05,1244.61 1476.42,1244.61 1477.79,1244.61 
  1479.17,1244.62 1480.54,1224.39 1481.91,1027.21 1483.28,513.586 1484.65,219.727 1486.02,427.214 1487.39,748.545 1488.77,963.411 1490.14,1081.14 1491.51,1144.55 
  1492.88,1180.08 1494.25,1201.06 1495.62,1214.09 1496.99,1222.55 1498.37,1228.26 1499.74,1232.24 1501.11,1235.08 1502.48,1237.17 1503.85,1238.72 1505.22,1239.9 
  1506.59,1240.81 1507.97,1241.52 1509.34,1242.08 1510.71,1242.53 1512.08,1242.88 1513.45,1243.17 1514.82,1243.41 1516.19,1243.6 1517.57,1243.76 1518.94,1243.9 
  1520.31,1244.01 1521.68,1244.1 1523.05,1244.18 1524.42,1244.25 1525.79,1244.3 1527.16,1244.35 1528.54,1244.39 1529.91,1244.43 1531.28,1244.46 1532.65,1244.49 
  1534.02,1244.51 1535.39,1244.53 1536.76,1244.55 1538.14,1244.56 1539.51,1244.58 1540.88,1244.59 1542.25,1244.6 1543.62,1244.61 1544.99,1244.62 1546.36,1244.63 
  1547.74,1244.64 1549.11,1244.64 1550.48,1244.65 1551.85,1244.66 1553.22,1244.66 1554.59,1244.66 1555.96,1244.66 1557.34,1244.67 1558.71,1244.67 1560.08,1244.67 
  1561.45,1244.67 1562.82,1244.64 1564.19,1244.62 1565.56,1244.6 1566.94,1244.59 1568.31,1244.59 1569.68,1244.58 1571.05,1244.59 1572.42,1244.59 1573.79,1244.59 
  1575.16,1244.6 1576.54,1244.6 1577.91,1244.61 1579.28,1244.61 1580.65,1244.61 1582.02,1244.62 1583.39,1244.62 1584.76,1244.62 1586.14,1244.63 1587.51,1244.63 
  1588.88,1244.63 1590.25,1244.64 1591.62,1244.64 1592.99,1244.64 1594.36,1244.64 1595.74,1244.65 1597.11,1244.65 1598.48,1244.65 1599.85,1244.65 1601.22,1244.66 
  1602.59,1244.66 1603.96,1244.66 1605.33,1244.66 1606.71,1244.66 1608.08,1244.66 1609.45,1244.67 1610.82,1244.67 1612.19,1244.67 1613.56,1244.67 1614.93,1244.67 
  1616.31,1244.67 1617.68,1244.67 1619.05,1244.67 1620.42,1244.67 1621.79,1244.67 1623.16,1244.67 1624.53,1244.67 1625.91,1244.67 1627.28,1244.67 1628.65,1244.67 
  1630.02,1244.67 1631.39,1244.67 1632.76,1244.67 1634.13,1244.67 1635.51,1244.67 1636.88,1244.67 1638.25,1244.67 1639.62,1244.67 1640.99,1244.67 1642.36,1244.67 
  1643.73,1244.67 1645.11,1244.67 1646.48,1244.67 1647.85,1244.67 1649.22,1244.67 1650.59,1244.67 1651.96,1244.67 1653.33,1244.67 1654.71,1244.67 1656.08,1244.67 
  1657.45,1244.67 1658.82,1244.67 1660.19,1244.67 1661.56,1244.67 1662.93,1244.67 1664.31,1244.67 1665.68,1244.67 1667.05,1244.67 1668.42,1244.67 1669.79,1244.67 
  1671.16,1244.67 1672.53,1244.67 1673.9,1244.67 1675.28,1244.67 1676.65,1244.67 1678.02,1244.67 1679.39,1244.67 1680.76,1244.67 1682.13,1244.67 1683.5,1244.67 
  1684.88,1244.67 1686.25,1244.67 1687.62,1244.67 1688.99,1244.67 1690.36,1244.67 1691.73,1244.67 1693.1,1244.67 1694.48,1244.67 1695.85,1244.67 1697.22,1244.67 
  1698.59,1244.67 1699.96,1244.67 1701.33,1244.67 1702.7,1244.67 1704.08,1244.67 1705.45,1244.67 1706.82,1244.67 1708.19,1244.67 1709.56,1244.67 1710.93,1244.67 
  1712.3,1244.67 1713.68,1244.67 1715.05,1244.67 1716.42,1244.67 1717.79,1244.67 1719.16,1244.67 1720.53,1244.67 1721.9,1244.67 1723.28,1244.67 1724.65,1244.67 
  1726.02,1244.67 1727.39,1244.67 1728.76,1244.67 1730.13,1244.67 1731.5,1244.67 1732.88,1244.67 1734.25,1244.67 1735.62,1244.67 1736.99,1244.67 1738.36,1244.67 
  1739.73,1244.67 1741.1,1244.67 1742.47,1244.67 1743.85,1244.67 1745.22,1244.67 1746.59,1244.67 1747.96,1244.67 1749.33,1244.67 1750.7,1244.67 1752.07,1244.67 
  1753.45,1244.67 1754.82,1244.67 1756.19,1244.67 1757.56,1244.67 1758.93,1244.67 1760.3,1244.67 1761.67,1244.67 1763.05,1244.67 1764.42,1244.67 1765.79,1244.67 
  1767.16,1244.67 1768.53,1244.67 1769.9,1244.67 1771.27,1244.67 1772.65,1244.67 1774.02,1244.67 1775.39,1244.67 1776.76,1244.67 1778.13,1244.67 1779.5,1244.67 
  1780.87,1244.67 1782.25,1244.67 1783.62,1244.67 1784.99,1244.67 1786.36,1244.67 1787.73,1244.67 1789.1,1244.67 1790.47,1244.67 1791.85,1244.67 1793.22,1244.67 
  1794.59,1244.67 1795.96,1244.67 1797.33,1244.67 1798.7,1244.67 1800.07,1244.67 1801.45,1244.67 1802.82,1244.67 1804.19,1244.67 1805.56,1244.68 1806.93,1244.68 
  1808.3,1244.68 1809.67,1244.67 1811.05,1244.67 1812.42,1244.67 1813.79,1244.68 1815.16,1244.68 1816.53,1244.68 1817.9,1244.68 1819.27,1244.68 1820.64,1244.68 
  1822.02,1244.68 1823.39,1244.68 1824.76,1244.68 1826.13,1244.68 1827.5,1244.68 1828.87,1244.68 1830.24,1244.68 1831.62,1244.68 1832.99,1244.68 1834.36,1244.68 
  1835.73,1244.68 1837.1,1244.68 1838.47,1244.68 1839.84,1244.68 1841.22,1244.68 1842.59,1244.68 1843.96,1244.68 1845.33,1244.68 1846.7,1244.68 1848.07,1244.68 
  1849.44,1244.68 1850.82,1244.68 1852.19,1244.68 1853.56,1244.68 1854.93,1244.68 1856.3,1244.68 1857.67,1244.68 1859.04,1244.68 1860.42,1244.68 1861.79,1244.68 
  1863.16,1244.68 1864.53,1244.68 1865.9,1244.68 1867.27,1244.68 1868.64,1244.68 1870.02,1244.68 1871.39,1244.68 1872.76,1244.68 1874.13,1244.68 1875.5,1244.68 
  1876.87,1244.68 1878.24,1244.68 1879.62,1244.68 1880.99,1244.68 1882.36,1244.68 1883.73,1244.68 1885.1,1244.68 1886.47,1244.68 1887.84,1244.68 1889.21,1244.68 
  1890.59,1244.68 1891.96,1244.65 1893.33,1244.65 1894.7,1244.66 1896.07,1244.66 1897.44,1244.66 1898.81,1244.67 1900.19,1244.67 1901.56,1244.67 1902.93,1244.67 
  1904.3,1244.67 1905.67,1244.67 1907.04,1244.67 1908.41,1244.67 1909.79,1244.67 1911.16,1244.67 1912.53,1244.67 1913.9,1244.67 1915.27,1244.67 1916.64,1244.67 
  1918.01,1244.67 1919.39,1244.67 1920.76,1244.67 1922.13,1244.67 1923.5,1244.67 1924.87,1244.67 1926.24,1244.67 1927.61,1244.67 1928.99,1244.67 1930.36,1244.67 
  1931.73,1244.67 1933.1,1244.67 1934.47,1244.67 1935.84,1244.67 1937.21,1244.67 1938.59,1244.67 1939.96,1244.67 1941.33,1244.67 1942.7,1244.67 1944.07,1244.67 
  1945.44,1244.67 1946.81,1244.67 1948.19,1244.67 1949.56,1244.67 1950.93,1244.67 1952.3,1244.67 1953.67,1244.67 1955.04,1244.67 1956.41,1244.67 1957.79,1244.67 
  1959.16,1244.67 1960.53,1244.67 1961.9,1244.67 1963.27,1244.67 1964.64,1244.67 1966.01,1244.67 1967.38,1244.67 1968.76,1244.67 1970.13,1244.67 1971.5,1244.67 
  1972.87,1244.67 1974.24,1244.67 1975.61,1244.67 1976.98,1244.67 1978.36,1244.67 1979.73,1244.67 1981.1,1244.67 1982.47,1244.67 1983.84,1244.67 1985.21,1244.67 
  1986.58,1244.67 1987.96,1244.67 1989.33,1244.67 1990.7,1244.67 1992.07,1244.67 1993.44,1244.67 1994.81,1244.67 1996.18,1244.67 1997.56,1244.67 1998.93,1244.67 
  2000.3,1244.67 2001.67,1244.67 2003.04,1244.67 2004.41,1244.67 2005.78,1244.67 2007.16,1244.67 2008.53,1244.67 2009.9,1244.67 2011.27,1244.67 2012.64,1244.67 
  2014.01,1244.67 2015.38,1244.67 2016.76,1244.67 2018.13,1244.67 2019.5,1244.67 2020.87,1244.67 2022.24,1244.67 2023.61,1244.67 2024.98,1244.67 2026.36,1244.67 
  2027.73,1244.67 2029.1,1244.67 2030.47,1244.67 2031.84,1244.67 2033.21,1244.67 2034.58,1244.67 2035.95,1244.67 2037.33,1244.67 2038.7,1244.67 2040.07,1244.67 
  2041.44,1244.67 2042.81,1244.67 2044.18,1244.67 2045.55,1244.67 2046.93,1244.67 2048.3,1244.67 2049.67,1244.67 2051.04,1244.67 2052.41,1244.67 2053.78,1244.67 
  2055.15,1244.67 2056.53,1244.67 2057.9,1244.67 2059.27,1244.67 2060.64,1244.67 2062.01,1244.67 2063.38,1244.67 2064.75,1244.67 2066.13,1244.67 2067.5,1244.67 
  2068.87,1244.67 2070.24,1244.67 2071.61,1244.67 2072.98,1244.67 2074.35,1244.67 2075.73,1244.67 2077.1,1244.67 2078.47,1244.67 2079.84,1244.67 2081.21,1244.67 
  2082.58,1244.67 2083.95,1244.67 2085.33,1244.67 2086.7,1244.67 2088.07,1244.67 2089.44,1244.67 2090.81,1244.67 2092.18,1244.67 2093.55,1244.67 2094.93,1244.67 
  2096.3,1244.68 2097.67,1244.68 2099.04,1244.68 2100.41,1244.68 2101.78,1244.68 2103.15,1244.68 2104.52,1244.68 2105.9,1244.68 2107.27,1244.68 2108.64,1244.68 
  2110.01,1244.68 2111.38,1244.68 2112.75,1244.68 2114.12,1244.68 2115.5,1244.68 2116.87,1244.68 2118.24,1244.68 2119.61,1244.68 2120.98,1244.68 2122.35,1244.68 
  2123.72,1244.68 2125.1,1244.68 2126.47,1244.68 2127.84,1244.68 2129.21,1244.68 2130.58,1244.68 2131.95,1244.68 2133.32,1244.68 2134.7,1244.68 2136.07,1244.68 
  2137.44,1244.68 2138.81,1244.67 2140.18,1244.67 2141.55,1244.67 2142.92,1244.67 2144.3,1244.67 2145.67,1244.67 2147.04,1244.67 2148.41,1244.68 2149.78,1244.68 
  2151.15,1244.68 2152.52,1244.68 2153.9,1244.68 2155.27,1244.68 2156.64,1244.68 2158.01,1244.68 2159.38,1244.68 2160.75,1244.68 2162.12,1244.68 2163.5,1244.69 
  2164.87,1244.69 2166.24,1244.69 2167.61,1244.69 2168.98,1244.69 2170.35,1244.69 2171.72,1244.69 2173.1,1244.69 2174.47,1244.69 2175.84,1244.7 2177.21,1244.7 
  2178.58,1244.7 2179.95,1244.7 2181.32,1244.7 2182.69,1244.7 2184.07,1244.7 2185.44,1244.7 2186.81,1244.7 2188.18,1244.71 2189.55,1244.71 2190.92,1244.71 
  2192.29,1244.71 2193.67,1244.71 2195.04,1244.71 2196.41,1244.71 2197.78,1244.71 2199.15,1244.71 2200.52,1244.71 2201.89,1244.71 2203.27,1244.71 2204.64,1244.71 
  2206.01,1244.71 2207.38,1244.71 2208.75,1244.72 2210.12,1244.72 2211.49,1244.72 2212.87,1244.72 2214.24,1244.72 2215.61,1244.72 2216.98,1244.72 2218.35,1244.72 
  2219.72,1244.72 2221.09,1244.67 2222.47,1244.67 2223.84,1244.67 2225.21,1244.67 2226.58,1244.67 2227.95,1244.67 2229.32,1244.67 2230.69,1244.67 2232.07,1244.68 
  2233.44,1244.68 2234.81,1244.68 2236.18,1244.68 2237.55,1244.68 2238.92,1244.68 2240.29,1244.68 2241.67,1244.68 2243.04,1244.68 2244.41,1244.68 2245.78,1244.68 
  2247.15,1244.68 2248.52,1244.69 2249.89,1244.69 2251.26,1244.69 2252.64,1244.69 2254.01,1244.69 2255.38,1244.69 2256.75,1244.69 2258.12,1244.69 2259.49,1244.69 
  2260.86,1244.69 2262.24,1244.69 2263.61,1244.7 2264.98,1244.7 2266.35,1244.7 2267.72,1244.7 2269.09,1244.7 2270.46,1244.7 2271.84,1244.7 2273.21,1244.7 
  2274.58,1244.7 2275.95,1244.7 2277.32,1244.7 2278.69,1244.7 2280.06,1244.71 2281.44,1244.71 2282.81,1244.71 2284.18,1244.71 2285.55,1244.71 2286.92,1244.71 
  2288.29,1244.71 2289.66,1244.71 2291.04,1244.71 2292.41,1244.71 2293.78,1244.71 2295.15,1244.71 2296.52,1244.71 2297.89,1244.71 2299.26,1244.71 2300.64,1244.71 
  2302.01,1244.71 2303.38,1244.67 2304.75,1244.67 2306.12,1244.67 2307.49,1244.67 2308.86,1244.67 2310.24,1244.67 2311.61,1244.67 2312.98,1244.67 2314.35,1244.67 
  2315.72,1244.67 2317.09,1244.67 2318.46,1244.68 2319.84,1244.68 2321.21,1244.68 2322.58,1244.68 2323.95,1244.68 2325.32,1244.68 2326.69,1244.68 2328.06,1244.68 
  2329.43,1244.68 2330.81,1244.68 2332.18,1244.68 2333.55,1244.68 2334.92,1244.68 2336.29,1244.68 2337.66,1244.68 2339.03,1244.68 2340.41,1244.68 2341.78,1244.68 
  2343.15,1244.68 2344.52,1244.68 2345.89,1244.68 2347.26,1244.69 2348.63,1244.69 2350.01,1244.69 2351.38,1244.69 2352.75,1244.69 2354.12,1244.69 2355.49,1244.69 
  2356.86,1244.69 2358.23,1244.69 2359.61,1244.69 2360.98,1244.69 2362.35,1244.69 2363.72,1244.69 2365.09,1244.69 2366.46,1244.69 2367.83,1244.69 2369.21,1244.69 
  2370.58,1244.69 2371.95,1244.69 2373.32,1244.69 2374.69,1244.7 2376.06,1244.7 2377.43,1244.7 2378.81,1244.7 2380.18,1244.7 2381.55,1244.7 2382.92,1244.7 
  2384.29,1244.7 2385.66,1244.65 2387.03,1244.66 2388.41,1244.66 2389.78,1244.66 2391.15,1244.67 2392.52,1244.67 2393.89,1244.67 2395.26,1244.67 2396.63,1244.67 
  2398,1244.67 2399.38,1244.67 2400.75,1244.67 2402.12,1244.67 2403.49,1244.67 2404.86,1244.67 2406.23,1244.67 2407.6,1244.67 2408.98,1244.67 2410.35,1244.67 
  2411.72,1244.68 2413.09,1244.68 2414.46,1244.68 2415.83,1244.68 2417.2,1244.68 2418.58,1244.68 2419.95,1244.68 2421.32,1244.68 2422.69,1244.68 2424.06,1244.68 
  2425.43,1244.68 2426.8,1244.68 2428.18,1244.68 2429.55,1244.68 2430.92,1244.68 2432.29,1244.68 2433.66,1244.68 2435.03,1244.68 2436.4,1244.68 2437.78,1244.68 
  2439.15,1244.68 2440.52,1244.68 2441.89,1244.68 2443.26,1244.68 2444.63,1244.68 2446,1244.68 2447.38,1244.68 2448.75,1244.68 2450.12,1244.68 2451.49,1244.68 
  2452.86,1244.68 2454.23,1244.68 2455.6,1244.68 2456.98,1244.68 2458.35,1244.68 2459.72,1244.68 2461.09,1244.68 2462.46,1244.68 2463.83,1244.68 2465.2,1244.68 
  2466.57,1244.68 2467.95,1244.67 2469.32,1244.67 2470.69,1244.67 2472.06,1244.67 2473.43,1244.68 2474.8,1244.68 2476.17,1244.68 2477.55,1244.68 2478.92,1244.68 
  2480.29,1244.68 2481.66,1244.68 2483.03,1244.68 2484.4,1244.68 2485.77,1244.68 2487.15,1244.68 2488.52,1244.68 2489.89,1244.68 2491.26,1244.68 2492.63,1244.68 
  2494,1244.68 2495.37,1244.68 2496.75,1244.68 2498.12,1244.68 2499.49,1244.68 2500.86,1244.68 2502.23,1244.68 2503.6,1244.68 2504.97,1244.68 2506.35,1244.68 
  2507.72,1244.68 2509.09,1244.68 2510.46,1244.68 2511.83,1244.68 2513.2,1244.68 2514.57,1244.68 2515.95,1244.68 2517.32,1244.68 2518.69,1244.68 2520.06,1244.68 
  2521.43,1244.68 2522.8,1244.68 2524.17,1244.68 2525.55,1244.68 2526.92,1244.68 2528.29,1244.68 2529.66,1244.68 2531.03,1244.68 2532.4,1244.68 2533.77,1244.69 
  2535.15,1244.69 2536.52,1244.69 2537.89,1244.69 2539.26,1244.69 2540.63,1244.69 2542,1244.69 2543.37,1244.69 2544.74,1244.69 2546.12,1244.69 2547.49,1244.69 
  2548.86,1244.69 2550.23,1244.68 2551.6,1244.68 2552.97,1244.68 2554.34,1244.68 2555.72,1244.68 2557.09,1244.68 2558.46,1244.68 2559.83,1244.68 2561.2,1244.68 
  2562.57,1244.68 2563.94,1244.68 2565.32,1244.68 2566.69,1244.68 2568.06,1244.68 2569.43,1244.68 2570.8,1244.68 2572.17,1244.68 2573.54,1244.68 2574.92,1244.68 
  2576.29,1244.68 2577.66,1244.68 2579.03,1244.68 2580.4,1244.68 2581.77,1244.68 2583.14,1244.68 2584.52,1244.69 2585.89,1244.69 2587.26,1244.69 2588.63,1244.69 
  2590,1244.69 2591.37,1244.69 2592.74,1244.69 2594.12,1244.69 2595.49,1244.69 2596.86,1244.69 2598.23,1244.69 2599.6,1244.69 2600.97,1244.69 2602.34,1244.69 
  2603.72,1244.69 2605.09,1244.69 2606.46,1244.69 2607.83,1244.69 2609.2,1244.69 2610.57,1244.69 2611.94,1244.69 2613.31,1244.69 2614.69,1244.69 2616.06,1244.69 
  2617.43,1244.69 2618.8,1244.69 2620.17,1244.69 2621.54,1244.7 2622.91,1244.7 2624.29,1244.7 2625.66,1244.7 2627.03,1244.7 2628.4,1244.7 2629.77,1244.7 
  2631.14,1244.7 2632.51,1244.67 2633.89,1244.67 2635.26,1244.67 2636.63,1244.67 2638,1244.68 2639.37,1244.68 2640.74,1244.68 2642.11,1244.68 2643.49,1244.68 
  2644.86,1244.68 2646.23,1244.68 2647.6,1244.68 2648.97,1244.68 2650.34,1244.68 2651.71,1244.68 2653.09,1244.68 2654.46,1244.68 2655.83,1244.68 2657.2,1244.68 
  2658.57,1244.68 2659.94,1244.68 2661.31,1244.69 2662.69,1244.69 2664.06,1244.69 2665.43,1244.69 2666.8,1244.69 2668.17,1244.69 2669.54,1244.69 2670.91,1244.69 
  2672.29,1244.69 2673.66,1244.69 2675.03,1244.69 2676.4,1244.69 2677.77,1244.69 2679.14,1244.69 2680.51,1244.69 2681.88,1244.69 2683.26,1244.69 2684.63,1244.69 
  2686,1244.69 2687.37,1244.69 2688.74,1244.69 2690.11,1244.7 2691.48,1244.7 2692.86,1244.7 2694.23,1244.7 2695.6,1244.7 2696.97,1244.7 2698.34,1244.7 
  2699.71,1244.7 2701.08,1244.7 2702.46,1244.7 2703.83,1244.7 2705.2,1244.7 2706.57,1244.7 2707.94,1244.7 2709.31,1244.7 2710.68,1244.7 2712.06,1244.7 
  2713.43,1244.7 2714.8,1244.69 2716.17,1244.69 2717.54,1244.69 2718.91,1244.69 2720.28,1244.69 2721.66,1244.69 2723.03,1244.69 2724.4,1244.69 2725.77,1244.69 
  2727.14,1244.69 2728.51,1244.69 2729.88,1244.7 2731.26,1244.7 2732.63,1244.7 2734,1244.7 2735.37,1244.7 2736.74,1244.7 2738.11,1244.7 2739.48,1244.7 
  2740.86,1244.7 2742.23,1244.7 2743.6,1244.7 2744.97,1244.7 2746.34,1244.7 2747.71,1244.7 2749.08,1244.7 2750.46,1244.7 2751.83,1244.7 2753.2,1244.71 
  2754.57,1244.71 2755.94,1244.71 2757.31,1244.71 2758.68,1244.71 2760.05,1244.71 2761.43,1244.71 2762.8,1244.71 2764.17,1244.71 2765.54,1244.71 2766.91,1244.71 
  2768.28,1244.71 2769.65,1244.71 2771.03,1244.71 2772.4,1244.71 2773.77,1244.71 2775.14,1244.71 2776.51,1244.72 2777.88,1244.72 2779.25,1244.72 2780.63,1244.72 
  2782,1244.72 2783.37,1244.72 2784.74,1244.72 2786.11,1244.72 2787.48,1244.72 2788.85,1244.72 2790.23,1244.72 2791.6,1244.72 2792.97,1244.72 2794.34,1244.72 
  
  "/>
</svg>
