<?xml version="1.0" encoding="utf-8"?>
<svg xmlns="http://www.w3.org/2000/svg" xmlns:xlink="http://www.w3.org/1999/xlink" width="800" height="400" viewBox="0 0 3200 1600">
<defs>
  <clipPath id="clip5400">
    <rect x="0" y="0" width="3200" height="1600"/>
  </clipPath>
</defs>
<polygon clip-path="url(#clip5400)" points="
0,1600 3200,1600 3200,0 0,0 
  " fill="#ffffff" fill-rule="evenodd" fill-opacity="1"/>
<defs>
  <clipPath id="clip5401">
    <rect x="640" y="0" width="2241" height="1600"/>
  </clipPath>
</defs>
<polygon clip-path="url(#clip5400)" points="
810.449,1275.5 2853.54,1275.5 2853.54,188.976 810.449,188.976 
  " fill="#ffffff" fill-rule="evenodd" fill-opacity="1"/>
<defs>
  <clipPath id="clip5402">
    <rect x="810" y="188" width="2044" height="1088"/>
  </clipPath>
</defs>
<polyline clip-path="url(#clip5402)" style="stroke:#000000; stroke-width:2; stroke-opacity:0.1; fill:none" points="
  865.592,1275.5 865.592,188.976 
  "/>
<polyline clip-path="url(#clip5402)" style="stroke:#000000; stroke-width:2; stroke-opacity:0.1; fill:none" points="
  1187.28,1275.5 1187.28,188.976 
  "/>
<polyline clip-path="url(#clip5402)" style="stroke:#000000; stroke-width:2; stroke-opacity:0.1; fill:none" points="
  1508.97,1275.5 1508.97,188.976 
  "/>
<polyline clip-path="url(#clip5402)" style="stroke:#000000; stroke-width:2; stroke-opacity:0.1; fill:none" points="
  1830.66,1275.5 1830.66,188.976 
  "/>
<polyline clip-path="url(#clip5402)" style="stroke:#000000; stroke-width:2; stroke-opacity:0.1; fill:none" points="
  2152.34,1275.5 2152.34,188.976 
  "/>
<polyline clip-path="url(#clip5402)" style="stroke:#000000; stroke-width:2; stroke-opacity:0.1; fill:none" points="
  2474.03,1275.5 2474.03,188.976 
  "/>
<polyline clip-path="url(#clip5402)" style="stroke:#000000; stroke-width:2; stroke-opacity:0.1; fill:none" points="
  2795.72,1275.5 2795.72,188.976 
  "/>
<polyline clip-path="url(#clip5402)" style="stroke:#000000; stroke-width:2; stroke-opacity:0.1; fill:none" points="
  810.449,1274.59 2853.54,1274.59 
  "/>
<polyline clip-path="url(#clip5402)" style="stroke:#000000; stroke-width:2; stroke-opacity:0.1; fill:none" points="
  810.449,1115.83 2853.54,1115.83 
  "/>
<polyline clip-path="url(#clip5402)" style="stroke:#000000; stroke-width:2; stroke-opacity:0.1; fill:none" points="
  810.449,957.076 2853.54,957.076 
  "/>
<polyline clip-path="url(#clip5402)" style="stroke:#000000; stroke-width:2; stroke-opacity:0.1; fill:none" points="
  810.449,798.318 2853.54,798.318 
  "/>
<polyline clip-path="url(#clip5402)" style="stroke:#000000; stroke-width:2; stroke-opacity:0.1; fill:none" points="
  810.449,639.559 2853.54,639.559 
  "/>
<polyline clip-path="url(#clip5402)" style="stroke:#000000; stroke-width:2; stroke-opacity:0.1; fill:none" points="
  810.449,480.801 2853.54,480.801 
  "/>
<polyline clip-path="url(#clip5402)" style="stroke:#000000; stroke-width:2; stroke-opacity:0.1; fill:none" points="
  810.449,322.043 2853.54,322.043 
  "/>
<polyline clip-path="url(#clip5400)" style="stroke:#000000; stroke-width:4; stroke-opacity:1; fill:none" points="
  810.449,1275.5 2853.54,1275.5 
  "/>
<polyline clip-path="url(#clip5400)" style="stroke:#000000; stroke-width:4; stroke-opacity:1; fill:none" points="
  810.449,1275.5 810.449,188.976 
  "/>
<polyline clip-path="url(#clip5400)" style="stroke:#000000; stroke-width:4; stroke-opacity:1; fill:none" points="
  865.592,1275.5 865.592,1259.21 
  "/>
<polyline clip-path="url(#clip5400)" style="stroke:#000000; stroke-width:4; stroke-opacity:1; fill:none" points="
  1187.28,1275.5 1187.28,1259.21 
  "/>
<polyline clip-path="url(#clip5400)" style="stroke:#000000; stroke-width:4; stroke-opacity:1; fill:none" points="
  1508.97,1275.5 1508.97,1259.21 
  "/>
<polyline clip-path="url(#clip5400)" style="stroke:#000000; stroke-width:4; stroke-opacity:1; fill:none" points="
  1830.66,1275.5 1830.66,1259.21 
  "/>
<polyline clip-path="url(#clip5400)" style="stroke:#000000; stroke-width:4; stroke-opacity:1; fill:none" points="
  2152.34,1275.5 2152.34,1259.21 
  "/>
<polyline clip-path="url(#clip5400)" style="stroke:#000000; stroke-width:4; stroke-opacity:1; fill:none" points="
  2474.03,1275.5 2474.03,1259.21 
  "/>
<polyline clip-path="url(#clip5400)" style="stroke:#000000; stroke-width:4; stroke-opacity:1; fill:none" points="
  2795.72,1275.5 2795.72,1259.21 
  "/>
<polyline clip-path="url(#clip5400)" style="stroke:#000000; stroke-width:4; stroke-opacity:1; fill:none" points="
  810.449,1274.59 841.096,1274.59 
  "/>
<polyline clip-path="url(#clip5400)" style="stroke:#000000; stroke-width:4; stroke-opacity:1; fill:none" points="
  810.449,1115.83 841.096,1115.83 
  "/>
<polyline clip-path="url(#clip5400)" style="stroke:#000000; stroke-width:4; stroke-opacity:1; fill:none" points="
  810.449,957.076 841.096,957.076 
  "/>
<polyline clip-path="url(#clip5400)" style="stroke:#000000; stroke-width:4; stroke-opacity:1; fill:none" points="
  810.449,798.318 841.096,798.318 
  "/>
<polyline clip-path="url(#clip5400)" style="stroke:#000000; stroke-width:4; stroke-opacity:1; fill:none" points="
  810.449,639.559 841.096,639.559 
  "/>
<polyline clip-path="url(#clip5400)" style="stroke:#000000; stroke-width:4; stroke-opacity:1; fill:none" points="
  810.449,480.801 841.096,480.801 
  "/>
<polyline clip-path="url(#clip5400)" style="stroke:#000000; stroke-width:4; stroke-opacity:1; fill:none" points="
  810.449,322.043 841.096,322.043 
  "/>
<g clip-path="url(#clip5400)">
<text style="fill:#000000; fill-opacity:1; font-family:Arial,Helvetica Neue,Helvetica,sans-serif; font-size:71px; text-anchor:middle;" transform="rotate(0, 865.592, 1353.9)" x="865.592" y="1353.9">0</text>
</g>
<g clip-path="url(#clip5400)">
<text style="fill:#000000; fill-opacity:1; font-family:Arial,Helvetica Neue,Helvetica,sans-serif; font-size:71px; text-anchor:middle;" transform="rotate(0, 1187.28, 1353.9)" x="1187.28" y="1353.9">4</text>
</g>
<g clip-path="url(#clip5400)">
<text style="fill:#000000; fill-opacity:1; font-family:Arial,Helvetica Neue,Helvetica,sans-serif; font-size:71px; text-anchor:middle;" transform="rotate(0, 1508.97, 1353.9)" x="1508.97" y="1353.9">8</text>
</g>
<g clip-path="url(#clip5400)">
<text style="fill:#000000; fill-opacity:1; font-family:Arial,Helvetica Neue,Helvetica,sans-serif; font-size:71px; text-anchor:middle;" transform="rotate(0, 1830.66, 1353.9)" x="1830.66" y="1353.9">12</text>
</g>
<g clip-path="url(#clip5400)">
<text style="fill:#000000; fill-opacity:1; font-family:Arial,Helvetica Neue,Helvetica,sans-serif; font-size:71px; text-anchor:middle;" transform="rotate(0, 2152.34, 1353.9)" x="2152.34" y="1353.9">16</text>
</g>
<g clip-path="url(#clip5400)">
<text style="fill:#000000; fill-opacity:1; font-family:Arial,Helvetica Neue,Helvetica,sans-serif; font-size:71px; text-anchor:middle;" transform="rotate(0, 2474.03, 1353.9)" x="2474.03" y="1353.9">20</text>
</g>
<g clip-path="url(#clip5400)">
<text style="fill:#000000; fill-opacity:1; font-family:Arial,Helvetica Neue,Helvetica,sans-serif; font-size:71px; text-anchor:middle;" transform="rotate(0, 2795.72, 1353.9)" x="2795.72" y="1353.9">24</text>
</g>
<g clip-path="url(#clip5400)">
<text style="fill:#000000; fill-opacity:1; font-family:Arial,Helvetica Neue,Helvetica,sans-serif; font-size:71px; text-anchor:start;" transform="rotate(0, 533.437, 1310.18)" x="533.437" y="1310.18">10</text>
</g>
<g clip-path="url(#clip5400)">
<text style="fill:#000000; fill-opacity:1; font-family:Arial,Helvetica Neue,Helvetica,sans-serif; font-size:58px; text-anchor:start;" transform="rotate(0, 613.724, 1269.07)" x="613.724" y="1269.07">-</text>
</g>
<g clip-path="url(#clip5400)">
<text style="fill:#000000; fill-opacity:1; font-family:Arial,Helvetica Neue,Helvetica,sans-serif; font-size:58px; text-anchor:start;" transform="rotate(0, 647.983, 1269.07)" x="647.983" y="1269.07">12.5 </text>
</g>
<g clip-path="url(#clip5400)">
<text style="fill:#000000; fill-opacity:1; font-family:Arial,Helvetica Neue,Helvetica,sans-serif; font-size:71px; text-anchor:start;" transform="rotate(0, 533.437, 1151.43)" x="533.437" y="1151.43">10</text>
</g>
<g clip-path="url(#clip5400)">
<text style="fill:#000000; fill-opacity:1; font-family:Arial,Helvetica Neue,Helvetica,sans-serif; font-size:58px; text-anchor:start;" transform="rotate(0, 613.724, 1110.31)" x="613.724" y="1110.31">-</text>
</g>
<g clip-path="url(#clip5400)">
<text style="fill:#000000; fill-opacity:1; font-family:Arial,Helvetica Neue,Helvetica,sans-serif; font-size:58px; text-anchor:start;" transform="rotate(0, 647.983, 1110.31)" x="647.983" y="1110.31">10.0 </text>
</g>
<g clip-path="url(#clip5400)">
<text style="fill:#000000; fill-opacity:1; font-family:Arial,Helvetica Neue,Helvetica,sans-serif; font-size:71px; text-anchor:start;" transform="rotate(0, 566.053, 992.667)" x="566.053" y="992.667">10</text>
</g>
<g clip-path="url(#clip5400)">
<text style="fill:#000000; fill-opacity:1; font-family:Arial,Helvetica Neue,Helvetica,sans-serif; font-size:58px; text-anchor:start;" transform="rotate(0, 646.34, 951.552)" x="646.34" y="951.552">-</text>
</g>
<g clip-path="url(#clip5400)">
<text style="fill:#000000; fill-opacity:1; font-family:Arial,Helvetica Neue,Helvetica,sans-serif; font-size:58px; text-anchor:start;" transform="rotate(0, 680.599, 951.552)" x="680.599" y="951.552">7.5 </text>
</g>
<g clip-path="url(#clip5400)">
<text style="fill:#000000; fill-opacity:1; font-family:Arial,Helvetica Neue,Helvetica,sans-serif; font-size:71px; text-anchor:start;" transform="rotate(0, 566.053, 833.909)" x="566.053" y="833.909">10</text>
</g>
<g clip-path="url(#clip5400)">
<text style="fill:#000000; fill-opacity:1; font-family:Arial,Helvetica Neue,Helvetica,sans-serif; font-size:58px; text-anchor:start;" transform="rotate(0, 646.34, 792.793)" x="646.34" y="792.793">-</text>
</g>
<g clip-path="url(#clip5400)">
<text style="fill:#000000; fill-opacity:1; font-family:Arial,Helvetica Neue,Helvetica,sans-serif; font-size:58px; text-anchor:start;" transform="rotate(0, 680.599, 792.793)" x="680.599" y="792.793">5.0 </text>
</g>
<g clip-path="url(#clip5400)">
<text style="fill:#000000; fill-opacity:1; font-family:Arial,Helvetica Neue,Helvetica,sans-serif; font-size:71px; text-anchor:start;" transform="rotate(0, 566.053, 675.151)" x="566.053" y="675.151">10</text>
</g>
<g clip-path="url(#clip5400)">
<text style="fill:#000000; fill-opacity:1; font-family:Arial,Helvetica Neue,Helvetica,sans-serif; font-size:58px; text-anchor:start;" transform="rotate(0, 646.34, 634.035)" x="646.34" y="634.035">-</text>
</g>
<g clip-path="url(#clip5400)">
<text style="fill:#000000; fill-opacity:1; font-family:Arial,Helvetica Neue,Helvetica,sans-serif; font-size:58px; text-anchor:start;" transform="rotate(0, 680.599, 634.035)" x="680.599" y="634.035">2.5 </text>
</g>
<g clip-path="url(#clip5400)">
<text style="fill:#000000; fill-opacity:1; font-family:Arial,Helvetica Neue,Helvetica,sans-serif; font-size:71px; text-anchor:start;" transform="rotate(0, 600.312, 516.393)" x="600.312" y="516.393">10</text>
</g>
<g clip-path="url(#clip5400)">
<text style="fill:#000000; fill-opacity:1; font-family:Arial,Helvetica Neue,Helvetica,sans-serif; font-size:58px; text-anchor:start;" transform="rotate(0, 680.599, 475.277)" x="680.599" y="475.277">0.0 </text>
</g>
<g clip-path="url(#clip5400)">
<text style="fill:#000000; fill-opacity:1; font-family:Arial,Helvetica Neue,Helvetica,sans-serif; font-size:71px; text-anchor:start;" transform="rotate(0, 600.312, 357.634)" x="600.312" y="357.634">10</text>
</g>
<g clip-path="url(#clip5400)">
<text style="fill:#000000; fill-opacity:1; font-family:Arial,Helvetica Neue,Helvetica,sans-serif; font-size:58px; text-anchor:start;" transform="rotate(0, 680.599, 316.519)" x="680.599" y="316.519">2.5 </text>
</g>
<g clip-path="url(#clip5400)">
<text style="fill:#000000; fill-opacity:1; font-family:Arial,Helvetica Neue,Helvetica,sans-serif; font-size:95px; text-anchor:middle;" transform="rotate(0, 1832, 1469.75)" x="1832" y="1469.75">Time (hours)</text>
</g>
<g clip-path="url(#clip5400)">
<text style="fill:#000000; fill-opacity:1; font-family:Arial,Helvetica Neue,Helvetica,sans-serif; font-size:95px; text-anchor:middle;" transform="rotate(-90, 325.073, 732.24)" x="325.073" y="732.24">Probability of Wait</text>
</g>
<g clip-path="url(#clip5400)">
<text style="fill:#000000; fill-opacity:1; font-family:Arial,Helvetica Neue,Helvetica,sans-serif; font-size:95px; text-anchor:middle;" transform="rotate(-90, 428.753, 732.24)" x="428.753" y="732.24"> Relative Error: |(PSA-NS)/NS|</text>
</g>
<polyline clip-path="url(#clip5402)" style="stroke:#009af9; stroke-width:4; stroke-opacity:1; fill:none" points="
  868.273,1244.75 869.613,1225.5 870.953,1213.97 872.294,1205.5 873.634,1198.65 874.974,1192.77 876.315,1187.53 877.655,1182.74 878.996,1178.28 880.336,1174.06 
  881.676,1170.04 883.017,1166.16 884.357,1162.4 885.697,1158.73 887.038,1155.14 888.378,1151.62 889.719,1148.15 891.059,1144.73 892.399,1141.34 893.74,1137.99 
  895.08,1134.67 896.42,1131.37 897.761,1128.09 899.101,1124.82 900.441,1121.58 901.782,1118.35 903.122,1115.13 904.463,1111.92 905.803,1108.72 907.143,1105.53 
  908.484,1102.34 909.824,1099.17 911.164,1096 912.505,1092.83 913.845,1089.68 915.185,1086.52 916.526,1083.37 917.866,1080.22 919.207,1077.08 920.547,1073.94 
  921.887,1070.81 923.228,1067.68 924.568,1064.55 925.908,1061.42 927.249,1058.3 928.589,1055.18 929.93,1052.06 931.27,1048.95 932.61,1045.83 933.951,1042.72 
  935.291,1039.61 936.631,1036.51 937.972,1033.41 939.312,1030.31 940.652,1027.21 941.993,1024.11 943.333,1021.02 944.674,1017.93 946.014,1014.84 947.354,1011.75 
  948.695,810.143 950.035,806.614 951.375,803.119 952.716,799.671 954.056,796.278 955.396,792.95 956.737,789.693 958.077,786.509 959.418,783.398 960.758,780.354 
  962.098,777.37 963.439,774.438 964.779,771.547 966.119,768.686 967.46,765.844 968.8,763.011 970.141,760.179 971.481,757.341 972.821,754.489 974.162,751.619 
  975.502,748.727 976.842,745.812 978.183,742.872 979.523,739.906 980.863,736.916 982.204,733.902 983.544,730.866 984.885,727.809 986.225,724.734 987.565,721.642 
  988.906,718.537 990.246,715.42 991.586,712.293 992.927,709.158 994.267,706.018 995.607,702.874 996.948,699.728 998.288,696.582 999.629,693.437 1000.97,690.295 
  1002.31,687.156 1003.65,684.023 1004.99,680.896 1006.33,677.776 1007.67,674.664 1009.01,671.561 1010.35,668.468 1011.69,665.385 1013.03,662.314 1014.37,659.255 
  1015.71,656.209 1017.05,653.175 1018.39,650.156 1019.73,647.151 1021.07,644.161 1022.41,641.186 1023.76,638.228 1025.1,635.286 1026.44,632.361 1027.78,629.453 
  1029.12,645.803 1030.46,645.081 1031.8,644.526 1033.14,644.056 1034.48,643.619 1035.82,643.186 1037.16,642.738 1038.5,642.261 1039.84,641.75 1041.18,641.2 
  1042.52,640.61 1043.86,639.979 1045.2,639.308 1046.54,638.599 1047.88,637.855 1049.22,637.077 1050.56,636.269 1051.9,635.433 1053.24,634.572 1054.58,633.689 
  1055.92,632.786 1057.26,631.866 1058.6,630.93 1059.95,629.981 1061.29,629.02 1062.63,628.05 1063.97,627.071 1065.31,626.086 1066.65,625.094 1067.99,624.098 
  1069.33,623.098 1070.67,622.096 1072.01,621.091 1073.35,620.085 1074.69,619.079 1076.03,618.072 1077.37,617.065 1078.71,616.059 1080.05,615.054 1081.39,614.051 
  1082.73,613.049 1084.07,612.049 1085.41,611.052 1086.75,610.056 1088.09,609.064 1089.43,608.074 1090.77,607.087 1092.11,606.103 1093.45,605.123 1094.79,604.145 
  1096.13,603.171 1097.48,602.201 1098.82,601.233 1100.16,600.27 1101.5,599.31 1102.84,598.354 1104.18,597.402 1105.52,596.454 1106.86,595.509 1108.2,594.569 
  1109.54,627.089 1110.88,635.962 1112.22,645.313 1113.56,655.936 1114.9,669.149 1116.24,688.676 1117.58,743.981 1118.92,702.566 1120.26,682.638 1121.6,672.352 
  1122.94,665.609 1124.28,660.691 1125.62,656.87 1126.96,653.773 1128.3,651.183 1129.64,648.962 1130.98,647.021 1132.32,645.296 1133.67,643.742 1135.01,642.324 
  1136.35,641.018 1137.69,639.804 1139.03,638.665 1140.37,637.591 1141.71,636.569 1143.05,635.593 1144.39,634.656 1145.73,633.751 1147.07,632.875 1148.41,632.024 
  1149.75,631.194 1151.09,630.382 1152.43,629.587 1153.77,628.806 1155.11,628.036 1156.45,627.278 1157.79,626.53 1159.13,625.79 1160.47,625.057 1161.81,624.331 
  1163.15,623.611 1164.49,622.897 1165.83,622.187 1167.17,621.482 1168.51,620.781 1169.86,620.083 1171.2,619.389 1172.54,618.697 1173.88,618.009 1175.22,617.323 
  1176.56,616.64 1177.9,615.959 1179.24,615.28 1180.58,614.604 1181.92,613.929 1183.26,613.256 1184.6,612.585 1185.94,611.916 1187.28,611.248 1188.62,610.583 
  1189.96,542.156 1191.3,546.442 1192.64,551.036 1193.98,555.965 1195.32,561.27 1196.66,567.013 1198,573.289 1199.34,580.249 1200.68,588.144 1202.02,597.421 
  1203.36,608.994 1204.7,625.206 1206.05,656.51 1207.39,663.313 1208.73,633.823 1210.07,621.771 1211.41,614.671 1212.75,609.946 1214.09,606.61 1215.43,604.18 
  1216.77,602.383 1218.11,601.05 1219.45,600.068 1220.79,599.359 1222.13,598.866 1223.47,598.548 1224.81,598.37 1226.15,598.31 1227.49,598.347 1228.83,598.465 
  1230.17,598.652 1231.51,598.897 1232.85,599.191 1234.19,599.527 1235.53,599.9 1236.87,600.304 1238.21,600.735 1239.55,601.19 1240.89,601.665 1242.23,602.158 
  1243.58,602.667 1244.92,603.19 1246.26,603.725 1247.6,604.271 1248.94,604.827 1250.28,605.391 1251.62,605.964 1252.96,606.543 1254.3,607.129 1255.64,607.721 
  1256.98,608.318 1258.32,608.92 1259.66,609.526 1261,610.137 1262.34,610.752 1263.68,611.371 1265.02,611.993 1266.36,612.619 1267.7,613.247 1269.04,613.879 
  1270.38,563.497 1271.72,563.805 1273.06,564.996 1274.4,566.791 1275.74,569.079 1277.08,571.79 1278.42,574.869 1279.77,578.273 1281.11,581.963 1282.45,585.91 
  1283.79,590.085 1285.13,594.468 1286.47,599.041 1287.81,603.786 1289.15,608.69 1290.49,613.742 1291.83,618.93 1293.17,624.246 1294.51,629.679 1295.85,635.224 
  1297.19,640.872 1298.53,646.618 1299.87,652.455 1301.21,658.378 1302.55,664.381 1303.89,670.461 1305.23,676.612 1306.57,682.83 1307.91,689.112 1309.25,695.455 
  1310.59,701.854 1311.93,708.307 1313.27,714.811 1314.61,721.363 1315.96,727.961 1317.3,734.603 1318.64,741.287 1319.98,748.01 1321.32,754.771 1322.66,761.568 
  1324,768.399 1325.34,775.263 1326.68,782.159 1328.02,789.086 1329.36,796.042 1330.7,803.025 1332.04,810.036 1333.38,817.073 1334.72,824.136 1336.06,831.222 
  1337.4,838.332 1338.74,845.465 1340.08,852.62 1341.42,859.796 1342.76,866.993 1344.1,874.211 1345.44,881.447 1346.78,888.703 1348.12,895.977 1349.46,903.269 
  1350.8,481.122 1352.15,481.651 1353.49,482.912 1354.83,485.648 1356.17,491.13 1357.51,501.811 1358.85,525.92 1360.19,546.813 1361.53,509.527 1362.87,496.544 
  1364.21,489.877 1365.55,486.264 1366.89,484.428 1368.23,483.714 1369.57,483.739 1370.91,484.264 1372.25,485.132 1373.59,486.239 1374.93,487.514 1376.27,488.91 
  1377.61,490.396 1378.95,491.953 1380.29,493.569 1381.63,495.238 1382.97,496.958 1384.31,498.732 1385.65,500.564 1386.99,502.459 1388.33,504.425 1389.68,506.468 
  1391.02,508.598 1392.36,510.823 1393.7,513.151 1395.04,515.591 1396.38,518.152 1397.72,520.841 1399.06,523.666 1400.4,526.636 1401.74,529.756 1403.08,533.034 
  1404.42,536.476 1405.76,540.089 1407.1,543.877 1408.44,547.846 1409.78,552.002 1411.12,556.347 1412.46,560.888 1413.8,565.627 1415.14,570.567 1416.48,575.713 
  1417.82,581.065 1419.16,586.627 1420.5,592.399 1421.84,598.384 1423.18,604.58 1424.52,610.989 1425.87,617.61 1427.21,624.442 1428.55,631.483 1429.89,638.732 
  1431.23,480.802 1432.57,480.82 1433.91,481.059 1435.25,482.771 1436.59,490.536 1437.93,530.62 1439.27,490.355 1440.61,464.999 1441.95,452.057 1443.29,444.411 
  1444.63,439.799 1445.97,437.115 1447.31,435.712 1448.65,435.184 1449.99,435.26 1451.33,435.759 1452.67,436.552 1454.01,437.552 1455.35,438.694 1456.69,439.935 
  1458.03,441.241 1459.37,442.589 1460.71,443.963 1462.06,445.351 1463.4,446.745 1464.74,448.138 1466.08,449.527 1467.42,450.908 1468.76,452.28 1470.1,453.641 
  1471.44,454.992 1472.78,456.33 1474.12,457.657 1475.46,458.972 1476.8,460.275 1478.14,461.567 1479.48,462.847 1480.82,464.117 1482.16,465.376 1483.5,466.625 
  1484.84,467.864 1486.18,469.093 1487.52,470.313 1488.86,471.523 1490.2,472.724 1491.54,473.916 1492.88,475.099 1494.22,476.274 1495.56,477.44 1496.9,478.597 
  1498.24,479.747 1499.59,480.888 1500.93,482.02 1502.27,483.146 1503.61,484.263 1504.95,485.374 1506.29,486.477 1507.63,487.574 1508.97,488.666 1510.31,489.752 
  1511.65,327.914 1512.99,262.485 1514.33,229.045 1515.67,219.727 1517.01,225.965 1518.35,239.738 1519.69,255.39 1521.03,270.345 1522.37,283.875 1523.71,295.964 
  1525.05,306.796 1526.39,316.585 1527.73,325.517 1529.07,333.748 1530.41,341.397 1531.75,348.562 1533.09,355.318 1534.43,361.724 1535.78,367.826 1537.12,373.663 
  1538.46,379.265 1539.8,384.657 1541.14,389.86 1542.48,394.89 1543.82,399.764 1545.16,404.493 1546.5,409.09 1547.84,413.563 1549.18,417.923 1550.52,422.178 
  1551.86,426.334 1553.2,430.4 1554.54,434.382 1555.88,438.289 1557.22,442.129 1558.56,445.91 1559.9,449.643 1561.24,453.341 1562.58,457.02 1563.92,460.697 
  1565.26,464.394 1566.6,468.135 1567.94,471.949 1569.28,475.868 1570.62,479.926 1571.97,484.159 1573.31,488.605 1574.65,493.303 1575.99,498.289 1577.33,503.601 
  1578.67,509.274 1580.01,515.341 1581.35,521.838 1582.69,528.795 1584.03,536.248 1585.37,544.228 1586.71,552.769 1588.05,561.905 1589.39,571.667 1590.73,582.089 
  1592.07,505.441 1593.41,490.432 1594.75,483.097 1596.09,479.485 1597.43,478.012 1598.77,477.819 1600.11,478.393 1601.45,479.423 1602.79,480.724 1604.13,482.187 
  1605.47,483.751 1606.81,485.382 1608.16,487.063 1609.5,488.786 1610.84,490.551 1612.18,492.361 1613.52,494.22 1614.86,496.134 1616.2,498.112 1617.54,500.16 
  1618.88,502.287 1620.22,504.502 1621.56,506.814 1622.9,509.232 1624.24,511.766 1625.58,514.424 1626.92,517.216 1628.26,520.151 1629.6,523.239 1630.94,526.488 
  1632.28,529.907 1633.62,533.506 1634.96,537.292 1636.3,541.275 1637.64,545.462 1638.98,549.861 1640.32,554.481 1641.66,559.329 1643,564.411 1644.34,569.735 
  1645.69,575.308 1647.03,581.134 1648.37,587.22 1649.71,593.57 1651.05,600.19 1652.39,607.081 1653.73,614.249 1655.07,621.695 1656.41,629.421 1657.75,637.428 
  1659.09,645.718 1660.43,654.291 1661.77,663.146 1663.11,672.282 1664.45,681.699 1665.79,691.396 1667.13,701.369 1668.47,711.619 1669.81,722.141 1671.15,732.933 
  1672.49,679.176 1673.83,680.917 1675.17,682.545 1676.51,684.023 1677.85,685.333 1679.19,686.471 1680.53,687.44 1681.88,688.246 1683.22,688.9 1684.56,689.413 
  1685.9,689.797 1687.24,690.063 1688.58,690.223 1689.92,690.289 1691.26,690.269 1692.6,690.174 1693.94,690.013 1695.28,689.792 1696.62,689.518 1697.96,689.199 
  1699.3,688.84 1700.64,688.446 1701.98,688.021 1703.32,687.568 1704.66,687.093 1706,686.597 1707.34,686.084 1708.68,685.555 1710.02,685.014 1711.36,684.461 
  1712.7,683.898 1714.04,683.328 1715.38,682.75 1716.72,682.167 1718.07,681.578 1719.41,680.986 1720.75,680.391 1722.09,679.792 1723.43,679.192 1724.77,678.591 
  1726.11,677.988 1727.45,677.384 1728.79,676.78 1730.13,676.176 1731.47,675.572 1732.81,674.969 1734.15,674.366 1735.49,673.764 1736.83,673.162 1738.17,672.562 
  1739.51,671.963 1740.85,671.365 1742.19,670.769 1743.53,670.174 1744.87,669.581 1746.21,668.989 1747.55,668.398 1748.89,667.81 1750.23,667.223 1751.57,666.637 
  1752.91,637.534 1754.26,637.219 1755.6,636.68 1756.94,635.996 1758.28,635.209 1759.62,634.345 1760.96,633.42 1762.3,632.446 1763.64,631.433 1764.98,630.387 
  1766.32,629.315 1767.66,628.221 1769,627.11 1770.34,625.986 1771.68,624.851 1773.02,623.708 1774.36,622.56 1775.7,621.408 1777.04,620.256 1778.38,619.103 
  1779.72,617.952 1781.06,616.804 1782.4,615.66 1783.74,614.521 1785.08,613.387 1786.42,612.26 1787.76,611.14 1789.1,610.028 1790.44,608.924 1791.79,607.828 
  1793.13,606.741 1794.47,605.664 1795.81,604.596 1797.15,603.538 1798.49,602.489 1799.83,601.451 1801.17,600.423 1802.51,599.406 1803.85,598.399 1805.19,597.402 
  1806.53,596.417 1807.87,595.442 1809.21,594.477 1810.55,593.524 1811.89,592.581 1813.23,591.649 1814.57,590.728 1815.91,589.818 1817.25,588.919 1818.59,588.031 
  1819.93,587.153 1821.27,586.286 1822.61,585.43 1823.95,584.585 1825.29,583.75 1826.63,582.926 1827.98,582.112 1829.32,581.31 1830.66,580.517 1832,579.735 
  1833.34,584.192 1834.68,583.452 1836.02,582.379 1837.36,581.149 1838.7,579.847 1840.04,578.521 1841.38,577.198 1842.72,575.892 1844.06,574.613 1845.4,573.363 
  1846.74,572.145 1848.08,570.959 1849.42,569.804 1850.76,568.681 1852.1,567.588 1853.44,566.523 1854.78,565.487 1856.12,564.477 1857.46,563.493 1858.8,562.534 
  1860.14,561.599 1861.48,560.686 1862.82,559.796 1864.17,558.928 1865.51,558.08 1866.85,557.253 1868.19,556.446 1869.53,555.657 1870.87,554.888 1872.21,554.136 
  1873.55,553.402 1874.89,552.686 1876.23,551.986 1877.57,551.303 1878.91,550.635 1880.25,549.984 1881.59,549.348 1882.93,548.727 1884.27,548.121 1885.61,547.529 
  1886.95,546.951 1888.29,546.386 1889.63,545.835 1890.97,545.298 1892.31,544.773 1893.65,544.26 1894.99,543.759 1896.33,543.271 1897.67,542.794 1899.01,542.328 
  1900.35,541.873 1901.7,541.429 1903.04,540.995 1904.38,540.571 1905.72,540.157 1907.06,539.753 1908.4,539.357 1909.74,538.971 1911.08,538.593 1912.42,538.224 
  1913.76,511.6 1915.1,519.37 1916.44,526.415 1917.78,532.877 1919.12,538.862 1920.46,544.454 1921.8,549.717 1923.14,554.701 1924.48,559.443 1925.82,563.974 
  1927.16,568.315 1928.5,572.483 1929.84,576.49 1931.18,580.344 1932.52,584.052 1933.86,587.616 1935.2,591.039 1936.54,594.319 1937.89,597.457 1939.23,600.451 
  1940.57,603.298 1941.91,605.998 1943.25,608.55 1944.59,610.952 1945.93,613.205 1947.27,615.31 1948.61,617.27 1949.95,619.087 1951.29,620.765 1952.63,622.311 
  1953.97,623.73 1955.31,625.029 1956.65,626.215 1957.99,627.295 1959.33,628.278 1960.67,629.172 1962.01,629.983 1963.35,630.72 1964.69,631.389 1966.03,631.997 
  1967.37,632.551 1968.71,633.056 1970.05,633.517 1971.39,633.94 1972.73,634.329 1974.08,634.687 1975.42,635.019 1976.76,635.328 1978.1,635.616 1979.44,635.886 
  1980.78,636.14 1982.12,636.38 1983.46,636.609 1984.8,636.827 1986.14,637.036 1987.48,637.237 1988.82,637.431 1990.16,637.619 1991.5,637.803 1992.84,637.981 
  1994.18,567.895 1995.52,576.023 1996.86,583.498 1998.2,590.461 1999.54,597.044 2000.88,603.366 2002.22,609.545 2003.56,615.695 2004.9,621.946 2006.24,628.455 
  2007.58,635.427 2008.92,643.176 2010.27,652.231 2011.61,663.663 2012.95,680.323 2014.29,717.458 2015.63,705.186 2016.97,680.021 2018.31,667.969 2019.65,660.17 
  2020.99,654.484 2022.33,650.049 2023.67,646.437 2025.01,643.4 2026.35,640.785 2027.69,638.491 2029.03,636.447 2030.37,634.601 2031.71,632.917 2033.05,631.364 
  2034.39,629.921 2035.73,628.57 2037.07,627.297 2038.41,626.09 2039.75,624.941 2041.09,623.841 2042.43,622.783 2043.77,621.764 2045.11,620.777 2046.45,619.82 
  2047.8,618.889 2049.14,617.98 2050.48,617.093 2051.82,616.225 2053.16,615.374 2054.5,614.538 2055.84,613.716 2057.18,612.908 2058.52,612.112 2059.86,611.327 
  2061.2,610.552 2062.54,609.788 2063.88,609.033 2065.22,608.287 2066.56,607.549 2067.9,606.819 2069.24,606.097 2070.58,605.382 2071.92,604.674 2073.26,603.974 
  2074.6,606.424 2075.94,606.987 2077.28,607.048 2078.62,606.8 2079.96,606.342 2081.3,605.734 2082.64,605.016 2083.99,604.214 2085.33,603.347 2086.67,602.43 
  2088.01,601.472 2089.35,600.483 2090.69,599.469 2092.03,598.436 2093.37,597.388 2094.71,596.33 2096.05,595.264 2097.39,594.193 2098.73,593.121 2100.07,592.049 
  2101.41,590.978 2102.75,589.911 2104.09,588.849 2105.43,587.794 2106.77,586.745 2108.11,585.705 2109.45,584.674 2110.79,583.652 2112.13,582.64 2113.47,581.639 
  2114.81,580.649 2116.15,579.671 2117.49,578.704 2118.83,577.749 2120.18,576.807 2121.52,575.877 2122.86,574.959 2124.2,574.054 2125.54,573.162 2126.88,572.283 
  2128.22,571.416 2129.56,570.562 2130.9,569.721 2132.24,568.893 2133.58,568.078 2134.92,567.275 2136.26,566.485 2137.6,565.708 2138.94,564.943 2140.28,564.191 
  2141.62,563.451 2142.96,562.723 2144.3,562.007 2145.64,561.304 2146.98,560.612 2148.32,559.932 2149.66,559.264 2151,558.608 2152.34,557.962 2153.68,557.329 
  2155.02,586.581 2156.37,597.212 2157.71,614.086 2159.05,664.141 2160.39,624.352 2161.73,601.557 2163.07,588.703 2164.41,579.483 2165.75,572.155 2167.09,565.996 
  2168.43,560.638 2169.77,555.872 2171.11,551.57 2172.45,547.644 2173.79,544.038 2175.13,540.707 2176.47,537.62 2177.81,534.753 2179.15,532.084 2180.49,529.598 
  2181.83,527.281 2183.17,525.12 2184.51,523.105 2185.85,521.225 2187.19,519.472 2188.53,517.838 2189.87,516.314 2191.21,514.894 2192.55,513.571 2193.9,512.337 
  2195.24,511.187 2196.58,510.116 2197.92,509.116 2199.26,508.184 2200.6,507.313 2201.94,506.499 2203.28,505.737 2204.62,505.022 2205.96,504.351 2207.3,503.718 
  2208.64,503.121 2209.98,502.556 2211.32,502.018 2212.66,501.506 2214,501.015 2215.34,500.542 2216.68,500.087 2218.02,499.645 2219.36,499.215 2220.7,498.795 
  2222.04,498.383 2223.38,497.978 2224.72,497.58 2226.06,497.186 2227.4,496.796 2228.74,496.41 2230.09,496.027 2231.43,495.647 2232.77,495.27 2234.11,494.896 
  2235.45,585.407 2236.79,591.632 2238.13,601.508 2239.47,618.956 2240.81,694.315 2242.15,621.315 2243.49,600.52 2244.83,588.3 2246.17,579.469 2247.51,572.466 
  2248.85,566.612 2250.19,561.55 2251.53,557.075 2252.87,553.055 2254.21,549.402 2255.55,546.056 2256.89,542.97 2258.23,540.113 2259.57,537.457 2260.91,534.982 
  2262.25,532.672 2263.59,530.512 2264.93,528.49 2266.28,526.596 2267.62,524.821 2268.96,523.157 2270.3,521.596 2271.64,520.131 2272.98,518.756 2274.32,517.466 
  2275.66,516.254 2277,515.116 2278.34,514.047 2279.68,513.043 2281.02,512.098 2282.36,511.209 2283.7,510.372 2285.04,509.582 2286.38,508.837 2287.72,508.133 
  2289.06,507.466 2290.4,506.833 2291.74,506.231 2293.08,505.658 2294.42,505.11 2295.76,504.585 2297.1,504.08 2298.44,503.594 2299.78,503.123 2301.12,502.667 
  2302.46,502.223 2303.81,501.789 2305.15,501.365 2306.49,500.949 2307.83,500.539 2309.17,500.135 2310.51,499.736 2311.85,499.341 2313.19,498.949 2314.53,498.561 
  2315.87,580.417 2317.21,585.155 2318.55,591.903 2319.89,601.314 2321.23,615.83 2322.57,648.042 2323.91,643.009 2325.25,614.363 2326.59,600.616 2327.93,591.447 
  2329.27,584.522 2330.61,578.93 2331.95,574.218 2333.29,570.13 2334.63,566.509 2335.97,563.252 2337.31,560.285 2338.65,557.559 2340,555.035 2341.34,552.684 
  2342.68,550.484 2344.02,548.417 2345.36,546.469 2346.7,544.627 2348.04,542.883 2349.38,541.229 2350.72,539.656 2352.06,538.16 2353.4,536.735 2354.74,535.375 
  2356.08,534.079 2357.42,532.84 2358.76,531.657 2360.1,530.526 2361.44,529.444 2362.78,528.408 2364.12,527.417 2365.46,526.468 2366.8,525.559 2368.14,524.688 
  2369.48,523.853 2370.82,523.051 2372.16,522.283 2373.5,521.545 2374.84,520.835 2376.19,520.154 2377.53,519.499 2378.87,518.868 2380.21,518.26 2381.55,517.674 
  2382.89,517.109 2384.23,516.563 2385.57,516.034 2386.91,515.523 2388.25,515.027 2389.59,514.546 2390.93,514.079 2392.27,513.624 2393.61,513.18 2394.95,512.747 
  2396.29,519.83 2397.63,528.36 2398.97,536.168 2400.31,543.46 2401.65,550.427 2402.99,557.258 2404.33,564.152 2405.67,571.347 2407.01,579.175 2408.35,588.167 
  2409.69,599.349 2411.03,615.358 2412.38,648.958 2413.72,644.8 2415.06,617.295 2416.4,604.554 2417.74,596.325 2419.08,590.291 2420.42,585.546 2421.76,581.643 
  2423.1,578.329 2424.44,575.448 2425.78,572.898 2427.12,570.608 2428.46,568.525 2429.8,566.614 2431.14,564.845 2432.48,563.197 2433.82,561.651 2435.16,560.195 
  2436.5,558.816 2437.84,557.506 2439.18,556.257 2440.52,555.062 2441.86,553.917 2443.2,552.816 2444.54,551.755 2445.88,550.733 2447.22,549.744 2448.56,548.788 
  2449.91,547.862 2451.25,546.963 2452.59,546.091 2453.93,545.243 2455.27,544.419 2456.61,543.616 2457.95,542.835 2459.29,542.074 2460.63,541.332 2461.97,540.609 
  2463.31,539.903 2464.65,539.214 2465.99,538.541 2467.33,537.884 2468.67,537.242 2470.01,536.615 2471.35,536.002 2472.69,535.402 2474.03,534.816 2475.37,534.243 
  2476.71,585.065 2478.05,585.18 2479.39,583.903 2480.73,581.957 2482.07,579.741 2483.41,577.462 2484.75,575.227 2486.1,573.081 2487.44,571.045 2488.78,569.123 
  2490.12,567.309 2491.46,565.598 2492.8,563.98 2494.14,562.449 2495.48,560.994 2496.82,559.61 2498.16,558.29 2499.5,557.028 2500.84,555.818 2502.18,554.657 
  2503.52,553.539 2504.86,552.463 2506.2,551.424 2507.54,550.42 2508.88,549.449 2510.22,548.508 2511.56,547.595 2512.9,546.709 2514.24,545.849 2515.58,545.012 
  2516.92,544.199 2518.26,543.406 2519.6,542.635 2520.94,541.883 2522.29,541.151 2523.63,540.436 2524.97,539.739 2526.31,539.059 2527.65,538.394 2528.99,537.746 
  2530.33,537.113 2531.67,536.494 2533.01,535.889 2534.35,535.298 2535.69,534.72 2537.03,534.155 2538.37,533.602 2539.71,533.061 2541.05,532.532 2542.39,532.013 
  2543.73,531.506 2545.07,531.009 2546.41,530.522 2547.75,530.045 2549.09,529.578 2550.43,529.119 2551.77,528.67 2553.11,528.229 2554.45,527.796 2555.79,527.371 
  2557.13,579.989 2558.47,578.525 2559.82,575.625 2561.16,572.258 2562.5,568.871 2563.84,565.648 2565.18,562.649 2566.52,559.883 2567.86,557.336 2569.2,554.988 
  2570.54,552.817 2571.88,550.803 2573.22,548.928 2574.56,547.176 2575.9,545.534 2577.24,543.989 2578.58,542.532 2579.92,541.154 2581.26,539.847 2582.6,538.606 
  2583.94,537.424 2585.28,536.297 2586.62,535.22 2587.96,534.19 2589.3,533.203 2590.64,532.257 2591.98,531.347 2593.32,530.473 2594.66,529.632 2596.01,528.822 
  2597.35,528.041 2598.69,527.288 2600.03,526.56 2601.37,525.857 2602.71,525.177 2604.05,524.519 2605.39,523.882 2606.73,523.264 2608.07,522.665 2609.41,522.084 
  2610.75,521.519 2612.09,520.97 2613.43,520.436 2614.77,519.916 2616.11,519.41 2617.45,518.915 2618.79,518.433 2620.13,517.962 2621.47,517.501 2622.81,517.05 
  2624.15,516.608 2625.49,516.174 2626.83,515.749 2628.17,515.331 2629.51,514.92 2630.85,514.515 2632.2,514.116 2633.54,513.723 2634.88,513.335 2636.22,512.952 
  2637.56,695.688 2638.9,623.194 2640.24,601.193 2641.58,588.036 2642.92,578.829 2644.26,571.849 2645.6,566.286 2646.94,561.693 2648.28,557.801 2649.62,554.437 
  2650.96,551.482 2652.3,548.852 2653.64,546.487 2654.98,544.34 2656.32,542.376 2657.66,540.569 2659,538.896 2660.34,537.34 2661.68,535.886 2663.02,534.524 
  2664.36,533.242 2665.7,532.034 2667.04,530.891 2668.39,529.807 2669.73,528.778 2671.07,527.799 2672.41,526.866 2673.75,525.974 2675.09,525.122 2676.43,524.305 
  2677.77,523.522 2679.11,522.77 2680.45,522.047 2681.79,521.352 2683.13,520.681 2684.47,520.034 2685.81,519.409 2687.15,518.804 2688.49,518.219 2689.83,517.652 
  2691.17,517.101 2692.51,516.565 2693.85,516.045 2695.19,515.537 2696.53,515.042 2697.87,514.559 2699.21,514.087 2700.55,513.624 2701.89,513.17 2703.23,512.725 
  2704.57,512.288 2705.92,511.857 2707.26,511.433 2708.6,511.015 2709.94,510.602 2711.28,510.195 2712.62,509.791 2713.96,509.392 2715.3,508.996 2716.64,508.603 
  2717.98,532.663 2719.32,530.933 2720.66,528.995 2722,527.082 2723.34,525.278 2724.68,523.607 2726.02,522.07 2727.36,520.662 2728.7,519.369 2730.04,518.181 
  2731.38,517.087 2732.72,516.075 2734.06,515.136 2735.4,514.263 2736.74,513.446 2738.08,512.68 2739.42,511.958 2740.76,511.276 2742.11,510.628 2743.45,510.011 
  2744.79,509.421 2746.13,508.854 2747.47,508.308 2748.81,507.781 2750.15,507.269 2751.49,506.771 2752.83,506.285 2754.17,505.81 2755.51,505.343 2756.85,504.885 
  2758.19,504.433 2759.53,503.987 2760.87,503.546 2762.21,503.109 2763.55,502.676 2764.89,502.246 2766.23,501.819 2767.57,501.395 2768.91,500.972 2770.25,500.552 
  2771.59,500.133 2772.93,499.716 2774.27,499.301 2775.61,498.888 2776.95,498.476 2778.3,498.067 2779.64,497.659 2780.98,497.254 2782.32,496.85 2783.66,496.449 
  2785,496.05 2786.34,495.654 2787.68,495.261 2789.02,494.871 2790.36,494.484 2791.7,494.1 2793.04,493.719 2794.38,493.342 2795.72,492.969 
  "/>
</svg>
