<?xml version="1.0" encoding="utf-8"?>
<svg xmlns="http://www.w3.org/2000/svg" xmlns:xlink="http://www.w3.org/1999/xlink" width="800" height="400" viewBox="0 0 3200 1600">
<defs>
  <clipPath id="clip0100">
    <rect x="0" y="0" width="3200" height="1600"/>
  </clipPath>
</defs>
<polygon clip-path="url(#clip0100)" points="
0,1600 3200,1600 3200,0 0,0 
  " fill="#ffffff" fill-rule="evenodd" fill-opacity="1"/>
<defs>
  <clipPath id="clip0101">
    <rect x="640" y="0" width="2241" height="1600"/>
  </clipPath>
</defs>
<polygon clip-path="url(#clip0100)" points="
656.157,1275.5 2853.54,1275.5 2853.54,188.976 656.157,188.976 
  " fill="#ffffff" fill-rule="evenodd" fill-opacity="1"/>
<defs>
  <clipPath id="clip0102">
    <rect x="656" y="188" width="2198" height="1088"/>
  </clipPath>
</defs>
<polyline clip-path="url(#clip0102)" style="stroke:#000000; stroke-width:2; stroke-opacity:0.1; fill:none" points="
  716.906,1275.5 716.906,188.976 
  "/>
<polyline clip-path="url(#clip0102)" style="stroke:#000000; stroke-width:2; stroke-opacity:0.1; fill:none" points="
  1062.65,1275.5 1062.65,188.976 
  "/>
<polyline clip-path="url(#clip0102)" style="stroke:#000000; stroke-width:2; stroke-opacity:0.1; fill:none" points="
  1408.39,1275.5 1408.39,188.976 
  "/>
<polyline clip-path="url(#clip0102)" style="stroke:#000000; stroke-width:2; stroke-opacity:0.1; fill:none" points="
  1754.13,1275.5 1754.13,188.976 
  "/>
<polyline clip-path="url(#clip0102)" style="stroke:#000000; stroke-width:2; stroke-opacity:0.1; fill:none" points="
  2099.87,1275.5 2099.87,188.976 
  "/>
<polyline clip-path="url(#clip0102)" style="stroke:#000000; stroke-width:2; stroke-opacity:0.1; fill:none" points="
  2445.61,1275.5 2445.61,188.976 
  "/>
<polyline clip-path="url(#clip0102)" style="stroke:#000000; stroke-width:2; stroke-opacity:0.1; fill:none" points="
  2791.35,1275.5 2791.35,188.976 
  "/>
<polyline clip-path="url(#clip0102)" style="stroke:#000000; stroke-width:2; stroke-opacity:0.1; fill:none" points="
  656.157,1215.89 2853.54,1215.89 
  "/>
<polyline clip-path="url(#clip0102)" style="stroke:#000000; stroke-width:2; stroke-opacity:0.1; fill:none" points="
  656.157,1025.2 2853.54,1025.2 
  "/>
<polyline clip-path="url(#clip0102)" style="stroke:#000000; stroke-width:2; stroke-opacity:0.1; fill:none" points="
  656.157,834.518 2853.54,834.518 
  "/>
<polyline clip-path="url(#clip0102)" style="stroke:#000000; stroke-width:2; stroke-opacity:0.1; fill:none" points="
  656.157,643.835 2853.54,643.835 
  "/>
<polyline clip-path="url(#clip0102)" style="stroke:#000000; stroke-width:2; stroke-opacity:0.1; fill:none" points="
  656.157,453.152 2853.54,453.152 
  "/>
<polyline clip-path="url(#clip0102)" style="stroke:#000000; stroke-width:2; stroke-opacity:0.1; fill:none" points="
  656.157,262.468 2853.54,262.468 
  "/>
<polyline clip-path="url(#clip0100)" style="stroke:#000000; stroke-width:4; stroke-opacity:1; fill:none" points="
  656.157,1275.5 2853.54,1275.5 
  "/>
<polyline clip-path="url(#clip0100)" style="stroke:#000000; stroke-width:4; stroke-opacity:1; fill:none" points="
  656.157,1275.5 656.157,188.976 
  "/>
<polyline clip-path="url(#clip0100)" style="stroke:#000000; stroke-width:4; stroke-opacity:1; fill:none" points="
  716.906,1275.5 716.906,1259.21 
  "/>
<polyline clip-path="url(#clip0100)" style="stroke:#000000; stroke-width:4; stroke-opacity:1; fill:none" points="
  1062.65,1275.5 1062.65,1259.21 
  "/>
<polyline clip-path="url(#clip0100)" style="stroke:#000000; stroke-width:4; stroke-opacity:1; fill:none" points="
  1408.39,1275.5 1408.39,1259.21 
  "/>
<polyline clip-path="url(#clip0100)" style="stroke:#000000; stroke-width:4; stroke-opacity:1; fill:none" points="
  1754.13,1275.5 1754.13,1259.21 
  "/>
<polyline clip-path="url(#clip0100)" style="stroke:#000000; stroke-width:4; stroke-opacity:1; fill:none" points="
  2099.87,1275.5 2099.87,1259.21 
  "/>
<polyline clip-path="url(#clip0100)" style="stroke:#000000; stroke-width:4; stroke-opacity:1; fill:none" points="
  2445.61,1275.5 2445.61,1259.21 
  "/>
<polyline clip-path="url(#clip0100)" style="stroke:#000000; stroke-width:4; stroke-opacity:1; fill:none" points="
  2791.35,1275.5 2791.35,1259.21 
  "/>
<polyline clip-path="url(#clip0100)" style="stroke:#000000; stroke-width:4; stroke-opacity:1; fill:none" points="
  656.157,1215.89 689.117,1215.89 
  "/>
<polyline clip-path="url(#clip0100)" style="stroke:#000000; stroke-width:4; stroke-opacity:1; fill:none" points="
  656.157,1025.2 689.117,1025.2 
  "/>
<polyline clip-path="url(#clip0100)" style="stroke:#000000; stroke-width:4; stroke-opacity:1; fill:none" points="
  656.157,834.518 689.117,834.518 
  "/>
<polyline clip-path="url(#clip0100)" style="stroke:#000000; stroke-width:4; stroke-opacity:1; fill:none" points="
  656.157,643.835 689.117,643.835 
  "/>
<polyline clip-path="url(#clip0100)" style="stroke:#000000; stroke-width:4; stroke-opacity:1; fill:none" points="
  656.157,453.152 689.117,453.152 
  "/>
<polyline clip-path="url(#clip0100)" style="stroke:#000000; stroke-width:4; stroke-opacity:1; fill:none" points="
  656.157,262.468 689.117,262.468 
  "/>
<g clip-path="url(#clip0100)">
<text style="fill:#000000; fill-opacity:1; font-family:Arial,Helvetica Neue,Helvetica,sans-serif; font-size:71px; text-anchor:middle;" transform="rotate(0, 716.906, 1353.9)" x="716.906" y="1353.9">0</text>
</g>
<g clip-path="url(#clip0100)">
<text style="fill:#000000; fill-opacity:1; font-family:Arial,Helvetica Neue,Helvetica,sans-serif; font-size:71px; text-anchor:middle;" transform="rotate(0, 1062.65, 1353.9)" x="1062.65" y="1353.9">4</text>
</g>
<g clip-path="url(#clip0100)">
<text style="fill:#000000; fill-opacity:1; font-family:Arial,Helvetica Neue,Helvetica,sans-serif; font-size:71px; text-anchor:middle;" transform="rotate(0, 1408.39, 1353.9)" x="1408.39" y="1353.9">8</text>
</g>
<g clip-path="url(#clip0100)">
<text style="fill:#000000; fill-opacity:1; font-family:Arial,Helvetica Neue,Helvetica,sans-serif; font-size:71px; text-anchor:middle;" transform="rotate(0, 1754.13, 1353.9)" x="1754.13" y="1353.9">12</text>
</g>
<g clip-path="url(#clip0100)">
<text style="fill:#000000; fill-opacity:1; font-family:Arial,Helvetica Neue,Helvetica,sans-serif; font-size:71px; text-anchor:middle;" transform="rotate(0, 2099.87, 1353.9)" x="2099.87" y="1353.9">16</text>
</g>
<g clip-path="url(#clip0100)">
<text style="fill:#000000; fill-opacity:1; font-family:Arial,Helvetica Neue,Helvetica,sans-serif; font-size:71px; text-anchor:middle;" transform="rotate(0, 2445.61, 1353.9)" x="2445.61" y="1353.9">20</text>
</g>
<g clip-path="url(#clip0100)">
<text style="fill:#000000; fill-opacity:1; font-family:Arial,Helvetica Neue,Helvetica,sans-serif; font-size:71px; text-anchor:middle;" transform="rotate(0, 2791.35, 1353.9)" x="2791.35" y="1353.9">24</text>
</g>
<g clip-path="url(#clip0100)">
<text style="fill:#000000; fill-opacity:1; font-family:Arial,Helvetica Neue,Helvetica,sans-serif; font-size:71px; text-anchor:end;" transform="rotate(0, 624.157, 1241.89)" x="624.157" y="1241.89">-0.2</text>
</g>
<g clip-path="url(#clip0100)">
<text style="fill:#000000; fill-opacity:1; font-family:Arial,Helvetica Neue,Helvetica,sans-serif; font-size:71px; text-anchor:end;" transform="rotate(0, 624.157, 1051.2)" x="624.157" y="1051.2">-0.1</text>
</g>
<g clip-path="url(#clip0100)">
<text style="fill:#000000; fill-opacity:1; font-family:Arial,Helvetica Neue,Helvetica,sans-serif; font-size:71px; text-anchor:end;" transform="rotate(0, 624.157, 860.518)" x="624.157" y="860.518">0.0</text>
</g>
<g clip-path="url(#clip0100)">
<text style="fill:#000000; fill-opacity:1; font-family:Arial,Helvetica Neue,Helvetica,sans-serif; font-size:71px; text-anchor:end;" transform="rotate(0, 624.157, 669.835)" x="624.157" y="669.835">0.1</text>
</g>
<g clip-path="url(#clip0100)">
<text style="fill:#000000; fill-opacity:1; font-family:Arial,Helvetica Neue,Helvetica,sans-serif; font-size:71px; text-anchor:end;" transform="rotate(0, 624.157, 479.152)" x="624.157" y="479.152">0.2</text>
</g>
<g clip-path="url(#clip0100)">
<text style="fill:#000000; fill-opacity:1; font-family:Arial,Helvetica Neue,Helvetica,sans-serif; font-size:71px; text-anchor:end;" transform="rotate(0, 624.157, 288.468)" x="624.157" y="288.468">0.3</text>
</g>
<g clip-path="url(#clip0100)">
<text style="fill:#000000; fill-opacity:1; font-family:Arial,Helvetica Neue,Helvetica,sans-serif; font-size:95px; text-anchor:middle;" transform="rotate(0, 1754.85, 1469.75)" x="1754.85" y="1469.75">Time (hours)</text>
</g>
<g clip-path="url(#clip0100)">
<text style="fill:#000000; fill-opacity:1; font-family:Arial,Helvetica Neue,Helvetica,sans-serif; font-size:95px; text-anchor:middle;" transform="rotate(-90, 325.073, 732.24)" x="325.073" y="732.24">Probability of Wait</text>
</g>
<g clip-path="url(#clip0100)">
<text style="fill:#000000; fill-opacity:1; font-family:Arial,Helvetica Neue,Helvetica,sans-serif; font-size:95px; text-anchor:middle;" transform="rotate(-90, 428.753, 732.24)" x="428.753" y="732.24"> Absolute Error: (PSA-NS)</text>
</g>
<polyline clip-path="url(#clip0102)" style="stroke:#009af9; stroke-width:4; stroke-opacity:1; fill:none" points="
  718.347,834.518 719.787,834.518 721.228,834.518 722.669,834.518 724.109,834.518 725.55,834.518 726.99,834.518 728.431,834.518 729.872,834.518 731.312,834.518 
  732.753,834.518 734.193,834.518 735.634,834.518 737.074,834.518 738.515,834.518 739.956,834.518 741.396,834.518 742.837,834.518 744.277,834.518 745.718,834.518 
  747.159,834.518 748.599,834.518 750.04,834.518 751.48,834.518 752.921,834.518 754.362,834.518 755.802,834.518 757.243,834.518 758.683,834.518 760.124,834.518 
  761.564,834.518 763.005,834.518 764.446,834.518 765.886,834.518 767.327,834.518 768.767,834.518 770.208,834.518 771.649,834.518 773.089,834.518 774.53,834.518 
  775.97,834.518 777.411,834.518 778.852,834.518 780.292,834.518 781.733,834.518 783.173,834.518 784.614,834.518 786.054,834.518 787.495,834.518 788.936,834.518 
  790.376,834.518 791.817,834.518 793.257,834.518 794.698,834.518 796.139,834.518 797.579,834.518 799.02,834.518 800.46,834.518 801.901,834.518 803.342,834.518 
  804.782,834.518 806.223,834.531 807.663,834.533 809.104,834.534 810.544,834.537 811.985,834.539 813.426,834.542 814.866,834.544 816.307,834.548 817.747,834.551 
  819.188,834.555 820.629,834.559 822.069,834.564 823.51,834.569 824.95,834.574 826.391,834.58 827.832,834.587 829.272,834.594 830.713,834.603 832.153,834.612 
  833.594,834.622 835.034,834.634 836.475,834.646 837.916,834.661 839.356,834.677 840.797,834.695 842.237,834.715 843.678,834.738 845.119,834.764 846.559,834.793 
  848,834.826 849.44,834.862 850.881,834.904 852.322,834.95 853.762,835.002 855.203,835.06 856.643,835.125 858.084,835.199 859.524,835.281 860.965,835.373 
  862.406,835.476 863.846,835.591 865.287,835.721 866.727,835.865 868.168,836.026 869.609,836.206 871.049,836.407 872.49,836.631 873.93,836.88 875.371,837.158 
  876.812,837.467 878.252,837.811 879.693,838.194 881.133,838.618 882.574,839.089 884.014,839.611 885.455,840.19 886.896,840.831 888.336,841.539 889.777,842.322 
  891.217,843.186 892.658,839.309 894.099,839.435 895.539,839.533 896.98,839.618 898.42,839.698 899.861,839.779 901.302,839.864 902.742,839.955 904.183,840.055 
  905.623,840.165 907.064,840.285 908.504,840.416 909.945,840.559 911.386,840.714 912.826,840.882 914.267,841.061 915.707,841.253 917.148,841.457 918.589,841.674 
  920.029,841.904 921.47,842.146 922.91,842.401 924.351,842.669 925.792,842.95 927.232,843.244 928.673,843.552 930.113,843.873 931.554,844.207 932.994,844.556 
  934.435,844.918 935.876,845.295 937.316,845.686 938.757,846.092 940.197,846.513 941.638,846.949 943.079,847.401 944.519,847.869 945.96,848.353 947.4,848.854 
  948.841,849.371 950.282,849.905 951.722,850.457 953.163,851.027 954.603,851.615 956.044,852.221 957.484,852.847 958.925,853.492 960.366,854.156 961.806,854.84 
  963.247,855.545 964.687,856.27 966.128,857.016 967.569,857.784 969.009,858.573 970.45,859.384 971.89,860.218 973.331,861.074 974.772,861.953 976.212,862.855 
  977.653,863.781 979.093,825.192 980.534,827.75 981.974,829.693 983.415,831.234 984.856,832.484 986.296,833.516 987.737,834.383 989.177,835.124 990.618,835.767 
  992.059,836.331 993.499,836.832 994.94,837.283 996.38,837.694 997.821,838.07 999.262,838.419 1000.7,838.745 1002.14,839.052 1003.58,839.343 1005.02,839.621 
  1006.46,839.888 1007.91,840.147 1009.35,840.398 1010.79,840.643 1012.23,840.884 1013.67,841.121 1015.11,841.356 1016.55,841.589 1017.99,841.821 1019.43,842.053 
  1020.87,842.285 1022.31,842.519 1023.75,842.753 1025.19,842.989 1026.63,843.228 1028.07,843.469 1029.51,843.713 1030.95,843.96 1032.4,844.21 1033.84,844.464 
  1035.28,844.723 1036.72,844.985 1038.16,845.252 1039.6,845.524 1041.04,845.801 1042.48,846.082 1043.92,846.369 1045.36,846.661 1046.8,846.959 1048.24,847.263 
  1049.68,847.572 1051.12,847.887 1052.56,848.209 1054,848.537 1055.44,848.871 1056.89,849.212 1058.33,849.559 1059.77,849.913 1061.21,850.275 1062.65,850.643 
  1064.09,851.018 1065.53,1028.85 1066.97,998.679 1068.41,971.881 1069.85,948.257 1071.29,927.565 1072.73,909.546 1074.17,893.935 1075.61,880.474 1077.05,868.914 
  1078.49,859.026 1079.93,850.599 1081.38,843.442 1082.82,837.385 1084.26,832.278 1085.7,827.989 1087.14,824.402 1088.58,821.417 1090.02,818.947 1091.46,816.917 
  1092.9,815.262 1094.34,813.927 1095.78,812.864 1097.22,812.032 1098.66,811.397 1100.1,810.929 1101.54,810.602 1102.98,810.394 1104.42,810.287 1105.87,810.265 
  1107.31,810.315 1108.75,810.425 1110.19,810.585 1111.63,810.788 1113.07,811.025 1114.51,811.291 1115.95,811.582 1117.39,811.891 1118.83,812.216 1120.27,812.554 
  1121.71,812.901 1123.15,813.256 1124.59,813.616 1126.03,813.98 1127.47,814.346 1128.91,814.714 1130.36,815.082 1131.8,815.449 1133.24,815.814 1134.68,816.178 
  1136.12,816.539 1137.56,816.897 1139,817.251 1140.44,817.602 1141.88,817.949 1143.32,818.291 1144.76,818.629 1146.2,818.963 1147.64,819.292 1149.08,819.616 
  1150.52,819.935 1151.96,748.901 1153.4,748.967 1154.85,751.739 1156.29,756.2 1157.73,761.779 1159.17,768.034 1160.61,774.601 1162.05,781.191 1163.49,787.581 
  1164.93,793.616 1166.37,799.194 1167.81,804.259 1169.25,808.79 1170.69,812.79 1172.13,816.282 1173.57,819.301 1175.01,821.887 1176.45,824.085 1177.89,825.94 
  1179.34,827.495 1180.78,828.79 1182.22,829.864 1183.66,830.75 1185.1,831.477 1186.54,832.071 1187.98,832.554 1189.42,832.947 1190.86,833.264 1192.3,833.519 
  1193.74,833.724 1195.18,833.889 1196.62,834.02 1198.06,834.125 1199.5,834.208 1200.94,834.274 1202.38,834.326 1203.83,834.368 1205.27,834.4 1206.71,834.426 
  1208.15,834.446 1209.59,834.462 1211.03,834.474 1212.47,834.484 1213.91,834.492 1215.35,834.498 1216.79,834.502 1218.23,834.506 1219.67,834.509 1221.11,834.511 
  1222.55,834.513 1223.99,834.514 1225.43,834.515 1226.87,834.516 1228.32,834.516 1229.76,834.517 1231.2,834.517 1232.64,834.517 1234.08,834.518 1235.52,834.518 
  1236.96,834.518 1238.4,1244.75 1239.84,1060.33 1241.28,962.486 1242.72,909.289 1244.16,878.311 1245.6,858.214 1247.04,843.274 1248.48,830.531 1249.92,818.398 
  1251.36,805.991 1252.81,792.815 1254.25,778.594 1255.69,763.199 1257.13,746.601 1258.57,728.844 1260.01,710.036 1261.45,690.338 1262.89,669.957 1264.33,649.144 
  1265.77,628.186 1267.21,607.405 1268.65,587.146 1270.09,567.779 1271.53,549.679 1272.97,533.224 1274.41,518.78 1275.85,506.685 1277.3,497.242 1278.74,490.698 
  1280.18,487.236 1281.62,486.964 1283.06,489.907 1284.5,496.002 1285.94,505.099 1287.38,516.967 1288.82,531.299 1290.26,547.732 1291.7,565.853 1293.14,585.227 
  1294.58,605.406 1296.02,625.954 1297.46,646.461 1298.9,666.554 1300.34,685.911 1301.79,704.267 1303.23,721.416 1304.67,737.211 1306.11,751.566 1307.55,764.443 
  1308.99,775.852 1310.43,785.839 1311.87,794.48 1313.31,801.872 1314.75,808.128 1316.19,813.364 1317.63,817.703 1319.07,821.262 1320.51,824.151 1321.95,826.476 
  1323.39,828.328 1324.83,834.519 1326.28,834.518 1327.72,834.518 1329.16,834.518 1330.6,834.518 1332.04,834.518 1333.48,834.518 1334.92,834.518 1336.36,834.518 
  1337.8,834.518 1339.24,834.518 1340.68,834.518 1342.12,834.518 1343.56,834.518 1345,834.518 1346.44,834.518 1347.88,834.518 1349.32,834.517 1350.77,834.517 
  1352.21,834.516 1353.65,834.514 1355.09,834.512 1356.53,834.509 1357.97,834.504 1359.41,834.497 1360.85,834.487 1362.29,834.473 1363.73,834.452 1365.17,834.424 
  1366.61,834.385 1368.05,834.332 1369.49,834.26 1370.93,834.164 1372.37,834.037 1373.81,833.872 1375.26,833.656 1376.7,833.38 1378.14,833.029 1379.58,832.586 
  1381.02,832.032 1382.46,831.346 1383.9,830.504 1385.34,829.479 1386.78,828.241 1388.22,826.758 1389.66,824.996 1391.1,822.918 1392.54,820.488 1393.98,817.665 
  1395.42,814.413 1396.86,810.691 1398.3,806.464 1399.75,801.696 1401.19,796.356 1402.63,790.418 1404.07,783.858 1405.51,776.662 1406.95,768.821 1408.39,760.337 
  1409.83,751.218 1411.27,834.518 1412.71,834.518 1414.15,834.518 1415.59,834.518 1417.03,834.518 1418.47,834.518 1419.91,834.518 1421.35,834.518 1422.79,834.518 
  1424.24,834.518 1425.68,834.518 1427.12,834.518 1428.56,834.518 1430,834.518 1431.44,834.518 1432.88,834.518 1434.32,834.517 1435.76,834.514 1437.2,834.508 
  1438.64,834.493 1440.08,834.46 1441.52,834.39 1442.96,834.249 1444.4,833.976 1445.84,833.471 1447.28,832.57 1448.73,831.029 1450.17,828.491 1451.61,824.47 
  1453.05,818.331 1454.49,809.291 1455.93,796.449 1457.37,778.838 1458.81,755.514 1460.25,725.676 1461.69,688.813 1463.13,644.85 1464.57,594.289 1466.01,538.315 
  1467.45,478.844 1468.89,418.484 1470.33,360.416 1471.77,308.164 1473.22,265.281 1474.66,234.978 1476.1,219.727 1477.54,220.927 1478.98,238.671 1480.42,271.695 
  1481.86,317.514 1483.3,372.735 1484.74,433.494 1486.18,495.919 1487.62,556.55 1489.06,612.639 1490.5,662.305 1491.94,704.546 1493.38,739.138 1494.82,766.463 
  1496.26,787.311 1497.71,805.94 1499.15,784.991 1500.59,765.259 1502.03,745.937 1503.47,726.565 1504.91,706.866 1506.35,686.689 1507.79,665.982 1509.23,644.787 
  1510.67,623.228 1512.11,601.505 1513.55,579.885 1514.99,558.69 1516.43,538.284 1517.87,519.063 1519.31,501.436 1520.75,485.814 1522.2,472.589 1523.64,462.12 
  1525.08,454.716 1526.52,450.62 1527.96,449.994 1529.4,452.911 1530.84,459.346 1532.28,469.174 1533.72,482.173 1535.16,498.03 1536.6,516.356 1538.04,536.699 
  1539.48,558.567 1540.92,581.445 1542.36,604.823 1543.8,628.21 1545.24,651.156 1546.69,673.265 1548.13,694.208 1549.57,713.726 1551.01,731.637 1552.45,747.827 
  1553.89,762.249 1555.33,774.917 1556.77,785.89 1558.21,795.268 1559.65,803.176 1561.09,809.758 1562.53,815.167 1563.97,819.555 1565.41,823.071 1566.85,825.853 
  1568.29,828.028 1569.73,829.708 1571.17,830.991 1572.62,831.958 1574.06,832.679 1575.5,833.211 1576.94,833.598 1578.38,833.877 1579.82,834.076 1581.26,834.217 
  1582.7,834.314 1584.14,835.951 1585.58,835.863 1587.02,835.786 1588.46,835.72 1589.9,835.664 1591.34,835.617 1592.78,835.579 1594.22,835.549 1595.66,835.525 
  1597.11,835.506 1598.55,835.492 1599.99,835.483 1601.43,835.477 1602.87,835.475 1604.31,835.476 1605.75,835.479 1607.19,835.484 1608.63,835.492 1610.07,835.502 
  1611.51,835.513 1612.95,835.526 1614.39,835.54 1615.83,835.556 1617.27,835.573 1618.71,835.592 1620.15,835.611 1621.6,835.632 1623.04,835.653 1624.48,835.675 
  1625.92,835.699 1627.36,835.723 1628.8,835.748 1630.24,835.774 1631.68,835.801 1633.12,835.828 1634.56,835.857 1636,835.886 1637.44,835.915 1638.88,835.946 
  1640.32,835.977 1641.76,836.01 1643.2,836.042 1644.64,836.076 1646.09,836.11 1647.53,836.145 1648.97,836.181 1650.41,836.218 1651.85,836.255 1653.29,836.293 
  1654.73,836.332 1656.17,836.372 1657.61,836.412 1659.05,836.453 1660.49,836.495 1661.93,836.538 1663.37,836.581 1664.81,836.626 1666.25,836.671 1667.69,836.717 
  1669.13,836.763 1670.58,840.983 1672.02,841.054 1673.46,841.181 1674.9,841.345 1676.34,841.54 1677.78,841.76 1679.22,842.004 1680.66,842.27 1682.1,842.556 
  1683.54,842.863 1684.98,843.189 1686.42,843.535 1687.86,843.9 1689.3,844.285 1690.74,844.689 1692.18,845.113 1693.62,845.556 1695.07,846.019 1696.51,846.501 
  1697.95,847.003 1699.39,847.524 1700.83,848.066 1702.27,848.628 1703.71,849.209 1705.15,849.811 1706.59,850.433 1708.03,851.076 1709.47,851.739 1710.91,852.422 
  1712.35,853.125 1713.79,853.85 1715.23,854.594 1716.67,855.359 1718.11,856.144 1719.56,856.949 1721,857.774 1722.44,858.619 1723.88,859.484 1725.32,860.368 
  1726.76,861.272 1728.2,862.194 1729.64,863.135 1731.08,864.094 1732.52,865.071 1733.96,866.065 1735.4,867.076 1736.84,868.104 1738.28,869.147 1739.72,870.206 
  1741.16,871.279 1742.6,872.366 1744.05,873.466 1745.49,874.579 1746.93,875.703 1748.37,876.838 1749.81,877.983 1751.25,879.137 1752.69,880.299 1754.13,881.468 
  1755.57,882.643 1757.01,877.3 1758.45,878.305 1759.89,879.885 1761.33,881.791 1762.77,883.901 1764.21,886.143 1765.65,888.473 1767.09,890.862 1768.54,893.292 
  1769.98,895.747 1771.42,898.217 1772.86,900.696 1774.3,903.176 1775.74,905.652 1777.18,908.119 1778.62,910.573 1780.06,913.008 1781.5,915.422 1782.94,917.809 
  1784.38,920.166 1785.82,922.488 1787.26,924.771 1788.7,927.011 1790.14,929.204 1791.58,931.345 1793.03,933.43 1794.47,935.456 1795.91,937.417 1797.35,939.311 
  1798.79,941.132 1800.23,942.878 1801.67,944.545 1803.11,946.129 1804.55,947.627 1805.99,949.036 1807.43,950.353 1808.87,951.575 1810.31,952.699 1811.75,953.725 
  1813.19,954.649 1814.63,955.47 1816.07,956.187 1817.52,956.799 1818.96,957.305 1820.4,957.704 1821.84,957.996 1823.28,958.182 1824.72,958.261 1826.16,958.235 
  1827.6,958.104 1829.04,957.869 1830.48,957.533 1831.92,957.096 1833.36,956.562 1834.8,955.931 1836.24,955.206 1837.68,954.391 1839.12,953.487 1840.56,952.498 
  1842.01,951.427 1843.45,409.159 1844.89,492.686 1846.33,557.199 1847.77,607.363 1849.21,646.747 1850.65,677.993 1852.09,703.039 1853.53,723.311 1854.97,739.862 
  1856.41,753.482 1857.85,764.767 1859.29,774.173 1860.73,782.055 1862.17,788.69 1863.61,794.298 1865.05,799.054 1866.5,803.099 1867.94,806.55 1869.38,809.5 
  1870.82,812.027 1872.26,814.196 1873.7,816.06 1875.14,817.666 1876.58,819.05 1878.02,820.246 1879.46,821.279 1880.9,822.174 1882.34,822.949 1883.78,823.622 
  1885.22,824.207 1886.66,824.716 1888.1,825.159 1889.54,825.546 1890.99,825.884 1892.43,826.181 1893.87,826.441 1895.31,826.67 1896.75,826.872 1898.19,827.05 
  1899.63,827.209 1901.07,827.35 1902.51,827.476 1903.95,827.588 1905.39,827.69 1906.83,827.782 1908.27,827.865 1909.71,827.941 1911.15,828.011 1912.59,828.075 
  1914.03,828.134 1915.48,828.189 1916.92,828.241 1918.36,828.29 1919.8,828.335 1921.24,828.379 1922.68,828.42 1924.12,828.46 1925.56,828.498 1927,828.535 
  1928.44,828.571 1929.88,757.307 1931.32,776.427 1932.76,789.907 1934.2,799.689 1935.64,806.986 1937.08,812.569 1938.52,816.939 1939.97,820.432 1941.41,823.276 
  1942.85,825.632 1944.29,827.613 1945.73,829.302 1947.17,830.76 1948.61,832.035 1950.05,833.161 1951.49,834.165 1952.93,835.07 1954.37,835.891 1955.81,836.643 
  1957.25,837.336 1958.69,837.981 1960.13,838.584 1961.57,839.151 1963.01,839.689 1964.46,840.201 1965.9,840.692 1967.34,841.164 1968.78,841.62 1970.22,842.064 
  1971.66,842.497 1973.1,842.92 1974.54,843.337 1975.98,843.748 1977.42,844.155 1978.86,844.558 1980.3,844.96 1981.74,845.36 1983.18,845.76 1984.62,846.16 
  1986.06,846.562 1987.5,846.965 1988.95,847.371 1990.39,847.779 1991.83,848.191 1993.27,848.606 1994.71,849.026 1996.15,849.449 1997.59,849.877 1999.03,850.31 
  2000.47,850.748 2001.91,851.192 2003.35,851.64 2004.79,852.094 2006.23,852.554 2007.67,853.019 2009.11,853.491 2010.55,853.968 2011.99,854.451 2013.44,854.94 
  2014.88,855.434 2016.32,854.396 2017.76,853.967 2019.2,853.899 2020.64,854.051 2022.08,854.354 2023.52,854.772 2024.96,855.28 2026.4,855.866 2027.84,856.518 
  2029.28,857.231 2030.72,858 2032.16,858.822 2033.6,859.694 2035.04,860.613 2036.48,861.578 2037.93,862.588 2039.37,863.641 2040.81,864.736 2042.25,865.872 
  2043.69,867.047 2045.13,868.261 2046.57,869.513 2048.01,870.8 2049.45,872.123 2050.89,873.48 2052.33,874.869 2053.77,876.289 2055.21,877.74 2056.65,879.218 
  2058.09,880.723 2059.53,882.254 2060.97,883.808 2062.42,885.384 2063.86,886.98 2065.3,888.594 2066.74,890.224 2068.18,891.868 2069.62,893.524 2071.06,895.19 
  2072.5,896.864 2073.94,898.542 2075.38,900.224 2076.82,901.907 2078.26,903.587 2079.7,905.264 2081.14,906.933 2082.58,908.593 2084.02,910.241 2085.46,911.875 
  2086.91,913.491 2088.35,915.088 2089.79,916.662 2091.23,918.212 2092.67,919.734 2094.11,921.226 2095.55,922.685 2096.99,924.109 2098.43,925.497 2099.87,926.844 
  2101.31,928.149 2102.75,795.145 2104.19,807.685 2105.63,819.949 2107.07,832.146 2108.51,844.554 2109.95,857.421 2111.4,870.936 2112.84,885.238 2114.28,900.415 
  2115.72,916.51 2117.16,933.518 2118.6,951.391 2120.04,970.036 2121.48,989.322 2122.92,1009.08 2124.36,1029.09 2125.8,1049.13 2127.24,1068.93 2128.68,1088.21 
  2130.12,1106.68 2131.56,1124.04 2133,1140 2134.44,1154.3 2135.89,1166.69 2137.33,1176.95 2138.77,1184.92 2140.21,1190.46 2141.65,1193.5 2143.09,1194.02 
  2144.53,1192.03 2145.97,1187.62 2147.41,1180.91 2148.85,1172.08 2150.29,1161.31 2151.73,1148.84 2153.17,1134.93 2154.61,1119.85 2156.05,1103.86 2157.49,1087.23 
  2158.93,1070.23 2160.38,1053.09 2161.82,1036.04 2163.26,1019.28 2164.7,1002.98 2166.14,987.282 2167.58,972.313 2169.02,958.159 2170.46,944.886 2171.9,932.535 
  2173.34,921.126 2174.78,910.662 2176.22,901.128 2177.66,892.499 2179.1,884.737 2180.54,877.798 2181.98,871.632 2183.42,866.184 2184.87,861.399 2186.31,857.22 
  2187.75,853.591 2189.19,793.675 2190.63,801.94 2192.07,811.753 2193.51,822.432 2194.95,833.733 2196.39,845.586 2197.83,857.991 2199.27,870.972 2200.71,884.548 
  2202.15,898.728 2203.59,913.499 2205.03,928.827 2206.47,944.654 2207.91,960.896 2209.36,977.45 2210.8,994.189 2212.24,1010.97 2213.68,1027.62 2215.12,1043.98 
  2216.56,1059.86 2218,1075.07 2219.44,1089.42 2220.88,1102.73 2222.32,1114.83 2223.76,1125.56 2225.2,1134.78 2226.64,1142.36 2228.08,1148.23 2229.52,1152.3 
  2230.96,1154.55 2232.4,1154.96 2233.85,1153.57 2235.29,1150.41 2236.73,1145.59 2238.17,1139.19 2239.61,1131.34 2241.05,1122.18 2242.49,1111.88 2243.93,1100.6 
  2245.37,1088.51 2246.81,1075.78 2248.25,1062.59 2249.69,1049.1 2251.13,1035.46 2252.57,1021.83 2254.01,1008.34 2255.45,995.105 2256.89,982.225 2258.34,969.792 
  2259.78,957.876 2261.22,946.535 2262.66,935.812 2264.1,925.734 2265.54,916.321 2266.98,907.578 2268.42,899.502 2269.86,892.081 2271.3,885.299 2272.74,879.131 
  2274.18,873.549 2275.62,786.014 2277.06,793.658 2278.5,802.507 2279.94,811.751 2281.38,821.067 2282.83,830.337 2284.27,839.533 2285.71,848.666 2287.15,857.764 
  2288.59,866.852 2290.03,875.956 2291.47,885.091 2292.91,894.267 2294.35,903.486 2295.79,912.744 2297.23,922.027 2298.67,931.319 2300.11,940.595 2301.55,949.826 
  2302.99,958.981 2304.43,968.023 2305.87,976.913 2307.32,985.609 2308.76,994.07 2310.2,1002.25 2311.64,1010.11 2313.08,1017.59 2314.52,1024.67 2315.96,1031.3 
  2317.4,1037.43 2318.84,1043.04 2320.28,1048.09 2321.72,1052.55 2323.16,1056.4 2324.6,1059.62 2326.04,1062.18 2327.48,1064.09 2328.92,1065.33 2330.36,1065.91 
  2331.81,1065.82 2333.25,1065.09 2334.69,1063.72 2336.13,1061.74 2337.57,1059.16 2339.01,1056.03 2340.45,1052.36 2341.89,1048.2 2343.33,1043.58 2344.77,1038.54 
  2346.21,1033.13 2347.65,1027.38 2349.09,1021.34 2350.53,1015.06 2351.97,1008.56 2353.41,1001.91 2354.85,995.136 2356.3,988.279 2357.74,981.379 2359.18,974.472 
  2360.62,967.591 2362.06,475.593 2363.5,557.373 2364.94,618.223 2366.38,664.284 2367.82,699.898 2369.26,728.05 2370.7,750.799 2372.14,769.572 2373.58,785.373 
  2375.02,798.919 2376.46,810.731 2377.9,821.188 2379.34,830.574 2380.79,839.104 2382.23,846.938 2383.67,854.204 2385.11,860.999 2386.55,867.398 2387.99,873.461 
  2389.43,879.237 2390.87,884.764 2392.31,890.071 2393.75,895.183 2395.19,900.12 2396.63,904.898 2398.07,909.528 2399.51,914.02 2400.95,918.381 2402.39,922.618 
  2403.83,926.734 2405.28,930.732 2406.72,934.613 2408.16,938.378 2409.6,942.026 2411.04,945.557 2412.48,948.969 2413.92,952.26 2415.36,955.427 2416.8,958.468 
  2418.24,961.379 2419.68,964.158 2421.12,966.8 2422.56,969.301 2424,971.66 2425.44,973.871 2426.88,975.932 2428.32,977.84 2429.77,979.59 2431.21,981.181 
  2432.65,982.61 2434.09,983.875 2435.53,984.973 2436.97,985.904 2438.41,986.665 2439.85,987.257 2441.29,987.678 2442.73,987.93 2444.17,988.012 2445.61,987.926 
  2447.05,987.673 2448.49,875.085 2449.93,874.684 2451.37,876.386 2452.81,879.248 2454.26,882.783 2455.7,886.711 2457.14,890.865 2458.58,895.137 2460.02,899.457 
  2461.46,903.781 2462.9,908.077 2464.34,912.325 2465.78,916.51 2467.22,920.622 2468.66,924.652 2470.1,928.595 2471.54,932.445 2472.98,936.198 2474.42,939.85 
  2475.86,943.397 2477.3,946.836 2478.75,950.162 2480.19,953.371 2481.63,956.46 2483.07,959.425 2484.51,962.26 2485.95,964.964 2487.39,967.53 2488.83,969.956 
  2490.27,972.236 2491.71,974.369 2493.15,976.349 2494.59,978.173 2496.03,979.838 2497.47,981.342 2498.91,982.681 2500.35,983.854 2501.79,984.859 2503.24,985.693 
  2504.68,986.357 2506.12,986.849 2507.56,987.17 2509,987.32 2510.44,987.3 2511.88,987.11 2513.32,986.754 2514.76,986.232 2516.2,985.549 2517.64,984.706 
  2519.08,983.708 2520.52,982.559 2521.96,981.264 2523.4,979.826 2524.84,978.251 2526.28,976.546 2527.73,974.715 2529.17,972.764 2530.61,970.701 2532.05,968.531 
  2533.49,966.262 2534.93,881.655 2536.37,883.815 2537.81,888.897 2539.25,895.553 2540.69,903.07 2542.13,911.04 2543.57,919.211 2545.01,927.421 2546.45,935.561 
  2547.89,943.555 2549.33,951.347 2550.77,958.897 2552.22,966.17 2553.66,973.142 2555.1,979.789 2556.54,986.092 2557.98,992.033 2559.42,997.598 2560.86,1002.77 
  2562.3,1007.55 2563.74,1011.91 2565.18,1015.85 2566.62,1019.36 2568.06,1022.44 2569.5,1025.08 2570.94,1027.27 2572.38,1029.03 2573.82,1030.34 2575.26,1031.22 
  2576.71,1031.66 2578.15,1031.68 2579.59,1031.28 2581.03,1030.47 2582.47,1029.27 2583.91,1027.68 2585.35,1025.73 2586.79,1023.42 2588.23,1020.79 2589.67,1017.84 
  2591.11,1014.59 2592.55,1011.08 2593.99,1007.31 2595.43,1003.31 2596.87,999.11 2598.31,994.722 2599.75,990.172 2601.2,985.484 2602.64,980.68 2604.08,975.781 
  2605.52,970.809 2606.96,965.784 2608.4,960.728 2609.84,955.658 2611.28,950.594 2612.72,945.553 2614.16,940.55 2615.6,935.602 2617.04,930.721 2618.48,925.922 
  2619.92,921.216 2621.36,835.197 2622.8,843.856 2624.24,855.142 2625.69,867.578 2627.13,880.425 2628.57,893.282 2630.01,905.924 2631.45,918.214 2632.89,930.07 
  2634.33,941.439 2635.77,952.285 2637.21,962.581 2638.65,972.308 2640.09,981.449 2641.53,989.992 2642.97,997.923 2644.41,1005.23 2645.85,1011.91 2647.29,1017.96 
  2648.73,1023.36 2650.18,1028.12 2651.62,1032.23 2653.06,1035.69 2654.5,1038.52 2655.94,1040.71 2657.38,1042.28 2658.82,1043.24 2660.26,1043.59 2661.7,1043.36 
  2663.14,1042.57 2664.58,1041.24 2666.02,1039.39 2667.46,1037.04 2668.9,1034.23 2670.34,1030.99 2671.78,1027.34 2673.22,1023.32 2674.67,1018.95 2676.11,1014.28 
  2677.55,1009.34 2678.99,1004.15 2680.43,998.759 2681.87,993.194 2683.31,987.488 2684.75,981.673 2686.19,975.778 2687.63,969.835 2689.07,963.87 2690.51,957.911 
  2691.95,951.982 2693.39,946.106 2694.83,940.306 2696.27,934.599 2697.71,929.006 2699.16,923.54 2700.6,918.218 2702.04,913.05 2703.48,908.048 2704.92,903.221 
  2706.36,898.576 2707.8,996.213 2709.24,1001.03 2710.68,1007.4 2712.12,1013.69 2713.56,1019.2 2715,1023.6 2716.44,1026.74 2717.88,1028.59 2719.32,1029.15 
  2720.76,1028.5 2722.2,1026.71 2723.65,1023.88 2725.09,1020.11 2726.53,1015.53 2727.97,1010.23 2729.41,1004.32 2730.85,997.916 2732.29,991.112 2733.73,984.003 
  2735.17,976.675 2736.61,969.211 2738.05,961.683 2739.49,954.157 2740.93,946.692 2742.37,939.341 2743.81,932.148 2745.25,925.153 2746.69,918.386 2748.14,911.875 
  2749.58,905.641 2751.02,899.7 2752.46,894.063 2753.9,888.739 2755.34,883.731 2756.78,879.04 2758.22,874.663 2759.66,870.596 2761.1,866.831 2762.54,863.36 
  2763.98,860.172 2765.42,857.256 2766.86,854.598 2768.3,852.186 2769.74,850.005 2771.18,848.041 2772.63,846.28 2774.07,844.708 2775.51,843.309 2776.95,842.071 
  2778.39,840.98 2779.83,840.022 2781.27,839.185 2782.71,838.457 2784.15,837.827 2785.59,837.284 2787.03,836.819 2788.47,836.423 2789.91,836.087 2791.35,835.803 
  
  "/>
</svg>
