<?xml version="1.0" encoding="utf-8"?>
<svg xmlns="http://www.w3.org/2000/svg" xmlns:xlink="http://www.w3.org/1999/xlink" width="800" height="400" viewBox="0 0 3200 1600">
<defs>
  <clipPath id="clip6900">
    <rect x="0" y="0" width="3200" height="1600"/>
  </clipPath>
</defs>
<polygon clip-path="url(#clip6900)" points="
0,1600 3200,1600 3200,0 0,0 
  " fill="#ffffff" fill-rule="evenodd" fill-opacity="1"/>
<defs>
  <clipPath id="clip6901">
    <rect x="640" y="0" width="2241" height="1600"/>
  </clipPath>
</defs>
<polygon clip-path="url(#clip6900)" points="
815.07,1275.5 2853.54,1275.5 2853.54,188.976 815.07,188.976 
  " fill="#ffffff" fill-rule="evenodd" fill-opacity="1"/>
<defs>
  <clipPath id="clip6902">
    <rect x="815" y="188" width="2039" height="1088"/>
  </clipPath>
</defs>
<polyline clip-path="url(#clip6902)" style="stroke:#000000; stroke-width:2; stroke-opacity:0.1; fill:none" points="
  871.426,1275.5 871.426,188.976 
  "/>
<polyline clip-path="url(#clip6902)" style="stroke:#000000; stroke-width:2; stroke-opacity:0.1; fill:none" points="
  1192.16,1275.5 1192.16,188.976 
  "/>
<polyline clip-path="url(#clip6902)" style="stroke:#000000; stroke-width:2; stroke-opacity:0.1; fill:none" points="
  1512.9,1275.5 1512.9,188.976 
  "/>
<polyline clip-path="url(#clip6902)" style="stroke:#000000; stroke-width:2; stroke-opacity:0.1; fill:none" points="
  1833.64,1275.5 1833.64,188.976 
  "/>
<polyline clip-path="url(#clip6902)" style="stroke:#000000; stroke-width:2; stroke-opacity:0.1; fill:none" points="
  2154.38,1275.5 2154.38,188.976 
  "/>
<polyline clip-path="url(#clip6902)" style="stroke:#000000; stroke-width:2; stroke-opacity:0.1; fill:none" points="
  2475.11,1275.5 2475.11,188.976 
  "/>
<polyline clip-path="url(#clip6902)" style="stroke:#000000; stroke-width:2; stroke-opacity:0.1; fill:none" points="
  2795.85,1275.5 2795.85,188.976 
  "/>
<polyline clip-path="url(#clip6902)" style="stroke:#000000; stroke-width:2; stroke-opacity:0.1; fill:none" points="
  815.07,1244.67 2853.54,1244.67 
  "/>
<polyline clip-path="url(#clip6902)" style="stroke:#000000; stroke-width:2; stroke-opacity:0.1; fill:none" points="
  815.07,1085.99 2853.54,1085.99 
  "/>
<polyline clip-path="url(#clip6902)" style="stroke:#000000; stroke-width:2; stroke-opacity:0.1; fill:none" points="
  815.07,927.3 2853.54,927.3 
  "/>
<polyline clip-path="url(#clip6902)" style="stroke:#000000; stroke-width:2; stroke-opacity:0.1; fill:none" points="
  815.07,768.614 2853.54,768.614 
  "/>
<polyline clip-path="url(#clip6902)" style="stroke:#000000; stroke-width:2; stroke-opacity:0.1; fill:none" points="
  815.07,609.928 2853.54,609.928 
  "/>
<polyline clip-path="url(#clip6902)" style="stroke:#000000; stroke-width:2; stroke-opacity:0.1; fill:none" points="
  815.07,451.241 2853.54,451.241 
  "/>
<polyline clip-path="url(#clip6902)" style="stroke:#000000; stroke-width:2; stroke-opacity:0.1; fill:none" points="
  815.07,292.555 2853.54,292.555 
  "/>
<polyline clip-path="url(#clip6900)" style="stroke:#000000; stroke-width:4; stroke-opacity:1; fill:none" points="
  815.07,1275.5 2853.54,1275.5 
  "/>
<polyline clip-path="url(#clip6900)" style="stroke:#000000; stroke-width:4; stroke-opacity:1; fill:none" points="
  815.07,1275.5 815.07,188.976 
  "/>
<polyline clip-path="url(#clip6900)" style="stroke:#000000; stroke-width:4; stroke-opacity:1; fill:none" points="
  871.426,1275.5 871.426,1259.21 
  "/>
<polyline clip-path="url(#clip6900)" style="stroke:#000000; stroke-width:4; stroke-opacity:1; fill:none" points="
  1192.16,1275.5 1192.16,1259.21 
  "/>
<polyline clip-path="url(#clip6900)" style="stroke:#000000; stroke-width:4; stroke-opacity:1; fill:none" points="
  1512.9,1275.5 1512.9,1259.21 
  "/>
<polyline clip-path="url(#clip6900)" style="stroke:#000000; stroke-width:4; stroke-opacity:1; fill:none" points="
  1833.64,1275.5 1833.64,1259.21 
  "/>
<polyline clip-path="url(#clip6900)" style="stroke:#000000; stroke-width:4; stroke-opacity:1; fill:none" points="
  2154.38,1275.5 2154.38,1259.21 
  "/>
<polyline clip-path="url(#clip6900)" style="stroke:#000000; stroke-width:4; stroke-opacity:1; fill:none" points="
  2475.11,1275.5 2475.11,1259.21 
  "/>
<polyline clip-path="url(#clip6900)" style="stroke:#000000; stroke-width:4; stroke-opacity:1; fill:none" points="
  2795.85,1275.5 2795.85,1259.21 
  "/>
<polyline clip-path="url(#clip6900)" style="stroke:#000000; stroke-width:4; stroke-opacity:1; fill:none" points="
  815.07,1244.67 845.647,1244.67 
  "/>
<polyline clip-path="url(#clip6900)" style="stroke:#000000; stroke-width:4; stroke-opacity:1; fill:none" points="
  815.07,1085.99 845.647,1085.99 
  "/>
<polyline clip-path="url(#clip6900)" style="stroke:#000000; stroke-width:4; stroke-opacity:1; fill:none" points="
  815.07,927.3 845.647,927.3 
  "/>
<polyline clip-path="url(#clip6900)" style="stroke:#000000; stroke-width:4; stroke-opacity:1; fill:none" points="
  815.07,768.614 845.647,768.614 
  "/>
<polyline clip-path="url(#clip6900)" style="stroke:#000000; stroke-width:4; stroke-opacity:1; fill:none" points="
  815.07,609.928 845.647,609.928 
  "/>
<polyline clip-path="url(#clip6900)" style="stroke:#000000; stroke-width:4; stroke-opacity:1; fill:none" points="
  815.07,451.241 845.647,451.241 
  "/>
<polyline clip-path="url(#clip6900)" style="stroke:#000000; stroke-width:4; stroke-opacity:1; fill:none" points="
  815.07,292.555 845.647,292.555 
  "/>
<g clip-path="url(#clip6900)">
<text style="fill:#000000; fill-opacity:1; font-family:Arial,Helvetica Neue,Helvetica,sans-serif; font-size:71px; text-anchor:middle;" transform="rotate(0, 871.426, 1353.9)" x="871.426" y="1353.9">0</text>
</g>
<g clip-path="url(#clip6900)">
<text style="fill:#000000; fill-opacity:1; font-family:Arial,Helvetica Neue,Helvetica,sans-serif; font-size:71px; text-anchor:middle;" transform="rotate(0, 1192.16, 1353.9)" x="1192.16" y="1353.9">4</text>
</g>
<g clip-path="url(#clip6900)">
<text style="fill:#000000; fill-opacity:1; font-family:Arial,Helvetica Neue,Helvetica,sans-serif; font-size:71px; text-anchor:middle;" transform="rotate(0, 1512.9, 1353.9)" x="1512.9" y="1353.9">8</text>
</g>
<g clip-path="url(#clip6900)">
<text style="fill:#000000; fill-opacity:1; font-family:Arial,Helvetica Neue,Helvetica,sans-serif; font-size:71px; text-anchor:middle;" transform="rotate(0, 1833.64, 1353.9)" x="1833.64" y="1353.9">12</text>
</g>
<g clip-path="url(#clip6900)">
<text style="fill:#000000; fill-opacity:1; font-family:Arial,Helvetica Neue,Helvetica,sans-serif; font-size:71px; text-anchor:middle;" transform="rotate(0, 2154.38, 1353.9)" x="2154.38" y="1353.9">16</text>
</g>
<g clip-path="url(#clip6900)">
<text style="fill:#000000; fill-opacity:1; font-family:Arial,Helvetica Neue,Helvetica,sans-serif; font-size:71px; text-anchor:middle;" transform="rotate(0, 2475.11, 1353.9)" x="2475.11" y="1353.9">20</text>
</g>
<g clip-path="url(#clip6900)">
<text style="fill:#000000; fill-opacity:1; font-family:Arial,Helvetica Neue,Helvetica,sans-serif; font-size:71px; text-anchor:middle;" transform="rotate(0, 2795.85, 1353.9)" x="2795.85" y="1353.9">24</text>
</g>
<g clip-path="url(#clip6900)">
<text style="fill:#000000; fill-opacity:1; font-family:Arial,Helvetica Neue,Helvetica,sans-serif; font-size:71px; text-anchor:end;" transform="rotate(0, 783.07, 1270.67)" x="783.07" y="1270.67">0</text>
</g>
<g clip-path="url(#clip6900)">
<text style="fill:#000000; fill-opacity:1; font-family:Arial,Helvetica Neue,Helvetica,sans-serif; font-size:71px; text-anchor:start;" transform="rotate(0, 527.643, 1121.58)" x="527.643" y="1121.58">2.0×10</text>
</g>
<g clip-path="url(#clip6900)">
<text style="fill:#000000; fill-opacity:1; font-family:Arial,Helvetica Neue,Helvetica,sans-serif; font-size:58px; text-anchor:start;" transform="rotate(0, 750.453, 1080.46)" x="750.453" y="1080.46">3</text>
</g>
<g clip-path="url(#clip6900)">
<text style="fill:#000000; fill-opacity:1; font-family:Arial,Helvetica Neue,Helvetica,sans-serif; font-size:71px; text-anchor:start;" transform="rotate(0, 527.643, 962.892)" x="527.643" y="962.892">4.0×10</text>
</g>
<g clip-path="url(#clip6900)">
<text style="fill:#000000; fill-opacity:1; font-family:Arial,Helvetica Neue,Helvetica,sans-serif; font-size:58px; text-anchor:start;" transform="rotate(0, 750.453, 921.776)" x="750.453" y="921.776">3</text>
</g>
<g clip-path="url(#clip6900)">
<text style="fill:#000000; fill-opacity:1; font-family:Arial,Helvetica Neue,Helvetica,sans-serif; font-size:71px; text-anchor:start;" transform="rotate(0, 527.643, 804.205)" x="527.643" y="804.205">6.0×10</text>
</g>
<g clip-path="url(#clip6900)">
<text style="fill:#000000; fill-opacity:1; font-family:Arial,Helvetica Neue,Helvetica,sans-serif; font-size:58px; text-anchor:start;" transform="rotate(0, 750.453, 763.09)" x="750.453" y="763.09">3</text>
</g>
<g clip-path="url(#clip6900)">
<text style="fill:#000000; fill-opacity:1; font-family:Arial,Helvetica Neue,Helvetica,sans-serif; font-size:71px; text-anchor:start;" transform="rotate(0, 527.643, 645.519)" x="527.643" y="645.519">8.0×10</text>
</g>
<g clip-path="url(#clip6900)">
<text style="fill:#000000; fill-opacity:1; font-family:Arial,Helvetica Neue,Helvetica,sans-serif; font-size:58px; text-anchor:start;" transform="rotate(0, 750.453, 604.403)" x="750.453" y="604.403">3</text>
</g>
<g clip-path="url(#clip6900)">
<text style="fill:#000000; fill-opacity:1; font-family:Arial,Helvetica Neue,Helvetica,sans-serif; font-size:71px; text-anchor:start;" transform="rotate(0, 527.643, 486.833)" x="527.643" y="486.833">1.0×10</text>
</g>
<g clip-path="url(#clip6900)">
<text style="fill:#000000; fill-opacity:1; font-family:Arial,Helvetica Neue,Helvetica,sans-serif; font-size:58px; text-anchor:start;" transform="rotate(0, 750.453, 445.717)" x="750.453" y="445.717">4</text>
</g>
<g clip-path="url(#clip6900)">
<text style="fill:#000000; fill-opacity:1; font-family:Arial,Helvetica Neue,Helvetica,sans-serif; font-size:71px; text-anchor:start;" transform="rotate(0, 527.643, 328.146)" x="527.643" y="328.146">1.2×10</text>
</g>
<g clip-path="url(#clip6900)">
<text style="fill:#000000; fill-opacity:1; font-family:Arial,Helvetica Neue,Helvetica,sans-serif; font-size:58px; text-anchor:start;" transform="rotate(0, 750.453, 287.031)" x="750.453" y="287.031">4</text>
</g>
<g clip-path="url(#clip6900)">
<text style="fill:#000000; fill-opacity:1; font-family:Arial,Helvetica Neue,Helvetica,sans-serif; font-size:95px; text-anchor:middle;" transform="rotate(0, 1834.31, 1469.75)" x="1834.31" y="1469.75">Time (hours)</text>
</g>
<g clip-path="url(#clip6900)">
<text style="fill:#000000; fill-opacity:1; font-family:Arial,Helvetica Neue,Helvetica,sans-serif; font-size:95px; text-anchor:middle;" transform="rotate(-90, 325.073, 732.24)" x="325.073" y="732.24">Probability of Wait</text>
</g>
<g clip-path="url(#clip6900)">
<text style="fill:#000000; fill-opacity:1; font-family:Arial,Helvetica Neue,Helvetica,sans-serif; font-size:95px; text-anchor:middle;" transform="rotate(-90, 428.753, 732.24)" x="428.753" y="732.24"> Relative Error: (PSA-NS)/NS</text>
</g>
<polyline clip-path="url(#clip6902)" style="stroke:#009af9; stroke-width:4; stroke-opacity:1; fill:none" points="
  872.763,1244.67 874.099,1244.67 875.436,1244.67 876.772,1244.67 878.108,1244.67 879.445,1244.67 880.781,1244.67 882.118,1244.67 883.454,1244.67 884.79,1244.67 
  886.127,1244.67 887.463,1244.67 888.8,1244.67 890.136,1244.67 891.472,1244.67 892.809,1244.67 894.145,1244.67 895.482,1244.67 896.818,1244.67 898.154,1244.67 
  899.491,1244.67 900.827,1244.67 902.164,1244.67 903.5,1244.67 904.836,1244.67 906.173,1244.67 907.509,1244.67 908.846,1244.67 910.182,1244.67 911.518,1244.67 
  912.855,1244.67 914.191,1244.67 915.528,1244.67 916.864,1244.67 918.201,1244.67 919.537,1244.67 920.873,1244.67 922.21,1244.67 923.546,1244.67 924.883,1244.67 
  926.219,1244.67 927.555,1244.67 928.892,1244.67 930.228,1244.67 931.565,1244.67 932.901,1244.67 934.237,1244.67 935.574,1244.67 936.91,1244.67 938.247,1244.67 
  939.583,1244.67 940.919,1244.67 942.256,1244.67 943.592,1244.67 944.929,1244.67 946.265,1244.67 947.601,1244.67 948.938,1244.67 950.274,1244.67 951.611,1244.67 
  952.947,1244.67 954.283,1244.67 955.62,1244.67 956.956,1244.67 958.293,1244.67 959.629,1244.67 960.966,1244.67 962.302,1244.67 963.638,1244.67 964.975,1244.67 
  966.311,1244.67 967.648,1244.67 968.984,1244.67 970.32,1244.67 971.657,1244.67 972.993,1244.67 974.33,1244.67 975.666,1244.67 977.002,1244.67 978.339,1244.67 
  979.675,1244.67 981.012,1244.67 982.348,1244.67 983.684,1244.67 985.021,1244.67 986.357,1244.67 987.694,1244.67 989.03,1244.67 990.366,1244.67 991.703,1244.67 
  993.039,1244.67 994.376,1244.67 995.712,1244.67 997.048,1244.67 998.385,1244.67 999.721,1244.67 1001.06,1244.67 1002.39,1244.67 1003.73,1244.67 1005.07,1244.67 
  1006.4,1244.67 1007.74,1244.67 1009.08,1244.67 1010.41,1244.67 1011.75,1244.67 1013.09,1244.67 1014.42,1244.67 1015.76,1244.67 1017.09,1244.67 1018.43,1244.67 
  1019.77,1244.67 1021.1,1244.67 1022.44,1244.67 1023.78,1244.67 1025.11,1244.67 1026.45,1244.67 1027.79,1244.67 1029.12,1244.67 1030.46,1244.67 1031.8,1244.67 
  1033.13,1244.67 1034.47,1244.67 1035.8,1244.67 1037.14,1244.67 1038.48,1244.67 1039.81,1244.67 1041.15,1244.67 1042.49,1244.67 1043.82,1244.67 1045.16,1244.67 
  1046.5,1244.67 1047.83,1244.67 1049.17,1244.67 1050.5,1244.67 1051.84,1244.67 1053.18,1244.67 1054.51,1244.67 1055.85,1244.67 1057.19,1244.67 1058.52,1244.67 
  1059.86,1244.67 1061.2,1244.67 1062.53,1244.67 1063.87,1244.67 1065.21,1244.67 1066.54,1244.67 1067.88,1244.67 1069.21,1244.67 1070.55,1244.67 1071.89,1244.67 
  1073.22,1244.67 1074.56,1244.67 1075.9,1244.67 1077.23,1244.67 1078.57,1244.67 1079.91,1244.67 1081.24,1244.67 1082.58,1244.67 1083.91,1244.67 1085.25,1244.67 
  1086.59,1244.67 1087.92,1244.67 1089.26,1244.67 1090.6,1244.67 1091.93,1244.67 1093.27,1244.67 1094.61,1244.67 1095.94,1244.67 1097.28,1244.67 1098.62,1244.67 
  1099.95,1244.67 1101.29,1244.67 1102.62,1244.67 1103.96,1244.67 1105.3,1244.67 1106.63,1244.67 1107.97,1244.67 1109.31,1244.67 1110.64,1244.67 1111.98,1244.67 
  1113.32,1244.67 1114.65,1244.67 1115.99,1244.67 1117.32,1244.67 1118.66,1244.67 1120,1244.67 1121.33,1244.67 1122.67,1244.67 1124.01,1244.67 1125.34,1244.67 
  1126.68,1244.67 1128.02,1244.67 1129.35,1244.67 1130.69,1244.67 1132.03,1244.67 1133.36,1244.67 1134.7,1244.67 1136.03,1244.67 1137.37,1244.67 1138.71,1244.67 
  1140.04,1244.67 1141.38,1244.67 1142.72,1244.67 1144.05,1244.67 1145.39,1244.67 1146.73,1244.67 1148.06,1244.67 1149.4,1244.67 1150.74,1244.67 1152.07,1244.67 
  1153.41,1244.67 1154.74,1244.67 1156.08,1244.67 1157.42,1244.67 1158.75,1244.67 1160.09,1244.67 1161.43,1244.67 1162.76,1244.67 1164.1,1244.67 1165.44,1244.67 
  1166.77,1244.67 1168.11,1244.67 1169.44,1244.67 1170.78,1244.67 1172.12,1244.67 1173.45,1244.67 1174.79,1244.67 1176.13,1244.67 1177.46,1244.67 1178.8,1244.67 
  1180.14,1244.67 1181.47,1244.67 1182.81,1244.67 1184.15,1244.67 1185.48,1244.67 1186.82,1244.67 1188.15,1244.67 1189.49,1244.67 1190.83,1244.67 1192.16,1244.67 
  1193.5,1244.67 1194.84,1244.68 1196.17,1244.68 1197.51,1244.68 1198.85,1244.68 1200.18,1244.68 1201.52,1244.68 1202.85,1244.68 1204.19,1244.68 1205.53,1244.67 
  1206.86,1244.67 1208.2,1244.67 1209.54,1244.67 1210.87,1244.67 1212.21,1244.67 1213.55,1244.67 1214.88,1244.67 1216.22,1244.67 1217.56,1244.67 1218.89,1244.67 
  1220.23,1244.67 1221.56,1244.67 1222.9,1244.67 1224.24,1244.67 1225.57,1244.67 1226.91,1244.67 1228.25,1244.67 1229.58,1244.67 1230.92,1244.67 1232.26,1244.67 
  1233.59,1244.67 1234.93,1244.67 1236.27,1244.67 1237.6,1244.67 1238.94,1244.67 1240.27,1244.67 1241.61,1244.67 1242.95,1244.67 1244.28,1244.67 1245.62,1244.67 
  1246.96,1244.67 1248.29,1244.67 1249.63,1244.67 1250.97,1244.67 1252.3,1244.67 1253.64,1244.67 1254.97,1244.67 1256.31,1244.67 1257.65,1244.67 1258.98,1244.67 
  1260.32,1244.67 1261.66,1244.67 1262.99,1244.67 1264.33,1244.67 1265.67,1244.67 1267,1244.67 1268.34,1244.67 1269.68,1244.67 1271.01,1244.67 1272.35,1244.67 
  1273.68,1244.67 1275.02,1244.67 1276.36,1244.67 1277.69,1244.67 1279.03,1244.67 1280.37,1244.67 1281.7,1244.67 1283.04,1244.67 1284.38,1244.67 1285.71,1244.67 
  1287.05,1244.67 1288.38,1244.67 1289.72,1244.67 1291.06,1244.67 1292.39,1244.67 1293.73,1244.67 1295.07,1244.67 1296.4,1244.67 1297.74,1244.67 1299.08,1244.67 
  1300.41,1244.67 1301.75,1244.67 1303.09,1244.67 1304.42,1244.67 1305.76,1244.67 1307.09,1244.67 1308.43,1244.67 1309.77,1244.67 1311.1,1244.67 1312.44,1244.67 
  1313.78,1244.67 1315.11,1244.67 1316.45,1244.67 1317.79,1244.67 1319.12,1244.67 1320.46,1244.67 1321.8,1244.67 1323.13,1244.67 1324.47,1244.67 1325.8,1244.67 
  1327.14,1244.67 1328.48,1244.67 1329.81,1244.67 1331.15,1244.67 1332.49,1244.67 1333.82,1244.67 1335.16,1244.67 1336.5,1244.67 1337.83,1244.67 1339.17,1244.67 
  1340.5,1244.67 1341.84,1244.67 1343.18,1244.67 1344.51,1244.67 1345.85,1244.67 1347.19,1244.67 1348.52,1244.67 1349.86,1244.67 1351.2,1244.67 1352.53,1244.67 
  1353.87,1244.67 1355.21,1244.75 1356.54,1244.75 1357.88,1244.75 1359.21,1244.74 1360.55,1244.73 1361.89,1244.71 1363.22,1244.69 1364.56,1244.67 1365.9,1244.64 
  1367.23,1244.63 1368.57,1244.62 1369.91,1244.61 1371.24,1244.6 1372.58,1244.6 1373.91,1244.6 1375.25,1244.6 1376.59,1244.61 1377.92,1244.61 1379.26,1244.61 
  1380.6,1244.61 1381.93,1244.62 1383.27,1244.62 1384.61,1244.62 1385.94,1244.63 1387.28,1244.63 1388.62,1244.63 1389.95,1244.63 1391.29,1244.64 1392.62,1244.64 
  1393.96,1244.64 1395.3,1244.64 1396.63,1244.65 1397.97,1244.65 1399.31,1244.65 1400.64,1244.65 1401.98,1244.65 1403.32,1244.66 1404.65,1244.66 1405.99,1244.66 
  1407.33,1244.66 1408.66,1244.66 1410,1244.66 1411.33,1244.66 1412.67,1244.67 1414.01,1244.67 1415.34,1244.67 1416.68,1244.67 1418.02,1244.67 1419.35,1244.67 
  1420.69,1244.67 1422.03,1244.67 1423.36,1244.67 1424.7,1244.67 1426.03,1244.67 1427.37,1244.67 1428.71,1244.67 1430.04,1244.67 1431.38,1244.67 1432.72,1244.67 
  1434.05,1244.67 1435.39,1244.75 1436.73,1244.75 1438.06,1244.75 1439.4,1244.75 1440.74,1244.73 1442.07,1244.69 1443.41,1244.62 1444.74,1244.53 1446.08,1244.45 
  1447.42,1244.38 1448.75,1244.32 1450.09,1244.29 1451.43,1244.27 1452.76,1244.26 1454.1,1244.26 1455.44,1244.27 1456.77,1244.28 1458.11,1244.29 1459.44,1244.31 
  1460.78,1244.32 1462.12,1244.34 1463.45,1244.36 1464.79,1244.37 1466.13,1244.39 1467.46,1244.4 1468.8,1244.41 1470.14,1244.43 1471.47,1244.44 1472.81,1244.45 
  1474.15,1244.46 1475.48,1244.47 1476.82,1244.48 1478.15,1244.49 1479.49,1244.5 1480.83,1244.51 1482.16,1244.51 1483.5,1244.52 1484.84,1244.53 1486.17,1244.53 
  1487.51,1244.54 1488.85,1244.55 1490.18,1244.55 1491.52,1244.56 1492.86,1244.56 1494.19,1244.57 1495.53,1244.57 1496.86,1244.58 1498.2,1244.58 1499.54,1244.58 
  1500.87,1244.59 1502.21,1244.59 1503.55,1244.59 1504.88,1244.6 1506.22,1244.6 1507.56,1244.6 1508.89,1244.61 1510.23,1244.61 1511.56,1244.61 1512.9,1244.61 
  1514.24,1244.62 1515.57,1224.39 1516.91,1027.21 1518.25,513.585 1519.58,219.727 1520.92,427.214 1522.26,748.547 1523.59,963.412 1524.93,1081.14 1526.27,1144.55 
  1527.6,1180.08 1528.94,1201.06 1530.27,1214.09 1531.61,1222.55 1532.95,1228.26 1534.28,1232.24 1535.62,1235.08 1536.96,1237.17 1538.29,1238.72 1539.63,1239.9 
  1540.97,1240.81 1542.3,1241.52 1543.64,1242.08 1544.97,1242.53 1546.31,1242.88 1547.65,1243.17 1548.98,1243.41 1550.32,1243.6 1551.66,1243.76 1552.99,1243.9 
  1554.33,1244.01 1555.67,1244.1 1557,1244.18 1558.34,1244.25 1559.68,1244.3 1561.01,1244.35 1562.35,1244.39 1563.68,1244.43 1565.02,1244.46 1566.36,1244.49 
  1567.69,1244.51 1569.03,1244.53 1570.37,1244.55 1571.7,1244.56 1573.04,1244.58 1574.38,1244.59 1575.71,1244.6 1577.05,1244.61 1578.38,1244.62 1579.72,1244.63 
  1581.06,1244.64 1582.39,1244.64 1583.73,1244.65 1585.07,1244.66 1586.4,1244.66 1587.74,1244.66 1589.08,1244.66 1590.41,1244.67 1591.75,1244.67 1593.09,1244.67 
  1594.42,1244.67 1595.76,1244.64 1597.09,1244.62 1598.43,1244.6 1599.77,1244.59 1601.1,1244.59 1602.44,1244.58 1603.78,1244.59 1605.11,1244.59 1606.45,1244.59 
  1607.79,1244.6 1609.12,1244.6 1610.46,1244.61 1611.8,1244.61 1613.13,1244.61 1614.47,1244.62 1615.8,1244.62 1617.14,1244.62 1618.48,1244.63 1619.81,1244.63 
  1621.15,1244.63 1622.49,1244.64 1623.82,1244.64 1625.16,1244.64 1626.5,1244.64 1627.83,1244.65 1629.17,1244.65 1630.5,1244.65 1631.84,1244.65 1633.18,1244.66 
  1634.51,1244.66 1635.85,1244.66 1637.19,1244.66 1638.52,1244.66 1639.86,1244.66 1641.2,1244.67 1642.53,1244.67 1643.87,1244.67 1645.21,1244.67 1646.54,1244.67 
  1647.88,1244.67 1649.21,1244.67 1650.55,1244.67 1651.89,1244.67 1653.22,1244.67 1654.56,1244.67 1655.9,1244.67 1657.23,1244.67 1658.57,1244.67 1659.91,1244.67 
  1661.24,1244.67 1662.58,1244.67 1663.91,1244.67 1665.25,1244.67 1666.59,1244.67 1667.92,1244.67 1669.26,1244.67 1670.6,1244.67 1671.93,1244.67 1673.27,1244.67 
  1674.61,1244.67 1675.94,1244.67 1677.28,1244.67 1678.62,1244.67 1679.95,1244.67 1681.29,1244.67 1682.62,1244.67 1683.96,1244.67 1685.3,1244.67 1686.63,1244.67 
  1687.97,1244.67 1689.31,1244.67 1690.64,1244.67 1691.98,1244.67 1693.32,1244.67 1694.65,1244.67 1695.99,1244.67 1697.33,1244.67 1698.66,1244.67 1700,1244.67 
  1701.33,1244.67 1702.67,1244.67 1704.01,1244.67 1705.34,1244.67 1706.68,1244.67 1708.02,1244.67 1709.35,1244.67 1710.69,1244.67 1712.03,1244.67 1713.36,1244.67 
  1714.7,1244.67 1716.03,1244.67 1717.37,1244.67 1718.71,1244.67 1720.04,1244.67 1721.38,1244.67 1722.72,1244.67 1724.05,1244.67 1725.39,1244.67 1726.73,1244.67 
  1728.06,1244.67 1729.4,1244.67 1730.74,1244.67 1732.07,1244.67 1733.41,1244.67 1734.74,1244.67 1736.08,1244.67 1737.42,1244.67 1738.75,1244.67 1740.09,1244.67 
  1741.43,1244.67 1742.76,1244.67 1744.1,1244.67 1745.44,1244.67 1746.77,1244.67 1748.11,1244.67 1749.44,1244.67 1750.78,1244.67 1752.12,1244.67 1753.45,1244.67 
  1754.79,1244.67 1756.13,1244.67 1757.46,1244.67 1758.8,1244.67 1760.14,1244.67 1761.47,1244.67 1762.81,1244.67 1764.15,1244.67 1765.48,1244.67 1766.82,1244.67 
  1768.15,1244.67 1769.49,1244.67 1770.83,1244.67 1772.16,1244.67 1773.5,1244.67 1774.84,1244.67 1776.17,1244.67 1777.51,1244.67 1778.85,1244.67 1780.18,1244.67 
  1781.52,1244.67 1782.86,1244.67 1784.19,1244.67 1785.53,1244.67 1786.86,1244.67 1788.2,1244.67 1789.54,1244.67 1790.87,1244.67 1792.21,1244.67 1793.55,1244.67 
  1794.88,1244.67 1796.22,1244.67 1797.56,1244.67 1798.89,1244.67 1800.23,1244.67 1801.56,1244.67 1802.9,1244.67 1804.24,1244.67 1805.57,1244.67 1806.91,1244.67 
  1808.25,1244.67 1809.58,1244.67 1810.92,1244.67 1812.26,1244.67 1813.59,1244.67 1814.93,1244.67 1816.27,1244.67 1817.6,1244.67 1818.94,1244.67 1820.27,1244.67 
  1821.61,1244.67 1822.95,1244.67 1824.28,1244.67 1825.62,1244.67 1826.96,1244.67 1828.29,1244.67 1829.63,1244.67 1830.97,1244.67 1832.3,1244.68 1833.64,1244.68 
  1834.97,1244.68 1836.31,1244.67 1837.65,1244.67 1838.98,1244.67 1840.32,1244.68 1841.66,1244.68 1842.99,1244.68 1844.33,1244.68 1845.67,1244.68 1847,1244.68 
  1848.34,1244.68 1849.68,1244.68 1851.01,1244.68 1852.35,1244.68 1853.68,1244.68 1855.02,1244.68 1856.36,1244.68 1857.69,1244.68 1859.03,1244.68 1860.37,1244.68 
  1861.7,1244.68 1863.04,1244.68 1864.38,1244.68 1865.71,1244.68 1867.05,1244.68 1868.39,1244.68 1869.72,1244.68 1871.06,1244.68 1872.39,1244.68 1873.73,1244.68 
  1875.07,1244.68 1876.4,1244.68 1877.74,1244.68 1879.08,1244.68 1880.41,1244.68 1881.75,1244.68 1883.09,1244.68 1884.42,1244.68 1885.76,1244.68 1887.09,1244.68 
  1888.43,1244.68 1889.77,1244.68 1891.1,1244.68 1892.44,1244.68 1893.78,1244.68 1895.11,1244.68 1896.45,1244.68 1897.79,1244.68 1899.12,1244.68 1900.46,1244.68 
  1901.8,1244.68 1903.13,1244.68 1904.47,1244.68 1905.8,1244.68 1907.14,1244.68 1908.48,1244.68 1909.81,1244.68 1911.15,1244.68 1912.49,1244.68 1913.82,1244.68 
  1915.16,1244.68 1916.5,1244.65 1917.83,1244.65 1919.17,1244.66 1920.5,1244.66 1921.84,1244.66 1923.18,1244.67 1924.51,1244.67 1925.85,1244.67 1927.19,1244.67 
  1928.52,1244.67 1929.86,1244.67 1931.2,1244.67 1932.53,1244.67 1933.87,1244.67 1935.21,1244.67 1936.54,1244.67 1937.88,1244.67 1939.21,1244.67 1940.55,1244.67 
  1941.89,1244.67 1943.22,1244.67 1944.56,1244.67 1945.9,1244.67 1947.23,1244.67 1948.57,1244.67 1949.91,1244.67 1951.24,1244.67 1952.58,1244.67 1953.92,1244.67 
  1955.25,1244.67 1956.59,1244.67 1957.92,1244.67 1959.26,1244.67 1960.6,1244.67 1961.93,1244.67 1963.27,1244.67 1964.61,1244.67 1965.94,1244.67 1967.28,1244.67 
  1968.62,1244.67 1969.95,1244.67 1971.29,1244.67 1972.62,1244.67 1973.96,1244.67 1975.3,1244.67 1976.63,1244.67 1977.97,1244.67 1979.31,1244.67 1980.64,1244.67 
  1981.98,1244.67 1983.32,1244.67 1984.65,1244.67 1985.99,1244.67 1987.33,1244.67 1988.66,1244.67 1990,1244.67 1991.33,1244.67 1992.67,1244.67 1994.01,1244.67 
  1995.34,1244.67 1996.68,1244.67 1998.02,1244.67 1999.35,1244.67 2000.69,1244.67 2002.03,1244.67 2003.36,1244.67 2004.7,1244.67 2006.03,1244.67 2007.37,1244.67 
  2008.71,1244.67 2010.04,1244.67 2011.38,1244.67 2012.72,1244.67 2014.05,1244.67 2015.39,1244.67 2016.73,1244.67 2018.06,1244.67 2019.4,1244.67 2020.74,1244.67 
  2022.07,1244.67 2023.41,1244.67 2024.74,1244.67 2026.08,1244.67 2027.42,1244.67 2028.75,1244.67 2030.09,1244.67 2031.43,1244.67 2032.76,1244.67 2034.1,1244.67 
  2035.44,1244.67 2036.77,1244.67 2038.11,1244.67 2039.44,1244.67 2040.78,1244.67 2042.12,1244.67 2043.45,1244.67 2044.79,1244.67 2046.13,1244.67 2047.46,1244.67 
  2048.8,1244.67 2050.14,1244.67 2051.47,1244.67 2052.81,1244.67 2054.15,1244.67 2055.48,1244.67 2056.82,1244.67 2058.15,1244.67 2059.49,1244.67 2060.83,1244.67 
  2062.16,1244.67 2063.5,1244.67 2064.84,1244.67 2066.17,1244.67 2067.51,1244.67 2068.85,1244.67 2070.18,1244.67 2071.52,1244.67 2072.86,1244.67 2074.19,1244.67 
  2075.53,1244.67 2076.86,1244.67 2078.2,1244.67 2079.54,1244.67 2080.87,1244.67 2082.21,1244.67 2083.55,1244.67 2084.88,1244.67 2086.22,1244.67 2087.56,1244.67 
  2088.89,1244.67 2090.23,1244.67 2091.56,1244.67 2092.9,1244.67 2094.24,1244.67 2095.57,1244.67 2096.91,1244.67 2098.25,1244.67 2099.58,1244.67 2100.92,1244.67 
  2102.26,1244.67 2103.59,1244.67 2104.93,1244.67 2106.27,1244.67 2107.6,1244.67 2108.94,1244.67 2110.27,1244.67 2111.61,1244.67 2112.95,1244.67 2114.28,1244.67 
  2115.62,1244.68 2116.96,1244.68 2118.29,1244.68 2119.63,1244.68 2120.97,1244.68 2122.3,1244.68 2123.64,1244.68 2124.97,1244.68 2126.31,1244.68 2127.65,1244.68 
  2128.98,1244.68 2130.32,1244.68 2131.66,1244.68 2132.99,1244.68 2134.33,1244.68 2135.67,1244.68 2137,1244.68 2138.34,1244.68 2139.68,1244.68 2141.01,1244.68 
  2142.35,1244.68 2143.68,1244.68 2145.02,1244.68 2146.36,1244.68 2147.69,1244.68 2149.03,1244.68 2150.37,1244.68 2151.7,1244.68 2153.04,1244.68 2154.38,1244.68 
  2155.71,1244.68 2157.05,1244.67 2158.39,1244.67 2159.72,1244.67 2161.06,1244.67 2162.39,1244.67 2163.73,1244.67 2165.07,1244.67 2166.4,1244.68 2167.74,1244.68 
  2169.08,1244.68 2170.41,1244.68 2171.75,1244.68 2173.09,1244.68 2174.42,1244.68 2175.76,1244.68 2177.09,1244.68 2178.43,1244.68 2179.77,1244.68 2181.1,1244.69 
  2182.44,1244.69 2183.78,1244.69 2185.11,1244.69 2186.45,1244.69 2187.79,1244.69 2189.12,1244.69 2190.46,1244.69 2191.8,1244.69 2193.13,1244.7 2194.47,1244.7 
  2195.8,1244.7 2197.14,1244.7 2198.48,1244.7 2199.81,1244.7 2201.15,1244.7 2202.49,1244.7 2203.82,1244.7 2205.16,1244.71 2206.5,1244.71 2207.83,1244.71 
  2209.17,1244.71 2210.5,1244.71 2211.84,1244.71 2213.18,1244.71 2214.51,1244.71 2215.85,1244.71 2217.19,1244.71 2218.52,1244.71 2219.86,1244.71 2221.2,1244.71 
  2222.53,1244.71 2223.87,1244.71 2225.21,1244.72 2226.54,1244.72 2227.88,1244.72 2229.21,1244.72 2230.55,1244.72 2231.89,1244.72 2233.22,1244.72 2234.56,1244.72 
  2235.9,1244.72 2237.23,1244.67 2238.57,1244.67 2239.91,1244.67 2241.24,1244.67 2242.58,1244.67 2243.92,1244.67 2245.25,1244.67 2246.59,1244.67 2247.92,1244.68 
  2249.26,1244.68 2250.6,1244.68 2251.93,1244.68 2253.27,1244.68 2254.61,1244.68 2255.94,1244.68 2257.28,1244.68 2258.62,1244.68 2259.95,1244.68 2261.29,1244.68 
  2262.62,1244.68 2263.96,1244.69 2265.3,1244.69 2266.63,1244.69 2267.97,1244.69 2269.31,1244.69 2270.64,1244.69 2271.98,1244.69 2273.32,1244.69 2274.65,1244.69 
  2275.99,1244.69 2277.33,1244.69 2278.66,1244.7 2280,1244.7 2281.33,1244.7 2282.67,1244.7 2284.01,1244.7 2285.34,1244.7 2286.68,1244.7 2288.02,1244.7 
  2289.35,1244.7 2290.69,1244.7 2292.03,1244.7 2293.36,1244.7 2294.7,1244.71 2296.03,1244.71 2297.37,1244.71 2298.71,1244.71 2300.04,1244.71 2301.38,1244.71 
  2302.72,1244.71 2304.05,1244.71 2305.39,1244.71 2306.73,1244.71 2308.06,1244.71 2309.4,1244.71 2310.74,1244.71 2312.07,1244.71 2313.41,1244.71 2314.74,1244.71 
  2316.08,1244.71 2317.42,1244.67 2318.75,1244.67 2320.09,1244.67 2321.43,1244.67 2322.76,1244.67 2324.1,1244.67 2325.44,1244.67 2326.77,1244.67 2328.11,1244.67 
  2329.45,1244.67 2330.78,1244.67 2332.12,1244.68 2333.45,1244.68 2334.79,1244.68 2336.13,1244.68 2337.46,1244.68 2338.8,1244.68 2340.14,1244.68 2341.47,1244.68 
  2342.81,1244.68 2344.15,1244.68 2345.48,1244.68 2346.82,1244.68 2348.15,1244.68 2349.49,1244.68 2350.83,1244.68 2352.16,1244.68 2353.5,1244.68 2354.84,1244.68 
  2356.17,1244.68 2357.51,1244.68 2358.85,1244.68 2360.18,1244.69 2361.52,1244.69 2362.86,1244.69 2364.19,1244.69 2365.53,1244.69 2366.86,1244.69 2368.2,1244.69 
  2369.54,1244.69 2370.87,1244.69 2372.21,1244.69 2373.55,1244.69 2374.88,1244.69 2376.22,1244.69 2377.56,1244.69 2378.89,1244.69 2380.23,1244.69 2381.56,1244.69 
  2382.9,1244.69 2384.24,1244.69 2385.57,1244.69 2386.91,1244.7 2388.25,1244.7 2389.58,1244.7 2390.92,1244.7 2392.26,1244.7 2393.59,1244.7 2394.93,1244.7 
  2396.27,1244.7 2397.6,1244.65 2398.94,1244.66 2400.27,1244.66 2401.61,1244.66 2402.95,1244.67 2404.28,1244.67 2405.62,1244.67 2406.96,1244.67 2408.29,1244.67 
  2409.63,1244.67 2410.97,1244.67 2412.3,1244.67 2413.64,1244.67 2414.98,1244.67 2416.31,1244.67 2417.65,1244.67 2418.98,1244.67 2420.32,1244.67 2421.66,1244.67 
  2422.99,1244.67 2424.33,1244.68 2425.67,1244.68 2427,1244.68 2428.34,1244.68 2429.68,1244.68 2431.01,1244.68 2432.35,1244.68 2433.68,1244.68 2435.02,1244.68 
  2436.36,1244.68 2437.69,1244.68 2439.03,1244.68 2440.37,1244.68 2441.7,1244.68 2443.04,1244.68 2444.38,1244.68 2445.71,1244.68 2447.05,1244.68 2448.39,1244.68 
  2449.72,1244.68 2451.06,1244.68 2452.39,1244.68 2453.73,1244.68 2455.07,1244.68 2456.4,1244.68 2457.74,1244.68 2459.08,1244.68 2460.41,1244.68 2461.75,1244.68 
  2463.09,1244.68 2464.42,1244.68 2465.76,1244.68 2467.09,1244.68 2468.43,1244.68 2469.77,1244.68 2471.1,1244.68 2472.44,1244.68 2473.78,1244.68 2475.11,1244.68 
  2476.45,1244.68 2477.79,1244.67 2479.12,1244.67 2480.46,1244.67 2481.8,1244.67 2483.13,1244.68 2484.47,1244.68 2485.8,1244.68 2487.14,1244.68 2488.48,1244.68 
  2489.81,1244.68 2491.15,1244.68 2492.49,1244.68 2493.82,1244.68 2495.16,1244.68 2496.5,1244.68 2497.83,1244.68 2499.17,1244.68 2500.5,1244.68 2501.84,1244.68 
  2503.18,1244.68 2504.51,1244.68 2505.85,1244.68 2507.19,1244.68 2508.52,1244.68 2509.86,1244.68 2511.2,1244.68 2512.53,1244.68 2513.87,1244.68 2515.21,1244.68 
  2516.54,1244.68 2517.88,1244.68 2519.21,1244.68 2520.55,1244.68 2521.89,1244.68 2523.22,1244.68 2524.56,1244.68 2525.9,1244.68 2527.23,1244.68 2528.57,1244.68 
  2529.91,1244.68 2531.24,1244.68 2532.58,1244.68 2533.92,1244.68 2535.25,1244.68 2536.59,1244.68 2537.92,1244.68 2539.26,1244.68 2540.6,1244.68 2541.93,1244.69 
  2543.27,1244.69 2544.61,1244.69 2545.94,1244.69 2547.28,1244.69 2548.62,1244.69 2549.95,1244.69 2551.29,1244.69 2552.62,1244.69 2553.96,1244.69 2555.3,1244.69 
  2556.63,1244.69 2557.97,1244.68 2559.31,1244.68 2560.64,1244.68 2561.98,1244.68 2563.32,1244.68 2564.65,1244.68 2565.99,1244.68 2567.33,1244.68 2568.66,1244.68 
  2570,1244.68 2571.33,1244.68 2572.67,1244.68 2574.01,1244.68 2575.34,1244.68 2576.68,1244.68 2578.02,1244.68 2579.35,1244.68 2580.69,1244.68 2582.03,1244.68 
  2583.36,1244.68 2584.7,1244.68 2586.03,1244.68 2587.37,1244.68 2588.71,1244.68 2590.04,1244.68 2591.38,1244.69 2592.72,1244.69 2594.05,1244.69 2595.39,1244.69 
  2596.73,1244.69 2598.06,1244.69 2599.4,1244.69 2600.74,1244.69 2602.07,1244.69 2603.41,1244.69 2604.74,1244.69 2606.08,1244.69 2607.42,1244.69 2608.75,1244.69 
  2610.09,1244.69 2611.43,1244.69 2612.76,1244.69 2614.1,1244.69 2615.44,1244.69 2616.77,1244.69 2618.11,1244.69 2619.45,1244.69 2620.78,1244.69 2622.12,1244.69 
  2623.45,1244.69 2624.79,1244.69 2626.13,1244.69 2627.46,1244.7 2628.8,1244.7 2630.14,1244.7 2631.47,1244.7 2632.81,1244.7 2634.15,1244.7 2635.48,1244.7 
  2636.82,1244.7 2638.15,1244.67 2639.49,1244.67 2640.83,1244.67 2642.16,1244.67 2643.5,1244.68 2644.84,1244.68 2646.17,1244.68 2647.51,1244.68 2648.85,1244.68 
  2650.18,1244.68 2651.52,1244.68 2652.86,1244.68 2654.19,1244.68 2655.53,1244.68 2656.86,1244.68 2658.2,1244.68 2659.54,1244.68 2660.87,1244.68 2662.21,1244.68 
  2663.55,1244.68 2664.88,1244.68 2666.22,1244.69 2667.56,1244.69 2668.89,1244.69 2670.23,1244.69 2671.56,1244.69 2672.9,1244.69 2674.24,1244.69 2675.57,1244.69 
  2676.91,1244.69 2678.25,1244.69 2679.58,1244.69 2680.92,1244.69 2682.26,1244.69 2683.59,1244.69 2684.93,1244.69 2686.27,1244.69 2687.6,1244.69 2688.94,1244.69 
  2690.27,1244.69 2691.61,1244.69 2692.95,1244.69 2694.28,1244.7 2695.62,1244.7 2696.96,1244.7 2698.29,1244.7 2699.63,1244.7 2700.97,1244.7 2702.3,1244.7 
  2703.64,1244.7 2704.98,1244.7 2706.31,1244.7 2707.65,1244.7 2708.98,1244.7 2710.32,1244.7 2711.66,1244.7 2712.99,1244.7 2714.33,1244.7 2715.67,1244.7 
  2717,1244.7 2718.34,1244.69 2719.68,1244.69 2721.01,1244.69 2722.35,1244.69 2723.68,1244.69 2725.02,1244.69 2726.36,1244.69 2727.69,1244.69 2729.03,1244.69 
  2730.37,1244.69 2731.7,1244.69 2733.04,1244.7 2734.38,1244.7 2735.71,1244.7 2737.05,1244.7 2738.39,1244.7 2739.72,1244.7 2741.06,1244.7 2742.39,1244.7 
  2743.73,1244.7 2745.07,1244.7 2746.4,1244.7 2747.74,1244.7 2749.08,1244.7 2750.41,1244.7 2751.75,1244.7 2753.09,1244.7 2754.42,1244.7 2755.76,1244.71 
  2757.09,1244.71 2758.43,1244.71 2759.77,1244.71 2761.1,1244.71 2762.44,1244.71 2763.78,1244.71 2765.11,1244.71 2766.45,1244.71 2767.79,1244.71 2769.12,1244.71 
  2770.46,1244.71 2771.8,1244.71 2773.13,1244.71 2774.47,1244.71 2775.8,1244.71 2777.14,1244.71 2778.48,1244.72 2779.81,1244.72 2781.15,1244.72 2782.49,1244.72 
  2783.82,1244.72 2785.16,1244.72 2786.5,1244.72 2787.83,1244.72 2789.17,1244.72 2790.51,1244.72 2791.84,1244.72 2793.18,1244.72 2794.51,1244.72 2795.85,1244.72 
  
  "/>
</svg>
