<?xml version="1.0" encoding="utf-8"?>
<svg xmlns="http://www.w3.org/2000/svg" xmlns:xlink="http://www.w3.org/1999/xlink" width="800" height="400" viewBox="0 0 3200 1600">
<defs>
  <clipPath id="clip8900">
    <rect x="0" y="0" width="3200" height="1600"/>
  </clipPath>
</defs>
<polygon clip-path="url(#clip8900)" points="
0,1600 3200,1600 3200,0 0,0 
  " fill="#ffffff" fill-rule="evenodd" fill-opacity="1"/>
<defs>
  <clipPath id="clip8901">
    <rect x="640" y="0" width="2241" height="1600"/>
  </clipPath>
</defs>
<polygon clip-path="url(#clip8900)" points="
560.611,1275.5 2853.54,1275.5 2853.54,188.976 560.611,188.976 
  " fill="#ffffff" fill-rule="evenodd" fill-opacity="1"/>
<defs>
  <clipPath id="clip8902">
    <rect x="560" y="188" width="2294" height="1088"/>
  </clipPath>
</defs>
<polyline clip-path="url(#clip8902)" style="stroke:#000000; stroke-width:2; stroke-opacity:0.1; fill:none" points="
  624.002,1275.5 624.002,188.976 
  "/>
<polyline clip-path="url(#clip8902)" style="stroke:#000000; stroke-width:2; stroke-opacity:0.1; fill:none" points="
  984.777,1275.5 984.777,188.976 
  "/>
<polyline clip-path="url(#clip8902)" style="stroke:#000000; stroke-width:2; stroke-opacity:0.1; fill:none" points="
  1345.55,1275.5 1345.55,188.976 
  "/>
<polyline clip-path="url(#clip8902)" style="stroke:#000000; stroke-width:2; stroke-opacity:0.1; fill:none" points="
  1706.33,1275.5 1706.33,188.976 
  "/>
<polyline clip-path="url(#clip8902)" style="stroke:#000000; stroke-width:2; stroke-opacity:0.1; fill:none" points="
  2067.1,1275.5 2067.1,188.976 
  "/>
<polyline clip-path="url(#clip8902)" style="stroke:#000000; stroke-width:2; stroke-opacity:0.1; fill:none" points="
  2427.87,1275.5 2427.87,188.976 
  "/>
<polyline clip-path="url(#clip8902)" style="stroke:#000000; stroke-width:2; stroke-opacity:0.1; fill:none" points="
  2788.65,1275.5 2788.65,188.976 
  "/>
<polyline clip-path="url(#clip8902)" style="stroke:#000000; stroke-width:2; stroke-opacity:0.1; fill:none" points="
  560.611,1244.75 2853.54,1244.75 
  "/>
<polyline clip-path="url(#clip8902)" style="stroke:#000000; stroke-width:2; stroke-opacity:0.1; fill:none" points="
  560.611,1083.47 2853.54,1083.47 
  "/>
<polyline clip-path="url(#clip8902)" style="stroke:#000000; stroke-width:2; stroke-opacity:0.1; fill:none" points="
  560.611,922.193 2853.54,922.193 
  "/>
<polyline clip-path="url(#clip8902)" style="stroke:#000000; stroke-width:2; stroke-opacity:0.1; fill:none" points="
  560.611,760.914 2853.54,760.914 
  "/>
<polyline clip-path="url(#clip8902)" style="stroke:#000000; stroke-width:2; stroke-opacity:0.1; fill:none" points="
  560.611,599.635 2853.54,599.635 
  "/>
<polyline clip-path="url(#clip8902)" style="stroke:#000000; stroke-width:2; stroke-opacity:0.1; fill:none" points="
  560.611,438.355 2853.54,438.355 
  "/>
<polyline clip-path="url(#clip8902)" style="stroke:#000000; stroke-width:2; stroke-opacity:0.1; fill:none" points="
  560.611,277.076 2853.54,277.076 
  "/>
<polyline clip-path="url(#clip8900)" style="stroke:#000000; stroke-width:4; stroke-opacity:1; fill:none" points="
  560.611,1275.5 2853.54,1275.5 
  "/>
<polyline clip-path="url(#clip8900)" style="stroke:#000000; stroke-width:4; stroke-opacity:1; fill:none" points="
  560.611,1275.5 560.611,188.976 
  "/>
<polyline clip-path="url(#clip8900)" style="stroke:#000000; stroke-width:4; stroke-opacity:1; fill:none" points="
  624.002,1275.5 624.002,1259.21 
  "/>
<polyline clip-path="url(#clip8900)" style="stroke:#000000; stroke-width:4; stroke-opacity:1; fill:none" points="
  984.777,1275.5 984.777,1259.21 
  "/>
<polyline clip-path="url(#clip8900)" style="stroke:#000000; stroke-width:4; stroke-opacity:1; fill:none" points="
  1345.55,1275.5 1345.55,1259.21 
  "/>
<polyline clip-path="url(#clip8900)" style="stroke:#000000; stroke-width:4; stroke-opacity:1; fill:none" points="
  1706.33,1275.5 1706.33,1259.21 
  "/>
<polyline clip-path="url(#clip8900)" style="stroke:#000000; stroke-width:4; stroke-opacity:1; fill:none" points="
  2067.1,1275.5 2067.1,1259.21 
  "/>
<polyline clip-path="url(#clip8900)" style="stroke:#000000; stroke-width:4; stroke-opacity:1; fill:none" points="
  2427.87,1275.5 2427.87,1259.21 
  "/>
<polyline clip-path="url(#clip8900)" style="stroke:#000000; stroke-width:4; stroke-opacity:1; fill:none" points="
  2788.65,1275.5 2788.65,1259.21 
  "/>
<polyline clip-path="url(#clip8900)" style="stroke:#000000; stroke-width:4; stroke-opacity:1; fill:none" points="
  560.611,1244.75 595.005,1244.75 
  "/>
<polyline clip-path="url(#clip8900)" style="stroke:#000000; stroke-width:4; stroke-opacity:1; fill:none" points="
  560.611,1083.47 595.005,1083.47 
  "/>
<polyline clip-path="url(#clip8900)" style="stroke:#000000; stroke-width:4; stroke-opacity:1; fill:none" points="
  560.611,922.193 595.005,922.193 
  "/>
<polyline clip-path="url(#clip8900)" style="stroke:#000000; stroke-width:4; stroke-opacity:1; fill:none" points="
  560.611,760.914 595.005,760.914 
  "/>
<polyline clip-path="url(#clip8900)" style="stroke:#000000; stroke-width:4; stroke-opacity:1; fill:none" points="
  560.611,599.635 595.005,599.635 
  "/>
<polyline clip-path="url(#clip8900)" style="stroke:#000000; stroke-width:4; stroke-opacity:1; fill:none" points="
  560.611,438.355 595.005,438.355 
  "/>
<polyline clip-path="url(#clip8900)" style="stroke:#000000; stroke-width:4; stroke-opacity:1; fill:none" points="
  560.611,277.076 595.005,277.076 
  "/>
<g clip-path="url(#clip8900)">
<text style="fill:#000000; fill-opacity:1; font-family:Arial,Helvetica Neue,Helvetica,sans-serif; font-size:71px; text-anchor:middle;" transform="rotate(0, 624.002, 1353.9)" x="624.002" y="1353.9">0</text>
</g>
<g clip-path="url(#clip8900)">
<text style="fill:#000000; fill-opacity:1; font-family:Arial,Helvetica Neue,Helvetica,sans-serif; font-size:71px; text-anchor:middle;" transform="rotate(0, 984.777, 1353.9)" x="984.777" y="1353.9">4</text>
</g>
<g clip-path="url(#clip8900)">
<text style="fill:#000000; fill-opacity:1; font-family:Arial,Helvetica Neue,Helvetica,sans-serif; font-size:71px; text-anchor:middle;" transform="rotate(0, 1345.55, 1353.9)" x="1345.55" y="1353.9">8</text>
</g>
<g clip-path="url(#clip8900)">
<text style="fill:#000000; fill-opacity:1; font-family:Arial,Helvetica Neue,Helvetica,sans-serif; font-size:71px; text-anchor:middle;" transform="rotate(0, 1706.33, 1353.9)" x="1706.33" y="1353.9">12</text>
</g>
<g clip-path="url(#clip8900)">
<text style="fill:#000000; fill-opacity:1; font-family:Arial,Helvetica Neue,Helvetica,sans-serif; font-size:71px; text-anchor:middle;" transform="rotate(0, 2067.1, 1353.9)" x="2067.1" y="1353.9">16</text>
</g>
<g clip-path="url(#clip8900)">
<text style="fill:#000000; fill-opacity:1; font-family:Arial,Helvetica Neue,Helvetica,sans-serif; font-size:71px; text-anchor:middle;" transform="rotate(0, 2427.87, 1353.9)" x="2427.87" y="1353.9">20</text>
</g>
<g clip-path="url(#clip8900)">
<text style="fill:#000000; fill-opacity:1; font-family:Arial,Helvetica Neue,Helvetica,sans-serif; font-size:71px; text-anchor:middle;" transform="rotate(0, 2788.65, 1353.9)" x="2788.65" y="1353.9">24</text>
</g>
<g clip-path="url(#clip8900)">
<text style="fill:#000000; fill-opacity:1; font-family:Arial,Helvetica Neue,Helvetica,sans-serif; font-size:71px; text-anchor:end;" transform="rotate(0, 528.611, 1270.75)" x="528.611" y="1270.75">0.0</text>
</g>
<g clip-path="url(#clip8900)">
<text style="fill:#000000; fill-opacity:1; font-family:Arial,Helvetica Neue,Helvetica,sans-serif; font-size:71px; text-anchor:end;" transform="rotate(0, 528.611, 1109.47)" x="528.611" y="1109.47">0.1</text>
</g>
<g clip-path="url(#clip8900)">
<text style="fill:#000000; fill-opacity:1; font-family:Arial,Helvetica Neue,Helvetica,sans-serif; font-size:71px; text-anchor:end;" transform="rotate(0, 528.611, 948.193)" x="528.611" y="948.193">0.2</text>
</g>
<g clip-path="url(#clip8900)">
<text style="fill:#000000; fill-opacity:1; font-family:Arial,Helvetica Neue,Helvetica,sans-serif; font-size:71px; text-anchor:end;" transform="rotate(0, 528.611, 786.914)" x="528.611" y="786.914">0.3</text>
</g>
<g clip-path="url(#clip8900)">
<text style="fill:#000000; fill-opacity:1; font-family:Arial,Helvetica Neue,Helvetica,sans-serif; font-size:71px; text-anchor:end;" transform="rotate(0, 528.611, 625.635)" x="528.611" y="625.635">0.4</text>
</g>
<g clip-path="url(#clip8900)">
<text style="fill:#000000; fill-opacity:1; font-family:Arial,Helvetica Neue,Helvetica,sans-serif; font-size:71px; text-anchor:end;" transform="rotate(0, 528.611, 464.355)" x="528.611" y="464.355">0.5</text>
</g>
<g clip-path="url(#clip8900)">
<text style="fill:#000000; fill-opacity:1; font-family:Arial,Helvetica Neue,Helvetica,sans-serif; font-size:71px; text-anchor:end;" transform="rotate(0, 528.611, 303.076)" x="528.611" y="303.076">0.6</text>
</g>
<g clip-path="url(#clip8900)">
<text style="fill:#000000; fill-opacity:1; font-family:Arial,Helvetica Neue,Helvetica,sans-serif; font-size:95px; text-anchor:middle;" transform="rotate(0, 1707.08, 1469.75)" x="1707.08" y="1469.75">Time (hours)</text>
</g>
<g clip-path="url(#clip8900)">
<text style="fill:#000000; fill-opacity:1; font-family:Arial,Helvetica Neue,Helvetica,sans-serif; font-size:95px; text-anchor:middle;" transform="rotate(-90, 378.453, 732.24)" x="378.453" y="732.24">TV Error</text>
</g>
<polyline clip-path="url(#clip8902)" style="stroke:#009af9; stroke-width:4; stroke-opacity:1; fill:none" points="
  625.506,1244.75 627.009,1231.93 628.512,1220.71 630.015,1210.89 631.518,1202.22 633.022,1194.59 634.525,1187.88 636.028,1182 637.531,1176.83 639.035,1172.31 
  640.538,1168.35 642.041,1164.91 643.544,1161.91 645.048,1159.14 646.551,1156.61 648.054,1154.39 649.557,1152.44 651.06,1150.74 652.564,1149.28 654.067,1148.01 
  655.57,1146.94 657.073,1145.86 658.577,1144.76 660.08,1143.79 661.583,1142.96 663.086,1142.24 664.589,1141.63 666.093,1141.13 667.596,1140.73 669.099,1140.17 
  670.602,1139.56 672.106,1139.03 673.609,1138.58 675.112,1138.2 676.615,1137.91 678.118,1137.68 679.622,1137.52 681.125,1137.05 682.628,1136.61 684.131,1136.23 
  685.635,1135.92 687.138,1135.67 688.641,1135.49 690.144,1135.37 691.648,1135.21 693.151,1134.77 694.654,1134.39 696.157,1134.07 697.66,1133.81 699.164,1133.61 
  700.667,1133.48 702.17,1133.4 703.673,1133.13 705.177,1132.72 706.68,1132.36 708.183,1132.07 709.686,1131.83 711.189,1131.66 712.693,1131.55 714.196,1131.5 
  715.699,1131.1 717.202,335.369 718.706,407.108 720.209,478.131 721.712,539.594 723.215,598.523 724.719,651.553 726.222,697.95 727.725,742.183 729.228,779.948 
  730.731,813.032 732.235,843.906 733.738,872.015 735.241,894.173 736.744,914.661 738.248,933.503 739.751,950.763 741.254,964.053 742.757,975.846 744.26,986.663 
  745.764,996.586 747.267,1005.7 748.77,1012.12 750.273,1017.77 751.777,1022.99 753.28,1027.84 754.783,1032.38 756.286,1036.01 757.79,1038.16 759.293,1040.2 
  760.796,1042.18 762.299,1044.12 763.802,1046.07 765.306,1047.25 766.809,1047.41 768.312,1047.67 769.815,1048.05 771.319,1048.57 772.822,1049.26 774.325,1049.51 
  775.828,1048.63 777.331,1047.96 778.835,1047.5 780.338,1047.29 781.841,1047.32 783.344,1047.38 784.848,1045.88 786.351,1044.65 787.854,1043.7 789.357,1043.05 
  790.861,1042.71 792.364,1042.69 793.867,1041 795.37,1039.36 796.873,1038.05 798.377,1037.08 799.88,1036.47 801.383,1036.23 802.886,1034.81 804.39,1032.81 
  805.893,1031.17 807.396,1091.84 808.899,1099.9 810.402,1107.07 811.906,1113.42 813.409,1119.06 814.912,1124.05 816.415,1128.48 817.919,1132.4 819.422,1135.88 
  820.925,1138.73 822.428,1140.86 823.932,1142.72 825.435,1144.35 826.938,1145.79 828.441,1147.04 829.944,1148.14 831.448,1149.11 832.951,1149.96 834.454,1150.71 
  835.957,1151.38 837.461,1151.99 838.964,1152.53 840.467,1153.03 841.97,1153.49 843.473,1153.86 844.977,1153.75 846.48,1153.63 847.983,1153.5 849.486,1153.37 
  850.99,1153.23 852.493,1153.1 853.996,1152.98 855.499,1152.86 857.002,1152.76 858.506,1152.68 860.009,1152.61 861.512,1152.57 863.015,1152.54 864.519,1152.54 
  866.022,1152.57 867.525,1152.62 869.028,1152.26 870.532,1151.8 872.035,1151.37 873.538,1150.97 875.041,1150.59 876.544,1150.24 878.048,1149.93 879.551,1149.65 
  881.054,1149.4 882.557,1149.18 884.061,1149 885.564,1148.86 887.067,1148.75 888.57,1148.68 890.073,1148.66 891.577,1148.67 893.08,1148.58 894.583,1148.02 
  896.086,1147.49 897.59,1184.97 899.093,1199.64 900.596,1212.62 902.099,1223.97 903.603,1232.77 905.106,1238.1 906.609,1236.71 908.112,1230.98 909.615,1225.31 
  911.119,1220.35 912.622,1216.01 914.125,1212.22 915.628,1208.9 917.132,1206.01 918.635,1203.48 920.138,1201.07 921.641,1198.94 923.144,1197.05 924.648,1195.37 
  926.151,1193.87 927.654,1192.55 929.157,1191.36 930.661,1190.31 932.164,1189.37 933.667,1188.53 935.17,1187.78 936.674,1187.11 938.177,1186.52 939.68,1185.98 
  941.183,1185.51 942.686,1185.08 944.19,1184.7 945.693,1184.37 947.196,1184.07 948.699,1183.81 950.203,1183.57 951.706,1183.37 953.209,1183.2 954.712,1183.05 
  956.215,1182.93 957.719,1182.82 959.222,1182.74 960.725,1182.68 962.228,1182.5 963.732,1182.17 965.235,1181.85 966.738,1181.55 968.241,1181.25 969.745,1180.98 
  971.248,1180.71 972.751,1180.46 974.254,1180.21 975.757,1179.99 977.261,1179.77 978.764,1179.56 980.267,1179.37 981.77,1179.19 983.274,1179.03 984.777,1178.87 
  986.28,1178.73 987.783,890.003 989.286,945.989 990.79,994.861 992.293,1037.43 993.796,1074.43 995.299,1106.56 996.803,1134.42 998.306,1158.57 999.809,1179.47 
  1001.31,1197.56 1002.82,1213.21 1004.32,1226.73 1005.82,1238.42 1007.33,1240.99 1008.83,1232.28 1010.33,1224.77 1011.83,1218.29 1013.34,1212.72 1014.84,1207.92 
  1016.34,1203.8 1017.85,1200.26 1019.35,1197.24 1020.85,1194.65 1022.36,1192.45 1023.86,1190.57 1025.36,1188.99 1026.87,1187.66 1028.37,1186.55 1029.87,1185.62 
  1031.38,1184.76 1032.88,1183.84 1034.38,1183.04 1035.89,1182.35 1037.39,1181.75 1038.89,1181.24 1040.4,1180.8 1041.9,1180.43 1043.4,1180.12 1044.91,1179.87 
  1046.41,1179.66 1047.91,1179.5 1049.42,1179.38 1050.92,1179.29 1052.42,1179.24 1053.93,1179.22 1055.43,1179.23 1056.93,1179.27 1058.43,1179.33 1059.94,1179.41 
  1061.44,1179.51 1062.94,1179.64 1064.45,1179.78 1065.95,1179.94 1067.45,1180.11 1068.96,1180.31 1070.46,1180.4 1071.96,1180.32 1073.47,1180.26 1074.97,1180.22 
  1076.47,1180.19 1077.98,1044.82 1079.48,1009.78 1080.98,982.735 1082.49,956.885 1083.99,935.427 1085.49,919.839 1087,908.94 1088.5,895.017 1090,885.736 
  1091.51,880.928 1093.01,875.219 1094.51,869.401 1096.02,867.383 1097.52,867.659 1099.02,863.759 1100.53,863.195 1102.03,865.796 1103.53,864.454 1105.03,864.599 
  1106.54,867.577 1108.04,868.824 1109.54,869.259 1111.05,872.259 1112.55,875.247 1114.05,875.735 1115.56,878.563 1117.06,882.729 1118.56,883.139 1120.07,885.696 
  1121.57,890.275 1123.07,890.929 1124.58,893.171 1126.08,897.286 1127.58,898.777 1129.09,900.692 1130.59,904.351 1132.09,906.491 1133.6,908.087 1135.1,911.31 
  1136.6,913.965 1138.11,915.257 1139.61,918.073 1141.11,921.143 1142.62,922.152 1144.12,924.593 1145.62,928.002 1147.13,928.75 1148.63,930.847 1150.13,934.23 
  1151.63,935.047 1153.14,936.831 1154.64,939.833 1156.14,941.051 1157.65,942.549 1159.15,945.204 1160.65,946.772 1162.16,948.011 1163.66,950.35 1165.16,952.225 
  1166.67,953.229 1168.17,219.727 1169.67,463.804 1171.18,681.595 1172.68,864.43 1174.18,1011.51 1175.69,1125.8 1177.19,1212.04 1178.69,1211.91 1180.2,1164.11 
  1181.7,1128.03 1183.2,1102.13 1184.71,1082.64 1186.21,1067.8 1187.71,1058.04 1189.22,1048.35 1190.72,1042.11 1192.22,1035.74 1193.73,1030.59 1195.23,1025.26 
  1196.73,1019.97 1198.23,1014.21 1199.74,1008.19 1201.24,1001.15 1202.74,994.224 1204.25,985.506 1205.75,977.701 1207.25,967.472 1208.76,958.104 1210.26,947.789 
  1211.76,937.175 1213.27,927.365 1214.77,915.858 1216.27,905.453 1217.78,895.2 1219.28,884.36 1220.78,874.651 1222.29,865.34 1223.79,855.606 1225.29,847.01 
  1226.8,839.493 1228.3,831.535 1229.8,824.302 1231.31,818.096 1232.81,812.851 1234.31,807.612 1235.82,802.725 1237.32,798.697 1238.82,795.46 1240.33,792.945 
  1241.83,790.615 1243.33,788.31 1244.84,786.614 1246.34,785.468 1247.84,784.82 1249.34,784.618 1250.85,784.817 1252.35,784.591 1253.85,784.699 1255.36,785.13 
  1256.86,785.851 1258.36,717.122 1259.87,882.291 1261.37,1017.78 1262.87,1125.27 1264.38,1207.13 1265.88,1217.57 1267.38,1171.8 1268.89,1137.61 1270.39,1112.13 
  1271.89,1093.66 1273.4,1080.2 1274.9,1070.42 1276.4,1063.85 1277.91,1058.7 1279.41,1055.79 1280.91,1053.45 1282.42,1052.21 1283.92,1051.85 1285.42,1051.35 
  1286.93,1051.8 1288.43,1052.07 1289.93,1052.6 1291.44,1053.71 1292.94,1054.13 1294.44,1055.17 1295.94,1056.11 1297.45,1056.89 1298.95,1058.2 1300.45,1058.87 
  1301.96,1059.89 1303.46,1061.04 1304.96,1061.75 1306.47,1062.93 1307.97,1063.75 1309.47,1064.63 1310.98,1065.86 1312.48,1066.44 1313.98,1067.44 1315.49,1068.35 
  1316.99,1069.06 1318.49,1070.16 1320,1070.76 1321.5,1071.56 1323,1072.51 1324.51,1073.02 1326.01,1073.88 1327.51,1074.51 1329.02,1075.05 1330.52,1075.91 
  1332.02,1076.19 1333.53,1076.69 1335.03,1077.24 1336.53,1077.37 1338.04,1077.71 1339.54,1077.85 1341.04,1077.74 1342.54,1077.78 1344.05,1077.43 1345.55,1076.92 
  1347.05,1076.45 1348.56,369.814 1350.06,441.292 1351.56,500.57 1353.07,547.121 1354.57,585.825 1356.07,617.156 1357.58,642.17 1359.08,662.964 1360.58,680.334 
  1362.09,694.953 1363.59,707.375 1365.09,717.504 1366.6,726.321 1368.1,734.09 1369.6,741.022 1371.11,747.281 1372.61,752.998 1374.11,758.276 1375.62,763.196 
  1377.12,767.821 1378.62,772.203 1380.13,776.379 1381.63,780.275 1383.13,783.896 1384.64,787.398 1386.14,790.791 1387.64,794.082 1389.14,797.271 1390.65,800.35 
  1392.15,803.302 1393.65,806.097 1395.16,808.686 1396.66,810.999 1398.16,812.938 1399.67,814.373 1401.17,814.848 1402.67,814.334 1404.18,812.632 1405.68,809.461 
  1407.18,804.465 1408.69,796.665 1410.19,786.53 1411.69,773.146 1413.2,757.067 1414.7,737.662 1416.2,716.249 1417.71,693.462 1419.21,669.753 1420.71,645.791 
  1422.22,622.334 1423.72,599.85 1425.22,578.725 1426.73,559.256 1428.23,541.234 1429.73,525.107 1431.24,510.954 1432.74,498.374 1434.24,487.416 1435.74,478.106 
  1437.25,469.971 1438.75,968.247 1440.25,975.757 1441.76,979.386 1443.26,981.204 1444.76,982.016 1446.27,982.276 1447.77,981.825 1449.27,980.917 1450.78,979.596 
  1452.28,977.476 1453.78,974.873 1455.29,971.662 1456.79,967.659 1458.29,963.092 1459.8,957.808 1461.3,951.721 1462.8,945.026 1464.31,937.743 1465.81,929.779 
  1467.31,921.293 1468.82,912.453 1470.32,903.34 1471.82,894.038 1473.33,884.556 1474.83,875.004 1476.33,865.529 1477.84,856.204 1479.34,847.102 1480.84,838.287 
  1482.34,829.819 1483.85,821.75 1485.35,814.124 1486.85,806.979 1488.36,800.301 1489.86,794.038 1491.36,788.297 1492.87,783.087 1494.37,778.412 1495.87,774.199 
  1497.38,770.324 1498.88,766.949 1500.38,764.063 1501.89,761.435 1503.39,759.172 1504.89,757.341 1506.4,755.71 1507.9,754.357 1509.4,753.378 1510.91,752.466 
  1512.41,751.835 1513.91,751.466 1515.42,751.105 1516.92,751.036 1518.42,751.028 1519.93,751.138 1521.43,751.469 1522.93,751.709 1524.44,752.181 1525.94,752.648 
  1527.44,753.192 1528.94,1147.84 1530.45,1154.9 1531.95,1161.01 1533.45,1166.31 1534.96,1170.91 1536.46,1174.91 1537.96,1178.4 1539.47,1181.45 1540.97,1184.09 
  1542.47,1186.4 1543.98,1188.42 1545.48,1190.18 1546.98,1191.73 1548.49,1193.08 1549.99,1194.24 1551.49,1195.27 1553,1196.16 1554.5,1196.95 1556,1197.64 
  1557.51,1198.23 1559.01,1198.75 1560.51,1199.2 1562.02,1199.6 1563.52,1199.96 1565.02,1200.25 1566.53,1200.51 1568.03,1200.74 1569.53,1200.95 1571.04,1201.12 
  1572.54,1201.27 1574.04,1201.4 1575.54,1201.52 1577.05,1201.62 1578.55,1201.71 1580.05,1201.78 1581.56,1201.84 1583.06,1201.9 1584.56,1201.95 1586.07,1201.99 
  1587.57,1202.02 1589.07,1202.05 1590.58,1202.08 1592.08,1202.11 1593.58,1202.12 1595.09,1202.14 1596.59,1202.15 1598.09,1202.16 1599.6,1202.17 1601.1,1202.18 
  1602.6,1202.18 1604.11,1202.18 1605.61,1202.19 1607.11,1202.2 1608.62,1202.2 1610.12,1202.19 1611.62,1202.19 1613.13,1202.19 1614.63,1202.2 1616.13,1202.2 
  1617.64,1202.19 1619.14,1107.97 1620.64,1112.07 1622.14,1115.7 1623.65,1118.83 1625.15,1121.61 1626.65,1124 1628.16,1126.14 1629.66,1127.96 1631.16,1129.6 
  1632.67,1130.99 1634.17,1132.24 1635.67,1133.3 1637.18,1134.27 1638.68,1135.07 1640.18,1135.81 1641.69,1136.43 1643.19,1137 1644.69,1137.46 1646.2,1137.91 
  1647.7,1138.26 1649.2,1138.62 1650.71,1138.88 1652.21,1139.16 1653.71,1139.37 1655.22,1139.6 1656.72,1139.75 1658.22,1139.94 1659.73,1140.07 1661.23,1140.22 
  1662.73,1140.33 1664.24,1140.46 1665.74,1140.56 1667.24,1140.68 1668.74,1140.77 1670.25,1140.87 1671.75,1140.96 1673.25,1141.06 1674.76,1141.16 1676.26,1141.25 
  1677.76,1141.35 1679.27,1141.44 1680.77,1141.55 1682.27,1141.64 1683.78,1141.77 1685.28,1141.86 1686.78,1142 1688.29,1142.09 1689.79,1142.24 1691.29,1142.35 
  1692.8,1142.5 1694.3,1142.63 1695.8,1142.78 1697.31,1142.93 1698.81,1143.09 1700.31,1143.26 1701.82,1143.42 1703.32,1143.61 1704.82,1143.79 1706.33,1144 
  1707.83,1144.18 1709.33,1128.75 1710.84,1125.05 1712.34,1122.03 1713.84,1119.58 1715.35,1117.58 1716.85,1115.93 1718.35,1114.57 1719.85,1113.47 1721.36,1112.54 
  1722.86,1111.84 1724.36,1111.24 1725.87,1110.82 1727.37,1110.52 1728.87,1110.3 1730.38,1110.23 1731.88,1110.2 1733.38,1110.28 1734.89,1110.43 1736.39,1110.63 
  1737.89,1110.94 1739.4,1111.25 1740.9,1111.65 1742.4,1112.09 1743.91,1112.56 1745.41,1113.13 1746.91,1113.66 1748.42,1114.29 1749.92,1114.92 1751.42,1115.6 
  1752.93,1116.32 1754.43,1117.04 1755.93,1117.85 1757.44,1118.61 1758.94,1119.45 1760.44,1120.29 1761.95,1121.16 1763.45,1122.06 1764.95,1122.97 1766.45,1123.92 
  1767.96,1124.85 1769.46,1125.85 1770.96,1126.8 1772.47,1127.83 1773.97,1128.82 1775.47,1129.86 1776.98,1130.88 1778.48,1131.94 1779.98,1132.98 1781.49,1134.05 
  1782.99,1135.11 1784.49,1136.19 1786,1137.26 1787.5,1138.33 1789,1139.41 1790.51,1140.48 1792.01,1141.56 1793.51,1142.62 1795.02,1143.69 1796.52,1144.75 
  1798.02,1145.8 1799.53,685.719 1801.03,759.143 1802.53,822.835 1804.04,877.955 1805.54,925.525 1807.04,966.57 1808.55,1002 1810.05,1032.44 1811.55,1058.82 
  1813.05,1081.49 1814.56,1101.13 1816.06,1118.09 1817.56,1132.73 1819.07,1145.43 1820.57,1156.42 1822.07,1165.93 1823.58,1174.16 1825.08,1181.3 1826.58,1187.49 
  1828.09,1192.86 1829.59,1197.52 1831.09,1201.56 1832.6,1205.06 1834.1,1208.1 1835.6,1210.74 1837.11,1213.03 1838.61,1215.02 1840.11,1216.75 1841.62,1218.25 
  1843.12,1219.55 1844.62,1220.68 1846.13,1221.66 1847.63,1222.52 1849.13,1223.26 1850.64,1223.9 1852.14,1224.46 1853.64,1224.94 1855.15,1225.36 1856.65,1225.72 
  1858.15,1226.04 1859.65,1226.31 1861.16,1226.55 1862.66,1226.75 1864.16,1226.93 1865.67,1227.09 1867.17,1227.22 1868.67,1227.34 1870.18,1227.44 1871.68,1227.53 
  1873.18,1227.6 1874.69,1227.67 1876.19,1227.72 1877.69,1227.77 1879.2,1227.81 1880.7,1227.84 1882.2,1227.87 1883.71,1227.9 1885.21,1227.92 1886.71,1227.94 
  1888.22,1227.96 1889.72,742.044 1891.22,811.253 1892.73,873.05 1894.23,927.943 1895.73,976.412 1897.24,1019.07 1898.74,1056.52 1900.24,1089.37 1901.75,1118.14 
  1903.25,1143.28 1904.75,1165.27 1906.25,1184.5 1907.76,1201.31 1909.26,1215.99 1910.76,1228.82 1912.27,1240.04 1913.77,1239.66 1915.27,1231.1 1916.78,1223.62 
  1918.28,1217.07 1919.78,1211.35 1921.29,1206.35 1922.79,1201.98 1924.29,1198.17 1925.8,1194.83 1927.3,1191.9 1928.8,1189.36 1930.31,1187.13 1931.81,1185.17 
  1933.31,1183.47 1934.82,1181.99 1936.32,1180.68 1937.82,1179.54 1939.33,1178.56 1940.83,1177.69 1942.33,1176.93 1943.84,1176.27 1945.34,1175.7 1946.84,1175.19 
  1948.35,1174.76 1949.85,1174.39 1951.35,1174.05 1952.85,1173.76 1954.36,1173.53 1955.86,1173.3 1957.36,1173.11 1958.87,1172.97 1960.37,1172.83 1961.87,1172.71 
  1963.38,1172.62 1964.88,1172.54 1966.38,1172.47 1967.89,1172.42 1969.39,1172.39 1970.89,1172.34 1972.4,1172.32 1973.9,1172.32 1975.4,1172.29 1976.91,1172.29 
  1978.41,1172.31 1979.91,1074.25 1981.42,1080.06 1982.92,1085.27 1984.42,1089.87 1985.93,1093.98 1987.43,1097.6 1988.93,1100.81 1990.44,1103.64 1991.94,1106.13 
  1993.44,1108.33 1994.95,1110.24 1996.45,1111.95 1997.95,1113.42 1999.45,1114.76 2000.96,1115.89 2002.46,1116.95 2003.96,1117.82 2005.47,1118.65 2006.97,1119.34 
  2008.47,1120 2009.98,1120.56 2011.48,1121.09 2012.98,1121.55 2014.49,1122 2015.99,1122.38 2017.49,1122.76 2019,1123.1 2020.5,1123.44 2022,1123.74 
  2023.51,1124.05 2025.01,1124.33 2026.51,1124.62 2028.02,1124.9 2029.52,1125.18 2031.02,1125.45 2032.53,1125.74 2034.03,1126.02 2035.53,1126.31 2037.04,1126.59 
  2038.54,1126.9 2040.04,1127.2 2041.55,1127.52 2043.05,1127.83 2044.55,1128.18 2046.05,1128.5 2047.56,1128.88 2049.06,1129.21 2050.56,1129.62 2052.07,1129.97 
  2053.57,1130.4 2055.07,1130.77 2056.58,1131.22 2058.08,1131.63 2059.58,1132.09 2061.09,1132.53 2062.59,1133.01 2064.09,1133.49 2065.6,1133.98 2067.1,1134.49 
  2068.6,1134.99 2070.11,1006.72 2071.61,1087.33 2073.11,1157.72 2074.62,1218.71 2076.12,1216.88 2077.62,1170.95 2079.13,1130.94 2080.63,1096.22 2082.13,1066.16 
  2083.64,1040.18 2085.14,1017.8 2086.64,998.485 2088.15,981.966 2089.65,967.975 2091.15,956.216 2092.65,946.329 2094.16,938.319 2095.66,931.965 2097.16,926.963 
  2098.67,923.418 2100.17,921.119 2101.67,919.85 2103.18,919.73 2104.68,920.584 2106.18,922.182 2107.69,924.664 2109.19,927.942 2110.69,931.666 2112.2,935.988 
  2113.7,940.841 2115.2,946.097 2116.71,951.472 2118.21,957.103 2119.71,962.898 2121.22,968.77 2122.72,974.411 2124.22,980.001 2125.73,985.483 2127.23,990.806 
  2128.73,995.887 2130.24,1000.59 2131.74,1005.05 2133.24,1009.24 2134.75,1013.15 2136.25,1016.78 2137.75,1020.11 2139.26,1023.15 2140.76,1025.85 2142.26,1028.25 
  2143.76,1030.39 2145.27,1032.29 2146.77,1033.96 2148.27,1035.41 2149.78,1036.65 2151.28,1037.7 2152.78,1038.58 2154.29,1039.29 2155.79,1039.86 2157.29,1040.3 
  2158.8,1040.61 2160.3,878.985 2161.8,977.593 2163.31,1060.1 2164.81,1129.58 2166.31,1186.95 2167.82,1217.83 2169.32,1196.75 2170.82,1160.78 2172.33,1128.43 
  2173.83,1100.22 2175.33,1075.64 2176.84,1054.43 2178.34,1036.17 2179.84,1020.46 2181.35,1007.02 2182.85,995.625 2184.35,986.063 2185.86,978.141 2187.36,971.693 
  2188.86,966.577 2190.36,962.665 2191.87,959.848 2193.37,958.026 2194.87,957.108 2196.38,957.014 2197.88,957.665 2199.38,958.991 2200.89,960.924 2202.39,963.397 
  2203.89,966.346 2205.4,969.708 2206.9,973.421 2208.4,977.423 2209.91,981.652 2211.41,986.045 2212.91,990.54 2214.42,995.081 2215.92,999.618 2217.42,1004.11 
  2218.93,1008.51 2220.43,1012.79 2221.93,1016.94 2223.44,1020.91 2224.94,1024.71 2226.44,1028.32 2227.95,1031.73 2229.45,1034.87 2230.95,1037.73 2232.46,1040.38 
  2233.96,1042.83 2235.46,1045.1 2236.96,1047.2 2238.47,1049.13 2239.97,1050.73 2241.47,1052.13 2242.98,1053.4 2244.48,1054.55 2245.98,1055.61 2247.49,1056.4 
  2248.99,1057.02 2250.49,887.129 2252,971.621 2253.5,1042.08 2255,1101.53 2256.51,1152.08 2258.01,1194.82 2259.51,1224.57 2261.02,1218.18 2262.52,1192.29 
  2264.02,1168.46 2265.53,1147.53 2267.03,1129.3 2268.53,1113.44 2270.04,1099.63 2271.54,1087.75 2273.04,1077.41 2274.55,1068.54 2276.05,1060.99 2277.55,1054.43 
  2279.06,1049 2280.56,1044.37 2282.06,1040.51 2283.56,1037.48 2285.07,1034.94 2286.57,1032.99 2288.07,1031.69 2289.58,1030.65 2291.08,1030.11 2292.58,1030.08 
  2294.09,1030.14 2295.59,1030.65 2297.09,1031.51 2298.6,1032.44 2300.1,1033.76 2301.6,1035.25 2303.11,1036.85 2304.61,1038.8 2306.11,1040.69 2307.62,1042.81 
  2309.12,1045.12 2310.62,1047.34 2312.13,1049.83 2313.63,1052.25 2315.13,1054.75 2316.64,1057.4 2318.14,1059.84 2319.64,1062.49 2321.15,1064.99 2322.65,1067.5 
  2324.15,1070.07 2325.66,1072.41 2327.16,1074.89 2328.66,1077.12 2330.16,1079.39 2331.67,1081.58 2333.17,1083.61 2334.67,1085.74 2336.18,1087.52 2337.68,1089.46 
  2339.18,1091.09 2340.69,529.695 2342.19,639.46 2343.69,736.063 2345.2,821.077 2346.7,895.091 2348.2,959.787 2349.71,1016.25 2351.21,1065.42 2352.71,1108.2 
  2354.22,1145.42 2355.72,1177.81 2357.22,1205.97 2358.73,1230.39 2360.23,1237.13 2361.73,1218.8 2363.24,1202.64 2364.74,1188.54 2366.24,1176.27 2367.75,1165.62 
  2369.25,1156.33 2370.75,1148.22 2372.26,1141.23 2373.76,1135.17 2375.26,1129.86 2376.76,1125.33 2378.27,1121.41 2379.77,1117.99 2381.27,1115.16 2382.78,1112.64 
  2384.28,1110.53 2385.78,1108.84 2387.29,1107.27 2388.79,1106.09 2390.29,1105.1 2391.8,1104.26 2393.3,1103.74 2394.8,1103.21 2396.31,1102.9 2397.81,1102.78 
  2399.31,1102.63 2400.82,1102.72 2402.32,1102.83 2403.82,1103.01 2405.33,1103.39 2406.83,1103.64 2408.33,1104.07 2409.84,1104.59 2411.34,1105.04 2412.84,1105.66 
  2414.35,1106.24 2415.85,1106.86 2417.35,1107.64 2418.86,1108.26 2420.36,1109.01 2421.86,1109.85 2423.36,1110.55 2424.87,1111.4 2426.37,1112.25 2427.87,1113.03 
  2429.38,1113.96 2430.88,1198.24 2432.38,1189.09 2433.89,1177.78 2435.39,1167 2436.89,1157.47 2438.4,1149.13 2439.9,1141.91 2441.4,1135.61 2442.91,1130.15 
  2444.41,1125.46 2445.91,1121.47 2447.42,1117.98 2448.92,1114.94 2450.42,1112.44 2451.93,1110.27 2453.43,1108.39 2454.93,1106.92 2456.44,1105.62 2457.94,1104.55 
  2459.44,1103.81 2460.95,1103.1 2462.45,1102.61 2463.95,1102.39 2465.46,1102.08 2466.96,1102.03 2468.46,1102.12 2469.96,1102.16 2471.47,1102.43 2472.97,1102.73 
  2474.47,1103.04 2475.98,1103.54 2477.48,1104 2478.98,1104.5 2480.49,1105.19 2481.99,1105.76 2483.49,1106.42 2485,1107.25 2486.5,1107.9 2488,1108.68 
  2489.51,1109.61 2491.01,1110.32 2492.51,1111.18 2494.02,1112.17 2495.52,1112.95 2497.02,1113.87 2498.53,1114.9 2500.03,1115.72 2501.53,1116.68 2503.04,1117.72 
  2504.54,1118.57 2506.04,1119.54 2507.55,1120.6 2509.05,1121.44 2510.55,1122.4 2512.06,1123.46 2513.56,1124.28 2515.06,1125.21 2516.56,1126.25 2518.07,1127.03 
  2519.57,1127.93 2521.07,1185.23 2522.58,1192.33 2524.08,1179.23 2525.58,1164.09 2527.09,1149.81 2528.59,1137.08 2530.09,1125.93 2531.6,1116.28 2533.1,1107.84 
  2534.6,1100.63 2536.11,1094.58 2537.61,1089.28 2539.11,1084.82 2540.62,1081.27 2542.12,1078.03 2543.62,1075.56 2545.13,1073.55 2546.63,1071.92 2548.13,1070.93 
  2549.64,1069.92 2551.14,1069.49 2552.64,1069.24 2554.15,1069.22 2555.65,1069.62 2557.15,1069.9 2558.66,1070.64 2560.16,1071.36 2561.66,1072.26 2563.16,1073.44 
  2564.67,1074.44 2566.17,1075.81 2567.67,1077.06 2569.18,1078.44 2570.68,1080.03 2572.18,1081.38 2573.69,1083.03 2575.19,1084.53 2576.69,1086.08 2578.2,1087.84 
  2579.7,1089.24 2581.2,1090.91 2582.71,1092.46 2584.21,1093.94 2585.71,1095.67 2587.22,1096.96 2588.72,1098.46 2590.22,1099.94 2591.73,1101.2 2593.23,1102.66 
  2594.73,1103.86 2596.24,1105.06 2597.74,1106.46 2599.24,1107.38 2600.75,1108.5 2602.25,1109.63 2603.75,1110.46 2605.26,1111.47 2606.76,1112.35 2608.26,1113.06 
  2609.77,1113.96 2611.27,1131.98 2612.77,1174.59 2614.27,1201.43 2615.78,1208.6 2617.28,1194.75 2618.78,1175.61 2620.29,1158.13 2621.79,1142.64 2623.29,1129.22 
  2624.8,1117.72 2626.3,1107.61 2627.8,1099.01 2629.31,1091.84 2630.81,1085.71 2632.31,1080.45 2633.82,1076.31 2635.32,1072.78 2636.82,1069.9 2638.33,1067.92 
  2639.83,1066.1 2641.33,1064.94 2642.84,1064.36 2644.34,1063.79 2645.84,1063.86 2647.35,1064.12 2648.85,1064.52 2650.35,1065.48 2651.86,1066.23 2653.36,1067.33 
  2654.86,1068.78 2656.37,1069.91 2657.87,1071.48 2659.37,1073.06 2660.87,1074.53 2662.38,1076.39 2663.88,1077.95 2665.38,1079.61 2666.89,1081.61 2668.39,1083.02 
  2669.89,1084.75 2671.4,1086.57 2672.9,1087.97 2674.4,1089.67 2675.91,1091.25 2677.41,1092.58 2678.91,1094.18 2680.42,1095.51 2681.92,1096.7 2683.42,1098.15 
  2684.93,1099.23 2686.43,1100.26 2687.93,1101.53 2689.44,1102.38 2690.94,1103.21 2692.44,1104.28 2693.95,1104.95 2695.45,1105.56 2696.95,1106.41 2698.46,1106.94 
  2699.96,1107.34 2701.46,1104.84 2702.97,1102.29 2704.47,1097.6 2705.97,1092.43 2707.47,1087.52 2708.98,1083.28 2710.48,1079.91 2711.98,1077.41 2713.49,1075.02 
  2714.99,1073.51 2716.49,1072.9 2718,1072.04 2719.5,1071.9 2721,1072.42 2722.51,1072.47 2724.01,1073.19 2725.51,1074.17 2727.02,1074.78 2728.52,1075.95 
  2730.02,1077 2731.53,1077.85 2733.03,1079.19 2734.53,1080.1 2736.04,1080.97 2737.54,1082.27 2739.04,1082.94 2740.55,1083.69 2742.05,1084.84 2743.55,1085.26 
  2745.06,1085.79 2746.56,1086.72 2748.06,1086.91 2749.57,1087.19 2751.07,1087.86 2752.57,1087.89 2754.07,1087.89 2755.58,1088.29 2757.08,1088.23 2758.58,1087.95 
  2760.09,1088.08 2761.59,1088 2763.09,1087.44 2764.6,1087.3 2766.1,1087.3 2767.6,1086.46 2769.11,1086.05 2770.61,1086.09 2772.11,1085.09 2773.62,1084.42 
  2775.12,1084.22 2776.62,1083.41 2778.13,1082.48 2779.63,1082.04 2781.13,1081.48 2782.64,1080.28 2784.14,1079.6 2785.64,1079.35 2787.15,1077.89 2788.65,1076.95 
  
  "/>
</svg>
