<?xml version="1.0" encoding="utf-8"?>
<svg xmlns="http://www.w3.org/2000/svg" xmlns:xlink="http://www.w3.org/1999/xlink" width="900" height="500" viewBox="0 0 3600 2000">
<defs>
  <clipPath id="clip8900">
    <rect x="0" y="0" width="3600" height="2000"/>
  </clipPath>
</defs>
<polygon clip-path="url(#clip8900)" points="
0,2000 3600,2000 3600,0 0,0 
  " fill="#ffffff" fill-rule="evenodd" fill-opacity="1"/>
<defs>
  <clipPath id="clip8901">
    <rect x="720" y="0" width="2521" height="2000"/>
  </clipPath>
</defs>
<polygon clip-path="url(#clip8900)" points="
540.539,1675.5 3253.54,1675.5 3253.54,248.737 540.539,248.737 
  " fill="#ffffff" fill-rule="evenodd" fill-opacity="1"/>
<defs>
  <clipPath id="clip8902">
    <rect x="540" y="248" width="2714" height="1428"/>
  </clipPath>
</defs>
<polyline clip-path="url(#clip8902)" style="stroke:#000000; stroke-width:2; stroke-opacity:0.1; fill:none" points="
  615.544,1675.5 615.544,248.737 
  "/>
<polyline clip-path="url(#clip8902)" style="stroke:#000000; stroke-width:2; stroke-opacity:0.1; fill:none" points="
  1042.41,1675.5 1042.41,248.737 
  "/>
<polyline clip-path="url(#clip8902)" style="stroke:#000000; stroke-width:2; stroke-opacity:0.1; fill:none" points="
  1469.28,1675.5 1469.28,248.737 
  "/>
<polyline clip-path="url(#clip8902)" style="stroke:#000000; stroke-width:2; stroke-opacity:0.1; fill:none" points="
  1896.15,1675.5 1896.15,248.737 
  "/>
<polyline clip-path="url(#clip8902)" style="stroke:#000000; stroke-width:2; stroke-opacity:0.1; fill:none" points="
  2323.02,1675.5 2323.02,248.737 
  "/>
<polyline clip-path="url(#clip8902)" style="stroke:#000000; stroke-width:2; stroke-opacity:0.1; fill:none" points="
  2749.89,1675.5 2749.89,248.737 
  "/>
<polyline clip-path="url(#clip8902)" style="stroke:#000000; stroke-width:2; stroke-opacity:0.1; fill:none" points="
  3176.76,1675.5 3176.76,248.737 
  "/>
<polyline clip-path="url(#clip8902)" style="stroke:#000000; stroke-width:2; stroke-opacity:0.1; fill:none" points="
  540.539,1640.64 3253.54,1640.64 
  "/>
<polyline clip-path="url(#clip8902)" style="stroke:#000000; stroke-width:2; stroke-opacity:0.1; fill:none" points="
  540.539,1262.02 3253.54,1262.02 
  "/>
<polyline clip-path="url(#clip8902)" style="stroke:#000000; stroke-width:2; stroke-opacity:0.1; fill:none" points="
  540.539,883.402 3253.54,883.402 
  "/>
<polyline clip-path="url(#clip8902)" style="stroke:#000000; stroke-width:2; stroke-opacity:0.1; fill:none" points="
  540.539,504.784 3253.54,504.784 
  "/>
<polyline clip-path="url(#clip8900)" style="stroke:#000000; stroke-width:4; stroke-opacity:1; fill:none" points="
  540.539,1675.5 3253.54,1675.5 
  "/>
<polyline clip-path="url(#clip8900)" style="stroke:#000000; stroke-width:4; stroke-opacity:1; fill:none" points="
  540.539,1675.5 540.539,248.737 
  "/>
<polyline clip-path="url(#clip8900)" style="stroke:#000000; stroke-width:4; stroke-opacity:1; fill:none" points="
  615.544,1675.5 615.544,1654.1 
  "/>
<polyline clip-path="url(#clip8900)" style="stroke:#000000; stroke-width:4; stroke-opacity:1; fill:none" points="
  1042.41,1675.5 1042.41,1654.1 
  "/>
<polyline clip-path="url(#clip8900)" style="stroke:#000000; stroke-width:4; stroke-opacity:1; fill:none" points="
  1469.28,1675.5 1469.28,1654.1 
  "/>
<polyline clip-path="url(#clip8900)" style="stroke:#000000; stroke-width:4; stroke-opacity:1; fill:none" points="
  1896.15,1675.5 1896.15,1654.1 
  "/>
<polyline clip-path="url(#clip8900)" style="stroke:#000000; stroke-width:4; stroke-opacity:1; fill:none" points="
  2323.02,1675.5 2323.02,1654.1 
  "/>
<polyline clip-path="url(#clip8900)" style="stroke:#000000; stroke-width:4; stroke-opacity:1; fill:none" points="
  2749.89,1675.5 2749.89,1654.1 
  "/>
<polyline clip-path="url(#clip8900)" style="stroke:#000000; stroke-width:4; stroke-opacity:1; fill:none" points="
  3176.76,1675.5 3176.76,1654.1 
  "/>
<polyline clip-path="url(#clip8900)" style="stroke:#000000; stroke-width:4; stroke-opacity:1; fill:none" points="
  540.539,1640.64 581.235,1640.64 
  "/>
<polyline clip-path="url(#clip8900)" style="stroke:#000000; stroke-width:4; stroke-opacity:1; fill:none" points="
  540.539,1262.02 581.235,1262.02 
  "/>
<polyline clip-path="url(#clip8900)" style="stroke:#000000; stroke-width:4; stroke-opacity:1; fill:none" points="
  540.539,883.402 581.235,883.402 
  "/>
<polyline clip-path="url(#clip8900)" style="stroke:#000000; stroke-width:4; stroke-opacity:1; fill:none" points="
  540.539,504.784 581.235,504.784 
  "/>
<g clip-path="url(#clip8900)">
<text style="fill:#000000; fill-opacity:1; font-family:Arial,Helvetica Neue,Helvetica,sans-serif; font-size:71px; text-anchor:middle;" transform="rotate(0, 615.544, 1755.9)" x="615.544" y="1755.9">0</text>
</g>
<g clip-path="url(#clip8900)">
<text style="fill:#000000; fill-opacity:1; font-family:Arial,Helvetica Neue,Helvetica,sans-serif; font-size:71px; text-anchor:middle;" transform="rotate(0, 1042.41, 1755.9)" x="1042.41" y="1755.9">4</text>
</g>
<g clip-path="url(#clip8900)">
<text style="fill:#000000; fill-opacity:1; font-family:Arial,Helvetica Neue,Helvetica,sans-serif; font-size:71px; text-anchor:middle;" transform="rotate(0, 1469.28, 1755.9)" x="1469.28" y="1755.9">8</text>
</g>
<g clip-path="url(#clip8900)">
<text style="fill:#000000; fill-opacity:1; font-family:Arial,Helvetica Neue,Helvetica,sans-serif; font-size:71px; text-anchor:middle;" transform="rotate(0, 1896.15, 1755.9)" x="1896.15" y="1755.9">12</text>
</g>
<g clip-path="url(#clip8900)">
<text style="fill:#000000; fill-opacity:1; font-family:Arial,Helvetica Neue,Helvetica,sans-serif; font-size:71px; text-anchor:middle;" transform="rotate(0, 2323.02, 1755.9)" x="2323.02" y="1755.9">16</text>
</g>
<g clip-path="url(#clip8900)">
<text style="fill:#000000; fill-opacity:1; font-family:Arial,Helvetica Neue,Helvetica,sans-serif; font-size:71px; text-anchor:middle;" transform="rotate(0, 2749.89, 1755.9)" x="2749.89" y="1755.9">20</text>
</g>
<g clip-path="url(#clip8900)">
<text style="fill:#000000; fill-opacity:1; font-family:Arial,Helvetica Neue,Helvetica,sans-serif; font-size:71px; text-anchor:middle;" transform="rotate(0, 3176.76, 1755.9)" x="3176.76" y="1755.9">24</text>
</g>
<g clip-path="url(#clip8900)">
<text style="fill:#000000; fill-opacity:1; font-family:Arial,Helvetica Neue,Helvetica,sans-serif; font-size:71px; text-anchor:end;" transform="rotate(0, 504.539, 1666.64)" x="504.539" y="1666.64">0</text>
</g>
<g clip-path="url(#clip8900)">
<text style="fill:#000000; fill-opacity:1; font-family:Arial,Helvetica Neue,Helvetica,sans-serif; font-size:71px; text-anchor:end;" transform="rotate(0, 504.539, 1288.02)" x="504.539" y="1288.02">20</text>
</g>
<g clip-path="url(#clip8900)">
<text style="fill:#000000; fill-opacity:1; font-family:Arial,Helvetica Neue,Helvetica,sans-serif; font-size:71px; text-anchor:end;" transform="rotate(0, 504.539, 909.402)" x="504.539" y="909.402">40</text>
</g>
<g clip-path="url(#clip8900)">
<text style="fill:#000000; fill-opacity:1; font-family:Arial,Helvetica Neue,Helvetica,sans-serif; font-size:71px; text-anchor:end;" transform="rotate(0, 504.539, 530.784)" x="504.539" y="530.784">60</text>
</g>
<g clip-path="url(#clip8900)">
<text style="fill:#000000; fill-opacity:1; font-family:Arial,Helvetica Neue,Helvetica,sans-serif; font-size:82px; text-anchor:middle;" transform="rotate(0, 1897.04, 72)" x="1897.04" y="72">Figure 1: Arrival rate for US Bank Callcenter</text>
</g>
<g clip-path="url(#clip8900)">
<text style="fill:#000000; fill-opacity:1; font-family:Arial,Helvetica Neue,Helvetica,sans-serif; font-size:95px; text-anchor:middle;" transform="rotate(0, 1897.04, 1873.75)" x="1897.04" y="1873.75">Time (hours)</text>
</g>
<g clip-path="url(#clip8900)">
<text style="fill:#000000; fill-opacity:1; font-family:Arial,Helvetica Neue,Helvetica,sans-serif; font-size:95px; text-anchor:middle;" transform="rotate(-90, 370.453, 962.12)" x="370.453" y="962.12">Rate (1/min.)</text>
</g>
<polyline clip-path="url(#clip8902)" style="stroke:#009af9; stroke-width:4; stroke-opacity:1; fill:none" points="
  617.323,1545.97 619.101,1546.3 620.88,1546.63 622.658,1546.96 624.437,1547.29 626.216,1547.62 627.994,1547.95 629.773,1548.28 631.552,1548.61 633.33,1548.95 
  635.109,1549.28 636.887,1549.61 638.666,1549.94 640.445,1550.27 642.223,1550.6 644.002,1550.93 645.781,1551.26 647.559,1551.59 649.338,1551.92 651.116,1552.25 
  652.895,1552.58 654.674,1552.91 656.452,1553.24 658.231,1553.57 660.01,1553.9 661.788,1554.23 663.567,1554.56 665.345,1554.89 667.124,1555.22 668.903,1555.55 
  670.681,1555.88 672.46,1556.21 674.239,1556.54 676.017,1556.88 677.796,1557.21 679.574,1557.54 681.353,1557.87 683.132,1558.2 684.91,1558.53 686.689,1558.86 
  688.468,1559.19 690.246,1559.52 692.025,1559.85 693.803,1560.18 695.582,1560.51 697.361,1560.84 699.139,1561.17 700.918,1561.5 702.696,1561.83 704.475,1562.16 
  706.254,1562.49 708.032,1562.82 709.811,1563.15 711.59,1563.48 713.368,1563.81 715.147,1564.14 716.925,1564.47 718.704,1564.81 720.483,1565.14 722.261,1565.47 
  724.04,1585.7 725.819,1586.1 727.597,1586.5 729.376,1586.91 731.154,1587.31 732.933,1587.72 734.712,1588.12 736.49,1588.53 738.269,1588.93 740.048,1589.34 
  741.826,1589.74 743.605,1590.15 745.383,1590.55 747.162,1590.95 748.941,1591.36 750.719,1591.76 752.498,1592.17 754.277,1592.57 756.055,1592.98 757.834,1593.38 
  759.612,1593.79 761.391,1594.19 763.17,1594.59 764.948,1595 766.727,1595.4 768.506,1595.81 770.284,1596.21 772.063,1596.62 773.841,1597.02 775.62,1597.43 
  777.399,1597.83 779.177,1598.23 780.956,1598.64 782.735,1599.04 784.513,1599.45 786.292,1599.85 788.07,1600.26 789.849,1600.66 791.628,1601.07 793.406,1601.47 
  795.185,1601.88 796.963,1602.28 798.742,1602.68 800.521,1603.09 802.299,1603.49 804.078,1603.9 805.857,1604.3 807.635,1604.71 809.414,1605.11 811.192,1605.52 
  812.971,1605.92 814.75,1606.32 816.528,1606.73 818.307,1607.13 820.086,1607.54 821.864,1607.94 823.643,1608.35 825.421,1608.75 827.2,1609.16 828.979,1609.56 
  830.757,1609.72 832.536,1609.87 834.315,1610.03 836.093,1610.18 837.872,1610.34 839.65,1610.49 841.429,1610.65 843.208,1610.8 844.986,1610.96 846.765,1611.11 
  848.544,1611.27 850.322,1611.43 852.101,1611.58 853.879,1611.74 855.658,1611.89 857.437,1612.05 859.215,1612.2 860.994,1612.36 862.773,1612.51 864.551,1612.67 
  866.33,1612.82 868.108,1612.98 869.887,1613.13 871.666,1613.29 873.444,1613.45 875.223,1613.6 877.001,1613.76 878.78,1613.91 880.559,1614.07 882.337,1614.22 
  884.116,1614.38 885.895,1614.53 887.673,1614.69 889.452,1614.84 891.23,1615 893.009,1615.15 894.788,1615.31 896.566,1615.47 898.345,1615.62 900.124,1615.78 
  901.902,1615.93 903.681,1616.09 905.459,1616.24 907.238,1616.4 909.017,1616.55 910.795,1616.71 912.574,1616.86 914.353,1617.02 916.131,1617.17 917.91,1617.33 
  919.688,1617.49 921.467,1617.64 923.246,1617.8 925.024,1617.95 926.803,1618.11 928.582,1618.26 930.36,1618.42 932.139,1618.57 933.917,1618.73 935.696,1618.88 
  937.475,1618.97 939.253,1619.06 941.032,1619.15 942.811,1619.24 944.589,1619.33 946.368,1619.42 948.146,1619.51 949.925,1619.6 951.704,1619.69 953.482,1619.78 
  955.261,1619.87 957.039,1619.96 958.818,1620.05 960.597,1620.14 962.375,1620.23 964.154,1620.32 965.933,1620.41 967.711,1620.51 969.49,1620.6 971.268,1620.69 
  973.047,1620.78 974.826,1620.87 976.604,1620.96 978.383,1621.05 980.162,1621.14 981.94,1621.23 983.719,1621.32 985.497,1621.41 987.276,1621.5 989.055,1621.59 
  990.833,1621.68 992.612,1621.77 994.391,1621.86 996.169,1621.95 997.948,1622.04 999.726,1622.13 1001.51,1622.22 1003.28,1622.31 1005.06,1622.4 1006.84,1622.49 
  1008.62,1622.58 1010.4,1622.67 1012.18,1622.76 1013.96,1622.85 1015.73,1622.94 1017.51,1623.03 1019.29,1623.12 1021.07,1623.21 1022.85,1623.3 1024.63,1623.39 
  1026.41,1623.48 1028.18,1623.57 1029.96,1623.66 1031.74,1623.75 1033.52,1623.84 1035.3,1623.93 1037.08,1624.02 1038.86,1624.11 1040.63,1624.2 1042.41,1624.29 
  1044.19,1624.18 1045.97,1624.08 1047.75,1623.97 1049.53,1623.87 1051.31,1623.76 1053.09,1623.66 1054.86,1623.55 1056.64,1623.45 1058.42,1623.34 1060.2,1623.23 
  1061.98,1623.13 1063.76,1623.02 1065.54,1622.92 1067.31,1622.81 1069.09,1622.71 1070.87,1622.6 1072.65,1622.5 1074.43,1622.39 1076.21,1622.29 1077.99,1622.18 
  1079.76,1622.08 1081.54,1621.97 1083.32,1621.87 1085.1,1621.76 1086.88,1621.66 1088.66,1621.55 1090.44,1621.45 1092.21,1621.34 1093.99,1621.24 1095.77,1621.13 
  1097.55,1621.03 1099.33,1620.92 1101.11,1620.82 1102.89,1620.71 1104.67,1620.61 1106.44,1620.5 1108.22,1620.39 1110,1620.29 1111.78,1620.18 1113.56,1620.08 
  1115.34,1619.97 1117.12,1619.87 1118.89,1619.76 1120.67,1619.66 1122.45,1619.55 1124.23,1619.45 1126.01,1619.34 1127.79,1619.24 1129.57,1619.13 1131.34,1619.03 
  1133.12,1618.92 1134.9,1618.82 1136.68,1618.71 1138.46,1618.61 1140.24,1618.5 1142.02,1618.4 1143.79,1618.29 1145.57,1618.19 1147.35,1618.08 1149.13,1617.98 
  1150.91,1617.17 1152.69,1616.37 1154.47,1615.57 1156.25,1614.77 1158.02,1613.97 1159.8,1613.16 1161.58,1612.36 1163.36,1611.56 1165.14,1610.76 1166.92,1609.96 
  1168.7,1609.16 1170.47,1608.35 1172.25,1607.55 1174.03,1606.75 1175.81,1605.95 1177.59,1605.15 1179.37,1604.34 1181.15,1603.54 1182.92,1602.74 1184.7,1601.94 
  1186.48,1601.14 1188.26,1600.34 1190.04,1599.53 1191.82,1598.73 1193.6,1597.93 1195.37,1597.13 1197.15,1596.33 1198.93,1595.52 1200.71,1594.72 1202.49,1593.92 
  1204.27,1593.12 1206.05,1592.32 1207.83,1591.52 1209.6,1590.71 1211.38,1589.91 1213.16,1589.11 1214.94,1588.31 1216.72,1587.51 1218.5,1586.7 1220.28,1585.9 
  1222.05,1585.1 1223.83,1584.3 1225.61,1583.5 1227.39,1582.7 1229.17,1581.89 1230.95,1581.09 1232.73,1580.29 1234.5,1579.49 1236.28,1578.69 1238.06,1577.88 
  1239.84,1577.08 1241.62,1576.28 1243.4,1575.48 1245.18,1574.68 1246.95,1573.88 1248.73,1573.07 1250.51,1572.27 1252.29,1571.47 1254.07,1570.67 1255.85,1569.87 
  1257.63,1567.61 1259.41,1565.36 1261.18,1563.1 1262.96,1560.85 1264.74,1558.6 1266.52,1556.34 1268.3,1554.09 1270.08,1551.83 1271.86,1549.58 1273.63,1547.33 
  1275.41,1545.07 1277.19,1542.82 1278.97,1540.56 1280.75,1538.31 1282.53,1536.06 1284.31,1533.8 1286.08,1531.55 1287.86,1529.29 1289.64,1527.04 1291.42,1524.78 
  1293.2,1522.53 1294.98,1520.28 1296.76,1518.02 1298.53,1515.77 1300.31,1513.51 1302.09,1511.26 1303.87,1509.01 1305.65,1506.75 1307.43,1504.5 1309.21,1502.24 
  1310.99,1499.99 1312.76,1497.74 1314.54,1495.48 1316.32,1493.23 1318.1,1490.97 1319.88,1488.72 1321.66,1486.46 1323.44,1484.21 1325.21,1481.96 1326.99,1479.7 
  1328.77,1477.45 1330.55,1475.19 1332.33,1472.94 1334.11,1470.69 1335.89,1468.43 1337.66,1466.18 1339.44,1463.92 1341.22,1461.67 1343,1459.42 1344.78,1457.16 
  1346.56,1454.91 1348.34,1452.65 1350.12,1450.4 1351.89,1448.15 1353.67,1445.89 1355.45,1443.64 1357.23,1441.38 1359.01,1439.13 1360.79,1436.87 1362.57,1434.62 
  1364.34,1431.27 1366.12,1427.91 1367.9,1424.56 1369.68,1421.2 1371.46,1417.85 1373.24,1414.5 1375.02,1411.14 1376.79,1407.79 1378.57,1404.43 1380.35,1401.08 
  1382.13,1397.73 1383.91,1394.37 1385.69,1391.02 1387.47,1387.66 1389.24,1384.31 1391.02,1380.96 1392.8,1377.6 1394.58,1374.25 1396.36,1370.89 1398.14,1367.54 
  1399.92,1364.19 1401.7,1360.83 1403.47,1357.48 1405.25,1354.12 1407.03,1350.77 1408.81,1347.42 1410.59,1344.06 1412.37,1340.71 1414.15,1337.35 1415.92,1334 
  1417.7,1330.65 1419.48,1327.29 1421.26,1323.94 1423.04,1320.58 1424.82,1317.23 1426.6,1313.88 1428.37,1310.52 1430.15,1307.17 1431.93,1303.81 1433.71,1300.46 
  1435.49,1297.11 1437.27,1293.75 1439.05,1290.4 1440.82,1287.04 1442.6,1283.69 1444.38,1280.34 1446.16,1276.98 1447.94,1273.63 1449.72,1270.27 1451.5,1266.92 
  1453.28,1263.57 1455.05,1260.21 1456.83,1256.86 1458.61,1253.5 1460.39,1250.15 1462.17,1246.8 1463.95,1243.44 1465.73,1240.09 1467.5,1236.73 1469.28,1233.38 
  1471.06,1223.79 1472.84,1214.19 1474.62,1204.6 1476.4,1195.01 1478.18,1185.41 1479.95,1175.82 1481.73,1166.23 1483.51,1156.64 1485.29,1147.04 1487.07,1137.45 
  1488.85,1127.86 1490.63,1118.26 1492.4,1108.67 1494.18,1099.08 1495.96,1089.48 1497.74,1079.89 1499.52,1070.3 1501.3,1060.7 1503.08,1051.11 1504.86,1041.52 
  1506.63,1031.93 1508.41,1022.33 1510.19,1012.74 1511.97,1003.15 1513.75,993.553 1515.53,983.96 1517.31,974.367 1519.08,964.774 1520.86,955.181 1522.64,945.588 
  1524.42,935.995 1526.2,926.402 1527.98,916.809 1529.76,907.216 1531.53,897.623 1533.31,888.03 1535.09,878.437 1536.87,868.844 1538.65,859.25 1540.43,849.657 
  1542.21,840.064 1543.98,830.471 1545.76,820.878 1547.54,811.285 1549.32,801.692 1551.1,792.099 1552.88,782.506 1554.66,772.913 1556.44,763.32 1558.21,753.727 
  1559.99,744.134 1561.77,734.541 1563.55,724.947 1565.33,715.354 1567.11,705.761 1568.89,696.168 1570.66,686.575 1572.44,676.982 1574.22,667.389 1576,657.796 
  1577.78,651.651 1579.56,645.507 1581.34,639.362 1583.11,633.217 1584.89,627.073 1586.67,620.928 1588.45,614.783 1590.23,608.639 1592.01,602.494 1593.79,596.349 
  1595.56,590.205 1597.34,584.06 1599.12,577.915 1600.9,571.771 1602.68,565.626 1604.46,559.482 1606.24,553.337 1608.02,547.192 1609.79,541.048 1611.57,534.903 
  1613.35,528.758 1615.13,522.614 1616.91,516.469 1618.69,510.324 1620.47,504.18 1622.24,498.035 1624.02,491.89 1625.8,485.746 1627.58,479.601 1629.36,473.456 
  1631.14,467.312 1632.92,461.167 1634.69,455.022 1636.47,448.878 1638.25,442.733 1640.03,436.588 1641.81,430.444 1643.59,424.299 1645.37,418.155 1647.14,412.01 
  1648.92,405.865 1650.7,399.721 1652.48,393.576 1654.26,387.431 1656.04,381.287 1657.82,375.142 1659.6,368.997 1661.37,362.853 1663.15,356.708 1664.93,350.563 
  1666.71,344.419 1668.49,338.274 1670.27,332.129 1672.05,325.985 1673.82,319.84 1675.6,313.695 1677.38,307.551 1679.16,301.406 1680.94,295.261 1682.72,289.117 
  1684.5,289.632 1686.27,290.147 1688.05,290.662 1689.83,291.177 1691.61,291.692 1693.39,292.208 1695.17,292.723 1696.95,293.238 1698.73,293.753 1700.5,294.268 
  1702.28,294.783 1704.06,295.298 1705.84,295.814 1707.62,296.329 1709.4,296.844 1711.18,297.359 1712.95,297.874 1714.73,298.389 1716.51,298.904 1718.29,299.419 
  1720.07,299.935 1721.85,300.45 1723.63,300.965 1725.4,301.48 1727.18,301.995 1728.96,302.51 1730.74,303.025 1732.52,303.541 1734.3,304.056 1736.08,304.571 
  1737.85,305.086 1739.63,305.601 1741.41,306.116 1743.19,306.631 1744.97,307.146 1746.75,307.662 1748.53,308.177 1750.31,308.692 1752.08,309.207 1753.86,309.722 
  1755.64,310.237 1757.42,310.752 1759.2,311.267 1760.98,311.783 1762.76,312.298 1764.53,312.813 1766.31,313.328 1768.09,313.843 1769.87,314.358 1771.65,314.873 
  1773.43,315.389 1775.21,315.904 1776.98,316.419 1778.76,316.934 1780.54,317.449 1782.32,317.964 1784.1,318.479 1785.88,318.994 1787.66,319.51 1789.43,320.025 
  1791.21,321.279 1792.99,322.533 1794.77,323.787 1796.55,325.041 1798.33,326.295 1800.11,327.549 1801.89,328.803 1803.66,330.057 1805.44,331.311 1807.22,332.565 
  1809,333.819 1810.78,335.073 1812.56,336.328 1814.34,337.582 1816.11,338.836 1817.89,340.09 1819.67,341.344 1821.45,342.598 1823.23,343.852 1825.01,345.106 
  1826.79,346.36 1828.56,347.614 1830.34,348.868 1832.12,350.122 1833.9,351.376 1835.68,352.63 1837.46,353.884 1839.24,355.139 1841.01,356.393 1842.79,357.647 
  1844.57,358.901 1846.35,360.155 1848.13,361.409 1849.91,362.663 1851.69,363.917 1853.47,365.171 1855.24,366.425 1857.02,367.679 1858.8,368.933 1860.58,370.187 
  1862.36,371.441 1864.14,372.695 1865.92,373.95 1867.69,375.204 1869.47,376.458 1871.25,377.712 1873.03,378.966 1874.81,380.22 1876.59,381.474 1878.37,382.728 
  1880.14,383.982 1881.92,385.236 1883.7,386.49 1885.48,387.744 1887.26,388.998 1889.04,390.252 1890.82,391.506 1892.59,392.761 1894.37,394.015 1896.15,395.269 
  1897.93,396.993 1899.71,398.718 1901.49,400.442 1903.27,402.166 1905.05,403.891 1906.82,405.615 1908.6,407.34 1910.38,409.064 1912.16,410.789 1913.94,412.513 
  1915.72,414.238 1917.5,415.962 1919.27,417.686 1921.05,419.411 1922.83,421.135 1924.61,422.86 1926.39,424.584 1928.17,426.309 1929.95,428.033 1931.72,429.758 
  1933.5,431.482 1935.28,433.206 1937.06,434.931 1938.84,436.655 1940.62,438.38 1942.4,440.104 1944.17,441.829 1945.95,443.553 1947.73,445.278 1949.51,447.002 
  1951.29,448.727 1953.07,450.451 1954.85,452.175 1956.63,453.9 1958.4,455.624 1960.18,457.349 1961.96,459.073 1963.74,460.798 1965.52,462.522 1967.3,464.247 
  1969.08,465.971 1970.85,467.695 1972.63,469.42 1974.41,471.144 1976.19,472.869 1977.97,474.593 1979.75,476.318 1981.53,478.042 1983.3,479.767 1985.08,481.491 
  1986.86,483.215 1988.64,484.94 1990.42,486.664 1992.2,488.389 1993.98,490.113 1995.75,491.838 1997.53,493.562 1999.31,495.287 2001.09,497.011 2002.87,498.735 
  2004.65,498.538 2006.43,498.341 2008.21,498.144 2009.98,497.947 2011.76,497.75 2013.54,497.553 2015.32,497.355 2017.1,497.158 2018.88,496.961 2020.66,496.764 
  2022.43,496.567 2024.21,496.37 2025.99,496.173 2027.77,495.975 2029.55,495.778 2031.33,495.581 2033.11,495.384 2034.88,495.187 2036.66,494.99 2038.44,494.793 
  2040.22,494.595 2042,494.398 2043.78,494.201 2045.56,494.004 2047.33,493.807 2049.11,493.61 2050.89,493.413 2052.67,493.215 2054.45,493.018 2056.23,492.821 
  2058.01,492.624 2059.79,492.427 2061.56,492.23 2063.34,492.033 2065.12,491.835 2066.9,491.638 2068.68,491.441 2070.46,491.244 2072.24,491.047 2074.01,490.85 
  2075.79,490.653 2077.57,490.455 2079.35,490.258 2081.13,490.061 2082.91,489.864 2084.69,489.667 2086.46,489.47 2088.24,489.273 2090.02,489.075 2091.8,488.878 
  2093.58,488.681 2095.36,488.484 2097.14,488.287 2098.92,488.09 2100.69,487.893 2102.47,487.695 2104.25,487.498 2106.03,487.301 2107.81,487.104 2109.59,486.907 
  2111.37,487.73 2113.14,488.553 2114.92,489.376 2116.7,490.199 2118.48,491.022 2120.26,491.845 2122.04,492.668 2123.82,493.491 2125.59,494.314 2127.37,495.136 
  2129.15,495.959 2130.93,496.782 2132.71,497.605 2134.49,498.428 2136.27,499.251 2138.04,500.074 2139.82,500.897 2141.6,501.72 2143.38,502.543 2145.16,503.366 
  2146.94,504.189 2148.72,505.012 2150.5,505.835 2152.27,506.658 2154.05,507.481 2155.83,508.304 2157.61,509.127 2159.39,509.95 2161.17,510.773 2162.95,511.596 
  2164.72,512.419 2166.5,513.242 2168.28,514.065 2170.06,514.888 2171.84,515.711 2173.62,516.534 2175.4,517.357 2177.17,518.18 2178.95,519.003 2180.73,519.826 
  2182.51,520.648 2184.29,521.471 2186.07,522.294 2187.85,523.117 2189.62,523.94 2191.4,524.763 2193.18,525.586 2194.96,526.409 2196.74,527.232 2198.52,528.055 
  2200.3,528.878 2202.08,529.701 2203.85,530.524 2205.63,531.347 2207.41,532.17 2209.19,532.993 2210.97,533.816 2212.75,534.639 2214.53,535.462 2216.3,536.285 
  2218.08,537.633 2219.86,538.981 2221.64,540.329 2223.42,541.677 2225.2,543.026 2226.98,544.374 2228.75,545.722 2230.53,547.07 2232.31,548.418 2234.09,549.766 
  2235.87,551.114 2237.65,552.463 2239.43,553.811 2241.2,555.159 2242.98,556.507 2244.76,557.855 2246.54,559.203 2248.32,560.551 2250.1,561.9 2251.88,563.248 
  2253.66,564.596 2255.43,565.944 2257.21,567.292 2258.99,568.64 2260.77,569.988 2262.55,571.337 2264.33,572.685 2266.11,574.033 2267.88,575.381 2269.66,576.729 
  2271.44,578.077 2273.22,579.425 2275,580.774 2276.78,582.122 2278.56,583.47 2280.33,584.818 2282.11,586.166 2283.89,587.514 2285.67,588.862 2287.45,590.211 
  2289.23,591.559 2291.01,592.907 2292.78,594.255 2294.56,595.603 2296.34,596.951 2298.12,598.299 2299.9,599.648 2301.68,600.996 2303.46,602.344 2305.24,603.692 
  2307.01,605.04 2308.79,606.388 2310.57,607.736 2312.35,609.085 2314.13,610.433 2315.91,611.781 2317.69,613.129 2319.46,614.477 2321.24,615.825 2323.02,617.173 
  2324.8,621.346 2326.58,625.518 2328.36,629.69 2330.14,633.863 2331.91,638.035 2333.69,642.207 2335.47,646.38 2337.25,650.552 2339.03,654.724 2340.81,658.897 
  2342.59,663.069 2344.36,667.241 2346.14,671.414 2347.92,675.586 2349.7,679.758 2351.48,683.93 2353.26,688.103 2355.04,692.275 2356.82,696.447 2358.59,700.62 
  2360.37,704.792 2362.15,708.964 2363.93,713.137 2365.71,717.309 2367.49,721.481 2369.27,725.654 2371.04,729.826 2372.82,733.998 2374.6,738.171 2376.38,742.343 
  2378.16,746.515 2379.94,750.688 2381.72,754.86 2383.49,759.032 2385.27,763.204 2387.05,767.377 2388.83,771.549 2390.61,775.721 2392.39,779.894 2394.17,784.066 
  2395.94,788.238 2397.72,792.411 2399.5,796.583 2401.28,800.755 2403.06,804.928 2404.84,809.1 2406.62,813.272 2408.4,817.445 2410.17,821.617 2411.95,825.789 
  2413.73,829.962 2415.51,834.134 2417.29,838.306 2419.07,842.478 2420.85,846.651 2422.62,850.823 2424.4,854.995 2426.18,859.168 2427.96,863.34 2429.74,867.512 
  2431.52,870.721 2433.3,873.93 2435.07,877.138 2436.85,880.347 2438.63,883.556 2440.41,886.764 2442.19,889.973 2443.97,893.182 2445.75,896.39 2447.53,899.599 
  2449.3,902.808 2451.08,906.017 2452.86,909.225 2454.64,912.434 2456.42,915.643 2458.2,918.851 2459.98,922.06 2461.75,925.269 2463.53,928.477 2465.31,931.686 
  2467.09,934.895 2468.87,938.103 2470.65,941.312 2472.43,944.521 2474.2,947.729 2475.98,950.938 2477.76,954.147 2479.54,957.355 2481.32,960.564 2483.1,963.773 
  2484.88,966.981 2486.65,970.19 2488.43,973.399 2490.21,976.608 2491.99,979.816 2493.77,983.025 2495.55,986.234 2497.33,989.442 2499.11,992.651 2500.88,995.86 
  2502.66,999.068 2504.44,1002.28 2506.22,1005.49 2508,1008.69 2509.78,1011.9 2511.56,1015.11 2513.33,1018.32 2515.11,1021.53 2516.89,1024.74 2518.67,1027.95 
  2520.45,1031.16 2522.23,1034.36 2524.01,1037.57 2525.78,1040.78 2527.56,1043.99 2529.34,1047.2 2531.12,1050.41 2532.9,1053.62 2534.68,1056.82 2536.46,1060.03 
  2538.23,1062 2540.01,1063.98 2541.79,1065.95 2543.57,1067.92 2545.35,1069.89 2547.13,1071.86 2548.91,1073.83 2550.69,1075.81 2552.46,1077.78 2554.24,1079.75 
  2556.02,1081.72 2557.8,1083.69 2559.58,1085.66 2561.36,1087.64 2563.14,1089.61 2564.91,1091.58 2566.69,1093.55 2568.47,1095.52 2570.25,1097.49 2572.03,1099.47 
  2573.81,1101.44 2575.59,1103.41 2577.36,1105.38 2579.14,1107.35 2580.92,1109.32 2582.7,1111.29 2584.48,1113.27 2586.26,1115.24 2588.04,1117.21 2589.81,1119.18 
  2591.59,1121.15 2593.37,1123.12 2595.15,1125.1 2596.93,1127.07 2598.71,1129.04 2600.49,1131.01 2602.27,1132.98 2604.04,1134.95 2605.82,1136.93 2607.6,1138.9 
  2609.38,1140.87 2611.16,1142.84 2612.94,1144.81 2614.72,1146.78 2616.49,1148.76 2618.27,1150.73 2620.05,1152.7 2621.83,1154.67 2623.61,1156.64 2625.39,1158.61 
  2627.17,1160.58 2628.94,1162.56 2630.72,1164.53 2632.5,1166.5 2634.28,1168.47 2636.06,1170.44 2637.84,1172.41 2639.62,1174.39 2641.39,1176.36 2643.17,1178.33 
  2644.95,1179.43 2646.73,1180.54 2648.51,1181.64 2650.29,1182.75 2652.07,1183.85 2653.85,1184.96 2655.62,1186.06 2657.4,1187.17 2659.18,1188.27 2660.96,1189.38 
  2662.74,1190.48 2664.52,1191.59 2666.3,1192.69 2668.07,1193.8 2669.85,1194.9 2671.63,1196.01 2673.41,1197.11 2675.19,1198.22 2676.97,1199.32 2678.75,1200.43 
  2680.52,1201.53 2682.3,1202.64 2684.08,1203.74 2685.86,1204.85 2687.64,1205.95 2689.42,1207.06 2691.2,1208.16 2692.97,1209.27 2694.75,1210.37 2696.53,1211.48 
  2698.31,1212.58 2700.09,1213.69 2701.87,1214.79 2703.65,1215.9 2705.43,1217 2707.2,1218.1 2708.98,1219.21 2710.76,1220.31 2712.54,1221.42 2714.32,1222.52 
  2716.1,1223.63 2717.88,1224.73 2719.65,1225.84 2721.43,1226.94 2723.21,1228.05 2724.99,1229.15 2726.77,1230.26 2728.55,1231.36 2730.33,1232.47 2732.1,1233.57 
  2733.88,1234.68 2735.66,1235.78 2737.44,1236.89 2739.22,1237.99 2741,1239.1 2742.78,1240.2 2744.55,1241.31 2746.33,1242.41 2748.11,1243.52 2749.89,1244.62 
  2751.67,1245.67 2753.45,1246.72 2755.23,1247.77 2757.01,1248.81 2758.78,1249.86 2760.56,1250.91 2762.34,1251.96 2764.12,1253 2765.9,1254.05 2767.68,1255.1 
  2769.46,1256.15 2771.23,1257.2 2773.01,1258.24 2774.79,1259.29 2776.57,1260.34 2778.35,1261.39 2780.13,1262.43 2781.91,1263.48 2783.68,1264.53 2785.46,1265.58 
  2787.24,1266.63 2789.02,1267.67 2790.8,1268.72 2792.58,1269.77 2794.36,1270.82 2796.13,1271.86 2797.91,1272.91 2799.69,1273.96 2801.47,1275.01 2803.25,1276.06 
  2805.03,1277.1 2806.81,1278.15 2808.59,1279.2 2810.36,1280.25 2812.14,1281.29 2813.92,1282.34 2815.7,1283.39 2817.48,1284.44 2819.26,1285.49 2821.04,1286.53 
  2822.81,1287.58 2824.59,1288.63 2826.37,1289.68 2828.15,1290.72 2829.93,1291.77 2831.71,1292.82 2833.49,1293.87 2835.26,1294.92 2837.04,1295.96 2838.82,1297.01 
  2840.6,1298.06 2842.38,1299.11 2844.16,1300.15 2845.94,1301.2 2847.72,1302.25 2849.49,1303.3 2851.27,1304.35 2853.05,1305.39 2854.83,1306.44 2856.61,1307.49 
  2858.39,1308.76 2860.17,1310.02 2861.94,1311.29 2863.72,1312.56 2865.5,1313.83 2867.28,1315.1 2869.06,1316.36 2870.84,1317.63 2872.62,1318.9 2874.39,1320.17 
  2876.17,1321.44 2877.95,1322.7 2879.73,1323.97 2881.51,1325.24 2883.29,1326.51 2885.07,1327.78 2886.84,1329.04 2888.62,1330.31 2890.4,1331.58 2892.18,1332.85 
  2893.96,1334.12 2895.74,1335.38 2897.52,1336.65 2899.3,1337.92 2901.07,1339.19 2902.85,1340.46 2904.63,1341.72 2906.41,1342.99 2908.19,1344.26 2909.97,1345.53 
  2911.75,1346.8 2913.52,1348.06 2915.3,1349.33 2917.08,1350.6 2918.86,1351.87 2920.64,1353.14 2922.42,1354.4 2924.2,1355.67 2925.97,1356.94 2927.75,1358.21 
  2929.53,1359.48 2931.31,1360.74 2933.09,1362.01 2934.87,1363.28 2936.65,1364.55 2938.42,1365.82 2940.2,1367.08 2941.98,1368.35 2943.76,1369.62 2945.54,1370.89 
  2947.32,1372.16 2949.1,1373.42 2950.88,1374.69 2952.65,1375.96 2954.43,1377.23 2956.21,1378.5 2957.99,1379.76 2959.77,1381.03 2961.55,1382.3 2963.33,1383.57 
  2965.1,1384.77 2966.88,1385.97 2968.66,1387.17 2970.44,1388.37 2972.22,1389.58 2974,1390.78 2975.78,1391.98 2977.55,1393.18 2979.33,1394.38 2981.11,1395.59 
  2982.89,1396.79 2984.67,1397.99 2986.45,1399.19 2988.23,1400.39 2990,1401.6 2991.78,1402.8 2993.56,1404 2995.34,1405.2 2997.12,1406.4 2998.9,1407.61 
  3000.68,1408.81 3002.46,1410.01 3004.23,1411.21 3006.01,1412.41 3007.79,1413.62 3009.57,1414.82 3011.35,1416.02 3013.13,1417.22 3014.91,1418.42 3016.68,1419.63 
  3018.46,1420.83 3020.24,1422.03 3022.02,1423.23 3023.8,1424.43 3025.58,1425.63 3027.36,1426.84 3029.13,1428.04 3030.91,1429.24 3032.69,1430.44 3034.47,1431.64 
  3036.25,1432.85 3038.03,1434.05 3039.81,1435.25 3041.58,1436.45 3043.36,1437.65 3045.14,1438.86 3046.92,1440.06 3048.7,1441.26 3050.48,1442.46 3052.26,1443.66 
  3054.04,1444.87 3055.81,1446.07 3057.59,1447.27 3059.37,1448.47 3061.15,1449.67 3062.93,1450.88 3064.71,1452.08 3066.49,1453.28 3068.26,1454.48 3070.04,1455.68 
  3071.82,1456.96 3073.6,1458.24 3075.38,1459.52 3077.16,1460.8 3078.94,1462.08 3080.71,1463.36 3082.49,1464.64 3084.27,1465.93 3086.05,1467.21 3087.83,1468.49 
  3089.61,1469.77 3091.39,1471.05 3093.16,1472.33 3094.94,1473.61 3096.72,1474.89 3098.5,1476.17 3100.28,1477.45 3102.06,1478.73 3103.84,1480.01 3105.62,1481.29 
  3107.39,1482.57 3109.17,1483.85 3110.95,1485.13 3112.73,1486.41 3114.51,1487.69 3116.29,1488.97 3118.07,1490.25 3119.84,1491.53 3121.62,1492.81 3123.4,1494.09 
  3125.18,1495.37 3126.96,1496.65 3128.74,1497.93 3130.52,1499.21 3132.29,1500.49 3134.07,1501.77 3135.85,1503.05 3137.63,1504.33 3139.41,1505.61 3141.19,1506.89 
  3142.97,1508.17 3144.74,1509.45 3146.52,1510.73 3148.3,1512.01 3150.08,1513.29 3151.86,1514.57 3153.64,1515.85 3155.42,1517.13 3157.2,1518.42 3158.97,1519.7 
  3160.75,1520.98 3162.53,1522.26 3164.31,1523.54 3166.09,1524.82 3167.87,1526.1 3169.65,1527.38 3171.42,1528.66 3173.2,1529.94 3174.98,1531.22 3176.76,1532.5 
  
  "/>
<polyline clip-path="url(#clip8902)" style="stroke:#008000; stroke-width:4; stroke-opacity:1; fill:none" points="
  617.323,1629.91 619.101,1629.91 620.88,1629.91 622.658,1629.91 624.437,1629.91 626.216,1629.91 627.994,1629.91 629.773,1629.91 631.552,1629.91 633.33,1629.91 
  635.109,1629.91 636.887,1629.91 638.666,1629.91 640.445,1629.91 642.223,1629.91 644.002,1629.91 645.781,1629.91 647.559,1629.91 649.338,1629.91 651.116,1629.91 
  652.895,1629.91 654.674,1629.91 656.452,1629.91 658.231,1629.91 660.01,1629.91 661.788,1629.91 663.567,1629.91 665.345,1629.91 667.124,1629.91 668.903,1629.91 
  670.681,1629.91 672.46,1629.91 674.239,1629.91 676.017,1629.91 677.796,1629.91 679.574,1629.91 681.353,1629.91 683.132,1629.91 684.91,1629.91 686.689,1629.91 
  688.468,1629.91 690.246,1629.91 692.025,1629.91 693.803,1629.91 695.582,1629.91 697.361,1629.91 699.139,1629.91 700.918,1629.91 702.696,1629.91 704.475,1629.91 
  706.254,1629.91 708.032,1629.91 709.811,1629.91 711.59,1629.91 713.368,1629.91 715.147,1629.91 716.925,1629.91 718.704,1629.91 720.483,1629.91 722.261,1629.91 
  724.04,1629.83 725.819,1629.83 727.597,1629.83 729.376,1629.83 731.154,1629.83 732.933,1629.83 734.712,1629.83 736.49,1629.83 738.269,1629.83 740.048,1629.83 
  741.826,1629.83 743.605,1629.83 745.383,1629.83 747.162,1629.83 748.941,1629.83 750.719,1629.83 752.498,1629.83 754.277,1629.83 756.055,1629.83 757.834,1629.83 
  759.612,1629.83 761.391,1629.83 763.17,1629.83 764.948,1629.83 766.727,1629.83 768.506,1629.83 770.284,1629.83 772.063,1629.83 773.841,1629.83 775.62,1629.83 
  777.399,1629.83 779.177,1629.83 780.956,1629.83 782.735,1629.83 784.513,1629.83 786.292,1629.83 788.07,1629.83 789.849,1629.83 791.628,1629.83 793.406,1629.83 
  795.185,1629.83 796.963,1629.83 798.742,1629.83 800.521,1629.83 802.299,1629.83 804.078,1629.83 805.857,1629.83 807.635,1629.83 809.414,1629.83 811.192,1629.83 
  812.971,1629.83 814.75,1629.83 816.528,1629.83 818.307,1629.83 820.086,1629.83 821.864,1629.83 823.643,1629.83 825.421,1629.83 827.2,1629.83 828.979,1629.83 
  830.757,1630.56 832.536,1630.56 834.315,1630.56 836.093,1630.56 837.872,1630.56 839.65,1630.56 841.429,1630.56 843.208,1630.56 844.986,1630.56 846.765,1630.56 
  848.544,1630.56 850.322,1630.56 852.101,1630.56 853.879,1630.56 855.658,1630.56 857.437,1630.56 859.215,1630.56 860.994,1630.56 862.773,1630.56 864.551,1630.56 
  866.33,1630.56 868.108,1630.56 869.887,1630.56 871.666,1630.56 873.444,1630.56 875.223,1630.56 877.001,1630.56 878.78,1630.56 880.559,1630.56 882.337,1630.56 
  884.116,1630.56 885.895,1630.56 887.673,1630.56 889.452,1630.56 891.23,1630.56 893.009,1630.56 894.788,1630.56 896.566,1630.56 898.345,1630.56 900.124,1630.56 
  901.902,1630.56 903.681,1630.56 905.459,1630.56 907.238,1630.56 909.017,1630.56 910.795,1630.56 912.574,1630.56 914.353,1630.56 916.131,1630.56 917.91,1630.56 
  919.688,1630.56 921.467,1630.56 923.246,1630.56 925.024,1630.56 926.803,1630.56 928.582,1630.56 930.36,1630.56 932.139,1630.56 933.917,1630.56 935.696,1630.56 
  937.475,1635.12 939.253,1635.12 941.032,1635.12 942.811,1635.12 944.589,1635.12 946.368,1635.12 948.146,1635.12 949.925,1635.12 951.704,1635.12 953.482,1635.12 
  955.261,1635.12 957.039,1635.12 958.818,1635.12 960.597,1635.12 962.375,1635.12 964.154,1635.12 965.933,1635.12 967.711,1635.12 969.49,1635.12 971.268,1635.12 
  973.047,1635.12 974.826,1635.12 976.604,1635.12 978.383,1635.12 980.162,1635.12 981.94,1635.12 983.719,1635.12 985.497,1635.12 987.276,1635.12 989.055,1635.12 
  990.833,1635.12 992.612,1635.12 994.391,1635.12 996.169,1635.12 997.948,1635.12 999.726,1635.12 1001.51,1635.12 1003.28,1635.12 1005.06,1635.12 1006.84,1635.12 
  1008.62,1635.12 1010.4,1635.12 1012.18,1635.12 1013.96,1635.12 1015.73,1635.12 1017.51,1635.12 1019.29,1635.12 1021.07,1635.12 1022.85,1635.12 1024.63,1635.12 
  1026.41,1635.12 1028.18,1635.12 1029.96,1635.12 1031.74,1635.12 1033.52,1635.12 1035.3,1635.12 1037.08,1635.12 1038.86,1635.12 1040.63,1635.12 1042.41,1635.12 
  1044.19,1631.32 1045.97,1631.32 1047.75,1631.32 1049.53,1631.32 1051.31,1631.32 1053.09,1631.32 1054.86,1631.32 1056.64,1631.32 1058.42,1631.32 1060.2,1631.32 
  1061.98,1631.32 1063.76,1631.32 1065.54,1631.32 1067.31,1631.32 1069.09,1631.32 1070.87,1631.32 1072.65,1631.32 1074.43,1631.32 1076.21,1631.32 1077.99,1631.32 
  1079.76,1631.32 1081.54,1631.32 1083.32,1631.32 1085.1,1631.32 1086.88,1631.32 1088.66,1631.32 1090.44,1631.32 1092.21,1631.32 1093.99,1631.32 1095.77,1631.32 
  1097.55,1631.32 1099.33,1631.32 1101.11,1631.32 1102.89,1631.32 1104.67,1631.32 1106.44,1631.32 1108.22,1631.32 1110,1631.32 1111.78,1631.32 1113.56,1631.32 
  1115.34,1631.32 1117.12,1631.32 1118.89,1631.32 1120.67,1631.32 1122.45,1631.32 1124.23,1631.32 1126.01,1631.32 1127.79,1631.32 1129.57,1631.32 1131.34,1631.32 
  1133.12,1631.32 1134.9,1631.32 1136.68,1631.32 1138.46,1631.32 1140.24,1631.32 1142.02,1631.32 1143.79,1631.32 1145.57,1631.32 1147.35,1631.32 1149.13,1631.32 
  1150.91,1629.86 1152.69,1629.86 1154.47,1629.86 1156.25,1629.86 1158.02,1629.86 1159.8,1629.86 1161.58,1629.86 1163.36,1629.86 1165.14,1629.86 1166.92,1629.86 
  1168.7,1629.86 1170.47,1629.86 1172.25,1629.86 1174.03,1629.86 1175.81,1629.86 1177.59,1629.86 1179.37,1629.86 1181.15,1629.86 1182.92,1629.86 1184.7,1629.86 
  1186.48,1629.86 1188.26,1629.86 1190.04,1629.86 1191.82,1629.86 1193.6,1629.86 1195.37,1629.86 1197.15,1629.86 1198.93,1629.86 1200.71,1629.86 1202.49,1629.86 
  1204.27,1629.86 1206.05,1629.86 1207.83,1629.86 1209.6,1629.86 1211.38,1629.86 1213.16,1629.86 1214.94,1629.86 1216.72,1629.86 1218.5,1629.86 1220.28,1629.86 
  1222.05,1629.86 1223.83,1629.86 1225.61,1629.86 1227.39,1629.86 1229.17,1629.86 1230.95,1629.86 1232.73,1629.86 1234.5,1629.86 1236.28,1629.86 1238.06,1629.86 
  1239.84,1629.86 1241.62,1629.86 1243.4,1629.86 1245.18,1629.86 1246.95,1629.86 1248.73,1629.86 1250.51,1629.86 1252.29,1629.86 1254.07,1629.86 1255.85,1629.86 
  1257.63,1507.43 1259.41,1507.43 1261.18,1507.43 1262.96,1507.43 1264.74,1507.43 1266.52,1507.43 1268.3,1507.43 1270.08,1507.43 1271.86,1507.43 1273.63,1507.43 
  1275.41,1507.43 1277.19,1507.43 1278.97,1507.43 1280.75,1507.43 1282.53,1507.43 1284.31,1507.43 1286.08,1507.43 1287.86,1507.43 1289.64,1507.43 1291.42,1507.43 
  1293.2,1507.43 1294.98,1507.43 1296.76,1507.43 1298.53,1507.43 1300.31,1507.43 1302.09,1507.43 1303.87,1507.43 1305.65,1507.43 1307.43,1507.43 1309.21,1507.43 
  1310.99,1507.43 1312.76,1507.43 1314.54,1507.43 1316.32,1507.43 1318.1,1507.43 1319.88,1507.43 1321.66,1507.43 1323.44,1507.43 1325.21,1507.43 1326.99,1507.43 
  1328.77,1507.43 1330.55,1507.43 1332.33,1507.43 1334.11,1507.43 1335.89,1507.43 1337.66,1507.43 1339.44,1507.43 1341.22,1507.43 1343,1507.43 1344.78,1507.43 
  1346.56,1507.43 1348.34,1507.43 1350.12,1507.43 1351.89,1507.43 1353.67,1507.43 1355.45,1507.43 1357.23,1507.43 1359.01,1507.43 1360.79,1507.43 1362.57,1507.43 
  1364.34,1172.72 1366.12,1172.72 1367.9,1172.72 1369.68,1172.72 1371.46,1172.72 1373.24,1172.72 1375.02,1172.72 1376.79,1172.72 1378.57,1172.72 1380.35,1172.72 
  1382.13,1172.72 1383.91,1172.72 1385.69,1172.72 1387.47,1172.72 1389.24,1172.72 1391.02,1172.72 1392.8,1172.72 1394.58,1172.72 1396.36,1172.72 1398.14,1172.72 
  1399.92,1172.72 1401.7,1172.72 1403.47,1172.72 1405.25,1172.72 1407.03,1172.72 1408.81,1172.72 1410.59,1172.72 1412.37,1172.72 1414.15,1172.72 1415.92,1172.72 
  1417.7,1172.72 1419.48,1172.72 1421.26,1172.72 1423.04,1172.72 1424.82,1172.72 1426.6,1172.72 1428.37,1172.72 1430.15,1172.72 1431.93,1172.72 1433.71,1172.72 
  1435.49,1172.72 1437.27,1172.72 1439.05,1172.72 1440.82,1172.72 1442.6,1172.72 1444.38,1172.72 1446.16,1172.72 1447.94,1172.72 1449.72,1172.72 1451.5,1172.72 
  1453.28,1172.72 1455.05,1172.72 1456.83,1172.72 1458.61,1172.72 1460.39,1172.72 1462.17,1172.72 1463.95,1172.72 1465.73,1172.72 1467.5,1172.72 1469.28,1172.72 
  1471.06,809.969 1472.84,809.969 1474.62,809.969 1476.4,809.969 1478.18,809.969 1479.95,809.969 1481.73,809.969 1483.51,809.969 1485.29,809.969 1487.07,809.969 
  1488.85,809.969 1490.63,809.969 1492.4,809.969 1494.18,809.969 1495.96,809.969 1497.74,809.969 1499.52,809.969 1501.3,809.969 1503.08,809.969 1504.86,809.969 
  1506.63,809.969 1508.41,809.969 1510.19,809.969 1511.97,809.969 1513.75,809.969 1515.53,809.969 1517.31,809.969 1519.08,809.969 1520.86,809.969 1522.64,809.969 
  1524.42,809.969 1526.2,809.969 1527.98,809.969 1529.76,809.969 1531.53,809.969 1533.31,809.969 1535.09,809.969 1536.87,809.969 1538.65,809.969 1540.43,809.969 
  1542.21,809.969 1543.98,809.969 1545.76,809.969 1547.54,809.969 1549.32,809.969 1551.1,809.969 1552.88,809.969 1554.66,809.969 1556.44,809.969 1558.21,809.969 
  1559.99,809.969 1561.77,809.969 1563.55,809.969 1565.33,809.969 1567.11,809.969 1568.89,809.969 1570.66,809.969 1572.44,809.969 1574.22,809.969 1576,809.969 
  1577.78,541.961 1579.56,541.961 1581.34,541.961 1583.11,541.961 1584.89,541.961 1586.67,541.961 1588.45,541.961 1590.23,541.961 1592.01,541.961 1593.79,541.961 
  1595.56,541.961 1597.34,541.961 1599.12,541.961 1600.9,541.961 1602.68,541.961 1604.46,541.961 1606.24,541.961 1608.02,541.961 1609.79,541.961 1611.57,541.961 
  1613.35,541.961 1615.13,541.961 1616.91,541.961 1618.69,541.961 1620.47,541.961 1622.24,541.961 1624.02,541.961 1625.8,541.961 1627.58,541.961 1629.36,541.961 
  1631.14,541.961 1632.92,541.961 1634.69,541.961 1636.47,541.961 1638.25,541.961 1640.03,541.961 1641.81,541.961 1643.59,541.961 1645.37,541.961 1647.14,541.961 
  1648.92,541.961 1650.7,541.961 1652.48,541.961 1654.26,541.961 1656.04,541.961 1657.82,541.961 1659.6,541.961 1661.37,541.961 1663.15,541.961 1664.93,541.961 
  1666.71,541.961 1668.49,541.961 1670.27,541.961 1672.05,541.961 1673.82,541.961 1675.6,541.961 1677.38,541.961 1679.16,541.961 1680.94,541.961 1682.72,541.961 
  1684.5,459.145 1686.27,459.145 1688.05,459.145 1689.83,459.145 1691.61,459.145 1693.39,459.145 1695.17,459.145 1696.95,459.145 1698.73,459.145 1700.5,459.145 
  1702.28,459.145 1704.06,459.145 1705.84,459.145 1707.62,459.145 1709.4,459.145 1711.18,459.145 1712.95,459.145 1714.73,459.145 1716.51,459.145 1718.29,459.145 
  1720.07,459.145 1721.85,459.145 1723.63,459.145 1725.4,459.145 1727.18,459.145 1728.96,459.145 1730.74,459.145 1732.52,459.145 1734.3,459.145 1736.08,459.145 
  1737.85,459.145 1739.63,459.145 1741.41,459.145 1743.19,459.145 1744.97,459.145 1746.75,459.145 1748.53,459.145 1750.31,459.145 1752.08,459.145 1753.86,459.145 
  1755.64,459.145 1757.42,459.145 1759.2,459.145 1760.98,459.145 1762.76,459.145 1764.53,459.145 1766.31,459.145 1768.09,459.145 1769.87,459.145 1771.65,459.145 
  1773.43,459.145 1775.21,459.145 1776.98,459.145 1778.76,459.145 1780.54,459.145 1782.32,459.145 1784.1,459.145 1785.88,459.145 1787.66,459.145 1789.43,459.145 
  1791.21,460.362 1792.99,460.362 1794.77,460.362 1796.55,460.362 1798.33,460.362 1800.11,460.362 1801.89,460.362 1803.66,460.362 1805.44,460.362 1807.22,460.362 
  1809,460.362 1810.78,460.362 1812.56,460.362 1814.34,460.362 1816.11,460.362 1817.89,460.362 1819.67,460.362 1821.45,460.362 1823.23,460.362 1825.01,460.362 
  1826.79,460.362 1828.56,460.362 1830.34,460.362 1832.12,460.362 1833.9,460.362 1835.68,460.362 1837.46,460.362 1839.24,460.362 1841.01,460.362 1842.79,460.362 
  1844.57,460.362 1846.35,460.362 1848.13,460.362 1849.91,460.362 1851.69,460.362 1853.47,460.362 1855.24,460.362 1857.02,460.362 1858.8,460.362 1860.58,460.362 
  1862.36,460.362 1864.14,460.362 1865.92,460.362 1867.69,460.362 1869.47,460.362 1871.25,460.362 1873.03,460.362 1874.81,460.362 1876.59,460.362 1878.37,460.362 
  1880.14,460.362 1881.92,460.362 1883.7,460.362 1885.48,460.362 1887.26,460.362 1889.04,460.362 1890.82,460.362 1892.59,460.362 1894.37,460.362 1896.15,460.362 
  1897.93,477.698 1899.71,477.698 1901.49,477.698 1903.27,477.698 1905.05,477.698 1906.82,477.698 1908.6,477.698 1910.38,477.698 1912.16,477.698 1913.94,477.698 
  1915.72,477.698 1917.5,477.698 1919.27,477.698 1921.05,477.698 1922.83,477.698 1924.61,477.698 1926.39,477.698 1928.17,477.698 1929.95,477.698 1931.72,477.698 
  1933.5,477.698 1935.28,477.698 1937.06,477.698 1938.84,477.698 1940.62,477.698 1942.4,477.698 1944.17,477.698 1945.95,477.698 1947.73,477.698 1949.51,477.698 
  1951.29,477.698 1953.07,477.698 1954.85,477.698 1956.63,477.698 1958.4,477.698 1960.18,477.698 1961.96,477.698 1963.74,477.698 1965.52,477.698 1967.3,477.698 
  1969.08,477.698 1970.85,477.698 1972.63,477.698 1974.41,477.698 1976.19,477.698 1977.97,477.698 1979.75,477.698 1981.53,477.698 1983.3,477.698 1985.08,477.698 
  1986.86,477.698 1988.64,477.698 1990.42,477.698 1992.2,477.698 1993.98,477.698 1995.75,477.698 1997.53,477.698 1999.31,477.698 2001.09,477.698 2002.87,477.698 
  2004.65,566.732 2006.43,566.732 2008.21,566.732 2009.98,566.732 2011.76,566.732 2013.54,566.732 2015.32,566.732 2017.1,566.732 2018.88,566.732 2020.66,566.732 
  2022.43,566.732 2024.21,566.732 2025.99,566.732 2027.77,566.732 2029.55,566.732 2031.33,566.732 2033.11,566.732 2034.88,566.732 2036.66,566.732 2038.44,566.732 
  2040.22,566.732 2042,566.732 2043.78,566.732 2045.56,566.732 2047.33,566.732 2049.11,566.732 2050.89,566.732 2052.67,566.732 2054.45,566.732 2056.23,566.732 
  2058.01,566.732 2059.79,566.732 2061.56,566.732 2063.34,566.732 2065.12,566.732 2066.9,566.732 2068.68,566.732 2070.46,566.732 2072.24,566.732 2074.01,566.732 
  2075.79,566.732 2077.57,566.732 2079.35,566.732 2081.13,566.732 2082.91,566.732 2084.69,566.732 2086.46,566.732 2088.24,566.732 2090.02,566.732 2091.8,566.732 
  2093.58,566.732 2095.36,566.732 2097.14,566.732 2098.92,566.732 2100.69,566.732 2102.47,566.732 2104.25,566.732 2106.03,566.732 2107.81,566.732 2109.59,566.732 
  2111.37,618.649 2113.14,618.649 2114.92,618.649 2116.7,618.649 2118.48,618.649 2120.26,618.649 2122.04,618.649 2123.82,618.649 2125.59,618.649 2127.37,618.649 
  2129.15,618.649 2130.93,618.649 2132.71,618.649 2134.49,618.649 2136.27,618.649 2138.04,618.649 2139.82,618.649 2141.6,618.649 2143.38,618.649 2145.16,618.649 
  2146.94,618.649 2148.72,618.649 2150.5,618.649 2152.27,618.649 2154.05,618.649 2155.83,618.649 2157.61,618.649 2159.39,618.649 2161.17,618.649 2162.95,618.649 
  2164.72,618.649 2166.5,618.649 2168.28,618.649 2170.06,618.649 2171.84,618.649 2173.62,618.649 2175.4,618.649 2177.17,618.649 2178.95,618.649 2180.73,618.649 
  2182.51,618.649 2184.29,618.649 2186.07,618.649 2187.85,618.649 2189.62,618.649 2191.4,618.649 2193.18,618.649 2194.96,618.649 2196.74,618.649 2198.52,618.649 
  2200.3,618.649 2202.08,618.649 2203.85,618.649 2205.63,618.649 2207.41,618.649 2209.19,618.649 2210.97,618.649 2212.75,618.649 2214.53,618.649 2216.3,618.649 
  2218.08,645.759 2219.86,645.759 2221.64,645.759 2223.42,645.759 2225.2,645.759 2226.98,645.759 2228.75,645.759 2230.53,645.759 2232.31,645.759 2234.09,645.759 
  2235.87,645.759 2237.65,645.759 2239.43,645.759 2241.2,645.759 2242.98,645.759 2244.76,645.759 2246.54,645.759 2248.32,645.759 2250.1,645.759 2251.88,645.759 
  2253.66,645.759 2255.43,645.759 2257.21,645.759 2258.99,645.759 2260.77,645.759 2262.55,645.759 2264.33,645.759 2266.11,645.759 2267.88,645.759 2269.66,645.759 
  2271.44,645.759 2273.22,645.759 2275,645.759 2276.78,645.759 2278.56,645.759 2280.33,645.759 2282.11,645.759 2283.89,645.759 2285.67,645.759 2287.45,645.759 
  2289.23,645.759 2291.01,645.759 2292.78,645.759 2294.56,645.759 2296.34,645.759 2298.12,645.759 2299.9,645.759 2301.68,645.759 2303.46,645.759 2305.24,645.759 
  2307.01,645.759 2308.79,645.759 2310.57,645.759 2312.35,645.759 2314.13,645.759 2315.91,645.759 2317.69,645.759 2319.46,645.759 2321.24,645.759 2323.02,645.759 
  2324.8,721.332 2326.58,721.332 2328.36,721.332 2330.14,721.332 2331.91,721.332 2333.69,721.332 2335.47,721.332 2337.25,721.332 2339.03,721.332 2340.81,721.332 
  2342.59,721.332 2344.36,721.332 2346.14,721.332 2347.92,721.332 2349.7,721.332 2351.48,721.332 2353.26,721.332 2355.04,721.332 2356.82,721.332 2358.59,721.332 
  2360.37,721.332 2362.15,721.332 2363.93,721.332 2365.71,721.332 2367.49,721.332 2369.27,721.332 2371.04,721.332 2372.82,721.332 2374.6,721.332 2376.38,721.332 
  2378.16,721.332 2379.94,721.332 2381.72,721.332 2383.49,721.332 2385.27,721.332 2387.05,721.332 2388.83,721.332 2390.61,721.332 2392.39,721.332 2394.17,721.332 
  2395.94,721.332 2397.72,721.332 2399.5,721.332 2401.28,721.332 2403.06,721.332 2404.84,721.332 2406.62,721.332 2408.4,721.332 2410.17,721.332 2411.95,721.332 
  2413.73,721.332 2415.51,721.332 2417.29,721.332 2419.07,721.332 2420.85,721.332 2422.62,721.332 2424.4,721.332 2426.18,721.332 2427.96,721.332 2429.74,721.332 
  2431.52,954.078 2433.3,954.078 2435.07,954.078 2436.85,954.078 2438.63,954.078 2440.41,954.078 2442.19,954.078 2443.97,954.078 2445.75,954.078 2447.53,954.078 
  2449.3,954.078 2451.08,954.078 2452.86,954.078 2454.64,954.078 2456.42,954.078 2458.2,954.078 2459.98,954.078 2461.75,954.078 2463.53,954.078 2465.31,954.078 
  2467.09,954.078 2468.87,954.078 2470.65,954.078 2472.43,954.078 2474.2,954.078 2475.98,954.078 2477.76,954.078 2479.54,954.078 2481.32,954.078 2483.1,954.078 
  2484.88,954.078 2486.65,954.078 2488.43,954.078 2490.21,954.078 2491.99,954.078 2493.77,954.078 2495.55,954.078 2497.33,954.078 2499.11,954.078 2500.88,954.078 
  2502.66,954.078 2504.44,954.078 2506.22,954.078 2508,954.078 2509.78,954.078 2511.56,954.078 2513.33,954.078 2515.11,954.078 2516.89,954.078 2518.67,954.078 
  2520.45,954.078 2522.23,954.078 2524.01,954.078 2525.78,954.078 2527.56,954.078 2529.34,954.078 2531.12,954.078 2532.9,954.078 2534.68,954.078 2536.46,954.078 
  2538.23,1131.82 2540.01,1131.82 2541.79,1131.82 2543.57,1131.82 2545.35,1131.82 2547.13,1131.82 2548.91,1131.82 2550.69,1131.82 2552.46,1131.82 2554.24,1131.82 
  2556.02,1131.82 2557.8,1131.82 2559.58,1131.82 2561.36,1131.82 2563.14,1131.82 2564.91,1131.82 2566.69,1131.82 2568.47,1131.82 2570.25,1131.82 2572.03,1131.82 
  2573.81,1131.82 2575.59,1131.82 2577.36,1131.82 2579.14,1131.82 2580.92,1131.82 2582.7,1131.82 2584.48,1131.82 2586.26,1131.82 2588.04,1131.82 2589.81,1131.82 
  2591.59,1131.82 2593.37,1131.82 2595.15,1131.82 2596.93,1131.82 2598.71,1131.82 2600.49,1131.82 2602.27,1131.82 2604.04,1131.82 2605.82,1131.82 2607.6,1131.82 
  2609.38,1131.82 2611.16,1131.82 2612.94,1131.82 2614.72,1131.82 2616.49,1131.82 2618.27,1131.82 2620.05,1131.82 2621.83,1131.82 2623.61,1131.82 2625.39,1131.82 
  2627.17,1131.82 2628.94,1131.82 2630.72,1131.82 2632.5,1131.82 2634.28,1131.82 2636.06,1131.82 2637.84,1131.82 2639.62,1131.82 2641.39,1131.82 2643.17,1131.82 
  2644.95,1240.1 2646.73,1240.1 2648.51,1240.1 2650.29,1240.1 2652.07,1240.1 2653.85,1240.1 2655.62,1240.1 2657.4,1240.1 2659.18,1240.1 2660.96,1240.1 
  2662.74,1240.1 2664.52,1240.1 2666.3,1240.1 2668.07,1240.1 2669.85,1240.1 2671.63,1240.1 2673.41,1240.1 2675.19,1240.1 2676.97,1240.1 2678.75,1240.1 
  2680.52,1240.1 2682.3,1240.1 2684.08,1240.1 2685.86,1240.1 2687.64,1240.1 2689.42,1240.1 2691.2,1240.1 2692.97,1240.1 2694.75,1240.1 2696.53,1240.1 
  2698.31,1240.1 2700.09,1240.1 2701.87,1240.1 2703.65,1240.1 2705.43,1240.1 2707.2,1240.1 2708.98,1240.1 2710.76,1240.1 2712.54,1240.1 2714.32,1240.1 
  2716.1,1240.1 2717.88,1240.1 2719.65,1240.1 2721.43,1240.1 2723.21,1240.1 2724.99,1240.1 2726.77,1240.1 2728.55,1240.1 2730.33,1240.1 2732.1,1240.1 
  2733.88,1240.1 2735.66,1240.1 2737.44,1240.1 2739.22,1240.1 2741,1240.1 2742.78,1240.1 2744.55,1240.1 2746.33,1240.1 2748.11,1240.1 2749.89,1240.1 
  2751.67,1288.02 2753.45,1288.02 2755.23,1288.02 2757.01,1288.02 2758.78,1288.02 2760.56,1288.02 2762.34,1288.02 2764.12,1288.02 2765.9,1288.02 2767.68,1288.02 
  2769.46,1288.02 2771.23,1288.02 2773.01,1288.02 2774.79,1288.02 2776.57,1288.02 2778.35,1288.02 2780.13,1288.02 2781.91,1288.02 2783.68,1288.02 2785.46,1288.02 
  2787.24,1288.02 2789.02,1288.02 2790.8,1288.02 2792.58,1288.02 2794.36,1288.02 2796.13,1288.02 2797.91,1288.02 2799.69,1288.02 2801.47,1288.02 2803.25,1288.02 
  2805.03,1288.02 2806.81,1288.02 2808.59,1288.02 2810.36,1288.02 2812.14,1288.02 2813.92,1288.02 2815.7,1288.02 2817.48,1288.02 2819.26,1288.02 2821.04,1288.02 
  2822.81,1288.02 2824.59,1288.02 2826.37,1288.02 2828.15,1288.02 2829.93,1288.02 2831.71,1288.02 2833.49,1288.02 2835.26,1288.02 2837.04,1288.02 2838.82,1288.02 
  2840.6,1288.02 2842.38,1288.02 2844.16,1288.02 2845.94,1288.02 2847.72,1288.02 2849.49,1288.02 2851.27,1288.02 2853.05,1288.02 2854.83,1288.02 2856.61,1288.02 
  2858.39,1342.01 2860.17,1342.01 2861.94,1342.01 2863.72,1342.01 2865.5,1342.01 2867.28,1342.01 2869.06,1342.01 2870.84,1342.01 2872.62,1342.01 2874.39,1342.01 
  2876.17,1342.01 2877.95,1342.01 2879.73,1342.01 2881.51,1342.01 2883.29,1342.01 2885.07,1342.01 2886.84,1342.01 2888.62,1342.01 2890.4,1342.01 2892.18,1342.01 
  2893.96,1342.01 2895.74,1342.01 2897.52,1342.01 2899.3,1342.01 2901.07,1342.01 2902.85,1342.01 2904.63,1342.01 2906.41,1342.01 2908.19,1342.01 2909.97,1342.01 
  2911.75,1342.01 2913.52,1342.01 2915.3,1342.01 2917.08,1342.01 2918.86,1342.01 2920.64,1342.01 2922.42,1342.01 2924.2,1342.01 2925.97,1342.01 2927.75,1342.01 
  2929.53,1342.01 2931.31,1342.01 2933.09,1342.01 2934.87,1342.01 2936.65,1342.01 2938.42,1342.01 2940.2,1342.01 2941.98,1342.01 2943.76,1342.01 2945.54,1342.01 
  2947.32,1342.01 2949.1,1342.01 2950.88,1342.01 2952.65,1342.01 2954.43,1342.01 2956.21,1342.01 2957.99,1342.01 2959.77,1342.01 2961.55,1342.01 2963.33,1342.01 
  2965.1,1412.12 2966.88,1412.12 2968.66,1412.12 2970.44,1412.12 2972.22,1412.12 2974,1412.12 2975.78,1412.12 2977.55,1412.12 2979.33,1412.12 2981.11,1412.12 
  2982.89,1412.12 2984.67,1412.12 2986.45,1412.12 2988.23,1412.12 2990,1412.12 2991.78,1412.12 2993.56,1412.12 2995.34,1412.12 2997.12,1412.12 2998.9,1412.12 
  3000.68,1412.12 3002.46,1412.12 3004.23,1412.12 3006.01,1412.12 3007.79,1412.12 3009.57,1412.12 3011.35,1412.12 3013.13,1412.12 3014.91,1412.12 3016.68,1412.12 
  3018.46,1412.12 3020.24,1412.12 3022.02,1412.12 3023.8,1412.12 3025.58,1412.12 3027.36,1412.12 3029.13,1412.12 3030.91,1412.12 3032.69,1412.12 3034.47,1412.12 
  3036.25,1412.12 3038.03,1412.12 3039.81,1412.12 3041.58,1412.12 3043.36,1412.12 3045.14,1412.12 3046.92,1412.12 3048.7,1412.12 3050.48,1412.12 3052.26,1412.12 
  3054.04,1412.12 3055.81,1412.12 3057.59,1412.12 3059.37,1412.12 3061.15,1412.12 3062.93,1412.12 3064.71,1412.12 3066.49,1412.12 3068.26,1412.12 3070.04,1412.12 
  3071.82,1453.39 3073.6,1453.39 3075.38,1453.39 3077.16,1453.39 3078.94,1453.39 3080.71,1453.39 3082.49,1453.39 3084.27,1453.39 3086.05,1453.39 3087.83,1453.39 
  3089.61,1453.39 3091.39,1453.39 3093.16,1453.39 3094.94,1453.39 3096.72,1453.39 3098.5,1453.39 3100.28,1453.39 3102.06,1453.39 3103.84,1453.39 3105.62,1453.39 
  3107.39,1453.39 3109.17,1453.39 3110.95,1453.39 3112.73,1453.39 3114.51,1453.39 3116.29,1453.39 3118.07,1453.39 3119.84,1453.39 3121.62,1453.39 3123.4,1453.39 
  3125.18,1453.39 3126.96,1453.39 3128.74,1453.39 3130.52,1453.39 3132.29,1453.39 3134.07,1453.39 3135.85,1453.39 3137.63,1453.39 3139.41,1453.39 3141.19,1453.39 
  3142.97,1453.39 3144.74,1453.39 3146.52,1453.39 3148.3,1453.39 3150.08,1453.39 3151.86,1453.39 3153.64,1453.39 3155.42,1453.39 3157.2,1453.39 3158.97,1453.39 
  3160.75,1453.39 3162.53,1453.39 3164.31,1453.39 3166.09,1453.39 3167.87,1453.39 3169.65,1453.39 3171.42,1453.39 3173.2,1453.39 3174.98,1453.39 3176.76,1453.39 
  
  "/>
<polygon clip-path="url(#clip8900)" points="
648.539,646.177 1449.88,646.177 1449.88,404.257 648.539,404.257 
  " fill="#ffffff" fill-rule="evenodd" fill-opacity="1"/>
<polyline clip-path="url(#clip8900)" style="stroke:#000000; stroke-width:4; stroke-opacity:1; fill:none" points="
  648.539,646.177 1449.88,646.177 1449.88,404.257 648.539,404.257 648.539,646.177 
  "/>
<polyline clip-path="url(#clip8900)" style="stroke:#009af9; stroke-width:4; stroke-opacity:1; fill:none" points="
  684.539,464.737 900.539,464.737 
  "/>
<g clip-path="url(#clip8900)">
<text style="fill:#000000; fill-opacity:1; font-family:Arial,Helvetica Neue,Helvetica,sans-serif; font-size:48px; text-anchor:start;" transform="rotate(0, 936.539, 482.237)" x="936.539" y="482.237">Arrival Rate</text>
</g>
<polyline clip-path="url(#clip8900)" style="stroke:#008000; stroke-width:4; stroke-opacity:1; fill:none" points="
  684.539,525.217 900.539,525.217 
  "/>
<g clip-path="url(#clip8900)">
<text style="fill:#000000; fill-opacity:1; font-family:Arial,Helvetica Neue,Helvetica,sans-serif; font-size:48px; text-anchor:start;" transform="rotate(0, 936.539, 542.717)" x="936.539" y="542.717">Service Completions</text>
</g>
<polyline clip-path="url(#clip8900)" style="stroke:#ff0000; stroke-width:4; stroke-opacity:1; fill:none" points="
  684.539,585.697 900.539,585.697 
  "/>
<g clip-path="url(#clip8900)">
<text style="fill:#000000; fill-opacity:1; font-family:Arial,Helvetica Neue,Helvetica,sans-serif; font-size:48px; text-anchor:start;" transform="rotate(0, 936.539, 603.197)" x="936.539" y="603.197">Number of Servers</text>
</g>
<g clip-path="url(#clip8900)">
<text style="fill:#000000; fill-opacity:1; font-family:Arial,Helvetica Neue,Helvetica,sans-serif; font-size:95px; text-anchor:middle;" transform="rotate(-90, 3531.41, 883.402)" x="3531.41" y="883.402">Number of Servers</text>
</g>
<polygon clip-path="url(#clip8900)" points="
540.539,1675.5 3253.54,1675.5 3253.54,248.737 540.539,248.737 
  " fill="#000000" fill-rule="evenodd" fill-opacity="0"/>
<polyline clip-path="url(#clip8902)" style="stroke:#000000; stroke-width:2; stroke-opacity:0.1; fill:none" points="
  615.544,1675.5 615.544,248.737 
  "/>
<polyline clip-path="url(#clip8902)" style="stroke:#000000; stroke-width:2; stroke-opacity:0.1; fill:none" points="
  1042.41,1675.5 1042.41,248.737 
  "/>
<polyline clip-path="url(#clip8902)" style="stroke:#000000; stroke-width:2; stroke-opacity:0.1; fill:none" points="
  1469.28,1675.5 1469.28,248.737 
  "/>
<polyline clip-path="url(#clip8902)" style="stroke:#000000; stroke-width:2; stroke-opacity:0.1; fill:none" points="
  1896.15,1675.5 1896.15,248.737 
  "/>
<polyline clip-path="url(#clip8902)" style="stroke:#000000; stroke-width:2; stroke-opacity:0.1; fill:none" points="
  2323.02,1675.5 2323.02,248.737 
  "/>
<polyline clip-path="url(#clip8902)" style="stroke:#000000; stroke-width:2; stroke-opacity:0.1; fill:none" points="
  2749.89,1675.5 2749.89,248.737 
  "/>
<polyline clip-path="url(#clip8902)" style="stroke:#000000; stroke-width:2; stroke-opacity:0.1; fill:none" points="
  3176.76,1675.5 3176.76,248.737 
  "/>
<polyline clip-path="url(#clip8902)" style="stroke:#000000; stroke-width:2; stroke-opacity:0.1; fill:none" points="
  540.539,1640.36 3253.54,1640.36 
  "/>
<polyline clip-path="url(#clip8902)" style="stroke:#000000; stroke-width:2; stroke-opacity:0.1; fill:none" points="
  540.539,1378.49 3253.54,1378.49 
  "/>
<polyline clip-path="url(#clip8902)" style="stroke:#000000; stroke-width:2; stroke-opacity:0.1; fill:none" points="
  540.539,1116.62 3253.54,1116.62 
  "/>
<polyline clip-path="url(#clip8902)" style="stroke:#000000; stroke-width:2; stroke-opacity:0.1; fill:none" points="
  540.539,854.754 3253.54,854.754 
  "/>
<polyline clip-path="url(#clip8902)" style="stroke:#000000; stroke-width:2; stroke-opacity:0.1; fill:none" points="
  540.539,592.885 3253.54,592.885 
  "/>
<polyline clip-path="url(#clip8902)" style="stroke:#000000; stroke-width:2; stroke-opacity:0.1; fill:none" points="
  540.539,331.016 3253.54,331.016 
  "/>
<polyline clip-path="url(#clip8900)" style="stroke:#000000; stroke-width:4; stroke-opacity:1; fill:none" points="
  540.539,1675.5 3253.54,1675.5 
  "/>
<polyline clip-path="url(#clip8900)" style="stroke:#000000; stroke-width:4; stroke-opacity:1; fill:none" points="
  3253.54,1675.5 3253.54,248.737 
  "/>
<polyline clip-path="url(#clip8900)" style="stroke:#000000; stroke-width:4; stroke-opacity:1; fill:none" points="
  615.544,1675.5 615.544,1654.1 
  "/>
<polyline clip-path="url(#clip8900)" style="stroke:#000000; stroke-width:4; stroke-opacity:1; fill:none" points="
  1042.41,1675.5 1042.41,1654.1 
  "/>
<polyline clip-path="url(#clip8900)" style="stroke:#000000; stroke-width:4; stroke-opacity:1; fill:none" points="
  1469.28,1675.5 1469.28,1654.1 
  "/>
<polyline clip-path="url(#clip8900)" style="stroke:#000000; stroke-width:4; stroke-opacity:1; fill:none" points="
  1896.15,1675.5 1896.15,1654.1 
  "/>
<polyline clip-path="url(#clip8900)" style="stroke:#000000; stroke-width:4; stroke-opacity:1; fill:none" points="
  2323.02,1675.5 2323.02,1654.1 
  "/>
<polyline clip-path="url(#clip8900)" style="stroke:#000000; stroke-width:4; stroke-opacity:1; fill:none" points="
  2749.89,1675.5 2749.89,1654.1 
  "/>
<polyline clip-path="url(#clip8900)" style="stroke:#000000; stroke-width:4; stroke-opacity:1; fill:none" points="
  3176.76,1675.5 3176.76,1654.1 
  "/>
<polyline clip-path="url(#clip8900)" style="stroke:#000000; stroke-width:4; stroke-opacity:1; fill:none" points="
  3253.54,1640.36 3212.85,1640.36 
  "/>
<polyline clip-path="url(#clip8900)" style="stroke:#000000; stroke-width:4; stroke-opacity:1; fill:none" points="
  3253.54,1378.49 3212.85,1378.49 
  "/>
<polyline clip-path="url(#clip8900)" style="stroke:#000000; stroke-width:4; stroke-opacity:1; fill:none" points="
  3253.54,1116.62 3212.85,1116.62 
  "/>
<polyline clip-path="url(#clip8900)" style="stroke:#000000; stroke-width:4; stroke-opacity:1; fill:none" points="
  3253.54,854.754 3212.85,854.754 
  "/>
<polyline clip-path="url(#clip8900)" style="stroke:#000000; stroke-width:4; stroke-opacity:1; fill:none" points="
  3253.54,592.885 3212.85,592.885 
  "/>
<polyline clip-path="url(#clip8900)" style="stroke:#000000; stroke-width:4; stroke-opacity:1; fill:none" points="
  3253.54,331.016 3212.85,331.016 
  "/>
<g clip-path="url(#clip8900)">
<text style="fill:#000000; fill-opacity:1; font-family:Arial,Helvetica Neue,Helvetica,sans-serif; font-size:71px; text-anchor:middle;" transform="rotate(0, 615.544, 1755.9)" x="615.544" y="1755.9">0</text>
</g>
<g clip-path="url(#clip8900)">
<text style="fill:#000000; fill-opacity:1; font-family:Arial,Helvetica Neue,Helvetica,sans-serif; font-size:71px; text-anchor:middle;" transform="rotate(0, 1042.41, 1755.9)" x="1042.41" y="1755.9">4</text>
</g>
<g clip-path="url(#clip8900)">
<text style="fill:#000000; fill-opacity:1; font-family:Arial,Helvetica Neue,Helvetica,sans-serif; font-size:71px; text-anchor:middle;" transform="rotate(0, 1469.28, 1755.9)" x="1469.28" y="1755.9">8</text>
</g>
<g clip-path="url(#clip8900)">
<text style="fill:#000000; fill-opacity:1; font-family:Arial,Helvetica Neue,Helvetica,sans-serif; font-size:71px; text-anchor:middle;" transform="rotate(0, 1896.15, 1755.9)" x="1896.15" y="1755.9">12</text>
</g>
<g clip-path="url(#clip8900)">
<text style="fill:#000000; fill-opacity:1; font-family:Arial,Helvetica Neue,Helvetica,sans-serif; font-size:71px; text-anchor:middle;" transform="rotate(0, 2323.02, 1755.9)" x="2323.02" y="1755.9">16</text>
</g>
<g clip-path="url(#clip8900)">
<text style="fill:#000000; fill-opacity:1; font-family:Arial,Helvetica Neue,Helvetica,sans-serif; font-size:71px; text-anchor:middle;" transform="rotate(0, 2749.89, 1755.9)" x="2749.89" y="1755.9">20</text>
</g>
<g clip-path="url(#clip8900)">
<text style="fill:#000000; fill-opacity:1; font-family:Arial,Helvetica Neue,Helvetica,sans-serif; font-size:71px; text-anchor:middle;" transform="rotate(0, 3176.76, 1755.9)" x="3176.76" y="1755.9">24</text>
</g>
<g clip-path="url(#clip8900)">
<text style="fill:#000000; fill-opacity:1; font-family:Arial,Helvetica Neue,Helvetica,sans-serif; font-size:71px; text-anchor:start;" transform="rotate(0, 3289.54, 1666.36)" x="3289.54" y="1666.36">0</text>
</g>
<g clip-path="url(#clip8900)">
<text style="fill:#000000; fill-opacity:1; font-family:Arial,Helvetica Neue,Helvetica,sans-serif; font-size:71px; text-anchor:start;" transform="rotate(0, 3289.54, 1404.49)" x="3289.54" y="1404.49">50</text>
</g>
<g clip-path="url(#clip8900)">
<text style="fill:#000000; fill-opacity:1; font-family:Arial,Helvetica Neue,Helvetica,sans-serif; font-size:71px; text-anchor:start;" transform="rotate(0, 3289.54, 1142.62)" x="3289.54" y="1142.62">100</text>
</g>
<g clip-path="url(#clip8900)">
<text style="fill:#000000; fill-opacity:1; font-family:Arial,Helvetica Neue,Helvetica,sans-serif; font-size:71px; text-anchor:start;" transform="rotate(0, 3289.54, 880.754)" x="3289.54" y="880.754">150</text>
</g>
<g clip-path="url(#clip8900)">
<text style="fill:#000000; fill-opacity:1; font-family:Arial,Helvetica Neue,Helvetica,sans-serif; font-size:71px; text-anchor:start;" transform="rotate(0, 3289.54, 618.885)" x="3289.54" y="618.885">200</text>
</g>
<g clip-path="url(#clip8900)">
<text style="fill:#000000; fill-opacity:1; font-family:Arial,Helvetica Neue,Helvetica,sans-serif; font-size:71px; text-anchor:start;" transform="rotate(0, 3289.54, 357.016)" x="3289.54" y="357.016">250</text>
</g>
<polyline clip-path="url(#clip8902)" style="stroke:#ff0000; stroke-width:4; stroke-opacity:1; fill:none" points="
  617.323,1629.89 619.101,1629.89 620.88,1629.89 622.658,1629.89 624.437,1629.89 626.216,1629.89 627.994,1629.89 629.773,1629.89 631.552,1629.89 633.33,1629.89 
  635.109,1629.89 636.887,1629.89 638.666,1629.89 640.445,1629.89 642.223,1629.89 644.002,1629.89 645.781,1629.89 647.559,1629.89 649.338,1629.89 651.116,1629.89 
  652.895,1629.89 654.674,1629.89 656.452,1629.89 658.231,1629.89 660.01,1629.89 661.788,1629.89 663.567,1629.89 665.345,1629.89 667.124,1629.89 668.903,1629.89 
  670.681,1629.89 672.46,1629.89 674.239,1629.89 676.017,1629.89 677.796,1629.89 679.574,1629.89 681.353,1629.89 683.132,1629.89 684.91,1629.89 686.689,1629.89 
  688.468,1629.89 690.246,1629.89 692.025,1629.89 693.803,1629.89 695.582,1629.89 697.361,1629.89 699.139,1629.89 700.918,1629.89 702.696,1629.89 704.475,1629.89 
  706.254,1629.89 708.032,1629.89 709.811,1629.89 711.59,1629.89 713.368,1629.89 715.147,1629.89 716.925,1629.89 718.704,1629.89 720.483,1629.89 722.261,1629.89 
  724.04,1629.89 725.819,1629.89 727.597,1629.89 729.376,1629.89 731.154,1629.89 732.933,1629.89 734.712,1629.89 736.49,1629.89 738.269,1629.89 740.048,1629.89 
  741.826,1629.89 743.605,1629.89 745.383,1629.89 747.162,1629.89 748.941,1629.89 750.719,1629.89 752.498,1629.89 754.277,1629.89 756.055,1629.89 757.834,1629.89 
  759.612,1629.89 761.391,1629.89 763.17,1629.89 764.948,1629.89 766.727,1629.89 768.506,1629.89 770.284,1629.89 772.063,1629.89 773.841,1629.89 775.62,1629.89 
  777.399,1629.89 779.177,1629.89 780.956,1629.89 782.735,1629.89 784.513,1629.89 786.292,1629.89 788.07,1629.89 789.849,1629.89 791.628,1629.89 793.406,1629.89 
  795.185,1629.89 796.963,1629.89 798.742,1629.89 800.521,1629.89 802.299,1629.89 804.078,1629.89 805.857,1629.89 807.635,1629.89 809.414,1629.89 811.192,1629.89 
  812.971,1629.89 814.75,1629.89 816.528,1629.89 818.307,1629.89 820.086,1629.89 821.864,1629.89 823.643,1629.89 825.421,1629.89 827.2,1629.89 828.979,1629.89 
  830.757,1629.89 832.536,1629.89 834.315,1629.89 836.093,1629.89 837.872,1629.89 839.65,1629.89 841.429,1629.89 843.208,1629.89 844.986,1629.89 846.765,1629.89 
  848.544,1629.89 850.322,1629.89 852.101,1629.89 853.879,1629.89 855.658,1629.89 857.437,1629.89 859.215,1629.89 860.994,1629.89 862.773,1629.89 864.551,1629.89 
  866.33,1629.89 868.108,1629.89 869.887,1629.89 871.666,1629.89 873.444,1629.89 875.223,1629.89 877.001,1629.89 878.78,1629.89 880.559,1629.89 882.337,1629.89 
  884.116,1629.89 885.895,1629.89 887.673,1629.89 889.452,1629.89 891.23,1629.89 893.009,1629.89 894.788,1629.89 896.566,1629.89 898.345,1629.89 900.124,1629.89 
  901.902,1629.89 903.681,1629.89 905.459,1629.89 907.238,1629.89 909.017,1629.89 910.795,1629.89 912.574,1629.89 914.353,1629.89 916.131,1629.89 917.91,1629.89 
  919.688,1629.89 921.467,1629.89 923.246,1629.89 925.024,1629.89 926.803,1629.89 928.582,1629.89 930.36,1629.89 932.139,1629.89 933.917,1629.89 935.696,1629.89 
  937.475,1635.12 939.253,1635.12 941.032,1635.12 942.811,1635.12 944.589,1635.12 946.368,1635.12 948.146,1635.12 949.925,1635.12 951.704,1635.12 953.482,1635.12 
  955.261,1635.12 957.039,1635.12 958.818,1635.12 960.597,1635.12 962.375,1635.12 964.154,1635.12 965.933,1635.12 967.711,1635.12 969.49,1635.12 971.268,1635.12 
  973.047,1635.12 974.826,1635.12 976.604,1635.12 978.383,1635.12 980.162,1635.12 981.94,1635.12 983.719,1635.12 985.497,1635.12 987.276,1635.12 989.055,1635.12 
  990.833,1635.12 992.612,1635.12 994.391,1635.12 996.169,1635.12 997.948,1635.12 999.726,1635.12 1001.51,1635.12 1003.28,1635.12 1005.06,1635.12 1006.84,1635.12 
  1008.62,1635.12 1010.4,1635.12 1012.18,1635.12 1013.96,1635.12 1015.73,1635.12 1017.51,1635.12 1019.29,1635.12 1021.07,1635.12 1022.85,1635.12 1024.63,1635.12 
  1026.41,1635.12 1028.18,1635.12 1029.96,1635.12 1031.74,1635.12 1033.52,1635.12 1035.3,1635.12 1037.08,1635.12 1038.86,1635.12 1040.63,1635.12 1042.41,1635.12 
  1044.19,1635.12 1045.97,1635.12 1047.75,1635.12 1049.53,1635.12 1051.31,1635.12 1053.09,1635.12 1054.86,1635.12 1056.64,1635.12 1058.42,1635.12 1060.2,1635.12 
  1061.98,1635.12 1063.76,1635.12 1065.54,1635.12 1067.31,1635.12 1069.09,1635.12 1070.87,1635.12 1072.65,1635.12 1074.43,1635.12 1076.21,1635.12 1077.99,1635.12 
  1079.76,1635.12 1081.54,1635.12 1083.32,1635.12 1085.1,1635.12 1086.88,1635.12 1088.66,1635.12 1090.44,1635.12 1092.21,1635.12 1093.99,1635.12 1095.77,1635.12 
  1097.55,1635.12 1099.33,1635.12 1101.11,1635.12 1102.89,1635.12 1104.67,1635.12 1106.44,1635.12 1108.22,1635.12 1110,1635.12 1111.78,1635.12 1113.56,1635.12 
  1115.34,1635.12 1117.12,1635.12 1118.89,1635.12 1120.67,1635.12 1122.45,1635.12 1124.23,1635.12 1126.01,1635.12 1127.79,1635.12 1129.57,1635.12 1131.34,1635.12 
  1133.12,1635.12 1134.9,1635.12 1136.68,1635.12 1138.46,1635.12 1140.24,1635.12 1142.02,1635.12 1143.79,1635.12 1145.57,1635.12 1147.35,1635.12 1149.13,1635.12 
  1150.91,1629.89 1152.69,1629.89 1154.47,1629.89 1156.25,1629.89 1158.02,1629.89 1159.8,1629.89 1161.58,1629.89 1163.36,1629.89 1165.14,1629.89 1166.92,1629.89 
  1168.7,1629.89 1170.47,1629.89 1172.25,1629.89 1174.03,1629.89 1175.81,1629.89 1177.59,1629.89 1179.37,1629.89 1181.15,1629.89 1182.92,1629.89 1184.7,1629.89 
  1186.48,1629.89 1188.26,1629.89 1190.04,1629.89 1191.82,1629.89 1193.6,1629.89 1195.37,1629.89 1197.15,1629.89 1198.93,1629.89 1200.71,1629.89 1202.49,1629.89 
  1204.27,1629.89 1206.05,1629.89 1207.83,1629.89 1209.6,1629.89 1211.38,1629.89 1213.16,1629.89 1214.94,1629.89 1216.72,1629.89 1218.5,1629.89 1220.28,1629.89 
  1222.05,1629.89 1223.83,1629.89 1225.61,1629.89 1227.39,1629.89 1229.17,1629.89 1230.95,1629.89 1232.73,1629.89 1234.5,1629.89 1236.28,1629.89 1238.06,1629.89 
  1239.84,1629.89 1241.62,1629.89 1243.4,1629.89 1245.18,1629.89 1246.95,1629.89 1248.73,1629.89 1250.51,1629.89 1252.29,1629.89 1254.07,1629.89 1255.85,1629.89 
  1257.63,1514.66 1259.41,1514.66 1261.18,1514.66 1262.96,1514.66 1264.74,1514.66 1266.52,1514.66 1268.3,1514.66 1270.08,1514.66 1271.86,1514.66 1273.63,1514.66 
  1275.41,1514.66 1277.19,1514.66 1278.97,1514.66 1280.75,1514.66 1282.53,1514.66 1284.31,1514.66 1286.08,1514.66 1287.86,1514.66 1289.64,1514.66 1291.42,1514.66 
  1293.2,1514.66 1294.98,1514.66 1296.76,1514.66 1298.53,1514.66 1300.31,1514.66 1302.09,1514.66 1303.87,1514.66 1305.65,1514.66 1307.43,1514.66 1309.21,1514.66 
  1310.99,1514.66 1312.76,1514.66 1314.54,1514.66 1316.32,1514.66 1318.1,1514.66 1319.88,1514.66 1321.66,1514.66 1323.44,1514.66 1325.21,1514.66 1326.99,1514.66 
  1328.77,1514.66 1330.55,1514.66 1332.33,1514.66 1334.11,1514.66 1335.89,1514.66 1337.66,1514.66 1339.44,1514.66 1341.22,1514.66 1343,1514.66 1344.78,1514.66 
  1346.56,1514.66 1348.34,1514.66 1350.12,1514.66 1351.89,1514.66 1353.67,1514.66 1355.45,1514.66 1357.23,1514.66 1359.01,1514.66 1360.79,1514.66 1362.57,1514.66 
  1364.34,1189.95 1366.12,1189.95 1367.9,1189.95 1369.68,1189.95 1371.46,1189.95 1373.24,1189.95 1375.02,1189.95 1376.79,1189.95 1378.57,1189.95 1380.35,1189.95 
  1382.13,1189.95 1383.91,1189.95 1385.69,1189.95 1387.47,1189.95 1389.24,1189.95 1391.02,1189.95 1392.8,1189.95 1394.58,1189.95 1396.36,1189.95 1398.14,1189.95 
  1399.92,1189.95 1401.7,1189.95 1403.47,1189.95 1405.25,1189.95 1407.03,1189.95 1408.81,1189.95 1410.59,1189.95 1412.37,1189.95 1414.15,1189.95 1415.92,1189.95 
  1417.7,1189.95 1419.48,1189.95 1421.26,1189.95 1423.04,1189.95 1424.82,1189.95 1426.6,1189.95 1428.37,1189.95 1430.15,1189.95 1431.93,1189.95 1433.71,1189.95 
  1435.49,1189.95 1437.27,1189.95 1439.05,1189.95 1440.82,1189.95 1442.6,1189.95 1444.38,1189.95 1446.16,1189.95 1447.94,1189.95 1449.72,1189.95 1451.5,1189.95 
  1453.28,1189.95 1455.05,1189.95 1456.83,1189.95 1458.61,1189.95 1460.39,1189.95 1462.17,1189.95 1463.95,1189.95 1465.73,1189.95 1467.5,1189.95 1469.28,1189.95 
  1471.06,702.87 1472.84,702.87 1474.62,702.87 1476.4,702.87 1478.18,702.87 1479.95,702.87 1481.73,702.87 1483.51,702.87 1485.29,702.87 1487.07,702.87 
  1488.85,702.87 1490.63,702.87 1492.4,702.87 1494.18,702.87 1495.96,702.87 1497.74,702.87 1499.52,702.87 1501.3,702.87 1503.08,702.87 1504.86,702.87 
  1506.63,702.87 1508.41,702.87 1510.19,702.87 1511.97,702.87 1513.75,702.87 1515.53,702.87 1517.31,702.87 1519.08,702.87 1520.86,702.87 1522.64,702.87 
  1524.42,702.87 1526.2,702.87 1527.98,702.87 1529.76,702.87 1531.53,702.87 1533.31,702.87 1535.09,702.87 1536.87,702.87 1538.65,702.87 1540.43,702.87 
  1542.21,702.87 1543.98,702.87 1545.76,702.87 1547.54,702.87 1549.32,702.87 1551.1,702.87 1552.88,702.87 1554.66,702.87 1556.44,702.87 1558.21,702.87 
  1559.99,702.87 1561.77,702.87 1563.55,702.87 1565.33,702.87 1567.11,702.87 1568.89,702.87 1570.66,702.87 1572.44,702.87 1574.22,702.87 1576,702.87 
  1577.78,346.728 1579.56,346.728 1581.34,346.728 1583.11,346.728 1584.89,346.728 1586.67,346.728 1588.45,346.728 1590.23,346.728 1592.01,346.728 1593.79,346.728 
  1595.56,346.728 1597.34,346.728 1599.12,346.728 1600.9,346.728 1602.68,346.728 1604.46,346.728 1606.24,346.728 1608.02,346.728 1609.79,346.728 1611.57,346.728 
  1613.35,346.728 1615.13,346.728 1616.91,346.728 1618.69,346.728 1620.47,346.728 1622.24,346.728 1624.02,346.728 1625.8,346.728 1627.58,346.728 1629.36,346.728 
  1631.14,346.728 1632.92,346.728 1634.69,346.728 1636.47,346.728 1638.25,346.728 1640.03,346.728 1641.81,346.728 1643.59,346.728 1645.37,346.728 1647.14,346.728 
  1648.92,346.728 1650.7,346.728 1652.48,346.728 1654.26,346.728 1656.04,346.728 1657.82,346.728 1659.6,346.728 1661.37,346.728 1663.15,346.728 1664.93,346.728 
  1666.71,346.728 1668.49,346.728 1670.27,346.728 1672.05,346.728 1673.82,346.728 1675.6,346.728 1677.38,346.728 1679.16,346.728 1680.94,346.728 1682.72,346.728 
  1684.5,289.117 1686.27,289.117 1688.05,289.117 1689.83,289.117 1691.61,289.117 1693.39,289.117 1695.17,289.117 1696.95,289.117 1698.73,289.117 1700.5,289.117 
  1702.28,289.117 1704.06,289.117 1705.84,289.117 1707.62,289.117 1709.4,289.117 1711.18,289.117 1712.95,289.117 1714.73,289.117 1716.51,289.117 1718.29,289.117 
  1720.07,289.117 1721.85,289.117 1723.63,289.117 1725.4,289.117 1727.18,289.117 1728.96,289.117 1730.74,289.117 1732.52,289.117 1734.3,289.117 1736.08,289.117 
  1737.85,289.117 1739.63,289.117 1741.41,289.117 1743.19,289.117 1744.97,289.117 1746.75,289.117 1748.53,289.117 1750.31,289.117 1752.08,289.117 1753.86,289.117 
  1755.64,289.117 1757.42,289.117 1759.2,289.117 1760.98,289.117 1762.76,289.117 1764.53,289.117 1766.31,289.117 1768.09,289.117 1769.87,289.117 1771.65,289.117 
  1773.43,289.117 1775.21,289.117 1776.98,289.117 1778.76,289.117 1780.54,289.117 1782.32,289.117 1784.1,289.117 1785.88,289.117 1787.66,289.117 1789.43,289.117 
  1791.21,310.066 1792.99,310.066 1794.77,310.066 1796.55,310.066 1798.33,310.066 1800.11,310.066 1801.89,310.066 1803.66,310.066 1805.44,310.066 1807.22,310.066 
  1809,310.066 1810.78,310.066 1812.56,310.066 1814.34,310.066 1816.11,310.066 1817.89,310.066 1819.67,310.066 1821.45,310.066 1823.23,310.066 1825.01,310.066 
  1826.79,310.066 1828.56,310.066 1830.34,310.066 1832.12,310.066 1833.9,310.066 1835.68,310.066 1837.46,310.066 1839.24,310.066 1841.01,310.066 1842.79,310.066 
  1844.57,310.066 1846.35,310.066 1848.13,310.066 1849.91,310.066 1851.69,310.066 1853.47,310.066 1855.24,310.066 1857.02,310.066 1858.8,310.066 1860.58,310.066 
  1862.36,310.066 1864.14,310.066 1865.92,310.066 1867.69,310.066 1869.47,310.066 1871.25,310.066 1873.03,310.066 1874.81,310.066 1876.59,310.066 1878.37,310.066 
  1880.14,310.066 1881.92,310.066 1883.7,310.066 1885.48,310.066 1887.26,310.066 1889.04,310.066 1890.82,310.066 1892.59,310.066 1894.37,310.066 1896.15,310.066 
  1897.93,346.728 1899.71,346.728 1901.49,346.728 1903.27,346.728 1905.05,346.728 1906.82,346.728 1908.6,346.728 1910.38,346.728 1912.16,346.728 1913.94,346.728 
  1915.72,346.728 1917.5,346.728 1919.27,346.728 1921.05,346.728 1922.83,346.728 1924.61,346.728 1926.39,346.728 1928.17,346.728 1929.95,346.728 1931.72,346.728 
  1933.5,346.728 1935.28,346.728 1937.06,346.728 1938.84,346.728 1940.62,346.728 1942.4,346.728 1944.17,346.728 1945.95,346.728 1947.73,346.728 1949.51,346.728 
  1951.29,346.728 1953.07,346.728 1954.85,346.728 1956.63,346.728 1958.4,346.728 1960.18,346.728 1961.96,346.728 1963.74,346.728 1965.52,346.728 1967.3,346.728 
  1969.08,346.728 1970.85,346.728 1972.63,346.728 1974.41,346.728 1976.19,346.728 1977.97,346.728 1979.75,346.728 1981.53,346.728 1983.3,346.728 1985.08,346.728 
  1986.86,346.728 1988.64,346.728 1990.42,346.728 1992.2,346.728 1993.98,346.728 1995.75,346.728 1997.53,346.728 1999.31,346.728 2001.09,346.728 2002.87,346.728 
  2004.65,378.152 2006.43,378.152 2008.21,378.152 2009.98,378.152 2011.76,378.152 2013.54,378.152 2015.32,378.152 2017.1,378.152 2018.88,378.152 2020.66,378.152 
  2022.43,378.152 2024.21,378.152 2025.99,378.152 2027.77,378.152 2029.55,378.152 2031.33,378.152 2033.11,378.152 2034.88,378.152 2036.66,378.152 2038.44,378.152 
  2040.22,378.152 2042,378.152 2043.78,378.152 2045.56,378.152 2047.33,378.152 2049.11,378.152 2050.89,378.152 2052.67,378.152 2054.45,378.152 2056.23,378.152 
  2058.01,378.152 2059.79,378.152 2061.56,378.152 2063.34,378.152 2065.12,378.152 2066.9,378.152 2068.68,378.152 2070.46,378.152 2072.24,378.152 2074.01,378.152 
  2075.79,378.152 2077.57,378.152 2079.35,378.152 2081.13,378.152 2082.91,378.152 2084.69,378.152 2086.46,378.152 2088.24,378.152 2090.02,378.152 2091.8,378.152 
  2093.58,378.152 2095.36,378.152 2097.14,378.152 2098.92,378.152 2100.69,378.152 2102.47,378.152 2104.25,378.152 2106.03,378.152 2107.81,378.152 2109.59,378.152 
  2111.37,383.39 2113.14,383.39 2114.92,383.39 2116.7,383.39 2118.48,383.39 2120.26,383.39 2122.04,383.39 2123.82,383.39 2125.59,383.39 2127.37,383.39 
  2129.15,383.39 2130.93,383.39 2132.71,383.39 2134.49,383.39 2136.27,383.39 2138.04,383.39 2139.82,383.39 2141.6,383.39 2143.38,383.39 2145.16,383.39 
  2146.94,383.39 2148.72,383.39 2150.5,383.39 2152.27,383.39 2154.05,383.39 2155.83,383.39 2157.61,383.39 2159.39,383.39 2161.17,383.39 2162.95,383.39 
  2164.72,383.39 2166.5,383.39 2168.28,383.39 2170.06,383.39 2171.84,383.39 2173.62,383.39 2175.4,383.39 2177.17,383.39 2178.95,383.39 2180.73,383.39 
  2182.51,383.39 2184.29,383.39 2186.07,383.39 2187.85,383.39 2189.62,383.39 2191.4,383.39 2193.18,383.39 2194.96,383.39 2196.74,383.39 2198.52,383.39 
  2200.3,383.39 2202.08,383.39 2203.85,383.39 2205.63,383.39 2207.41,383.39 2209.19,383.39 2210.97,383.39 2212.75,383.39 2214.53,383.39 2216.3,383.39 
  2218.08,456.713 2219.86,456.713 2221.64,456.713 2223.42,456.713 2225.2,456.713 2226.98,456.713 2228.75,456.713 2230.53,456.713 2232.31,456.713 2234.09,456.713 
  2235.87,456.713 2237.65,456.713 2239.43,456.713 2241.2,456.713 2242.98,456.713 2244.76,456.713 2246.54,456.713 2248.32,456.713 2250.1,456.713 2251.88,456.713 
  2253.66,456.713 2255.43,456.713 2257.21,456.713 2258.99,456.713 2260.77,456.713 2262.55,456.713 2264.33,456.713 2266.11,456.713 2267.88,456.713 2269.66,456.713 
  2271.44,456.713 2273.22,456.713 2275,456.713 2276.78,456.713 2278.56,456.713 2280.33,456.713 2282.11,456.713 2283.89,456.713 2285.67,456.713 2287.45,456.713 
  2289.23,456.713 2291.01,456.713 2292.78,456.713 2294.56,456.713 2296.34,456.713 2298.12,456.713 2299.9,456.713 2301.68,456.713 2303.46,456.713 2305.24,456.713 
  2307.01,456.713 2308.79,456.713 2310.57,456.713 2312.35,456.713 2314.13,456.713 2315.91,456.713 2317.69,456.713 2319.46,456.713 2321.24,456.713 2323.02,456.713 
  2324.8,535.274 2326.58,535.274 2328.36,535.274 2330.14,535.274 2331.91,535.274 2333.69,535.274 2335.47,535.274 2337.25,535.274 2339.03,535.274 2340.81,535.274 
  2342.59,535.274 2344.36,535.274 2346.14,535.274 2347.92,535.274 2349.7,535.274 2351.48,535.274 2353.26,535.274 2355.04,535.274 2356.82,535.274 2358.59,535.274 
  2360.37,535.274 2362.15,535.274 2363.93,535.274 2365.71,535.274 2367.49,535.274 2369.27,535.274 2371.04,535.274 2372.82,535.274 2374.6,535.274 2376.38,535.274 
  2378.16,535.274 2379.94,535.274 2381.72,535.274 2383.49,535.274 2385.27,535.274 2387.05,535.274 2388.83,535.274 2390.61,535.274 2392.39,535.274 2394.17,535.274 
  2395.94,535.274 2397.72,535.274 2399.5,535.274 2401.28,535.274 2403.06,535.274 2404.84,535.274 2406.62,535.274 2408.4,535.274 2410.17,535.274 2411.95,535.274 
  2413.73,535.274 2415.51,535.274 2417.29,535.274 2419.07,535.274 2420.85,535.274 2422.62,535.274 2424.4,535.274 2426.18,535.274 2427.96,535.274 2429.74,535.274 
  2431.52,807.617 2433.3,807.617 2435.07,807.617 2436.85,807.617 2438.63,807.617 2440.41,807.617 2442.19,807.617 2443.97,807.617 2445.75,807.617 2447.53,807.617 
  2449.3,807.617 2451.08,807.617 2452.86,807.617 2454.64,807.617 2456.42,807.617 2458.2,807.617 2459.98,807.617 2461.75,807.617 2463.53,807.617 2465.31,807.617 
  2467.09,807.617 2468.87,807.617 2470.65,807.617 2472.43,807.617 2474.2,807.617 2475.98,807.617 2477.76,807.617 2479.54,807.617 2481.32,807.617 2483.1,807.617 
  2484.88,807.617 2486.65,807.617 2488.43,807.617 2490.21,807.617 2491.99,807.617 2493.77,807.617 2495.55,807.617 2497.33,807.617 2499.11,807.617 2500.88,807.617 
  2502.66,807.617 2504.44,807.617 2506.22,807.617 2508,807.617 2509.78,807.617 2511.56,807.617 2513.33,807.617 2515.11,807.617 2516.89,807.617 2518.67,807.617 
  2520.45,807.617 2522.23,807.617 2524.01,807.617 2525.78,807.617 2527.56,807.617 2529.34,807.617 2531.12,807.617 2532.9,807.617 2534.68,807.617 2536.46,807.617 
  2538.23,1017.11 2540.01,1017.11 2541.79,1017.11 2543.57,1017.11 2545.35,1017.11 2547.13,1017.11 2548.91,1017.11 2550.69,1017.11 2552.46,1017.11 2554.24,1017.11 
  2556.02,1017.11 2557.8,1017.11 2559.58,1017.11 2561.36,1017.11 2563.14,1017.11 2564.91,1017.11 2566.69,1017.11 2568.47,1017.11 2570.25,1017.11 2572.03,1017.11 
  2573.81,1017.11 2575.59,1017.11 2577.36,1017.11 2579.14,1017.11 2580.92,1017.11 2582.7,1017.11 2584.48,1017.11 2586.26,1017.11 2588.04,1017.11 2589.81,1017.11 
  2591.59,1017.11 2593.37,1017.11 2595.15,1017.11 2596.93,1017.11 2598.71,1017.11 2600.49,1017.11 2602.27,1017.11 2604.04,1017.11 2605.82,1017.11 2607.6,1017.11 
  2609.38,1017.11 2611.16,1017.11 2612.94,1017.11 2614.72,1017.11 2616.49,1017.11 2618.27,1017.11 2620.05,1017.11 2621.83,1017.11 2623.61,1017.11 2625.39,1017.11 
  2627.17,1017.11 2628.94,1017.11 2630.72,1017.11 2632.5,1017.11 2634.28,1017.11 2636.06,1017.11 2637.84,1017.11 2639.62,1017.11 2641.39,1017.11 2643.17,1017.11 
  2644.95,1095.67 2646.73,1095.67 2648.51,1095.67 2650.29,1095.67 2652.07,1095.67 2653.85,1095.67 2655.62,1095.67 2657.4,1095.67 2659.18,1095.67 2660.96,1095.67 
  2662.74,1095.67 2664.52,1095.67 2666.3,1095.67 2668.07,1095.67 2669.85,1095.67 2671.63,1095.67 2673.41,1095.67 2675.19,1095.67 2676.97,1095.67 2678.75,1095.67 
  2680.52,1095.67 2682.3,1095.67 2684.08,1095.67 2685.86,1095.67 2687.64,1095.67 2689.42,1095.67 2691.2,1095.67 2692.97,1095.67 2694.75,1095.67 2696.53,1095.67 
  2698.31,1095.67 2700.09,1095.67 2701.87,1095.67 2703.65,1095.67 2705.43,1095.67 2707.2,1095.67 2708.98,1095.67 2710.76,1095.67 2712.54,1095.67 2714.32,1095.67 
  2716.1,1095.67 2717.88,1095.67 2719.65,1095.67 2721.43,1095.67 2723.21,1095.67 2724.99,1095.67 2726.77,1095.67 2728.55,1095.67 2730.33,1095.67 2732.1,1095.67 
  2733.88,1095.67 2735.66,1095.67 2737.44,1095.67 2739.22,1095.67 2741,1095.67 2742.78,1095.67 2744.55,1095.67 2746.33,1095.67 2748.11,1095.67 2749.89,1095.67 
  2751.67,1174.23 2753.45,1174.23 2755.23,1174.23 2757.01,1174.23 2758.78,1174.23 2760.56,1174.23 2762.34,1174.23 2764.12,1174.23 2765.9,1174.23 2767.68,1174.23 
  2769.46,1174.23 2771.23,1174.23 2773.01,1174.23 2774.79,1174.23 2776.57,1174.23 2778.35,1174.23 2780.13,1174.23 2781.91,1174.23 2783.68,1174.23 2785.46,1174.23 
  2787.24,1174.23 2789.02,1174.23 2790.8,1174.23 2792.58,1174.23 2794.36,1174.23 2796.13,1174.23 2797.91,1174.23 2799.69,1174.23 2801.47,1174.23 2803.25,1174.23 
  2805.03,1174.23 2806.81,1174.23 2808.59,1174.23 2810.36,1174.23 2812.14,1174.23 2813.92,1174.23 2815.7,1174.23 2817.48,1174.23 2819.26,1174.23 2821.04,1174.23 
  2822.81,1174.23 2824.59,1174.23 2826.37,1174.23 2828.15,1174.23 2829.93,1174.23 2831.71,1174.23 2833.49,1174.23 2835.26,1174.23 2837.04,1174.23 2838.82,1174.23 
  2840.6,1174.23 2842.38,1174.23 2844.16,1174.23 2845.94,1174.23 2847.72,1174.23 2849.49,1174.23 2851.27,1174.23 2853.05,1174.23 2854.83,1174.23 2856.61,1174.23 
  2858.39,1258.03 2860.17,1258.03 2861.94,1258.03 2863.72,1258.03 2865.5,1258.03 2867.28,1258.03 2869.06,1258.03 2870.84,1258.03 2872.62,1258.03 2874.39,1258.03 
  2876.17,1258.03 2877.95,1258.03 2879.73,1258.03 2881.51,1258.03 2883.29,1258.03 2885.07,1258.03 2886.84,1258.03 2888.62,1258.03 2890.4,1258.03 2892.18,1258.03 
  2893.96,1258.03 2895.74,1258.03 2897.52,1258.03 2899.3,1258.03 2901.07,1258.03 2902.85,1258.03 2904.63,1258.03 2906.41,1258.03 2908.19,1258.03 2909.97,1258.03 
  2911.75,1258.03 2913.52,1258.03 2915.3,1258.03 2917.08,1258.03 2918.86,1258.03 2920.64,1258.03 2922.42,1258.03 2924.2,1258.03 2925.97,1258.03 2927.75,1258.03 
  2929.53,1258.03 2931.31,1258.03 2933.09,1258.03 2934.87,1258.03 2936.65,1258.03 2938.42,1258.03 2940.2,1258.03 2941.98,1258.03 2943.76,1258.03 2945.54,1258.03 
  2947.32,1258.03 2949.1,1258.03 2950.88,1258.03 2952.65,1258.03 2954.43,1258.03 2956.21,1258.03 2957.99,1258.03 2959.77,1258.03 2961.55,1258.03 2963.33,1258.03 
  2965.1,1352.3 2966.88,1352.3 2968.66,1352.3 2970.44,1352.3 2972.22,1352.3 2974,1352.3 2975.78,1352.3 2977.55,1352.3 2979.33,1352.3 2981.11,1352.3 
  2982.89,1352.3 2984.67,1352.3 2986.45,1352.3 2988.23,1352.3 2990,1352.3 2991.78,1352.3 2993.56,1352.3 2995.34,1352.3 2997.12,1352.3 2998.9,1352.3 
  3000.68,1352.3 3002.46,1352.3 3004.23,1352.3 3006.01,1352.3 3007.79,1352.3 3009.57,1352.3 3011.35,1352.3 3013.13,1352.3 3014.91,1352.3 3016.68,1352.3 
  3018.46,1352.3 3020.24,1352.3 3022.02,1352.3 3023.8,1352.3 3025.58,1352.3 3027.36,1352.3 3029.13,1352.3 3030.91,1352.3 3032.69,1352.3 3034.47,1352.3 
  3036.25,1352.3 3038.03,1352.3 3039.81,1352.3 3041.58,1352.3 3043.36,1352.3 3045.14,1352.3 3046.92,1352.3 3048.7,1352.3 3050.48,1352.3 3052.26,1352.3 
  3054.04,1352.3 3055.81,1352.3 3057.59,1352.3 3059.37,1352.3 3061.15,1352.3 3062.93,1352.3 3064.71,1352.3 3066.49,1352.3 3068.26,1352.3 3070.04,1352.3 
  3071.82,1409.92 3073.6,1409.92 3075.38,1409.92 3077.16,1409.92 3078.94,1409.92 3080.71,1409.92 3082.49,1409.92 3084.27,1409.92 3086.05,1409.92 3087.83,1409.92 
  3089.61,1409.92 3091.39,1409.92 3093.16,1409.92 3094.94,1409.92 3096.72,1409.92 3098.5,1409.92 3100.28,1409.92 3102.06,1409.92 3103.84,1409.92 3105.62,1409.92 
  3107.39,1409.92 3109.17,1409.92 3110.95,1409.92 3112.73,1409.92 3114.51,1409.92 3116.29,1409.92 3118.07,1409.92 3119.84,1409.92 3121.62,1409.92 3123.4,1409.92 
  3125.18,1409.92 3126.96,1409.92 3128.74,1409.92 3130.52,1409.92 3132.29,1409.92 3134.07,1409.92 3135.85,1409.92 3137.63,1409.92 3139.41,1409.92 3141.19,1409.92 
  3142.97,1409.92 3144.74,1409.92 3146.52,1409.92 3148.3,1409.92 3150.08,1409.92 3151.86,1409.92 3153.64,1409.92 3155.42,1409.92 3157.2,1409.92 3158.97,1409.92 
  3160.75,1409.92 3162.53,1409.92 3164.31,1409.92 3166.09,1409.92 3167.87,1409.92 3169.65,1409.92 3171.42,1409.92 3173.2,1409.92 3174.98,1409.92 3176.76,1409.92 
  
  "/>
</svg>
